M48
; DRILL file {KiCad (6.0.10)} date Tue Oct  3 20:47:36 2023
; FORMAT={-:-/ absolute / inch / decimal}
; #@! TF.CreationDate,2023-10-03T20:47:36+09:00
; #@! TF.GenerationSoftware,Kicad,Pcbnew,(6.0.10)
; #@! TF.FileFunction,Plated,1,2,PTH
FMAT,2
INCH
; #@! TA.AperFunction,Plated,PTH,ViaDrill
T1C0.0157
; #@! TA.AperFunction,Plated,PTH,ComponentDrill
T2C0.0236
; #@! TA.AperFunction,Plated,PTH,ComponentDrill
T3C0.0276
; #@! TA.AperFunction,Plated,PTH,ComponentDrill
T4C0.0315
; #@! TA.AperFunction,Plated,PTH,ComponentDrill
T5C0.0354
; #@! TA.AperFunction,Plated,PTH,ComponentDrill
T6C0.0433
; #@! TA.AperFunction,Plated,PTH,ComponentDrill
T7C0.0441
; #@! TA.AperFunction,Plated,PTH,ComponentDrill
T8C0.1181
%
G90
G05
T1
X2.4409Y-2.511
X2.4409Y-3.6921
X2.4409Y-4.8732
X2.511Y-2.5395
X2.511Y-3.7206
X2.511Y-4.9018
X3.575Y-2.175
X3.575Y-3.3561
X3.575Y-4.5372
X3.82Y-2.125
X3.82Y-3.3061
X3.82Y-4.4872
X3.895Y-2.5
X3.895Y-3.6811
X3.895Y-4.8622
X3.8951Y-2.1751
X3.8951Y-2.2422
X3.8951Y-3.3562
X3.8951Y-3.4233
X3.8951Y-4.5373
X3.8951Y-4.6044
X3.945Y-2.5
X3.945Y-3.6811
X3.945Y-4.8622
X3.9451Y-2.2422
X3.9451Y-3.4233
X3.9451Y-4.6044
X3.995Y-2.5
X3.995Y-3.6811
X3.995Y-4.8622
X3.9951Y-2.2422
X3.9951Y-3.4233
X3.9951Y-4.6044
X4.04Y-2.125
X4.04Y-3.3061
X4.04Y-4.4872
X4.0951Y-2.2422
X4.0951Y-2.4981
X4.0951Y-3.4233
X4.0951Y-3.6792
X4.0951Y-4.6044
X4.0951Y-4.8603
X4.1299Y-2.3701
X4.1299Y-3.5512
X4.1299Y-4.7323
X4.145Y-2.5
X4.145Y-3.6811
X4.145Y-4.8622
X4.1451Y-2.2422
X4.1451Y-3.4233
X4.1451Y-4.6044
X4.195Y-2.5
X4.195Y-3.6811
X4.195Y-4.8622
X4.1951Y-2.2422
X4.1951Y-3.4233
X4.1951Y-4.6044
X4.295Y-2.5
X4.295Y-3.6811
X4.295Y-4.8622
X4.2951Y-1.9863
X4.2951Y-3.1674
X4.2951Y-4.3485
X4.345Y-2.5
X4.345Y-3.6811
X4.345Y-4.8622
X4.3451Y-1.9863
X4.3451Y-3.1674
X4.3451Y-4.3485
X4.395Y-2.3394
X4.395Y-2.5
X4.395Y-3.5205
X4.395Y-3.6811
X4.395Y-4.7016
X4.395Y-4.8622
X4.3951Y-1.9863
X4.3951Y-3.1674
X4.3951Y-4.3485
X4.495Y-2.5
X4.495Y-3.6811
X4.495Y-4.8622
X4.4951Y-2.0404
X4.4951Y-2.2422
X4.4951Y-3.2215
X4.4951Y-3.4233
X4.4951Y-4.4026
X4.4951Y-4.6044
X4.5453Y-2.2441
X4.5453Y-3.4252
X4.5453Y-4.6063
X4.645Y-2.3108
X4.645Y-2.5
X4.645Y-3.4919
X4.645Y-3.6811
X4.645Y-4.673
X4.645Y-4.8622
X4.6451Y-2.0715
X4.6451Y-2.2422
X4.6451Y-3.2526
X4.6451Y-3.4233
X4.6451Y-4.4337
X4.6451Y-4.6044
X4.695Y-2.5
X4.695Y-3.6811
X4.695Y-4.8622
X4.7038Y-2.3976
X4.7038Y-3.5787
X4.7038Y-4.7598
X4.795Y-2.5
X4.795Y-3.6811
X4.795Y-4.8622
X4.7953Y-2.2441
X4.7953Y-3.4252
X4.7953Y-4.6063
T3
X2.5898Y-2.063
X2.5898Y-2.3622
X2.5898Y-2.51
X2.5898Y-3.2441
X2.5898Y-3.5433
X2.5898Y-3.6911
X2.5898Y-4.4252
X2.5898Y-4.7244
X2.5898Y-4.8722
X2.5902Y-1.9094
X2.5902Y-2.2047
X2.5902Y-3.0906
X2.5902Y-3.3858
X2.5902Y-4.2717
X2.5902Y-4.5669
X2.8898Y-2.063
X2.8898Y-2.3622
X2.8898Y-2.51
X2.8898Y-3.2441
X2.8898Y-3.5433
X2.8898Y-3.6911
X2.8898Y-4.4252
X2.8898Y-4.7244
X2.8898Y-4.8722
X2.8902Y-1.9094
X2.8902Y-2.2047
X2.8902Y-3.0906
X2.8902Y-3.3858
X2.8902Y-4.2717
X2.8902Y-4.5669
T4
X1.7864Y-2.0543
X1.7864Y-2.3543
X1.7864Y-3.2354
X1.7864Y-3.5354
X1.7864Y-4.4165
X1.7864Y-4.7165
X1.8864Y-2.0543
X1.8864Y-2.3543
X1.8864Y-3.2354
X1.8864Y-3.5354
X1.8864Y-4.4165
X1.8864Y-4.7165
X1.9864Y-2.0543
X1.9864Y-2.3543
X1.9864Y-3.2354
X1.9864Y-3.5354
X1.9864Y-4.4165
X1.9864Y-4.7165
X2.0864Y-2.0543
X2.0864Y-2.3543
X2.0864Y-3.2354
X2.0864Y-3.5354
X2.0864Y-4.4165
X2.0864Y-4.7165
X2.1864Y-2.0543
X2.1864Y-2.3543
X2.1864Y-3.2354
X2.1864Y-3.5354
X2.1864Y-4.4165
X2.1864Y-4.7165
X2.2864Y-2.0543
X2.2864Y-2.3543
X2.2864Y-3.2354
X2.2864Y-3.5354
X2.2864Y-4.4165
X2.2864Y-4.7165
X2.3864Y-2.0543
X2.3864Y-2.3543
X2.3864Y-3.2354
X2.3864Y-3.5354
X2.3864Y-4.4165
X2.3864Y-4.7165
T5
X3.0866Y-1.9187
X3.0866Y-2.0187
X3.0866Y-3.0998
X3.0866Y-3.1998
X3.0866Y-4.2809
X3.0866Y-4.3809
X3.3425Y-1.9187
X3.3425Y-2.0187
X3.3425Y-3.0998
X3.3425Y-3.1998
X3.3425Y-4.2809
X3.3425Y-4.3809
X3.6024Y-1.9187
X3.6024Y-2.0187
X3.6024Y-3.0998
X3.6024Y-3.1998
X3.6024Y-4.2809
X3.6024Y-4.3809
T6
X3.061Y-2.2343
X3.061Y-2.4902
X3.061Y-3.4154
X3.061Y-3.6713
X3.061Y-4.5965
X3.061Y-4.8524
X3.2382Y-2.2343
X3.2382Y-2.4902
X3.2382Y-3.4154
X3.2382Y-3.6713
X3.2382Y-4.5965
X3.2382Y-4.8524
X3.4547Y-2.2343
X3.4547Y-2.4902
X3.4547Y-3.4154
X3.4547Y-3.6713
X3.4547Y-4.5965
X3.4547Y-4.8524
X3.6319Y-2.2343
X3.6319Y-2.4902
X3.6319Y-3.4154
X3.6319Y-3.6713
X3.6319Y-4.5965
X3.6319Y-4.8524
T7
X1.5482Y-2.1339
X1.5482Y-2.2756
X1.5482Y-3.315
X1.5482Y-3.4567
X1.5482Y-4.4961
X1.5482Y-4.6378
T2
G00X1.4124Y-2.0354
M15
G01X1.3848Y-2.0354
M16
G05
G00X1.4124Y-2.374
M15
G01X1.3848Y-2.374
M16
G05
G00X1.4124Y-3.2165
M15
G01X1.3848Y-3.2165
M16
G05
G00X1.4124Y-3.5551
M15
G01X1.3848Y-3.5551
M16
G05
G00X1.4124Y-4.3976
M15
G01X1.3848Y-4.3976
M16
G05
G00X1.4124Y-4.7362
M15
G01X1.3848Y-4.7362
M16
G05
T8
G00X5.0394Y-1.9488
M15
G01X5.0394Y-2.1457
M16
G05
G00X5.0394Y-3.1299
M15
G01X5.0394Y-3.3268
M16
G05
G00X5.0394Y-4.311
M15
G01X5.0394Y-4.5079
M16
G05
T0
M30
