M48
; DRILL file {KiCad (6.0.10)} date Sun May 12 12:00:53 2024
; FORMAT={-:-/ absolute / inch / decimal}
; #@! TF.CreationDate,2024-05-12T12:00:53+09:00
; #@! TF.GenerationSoftware,Kicad,Pcbnew,(6.0.10)
; #@! TF.FileFunction,Plated,1,2,PTH
FMAT,2
INCH
; #@! TA.AperFunction,Plated,PTH,ViaDrill
T1C0.0157
; #@! TA.AperFunction,Plated,PTH,ComponentDrill
T2C0.0236
; #@! TA.AperFunction,Plated,PTH,ComponentDrill
T3C0.0276
; #@! TA.AperFunction,Plated,PTH,ComponentDrill
T4C0.0315
; #@! TA.AperFunction,Plated,PTH,ComponentDrill
T5C0.0354
; #@! TA.AperFunction,Plated,PTH,ComponentDrill
T6C0.0433
; #@! TA.AperFunction,Plated,PTH,ComponentDrill
T7C0.0441
; #@! TA.AperFunction,Plated,PTH,ComponentDrill
T8C0.1181
%
G90
G05
T1
X2.6654Y-1.8571
X2.9283Y-1.8854
X2.9642Y-1.914
X3.0006Y-1.9425
X3.0736Y-1.739
X3.13Y-1.9425
X3.2193Y-1.8854
X3.2748Y-2.0563
X3.7183Y-1.5219
X3.7579Y-1.6244
X3.7919Y-1.5955
X3.9862Y-1.4374
X3.9945Y-1.6535
X4.0071Y-1.5157
X4.0157Y-1.4659
X4.1075Y-1.5157
X4.1231Y-1.9292
X4.151Y-1.9921
X4.1516Y-1.5512
X4.1516Y-1.7697
X4.2008Y-1.5512
X4.2008Y-1.7697
X4.2008Y-1.9921
X4.2293Y-1.6535
X4.251Y-1.9921
X4.2835Y-1.9292
X4.2909Y-1.4374
X4.3214Y-1.4659
X4.3504Y-1.5512
X4.3504Y-1.7717
X4.351Y-1.9921
X4.3823Y-1.6421
X4.401Y-1.5512
X4.4016Y-1.7697
X4.4016Y-1.9921
X4.4508Y-1.6672
X4.4508Y-1.5512
X4.4508Y-1.7836
X4.4508Y-1.872
X4.4508Y-1.9921
X4.5512Y-1.6291
X4.5512Y-1.7697
X4.5512Y-1.9921
X4.6004Y-1.9921
X4.6012Y-1.6594
X4.6012Y-1.7701
X4.6516Y-1.6571
X4.6516Y-1.7677
X4.6516Y-1.9921
X4.6969Y-1.8543
X4.75Y-1.9921
X4.752Y-1.5512
X4.8012Y-1.5512
X4.8622Y-1.4528
X4.901Y-1.6805
X4.9016Y-1.7697
X4.9016Y-1.9921
X4.9508Y-1.5512
X5.0512Y-1.5512
X5.101Y-1.5512
X5.101Y-1.7698
X5.1012Y-1.9917
T3
X2.8224Y-1.4803
X2.8224Y-1.6339
X2.8224Y-1.7874
X3.1224Y-1.4803
X3.1224Y-1.6339
X3.1224Y-1.7874
T4
X2.0423Y-1.4835
X2.0423Y-1.7835
X2.1423Y-1.4835
X2.1423Y-1.7835
X2.2423Y-1.4835
X2.2423Y-1.7835
X2.3423Y-1.4835
X2.3423Y-1.7835
X2.4423Y-1.4835
X2.4423Y-1.7835
X2.5423Y-1.4835
X2.5423Y-1.7835
X2.6423Y-1.4835
X2.6423Y-1.7835
T5
X3.3858Y-1.4701
X3.3858Y-1.5701
X3.622Y-1.4659
X3.622Y-1.5659
X3.8583Y-1.4659
X3.8583Y-1.5659
T6
X3.3524Y-1.7303
X3.3524Y-1.9862
X3.5295Y-1.7303
X3.5295Y-1.9862
X3.7146Y-1.7303
X3.7146Y-1.9862
X3.8917Y-1.7303
X3.8917Y-1.9862
T7
X1.8632Y-1.7008
X1.8632Y-1.8425
T2
G00X1.7274Y-1.6024
M15
G01X1.6998Y-1.6024
M16
G05
G00X1.7274Y-1.9409
M15
G01X1.6998Y-1.9409
M16
G05
T8
G00X5.315Y-1.5748
M15
G01X5.315Y-1.7717
M16
G05
T0
M30
