%TF.GenerationSoftware,KiCad,Pcbnew,(6.0.10)*%
%TF.CreationDate,2024-05-12T12:00:46+09:00*%
%TF.ProjectId,simpleLogicCircuit,73696d70-6c65-44c6-9f67-696343697263,rev?*%
%TF.SameCoordinates,Original*%
%TF.FileFunction,Copper,L1,Top*%
%TF.FilePolarity,Positive*%
%FSLAX46Y46*%
G04 Gerber Fmt 4.6, Leading zero omitted, Abs format (unit mm)*
G04 Created by KiCad (PCBNEW (6.0.10)) date 2024-05-12 12:00:46*
%MOMM*%
%LPD*%
G01*
G04 APERTURE LIST*
G04 Aperture macros list*
%AMRoundRect*
0 Rectangle with rounded corners*
0 $1 Rounding radius*
0 $2 $3 $4 $5 $6 $7 $8 $9 X,Y pos of 4 corners*
0 Add a 4 corners polygon primitive as box body*
4,1,4,$2,$3,$4,$5,$6,$7,$8,$9,$2,$3,0*
0 Add four circle primitives for the rounded corners*
1,1,$1+$1,$2,$3*
1,1,$1+$1,$4,$5*
1,1,$1+$1,$6,$7*
1,1,$1+$1,$8,$9*
0 Add four rect primitives between the rounded corners*
20,1,$1+$1,$2,$3,$4,$5,0*
20,1,$1+$1,$4,$5,$6,$7,0*
20,1,$1+$1,$6,$7,$8,$9,0*
20,1,$1+$1,$8,$9,$2,$3,0*%
G04 Aperture macros list end*
%ADD10C,0.300000*%
%TA.AperFunction,NonConductor*%
%ADD11C,0.300000*%
%TD*%
%TA.AperFunction,ComponentPad*%
%ADD12R,1.800000X1.800000*%
%TD*%
%TA.AperFunction,ComponentPad*%
%ADD13C,1.800000*%
%TD*%
%TA.AperFunction,SMDPad,CuDef*%
%ADD14RoundRect,0.225000X-0.225000X-0.525000X0.225000X-0.525000X0.225000X0.525000X-0.225000X0.525000X0*%
%TD*%
%TA.AperFunction,ComponentPad*%
%ADD15C,1.400000*%
%TD*%
%TA.AperFunction,ComponentPad*%
%ADD16O,1.400000X1.400000*%
%TD*%
%TA.AperFunction,ComponentPad*%
%ADD17O,2.000000X1.300000*%
%TD*%
%TA.AperFunction,ComponentPad*%
%ADD18C,2.000000*%
%TD*%
%TA.AperFunction,ComponentPad*%
%ADD19R,1.600000X1.600000*%
%TD*%
%TA.AperFunction,ComponentPad*%
%ADD20O,1.600000X1.600000*%
%TD*%
%TA.AperFunction,ComponentPad*%
%ADD21O,4.000000X9.000000*%
%TD*%
%TA.AperFunction,SMDPad,CuDef*%
%ADD22RoundRect,0.050000X-0.050000X-1.200000X0.050000X-1.200000X0.050000X1.200000X-0.050000X1.200000X0*%
%TD*%
%TA.AperFunction,SMDPad,CuDef*%
%ADD23RoundRect,0.050000X-0.050000X-0.950000X0.050000X-0.950000X0.050000X0.950000X-0.050000X0.950000X0*%
%TD*%
%TA.AperFunction,SMDPad,CuDef*%
%ADD24RoundRect,0.050000X-0.050000X-0.700000X0.050000X-0.700000X0.050000X0.700000X-0.050000X0.700000X0*%
%TD*%
%TA.AperFunction,ViaPad*%
%ADD25C,0.800000*%
%TD*%
%TA.AperFunction,Conductor*%
%ADD26C,0.250000*%
%TD*%
%TA.AperFunction,Conductor*%
%ADD27C,0.500000*%
%TD*%
G04 APERTURE END LIST*
D10*
%TO.C,REF\u002A\u002A*%
D11*
X99571428Y-33178571D02*
X99285714Y-33178571D01*
X99142857Y-33250000D01*
X99071428Y-33321428D01*
X98928571Y-33535714D01*
X98857142Y-33821428D01*
X98857142Y-34392857D01*
X98928571Y-34535714D01*
X99000000Y-34607142D01*
X99142857Y-34678571D01*
X99428571Y-34678571D01*
X99571428Y-34607142D01*
X99642857Y-34535714D01*
X99714285Y-34392857D01*
X99714285Y-34035714D01*
X99642857Y-33892857D01*
X99571428Y-33821428D01*
X99428571Y-33750000D01*
X99142857Y-33750000D01*
X99000000Y-33821428D01*
X98928571Y-33892857D01*
X98857142Y-34035714D01*
X100642857Y-33178571D02*
X100785714Y-33178571D01*
X100928571Y-33250000D01*
X101000000Y-33321428D01*
X101071428Y-33464285D01*
X101142857Y-33750000D01*
X101142857Y-34107142D01*
X101071428Y-34392857D01*
X101000000Y-34535714D01*
X100928571Y-34607142D01*
X100785714Y-34678571D01*
X100642857Y-34678571D01*
X100500000Y-34607142D01*
X100428571Y-34535714D01*
X100357142Y-34392857D01*
X100285714Y-34107142D01*
X100285714Y-33750000D01*
X100357142Y-33464285D01*
X100428571Y-33321428D01*
X100500000Y-33250000D01*
X100642857Y-33178571D01*
D10*
D11*
X49714285Y-34678571D02*
X48857142Y-34678571D01*
X49285714Y-34678571D02*
X49285714Y-33178571D01*
X49142857Y-33392857D01*
X49000000Y-33535714D01*
X48857142Y-33607142D01*
X50642857Y-33178571D02*
X50785714Y-33178571D01*
X50928571Y-33250000D01*
X51000000Y-33321428D01*
X51071428Y-33464285D01*
X51142857Y-33750000D01*
X51142857Y-34107142D01*
X51071428Y-34392857D01*
X51000000Y-34535714D01*
X50928571Y-34607142D01*
X50785714Y-34678571D01*
X50642857Y-34678571D01*
X50500000Y-34607142D01*
X50428571Y-34535714D01*
X50357142Y-34392857D01*
X50285714Y-34107142D01*
X50285714Y-33750000D01*
X50357142Y-33464285D01*
X50428571Y-33321428D01*
X50500000Y-33250000D01*
X50642857Y-33178571D01*
D10*
D11*
X129000000Y-34678571D02*
X129285714Y-34678571D01*
X129428571Y-34607142D01*
X129500000Y-34535714D01*
X129642857Y-34321428D01*
X129714285Y-34035714D01*
X129714285Y-33464285D01*
X129642857Y-33321428D01*
X129571428Y-33250000D01*
X129428571Y-33178571D01*
X129142857Y-33178571D01*
X129000000Y-33250000D01*
X128928571Y-33321428D01*
X128857142Y-33464285D01*
X128857142Y-33821428D01*
X128928571Y-33964285D01*
X129000000Y-34035714D01*
X129142857Y-34107142D01*
X129428571Y-34107142D01*
X129571428Y-34035714D01*
X129642857Y-33964285D01*
X129714285Y-33821428D01*
X130642857Y-33178571D02*
X130785714Y-33178571D01*
X130928571Y-33250000D01*
X131000000Y-33321428D01*
X131071428Y-33464285D01*
X131142857Y-33750000D01*
X131142857Y-34107142D01*
X131071428Y-34392857D01*
X131000000Y-34535714D01*
X130928571Y-34607142D01*
X130785714Y-34678571D01*
X130642857Y-34678571D01*
X130500000Y-34607142D01*
X130428571Y-34535714D01*
X130357142Y-34392857D01*
X130285714Y-34107142D01*
X130285714Y-33750000D01*
X130357142Y-33464285D01*
X130428571Y-33321428D01*
X130500000Y-33250000D01*
X130642857Y-33178571D01*
D10*
D11*
X89642857Y-33178571D02*
X88928571Y-33178571D01*
X88857142Y-33892857D01*
X88928571Y-33821428D01*
X89071428Y-33750000D01*
X89428571Y-33750000D01*
X89571428Y-33821428D01*
X89642857Y-33892857D01*
X89714285Y-34035714D01*
X89714285Y-34392857D01*
X89642857Y-34535714D01*
X89571428Y-34607142D01*
X89428571Y-34678571D01*
X89071428Y-34678571D01*
X88928571Y-34607142D01*
X88857142Y-34535714D01*
X90642857Y-33178571D02*
X90785714Y-33178571D01*
X90928571Y-33250000D01*
X91000000Y-33321428D01*
X91071428Y-33464285D01*
X91142857Y-33750000D01*
X91142857Y-34107142D01*
X91071428Y-34392857D01*
X91000000Y-34535714D01*
X90928571Y-34607142D01*
X90785714Y-34678571D01*
X90642857Y-34678571D01*
X90500000Y-34607142D01*
X90428571Y-34535714D01*
X90357142Y-34392857D01*
X90285714Y-34107142D01*
X90285714Y-33750000D01*
X90357142Y-33464285D01*
X90428571Y-33321428D01*
X90500000Y-33250000D01*
X90642857Y-33178571D01*
D10*
D11*
X119142857Y-33821428D02*
X119000000Y-33750000D01*
X118928571Y-33678571D01*
X118857142Y-33535714D01*
X118857142Y-33464285D01*
X118928571Y-33321428D01*
X119000000Y-33250000D01*
X119142857Y-33178571D01*
X119428571Y-33178571D01*
X119571428Y-33250000D01*
X119642857Y-33321428D01*
X119714285Y-33464285D01*
X119714285Y-33535714D01*
X119642857Y-33678571D01*
X119571428Y-33750000D01*
X119428571Y-33821428D01*
X119142857Y-33821428D01*
X119000000Y-33892857D01*
X118928571Y-33964285D01*
X118857142Y-34107142D01*
X118857142Y-34392857D01*
X118928571Y-34535714D01*
X119000000Y-34607142D01*
X119142857Y-34678571D01*
X119428571Y-34678571D01*
X119571428Y-34607142D01*
X119642857Y-34535714D01*
X119714285Y-34392857D01*
X119714285Y-34107142D01*
X119642857Y-33964285D01*
X119571428Y-33892857D01*
X119428571Y-33821428D01*
X120642857Y-33178571D02*
X120785714Y-33178571D01*
X120928571Y-33250000D01*
X121000000Y-33321428D01*
X121071428Y-33464285D01*
X121142857Y-33750000D01*
X121142857Y-34107142D01*
X121071428Y-34392857D01*
X121000000Y-34535714D01*
X120928571Y-34607142D01*
X120785714Y-34678571D01*
X120642857Y-34678571D01*
X120500000Y-34607142D01*
X120428571Y-34535714D01*
X120357142Y-34392857D01*
X120285714Y-34107142D01*
X120285714Y-33750000D01*
X120357142Y-33464285D01*
X120428571Y-33321428D01*
X120500000Y-33250000D01*
X120642857Y-33178571D01*
D10*
D11*
X79571428Y-33678571D02*
X79571428Y-34678571D01*
X79214285Y-33107142D02*
X78857142Y-34178571D01*
X79785714Y-34178571D01*
X80642857Y-33178571D02*
X80785714Y-33178571D01*
X80928571Y-33250000D01*
X81000000Y-33321428D01*
X81071428Y-33464285D01*
X81142857Y-33750000D01*
X81142857Y-34107142D01*
X81071428Y-34392857D01*
X81000000Y-34535714D01*
X80928571Y-34607142D01*
X80785714Y-34678571D01*
X80642857Y-34678571D01*
X80500000Y-34607142D01*
X80428571Y-34535714D01*
X80357142Y-34392857D01*
X80285714Y-34107142D01*
X80285714Y-33750000D01*
X80357142Y-33464285D01*
X80428571Y-33321428D01*
X80500000Y-33250000D01*
X80642857Y-33178571D01*
D10*
D11*
X58857142Y-33321428D02*
X58928571Y-33250000D01*
X59071428Y-33178571D01*
X59428571Y-33178571D01*
X59571428Y-33250000D01*
X59642857Y-33321428D01*
X59714285Y-33464285D01*
X59714285Y-33607142D01*
X59642857Y-33821428D01*
X58785714Y-34678571D01*
X59714285Y-34678571D01*
X60642857Y-33178571D02*
X60785714Y-33178571D01*
X60928571Y-33250000D01*
X61000000Y-33321428D01*
X61071428Y-33464285D01*
X61142857Y-33750000D01*
X61142857Y-34107142D01*
X61071428Y-34392857D01*
X61000000Y-34535714D01*
X60928571Y-34607142D01*
X60785714Y-34678571D01*
X60642857Y-34678571D01*
X60500000Y-34607142D01*
X60428571Y-34535714D01*
X60357142Y-34392857D01*
X60285714Y-34107142D01*
X60285714Y-33750000D01*
X60357142Y-33464285D01*
X60428571Y-33321428D01*
X60500000Y-33250000D01*
X60642857Y-33178571D01*
D10*
D11*
X68785714Y-33178571D02*
X69714285Y-33178571D01*
X69214285Y-33750000D01*
X69428571Y-33750000D01*
X69571428Y-33821428D01*
X69642857Y-33892857D01*
X69714285Y-34035714D01*
X69714285Y-34392857D01*
X69642857Y-34535714D01*
X69571428Y-34607142D01*
X69428571Y-34678571D01*
X69000000Y-34678571D01*
X68857142Y-34607142D01*
X68785714Y-34535714D01*
X70642857Y-33178571D02*
X70785714Y-33178571D01*
X70928571Y-33250000D01*
X71000000Y-33321428D01*
X71071428Y-33464285D01*
X71142857Y-33750000D01*
X71142857Y-34107142D01*
X71071428Y-34392857D01*
X71000000Y-34535714D01*
X70928571Y-34607142D01*
X70785714Y-34678571D01*
X70642857Y-34678571D01*
X70500000Y-34607142D01*
X70428571Y-34535714D01*
X70357142Y-34392857D01*
X70285714Y-34107142D01*
X70285714Y-33750000D01*
X70357142Y-33464285D01*
X70428571Y-33321428D01*
X70500000Y-33250000D01*
X70642857Y-33178571D01*
D10*
D11*
X108785714Y-33178571D02*
X109785714Y-33178571D01*
X109142857Y-34678571D01*
X110642857Y-33178571D02*
X110785714Y-33178571D01*
X110928571Y-33250000D01*
X111000000Y-33321428D01*
X111071428Y-33464285D01*
X111142857Y-33750000D01*
X111142857Y-34107142D01*
X111071428Y-34392857D01*
X111000000Y-34535714D01*
X110928571Y-34607142D01*
X110785714Y-34678571D01*
X110642857Y-34678571D01*
X110500000Y-34607142D01*
X110428571Y-34535714D01*
X110357142Y-34392857D01*
X110285714Y-34107142D01*
X110285714Y-33750000D01*
X110357142Y-33464285D01*
X110428571Y-33321428D01*
X110500000Y-33250000D01*
X110642857Y-33178571D01*
%TD*%
D12*
%TO.P,X1,1,K*%
%TO.N,Net-(D1-Pad1)*%
X86000000Y-39880000D03*
D13*
%TO.P,X1,2,A*%
%TO.N,/X1*%
X86000000Y-37340000D03*
%TD*%
D14*
%TO.P,AND,1,Pin_1*%
%TO.N,/X1*%
X105435000Y-44952500D03*
%TO.P,AND,2,Pin_2*%
%TO.N,/74HC00-1*%
X106705000Y-44952500D03*
%TO.P,AND,3,Pin_3*%
%TO.N,/X2*%
X110515000Y-44952500D03*
%TO.P,AND,4,Pin_4*%
%TO.N,/74HC00-2*%
X111785000Y-44952500D03*
%TO.P,AND,5,Pin_5*%
%TO.N,/74HC00-3*%
X115595000Y-44952500D03*
%TO.P,AND,6,Pin_6*%
%TO.N,/74HC00-4*%
X116865000Y-44952500D03*
%TO.P,AND,7,Pin_7*%
%TO.N,/74HC00-5*%
X118135000Y-44952500D03*
%TO.P,AND,8,Pin_8*%
%TO.N,/74HC00-6*%
X128295000Y-44952500D03*
%TO.P,AND,9,Pin_9*%
%TO.N,/Y*%
X129565000Y-44952500D03*
%TD*%
D12*
%TO.P,X2,1,K*%
%TO.N,Net-(D2-Pad1)*%
X92000000Y-39775000D03*
D13*
%TO.P,X2,2,A*%
%TO.N,/X2*%
X92000000Y-37235000D03*
%TD*%
D12*
%TO.P,Y,1,K*%
%TO.N,Net-(D3-Pad1)*%
X98000000Y-39775000D03*
D13*
%TO.P,Y,2,A*%
%TO.N,/Y*%
X98000000Y-37235000D03*
%TD*%
D15*
%TO.P,R3,1*%
%TO.N,Net-(D3-Pad1)*%
X79310000Y-45400000D03*
D16*
%TO.P,R3,2*%
%TO.N,GND*%
X71690000Y-45400000D03*
%TD*%
D17*
%TO.P,USB-CPWR,S1,SHIELD*%
%TO.N,unconnected-(J1-PadS1)*%
X43525000Y-40700000D03*
X43525000Y-49300000D03*
D18*
%TO.P,USB-CPWR,A12,GND*%
%TO.N,GND*%
X47325000Y-46800000D03*
%TO.P,USB-CPWR,A9,VBUS*%
%TO.N,+5V*%
X47325000Y-43200000D03*
%TD*%
%TO.P,SW2,1,1*%
%TO.N,+5V*%
X94350000Y-50450000D03*
X94350000Y-43950000D03*
%TO.P,SW2,2,2*%
%TO.N,/X2*%
X98850000Y-43950000D03*
X98850000Y-50450000D03*
%TD*%
D15*
%TO.P,R2,1*%
%TO.N,Net-(D2-Pad1)*%
X79310000Y-41500000D03*
D16*
%TO.P,R2,2*%
%TO.N,GND*%
X71690000Y-41500000D03*
%TD*%
D19*
%TO.P,74HC00,1*%
%TO.N,/74HC00-1*%
X51875000Y-45300000D03*
D20*
%TO.P,74HC00,2*%
%TO.N,/74HC00-2*%
X54415000Y-45300000D03*
%TO.P,74HC00,3*%
%TO.N,/74HC00-3*%
X56955000Y-45300000D03*
%TO.P,74HC00,4*%
%TO.N,/74HC00-4*%
X59495000Y-45300000D03*
%TO.P,74HC00,5*%
%TO.N,/74HC00-5*%
X62035000Y-45300000D03*
%TO.P,74HC00,6*%
%TO.N,/74HC00-6*%
X64575000Y-45300000D03*
%TO.P,74HC00,7,GND*%
%TO.N,GND*%
X67115000Y-45300000D03*
%TO.P,74HC00,8*%
%TO.N,/74HC00-8*%
X67115000Y-37680000D03*
%TO.P,74HC00,9*%
%TO.N,/74HC00-9*%
X64575000Y-37680000D03*
%TO.P,74HC00,10*%
%TO.N,/74HC00-10*%
X62035000Y-37680000D03*
%TO.P,74HC00,11*%
%TO.N,/74HC00-11*%
X59495000Y-37680000D03*
%TO.P,74HC00,12*%
%TO.N,/74HC00-12*%
X56955000Y-37680000D03*
%TO.P,74HC00,13*%
%TO.N,/74HC00-13*%
X54415000Y-37680000D03*
%TO.P,74HC00,14,VCC*%
%TO.N,+5V*%
X51875000Y-37680000D03*
%TD*%
D14*
%TO.P,XOR,1,Pin_1*%
%TO.N,/X1*%
X105435000Y-50600000D03*
%TO.P,XOR,2,Pin_2*%
%TO.N,/74HC00-1*%
X106705000Y-50600000D03*
%TO.P,XOR,3,Pin_3*%
%TO.N,/74HC00-4*%
X107975000Y-50600000D03*
%TO.P,XOR,4,Pin_4*%
%TO.N,/X2*%
X110515000Y-50600000D03*
%TO.P,XOR,5,Pin_5*%
%TO.N,/74HC00-2*%
X111785000Y-50600000D03*
%TO.P,XOR,6,Pin_6*%
%TO.N,/74HC00-10*%
X113055000Y-50600000D03*
%TO.P,XOR,7,Pin_7*%
%TO.N,/74HC00-3*%
X115595000Y-50600000D03*
%TO.P,XOR,8,Pin_8*%
%TO.N,/74HC00-5*%
X116865000Y-50600000D03*
%TO.P,XOR,9,Pin_9*%
%TO.N,/74HC00-9*%
X118135000Y-50600000D03*
%TO.P,XOR,10,Pin_10*%
%TO.N,/74HC00-6*%
X120675000Y-50600000D03*
%TO.P,XOR,11,Pin_11*%
%TO.N,/74HC00-12*%
X121945000Y-50600000D03*
%TO.P,XOR,12,Pin_12*%
%TO.N,/74HC00-8*%
X124485000Y-50600000D03*
%TO.P,XOR,13,Pin_13*%
%TO.N,/74HC00-13*%
X125755000Y-50600000D03*
%TO.P,XOR,14,Pin_14*%
%TO.N,/74HC00-11*%
X128295000Y-50600000D03*
%TO.P,XOR,15,Pin_15*%
%TO.N,/Y*%
X129565000Y-50600000D03*
%TD*%
%TO.P,OR,1,Pin_1*%
%TO.N,/X1*%
X105435000Y-39400000D03*
%TO.P,OR,2,Pin_2*%
%TO.N,/74HC00-1*%
X106705000Y-39400000D03*
%TO.P,OR,3,Pin_3*%
%TO.N,/74HC00-2*%
X107975000Y-39400000D03*
%TO.P,OR,4,Pin_4*%
%TO.N,/X2*%
X110515000Y-39400000D03*
%TO.P,OR,5,Pin_5*%
%TO.N,/74HC00-4*%
X111785000Y-39400000D03*
%TO.P,OR,6,Pin_6*%
%TO.N,/74HC00-5*%
X113055000Y-39400000D03*
%TO.P,OR,7,Pin_7*%
%TO.N,/74HC00-3*%
X120675000Y-39400000D03*
%TO.P,OR,8,Pin_8*%
%TO.N,/74HC00-9*%
X121945000Y-39400000D03*
%TO.P,OR,9,Pin_9*%
%TO.N,/74HC00-6*%
X124485000Y-39400000D03*
%TO.P,OR,10,Pin_10*%
%TO.N,/74HC00-10*%
X125755000Y-39400000D03*
%TO.P,OR,11,Pin_11*%
%TO.N,/74HC00-8*%
X128295000Y-39400000D03*
%TO.P,OR,12,Pin_12*%
%TO.N,/Y*%
X129565000Y-39400000D03*
%TD*%
D21*
%TO.P,REF\u002A\u002A,2*%
%TO.N,N/C*%
X135000000Y-42500000D03*
%TD*%
D18*
%TO.P,SW1,1,1*%
%TO.N,+5V*%
X85150000Y-50450000D03*
X85150000Y-43950000D03*
%TO.P,SW1,2,2*%
%TO.N,/X1*%
X89650000Y-50450000D03*
X89650000Y-43950000D03*
%TD*%
D22*
%TO.P,REF\u002A\u002A,4*%
%TO.N,N/C*%
X60000000Y-31200000D03*
X70000000Y-31200000D03*
X130000000Y-31200000D03*
X90000000Y-31200000D03*
X120000000Y-31200000D03*
X110000000Y-31200000D03*
X80000000Y-31200000D03*
X100000000Y-31200000D03*
X50000000Y-31200000D03*
D23*
%TO.P,REF\u002A\u002A,13*%
X135000000Y-30950000D03*
X75000000Y-30950000D03*
X115000000Y-30950000D03*
X95000000Y-30950000D03*
X55000000Y-30950000D03*
X125000000Y-30950000D03*
X105000000Y-30950000D03*
X85000000Y-30950000D03*
X45000000Y-30950000D03*
X65000000Y-30950000D03*
D24*
%TO.P,REF\u002A\u002A,23*%
X74000000Y-30700000D03*
X64000000Y-30700000D03*
X44000000Y-30700000D03*
X94000000Y-30700000D03*
X84000000Y-30700000D03*
X114000000Y-30700000D03*
X134000000Y-30700000D03*
X124000000Y-30700000D03*
X104000000Y-30700000D03*
X54000000Y-30700000D03*
%TO.P,REF\u002A\u002A,24*%
X103000000Y-30700000D03*
X83000000Y-30700000D03*
X53000000Y-30700000D03*
X93000000Y-30700000D03*
X113000000Y-30700000D03*
X73000000Y-30700000D03*
X63000000Y-30700000D03*
X123000000Y-30700000D03*
X133000000Y-30700000D03*
X43000000Y-30700000D03*
%TO.P,REF\u002A\u002A,25*%
X62000000Y-30700000D03*
X82000000Y-30700000D03*
X102000000Y-30700000D03*
X122000000Y-30700000D03*
X92000000Y-30700000D03*
X132000000Y-30700000D03*
X42000000Y-30700000D03*
X52000000Y-30700000D03*
X72000000Y-30700000D03*
X112000000Y-30700000D03*
%TO.P,REF\u002A\u002A,26*%
X121000000Y-30700000D03*
X81000000Y-30700000D03*
X71000000Y-30700000D03*
X41000000Y-30700000D03*
X111000000Y-30700000D03*
X131000000Y-30700000D03*
X101000000Y-30700000D03*
X91000000Y-30700000D03*
X51000000Y-30700000D03*
X61000000Y-30700000D03*
%TO.P,REF\u002A\u002A,27*%
X76000000Y-30700000D03*
X106000000Y-30700000D03*
X46000000Y-30700000D03*
X96000000Y-30700000D03*
X126000000Y-30700000D03*
X56000000Y-30700000D03*
X66000000Y-30700000D03*
X136000000Y-30700000D03*
X116000000Y-30700000D03*
X86000000Y-30700000D03*
%TO.P,REF\u002A\u002A,28*%
X77000000Y-30700000D03*
X47000000Y-30700000D03*
X87000000Y-30700000D03*
X117000000Y-30700000D03*
X137000000Y-30700000D03*
X67000000Y-30700000D03*
X57000000Y-30700000D03*
X127000000Y-30700000D03*
X97000000Y-30700000D03*
X107000000Y-30700000D03*
%TO.P,REF\u002A\u002A,29*%
X108000000Y-30700000D03*
X68000000Y-30700000D03*
X48000000Y-30700000D03*
X138000000Y-30700000D03*
X128000000Y-30700000D03*
X78000000Y-30700000D03*
X88000000Y-30700000D03*
X118000000Y-30700000D03*
X58000000Y-30700000D03*
X98000000Y-30700000D03*
%TO.P,REF\u002A\u002A,30*%
X79000000Y-30700000D03*
X99000000Y-30700000D03*
X119000000Y-30700000D03*
X49000000Y-30700000D03*
X129000000Y-30700000D03*
X89000000Y-30700000D03*
X69000000Y-30700000D03*
X59000000Y-30700000D03*
X109000000Y-30700000D03*
X139000000Y-30700000D03*
%TD*%
D15*
%TO.P,R1,1*%
%TO.N,Net-(D1-Pad1)*%
X79310000Y-37600000D03*
D16*
%TO.P,R1,2*%
%TO.N,GND*%
X71690000Y-37600000D03*
%TD*%
D25*
%TO.N,/74HC00-5*%
X78070000Y-44170000D03*
%TO.N,/X2*%
X95450000Y-41260000D03*
%TO.N,/74HC00-5*%
X101780000Y-38500000D03*
%TO.N,/74HC00-1*%
X83180000Y-52230000D03*
X79501000Y-49339000D03*
X76214700Y-49339000D03*
%TO.N,/74HC00-2*%
X75291280Y-48614500D03*
%TO.N,/74HC00-3*%
X74380000Y-47890000D03*
X81770000Y-47890000D03*
%TO.N,/74HC00-4*%
X101460000Y-42000000D03*
X96314799Y-40525201D03*
%TO.N,/74HC00-5*%
X104330000Y-38500000D03*
%TO.N,/Y*%
X109762330Y-37235000D03*
X102000000Y-37235000D03*
%TO.N,/74HC00-6*%
X108990000Y-36510500D03*
X101250000Y-36510500D03*
%TO.N,/74HC00-2*%
X111310000Y-41710000D03*
%TO.N,/74HC00-3*%
X115600000Y-41380000D03*
%TO.N,/74HC00-4*%
X116870000Y-42150000D03*
X116870000Y-44960000D03*
%TO.N,/74HC00-5*%
X118150000Y-42090000D03*
%TO.N,/74HC00-10*%
X113049572Y-42346225D03*
X113050000Y-45303000D03*
%TO.N,/X2*%
X108800000Y-49002000D03*
X104725500Y-49002000D03*
%TO.N,/Y*%
X129570000Y-50590000D03*
X129565000Y-44952500D03*
%TO.N,/74HC00-4*%
X107424500Y-42000000D03*
%TO.N,/Y*%
X129565000Y-39400000D03*
%TO.N,/74HC00-4*%
X94444799Y-38655201D03*
%TO.N,/74HC00-6*%
X124485000Y-42685000D03*
%TO.N,/X1*%
X105450000Y-39400000D03*
X105435000Y-50600000D03*
X105450000Y-44950000D03*
%TO.N,/74HC00-1*%
X106700000Y-39400000D03*
X106700000Y-44950000D03*
X106700000Y-50600000D03*
%TO.N,/74HC00-4*%
X107975000Y-50600000D03*
X111785000Y-39400000D03*
X67700000Y-47170284D03*
%TO.N,/X2*%
X110500000Y-39400000D03*
X110500000Y-45000000D03*
X110515000Y-50600000D03*
%TO.N,/74HC00-2*%
X111800000Y-50600000D03*
X111800000Y-44950000D03*
%TO.N,/74HC00-10*%
X125750000Y-39400000D03*
X113050000Y-47550000D03*
X113050000Y-50600000D03*
%TO.N,/74HC00-3*%
X115600000Y-44950000D03*
X115600000Y-50600000D03*
X120700000Y-39400000D03*
%TO.N,/74HC00-5*%
X113050000Y-39400000D03*
X116850000Y-50600000D03*
X118150000Y-44900000D03*
%TO.N,/74HC00-9*%
X121950000Y-39400000D03*
X119300000Y-47100000D03*
X118150000Y-50600000D03*
%TO.N,/74HC00-6*%
X123500000Y-36900000D03*
X120650000Y-50600000D03*
%TO.N,/74HC00-8*%
X124500000Y-44950000D03*
X128300000Y-39400000D03*
X124500000Y-50600000D03*
%TD*%
D26*
%TO.N,/74HC00-13*%
X124937817Y-51675000D02*
X125755000Y-50857817D01*
X120222183Y-51675000D02*
X124937817Y-51675000D01*
X119700000Y-51152817D02*
X120222183Y-51675000D01*
X119700000Y-49600000D02*
X119700000Y-51152817D01*
X125755000Y-50857817D02*
X125755000Y-50600000D01*
X119300000Y-49200000D02*
X119700000Y-49600000D01*
X112401903Y-49200000D02*
X119300000Y-49200000D01*
X111479403Y-48277500D02*
X112401903Y-49200000D01*
X84421687Y-48277500D02*
X111479403Y-48277500D01*
X81550000Y-45405812D02*
X84421687Y-48277500D01*
X81550000Y-42920000D02*
X81550000Y-45405812D01*
X57610000Y-40875000D02*
X69615431Y-40875000D01*
X71265431Y-42525000D02*
X81155000Y-42525000D01*
X54415000Y-37680000D02*
X57610000Y-40875000D01*
X69615431Y-40875000D02*
X71265431Y-42525000D01*
X81155000Y-42525000D02*
X81550000Y-42920000D01*
%TO.N,/74HC00-5*%
X63165000Y-44170000D02*
X78070000Y-44170000D01*
X62035000Y-45300000D02*
X63165000Y-44170000D01*
%TO.N,/X2*%
X95450000Y-40685000D02*
X92000000Y-37235000D01*
X95450000Y-41260000D02*
X95450000Y-40685000D01*
%TO.N,/74HC00-5*%
X101780000Y-38500000D02*
X104330000Y-38500000D01*
%TO.N,/74HC00-1*%
X81760000Y-52230000D02*
X81150000Y-51620000D01*
X83180000Y-52230000D02*
X81760000Y-52230000D01*
X81150000Y-49770000D02*
X81150000Y-51620000D01*
D27*
%TO.N,+5V*%
X85150000Y-54150000D02*
X85130000Y-54170000D01*
X85150000Y-50450000D02*
X85150000Y-54150000D01*
X85130000Y-54170000D02*
X93140000Y-54170000D01*
X46310000Y-54170000D02*
X85130000Y-54170000D01*
X94350000Y-52960000D02*
X94350000Y-50450000D01*
X93140000Y-54170000D02*
X94350000Y-52960000D01*
X45350000Y-53210000D02*
X46310000Y-54170000D01*
X45350000Y-49990000D02*
X45350000Y-53210000D01*
X45350000Y-49990000D02*
X45350000Y-50400000D01*
X45350000Y-45175000D02*
X45350000Y-49990000D01*
D26*
%TO.N,/74HC00-1*%
X80719000Y-49339000D02*
X81150000Y-49770000D01*
X79501000Y-49339000D02*
X80719000Y-49339000D01*
X55132500Y-48557500D02*
X55914000Y-49339000D01*
X51875000Y-45300000D02*
X55132500Y-48557500D01*
X55914000Y-49339000D02*
X76214700Y-49339000D01*
%TO.N,/74HC00-2*%
X57729500Y-48614500D02*
X75291280Y-48614500D01*
X57137500Y-48022500D02*
X57729500Y-48614500D01*
X54415000Y-45300000D02*
X57137500Y-48022500D01*
%TO.N,/74HC00-3*%
X83397791Y-47890000D02*
X84235291Y-48727500D01*
X84235291Y-48727500D02*
X84332500Y-48727500D01*
X81770000Y-47890000D02*
X83397791Y-47890000D01*
X84572500Y-48727500D02*
X84332500Y-48727500D01*
X74374716Y-47895284D02*
X74380000Y-47890000D01*
X59362500Y-47707500D02*
X59550284Y-47895284D01*
X59362500Y-47707500D02*
X56955000Y-45300000D01*
X59550284Y-47895284D02*
X74374716Y-47895284D01*
%TO.N,/74HC00-4*%
X101460000Y-42000000D02*
X107424500Y-42000000D01*
%TO.N,/Y*%
X102000000Y-37235000D02*
X109762330Y-37235000D01*
%TO.N,/74HC00-6*%
X101250000Y-36510500D02*
X108990000Y-36510500D01*
%TO.N,/74HC00-2*%
X111310000Y-41710000D02*
X110600000Y-41000000D01*
%TO.N,/74HC00-3*%
X115595000Y-41385000D02*
X115600000Y-41380000D01*
X115595000Y-44952500D02*
X115595000Y-41385000D01*
%TO.N,/74HC00-4*%
X116870000Y-40950000D02*
X116535000Y-40615000D01*
X111785000Y-40185000D02*
X112215000Y-40615000D01*
X116870000Y-42150000D02*
X116870000Y-40950000D01*
X116535000Y-40615000D02*
X112215000Y-40615000D01*
%TO.N,/74HC00-5*%
X118150000Y-40170000D02*
X118150000Y-42090000D01*
X117380000Y-39400000D02*
X118150000Y-40170000D01*
X113055000Y-39400000D02*
X117380000Y-39400000D01*
%TO.N,/74HC00-10*%
X113050000Y-45303000D02*
X113050000Y-42346653D01*
X113050000Y-42346653D02*
X113049572Y-42346225D01*
%TO.N,/74HC00-3*%
X105007183Y-51700000D02*
X114495000Y-51700000D01*
X114495000Y-51700000D02*
X115595000Y-50600000D01*
X104149098Y-50841915D02*
X105007183Y-51700000D01*
X104149098Y-49450903D02*
X104149098Y-50841915D01*
X103425695Y-48727500D02*
X104149098Y-49450903D01*
X94827500Y-48727500D02*
X103425695Y-48727500D01*
X84572500Y-48727500D02*
X94827500Y-48727500D01*
%TO.N,/X2*%
X104725500Y-49002000D02*
X108800000Y-49002000D01*
%TO.N,/74HC00-4*%
X94444799Y-38655201D02*
X96314799Y-40525201D01*
%TO.N,/74HC00-6*%
X124485000Y-42685000D02*
X124485000Y-41385000D01*
X126752500Y-44952500D02*
X124485000Y-42685000D01*
X128295000Y-44952500D02*
X126752500Y-44952500D01*
X124485000Y-39400000D02*
X124485000Y-41385000D01*
%TO.N,/X1*%
X89650000Y-40990000D02*
X89650000Y-43950000D01*
X86000000Y-37340000D02*
X89650000Y-40990000D01*
%TO.N,/74HC00-4*%
X67699500Y-47169784D02*
X67700000Y-47170284D01*
X111785000Y-39400000D02*
X111785000Y-40185000D01*
X61364784Y-47169784D02*
X67699500Y-47169784D01*
X59495000Y-45300000D02*
X61364784Y-47169784D01*
%TO.N,/74HC00-2*%
X108450000Y-41000000D02*
X107975000Y-40525000D01*
X107975000Y-40525000D02*
X107975000Y-39400000D01*
X110600000Y-41000000D02*
X108450000Y-41000000D01*
%TO.N,/74HC00-10*%
X63880000Y-39525000D02*
X80802208Y-39525000D01*
X112427500Y-46927500D02*
X113050000Y-47550000D01*
X82900000Y-44846625D02*
X84980875Y-46927500D01*
X62035000Y-37680000D02*
X63880000Y-39525000D01*
X80802208Y-39525000D02*
X82900000Y-41622792D01*
X82900000Y-41622792D02*
X82900000Y-44846625D01*
X84980875Y-46927500D02*
X112427500Y-46927500D01*
%TO.N,/74HC00-9*%
X118677500Y-46477500D02*
X119300000Y-47100000D01*
X83350000Y-44660229D02*
X85167271Y-46477500D01*
X80988604Y-39075000D02*
X83350000Y-41436396D01*
X85167271Y-46477500D02*
X118677500Y-46477500D01*
X83350000Y-41436396D02*
X83350000Y-44660229D01*
X64575000Y-37680000D02*
X65970000Y-39075000D01*
X65970000Y-39075000D02*
X80988604Y-39075000D01*
%TO.N,/74HC00-6*%
X124485000Y-37885000D02*
X124485000Y-39400000D01*
X123500000Y-36900000D02*
X124485000Y-37885000D01*
%TO.N,/74HC00-12*%
X80429416Y-40425000D02*
X77425000Y-40425000D01*
X84608083Y-47827500D02*
X82000000Y-45219417D01*
X82000000Y-41995584D02*
X80429416Y-40425000D01*
X56955000Y-37680000D02*
X59700000Y-40425000D01*
X121350000Y-48750000D02*
X112588299Y-48750000D01*
X111665799Y-47827500D02*
X84608083Y-47827500D01*
X112588299Y-48750000D02*
X111665799Y-47827500D01*
X82000000Y-45219417D02*
X82000000Y-41995584D01*
X121945000Y-49345000D02*
X121350000Y-48750000D01*
X121945000Y-50600000D02*
X121945000Y-49345000D01*
X59700000Y-40425000D02*
X77425000Y-40425000D01*
%TO.N,/74HC00-8*%
X68060000Y-38625000D02*
X81175000Y-38625000D01*
X67115000Y-37680000D02*
X68060000Y-38625000D01*
X81175000Y-38625000D02*
X83800000Y-41250000D01*
X83800000Y-44473833D02*
X85353667Y-46027500D01*
X83800000Y-41250000D02*
X83800000Y-44473833D01*
X85353667Y-46027500D02*
X123422500Y-46027500D01*
X123422500Y-46027500D02*
X124500000Y-44950000D01*
%TO.N,/74HC00-11*%
X80615812Y-39975000D02*
X82450000Y-41809188D01*
X112774695Y-48300000D02*
X127200000Y-48300000D01*
X82450000Y-41809188D02*
X82450000Y-45033021D01*
X61790000Y-39975000D02*
X80615812Y-39975000D01*
X111852195Y-47377500D02*
X112774695Y-48300000D01*
X59495000Y-37680000D02*
X61790000Y-39975000D01*
X128295000Y-50600000D02*
X128295000Y-49505000D01*
X127200000Y-48300000D02*
X128295000Y-49395000D01*
X82450000Y-45033021D02*
X84794479Y-47377500D01*
X128295000Y-49395000D02*
X128295000Y-49505000D01*
X84794479Y-47377500D02*
X111852195Y-47377500D01*
%TO.N,/Y*%
X129565000Y-39400000D02*
X129565000Y-44952500D01*
D27*
%TO.N,+5V*%
X94350000Y-50450000D02*
X94350000Y-52700000D01*
X47325000Y-39475000D02*
X47325000Y-43200000D01*
X49120000Y-37680000D02*
X47325000Y-39475000D01*
X51875000Y-37680000D02*
X49120000Y-37680000D01*
X47325000Y-43200000D02*
X45350000Y-45175000D01*
D26*
%TO.N,unconnected-(J1-PadS1)*%
X43525000Y-40700000D02*
X43525000Y-49300000D01*
%TO.N,Net-(D1-Pad1)*%
X79310000Y-37600000D02*
X79810000Y-38100000D01*
X83066396Y-39880000D02*
X86000000Y-39880000D01*
X81286396Y-38100000D02*
X83066396Y-39880000D01*
X79810000Y-38100000D02*
X81286396Y-38100000D01*
%TD*%
%TA.AperFunction,Conductor*%
%TO.N,+5V*%
G36*
X138559647Y-31806840D02*
G01*
X138576180Y-31817466D01*
X138608500Y-31841998D01*
X138673253Y-31891148D01*
X138815527Y-31947478D01*
X138823565Y-31948451D01*
X138823566Y-31948451D01*
X138848338Y-31951449D01*
X138906608Y-31958500D01*
X139093392Y-31958500D01*
X139151662Y-31951449D01*
X139176434Y-31948451D01*
X139176435Y-31948451D01*
X139184473Y-31947478D01*
X139319117Y-31894169D01*
X139389817Y-31887690D01*
X139452797Y-31920462D01*
X139488060Y-31982082D01*
X139491500Y-32011321D01*
X139491500Y-54365500D01*
X139471498Y-54433621D01*
X139417842Y-54480114D01*
X139365500Y-54491500D01*
X42216537Y-54491500D01*
X42148416Y-54471498D01*
X42101923Y-54417842D01*
X42097764Y-54407560D01*
X42056173Y-54290111D01*
X42000934Y-54134119D01*
X41864907Y-53870572D01*
X41851226Y-53851105D01*
X41696835Y-53631430D01*
X41694372Y-53627925D01*
X41492483Y-53410667D01*
X41489168Y-53407953D01*
X41489164Y-53407950D01*
X41266295Y-53225534D01*
X41262977Y-53222818D01*
X41010101Y-53067856D01*
X40909746Y-53023803D01*
X40742465Y-52950372D01*
X40738533Y-52948646D01*
X40711776Y-52941024D01*
X40599981Y-52909178D01*
X40539946Y-52871279D01*
X40509932Y-52806939D01*
X40508500Y-52787999D01*
X40508500Y-49391284D01*
X42015124Y-49391284D01*
X42016103Y-49396981D01*
X42016103Y-49396982D01*
X42045848Y-49570088D01*
X42051181Y-49601126D01*
X42124875Y-49800884D01*
X42187386Y-49905954D01*
X42212381Y-49947966D01*
X42233739Y-49983866D01*
X42374125Y-50143946D01*
X42541333Y-50275762D01*
X42546444Y-50278451D01*
X42546447Y-50278453D01*
X42649961Y-50332915D01*
X42729762Y-50374900D01*
X42735283Y-50376614D01*
X42735287Y-50376616D01*
X42905623Y-50429506D01*
X42933102Y-50438039D01*
X43105982Y-50458500D01*
X43929013Y-50458500D01*
X44021519Y-50450000D01*
X44081270Y-50444510D01*
X44081273Y-50444509D01*
X44087024Y-50443981D01*
X44108093Y-50438039D01*
X44286389Y-50387754D01*
X44286391Y-50387753D01*
X44291948Y-50386186D01*
X44297123Y-50383634D01*
X44297128Y-50383632D01*
X44477727Y-50294570D01*
X44482908Y-50292015D01*
X44653509Y-50164622D01*
X44798037Y-50008271D01*
X44897331Y-49850900D01*
X44908574Y-49833081D01*
X44911653Y-49828201D01*
X44990551Y-49630441D01*
X44993166Y-49617298D01*
X45030962Y-49427282D01*
X45030962Y-49427280D01*
X45032089Y-49421615D01*
X45032177Y-49414942D01*
X45033745Y-49295111D01*
X45034876Y-49208716D01*
X45029664Y-49178385D01*
X44999797Y-49004564D01*
X44999796Y-49004561D01*
X44998819Y-48998874D01*
X44925125Y-48799116D01*
X44816261Y-48616134D01*
X44675875Y-48456054D01*
X44508667Y-48324238D01*
X44503556Y-48321549D01*
X44503553Y-48321547D01*
X44407785Y-48271161D01*
X44320238Y-48225100D01*
X44314717Y-48223386D01*
X44314713Y-48223384D01*
X44247135Y-48202400D01*
X44188010Y-48163097D01*
X44159520Y-48098068D01*
X44158500Y-48082068D01*
X44158500Y-46800000D01*
X45811835Y-46800000D01*
X45830465Y-47036711D01*
X45831619Y-47041518D01*
X45831620Y-47041524D01*
X45853102Y-47131002D01*
X45885895Y-47267594D01*
X45887788Y-47272165D01*
X45887789Y-47272167D01*
X45972749Y-47477279D01*
X45976760Y-47486963D01*
X45979346Y-47491183D01*
X46098241Y-47685202D01*
X46098245Y-47685208D01*
X46100824Y-47689416D01*
X46255031Y-47869969D01*
X46435584Y-48024176D01*
X46439792Y-48026755D01*
X46439798Y-48026759D01*
X46536807Y-48086206D01*
X46638037Y-48148240D01*
X46642607Y-48150133D01*
X46642611Y-48150135D01*
X46852833Y-48237211D01*
X46857406Y-48239105D01*
X46937609Y-48258360D01*
X47083476Y-48293380D01*
X47083482Y-48293381D01*
X47088289Y-48294535D01*
X47325000Y-48313165D01*
X47561711Y-48294535D01*
X47566518Y-48293381D01*
X47566524Y-48293380D01*
X47712391Y-48258360D01*
X47792594Y-48239105D01*
X47797167Y-48237211D01*
X48007389Y-48150135D01*
X48007393Y-48150133D01*
X48011963Y-48148240D01*
X48113193Y-48086206D01*
X48210202Y-48026759D01*
X48210208Y-48026755D01*
X48214416Y-48024176D01*
X48394969Y-47869969D01*
X48549176Y-47689416D01*
X48551755Y-47685208D01*
X48551759Y-47685202D01*
X48670654Y-47491183D01*
X48673240Y-47486963D01*
X48677252Y-47477279D01*
X48762211Y-47272167D01*
X48762212Y-47272165D01*
X48764105Y-47267594D01*
X48796898Y-47131002D01*
X48818380Y-47041524D01*
X48818381Y-47041518D01*
X48819535Y-47036711D01*
X48838165Y-46800000D01*
X48819535Y-46563289D01*
X48818197Y-46557712D01*
X48765260Y-46337218D01*
X48764105Y-46332406D01*
X48756022Y-46312892D01*
X48675135Y-46117611D01*
X48675133Y-46117607D01*
X48673240Y-46113037D01*
X48638442Y-46056252D01*
X48551759Y-45914798D01*
X48551755Y-45914792D01*
X48549176Y-45910584D01*
X48394969Y-45730031D01*
X48214416Y-45575824D01*
X48210208Y-45573245D01*
X48210202Y-45573241D01*
X48016183Y-45454346D01*
X48011963Y-45451760D01*
X48007393Y-45449867D01*
X48007389Y-45449865D01*
X47797167Y-45362789D01*
X47797165Y-45362788D01*
X47792594Y-45360895D01*
X47689403Y-45336121D01*
X47566524Y-45306620D01*
X47566518Y-45306619D01*
X47561711Y-45305465D01*
X47325000Y-45286835D01*
X47088289Y-45305465D01*
X47083482Y-45306619D01*
X47083476Y-45306620D01*
X46960597Y-45336121D01*
X46857406Y-45360895D01*
X46852835Y-45362788D01*
X46852833Y-45362789D01*
X46642611Y-45449865D01*
X46642607Y-45449867D01*
X46638037Y-45451760D01*
X46633817Y-45454346D01*
X46439798Y-45573241D01*
X46439792Y-45573245D01*
X46435584Y-45575824D01*
X46255031Y-45730031D01*
X46100824Y-45910584D01*
X46098245Y-45914792D01*
X46098241Y-45914798D01*
X46011558Y-46056252D01*
X45976760Y-46113037D01*
X45974867Y-46117607D01*
X45974865Y-46117611D01*
X45893978Y-46312892D01*
X45885895Y-46332406D01*
X45884740Y-46337218D01*
X45831804Y-46557712D01*
X45830465Y-46563289D01*
X45811835Y-46800000D01*
X44158500Y-46800000D01*
X44158500Y-44432670D01*
X46457160Y-44432670D01*
X46462887Y-44440320D01*
X46634042Y-44545205D01*
X46642837Y-44549687D01*
X46852988Y-44636734D01*
X46862373Y-44639783D01*
X47083554Y-44692885D01*
X47093301Y-44694428D01*
X47320070Y-44712275D01*
X47329930Y-44712275D01*
X47556699Y-44694428D01*
X47566446Y-44692885D01*
X47787627Y-44639783D01*
X47797012Y-44636734D01*
X48007163Y-44549687D01*
X48015958Y-44545205D01*
X48183445Y-44442568D01*
X48192907Y-44432110D01*
X48189124Y-44423334D01*
X47337812Y-43572022D01*
X47323868Y-43564408D01*
X47322035Y-43564539D01*
X47315420Y-43568790D01*
X46463920Y-44420290D01*
X46457160Y-44432670D01*
X44158500Y-44432670D01*
X44158500Y-43204930D01*
X45812725Y-43204930D01*
X45830572Y-43431699D01*
X45832115Y-43441446D01*
X45885217Y-43662627D01*
X45888266Y-43672012D01*
X45975313Y-43882163D01*
X45979795Y-43890958D01*
X46082432Y-44058445D01*
X46092890Y-44067907D01*
X46101666Y-44064124D01*
X46952978Y-43212812D01*
X46959356Y-43201132D01*
X47689408Y-43201132D01*
X47689539Y-43202965D01*
X47693790Y-43209580D01*
X48545290Y-44061080D01*
X48557670Y-44067840D01*
X48565320Y-44062113D01*
X48670205Y-43890958D01*
X48674687Y-43882163D01*
X48761734Y-43672012D01*
X48764783Y-43662627D01*
X48817885Y-43441446D01*
X48819428Y-43431699D01*
X48837275Y-43204930D01*
X48837275Y-43195070D01*
X48819428Y-42968301D01*
X48817885Y-42958554D01*
X48764783Y-42737373D01*
X48761734Y-42727988D01*
X48674687Y-42517837D01*
X48670205Y-42509042D01*
X48567568Y-42341555D01*
X48557110Y-42332093D01*
X48548334Y-42335876D01*
X47697022Y-43187188D01*
X47689408Y-43201132D01*
X46959356Y-43201132D01*
X46960592Y-43198868D01*
X46960461Y-43197035D01*
X46956210Y-43190420D01*
X46104710Y-42338920D01*
X46092330Y-42332160D01*
X46084680Y-42337887D01*
X45979795Y-42509042D01*
X45975313Y-42517837D01*
X45888266Y-42727988D01*
X45885217Y-42737373D01*
X45832115Y-42958554D01*
X45830572Y-42968301D01*
X45812725Y-43195070D01*
X45812725Y-43204930D01*
X44158500Y-43204930D01*
X44158500Y-41967890D01*
X46457093Y-41967890D01*
X46460876Y-41976666D01*
X47312188Y-42827978D01*
X47326132Y-42835592D01*
X47327965Y-42835461D01*
X47334580Y-42831210D01*
X48186080Y-41979710D01*
X48192840Y-41967330D01*
X48187113Y-41959680D01*
X48015958Y-41854795D01*
X48007163Y-41850313D01*
X47797012Y-41763266D01*
X47787627Y-41760217D01*
X47566446Y-41707115D01*
X47556699Y-41705572D01*
X47329930Y-41687725D01*
X47320070Y-41687725D01*
X47093301Y-41705572D01*
X47083554Y-41707115D01*
X46862373Y-41760217D01*
X46852988Y-41763266D01*
X46642837Y-41850313D01*
X46634042Y-41854795D01*
X46466555Y-41957432D01*
X46457093Y-41967890D01*
X44158500Y-41967890D01*
X44158500Y-41919202D01*
X44178502Y-41851081D01*
X44232158Y-41804588D01*
X44250297Y-41797933D01*
X44253804Y-41796944D01*
X44291948Y-41786186D01*
X44297124Y-41783634D01*
X44297128Y-41783632D01*
X44477727Y-41694570D01*
X44482908Y-41692015D01*
X44534484Y-41653502D01*
X44572290Y-41625271D01*
X44653509Y-41564622D01*
X44798037Y-41408271D01*
X44911653Y-41228201D01*
X44990551Y-41030441D01*
X44992640Y-41019943D01*
X45030962Y-40827282D01*
X45030962Y-40827280D01*
X45032089Y-40821615D01*
X45032192Y-40813787D01*
X45034224Y-40658500D01*
X45034876Y-40608716D01*
X45033689Y-40601810D01*
X44999797Y-40404564D01*
X44999796Y-40404561D01*
X44998819Y-40398874D01*
X44925125Y-40199116D01*
X44836801Y-40050658D01*
X44819215Y-40021099D01*
X44819214Y-40021098D01*
X44816261Y-40016134D01*
X44675875Y-39856054D01*
X44508667Y-39724238D01*
X44503556Y-39721549D01*
X44503553Y-39721547D01*
X44377484Y-39655219D01*
X44320238Y-39625100D01*
X44314717Y-39623386D01*
X44314713Y-39623384D01*
X44122421Y-39563676D01*
X44122422Y-39563676D01*
X44116898Y-39561961D01*
X43944018Y-39541500D01*
X43120987Y-39541500D01*
X43035355Y-39549368D01*
X42968730Y-39555490D01*
X42968727Y-39555491D01*
X42962976Y-39556019D01*
X42957417Y-39557587D01*
X42957416Y-39557587D01*
X42763611Y-39612246D01*
X42763609Y-39612247D01*
X42758052Y-39613814D01*
X42752877Y-39616366D01*
X42752872Y-39616368D01*
X42605705Y-39688943D01*
X42567092Y-39707985D01*
X42396491Y-39835378D01*
X42251963Y-39991729D01*
X42138347Y-40171799D01*
X42059449Y-40369559D01*
X42058323Y-40375219D01*
X42058322Y-40375223D01*
X42022356Y-40556038D01*
X42017911Y-40578385D01*
X42017835Y-40584160D01*
X42017835Y-40584164D01*
X42016862Y-40658500D01*
X42015124Y-40791284D01*
X42016103Y-40796981D01*
X42016103Y-40796982D01*
X42049970Y-40994077D01*
X42051181Y-41001126D01*
X42124875Y-41200884D01*
X42186577Y-41304594D01*
X42209110Y-41342468D01*
X42233739Y-41383866D01*
X42374125Y-41543946D01*
X42541333Y-41675762D01*
X42546444Y-41678451D01*
X42546447Y-41678453D01*
X42634403Y-41724729D01*
X42729762Y-41774900D01*
X42735283Y-41776614D01*
X42735287Y-41776616D01*
X42802865Y-41797600D01*
X42861990Y-41836903D01*
X42890480Y-41901932D01*
X42891500Y-41917932D01*
X42891500Y-48080798D01*
X42871498Y-48148919D01*
X42817842Y-48195412D01*
X42799703Y-48202067D01*
X42758052Y-48213814D01*
X42752876Y-48216366D01*
X42752872Y-48216368D01*
X42596708Y-48293380D01*
X42567092Y-48307985D01*
X42396491Y-48435378D01*
X42251963Y-48591729D01*
X42138347Y-48771799D01*
X42059449Y-48969559D01*
X42058323Y-48975219D01*
X42058322Y-48975223D01*
X42022436Y-49155635D01*
X42017911Y-49178385D01*
X42017835Y-49184160D01*
X42017835Y-49184164D01*
X42017001Y-49247907D01*
X42015124Y-49391284D01*
X40508500Y-49391284D01*
X40508500Y-37946522D01*
X50592273Y-37946522D01*
X50639764Y-38123761D01*
X50643510Y-38134053D01*
X50735586Y-38331511D01*
X50741069Y-38341007D01*
X50866028Y-38519467D01*
X50873084Y-38527875D01*
X51027125Y-38681916D01*
X51035533Y-38688972D01*
X51213993Y-38813931D01*
X51223489Y-38819414D01*
X51420947Y-38911490D01*
X51431239Y-38915236D01*
X51603503Y-38961394D01*
X51617599Y-38961058D01*
X51621000Y-38953116D01*
X51621000Y-37952115D01*
X51616525Y-37936876D01*
X51615135Y-37935671D01*
X51607452Y-37934000D01*
X50607033Y-37934000D01*
X50593502Y-37937973D01*
X50592273Y-37946522D01*
X40508500Y-37946522D01*
X40508500Y-37408503D01*
X50593606Y-37408503D01*
X50593942Y-37422599D01*
X50601884Y-37426000D01*
X51602885Y-37426000D01*
X51618124Y-37421525D01*
X51619329Y-37420135D01*
X51621000Y-37412452D01*
X51621000Y-36412033D01*
X51617027Y-36398502D01*
X51608478Y-36397273D01*
X51431239Y-36444764D01*
X51420947Y-36448510D01*
X51223489Y-36540586D01*
X51213993Y-36546069D01*
X51035533Y-36671028D01*
X51027125Y-36678084D01*
X50873084Y-36832125D01*
X50866028Y-36840533D01*
X50741069Y-37018993D01*
X50735586Y-37028489D01*
X50643510Y-37225947D01*
X50639764Y-37236239D01*
X50593606Y-37408503D01*
X40508500Y-37408503D01*
X40508500Y-32011321D01*
X40528502Y-31943200D01*
X40582158Y-31896707D01*
X40652432Y-31886603D01*
X40680882Y-31894168D01*
X40815527Y-31947478D01*
X40823565Y-31948451D01*
X40823566Y-31948451D01*
X40848338Y-31951449D01*
X40906608Y-31958500D01*
X41093392Y-31958500D01*
X41151662Y-31951449D01*
X41176434Y-31948451D01*
X41176435Y-31948451D01*
X41184473Y-31947478D01*
X41326747Y-31891148D01*
X41391500Y-31841998D01*
X41423820Y-31817466D01*
X41490173Y-31792212D01*
X41559647Y-31806840D01*
X41576180Y-31817466D01*
X41608500Y-31841998D01*
X41673253Y-31891148D01*
X41815527Y-31947478D01*
X41823565Y-31948451D01*
X41823566Y-31948451D01*
X41848338Y-31951449D01*
X41906608Y-31958500D01*
X42093392Y-31958500D01*
X42151662Y-31951449D01*
X42176434Y-31948451D01*
X42176435Y-31948451D01*
X42184473Y-31947478D01*
X42326747Y-31891148D01*
X42391500Y-31841998D01*
X42423820Y-31817466D01*
X42490173Y-31792212D01*
X42559647Y-31806840D01*
X42576180Y-31817466D01*
X42608500Y-31841998D01*
X42673253Y-31891148D01*
X42815527Y-31947478D01*
X42823565Y-31948451D01*
X42823566Y-31948451D01*
X42848338Y-31951449D01*
X42906608Y-31958500D01*
X43093392Y-31958500D01*
X43151662Y-31951449D01*
X43176434Y-31948451D01*
X43176435Y-31948451D01*
X43184473Y-31947478D01*
X43326747Y-31891148D01*
X43391500Y-31841998D01*
X43423820Y-31817466D01*
X43490173Y-31792212D01*
X43559647Y-31806840D01*
X43576180Y-31817466D01*
X43608500Y-31841998D01*
X43673253Y-31891148D01*
X43815527Y-31947478D01*
X43823565Y-31948451D01*
X43823566Y-31948451D01*
X43848338Y-31951449D01*
X43906608Y-31958500D01*
X44093392Y-31958500D01*
X44151662Y-31951449D01*
X44176434Y-31948451D01*
X44176435Y-31948451D01*
X44184473Y-31947478D01*
X44197282Y-31942407D01*
X44230657Y-31929193D01*
X44301357Y-31922714D01*
X44364337Y-31955487D01*
X44399601Y-32017106D01*
X44400608Y-32022729D01*
X44401549Y-32026436D01*
X44402522Y-32034473D01*
X44458852Y-32176747D01*
X44551368Y-32298632D01*
X44673253Y-32391148D01*
X44815527Y-32447478D01*
X44823565Y-32448451D01*
X44823566Y-32448451D01*
X44848338Y-32451449D01*
X44906608Y-32458500D01*
X45093392Y-32458500D01*
X45151662Y-32451449D01*
X45176434Y-32448451D01*
X45176435Y-32448451D01*
X45184473Y-32447478D01*
X45326747Y-32391148D01*
X45448632Y-32298632D01*
X45541148Y-32176747D01*
X45597478Y-32034473D01*
X45598451Y-32026434D01*
X45600441Y-32018597D01*
X45603014Y-32019250D01*
X45625911Y-31965987D01*
X45684762Y-31926274D01*
X45755741Y-31924684D01*
X45769343Y-31929193D01*
X45802718Y-31942407D01*
X45815527Y-31947478D01*
X45823565Y-31948451D01*
X45823566Y-31948451D01*
X45848338Y-31951449D01*
X45906608Y-31958500D01*
X46093392Y-31958500D01*
X46151662Y-31951449D01*
X46176434Y-31948451D01*
X46176435Y-31948451D01*
X46184473Y-31947478D01*
X46326747Y-31891148D01*
X46391500Y-31841998D01*
X46423820Y-31817466D01*
X46490173Y-31792212D01*
X46559647Y-31806840D01*
X46576180Y-31817466D01*
X46608500Y-31841998D01*
X46673253Y-31891148D01*
X46815527Y-31947478D01*
X46823565Y-31948451D01*
X46823566Y-31948451D01*
X46848338Y-31951449D01*
X46906608Y-31958500D01*
X47093392Y-31958500D01*
X47151662Y-31951449D01*
X47176434Y-31948451D01*
X47176435Y-31948451D01*
X47184473Y-31947478D01*
X47326747Y-31891148D01*
X47391500Y-31841998D01*
X47423820Y-31817466D01*
X47490173Y-31792212D01*
X47559647Y-31806840D01*
X47576180Y-31817466D01*
X47608500Y-31841998D01*
X47673253Y-31891148D01*
X47747292Y-31920462D01*
X47807998Y-31944497D01*
X47815527Y-31947478D01*
X47819530Y-31947962D01*
X47879045Y-31983178D01*
X47910900Y-32046627D01*
X47912929Y-32069146D01*
X47912929Y-35941000D01*
X52087072Y-35941000D01*
X52087072Y-32069146D01*
X52107074Y-32001025D01*
X52160730Y-31954532D01*
X52178825Y-31948161D01*
X52184473Y-31947478D01*
X52192003Y-31944497D01*
X52252708Y-31920462D01*
X52326747Y-31891148D01*
X52391500Y-31841998D01*
X52423820Y-31817466D01*
X52490173Y-31792212D01*
X52559647Y-31806840D01*
X52576180Y-31817466D01*
X52608500Y-31841998D01*
X52673253Y-31891148D01*
X52815527Y-31947478D01*
X52823565Y-31948451D01*
X52823566Y-31948451D01*
X52848338Y-31951449D01*
X52906608Y-31958500D01*
X53093392Y-31958500D01*
X53151662Y-31951449D01*
X53176434Y-31948451D01*
X53176435Y-31948451D01*
X53184473Y-31947478D01*
X53326747Y-31891148D01*
X53391500Y-31841998D01*
X53423820Y-31817466D01*
X53490173Y-31792212D01*
X53559647Y-31806840D01*
X53576180Y-31817466D01*
X53608500Y-31841998D01*
X53673253Y-31891148D01*
X53815527Y-31947478D01*
X53823565Y-31948451D01*
X53823566Y-31948451D01*
X53848338Y-31951449D01*
X53906608Y-31958500D01*
X54093392Y-31958500D01*
X54151662Y-31951449D01*
X54176434Y-31948451D01*
X54176435Y-31948451D01*
X54184473Y-31947478D01*
X54197282Y-31942407D01*
X54230657Y-31929193D01*
X54301357Y-31922714D01*
X54364337Y-31955487D01*
X54399601Y-32017106D01*
X54400608Y-32022729D01*
X54401549Y-32026436D01*
X54402522Y-32034473D01*
X54458852Y-32176747D01*
X54551368Y-32298632D01*
X54673253Y-32391148D01*
X54815527Y-32447478D01*
X54823565Y-32448451D01*
X54823566Y-32448451D01*
X54848338Y-32451449D01*
X54906608Y-32458500D01*
X55093392Y-32458500D01*
X55151662Y-32451449D01*
X55176434Y-32448451D01*
X55176435Y-32448451D01*
X55184473Y-32447478D01*
X55326747Y-32391148D01*
X55448632Y-32298632D01*
X55541148Y-32176747D01*
X55597478Y-32034473D01*
X55598451Y-32026434D01*
X55600441Y-32018597D01*
X55603014Y-32019250D01*
X55625911Y-31965987D01*
X55684762Y-31926274D01*
X55755741Y-31924684D01*
X55769343Y-31929193D01*
X55802718Y-31942407D01*
X55815527Y-31947478D01*
X55823565Y-31948451D01*
X55823566Y-31948451D01*
X55848338Y-31951449D01*
X55906608Y-31958500D01*
X56093392Y-31958500D01*
X56151662Y-31951449D01*
X56176434Y-31948451D01*
X56176435Y-31948451D01*
X56184473Y-31947478D01*
X56326747Y-31891148D01*
X56391500Y-31841998D01*
X56423820Y-31817466D01*
X56490173Y-31792212D01*
X56559647Y-31806840D01*
X56576180Y-31817466D01*
X56608500Y-31841998D01*
X56673253Y-31891148D01*
X56815527Y-31947478D01*
X56823565Y-31948451D01*
X56823566Y-31948451D01*
X56848338Y-31951449D01*
X56906608Y-31958500D01*
X57093392Y-31958500D01*
X57151662Y-31951449D01*
X57176434Y-31948451D01*
X57176435Y-31948451D01*
X57184473Y-31947478D01*
X57326747Y-31891148D01*
X57391500Y-31841998D01*
X57423820Y-31817466D01*
X57490173Y-31792212D01*
X57559647Y-31806840D01*
X57576180Y-31817466D01*
X57608500Y-31841998D01*
X57673253Y-31891148D01*
X57747292Y-31920462D01*
X57807998Y-31944497D01*
X57815527Y-31947478D01*
X57819530Y-31947962D01*
X57879045Y-31983178D01*
X57910900Y-32046627D01*
X57912929Y-32069146D01*
X57912929Y-35941000D01*
X62087072Y-35941000D01*
X62087072Y-32069146D01*
X62107074Y-32001025D01*
X62160730Y-31954532D01*
X62178825Y-31948161D01*
X62184473Y-31947478D01*
X62192003Y-31944497D01*
X62252708Y-31920462D01*
X62326747Y-31891148D01*
X62391500Y-31841998D01*
X62423820Y-31817466D01*
X62490173Y-31792212D01*
X62559647Y-31806840D01*
X62576180Y-31817466D01*
X62608500Y-31841998D01*
X62673253Y-31891148D01*
X62815527Y-31947478D01*
X62823565Y-31948451D01*
X62823566Y-31948451D01*
X62848338Y-31951449D01*
X62906608Y-31958500D01*
X63093392Y-31958500D01*
X63151662Y-31951449D01*
X63176434Y-31948451D01*
X63176435Y-31948451D01*
X63184473Y-31947478D01*
X63326747Y-31891148D01*
X63391500Y-31841998D01*
X63423820Y-31817466D01*
X63490173Y-31792212D01*
X63559647Y-31806840D01*
X63576180Y-31817466D01*
X63608500Y-31841998D01*
X63673253Y-31891148D01*
X63815527Y-31947478D01*
X63823565Y-31948451D01*
X63823566Y-31948451D01*
X63848338Y-31951449D01*
X63906608Y-31958500D01*
X64093392Y-31958500D01*
X64151662Y-31951449D01*
X64176434Y-31948451D01*
X64176435Y-31948451D01*
X64184473Y-31947478D01*
X64197282Y-31942407D01*
X64230657Y-31929193D01*
X64301357Y-31922714D01*
X64364337Y-31955487D01*
X64399601Y-32017106D01*
X64400608Y-32022729D01*
X64401549Y-32026436D01*
X64402522Y-32034473D01*
X64458852Y-32176747D01*
X64551368Y-32298632D01*
X64673253Y-32391148D01*
X64815527Y-32447478D01*
X64823565Y-32448451D01*
X64823566Y-32448451D01*
X64848338Y-32451449D01*
X64906608Y-32458500D01*
X65093392Y-32458500D01*
X65151662Y-32451449D01*
X65176434Y-32448451D01*
X65176435Y-32448451D01*
X65184473Y-32447478D01*
X65326747Y-32391148D01*
X65448632Y-32298632D01*
X65541148Y-32176747D01*
X65597478Y-32034473D01*
X65598451Y-32026434D01*
X65600441Y-32018597D01*
X65603014Y-32019250D01*
X65625911Y-31965987D01*
X65684762Y-31926274D01*
X65755741Y-31924684D01*
X65769343Y-31929193D01*
X65802718Y-31942407D01*
X65815527Y-31947478D01*
X65823565Y-31948451D01*
X65823566Y-31948451D01*
X65848338Y-31951449D01*
X65906608Y-31958500D01*
X66093392Y-31958500D01*
X66151662Y-31951449D01*
X66176434Y-31948451D01*
X66176435Y-31948451D01*
X66184473Y-31947478D01*
X66326747Y-31891148D01*
X66391500Y-31841998D01*
X66423820Y-31817466D01*
X66490173Y-31792212D01*
X66559647Y-31806840D01*
X66576180Y-31817466D01*
X66608500Y-31841998D01*
X66673253Y-31891148D01*
X66815527Y-31947478D01*
X66823565Y-31948451D01*
X66823566Y-31948451D01*
X66848338Y-31951449D01*
X66906608Y-31958500D01*
X67093392Y-31958500D01*
X67151662Y-31951449D01*
X67176434Y-31948451D01*
X67176435Y-31948451D01*
X67184473Y-31947478D01*
X67326747Y-31891148D01*
X67391500Y-31841998D01*
X67423820Y-31817466D01*
X67490173Y-31792212D01*
X67559647Y-31806840D01*
X67576180Y-31817466D01*
X67608500Y-31841998D01*
X67673253Y-31891148D01*
X67747292Y-31920462D01*
X67807998Y-31944497D01*
X67815527Y-31947478D01*
X67819530Y-31947962D01*
X67879045Y-31983178D01*
X67910900Y-32046627D01*
X67912929Y-32069146D01*
X67912929Y-35941000D01*
X72087072Y-35941000D01*
X72087072Y-32069146D01*
X72107074Y-32001025D01*
X72160730Y-31954532D01*
X72178825Y-31948161D01*
X72184473Y-31947478D01*
X72192003Y-31944497D01*
X72252708Y-31920462D01*
X72326747Y-31891148D01*
X72391500Y-31841998D01*
X72423820Y-31817466D01*
X72490173Y-31792212D01*
X72559647Y-31806840D01*
X72576180Y-31817466D01*
X72608500Y-31841998D01*
X72673253Y-31891148D01*
X72815527Y-31947478D01*
X72823565Y-31948451D01*
X72823566Y-31948451D01*
X72848338Y-31951449D01*
X72906608Y-31958500D01*
X73093392Y-31958500D01*
X73151662Y-31951449D01*
X73176434Y-31948451D01*
X73176435Y-31948451D01*
X73184473Y-31947478D01*
X73326747Y-31891148D01*
X73391500Y-31841998D01*
X73423820Y-31817466D01*
X73490173Y-31792212D01*
X73559647Y-31806840D01*
X73576180Y-31817466D01*
X73608500Y-31841998D01*
X73673253Y-31891148D01*
X73815527Y-31947478D01*
X73823565Y-31948451D01*
X73823566Y-31948451D01*
X73848338Y-31951449D01*
X73906608Y-31958500D01*
X74093392Y-31958500D01*
X74151662Y-31951449D01*
X74176434Y-31948451D01*
X74176435Y-31948451D01*
X74184473Y-31947478D01*
X74197282Y-31942407D01*
X74230657Y-31929193D01*
X74301357Y-31922714D01*
X74364337Y-31955487D01*
X74399601Y-32017106D01*
X74400608Y-32022729D01*
X74401549Y-32026436D01*
X74402522Y-32034473D01*
X74458852Y-32176747D01*
X74551368Y-32298632D01*
X74673253Y-32391148D01*
X74815527Y-32447478D01*
X74823565Y-32448451D01*
X74823566Y-32448451D01*
X74848338Y-32451449D01*
X74906608Y-32458500D01*
X75093392Y-32458500D01*
X75151662Y-32451449D01*
X75176434Y-32448451D01*
X75176435Y-32448451D01*
X75184473Y-32447478D01*
X75326747Y-32391148D01*
X75448632Y-32298632D01*
X75541148Y-32176747D01*
X75597478Y-32034473D01*
X75598451Y-32026434D01*
X75600441Y-32018597D01*
X75603014Y-32019250D01*
X75625911Y-31965987D01*
X75684762Y-31926274D01*
X75755741Y-31924684D01*
X75769343Y-31929193D01*
X75802718Y-31942407D01*
X75815527Y-31947478D01*
X75823565Y-31948451D01*
X75823566Y-31948451D01*
X75848338Y-31951449D01*
X75906608Y-31958500D01*
X76093392Y-31958500D01*
X76151662Y-31951449D01*
X76176434Y-31948451D01*
X76176435Y-31948451D01*
X76184473Y-31947478D01*
X76326747Y-31891148D01*
X76391500Y-31841998D01*
X76423820Y-31817466D01*
X76490173Y-31792212D01*
X76559647Y-31806840D01*
X76576180Y-31817466D01*
X76608500Y-31841998D01*
X76673253Y-31891148D01*
X76815527Y-31947478D01*
X76823565Y-31948451D01*
X76823566Y-31948451D01*
X76848338Y-31951449D01*
X76906608Y-31958500D01*
X77093392Y-31958500D01*
X77151662Y-31951449D01*
X77176434Y-31948451D01*
X77176435Y-31948451D01*
X77184473Y-31947478D01*
X77326747Y-31891148D01*
X77391500Y-31841998D01*
X77423820Y-31817466D01*
X77490173Y-31792212D01*
X77559647Y-31806840D01*
X77576180Y-31817466D01*
X77608500Y-31841998D01*
X77673253Y-31891148D01*
X77747292Y-31920462D01*
X77807998Y-31944497D01*
X77815527Y-31947478D01*
X77819530Y-31947962D01*
X77879045Y-31983178D01*
X77910900Y-32046627D01*
X77912929Y-32069146D01*
X77912929Y-35941000D01*
X82087072Y-35941000D01*
X82087072Y-32069146D01*
X82107074Y-32001025D01*
X82160730Y-31954532D01*
X82178825Y-31948161D01*
X82184473Y-31947478D01*
X82192003Y-31944497D01*
X82252708Y-31920462D01*
X82326747Y-31891148D01*
X82391500Y-31841998D01*
X82423820Y-31817466D01*
X82490173Y-31792212D01*
X82559647Y-31806840D01*
X82576180Y-31817466D01*
X82608500Y-31841998D01*
X82673253Y-31891148D01*
X82815527Y-31947478D01*
X82823565Y-31948451D01*
X82823566Y-31948451D01*
X82848338Y-31951449D01*
X82906608Y-31958500D01*
X83093392Y-31958500D01*
X83151662Y-31951449D01*
X83176434Y-31948451D01*
X83176435Y-31948451D01*
X83184473Y-31947478D01*
X83326747Y-31891148D01*
X83391500Y-31841998D01*
X83423820Y-31817466D01*
X83490173Y-31792212D01*
X83559647Y-31806840D01*
X83576180Y-31817466D01*
X83608500Y-31841998D01*
X83673253Y-31891148D01*
X83815527Y-31947478D01*
X83823565Y-31948451D01*
X83823566Y-31948451D01*
X83848338Y-31951449D01*
X83906608Y-31958500D01*
X84093392Y-31958500D01*
X84151662Y-31951449D01*
X84176434Y-31948451D01*
X84176435Y-31948451D01*
X84184473Y-31947478D01*
X84197282Y-31942407D01*
X84230657Y-31929193D01*
X84301357Y-31922714D01*
X84364337Y-31955487D01*
X84399601Y-32017106D01*
X84400608Y-32022729D01*
X84401549Y-32026436D01*
X84402522Y-32034473D01*
X84458852Y-32176747D01*
X84551368Y-32298632D01*
X84673253Y-32391148D01*
X84815527Y-32447478D01*
X84823565Y-32448451D01*
X84823566Y-32448451D01*
X84848338Y-32451449D01*
X84906608Y-32458500D01*
X85093392Y-32458500D01*
X85151662Y-32451449D01*
X85176434Y-32448451D01*
X85176435Y-32448451D01*
X85184473Y-32447478D01*
X85326747Y-32391148D01*
X85448632Y-32298632D01*
X85541148Y-32176747D01*
X85597478Y-32034473D01*
X85598451Y-32026434D01*
X85600441Y-32018597D01*
X85603014Y-32019250D01*
X85625911Y-31965987D01*
X85684762Y-31926274D01*
X85755741Y-31924684D01*
X85769343Y-31929193D01*
X85802718Y-31942407D01*
X85815527Y-31947478D01*
X85823565Y-31948451D01*
X85823566Y-31948451D01*
X85848338Y-31951449D01*
X85906608Y-31958500D01*
X86093392Y-31958500D01*
X86151662Y-31951449D01*
X86176434Y-31948451D01*
X86176435Y-31948451D01*
X86184473Y-31947478D01*
X86326747Y-31891148D01*
X86391500Y-31841998D01*
X86423820Y-31817466D01*
X86490173Y-31792212D01*
X86559647Y-31806840D01*
X86576180Y-31817466D01*
X86608500Y-31841998D01*
X86673253Y-31891148D01*
X86815527Y-31947478D01*
X86823565Y-31948451D01*
X86823566Y-31948451D01*
X86848338Y-31951449D01*
X86906608Y-31958500D01*
X87093392Y-31958500D01*
X87151662Y-31951449D01*
X87176434Y-31948451D01*
X87176435Y-31948451D01*
X87184473Y-31947478D01*
X87326747Y-31891148D01*
X87391500Y-31841998D01*
X87423820Y-31817466D01*
X87490173Y-31792212D01*
X87559647Y-31806840D01*
X87576180Y-31817466D01*
X87608500Y-31841998D01*
X87673253Y-31891148D01*
X87747292Y-31920462D01*
X87807998Y-31944497D01*
X87815527Y-31947478D01*
X87819530Y-31947962D01*
X87879045Y-31983178D01*
X87910900Y-32046627D01*
X87912929Y-32069146D01*
X87912929Y-35941000D01*
X90999796Y-35941000D01*
X91067917Y-35961002D01*
X91114410Y-36014658D01*
X91124514Y-36084932D01*
X91095020Y-36149512D01*
X91075453Y-36167757D01*
X91061655Y-36178117D01*
X91058083Y-36181855D01*
X90931603Y-36314209D01*
X90901639Y-36345564D01*
X90898725Y-36349836D01*
X90898724Y-36349837D01*
X90831735Y-36448039D01*
X90771119Y-36536899D01*
X90673602Y-36746981D01*
X90611707Y-36970169D01*
X90587095Y-37200469D01*
X90587392Y-37205622D01*
X90587392Y-37205625D01*
X90600110Y-37426191D01*
X90600427Y-37431697D01*
X90601564Y-37436743D01*
X90601565Y-37436749D01*
X90625200Y-37541625D01*
X90651346Y-37657642D01*
X90653288Y-37662424D01*
X90653289Y-37662428D01*
X90731289Y-37854519D01*
X90738484Y-37872237D01*
X90778095Y-37936876D01*
X90842397Y-38041807D01*
X90859501Y-38069719D01*
X90901546Y-38118257D01*
X90971304Y-38198788D01*
X91000786Y-38263373D01*
X90990671Y-38333646D01*
X90944170Y-38387294D01*
X90920296Y-38399267D01*
X90864515Y-38420179D01*
X90853295Y-38424385D01*
X90736739Y-38511739D01*
X90649385Y-38628295D01*
X90598255Y-38764684D01*
X90591500Y-38826866D01*
X90591500Y-40723134D01*
X90598255Y-40785316D01*
X90649385Y-40921705D01*
X90736739Y-41038261D01*
X90853295Y-41125615D01*
X90989684Y-41176745D01*
X91051866Y-41183500D01*
X92948134Y-41183500D01*
X93010316Y-41176745D01*
X93146705Y-41125615D01*
X93263261Y-41038261D01*
X93350615Y-40921705D01*
X93401745Y-40785316D01*
X93408500Y-40723134D01*
X93408500Y-39843595D01*
X93428502Y-39775474D01*
X93482158Y-39728981D01*
X93552432Y-39718877D01*
X93617012Y-39748371D01*
X93623595Y-39754500D01*
X94599107Y-40730012D01*
X94633133Y-40792324D01*
X94628068Y-40863139D01*
X94619136Y-40882098D01*
X94618780Y-40882715D01*
X94618778Y-40882720D01*
X94615473Y-40888444D01*
X94556458Y-41070072D01*
X94555768Y-41076633D01*
X94555768Y-41076635D01*
X94548200Y-41148642D01*
X94536496Y-41260000D01*
X94537186Y-41266565D01*
X94554978Y-41435842D01*
X94556458Y-41449928D01*
X94615473Y-41631556D01*
X94618776Y-41637278D01*
X94618777Y-41637279D01*
X94633902Y-41663476D01*
X94710960Y-41796944D01*
X94715378Y-41801851D01*
X94715379Y-41801852D01*
X94809340Y-41906206D01*
X94838747Y-41938866D01*
X94922890Y-42000000D01*
X94965341Y-42030842D01*
X94993248Y-42051118D01*
X94999276Y-42053802D01*
X94999278Y-42053803D01*
X95095324Y-42096565D01*
X95167712Y-42128794D01*
X95258332Y-42148056D01*
X95348056Y-42167128D01*
X95348061Y-42167128D01*
X95354513Y-42168500D01*
X95545487Y-42168500D01*
X95551939Y-42167128D01*
X95551944Y-42167128D01*
X95641668Y-42148056D01*
X95732288Y-42128794D01*
X95804676Y-42096565D01*
X95900722Y-42053803D01*
X95900724Y-42053802D01*
X95906752Y-42051118D01*
X95934660Y-42030842D01*
X95977110Y-42000000D01*
X96061253Y-41938866D01*
X96090660Y-41906206D01*
X96184621Y-41801852D01*
X96184622Y-41801851D01*
X96189040Y-41796944D01*
X96266098Y-41663476D01*
X96281223Y-41637279D01*
X96281224Y-41637278D01*
X96284527Y-41631556D01*
X96321774Y-41516922D01*
X96361848Y-41458317D01*
X96415410Y-41432612D01*
X96455907Y-41424004D01*
X96597087Y-41393995D01*
X96603118Y-41391310D01*
X96765521Y-41319004D01*
X96765523Y-41319003D01*
X96771551Y-41316319D01*
X96808678Y-41289345D01*
X96926052Y-41204067D01*
X96927566Y-41206150D01*
X96981154Y-41180419D01*
X97015091Y-41179505D01*
X97051866Y-41183500D01*
X98948134Y-41183500D01*
X99010316Y-41176745D01*
X99146705Y-41125615D01*
X99263261Y-41038261D01*
X99350615Y-40921705D01*
X99401745Y-40785316D01*
X99408500Y-40723134D01*
X99408500Y-38826866D01*
X99401745Y-38764684D01*
X99350615Y-38628295D01*
X99263261Y-38511739D01*
X99146705Y-38424385D01*
X99138296Y-38421233D01*
X99138295Y-38421232D01*
X99079804Y-38399305D01*
X99023039Y-38356664D01*
X98998339Y-38290103D01*
X99013546Y-38220754D01*
X99035093Y-38192073D01*
X99072636Y-38154660D01*
X99072640Y-38154655D01*
X99076303Y-38151005D01*
X99087999Y-38134729D01*
X99130646Y-38075379D01*
X99211458Y-37962917D01*
X99215402Y-37954938D01*
X99311784Y-37759922D01*
X99311785Y-37759920D01*
X99314078Y-37755280D01*
X99381408Y-37533671D01*
X99411640Y-37304041D01*
X99412434Y-37271556D01*
X99413245Y-37238365D01*
X99413245Y-37238361D01*
X99413327Y-37235000D01*
X99401400Y-37089928D01*
X99394773Y-37009318D01*
X99394772Y-37009312D01*
X99394349Y-37004167D01*
X99359002Y-36863444D01*
X99339184Y-36784544D01*
X99339183Y-36784540D01*
X99337925Y-36779533D01*
X99335866Y-36774797D01*
X99247630Y-36571868D01*
X99247628Y-36571865D01*
X99245570Y-36567131D01*
X99119764Y-36372665D01*
X99116224Y-36368774D01*
X98986350Y-36226045D01*
X98963887Y-36201358D01*
X98918965Y-36165881D01*
X98877903Y-36107966D01*
X98874671Y-36037043D01*
X98910296Y-35975631D01*
X98973467Y-35943228D01*
X98997058Y-35941000D01*
X100311518Y-35941000D01*
X100379639Y-35961002D01*
X100426132Y-36014658D01*
X100436236Y-36084932D01*
X100420636Y-36130001D01*
X100415473Y-36138944D01*
X100356458Y-36320572D01*
X100355768Y-36327133D01*
X100355768Y-36327135D01*
X100343405Y-36444764D01*
X100336496Y-36510500D01*
X100337186Y-36517065D01*
X100354110Y-36678084D01*
X100356458Y-36700428D01*
X100415473Y-36882056D01*
X100510960Y-37047444D01*
X100515378Y-37052351D01*
X100515379Y-37052352D01*
X100630411Y-37180108D01*
X100638747Y-37189366D01*
X100793248Y-37301618D01*
X100799276Y-37304302D01*
X100799278Y-37304303D01*
X100961681Y-37376609D01*
X100967712Y-37379294D01*
X101029669Y-37392464D01*
X101092141Y-37426191D01*
X101123304Y-37476774D01*
X101165473Y-37606556D01*
X101168776Y-37612278D01*
X101168777Y-37612279D01*
X101197442Y-37661928D01*
X101214180Y-37730923D01*
X101190960Y-37798015D01*
X101173277Y-37817842D01*
X101168747Y-37821134D01*
X101164325Y-37826045D01*
X101164323Y-37826047D01*
X101063545Y-37937973D01*
X101040960Y-37963056D01*
X100983057Y-38063346D01*
X100958913Y-38105166D01*
X100945473Y-38128444D01*
X100886458Y-38310072D01*
X100885768Y-38316633D01*
X100885768Y-38316635D01*
X100883180Y-38341257D01*
X100866496Y-38500000D01*
X100867186Y-38506565D01*
X100878766Y-38616739D01*
X100886458Y-38689928D01*
X100945473Y-38871556D01*
X100948776Y-38877278D01*
X100948777Y-38877279D01*
X100968529Y-38911490D01*
X101040960Y-39036944D01*
X101168747Y-39178866D01*
X101323248Y-39291118D01*
X101329276Y-39293802D01*
X101329278Y-39293803D01*
X101435687Y-39341179D01*
X101497712Y-39368794D01*
X101591112Y-39388647D01*
X101678056Y-39407128D01*
X101678061Y-39407128D01*
X101684513Y-39408500D01*
X101875487Y-39408500D01*
X101881939Y-39407128D01*
X101881944Y-39407128D01*
X101968888Y-39388647D01*
X102062288Y-39368794D01*
X102124313Y-39341179D01*
X102230722Y-39293803D01*
X102230724Y-39293802D01*
X102236752Y-39291118D01*
X102325694Y-39226498D01*
X102377826Y-39188621D01*
X102391253Y-39178866D01*
X102395668Y-39173963D01*
X102400580Y-39169540D01*
X102401705Y-39170789D01*
X102455014Y-39137949D01*
X102488200Y-39133500D01*
X103621800Y-39133500D01*
X103689921Y-39153502D01*
X103709147Y-39169843D01*
X103709420Y-39169540D01*
X103714332Y-39173963D01*
X103718747Y-39178866D01*
X103732174Y-39188621D01*
X103784307Y-39226498D01*
X103873248Y-39291118D01*
X103879276Y-39293802D01*
X103879278Y-39293803D01*
X103985687Y-39341179D01*
X104047712Y-39368794D01*
X104141112Y-39388647D01*
X104228056Y-39407128D01*
X104228061Y-39407128D01*
X104234513Y-39408500D01*
X104350500Y-39408500D01*
X104418621Y-39428502D01*
X104465114Y-39482158D01*
X104476500Y-39534500D01*
X104476500Y-39973732D01*
X104487113Y-40076019D01*
X104489295Y-40082559D01*
X104538537Y-40230153D01*
X104541244Y-40238268D01*
X104545096Y-40244492D01*
X104545096Y-40244493D01*
X104620596Y-40366500D01*
X104631248Y-40383713D01*
X104752298Y-40504552D01*
X104758528Y-40508392D01*
X104758529Y-40508393D01*
X104891668Y-40590461D01*
X104897899Y-40594302D01*
X105060243Y-40648149D01*
X105067080Y-40648849D01*
X105067082Y-40648850D01*
X105108401Y-40653083D01*
X105161268Y-40658500D01*
X105708732Y-40658500D01*
X105711978Y-40658163D01*
X105711982Y-40658163D01*
X105753442Y-40653861D01*
X105811019Y-40647887D01*
X105879952Y-40624889D01*
X105966324Y-40596073D01*
X105966326Y-40596072D01*
X105973268Y-40593756D01*
X106003780Y-40574874D01*
X106072231Y-40556038D01*
X106136198Y-40574761D01*
X106161667Y-40590461D01*
X106161669Y-40590462D01*
X106167899Y-40594302D01*
X106330243Y-40648149D01*
X106337080Y-40648849D01*
X106337082Y-40648850D01*
X106378401Y-40653083D01*
X106431268Y-40658500D01*
X106978732Y-40658500D01*
X106981978Y-40658163D01*
X106981982Y-40658163D01*
X107023442Y-40653861D01*
X107081019Y-40647887D01*
X107198955Y-40608540D01*
X107269903Y-40605956D01*
X107330987Y-40642139D01*
X107354284Y-40684686D01*
X107356526Y-40683798D01*
X107372804Y-40724912D01*
X107376649Y-40736142D01*
X107388982Y-40778593D01*
X107393015Y-40785412D01*
X107393017Y-40785417D01*
X107399293Y-40796028D01*
X107407988Y-40813776D01*
X107415448Y-40832617D01*
X107420110Y-40839033D01*
X107420110Y-40839034D01*
X107441436Y-40868387D01*
X107447951Y-40878306D01*
X107461585Y-40901359D01*
X107479046Y-40970175D01*
X107456530Y-41037507D01*
X107401187Y-41081977D01*
X107353133Y-41091500D01*
X107329013Y-41091500D01*
X107322561Y-41092872D01*
X107322556Y-41092872D01*
X107235613Y-41111353D01*
X107142212Y-41131206D01*
X107136182Y-41133891D01*
X107136181Y-41133891D01*
X106973778Y-41206197D01*
X106973776Y-41206198D01*
X106967748Y-41208882D01*
X106962407Y-41212762D01*
X106962406Y-41212763D01*
X106858164Y-41288500D01*
X106813247Y-41321134D01*
X106808832Y-41326037D01*
X106803920Y-41330460D01*
X106802795Y-41329211D01*
X106749486Y-41362051D01*
X106716300Y-41366500D01*
X102168200Y-41366500D01*
X102100079Y-41346498D01*
X102080853Y-41330157D01*
X102080580Y-41330460D01*
X102075668Y-41326037D01*
X102071253Y-41321134D01*
X102026336Y-41288500D01*
X101922094Y-41212763D01*
X101922093Y-41212762D01*
X101916752Y-41208882D01*
X101910724Y-41206198D01*
X101910722Y-41206197D01*
X101748319Y-41133891D01*
X101748318Y-41133891D01*
X101742288Y-41131206D01*
X101648887Y-41111353D01*
X101561944Y-41092872D01*
X101561939Y-41092872D01*
X101555487Y-41091500D01*
X101364513Y-41091500D01*
X101358061Y-41092872D01*
X101358056Y-41092872D01*
X101271113Y-41111353D01*
X101177712Y-41131206D01*
X101171682Y-41133891D01*
X101171681Y-41133891D01*
X101009278Y-41206197D01*
X101009276Y-41206198D01*
X101003248Y-41208882D01*
X100997907Y-41212762D01*
X100997906Y-41212763D01*
X100991922Y-41217111D01*
X100848747Y-41321134D01*
X100844326Y-41326044D01*
X100844325Y-41326045D01*
X100732464Y-41450280D01*
X100720960Y-41463056D01*
X100625473Y-41628444D01*
X100566458Y-41810072D01*
X100565768Y-41816633D01*
X100565768Y-41816635D01*
X100552921Y-41938866D01*
X100546496Y-42000000D01*
X100547186Y-42006565D01*
X100564062Y-42167128D01*
X100566458Y-42189928D01*
X100625473Y-42371556D01*
X100628776Y-42377278D01*
X100628777Y-42377279D01*
X100632633Y-42383957D01*
X100720960Y-42536944D01*
X100725378Y-42541851D01*
X100725379Y-42541852D01*
X100781649Y-42604346D01*
X100848747Y-42678866D01*
X100927684Y-42736217D01*
X100969969Y-42766939D01*
X101003248Y-42791118D01*
X101009276Y-42793802D01*
X101009278Y-42793803D01*
X101171681Y-42866109D01*
X101177712Y-42868794D01*
X101268431Y-42888077D01*
X101358056Y-42907128D01*
X101358061Y-42907128D01*
X101364513Y-42908500D01*
X101555487Y-42908500D01*
X101561939Y-42907128D01*
X101561944Y-42907128D01*
X101651569Y-42888077D01*
X101742288Y-42868794D01*
X101748319Y-42866109D01*
X101910722Y-42793803D01*
X101910724Y-42793802D01*
X101916752Y-42791118D01*
X101950032Y-42766939D01*
X102062810Y-42685000D01*
X102071253Y-42678866D01*
X102075668Y-42673963D01*
X102080580Y-42669540D01*
X102081705Y-42670789D01*
X102135014Y-42637949D01*
X102168200Y-42633500D01*
X106716300Y-42633500D01*
X106784421Y-42653502D01*
X106803647Y-42669843D01*
X106803920Y-42669540D01*
X106808832Y-42673963D01*
X106813247Y-42678866D01*
X106821690Y-42685000D01*
X106934469Y-42766939D01*
X106967748Y-42791118D01*
X106973776Y-42793802D01*
X106973778Y-42793803D01*
X107136181Y-42866109D01*
X107142212Y-42868794D01*
X107232931Y-42888077D01*
X107322556Y-42907128D01*
X107322561Y-42907128D01*
X107329013Y-42908500D01*
X107519987Y-42908500D01*
X107526439Y-42907128D01*
X107526444Y-42907128D01*
X107616069Y-42888077D01*
X107706788Y-42868794D01*
X107712819Y-42866109D01*
X107875222Y-42793803D01*
X107875224Y-42793802D01*
X107881252Y-42791118D01*
X107914532Y-42766939D01*
X107956816Y-42736217D01*
X108035753Y-42678866D01*
X108102851Y-42604346D01*
X108159121Y-42541852D01*
X108159122Y-42541851D01*
X108163540Y-42536944D01*
X108251867Y-42383957D01*
X108255723Y-42377279D01*
X108255724Y-42377278D01*
X108259027Y-42371556D01*
X108318042Y-42189928D01*
X108320439Y-42167128D01*
X108337314Y-42006565D01*
X108338004Y-42000000D01*
X108331579Y-41938866D01*
X108318732Y-41816635D01*
X108318732Y-41816633D01*
X108318042Y-41810072D01*
X108315548Y-41802396D01*
X108315524Y-41801542D01*
X108314629Y-41797334D01*
X108315398Y-41797170D01*
X108313518Y-41731430D01*
X108350179Y-41670631D01*
X108413890Y-41639304D01*
X108429769Y-41638191D01*
X108429943Y-41638219D01*
X108431571Y-41638065D01*
X108431587Y-41638064D01*
X108473954Y-41634059D01*
X108485811Y-41633500D01*
X110275004Y-41633500D01*
X110343125Y-41653502D01*
X110389618Y-41707158D01*
X110400314Y-41746329D01*
X110415572Y-41891500D01*
X110416458Y-41899928D01*
X110475473Y-42081556D01*
X110570960Y-42246944D01*
X110575378Y-42251851D01*
X110575379Y-42251852D01*
X110690672Y-42379898D01*
X110698747Y-42388866D01*
X110785947Y-42452221D01*
X110836286Y-42488794D01*
X110853248Y-42501118D01*
X110859276Y-42503802D01*
X110859278Y-42503803D01*
X111021681Y-42576109D01*
X111027712Y-42578794D01*
X111121113Y-42598647D01*
X111208056Y-42617128D01*
X111208061Y-42617128D01*
X111214513Y-42618500D01*
X111405487Y-42618500D01*
X111411939Y-42617128D01*
X111411944Y-42617128D01*
X111498887Y-42598647D01*
X111592288Y-42578794D01*
X111598319Y-42576109D01*
X111760722Y-42503803D01*
X111760724Y-42503802D01*
X111766752Y-42501118D01*
X111783715Y-42488794D01*
X111834053Y-42452221D01*
X111921253Y-42388866D01*
X111928266Y-42381078D01*
X111930181Y-42379898D01*
X111930577Y-42379541D01*
X111930642Y-42379613D01*
X111988712Y-42343840D01*
X112059696Y-42345194D01*
X112118679Y-42384709D01*
X112147208Y-42452219D01*
X112151712Y-42495072D01*
X112153625Y-42513266D01*
X112156030Y-42536153D01*
X112215045Y-42717781D01*
X112218348Y-42723503D01*
X112218349Y-42723504D01*
X112221932Y-42729710D01*
X112310532Y-42883169D01*
X112314950Y-42888076D01*
X112314951Y-42888077D01*
X112384136Y-42964915D01*
X112414854Y-43028922D01*
X112416500Y-43049225D01*
X112416500Y-43614967D01*
X112396498Y-43683088D01*
X112342842Y-43729581D01*
X112272568Y-43739685D01*
X112250841Y-43734562D01*
X112159757Y-43704351D01*
X112152920Y-43703651D01*
X112152918Y-43703650D01*
X112111599Y-43699417D01*
X112058732Y-43694000D01*
X111511268Y-43694000D01*
X111508022Y-43694337D01*
X111508018Y-43694337D01*
X111473917Y-43697875D01*
X111408981Y-43704613D01*
X111390925Y-43710637D01*
X111253676Y-43756427D01*
X111253674Y-43756428D01*
X111246732Y-43758744D01*
X111216220Y-43777626D01*
X111147769Y-43796462D01*
X111083802Y-43777739D01*
X111058333Y-43762039D01*
X111058330Y-43762037D01*
X111052101Y-43758198D01*
X110889757Y-43704351D01*
X110882920Y-43703651D01*
X110882918Y-43703650D01*
X110841599Y-43699417D01*
X110788732Y-43694000D01*
X110241268Y-43694000D01*
X110238022Y-43694337D01*
X110238018Y-43694337D01*
X110203917Y-43697875D01*
X110138981Y-43704613D01*
X110120925Y-43710637D01*
X109983676Y-43756427D01*
X109983674Y-43756428D01*
X109976732Y-43758744D01*
X109970508Y-43762596D01*
X109970507Y-43762596D01*
X109921826Y-43792721D01*
X109831287Y-43848748D01*
X109710448Y-43969798D01*
X109706608Y-43976028D01*
X109706607Y-43976029D01*
X109625255Y-44108007D01*
X109620698Y-44115399D01*
X109566851Y-44277743D01*
X109566151Y-44284580D01*
X109566150Y-44284582D01*
X109564806Y-44297699D01*
X109556500Y-44378768D01*
X109556500Y-45268000D01*
X109536498Y-45336121D01*
X109482842Y-45382614D01*
X109430500Y-45394000D01*
X107789500Y-45394000D01*
X107721379Y-45373998D01*
X107674886Y-45320342D01*
X107663500Y-45268000D01*
X107663500Y-44378768D01*
X107652887Y-44276481D01*
X107615905Y-44165634D01*
X107601073Y-44121176D01*
X107601072Y-44121174D01*
X107598756Y-44114232D01*
X107579981Y-44083891D01*
X107512606Y-43975015D01*
X107508752Y-43968787D01*
X107387702Y-43847948D01*
X107340049Y-43818574D01*
X107248331Y-43762038D01*
X107248329Y-43762037D01*
X107242101Y-43758198D01*
X107079757Y-43704351D01*
X107072920Y-43703651D01*
X107072918Y-43703650D01*
X107031599Y-43699417D01*
X106978732Y-43694000D01*
X106431268Y-43694000D01*
X106428022Y-43694337D01*
X106428018Y-43694337D01*
X106393917Y-43697875D01*
X106328981Y-43704613D01*
X106310925Y-43710637D01*
X106173676Y-43756427D01*
X106173674Y-43756428D01*
X106166732Y-43758744D01*
X106136220Y-43777626D01*
X106067769Y-43796462D01*
X106003802Y-43777739D01*
X105978333Y-43762039D01*
X105978330Y-43762037D01*
X105972101Y-43758198D01*
X105809757Y-43704351D01*
X105802920Y-43703651D01*
X105802918Y-43703650D01*
X105761599Y-43699417D01*
X105708732Y-43694000D01*
X105161268Y-43694000D01*
X105158022Y-43694337D01*
X105158018Y-43694337D01*
X105123917Y-43697875D01*
X105058981Y-43704613D01*
X105040925Y-43710637D01*
X104903676Y-43756427D01*
X104903674Y-43756428D01*
X104896732Y-43758744D01*
X104890508Y-43762596D01*
X104890507Y-43762596D01*
X104841826Y-43792721D01*
X104751287Y-43848748D01*
X104630448Y-43969798D01*
X104626608Y-43976028D01*
X104626607Y-43976029D01*
X104545255Y-44108007D01*
X104540698Y-44115399D01*
X104486851Y-44277743D01*
X104486151Y-44284580D01*
X104486150Y-44284582D01*
X104484806Y-44297699D01*
X104476500Y-44378768D01*
X104476500Y-45268000D01*
X104456498Y-45336121D01*
X104402842Y-45382614D01*
X104350500Y-45394000D01*
X99823573Y-45394000D01*
X99755452Y-45373998D01*
X99708959Y-45320342D01*
X99698855Y-45250068D01*
X99728349Y-45185488D01*
X99741743Y-45172189D01*
X99916208Y-45023182D01*
X99916213Y-45023177D01*
X99919969Y-45019969D01*
X100074176Y-44839416D01*
X100076755Y-44835208D01*
X100076759Y-44835202D01*
X100195654Y-44641183D01*
X100198240Y-44636963D01*
X100200229Y-44632163D01*
X100287211Y-44422167D01*
X100287212Y-44422165D01*
X100289105Y-44417594D01*
X100321337Y-44283337D01*
X100343380Y-44191524D01*
X100343381Y-44191518D01*
X100344535Y-44186711D01*
X100363165Y-43950000D01*
X100344535Y-43713289D01*
X100342453Y-43704613D01*
X100293439Y-43500460D01*
X100289105Y-43482406D01*
X100287211Y-43477833D01*
X100200135Y-43267611D01*
X100200133Y-43267607D01*
X100198240Y-43263037D01*
X100167462Y-43212812D01*
X100076759Y-43064798D01*
X100076755Y-43064792D01*
X100074176Y-43060584D01*
X99919969Y-42880031D01*
X99739416Y-42725824D01*
X99735208Y-42723245D01*
X99735202Y-42723241D01*
X99541183Y-42604346D01*
X99536963Y-42601760D01*
X99532393Y-42599867D01*
X99532389Y-42599865D01*
X99322167Y-42512789D01*
X99322165Y-42512788D01*
X99317594Y-42510895D01*
X99225537Y-42488794D01*
X99091524Y-42456620D01*
X99091518Y-42456619D01*
X99086711Y-42455465D01*
X98850000Y-42436835D01*
X98613289Y-42455465D01*
X98608482Y-42456619D01*
X98608476Y-42456620D01*
X98474463Y-42488794D01*
X98382406Y-42510895D01*
X98377835Y-42512788D01*
X98377833Y-42512789D01*
X98167611Y-42599865D01*
X98167607Y-42599867D01*
X98163037Y-42601760D01*
X98158817Y-42604346D01*
X97964798Y-42723241D01*
X97964792Y-42723245D01*
X97960584Y-42725824D01*
X97780031Y-42880031D01*
X97625824Y-43060584D01*
X97623245Y-43064792D01*
X97623241Y-43064798D01*
X97532538Y-43212812D01*
X97501760Y-43263037D01*
X97499867Y-43267607D01*
X97499865Y-43267611D01*
X97412789Y-43477833D01*
X97410895Y-43482406D01*
X97406561Y-43500460D01*
X97357548Y-43704613D01*
X97355465Y-43713289D01*
X97336835Y-43950000D01*
X97355465Y-44186711D01*
X97356619Y-44191518D01*
X97356620Y-44191524D01*
X97378663Y-44283337D01*
X97410895Y-44417594D01*
X97412788Y-44422165D01*
X97412789Y-44422167D01*
X97499772Y-44632163D01*
X97501760Y-44636963D01*
X97504346Y-44641183D01*
X97623241Y-44835202D01*
X97623245Y-44835208D01*
X97625824Y-44839416D01*
X97780031Y-45019969D01*
X97783787Y-45023177D01*
X97783792Y-45023182D01*
X97958257Y-45172189D01*
X97997067Y-45231639D01*
X97997574Y-45302634D01*
X97959617Y-45362633D01*
X97895249Y-45392586D01*
X97876427Y-45394000D01*
X95310114Y-45394000D01*
X95241993Y-45373998D01*
X95195500Y-45320342D01*
X95185396Y-45250068D01*
X95216679Y-45183467D01*
X95217907Y-45182110D01*
X95214124Y-45173334D01*
X94362812Y-44322022D01*
X94348868Y-44314408D01*
X94347035Y-44314539D01*
X94340420Y-44318790D01*
X93488920Y-45170290D01*
X93482160Y-45182670D01*
X93489512Y-45192491D01*
X93514323Y-45259011D01*
X93499232Y-45328385D01*
X93449030Y-45378587D01*
X93388644Y-45394000D01*
X90623573Y-45394000D01*
X90555452Y-45373998D01*
X90508959Y-45320342D01*
X90498855Y-45250068D01*
X90528349Y-45185488D01*
X90541743Y-45172189D01*
X90716208Y-45023182D01*
X90716213Y-45023177D01*
X90719969Y-45019969D01*
X90874176Y-44839416D01*
X90876755Y-44835208D01*
X90876759Y-44835202D01*
X90995654Y-44641183D01*
X90998240Y-44636963D01*
X91000229Y-44632163D01*
X91087211Y-44422167D01*
X91087212Y-44422165D01*
X91089105Y-44417594D01*
X91121337Y-44283337D01*
X91143380Y-44191524D01*
X91143381Y-44191518D01*
X91144535Y-44186711D01*
X91162777Y-43954930D01*
X92837725Y-43954930D01*
X92855572Y-44181699D01*
X92857115Y-44191446D01*
X92910217Y-44412627D01*
X92913266Y-44422012D01*
X93000313Y-44632163D01*
X93004795Y-44640958D01*
X93107432Y-44808445D01*
X93117890Y-44817907D01*
X93126666Y-44814124D01*
X93977978Y-43962812D01*
X93984356Y-43951132D01*
X94714408Y-43951132D01*
X94714539Y-43952965D01*
X94718790Y-43959580D01*
X95570290Y-44811080D01*
X95582670Y-44817840D01*
X95590320Y-44812113D01*
X95695205Y-44640958D01*
X95699687Y-44632163D01*
X95786734Y-44422012D01*
X95789783Y-44412627D01*
X95842885Y-44191446D01*
X95844428Y-44181699D01*
X95862275Y-43954930D01*
X95862275Y-43945070D01*
X95844428Y-43718301D01*
X95842885Y-43708554D01*
X95789783Y-43487373D01*
X95786734Y-43477988D01*
X95699687Y-43267837D01*
X95695205Y-43259042D01*
X95592568Y-43091555D01*
X95582110Y-43082093D01*
X95573334Y-43085876D01*
X94722022Y-43937188D01*
X94714408Y-43951132D01*
X93984356Y-43951132D01*
X93985592Y-43948868D01*
X93985461Y-43947035D01*
X93981210Y-43940420D01*
X93129710Y-43088920D01*
X93117330Y-43082160D01*
X93109680Y-43087887D01*
X93004795Y-43259042D01*
X93000313Y-43267837D01*
X92913266Y-43477988D01*
X92910217Y-43487373D01*
X92857115Y-43708554D01*
X92855572Y-43718301D01*
X92837725Y-43945070D01*
X92837725Y-43954930D01*
X91162777Y-43954930D01*
X91163165Y-43950000D01*
X91144535Y-43713289D01*
X91142453Y-43704613D01*
X91093439Y-43500460D01*
X91089105Y-43482406D01*
X91087211Y-43477833D01*
X91000135Y-43267611D01*
X91000133Y-43267607D01*
X90998240Y-43263037D01*
X90967462Y-43212812D01*
X90876759Y-43064798D01*
X90876755Y-43064792D01*
X90874176Y-43060584D01*
X90719969Y-42880031D01*
X90539416Y-42725824D01*
X90535208Y-42723245D01*
X90535202Y-42723241D01*
X90526470Y-42717890D01*
X93482093Y-42717890D01*
X93485876Y-42726666D01*
X94337188Y-43577978D01*
X94351132Y-43585592D01*
X94352965Y-43585461D01*
X94359580Y-43581210D01*
X95211080Y-42729710D01*
X95217840Y-42717330D01*
X95212113Y-42709680D01*
X95040958Y-42604795D01*
X95032163Y-42600313D01*
X94822012Y-42513266D01*
X94812627Y-42510217D01*
X94591446Y-42457115D01*
X94581699Y-42455572D01*
X94354930Y-42437725D01*
X94345070Y-42437725D01*
X94118301Y-42455572D01*
X94108554Y-42457115D01*
X93887373Y-42510217D01*
X93877988Y-42513266D01*
X93667837Y-42600313D01*
X93659042Y-42604795D01*
X93491555Y-42707432D01*
X93482093Y-42717890D01*
X90526470Y-42717890D01*
X90343665Y-42605867D01*
X90296034Y-42553219D01*
X90283500Y-42498434D01*
X90283500Y-41068768D01*
X90284027Y-41057585D01*
X90285702Y-41050092D01*
X90285307Y-41037507D01*
X90283562Y-40982002D01*
X90283500Y-40978044D01*
X90283500Y-40950144D01*
X90282996Y-40946153D01*
X90282063Y-40934311D01*
X90281028Y-40901359D01*
X90280674Y-40890111D01*
X90278346Y-40882098D01*
X90275021Y-40870652D01*
X90271012Y-40851293D01*
X90270846Y-40849983D01*
X90268474Y-40831203D01*
X90265558Y-40823837D01*
X90265556Y-40823831D01*
X90252200Y-40790098D01*
X90248355Y-40778868D01*
X90238230Y-40744017D01*
X90238230Y-40744016D01*
X90236019Y-40736407D01*
X90225705Y-40718966D01*
X90217008Y-40701213D01*
X90212472Y-40689758D01*
X90209552Y-40682383D01*
X90183563Y-40646612D01*
X90177047Y-40636692D01*
X90170067Y-40624889D01*
X90154542Y-40598638D01*
X90140221Y-40584317D01*
X90127380Y-40569283D01*
X90115472Y-40552893D01*
X90081395Y-40524702D01*
X90072616Y-40516712D01*
X87391299Y-37835395D01*
X87357273Y-37773083D01*
X87359836Y-37709671D01*
X87367303Y-37685097D01*
X87381408Y-37638671D01*
X87411640Y-37409041D01*
X87411722Y-37405691D01*
X87413245Y-37343365D01*
X87413245Y-37343361D01*
X87413327Y-37340000D01*
X87403936Y-37225775D01*
X87394773Y-37114318D01*
X87394772Y-37114312D01*
X87394349Y-37109167D01*
X87337925Y-36884533D01*
X87331488Y-36869729D01*
X87247630Y-36676868D01*
X87247628Y-36676865D01*
X87245570Y-36672131D01*
X87119764Y-36477665D01*
X87102436Y-36458621D01*
X87055358Y-36406884D01*
X86963887Y-36306358D01*
X86959836Y-36303159D01*
X86959832Y-36303155D01*
X86786177Y-36166011D01*
X86786172Y-36166008D01*
X86782123Y-36162810D01*
X86777607Y-36160317D01*
X86777604Y-36160315D01*
X86583879Y-36053373D01*
X86583875Y-36053371D01*
X86579355Y-36050876D01*
X86574486Y-36049152D01*
X86574482Y-36049150D01*
X86365903Y-35975288D01*
X86365899Y-35975287D01*
X86361028Y-35973562D01*
X86355935Y-35972655D01*
X86355932Y-35972654D01*
X86138095Y-35933851D01*
X86138089Y-35933850D01*
X86133006Y-35932945D01*
X86060096Y-35932054D01*
X85906581Y-35930179D01*
X85906579Y-35930179D01*
X85901411Y-35930116D01*
X85672464Y-35965150D01*
X85452314Y-36037106D01*
X85447726Y-36039494D01*
X85447722Y-36039496D01*
X85279369Y-36127135D01*
X85246872Y-36144052D01*
X85242739Y-36147155D01*
X85242736Y-36147157D01*
X85087613Y-36263627D01*
X85061655Y-36283117D01*
X85058083Y-36286855D01*
X84907182Y-36444764D01*
X84901639Y-36450564D01*
X84898725Y-36454836D01*
X84898724Y-36454837D01*
X84883152Y-36477665D01*
X84771119Y-36641899D01*
X84673602Y-36851981D01*
X84611707Y-37075169D01*
X84587095Y-37305469D01*
X84587392Y-37310622D01*
X84587392Y-37310625D01*
X84597551Y-37486819D01*
X84600427Y-37536697D01*
X84601564Y-37541743D01*
X84601565Y-37541749D01*
X84624519Y-37643602D01*
X84651346Y-37762642D01*
X84653288Y-37767424D01*
X84653289Y-37767428D01*
X84736540Y-37972450D01*
X84738484Y-37977237D01*
X84859501Y-38174719D01*
X84862882Y-38178622D01*
X84971304Y-38303788D01*
X85000786Y-38368373D01*
X84990671Y-38438646D01*
X84944170Y-38492294D01*
X84920296Y-38504267D01*
X84881213Y-38518919D01*
X84853295Y-38529385D01*
X84736739Y-38616739D01*
X84649385Y-38733295D01*
X84598255Y-38869684D01*
X84591500Y-38931866D01*
X84591500Y-39120500D01*
X84571498Y-39188621D01*
X84517842Y-39235114D01*
X84465500Y-39246500D01*
X83380990Y-39246500D01*
X83312869Y-39226498D01*
X83291895Y-39209595D01*
X82554137Y-38471836D01*
X81790048Y-37707747D01*
X81782508Y-37699461D01*
X81778396Y-37692982D01*
X81764572Y-37680000D01*
X81728745Y-37646357D01*
X81725903Y-37643602D01*
X81706166Y-37623865D01*
X81702969Y-37621385D01*
X81693947Y-37613680D01*
X81691104Y-37611010D01*
X81661717Y-37583414D01*
X81654771Y-37579595D01*
X81654768Y-37579593D01*
X81643962Y-37573652D01*
X81627443Y-37562801D01*
X81626979Y-37562441D01*
X81611437Y-37550386D01*
X81604168Y-37547241D01*
X81604164Y-37547238D01*
X81570859Y-37532826D01*
X81560209Y-37527609D01*
X81521456Y-37506305D01*
X81501833Y-37501267D01*
X81483130Y-37494863D01*
X81471816Y-37489967D01*
X81471815Y-37489967D01*
X81464541Y-37486819D01*
X81456718Y-37485580D01*
X81456708Y-37485577D01*
X81420872Y-37479901D01*
X81409252Y-37477495D01*
X81374107Y-37468472D01*
X81374106Y-37468472D01*
X81366426Y-37466500D01*
X81346172Y-37466500D01*
X81326461Y-37464949D01*
X81314282Y-37463020D01*
X81306453Y-37461780D01*
X81298561Y-37462526D01*
X81262435Y-37465941D01*
X81250577Y-37466500D01*
X80622043Y-37466500D01*
X80553922Y-37446498D01*
X80507429Y-37392842D01*
X80500336Y-37373111D01*
X80451379Y-37190400D01*
X80451378Y-37190398D01*
X80449956Y-37185090D01*
X80447633Y-37180108D01*
X80362912Y-36998423D01*
X80362910Y-36998420D01*
X80360589Y-36993442D01*
X80239301Y-36820224D01*
X80089776Y-36670699D01*
X79916558Y-36549411D01*
X79911580Y-36547090D01*
X79911577Y-36547088D01*
X79729892Y-36462367D01*
X79729891Y-36462366D01*
X79724910Y-36460044D01*
X79719602Y-36458622D01*
X79719600Y-36458621D01*
X79525970Y-36406738D01*
X79525968Y-36406738D01*
X79520655Y-36405314D01*
X79310000Y-36386884D01*
X79099345Y-36405314D01*
X79094032Y-36406738D01*
X79094030Y-36406738D01*
X78900400Y-36458621D01*
X78900398Y-36458622D01*
X78895090Y-36460044D01*
X78890109Y-36462366D01*
X78890108Y-36462367D01*
X78708423Y-36547088D01*
X78708420Y-36547090D01*
X78703442Y-36549411D01*
X78530224Y-36670699D01*
X78380699Y-36820224D01*
X78259411Y-36993442D01*
X78257090Y-36998420D01*
X78257088Y-36998423D01*
X78172367Y-37180108D01*
X78170044Y-37185090D01*
X78168622Y-37190398D01*
X78168621Y-37190400D01*
X78116738Y-37384030D01*
X78115314Y-37389345D01*
X78096884Y-37600000D01*
X78115314Y-37810655D01*
X78116739Y-37815972D01*
X78116739Y-37815974D01*
X78121271Y-37832887D01*
X78119583Y-37903863D01*
X78079790Y-37962660D01*
X78014526Y-37990609D01*
X77999565Y-37991500D01*
X73000435Y-37991500D01*
X72932314Y-37971498D01*
X72885821Y-37917842D01*
X72875717Y-37847568D01*
X72878729Y-37832887D01*
X72883261Y-37815974D01*
X72883261Y-37815972D01*
X72884686Y-37810655D01*
X72903116Y-37600000D01*
X72884686Y-37389345D01*
X72883262Y-37384030D01*
X72831379Y-37190400D01*
X72831378Y-37190398D01*
X72829956Y-37185090D01*
X72827633Y-37180108D01*
X72742912Y-36998423D01*
X72742910Y-36998420D01*
X72740589Y-36993442D01*
X72619301Y-36820224D01*
X72469776Y-36670699D01*
X72296558Y-36549411D01*
X72291580Y-36547090D01*
X72291577Y-36547088D01*
X72109892Y-36462367D01*
X72109891Y-36462366D01*
X72104910Y-36460044D01*
X72099602Y-36458622D01*
X72099600Y-36458621D01*
X71905970Y-36406738D01*
X71905968Y-36406738D01*
X71900655Y-36405314D01*
X71690000Y-36386884D01*
X71479345Y-36405314D01*
X71474032Y-36406738D01*
X71474030Y-36406738D01*
X71280400Y-36458621D01*
X71280398Y-36458622D01*
X71275090Y-36460044D01*
X71270109Y-36462366D01*
X71270108Y-36462367D01*
X71088423Y-36547088D01*
X71088420Y-36547090D01*
X71083442Y-36549411D01*
X70910224Y-36670699D01*
X70760699Y-36820224D01*
X70639411Y-36993442D01*
X70637090Y-36998420D01*
X70637088Y-36998423D01*
X70552367Y-37180108D01*
X70550044Y-37185090D01*
X70548622Y-37190398D01*
X70548621Y-37190400D01*
X70496738Y-37384030D01*
X70495314Y-37389345D01*
X70476884Y-37600000D01*
X70495314Y-37810655D01*
X70496739Y-37815972D01*
X70496739Y-37815974D01*
X70501271Y-37832887D01*
X70499583Y-37903863D01*
X70459790Y-37962660D01*
X70394526Y-37990609D01*
X70379565Y-37991500D01*
X68538751Y-37991500D01*
X68470630Y-37971498D01*
X68424137Y-37917842D01*
X68413230Y-37854519D01*
X68428019Y-37685476D01*
X68428019Y-37685475D01*
X68428498Y-37680000D01*
X68408543Y-37451913D01*
X68401600Y-37426000D01*
X68350707Y-37236067D01*
X68350706Y-37236065D01*
X68349284Y-37230757D01*
X68331794Y-37193249D01*
X68254849Y-37028238D01*
X68254846Y-37028233D01*
X68252523Y-37023251D01*
X68170818Y-36906565D01*
X68124357Y-36840211D01*
X68124355Y-36840208D01*
X68121198Y-36835700D01*
X67959300Y-36673802D01*
X67954792Y-36670645D01*
X67954789Y-36670643D01*
X67876611Y-36615902D01*
X67771749Y-36542477D01*
X67766767Y-36540154D01*
X67766762Y-36540151D01*
X67569225Y-36448039D01*
X67569224Y-36448039D01*
X67564243Y-36445716D01*
X67558935Y-36444294D01*
X67558933Y-36444293D01*
X67348402Y-36387881D01*
X67348400Y-36387881D01*
X67343087Y-36386457D01*
X67115000Y-36366502D01*
X66886913Y-36386457D01*
X66881600Y-36387881D01*
X66881598Y-36387881D01*
X66671067Y-36444293D01*
X66671065Y-36444294D01*
X66665757Y-36445716D01*
X66660776Y-36448039D01*
X66660775Y-36448039D01*
X66463238Y-36540151D01*
X66463233Y-36540154D01*
X66458251Y-36542477D01*
X66353389Y-36615902D01*
X66275211Y-36670643D01*
X66275208Y-36670645D01*
X66270700Y-36673802D01*
X66108802Y-36835700D01*
X66105645Y-36840208D01*
X66105643Y-36840211D01*
X66059182Y-36906565D01*
X65977477Y-37023251D01*
X65975154Y-37028233D01*
X65975151Y-37028238D01*
X65959195Y-37062457D01*
X65912278Y-37115742D01*
X65844001Y-37135203D01*
X65776041Y-37114661D01*
X65730805Y-37062457D01*
X65714849Y-37028238D01*
X65714846Y-37028233D01*
X65712523Y-37023251D01*
X65630818Y-36906565D01*
X65584357Y-36840211D01*
X65584355Y-36840208D01*
X65581198Y-36835700D01*
X65419300Y-36673802D01*
X65414792Y-36670645D01*
X65414789Y-36670643D01*
X65336611Y-36615902D01*
X65231749Y-36542477D01*
X65226767Y-36540154D01*
X65226762Y-36540151D01*
X65029225Y-36448039D01*
X65029224Y-36448039D01*
X65024243Y-36445716D01*
X65018935Y-36444294D01*
X65018933Y-36444293D01*
X64808402Y-36387881D01*
X64808400Y-36387881D01*
X64803087Y-36386457D01*
X64575000Y-36366502D01*
X64346913Y-36386457D01*
X64341600Y-36387881D01*
X64341598Y-36387881D01*
X64131067Y-36444293D01*
X64131065Y-36444294D01*
X64125757Y-36445716D01*
X64120776Y-36448039D01*
X64120775Y-36448039D01*
X63923238Y-36540151D01*
X63923233Y-36540154D01*
X63918251Y-36542477D01*
X63813389Y-36615902D01*
X63735211Y-36670643D01*
X63735208Y-36670645D01*
X63730700Y-36673802D01*
X63568802Y-36835700D01*
X63565645Y-36840208D01*
X63565643Y-36840211D01*
X63519182Y-36906565D01*
X63437477Y-37023251D01*
X63435154Y-37028233D01*
X63435151Y-37028238D01*
X63419195Y-37062457D01*
X63372278Y-37115742D01*
X63304001Y-37135203D01*
X63236041Y-37114661D01*
X63190805Y-37062457D01*
X63174849Y-37028238D01*
X63174846Y-37028233D01*
X63172523Y-37023251D01*
X63090818Y-36906565D01*
X63044357Y-36840211D01*
X63044355Y-36840208D01*
X63041198Y-36835700D01*
X62879300Y-36673802D01*
X62874792Y-36670645D01*
X62874789Y-36670643D01*
X62796611Y-36615902D01*
X62691749Y-36542477D01*
X62686767Y-36540154D01*
X62686762Y-36540151D01*
X62489225Y-36448039D01*
X62489224Y-36448039D01*
X62484243Y-36445716D01*
X62478935Y-36444294D01*
X62478933Y-36444293D01*
X62268402Y-36387881D01*
X62268400Y-36387881D01*
X62263087Y-36386457D01*
X62035000Y-36366502D01*
X61806913Y-36386457D01*
X61801600Y-36387881D01*
X61801598Y-36387881D01*
X61591067Y-36444293D01*
X61591065Y-36444294D01*
X61585757Y-36445716D01*
X61580776Y-36448039D01*
X61580775Y-36448039D01*
X61383238Y-36540151D01*
X61383233Y-36540154D01*
X61378251Y-36542477D01*
X61273389Y-36615902D01*
X61195211Y-36670643D01*
X61195208Y-36670645D01*
X61190700Y-36673802D01*
X61028802Y-36835700D01*
X61025645Y-36840208D01*
X61025643Y-36840211D01*
X60979182Y-36906565D01*
X60897477Y-37023251D01*
X60895154Y-37028233D01*
X60895151Y-37028238D01*
X60879195Y-37062457D01*
X60832278Y-37115742D01*
X60764001Y-37135203D01*
X60696041Y-37114661D01*
X60650805Y-37062457D01*
X60634849Y-37028238D01*
X60634846Y-37028233D01*
X60632523Y-37023251D01*
X60550818Y-36906565D01*
X60504357Y-36840211D01*
X60504355Y-36840208D01*
X60501198Y-36835700D01*
X60339300Y-36673802D01*
X60334792Y-36670645D01*
X60334789Y-36670643D01*
X60256611Y-36615902D01*
X60151749Y-36542477D01*
X60146767Y-36540154D01*
X60146762Y-36540151D01*
X59949225Y-36448039D01*
X59949224Y-36448039D01*
X59944243Y-36445716D01*
X59938935Y-36444294D01*
X59938933Y-36444293D01*
X59728402Y-36387881D01*
X59728400Y-36387881D01*
X59723087Y-36386457D01*
X59495000Y-36366502D01*
X59266913Y-36386457D01*
X59261600Y-36387881D01*
X59261598Y-36387881D01*
X59051067Y-36444293D01*
X59051065Y-36444294D01*
X59045757Y-36445716D01*
X59040776Y-36448039D01*
X59040775Y-36448039D01*
X58843238Y-36540151D01*
X58843233Y-36540154D01*
X58838251Y-36542477D01*
X58733389Y-36615902D01*
X58655211Y-36670643D01*
X58655208Y-36670645D01*
X58650700Y-36673802D01*
X58488802Y-36835700D01*
X58485645Y-36840208D01*
X58485643Y-36840211D01*
X58439182Y-36906565D01*
X58357477Y-37023251D01*
X58355154Y-37028233D01*
X58355151Y-37028238D01*
X58339195Y-37062457D01*
X58292278Y-37115742D01*
X58224001Y-37135203D01*
X58156041Y-37114661D01*
X58110805Y-37062457D01*
X58094849Y-37028238D01*
X58094846Y-37028233D01*
X58092523Y-37023251D01*
X58010818Y-36906565D01*
X57964357Y-36840211D01*
X57964355Y-36840208D01*
X57961198Y-36835700D01*
X57799300Y-36673802D01*
X57794792Y-36670645D01*
X57794789Y-36670643D01*
X57716611Y-36615902D01*
X57611749Y-36542477D01*
X57606767Y-36540154D01*
X57606762Y-36540151D01*
X57409225Y-36448039D01*
X57409224Y-36448039D01*
X57404243Y-36445716D01*
X57398935Y-36444294D01*
X57398933Y-36444293D01*
X57188402Y-36387881D01*
X57188400Y-36387881D01*
X57183087Y-36386457D01*
X56955000Y-36366502D01*
X56726913Y-36386457D01*
X56721600Y-36387881D01*
X56721598Y-36387881D01*
X56511067Y-36444293D01*
X56511065Y-36444294D01*
X56505757Y-36445716D01*
X56500776Y-36448039D01*
X56500775Y-36448039D01*
X56303238Y-36540151D01*
X56303233Y-36540154D01*
X56298251Y-36542477D01*
X56193389Y-36615902D01*
X56115211Y-36670643D01*
X56115208Y-36670645D01*
X56110700Y-36673802D01*
X55948802Y-36835700D01*
X55945645Y-36840208D01*
X55945643Y-36840211D01*
X55899182Y-36906565D01*
X55817477Y-37023251D01*
X55815154Y-37028233D01*
X55815151Y-37028238D01*
X55799195Y-37062457D01*
X55752278Y-37115742D01*
X55684001Y-37135203D01*
X55616041Y-37114661D01*
X55570805Y-37062457D01*
X55554849Y-37028238D01*
X55554846Y-37028233D01*
X55552523Y-37023251D01*
X55470818Y-36906565D01*
X55424357Y-36840211D01*
X55424355Y-36840208D01*
X55421198Y-36835700D01*
X55259300Y-36673802D01*
X55254792Y-36670645D01*
X55254789Y-36670643D01*
X55176611Y-36615902D01*
X55071749Y-36542477D01*
X55066767Y-36540154D01*
X55066762Y-36540151D01*
X54869225Y-36448039D01*
X54869224Y-36448039D01*
X54864243Y-36445716D01*
X54858935Y-36444294D01*
X54858933Y-36444293D01*
X54648402Y-36387881D01*
X54648400Y-36387881D01*
X54643087Y-36386457D01*
X54415000Y-36366502D01*
X54186913Y-36386457D01*
X54181600Y-36387881D01*
X54181598Y-36387881D01*
X53971067Y-36444293D01*
X53971065Y-36444294D01*
X53965757Y-36445716D01*
X53960776Y-36448039D01*
X53960775Y-36448039D01*
X53763238Y-36540151D01*
X53763233Y-36540154D01*
X53758251Y-36542477D01*
X53653389Y-36615902D01*
X53575211Y-36670643D01*
X53575208Y-36670645D01*
X53570700Y-36673802D01*
X53408802Y-36835700D01*
X53405645Y-36840208D01*
X53405643Y-36840211D01*
X53359182Y-36906565D01*
X53277477Y-37023251D01*
X53275154Y-37028233D01*
X53275151Y-37028238D01*
X53258919Y-37063049D01*
X53212002Y-37116334D01*
X53143725Y-37135795D01*
X53075765Y-37115253D01*
X53030529Y-37063049D01*
X53014414Y-37028489D01*
X53008931Y-37018993D01*
X52883972Y-36840533D01*
X52876916Y-36832125D01*
X52722875Y-36678084D01*
X52714467Y-36671028D01*
X52536007Y-36546069D01*
X52526511Y-36540586D01*
X52329053Y-36448510D01*
X52318761Y-36444764D01*
X52146497Y-36398606D01*
X52132401Y-36398942D01*
X52129000Y-36406884D01*
X52129000Y-38947967D01*
X52132973Y-38961498D01*
X52141522Y-38962727D01*
X52318761Y-38915236D01*
X52329053Y-38911490D01*
X52526511Y-38819414D01*
X52536007Y-38813931D01*
X52714467Y-38688972D01*
X52722875Y-38681916D01*
X52876916Y-38527875D01*
X52883972Y-38519467D01*
X53008931Y-38341007D01*
X53014414Y-38331511D01*
X53030529Y-38296951D01*
X53077446Y-38243666D01*
X53145723Y-38224205D01*
X53213683Y-38244747D01*
X53258919Y-38296951D01*
X53275151Y-38331762D01*
X53275154Y-38331767D01*
X53277477Y-38336749D01*
X53329548Y-38411114D01*
X53400007Y-38511739D01*
X53408802Y-38524300D01*
X53570700Y-38686198D01*
X53575208Y-38689355D01*
X53575211Y-38689357D01*
X53634451Y-38730837D01*
X53758251Y-38817523D01*
X53763233Y-38819846D01*
X53763238Y-38819849D01*
X53959765Y-38911490D01*
X53965757Y-38914284D01*
X53971065Y-38915706D01*
X53971067Y-38915707D01*
X54181598Y-38972119D01*
X54181600Y-38972119D01*
X54186913Y-38973543D01*
X54415000Y-38993498D01*
X54643087Y-38973543D01*
X54648398Y-38972120D01*
X54648409Y-38972118D01*
X54706541Y-38956541D01*
X54777517Y-38958230D01*
X54828248Y-38989152D01*
X57106343Y-41267247D01*
X57113887Y-41275537D01*
X57118000Y-41282018D01*
X57123777Y-41287443D01*
X57167667Y-41328658D01*
X57170509Y-41331413D01*
X57190230Y-41351134D01*
X57193425Y-41353612D01*
X57202447Y-41361318D01*
X57234679Y-41391586D01*
X57241628Y-41395406D01*
X57252432Y-41401346D01*
X57268956Y-41412199D01*
X57284959Y-41424613D01*
X57325543Y-41442176D01*
X57336173Y-41447383D01*
X57374940Y-41468695D01*
X57382617Y-41470666D01*
X57382622Y-41470668D01*
X57394558Y-41473732D01*
X57413266Y-41480137D01*
X57431855Y-41488181D01*
X57439680Y-41489420D01*
X57439682Y-41489421D01*
X57475519Y-41495097D01*
X57487140Y-41497504D01*
X57518188Y-41505475D01*
X57529970Y-41508500D01*
X57550231Y-41508500D01*
X57569940Y-41510051D01*
X57589943Y-41513219D01*
X57597835Y-41512473D01*
X57603062Y-41511979D01*
X57633954Y-41509059D01*
X57645811Y-41508500D01*
X69300837Y-41508500D01*
X69368958Y-41528502D01*
X69389932Y-41545405D01*
X70761774Y-42917247D01*
X70769318Y-42925537D01*
X70773431Y-42932018D01*
X70779208Y-42937443D01*
X70823098Y-42978658D01*
X70825940Y-42981413D01*
X70845661Y-43001134D01*
X70848856Y-43003612D01*
X70857878Y-43011318D01*
X70890110Y-43041586D01*
X70897059Y-43045406D01*
X70907863Y-43051346D01*
X70924387Y-43062199D01*
X70940390Y-43074613D01*
X70980974Y-43092176D01*
X70991604Y-43097383D01*
X71030371Y-43118695D01*
X71038048Y-43120666D01*
X71038053Y-43120668D01*
X71049989Y-43123732D01*
X71068697Y-43130137D01*
X71087286Y-43138181D01*
X71095111Y-43139420D01*
X71095113Y-43139421D01*
X71130950Y-43145097D01*
X71142571Y-43147504D01*
X71177720Y-43156528D01*
X71185401Y-43158500D01*
X71205662Y-43158500D01*
X71225371Y-43160051D01*
X71245374Y-43163219D01*
X71253266Y-43162473D01*
X71258493Y-43161979D01*
X71289385Y-43159059D01*
X71301242Y-43158500D01*
X77528790Y-43158500D01*
X77596911Y-43178502D01*
X77643404Y-43232158D01*
X77653508Y-43302432D01*
X77624014Y-43367012D01*
X77602852Y-43386435D01*
X77458747Y-43491134D01*
X77454332Y-43496037D01*
X77449420Y-43500460D01*
X77448295Y-43499211D01*
X77394986Y-43532051D01*
X77361800Y-43536500D01*
X63243763Y-43536500D01*
X63232579Y-43535973D01*
X63225091Y-43534299D01*
X63217168Y-43534548D01*
X63157033Y-43536438D01*
X63153075Y-43536500D01*
X63125144Y-43536500D01*
X63121229Y-43536995D01*
X63121225Y-43536995D01*
X63121167Y-43537003D01*
X63121138Y-43537006D01*
X63109296Y-43537939D01*
X63065110Y-43539327D01*
X63047744Y-43544372D01*
X63045658Y-43544978D01*
X63026306Y-43548986D01*
X63019235Y-43549880D01*
X63006203Y-43551526D01*
X62998834Y-43554443D01*
X62998832Y-43554444D01*
X62965097Y-43567800D01*
X62953870Y-43571645D01*
X62951687Y-43572279D01*
X62911407Y-43583982D01*
X62904585Y-43588016D01*
X62904579Y-43588019D01*
X62893968Y-43594294D01*
X62876218Y-43602990D01*
X62864756Y-43607528D01*
X62864751Y-43607531D01*
X62857383Y-43610448D01*
X62839970Y-43623099D01*
X62821625Y-43636427D01*
X62811707Y-43642943D01*
X62793019Y-43653995D01*
X62773637Y-43665458D01*
X62759313Y-43679782D01*
X62744281Y-43692621D01*
X62727893Y-43704528D01*
X62701677Y-43736218D01*
X62699712Y-43738593D01*
X62691722Y-43747373D01*
X62448247Y-43990848D01*
X62385935Y-44024874D01*
X62326542Y-44023460D01*
X62263087Y-44006457D01*
X62035000Y-43986502D01*
X61806913Y-44006457D01*
X61801600Y-44007881D01*
X61801598Y-44007881D01*
X61591067Y-44064293D01*
X61591065Y-44064294D01*
X61585757Y-44065716D01*
X61580776Y-44068039D01*
X61580775Y-44068039D01*
X61383238Y-44160151D01*
X61383233Y-44160154D01*
X61378251Y-44162477D01*
X61336768Y-44191524D01*
X61195211Y-44290643D01*
X61195208Y-44290645D01*
X61190700Y-44293802D01*
X61028802Y-44455700D01*
X61025645Y-44460208D01*
X61025643Y-44460211D01*
X61015572Y-44474594D01*
X60897477Y-44643251D01*
X60895154Y-44648233D01*
X60895151Y-44648238D01*
X60879195Y-44682457D01*
X60832278Y-44735742D01*
X60764001Y-44755203D01*
X60696041Y-44734661D01*
X60650805Y-44682457D01*
X60634849Y-44648238D01*
X60634846Y-44648233D01*
X60632523Y-44643251D01*
X60514428Y-44474594D01*
X60504357Y-44460211D01*
X60504355Y-44460208D01*
X60501198Y-44455700D01*
X60339300Y-44293802D01*
X60334792Y-44290645D01*
X60334789Y-44290643D01*
X60193232Y-44191524D01*
X60151749Y-44162477D01*
X60146767Y-44160154D01*
X60146762Y-44160151D01*
X59949225Y-44068039D01*
X59949224Y-44068039D01*
X59944243Y-44065716D01*
X59938935Y-44064294D01*
X59938933Y-44064293D01*
X59728402Y-44007881D01*
X59728400Y-44007881D01*
X59723087Y-44006457D01*
X59495000Y-43986502D01*
X59266913Y-44006457D01*
X59261600Y-44007881D01*
X59261598Y-44007881D01*
X59051067Y-44064293D01*
X59051065Y-44064294D01*
X59045757Y-44065716D01*
X59040776Y-44068039D01*
X59040775Y-44068039D01*
X58843238Y-44160151D01*
X58843233Y-44160154D01*
X58838251Y-44162477D01*
X58796768Y-44191524D01*
X58655211Y-44290643D01*
X58655208Y-44290645D01*
X58650700Y-44293802D01*
X58488802Y-44455700D01*
X58485645Y-44460208D01*
X58485643Y-44460211D01*
X58475572Y-44474594D01*
X58357477Y-44643251D01*
X58355154Y-44648233D01*
X58355151Y-44648238D01*
X58339195Y-44682457D01*
X58292278Y-44735742D01*
X58224001Y-44755203D01*
X58156041Y-44734661D01*
X58110805Y-44682457D01*
X58094849Y-44648238D01*
X58094846Y-44648233D01*
X58092523Y-44643251D01*
X57974428Y-44474594D01*
X57964357Y-44460211D01*
X57964355Y-44460208D01*
X57961198Y-44455700D01*
X57799300Y-44293802D01*
X57794792Y-44290645D01*
X57794789Y-44290643D01*
X57653232Y-44191524D01*
X57611749Y-44162477D01*
X57606767Y-44160154D01*
X57606762Y-44160151D01*
X57409225Y-44068039D01*
X57409224Y-44068039D01*
X57404243Y-44065716D01*
X57398935Y-44064294D01*
X57398933Y-44064293D01*
X57188402Y-44007881D01*
X57188400Y-44007881D01*
X57183087Y-44006457D01*
X56955000Y-43986502D01*
X56726913Y-44006457D01*
X56721600Y-44007881D01*
X56721598Y-44007881D01*
X56511067Y-44064293D01*
X56511065Y-44064294D01*
X56505757Y-44065716D01*
X56500776Y-44068039D01*
X56500775Y-44068039D01*
X56303238Y-44160151D01*
X56303233Y-44160154D01*
X56298251Y-44162477D01*
X56256768Y-44191524D01*
X56115211Y-44290643D01*
X56115208Y-44290645D01*
X56110700Y-44293802D01*
X55948802Y-44455700D01*
X55945645Y-44460208D01*
X55945643Y-44460211D01*
X55935572Y-44474594D01*
X55817477Y-44643251D01*
X55815154Y-44648233D01*
X55815151Y-44648238D01*
X55799195Y-44682457D01*
X55752278Y-44735742D01*
X55684001Y-44755203D01*
X55616041Y-44734661D01*
X55570805Y-44682457D01*
X55554849Y-44648238D01*
X55554846Y-44648233D01*
X55552523Y-44643251D01*
X55434428Y-44474594D01*
X55424357Y-44460211D01*
X55424355Y-44460208D01*
X55421198Y-44455700D01*
X55259300Y-44293802D01*
X55254792Y-44290645D01*
X55254789Y-44290643D01*
X55113232Y-44191524D01*
X55071749Y-44162477D01*
X55066767Y-44160154D01*
X55066762Y-44160151D01*
X54869225Y-44068039D01*
X54869224Y-44068039D01*
X54864243Y-44065716D01*
X54858935Y-44064294D01*
X54858933Y-44064293D01*
X54648402Y-44007881D01*
X54648400Y-44007881D01*
X54643087Y-44006457D01*
X54415000Y-43986502D01*
X54186913Y-44006457D01*
X54181600Y-44007881D01*
X54181598Y-44007881D01*
X53971067Y-44064293D01*
X53971065Y-44064294D01*
X53965757Y-44065716D01*
X53960776Y-44068039D01*
X53960775Y-44068039D01*
X53763238Y-44160151D01*
X53763233Y-44160154D01*
X53758251Y-44162477D01*
X53716768Y-44191524D01*
X53575211Y-44290643D01*
X53575208Y-44290645D01*
X53570700Y-44293802D01*
X53408802Y-44455700D01*
X53405643Y-44460211D01*
X53402108Y-44464424D01*
X53400974Y-44463473D01*
X53350929Y-44503471D01*
X53280310Y-44510776D01*
X53216951Y-44478742D01*
X53180970Y-44417538D01*
X53177918Y-44400483D01*
X53176745Y-44389684D01*
X53125615Y-44253295D01*
X53038261Y-44136739D01*
X52921705Y-44049385D01*
X52785316Y-43998255D01*
X52723134Y-43991500D01*
X51026866Y-43991500D01*
X50964684Y-43998255D01*
X50828295Y-44049385D01*
X50711739Y-44136739D01*
X50624385Y-44253295D01*
X50573255Y-44389684D01*
X50566500Y-44451866D01*
X50566500Y-46148134D01*
X50573255Y-46210316D01*
X50624385Y-46346705D01*
X50711739Y-46463261D01*
X50828295Y-46550615D01*
X50964684Y-46601745D01*
X51026866Y-46608500D01*
X52235406Y-46608500D01*
X52303527Y-46628502D01*
X52324501Y-46645405D01*
X54627958Y-48948862D01*
X55410348Y-49731253D01*
X55417888Y-49739539D01*
X55422000Y-49746018D01*
X55427777Y-49751443D01*
X55471651Y-49792643D01*
X55474493Y-49795398D01*
X55494230Y-49815135D01*
X55497427Y-49817615D01*
X55506447Y-49825318D01*
X55538679Y-49855586D01*
X55545625Y-49859405D01*
X55545628Y-49859407D01*
X55556434Y-49865348D01*
X55572953Y-49876199D01*
X55588959Y-49888614D01*
X55596228Y-49891759D01*
X55596232Y-49891762D01*
X55629537Y-49906174D01*
X55640187Y-49911391D01*
X55678940Y-49932695D01*
X55686615Y-49934666D01*
X55686616Y-49934666D01*
X55698562Y-49937733D01*
X55717266Y-49944137D01*
X55726115Y-49947966D01*
X55735855Y-49952181D01*
X55743678Y-49953420D01*
X55743688Y-49953423D01*
X55779524Y-49959099D01*
X55791144Y-49961505D01*
X55826289Y-49970528D01*
X55833970Y-49972500D01*
X55854224Y-49972500D01*
X55873934Y-49974051D01*
X55893943Y-49977220D01*
X55901835Y-49976474D01*
X55937961Y-49973059D01*
X55949819Y-49972500D01*
X75506500Y-49972500D01*
X75574621Y-49992502D01*
X75593847Y-50008843D01*
X75594120Y-50008540D01*
X75599032Y-50012963D01*
X75603447Y-50017866D01*
X75757948Y-50130118D01*
X75763976Y-50132802D01*
X75763978Y-50132803D01*
X75869727Y-50179885D01*
X75932412Y-50207794D01*
X76025813Y-50227647D01*
X76112756Y-50246128D01*
X76112761Y-50246128D01*
X76119213Y-50247500D01*
X76310187Y-50247500D01*
X76316639Y-50246128D01*
X76316644Y-50246128D01*
X76403587Y-50227647D01*
X76496988Y-50207794D01*
X76559673Y-50179885D01*
X76665422Y-50132803D01*
X76665424Y-50132802D01*
X76671452Y-50130118D01*
X76825953Y-50017866D01*
X76862795Y-49976949D01*
X76949321Y-49880852D01*
X76949322Y-49880851D01*
X76953740Y-49875944D01*
X77019518Y-49762014D01*
X77045923Y-49716279D01*
X77045924Y-49716278D01*
X77049227Y-49710556D01*
X77108242Y-49528928D01*
X77109421Y-49517716D01*
X77127514Y-49345565D01*
X77128204Y-49339000D01*
X78587496Y-49339000D01*
X78588186Y-49345565D01*
X78606280Y-49517716D01*
X78607458Y-49528928D01*
X78666473Y-49710556D01*
X78669776Y-49716278D01*
X78669777Y-49716279D01*
X78696182Y-49762014D01*
X78761960Y-49875944D01*
X78766378Y-49880851D01*
X78766379Y-49880852D01*
X78852905Y-49976949D01*
X78889747Y-50017866D01*
X79044248Y-50130118D01*
X79050276Y-50132802D01*
X79050278Y-50132803D01*
X79156027Y-50179885D01*
X79218712Y-50207794D01*
X79312113Y-50227647D01*
X79399056Y-50246128D01*
X79399061Y-50246128D01*
X79405513Y-50247500D01*
X79596487Y-50247500D01*
X79602939Y-50246128D01*
X79602944Y-50246128D01*
X79689887Y-50227647D01*
X79783288Y-50207794D01*
X79845973Y-50179885D01*
X79951722Y-50132803D01*
X79951724Y-50132802D01*
X79957752Y-50130118D01*
X80112253Y-50017866D01*
X80116668Y-50012963D01*
X80121580Y-50008540D01*
X80122705Y-50009789D01*
X80176014Y-49976949D01*
X80209200Y-49972500D01*
X80390500Y-49972500D01*
X80458621Y-49992502D01*
X80505114Y-50046158D01*
X80516500Y-50098500D01*
X80516500Y-51541233D01*
X80515973Y-51552416D01*
X80514298Y-51559909D01*
X80514547Y-51567835D01*
X80514547Y-51567836D01*
X80516438Y-51627986D01*
X80516500Y-51631945D01*
X80516500Y-51659856D01*
X80516997Y-51663790D01*
X80516997Y-51663791D01*
X80517005Y-51663856D01*
X80517938Y-51675693D01*
X80519327Y-51719889D01*
X80524978Y-51739339D01*
X80528987Y-51758700D01*
X80531526Y-51778797D01*
X80534445Y-51786168D01*
X80534445Y-51786170D01*
X80547804Y-51819912D01*
X80551649Y-51831142D01*
X80561407Y-51864729D01*
X80563982Y-51873593D01*
X80568015Y-51880412D01*
X80568017Y-51880417D01*
X80574293Y-51891028D01*
X80582988Y-51908776D01*
X80590448Y-51927617D01*
X80595110Y-51934033D01*
X80595110Y-51934034D01*
X80616436Y-51963387D01*
X80622952Y-51973307D01*
X80645458Y-52011362D01*
X80659779Y-52025683D01*
X80672619Y-52040716D01*
X80684528Y-52057107D01*
X80690634Y-52062158D01*
X80718605Y-52085298D01*
X80727384Y-52093288D01*
X81256343Y-52622247D01*
X81263887Y-52630537D01*
X81268000Y-52637018D01*
X81273777Y-52642443D01*
X81317667Y-52683658D01*
X81320509Y-52686413D01*
X81340230Y-52706134D01*
X81343425Y-52708612D01*
X81352447Y-52716318D01*
X81384679Y-52746586D01*
X81391628Y-52750406D01*
X81402432Y-52756346D01*
X81418956Y-52767199D01*
X81434959Y-52779613D01*
X81475543Y-52797176D01*
X81486173Y-52802383D01*
X81524940Y-52823695D01*
X81532617Y-52825666D01*
X81532622Y-52825668D01*
X81544558Y-52828732D01*
X81563266Y-52835137D01*
X81581855Y-52843181D01*
X81589683Y-52844421D01*
X81589690Y-52844423D01*
X81625524Y-52850099D01*
X81637144Y-52852505D01*
X81672289Y-52861528D01*
X81679970Y-52863500D01*
X81700224Y-52863500D01*
X81719934Y-52865051D01*
X81739943Y-52868220D01*
X81747835Y-52867474D01*
X81783961Y-52864059D01*
X81795819Y-52863500D01*
X82471800Y-52863500D01*
X82539921Y-52883502D01*
X82559147Y-52899843D01*
X82559420Y-52899540D01*
X82564332Y-52903963D01*
X82568747Y-52908866D01*
X82590329Y-52924546D01*
X82613009Y-52941024D01*
X82723248Y-53021118D01*
X82729276Y-53023802D01*
X82729278Y-53023803D01*
X82833257Y-53070097D01*
X82897712Y-53098794D01*
X82991112Y-53118647D01*
X83078056Y-53137128D01*
X83078061Y-53137128D01*
X83084513Y-53138500D01*
X83275487Y-53138500D01*
X83281939Y-53137128D01*
X83281944Y-53137128D01*
X83368888Y-53118647D01*
X83462288Y-53098794D01*
X83526743Y-53070097D01*
X83630722Y-53023803D01*
X83630724Y-53023802D01*
X83636752Y-53021118D01*
X83791253Y-52908866D01*
X83814436Y-52883119D01*
X83914621Y-52771852D01*
X83914622Y-52771851D01*
X83919040Y-52766944D01*
X83994053Y-52637018D01*
X84011223Y-52607279D01*
X84011224Y-52607278D01*
X84014527Y-52601556D01*
X84073542Y-52419928D01*
X84082395Y-52335702D01*
X84092814Y-52236565D01*
X84093504Y-52230000D01*
X84088097Y-52178556D01*
X84074232Y-52046635D01*
X84074232Y-52046633D01*
X84073542Y-52040072D01*
X84014527Y-51858444D01*
X84008843Y-51848598D01*
X83974955Y-51789904D01*
X83919040Y-51693056D01*
X83909689Y-51682670D01*
X84282160Y-51682670D01*
X84287887Y-51690320D01*
X84459042Y-51795205D01*
X84467837Y-51799687D01*
X84677988Y-51886734D01*
X84687373Y-51889783D01*
X84908554Y-51942885D01*
X84918301Y-51944428D01*
X85145070Y-51962275D01*
X85154930Y-51962275D01*
X85381699Y-51944428D01*
X85391446Y-51942885D01*
X85612627Y-51889783D01*
X85622012Y-51886734D01*
X85832163Y-51799687D01*
X85840958Y-51795205D01*
X86008445Y-51692568D01*
X86017907Y-51682110D01*
X86014124Y-51673334D01*
X85162812Y-50822022D01*
X85148868Y-50814408D01*
X85147035Y-50814539D01*
X85140420Y-50818790D01*
X84288920Y-51670290D01*
X84282160Y-51682670D01*
X83909689Y-51682670D01*
X83795675Y-51556045D01*
X83795674Y-51556044D01*
X83791253Y-51551134D01*
X83644475Y-51444493D01*
X83642094Y-51442763D01*
X83642093Y-51442762D01*
X83636752Y-51438882D01*
X83630724Y-51436198D01*
X83630722Y-51436197D01*
X83468319Y-51363891D01*
X83468318Y-51363891D01*
X83462288Y-51361206D01*
X83359775Y-51339416D01*
X83281944Y-51322872D01*
X83281939Y-51322872D01*
X83275487Y-51321500D01*
X83084513Y-51321500D01*
X83078061Y-51322872D01*
X83078056Y-51322872D01*
X83000225Y-51339416D01*
X82897712Y-51361206D01*
X82891682Y-51363891D01*
X82891681Y-51363891D01*
X82729278Y-51436197D01*
X82729276Y-51436198D01*
X82723248Y-51438882D01*
X82717907Y-51442762D01*
X82717906Y-51442763D01*
X82715525Y-51444493D01*
X82568747Y-51551134D01*
X82564332Y-51556037D01*
X82559420Y-51560460D01*
X82558295Y-51559211D01*
X82504986Y-51592051D01*
X82471800Y-51596500D01*
X82074595Y-51596500D01*
X82006474Y-51576498D01*
X81985500Y-51559595D01*
X81820405Y-51394500D01*
X81786379Y-51332188D01*
X81783500Y-51305405D01*
X81783500Y-49848767D01*
X81784027Y-49837584D01*
X81785702Y-49830091D01*
X81784612Y-49795398D01*
X81783562Y-49762014D01*
X81783500Y-49758055D01*
X81783500Y-49730144D01*
X81782995Y-49726144D01*
X81782062Y-49714301D01*
X81781945Y-49710556D01*
X81780673Y-49670111D01*
X81775021Y-49650657D01*
X81771013Y-49631300D01*
X81769468Y-49619070D01*
X81769468Y-49619069D01*
X81768474Y-49611203D01*
X81763638Y-49598988D01*
X81752196Y-49570088D01*
X81748351Y-49558858D01*
X81738229Y-49524017D01*
X81738229Y-49524016D01*
X81736018Y-49516407D01*
X81731985Y-49509588D01*
X81731983Y-49509583D01*
X81725707Y-49498972D01*
X81717012Y-49481224D01*
X81709552Y-49462383D01*
X81704732Y-49455748D01*
X81683564Y-49426613D01*
X81677048Y-49416693D01*
X81668477Y-49402201D01*
X81654542Y-49378638D01*
X81648936Y-49373031D01*
X81640220Y-49364315D01*
X81627379Y-49349281D01*
X81620131Y-49339305D01*
X81620130Y-49339304D01*
X81615472Y-49332893D01*
X81581407Y-49304712D01*
X81572626Y-49296722D01*
X81222646Y-48946741D01*
X81215113Y-48938463D01*
X81211000Y-48931982D01*
X81200064Y-48921712D01*
X81161365Y-48885373D01*
X81158519Y-48882615D01*
X81142639Y-48866734D01*
X81108616Y-48804420D01*
X81109754Y-48788517D01*
X81097842Y-48793685D01*
X81032251Y-48784284D01*
X81003461Y-48771825D01*
X80992813Y-48766609D01*
X80954060Y-48745305D01*
X80934437Y-48740267D01*
X80915734Y-48733863D01*
X80904420Y-48728967D01*
X80904419Y-48728967D01*
X80897145Y-48725819D01*
X80889322Y-48724580D01*
X80889312Y-48724577D01*
X80853476Y-48718901D01*
X80841856Y-48716495D01*
X80806711Y-48707472D01*
X80806710Y-48707472D01*
X80799030Y-48705500D01*
X80778776Y-48705500D01*
X80759065Y-48703949D01*
X80746886Y-48702020D01*
X80739057Y-48700780D01*
X80731165Y-48701526D01*
X80695039Y-48704941D01*
X80683181Y-48705500D01*
X80209200Y-48705500D01*
X80141079Y-48685498D01*
X80121853Y-48669157D01*
X80121580Y-48669460D01*
X80116668Y-48665037D01*
X80112253Y-48660134D01*
X80058526Y-48621099D01*
X79963094Y-48551763D01*
X79963093Y-48551762D01*
X79957752Y-48547882D01*
X79951724Y-48545198D01*
X79951722Y-48545197D01*
X79789319Y-48472891D01*
X79789318Y-48472891D01*
X79783288Y-48470206D01*
X79689888Y-48450353D01*
X79602944Y-48431872D01*
X79602939Y-48431872D01*
X79596487Y-48430500D01*
X79405513Y-48430500D01*
X79399061Y-48431872D01*
X79399056Y-48431872D01*
X79312113Y-48450353D01*
X79218712Y-48470206D01*
X79212682Y-48472891D01*
X79212681Y-48472891D01*
X79050278Y-48545197D01*
X79050276Y-48545198D01*
X79044248Y-48547882D01*
X79038907Y-48551762D01*
X79038906Y-48551763D01*
X79026483Y-48560789D01*
X78889747Y-48660134D01*
X78885326Y-48665044D01*
X78885325Y-48665045D01*
X78774151Y-48788517D01*
X78761960Y-48802056D01*
X78730385Y-48856745D01*
X78671826Y-48958173D01*
X78666473Y-48967444D01*
X78607458Y-49149072D01*
X78606768Y-49155633D01*
X78606768Y-49155635D01*
X78592542Y-49290988D01*
X78587496Y-49339000D01*
X77128204Y-49339000D01*
X77123158Y-49290988D01*
X77108932Y-49155635D01*
X77108932Y-49155633D01*
X77108242Y-49149072D01*
X77049227Y-48967444D01*
X77043875Y-48958173D01*
X76985315Y-48856745D01*
X76953740Y-48802056D01*
X76941550Y-48788517D01*
X76830375Y-48665045D01*
X76830374Y-48665044D01*
X76825953Y-48660134D01*
X76689217Y-48560789D01*
X76676794Y-48551763D01*
X76676793Y-48551762D01*
X76671452Y-48547882D01*
X76665424Y-48545198D01*
X76665422Y-48545197D01*
X76503019Y-48472891D01*
X76503018Y-48472891D01*
X76496988Y-48470206D01*
X76403588Y-48450353D01*
X76316644Y-48431872D01*
X76316639Y-48431872D01*
X76310187Y-48430500D01*
X76278292Y-48430500D01*
X76210171Y-48410498D01*
X76163678Y-48356842D01*
X76158459Y-48343436D01*
X76127849Y-48249229D01*
X76125807Y-48242944D01*
X76030320Y-48077556D01*
X75982257Y-48024176D01*
X75906955Y-47940545D01*
X75906954Y-47940544D01*
X75902533Y-47935634D01*
X75748032Y-47823382D01*
X75742004Y-47820698D01*
X75742002Y-47820697D01*
X75579599Y-47748391D01*
X75579598Y-47748391D01*
X75573568Y-47745706D01*
X75480168Y-47725853D01*
X75393224Y-47707372D01*
X75393219Y-47707372D01*
X75386767Y-47706000D01*
X75367012Y-47706000D01*
X75298891Y-47685998D01*
X75252398Y-47632342D01*
X75247179Y-47618936D01*
X75245440Y-47613584D01*
X75214527Y-47518444D01*
X75196352Y-47486963D01*
X75140625Y-47390443D01*
X75119040Y-47353056D01*
X75062200Y-47289928D01*
X74995675Y-47216045D01*
X74995674Y-47216044D01*
X74991253Y-47211134D01*
X74868824Y-47122184D01*
X74842094Y-47102763D01*
X74842093Y-47102762D01*
X74836752Y-47098882D01*
X74830724Y-47096198D01*
X74830722Y-47096197D01*
X74668319Y-47023891D01*
X74668318Y-47023891D01*
X74662288Y-47021206D01*
X74568888Y-47001353D01*
X74481944Y-46982872D01*
X74481939Y-46982872D01*
X74475487Y-46981500D01*
X74284513Y-46981500D01*
X74278061Y-46982872D01*
X74278056Y-46982872D01*
X74191112Y-47001353D01*
X74097712Y-47021206D01*
X74091682Y-47023891D01*
X74091681Y-47023891D01*
X73929278Y-47096197D01*
X73929276Y-47096198D01*
X73923248Y-47098882D01*
X73917907Y-47102762D01*
X73917906Y-47102763D01*
X73800415Y-47188126D01*
X73768747Y-47211134D01*
X73764326Y-47216044D01*
X73764325Y-47216045D01*
X73760676Y-47220097D01*
X73700229Y-47257335D01*
X73667042Y-47261784D01*
X68736572Y-47261784D01*
X68668451Y-47241782D01*
X68621958Y-47188126D01*
X68611262Y-47148954D01*
X68608449Y-47122184D01*
X68598118Y-47023891D01*
X68594232Y-46986919D01*
X68594232Y-46986917D01*
X68593542Y-46980356D01*
X68534527Y-46798728D01*
X68439040Y-46633340D01*
X68401925Y-46592119D01*
X68315675Y-46496329D01*
X68315674Y-46496328D01*
X68311253Y-46491418D01*
X68156752Y-46379166D01*
X68150722Y-46376481D01*
X68150718Y-46376479D01*
X68137124Y-46370427D01*
X68083027Y-46324449D01*
X68062375Y-46256522D01*
X68081725Y-46188214D01*
X68099274Y-46166224D01*
X68121198Y-46144300D01*
X68252523Y-45956749D01*
X68254846Y-45951767D01*
X68254849Y-45951762D01*
X68346961Y-45754225D01*
X68346961Y-45754224D01*
X68349284Y-45749243D01*
X68353426Y-45733787D01*
X68407119Y-45533402D01*
X68407119Y-45533400D01*
X68408543Y-45528087D01*
X68428498Y-45300000D01*
X68408543Y-45071913D01*
X68407120Y-45066602D01*
X68407118Y-45066591D01*
X68379122Y-44962112D01*
X68380811Y-44891135D01*
X68420605Y-44832339D01*
X68485869Y-44804391D01*
X68500828Y-44803500D01*
X70436940Y-44803500D01*
X70505061Y-44823502D01*
X70551554Y-44877158D01*
X70561658Y-44947432D01*
X70553541Y-44974677D01*
X70554250Y-44974935D01*
X70552367Y-44980108D01*
X70550044Y-44985090D01*
X70548622Y-44990398D01*
X70548621Y-44990400D01*
X70496889Y-45183467D01*
X70495314Y-45189345D01*
X70476884Y-45400000D01*
X70495314Y-45610655D01*
X70496738Y-45615968D01*
X70496738Y-45615970D01*
X70545292Y-45797174D01*
X70550044Y-45814910D01*
X70552366Y-45819891D01*
X70552367Y-45819892D01*
X70618287Y-45961257D01*
X70639411Y-46006558D01*
X70760699Y-46179776D01*
X70910224Y-46329301D01*
X71083442Y-46450589D01*
X71088420Y-46452910D01*
X71088423Y-46452912D01*
X71258118Y-46532042D01*
X71275090Y-46539956D01*
X71280398Y-46541378D01*
X71280400Y-46541379D01*
X71474030Y-46593262D01*
X71474032Y-46593262D01*
X71479345Y-46594686D01*
X71690000Y-46613116D01*
X71900655Y-46594686D01*
X71905968Y-46593262D01*
X71905970Y-46593262D01*
X72099600Y-46541379D01*
X72099602Y-46541378D01*
X72104910Y-46539956D01*
X72121882Y-46532042D01*
X72291577Y-46452912D01*
X72291580Y-46452910D01*
X72296558Y-46450589D01*
X72469776Y-46329301D01*
X72619301Y-46179776D01*
X72740589Y-46006558D01*
X72761714Y-45961257D01*
X72827633Y-45819892D01*
X72827634Y-45819891D01*
X72829956Y-45814910D01*
X72834709Y-45797174D01*
X72883262Y-45615970D01*
X72883262Y-45615968D01*
X72884686Y-45610655D01*
X72903116Y-45400000D01*
X72884686Y-45189345D01*
X72883111Y-45183467D01*
X72831379Y-44990400D01*
X72831378Y-44990398D01*
X72829956Y-44985090D01*
X72827633Y-44980108D01*
X72825750Y-44974935D01*
X72827576Y-44974271D01*
X72818205Y-44912551D01*
X72847189Y-44847740D01*
X72906610Y-44808887D01*
X72943060Y-44803500D01*
X77361800Y-44803500D01*
X77429921Y-44823502D01*
X77449147Y-44839843D01*
X77449420Y-44839540D01*
X77454332Y-44843963D01*
X77458747Y-44848866D01*
X77464086Y-44852745D01*
X77588910Y-44943435D01*
X77613248Y-44961118D01*
X77619276Y-44963802D01*
X77619278Y-44963803D01*
X77781681Y-45036109D01*
X77787712Y-45038794D01*
X77881113Y-45058647D01*
X77968056Y-45077128D01*
X77968061Y-45077128D01*
X77974513Y-45078500D01*
X77987506Y-45078500D01*
X78055627Y-45098502D01*
X78102120Y-45152158D01*
X78113027Y-45215481D01*
X78099951Y-45364943D01*
X78096884Y-45400000D01*
X78115314Y-45610655D01*
X78116738Y-45615968D01*
X78116738Y-45615970D01*
X78165292Y-45797174D01*
X78170044Y-45814910D01*
X78172366Y-45819891D01*
X78172367Y-45819892D01*
X78238287Y-45961257D01*
X78259411Y-46006558D01*
X78380699Y-46179776D01*
X78530224Y-46329301D01*
X78703442Y-46450589D01*
X78708420Y-46452910D01*
X78708423Y-46452912D01*
X78878118Y-46532042D01*
X78895090Y-46539956D01*
X78900398Y-46541378D01*
X78900400Y-46541379D01*
X79094030Y-46593262D01*
X79094032Y-46593262D01*
X79099345Y-46594686D01*
X79310000Y-46613116D01*
X79520655Y-46594686D01*
X79525968Y-46593262D01*
X79525970Y-46593262D01*
X79719600Y-46541379D01*
X79719602Y-46541378D01*
X79724910Y-46539956D01*
X79741882Y-46532042D01*
X79911577Y-46452912D01*
X79911580Y-46452910D01*
X79916558Y-46450589D01*
X80089776Y-46329301D01*
X80239301Y-46179776D01*
X80360589Y-46006558D01*
X80381714Y-45961257D01*
X80447633Y-45819892D01*
X80447634Y-45819891D01*
X80449956Y-45814910D01*
X80454709Y-45797174D01*
X80503262Y-45615970D01*
X80503262Y-45615968D01*
X80504686Y-45610655D01*
X80523116Y-45400000D01*
X80504686Y-45189345D01*
X80503111Y-45183467D01*
X80451379Y-44990400D01*
X80451378Y-44990398D01*
X80449956Y-44985090D01*
X80427871Y-44937729D01*
X80362912Y-44798423D01*
X80362910Y-44798420D01*
X80360589Y-44793442D01*
X80239301Y-44620224D01*
X80089776Y-44470699D01*
X79916558Y-44349411D01*
X79911580Y-44347090D01*
X79911577Y-44347088D01*
X79729892Y-44262367D01*
X79729891Y-44262366D01*
X79724910Y-44260044D01*
X79719602Y-44258622D01*
X79719600Y-44258621D01*
X79525970Y-44206738D01*
X79525968Y-44206738D01*
X79520655Y-44205314D01*
X79310000Y-44186884D01*
X79111587Y-44204243D01*
X79041982Y-44190254D01*
X78990989Y-44140854D01*
X78975295Y-44091893D01*
X78964232Y-43986635D01*
X78964232Y-43986633D01*
X78963542Y-43980072D01*
X78904527Y-43798444D01*
X78809040Y-43633056D01*
X78794246Y-43616625D01*
X78685675Y-43496045D01*
X78685674Y-43496044D01*
X78681253Y-43491134D01*
X78675864Y-43487218D01*
X78537149Y-43386436D01*
X78493795Y-43330214D01*
X78487720Y-43259477D01*
X78520852Y-43196686D01*
X78582672Y-43161774D01*
X78611210Y-43158500D01*
X80790500Y-43158500D01*
X80858621Y-43178502D01*
X80905114Y-43232158D01*
X80916500Y-43284500D01*
X80916500Y-45327045D01*
X80915973Y-45338228D01*
X80914298Y-45345721D01*
X80914547Y-45353647D01*
X80914547Y-45353648D01*
X80916438Y-45413811D01*
X80916500Y-45417769D01*
X80916500Y-45445668D01*
X80916997Y-45449601D01*
X80917004Y-45449658D01*
X80917936Y-45461492D01*
X80919326Y-45505701D01*
X80921538Y-45513315D01*
X80921539Y-45513320D01*
X80924977Y-45525153D01*
X80928988Y-45544516D01*
X80931526Y-45564609D01*
X80934443Y-45571976D01*
X80934444Y-45571981D01*
X80947802Y-45605720D01*
X80951646Y-45616947D01*
X80963982Y-45659405D01*
X80968019Y-45666231D01*
X80974293Y-45676840D01*
X80982988Y-45694588D01*
X80990448Y-45713429D01*
X80995110Y-45719845D01*
X80995110Y-45719846D01*
X81016436Y-45749199D01*
X81022952Y-45759119D01*
X81037566Y-45783829D01*
X81045458Y-45797174D01*
X81059779Y-45811495D01*
X81072619Y-45826528D01*
X81084528Y-45842919D01*
X81090634Y-45847970D01*
X81118605Y-45871110D01*
X81127384Y-45879100D01*
X82027339Y-46779055D01*
X82061365Y-46841367D01*
X82056300Y-46912182D01*
X82013753Y-46969018D01*
X81947233Y-46993829D01*
X81912046Y-46991396D01*
X81871951Y-46982873D01*
X81871942Y-46982872D01*
X81865487Y-46981500D01*
X81674513Y-46981500D01*
X81668061Y-46982872D01*
X81668056Y-46982872D01*
X81581112Y-47001353D01*
X81487712Y-47021206D01*
X81481682Y-47023891D01*
X81481681Y-47023891D01*
X81319278Y-47096197D01*
X81319276Y-47096198D01*
X81313248Y-47098882D01*
X81307907Y-47102762D01*
X81307906Y-47102763D01*
X81281176Y-47122184D01*
X81158747Y-47211134D01*
X81154326Y-47216044D01*
X81154325Y-47216045D01*
X81087801Y-47289928D01*
X81030960Y-47353056D01*
X81009375Y-47390443D01*
X80953649Y-47486963D01*
X80935473Y-47518444D01*
X80876458Y-47700072D01*
X80875768Y-47706633D01*
X80875768Y-47706635D01*
X80867128Y-47788841D01*
X80856496Y-47890000D01*
X80857186Y-47896565D01*
X80862182Y-47944095D01*
X80876458Y-48079928D01*
X80935473Y-48261556D01*
X80938776Y-48267278D01*
X80938777Y-48267279D01*
X80970109Y-48321547D01*
X81030960Y-48426944D01*
X81035378Y-48431851D01*
X81035379Y-48431852D01*
X81068678Y-48468834D01*
X81158747Y-48568866D01*
X81164086Y-48572745D01*
X81166607Y-48575015D01*
X81203844Y-48635463D01*
X81203392Y-48659182D01*
X81222752Y-48651962D01*
X81292126Y-48667055D01*
X81305800Y-48675707D01*
X81307904Y-48677236D01*
X81307906Y-48677237D01*
X81313248Y-48681118D01*
X81319276Y-48683802D01*
X81319278Y-48683803D01*
X81446099Y-48740267D01*
X81487712Y-48758794D01*
X81574126Y-48777162D01*
X81668056Y-48797128D01*
X81668061Y-48797128D01*
X81674513Y-48798500D01*
X81865487Y-48798500D01*
X81871939Y-48797128D01*
X81871944Y-48797128D01*
X81965874Y-48777162D01*
X82052288Y-48758794D01*
X82093901Y-48740267D01*
X82220722Y-48683803D01*
X82220724Y-48683802D01*
X82226752Y-48681118D01*
X82243989Y-48668595D01*
X82375914Y-48572745D01*
X82381253Y-48568866D01*
X82385668Y-48563963D01*
X82390580Y-48559540D01*
X82391705Y-48560789D01*
X82445014Y-48527949D01*
X82478200Y-48523500D01*
X83083196Y-48523500D01*
X83151317Y-48543502D01*
X83172292Y-48560405D01*
X83731644Y-49119758D01*
X83739178Y-49128037D01*
X83743291Y-49134518D01*
X83783970Y-49172718D01*
X83792942Y-49181143D01*
X83795784Y-49183898D01*
X83815521Y-49203635D01*
X83818718Y-49206115D01*
X83827738Y-49213818D01*
X83859970Y-49244086D01*
X83866916Y-49247905D01*
X83866919Y-49247907D01*
X83877725Y-49253848D01*
X83894244Y-49264699D01*
X83910250Y-49277114D01*
X83942315Y-49290990D01*
X83996887Y-49336399D01*
X84018248Y-49404106D01*
X83999612Y-49472613D01*
X83988084Y-49488456D01*
X83929448Y-49557110D01*
X83923643Y-49565101D01*
X83804795Y-49759042D01*
X83800313Y-49767837D01*
X83713266Y-49977988D01*
X83710217Y-49987373D01*
X83657115Y-50208554D01*
X83655572Y-50218301D01*
X83637725Y-50445070D01*
X83637725Y-50454930D01*
X83655572Y-50681699D01*
X83657115Y-50691446D01*
X83710217Y-50912627D01*
X83713266Y-50922012D01*
X83800313Y-51132163D01*
X83804795Y-51140958D01*
X83907432Y-51308445D01*
X83917890Y-51317907D01*
X83926666Y-51314124D01*
X85060905Y-50179885D01*
X85123217Y-50145859D01*
X85194032Y-50150924D01*
X85239095Y-50179885D01*
X86370290Y-51311080D01*
X86382670Y-51317840D01*
X86390320Y-51312113D01*
X86495205Y-51140958D01*
X86499687Y-51132163D01*
X86586734Y-50922012D01*
X86589783Y-50912627D01*
X86642885Y-50691446D01*
X86644428Y-50681699D01*
X86662275Y-50454930D01*
X86662275Y-50445070D01*
X86644428Y-50218301D01*
X86642885Y-50208554D01*
X86589783Y-49987373D01*
X86586734Y-49977988D01*
X86499687Y-49767837D01*
X86495205Y-49759042D01*
X86376357Y-49565101D01*
X86373420Y-49561058D01*
X86349563Y-49494190D01*
X86365646Y-49425039D01*
X86416561Y-49375560D01*
X86475358Y-49361000D01*
X88324021Y-49361000D01*
X88392142Y-49381002D01*
X88438635Y-49434658D01*
X88448739Y-49504932D01*
X88426446Y-49559855D01*
X88425824Y-49560584D01*
X88423243Y-49564796D01*
X88423240Y-49564800D01*
X88312189Y-49746018D01*
X88301760Y-49763037D01*
X88299867Y-49767607D01*
X88299865Y-49767611D01*
X88214356Y-49974051D01*
X88210895Y-49982406D01*
X88200365Y-50026268D01*
X88157429Y-50205109D01*
X88155465Y-50213289D01*
X88136835Y-50450000D01*
X88155465Y-50686711D01*
X88156619Y-50691518D01*
X88156620Y-50691524D01*
X88180203Y-50789751D01*
X88210895Y-50917594D01*
X88212788Y-50922165D01*
X88212789Y-50922167D01*
X88299772Y-51132163D01*
X88301760Y-51136963D01*
X88304346Y-51141183D01*
X88423241Y-51335202D01*
X88423245Y-51335208D01*
X88425824Y-51339416D01*
X88580031Y-51519969D01*
X88760584Y-51674176D01*
X88764792Y-51676755D01*
X88764798Y-51676759D01*
X88955720Y-51793756D01*
X88963037Y-51798240D01*
X88967607Y-51800133D01*
X88967611Y-51800135D01*
X89177833Y-51887211D01*
X89182406Y-51889105D01*
X89225967Y-51899563D01*
X89408476Y-51943380D01*
X89408482Y-51943381D01*
X89413289Y-51944535D01*
X89650000Y-51963165D01*
X89886711Y-51944535D01*
X89891518Y-51943381D01*
X89891524Y-51943380D01*
X90074033Y-51899563D01*
X90117594Y-51889105D01*
X90122167Y-51887211D01*
X90332389Y-51800135D01*
X90332393Y-51800133D01*
X90336963Y-51798240D01*
X90344280Y-51793756D01*
X90525556Y-51682670D01*
X93482160Y-51682670D01*
X93487887Y-51690320D01*
X93659042Y-51795205D01*
X93667837Y-51799687D01*
X93877988Y-51886734D01*
X93887373Y-51889783D01*
X94108554Y-51942885D01*
X94118301Y-51944428D01*
X94345070Y-51962275D01*
X94354930Y-51962275D01*
X94581699Y-51944428D01*
X94591446Y-51942885D01*
X94812627Y-51889783D01*
X94822012Y-51886734D01*
X95032163Y-51799687D01*
X95040958Y-51795205D01*
X95208445Y-51692568D01*
X95217907Y-51682110D01*
X95214124Y-51673334D01*
X94362812Y-50822022D01*
X94348868Y-50814408D01*
X94347035Y-50814539D01*
X94340420Y-50818790D01*
X93488920Y-51670290D01*
X93482160Y-51682670D01*
X90525556Y-51682670D01*
X90535202Y-51676759D01*
X90535208Y-51676755D01*
X90539416Y-51674176D01*
X90719969Y-51519969D01*
X90874176Y-51339416D01*
X90876755Y-51335208D01*
X90876759Y-51335202D01*
X90995654Y-51141183D01*
X90998240Y-51136963D01*
X91000229Y-51132163D01*
X91087211Y-50922167D01*
X91087212Y-50922165D01*
X91089105Y-50917594D01*
X91119797Y-50789751D01*
X91143380Y-50691524D01*
X91143381Y-50691518D01*
X91144535Y-50686711D01*
X91163165Y-50450000D01*
X91144535Y-50213289D01*
X91142572Y-50205109D01*
X91099635Y-50026268D01*
X91089105Y-49982406D01*
X91085644Y-49974051D01*
X91000135Y-49767611D01*
X91000133Y-49767607D01*
X90998240Y-49763037D01*
X90987811Y-49746018D01*
X90876760Y-49564800D01*
X90876757Y-49564796D01*
X90874176Y-49560584D01*
X90873655Y-49559974D01*
X90850185Y-49494193D01*
X90866265Y-49425042D01*
X90917179Y-49375562D01*
X90975979Y-49361000D01*
X93024642Y-49361000D01*
X93092763Y-49381002D01*
X93139256Y-49434658D01*
X93149360Y-49504932D01*
X93126580Y-49561058D01*
X93123643Y-49565101D01*
X93004795Y-49759042D01*
X93000313Y-49767837D01*
X92913266Y-49977988D01*
X92910217Y-49987373D01*
X92857115Y-50208554D01*
X92855572Y-50218301D01*
X92837725Y-50445070D01*
X92837725Y-50454930D01*
X92855572Y-50681699D01*
X92857115Y-50691446D01*
X92910217Y-50912627D01*
X92913266Y-50922012D01*
X93000313Y-51132163D01*
X93004795Y-51140958D01*
X93107432Y-51308445D01*
X93117890Y-51317907D01*
X93126666Y-51314124D01*
X94260905Y-50179885D01*
X94323217Y-50145859D01*
X94394032Y-50150924D01*
X94439095Y-50179885D01*
X95570290Y-51311080D01*
X95582670Y-51317840D01*
X95590320Y-51312113D01*
X95695205Y-51140958D01*
X95699687Y-51132163D01*
X95786734Y-50922012D01*
X95789783Y-50912627D01*
X95842885Y-50691446D01*
X95844428Y-50681699D01*
X95862275Y-50454930D01*
X95862275Y-50445070D01*
X95844428Y-50218301D01*
X95842885Y-50208554D01*
X95789783Y-49987373D01*
X95786734Y-49977988D01*
X95699687Y-49767837D01*
X95695205Y-49759042D01*
X95576357Y-49565101D01*
X95573420Y-49561058D01*
X95549563Y-49494190D01*
X95565646Y-49425039D01*
X95616561Y-49375560D01*
X95675358Y-49361000D01*
X97524021Y-49361000D01*
X97592142Y-49381002D01*
X97638635Y-49434658D01*
X97648739Y-49504932D01*
X97626446Y-49559855D01*
X97625824Y-49560584D01*
X97623243Y-49564796D01*
X97623240Y-49564800D01*
X97512189Y-49746018D01*
X97501760Y-49763037D01*
X97499867Y-49767607D01*
X97499865Y-49767611D01*
X97414356Y-49974051D01*
X97410895Y-49982406D01*
X97400365Y-50026268D01*
X97357429Y-50205109D01*
X97355465Y-50213289D01*
X97336835Y-50450000D01*
X97355465Y-50686711D01*
X97356619Y-50691518D01*
X97356620Y-50691524D01*
X97380203Y-50789751D01*
X97410895Y-50917594D01*
X97412788Y-50922165D01*
X97412789Y-50922167D01*
X97499772Y-51132163D01*
X97501760Y-51136963D01*
X97504346Y-51141183D01*
X97623241Y-51335202D01*
X97623245Y-51335208D01*
X97625824Y-51339416D01*
X97780031Y-51519969D01*
X97960584Y-51674176D01*
X97964792Y-51676755D01*
X97964798Y-51676759D01*
X98155720Y-51793756D01*
X98163037Y-51798240D01*
X98167607Y-51800133D01*
X98167611Y-51800135D01*
X98377833Y-51887211D01*
X98382406Y-51889105D01*
X98425967Y-51899563D01*
X98608476Y-51943380D01*
X98608482Y-51943381D01*
X98613289Y-51944535D01*
X98850000Y-51963165D01*
X99086711Y-51944535D01*
X99091518Y-51943381D01*
X99091524Y-51943380D01*
X99274033Y-51899563D01*
X99317594Y-51889105D01*
X99322167Y-51887211D01*
X99532389Y-51800135D01*
X99532393Y-51800133D01*
X99536963Y-51798240D01*
X99544280Y-51793756D01*
X99735202Y-51676759D01*
X99735208Y-51676755D01*
X99739416Y-51674176D01*
X99919969Y-51519969D01*
X100074176Y-51339416D01*
X100076755Y-51335208D01*
X100076759Y-51335202D01*
X100195654Y-51141183D01*
X100198240Y-51136963D01*
X100200229Y-51132163D01*
X100287211Y-50922167D01*
X100287212Y-50922165D01*
X100289105Y-50917594D01*
X100319797Y-50789751D01*
X100343380Y-50691524D01*
X100343381Y-50691518D01*
X100344535Y-50686711D01*
X100363165Y-50450000D01*
X100344535Y-50213289D01*
X100342572Y-50205109D01*
X100299635Y-50026268D01*
X100289105Y-49982406D01*
X100285644Y-49974051D01*
X100200135Y-49767611D01*
X100200133Y-49767607D01*
X100198240Y-49763037D01*
X100187811Y-49746018D01*
X100076760Y-49564800D01*
X100076757Y-49564796D01*
X100074176Y-49560584D01*
X100073655Y-49559974D01*
X100050185Y-49494193D01*
X100066265Y-49425042D01*
X100117179Y-49375562D01*
X100175979Y-49361000D01*
X103111101Y-49361000D01*
X103179222Y-49381002D01*
X103200196Y-49397905D01*
X103478693Y-49676402D01*
X103512719Y-49738714D01*
X103515598Y-49765497D01*
X103515598Y-50763148D01*
X103515071Y-50774331D01*
X103513396Y-50781824D01*
X103513645Y-50789750D01*
X103513645Y-50789751D01*
X103515536Y-50849901D01*
X103515598Y-50853860D01*
X103515598Y-50881771D01*
X103516095Y-50885705D01*
X103516095Y-50885706D01*
X103516103Y-50885771D01*
X103517036Y-50897608D01*
X103518425Y-50941804D01*
X103524076Y-50961254D01*
X103528085Y-50980615D01*
X103530624Y-51000712D01*
X103533543Y-51008083D01*
X103533543Y-51008085D01*
X103546902Y-51041827D01*
X103550747Y-51053057D01*
X103560869Y-51087898D01*
X103563080Y-51095508D01*
X103567113Y-51102327D01*
X103567115Y-51102332D01*
X103573391Y-51112943D01*
X103582086Y-51130691D01*
X103589546Y-51149532D01*
X103594208Y-51155948D01*
X103594208Y-51155949D01*
X103615534Y-51185302D01*
X103622050Y-51195222D01*
X103644556Y-51233277D01*
X103658877Y-51247598D01*
X103671717Y-51262631D01*
X103683626Y-51279022D01*
X103717703Y-51307213D01*
X103726482Y-51315203D01*
X104503526Y-52092247D01*
X104511070Y-52100537D01*
X104515183Y-52107018D01*
X104520960Y-52112443D01*
X104564850Y-52153658D01*
X104567692Y-52156413D01*
X104587413Y-52176134D01*
X104590608Y-52178612D01*
X104599630Y-52186318D01*
X104631862Y-52216586D01*
X104638811Y-52220406D01*
X104649615Y-52226346D01*
X104666139Y-52237199D01*
X104682142Y-52249613D01*
X104722726Y-52267176D01*
X104733356Y-52272383D01*
X104772123Y-52293695D01*
X104779800Y-52295666D01*
X104779805Y-52295668D01*
X104791741Y-52298732D01*
X104810449Y-52305137D01*
X104829038Y-52313181D01*
X104836863Y-52314420D01*
X104836865Y-52314421D01*
X104872702Y-52320097D01*
X104884323Y-52322504D01*
X104916142Y-52330673D01*
X104927153Y-52333500D01*
X104947414Y-52333500D01*
X104967123Y-52335051D01*
X104987126Y-52338219D01*
X104995018Y-52337473D01*
X105000245Y-52336979D01*
X105031137Y-52334059D01*
X105042994Y-52333500D01*
X114416233Y-52333500D01*
X114427416Y-52334027D01*
X114434909Y-52335702D01*
X114442835Y-52335453D01*
X114442836Y-52335453D01*
X114502986Y-52333562D01*
X114506945Y-52333500D01*
X114534856Y-52333500D01*
X114538791Y-52333003D01*
X114538856Y-52332995D01*
X114550693Y-52332062D01*
X114582951Y-52331048D01*
X114586970Y-52330922D01*
X114594889Y-52330673D01*
X114614343Y-52325021D01*
X114633700Y-52321013D01*
X114645930Y-52319468D01*
X114645931Y-52319468D01*
X114653797Y-52318474D01*
X114661168Y-52315555D01*
X114661170Y-52315555D01*
X114694912Y-52302196D01*
X114706142Y-52298351D01*
X114740983Y-52288229D01*
X114740984Y-52288229D01*
X114748593Y-52286018D01*
X114755412Y-52281985D01*
X114755417Y-52281983D01*
X114766028Y-52275707D01*
X114783776Y-52267012D01*
X114802617Y-52259552D01*
X114821740Y-52245659D01*
X114838387Y-52233564D01*
X114848307Y-52227048D01*
X114879535Y-52208580D01*
X114879538Y-52208578D01*
X114886362Y-52204542D01*
X114900683Y-52190221D01*
X114915717Y-52177380D01*
X114920464Y-52173931D01*
X114932107Y-52165472D01*
X114960298Y-52131395D01*
X114968288Y-52122616D01*
X115198309Y-51892595D01*
X115260621Y-51858569D01*
X115300247Y-51856346D01*
X115321268Y-51858500D01*
X115868732Y-51858500D01*
X115871978Y-51858163D01*
X115871982Y-51858163D01*
X115906083Y-51854625D01*
X115971019Y-51847887D01*
X116005737Y-51836304D01*
X116126324Y-51796073D01*
X116126326Y-51796072D01*
X116133268Y-51793756D01*
X116163780Y-51774874D01*
X116232231Y-51756038D01*
X116296198Y-51774761D01*
X116321667Y-51790461D01*
X116321669Y-51790462D01*
X116327899Y-51794302D01*
X116490243Y-51848149D01*
X116497080Y-51848849D01*
X116497082Y-51848850D01*
X116534865Y-51852721D01*
X116591268Y-51858500D01*
X117138732Y-51858500D01*
X117141978Y-51858163D01*
X117141982Y-51858163D01*
X117176083Y-51854625D01*
X117241019Y-51847887D01*
X117275737Y-51836304D01*
X117396324Y-51796073D01*
X117396326Y-51796072D01*
X117403268Y-51793756D01*
X117433780Y-51774874D01*
X117502231Y-51756038D01*
X117566198Y-51774761D01*
X117591667Y-51790461D01*
X117591669Y-51790462D01*
X117597899Y-51794302D01*
X117760243Y-51848149D01*
X117767080Y-51848849D01*
X117767082Y-51848850D01*
X117804865Y-51852721D01*
X117861268Y-51858500D01*
X118408732Y-51858500D01*
X118411978Y-51858163D01*
X118411982Y-51858163D01*
X118446083Y-51854625D01*
X118511019Y-51847887D01*
X118545737Y-51836304D01*
X118666324Y-51796073D01*
X118666326Y-51796072D01*
X118673268Y-51793756D01*
X118703780Y-51774875D01*
X118812485Y-51707606D01*
X118818713Y-51703752D01*
X118939552Y-51582702D01*
X118972289Y-51529593D01*
X119025060Y-51482101D01*
X119095131Y-51470677D01*
X119160255Y-51498951D01*
X119188001Y-51531570D01*
X119195458Y-51544179D01*
X119209779Y-51558500D01*
X119222619Y-51573533D01*
X119234528Y-51589924D01*
X119240634Y-51594975D01*
X119268605Y-51618115D01*
X119277384Y-51626105D01*
X119718526Y-52067247D01*
X119726070Y-52075537D01*
X119730183Y-52082018D01*
X119735960Y-52087443D01*
X119779850Y-52128658D01*
X119782692Y-52131413D01*
X119802413Y-52151134D01*
X119805608Y-52153612D01*
X119814630Y-52161318D01*
X119846862Y-52191586D01*
X119853811Y-52195406D01*
X119864615Y-52201346D01*
X119881139Y-52212199D01*
X119897142Y-52224613D01*
X119937726Y-52242176D01*
X119948356Y-52247383D01*
X119987123Y-52268695D01*
X119994800Y-52270666D01*
X119994805Y-52270668D01*
X120006741Y-52273732D01*
X120025449Y-52280137D01*
X120044038Y-52288181D01*
X120051866Y-52289421D01*
X120051873Y-52289423D01*
X120087707Y-52295099D01*
X120099327Y-52297505D01*
X120129058Y-52305138D01*
X120142153Y-52308500D01*
X120162407Y-52308500D01*
X120182117Y-52310051D01*
X120202126Y-52313220D01*
X120210018Y-52312474D01*
X120228763Y-52310702D01*
X120246145Y-52309059D01*
X120258002Y-52308500D01*
X124859050Y-52308500D01*
X124870233Y-52309027D01*
X124877726Y-52310702D01*
X124885652Y-52310453D01*
X124885653Y-52310453D01*
X124945803Y-52308562D01*
X124949762Y-52308500D01*
X124977673Y-52308500D01*
X124981608Y-52308003D01*
X124981673Y-52307995D01*
X124993510Y-52307062D01*
X125025768Y-52306048D01*
X125029787Y-52305922D01*
X125037706Y-52305673D01*
X125057160Y-52300021D01*
X125076517Y-52296013D01*
X125088747Y-52294468D01*
X125088748Y-52294468D01*
X125096614Y-52293474D01*
X125103985Y-52290555D01*
X125103987Y-52290555D01*
X125137729Y-52277196D01*
X125148959Y-52273351D01*
X125183800Y-52263229D01*
X125183801Y-52263229D01*
X125191410Y-52261018D01*
X125198229Y-52256985D01*
X125198234Y-52256983D01*
X125208845Y-52250707D01*
X125226593Y-52242012D01*
X125245434Y-52234552D01*
X125260736Y-52223435D01*
X125281204Y-52208564D01*
X125291124Y-52202048D01*
X125322352Y-52183580D01*
X125322355Y-52183578D01*
X125329179Y-52179542D01*
X125343500Y-52165221D01*
X125358534Y-52152380D01*
X125360249Y-52151134D01*
X125374924Y-52140472D01*
X125403115Y-52106395D01*
X125411105Y-52097616D01*
X125613316Y-51895405D01*
X125675628Y-51861379D01*
X125702411Y-51858500D01*
X126028732Y-51858500D01*
X126031978Y-51858163D01*
X126031982Y-51858163D01*
X126066083Y-51854625D01*
X126131019Y-51847887D01*
X126165737Y-51836304D01*
X126286324Y-51796073D01*
X126286326Y-51796072D01*
X126293268Y-51793756D01*
X126323780Y-51774875D01*
X126432485Y-51707606D01*
X126438713Y-51703752D01*
X126559552Y-51582702D01*
X126573602Y-51559909D01*
X126645462Y-51443331D01*
X126645463Y-51443329D01*
X126649302Y-51437101D01*
X126703149Y-51274757D01*
X126704392Y-51262632D01*
X126711822Y-51190107D01*
X126713500Y-51173732D01*
X126713500Y-50026268D01*
X126713163Y-50023015D01*
X126708491Y-49977988D01*
X126702887Y-49923981D01*
X126684918Y-49870121D01*
X126651073Y-49768676D01*
X126651072Y-49768674D01*
X126648756Y-49761732D01*
X126558752Y-49616287D01*
X126437702Y-49495448D01*
X126389703Y-49465861D01*
X126298331Y-49409538D01*
X126298329Y-49409537D01*
X126292101Y-49405698D01*
X126129757Y-49351851D01*
X126122920Y-49351151D01*
X126122918Y-49351150D01*
X126081599Y-49346917D01*
X126028732Y-49341500D01*
X125481268Y-49341500D01*
X125478022Y-49341837D01*
X125478018Y-49341837D01*
X125445155Y-49345247D01*
X125378981Y-49352113D01*
X125372440Y-49354295D01*
X125372441Y-49354295D01*
X125223676Y-49403927D01*
X125223674Y-49403928D01*
X125216732Y-49406244D01*
X125186220Y-49425126D01*
X125117769Y-49443962D01*
X125053802Y-49425239D01*
X125028333Y-49409539D01*
X125028330Y-49409537D01*
X125022101Y-49405698D01*
X124859757Y-49351851D01*
X124852920Y-49351151D01*
X124852918Y-49351150D01*
X124811599Y-49346917D01*
X124758732Y-49341500D01*
X124211268Y-49341500D01*
X124208022Y-49341837D01*
X124208018Y-49341837D01*
X124175155Y-49345247D01*
X124108981Y-49352113D01*
X124102440Y-49354295D01*
X124102441Y-49354295D01*
X123953676Y-49403927D01*
X123953674Y-49403928D01*
X123946732Y-49406244D01*
X123940508Y-49410096D01*
X123940507Y-49410096D01*
X123916036Y-49425239D01*
X123801287Y-49496248D01*
X123680448Y-49617298D01*
X123676608Y-49623528D01*
X123676607Y-49623529D01*
X123595255Y-49755507D01*
X123590698Y-49762899D01*
X123536851Y-49925243D01*
X123536151Y-49932080D01*
X123536150Y-49932082D01*
X123534915Y-49944137D01*
X123526500Y-50026268D01*
X123526500Y-50915500D01*
X123506498Y-50983621D01*
X123452842Y-51030114D01*
X123400500Y-51041500D01*
X123029500Y-51041500D01*
X122961379Y-51021498D01*
X122914886Y-50967842D01*
X122903500Y-50915500D01*
X122903500Y-50026268D01*
X122903163Y-50023015D01*
X122898491Y-49977988D01*
X122892887Y-49923981D01*
X122874918Y-49870121D01*
X122841073Y-49768676D01*
X122841072Y-49768674D01*
X122838756Y-49761732D01*
X122748752Y-49616287D01*
X122627702Y-49495448D01*
X122626933Y-49494974D01*
X122587396Y-49439212D01*
X122580611Y-49402201D01*
X122580128Y-49386817D01*
X122578562Y-49337013D01*
X122578500Y-49333055D01*
X122578500Y-49305144D01*
X122577995Y-49301144D01*
X122577062Y-49289301D01*
X122575922Y-49253030D01*
X122575673Y-49245111D01*
X122570021Y-49225657D01*
X122566013Y-49206300D01*
X122564468Y-49194070D01*
X122564468Y-49194069D01*
X122563474Y-49186203D01*
X122558135Y-49172718D01*
X122547196Y-49145088D01*
X122543351Y-49133858D01*
X122531961Y-49094653D01*
X122532164Y-49023656D01*
X122570718Y-48964040D01*
X122635383Y-48934732D01*
X122652958Y-48933500D01*
X126885406Y-48933500D01*
X126953527Y-48953502D01*
X126974501Y-48970405D01*
X127469957Y-49465861D01*
X127503983Y-49528173D01*
X127498918Y-49598988D01*
X127488123Y-49621069D01*
X127486607Y-49623529D01*
X127405255Y-49755507D01*
X127400698Y-49762899D01*
X127346851Y-49925243D01*
X127346151Y-49932080D01*
X127346150Y-49932082D01*
X127344915Y-49944137D01*
X127336500Y-50026268D01*
X127336500Y-51173732D01*
X127347113Y-51276019D01*
X127349295Y-51282559D01*
X127398537Y-51430153D01*
X127401244Y-51438268D01*
X127405096Y-51444492D01*
X127405096Y-51444493D01*
X127472300Y-51553093D01*
X127491248Y-51583713D01*
X127612298Y-51704552D01*
X127618528Y-51708392D01*
X127618529Y-51708393D01*
X127751668Y-51790461D01*
X127757899Y-51794302D01*
X127920243Y-51848149D01*
X127927080Y-51848849D01*
X127927082Y-51848850D01*
X127964865Y-51852721D01*
X128021268Y-51858500D01*
X128568732Y-51858500D01*
X128571978Y-51858163D01*
X128571982Y-51858163D01*
X128606083Y-51854625D01*
X128671019Y-51847887D01*
X128705737Y-51836304D01*
X128826324Y-51796073D01*
X128826326Y-51796072D01*
X128833268Y-51793756D01*
X128863780Y-51774874D01*
X128932231Y-51756038D01*
X128996198Y-51774761D01*
X129021667Y-51790461D01*
X129021669Y-51790462D01*
X129027899Y-51794302D01*
X129190243Y-51848149D01*
X129197080Y-51848849D01*
X129197082Y-51848850D01*
X129234865Y-51852721D01*
X129291268Y-51858500D01*
X129838732Y-51858500D01*
X129841978Y-51858163D01*
X129841982Y-51858163D01*
X129876083Y-51854625D01*
X129941019Y-51847887D01*
X129975737Y-51836304D01*
X130096324Y-51796073D01*
X130096326Y-51796072D01*
X130103268Y-51793756D01*
X130133780Y-51774875D01*
X130242485Y-51707606D01*
X130248713Y-51703752D01*
X130369552Y-51582702D01*
X130383602Y-51559909D01*
X130455462Y-51443331D01*
X130455463Y-51443329D01*
X130459302Y-51437101D01*
X130513149Y-51274757D01*
X130514392Y-51262632D01*
X130521822Y-51190107D01*
X130523500Y-51173732D01*
X130523500Y-50026268D01*
X130523163Y-50023015D01*
X130518491Y-49977988D01*
X130512887Y-49923981D01*
X130494918Y-49870121D01*
X130461073Y-49768676D01*
X130461072Y-49768674D01*
X130458756Y-49761732D01*
X130368752Y-49616287D01*
X130247702Y-49495448D01*
X130199703Y-49465861D01*
X130108331Y-49409538D01*
X130108329Y-49409537D01*
X130102101Y-49405698D01*
X129939757Y-49351851D01*
X129932920Y-49351151D01*
X129932918Y-49351150D01*
X129891599Y-49346917D01*
X129838732Y-49341500D01*
X129291268Y-49341500D01*
X129288022Y-49341837D01*
X129288018Y-49341837D01*
X129255155Y-49345247D01*
X129188981Y-49352113D01*
X129148196Y-49365720D01*
X129087572Y-49385946D01*
X129016622Y-49388531D01*
X128955538Y-49352348D01*
X128927383Y-49294616D01*
X128925675Y-49295112D01*
X128920023Y-49275659D01*
X128916012Y-49256295D01*
X128914467Y-49244064D01*
X128913474Y-49236203D01*
X128910557Y-49228836D01*
X128910556Y-49228831D01*
X128897198Y-49195092D01*
X128893354Y-49183865D01*
X128890115Y-49172718D01*
X128881018Y-49141407D01*
X128870707Y-49123972D01*
X128862012Y-49106224D01*
X128854552Y-49087383D01*
X128828564Y-49051613D01*
X128822048Y-49041693D01*
X128803580Y-49010465D01*
X128803578Y-49010462D01*
X128799542Y-49003638D01*
X128785221Y-48989317D01*
X128772380Y-48974283D01*
X128760472Y-48957893D01*
X128726395Y-48929702D01*
X128717616Y-48921712D01*
X127703652Y-47907747D01*
X127696112Y-47899461D01*
X127692000Y-47892982D01*
X127642348Y-47846356D01*
X127639507Y-47843602D01*
X127619770Y-47823865D01*
X127616573Y-47821385D01*
X127607551Y-47813680D01*
X127581100Y-47788841D01*
X127575321Y-47783414D01*
X127568375Y-47779595D01*
X127568372Y-47779593D01*
X127557566Y-47773652D01*
X127541047Y-47762801D01*
X127540583Y-47762441D01*
X127525041Y-47750386D01*
X127517772Y-47747241D01*
X127517768Y-47747238D01*
X127484463Y-47732826D01*
X127473813Y-47727609D01*
X127435060Y-47706305D01*
X127415437Y-47701267D01*
X127396734Y-47694863D01*
X127385420Y-47689967D01*
X127385419Y-47689967D01*
X127378145Y-47686819D01*
X127370322Y-47685580D01*
X127370312Y-47685577D01*
X127334476Y-47679901D01*
X127322856Y-47677495D01*
X127287711Y-47668472D01*
X127287710Y-47668472D01*
X127280030Y-47666500D01*
X127259776Y-47666500D01*
X127240065Y-47664949D01*
X127227886Y-47663020D01*
X127220057Y-47661780D01*
X127212165Y-47662526D01*
X127176039Y-47665941D01*
X127164181Y-47666500D01*
X120240214Y-47666500D01*
X120172093Y-47646498D01*
X120125600Y-47592842D01*
X120115496Y-47522568D01*
X120129013Y-47483518D01*
X120128539Y-47483307D01*
X120130996Y-47477787D01*
X120131097Y-47477497D01*
X120131223Y-47477279D01*
X120131224Y-47477278D01*
X120134527Y-47471556D01*
X120193542Y-47289928D01*
X120195013Y-47275937D01*
X120212814Y-47106565D01*
X120213504Y-47100000D01*
X120202345Y-46993829D01*
X120194232Y-46916635D01*
X120194232Y-46916633D01*
X120193542Y-46910072D01*
X120166204Y-46825935D01*
X120164176Y-46754969D01*
X120200838Y-46694171D01*
X120264550Y-46662846D01*
X120286037Y-46661000D01*
X123343733Y-46661000D01*
X123354916Y-46661527D01*
X123362409Y-46663202D01*
X123370335Y-46662953D01*
X123370336Y-46662953D01*
X123430486Y-46661062D01*
X123434445Y-46661000D01*
X123462356Y-46661000D01*
X123466291Y-46660503D01*
X123466356Y-46660495D01*
X123478193Y-46659562D01*
X123510451Y-46658548D01*
X123514470Y-46658422D01*
X123522389Y-46658173D01*
X123541843Y-46652521D01*
X123561200Y-46648513D01*
X123573430Y-46646968D01*
X123573431Y-46646968D01*
X123581297Y-46645974D01*
X123588668Y-46643055D01*
X123588670Y-46643055D01*
X123622412Y-46629696D01*
X123633642Y-46625851D01*
X123668483Y-46615729D01*
X123668484Y-46615729D01*
X123676093Y-46613518D01*
X123682912Y-46609485D01*
X123682917Y-46609483D01*
X123693528Y-46603207D01*
X123711276Y-46594512D01*
X123730117Y-46587052D01*
X123744585Y-46576541D01*
X123765887Y-46561064D01*
X123775807Y-46554548D01*
X123807035Y-46536080D01*
X123807038Y-46536078D01*
X123813862Y-46532042D01*
X123828183Y-46517721D01*
X123843217Y-46504880D01*
X123853194Y-46497631D01*
X123859607Y-46492972D01*
X123864657Y-46486868D01*
X123864662Y-46486863D01*
X123887793Y-46458902D01*
X123895783Y-46450121D01*
X124450501Y-45895404D01*
X124512813Y-45861379D01*
X124539596Y-45858500D01*
X124595487Y-45858500D01*
X124601939Y-45857128D01*
X124601944Y-45857128D01*
X124698960Y-45836506D01*
X124782288Y-45818794D01*
X124798682Y-45811495D01*
X124950722Y-45743803D01*
X124950724Y-45743802D01*
X124956752Y-45741118D01*
X124976428Y-45726823D01*
X125045223Y-45676840D01*
X125111253Y-45628866D01*
X125132094Y-45605720D01*
X125234621Y-45491852D01*
X125234622Y-45491851D01*
X125239040Y-45486944D01*
X125304250Y-45373998D01*
X125331223Y-45327279D01*
X125331224Y-45327278D01*
X125334527Y-45321556D01*
X125393542Y-45139928D01*
X125397025Y-45106794D01*
X125412814Y-44956565D01*
X125413504Y-44950000D01*
X125402446Y-44844787D01*
X125398950Y-44811524D01*
X125411722Y-44741686D01*
X125460224Y-44689839D01*
X125529057Y-44672445D01*
X125596367Y-44695027D01*
X125613355Y-44709259D01*
X126248843Y-45344747D01*
X126256387Y-45353037D01*
X126260500Y-45359518D01*
X126266277Y-45364943D01*
X126310167Y-45406158D01*
X126313009Y-45408913D01*
X126332730Y-45428634D01*
X126335925Y-45431112D01*
X126344947Y-45438818D01*
X126377179Y-45469086D01*
X126384128Y-45472906D01*
X126394932Y-45478846D01*
X126411456Y-45489699D01*
X126427459Y-45502113D01*
X126468043Y-45519676D01*
X126478673Y-45524883D01*
X126517440Y-45546195D01*
X126525117Y-45548166D01*
X126525122Y-45548168D01*
X126537058Y-45551232D01*
X126555766Y-45557637D01*
X126574355Y-45565681D01*
X126582183Y-45566921D01*
X126582190Y-45566923D01*
X126618024Y-45572599D01*
X126629644Y-45575005D01*
X126664789Y-45584028D01*
X126672470Y-45586000D01*
X126692724Y-45586000D01*
X126712434Y-45587551D01*
X126732443Y-45590720D01*
X126740335Y-45589974D01*
X126776461Y-45586559D01*
X126788319Y-45586000D01*
X127242138Y-45586000D01*
X127310259Y-45606002D01*
X127356752Y-45659658D01*
X127361655Y-45672106D01*
X127401244Y-45790768D01*
X127405096Y-45796992D01*
X127405096Y-45796993D01*
X127433516Y-45842919D01*
X127491248Y-45936213D01*
X127612298Y-46057052D01*
X127618528Y-46060892D01*
X127618529Y-46060893D01*
X127751668Y-46142961D01*
X127757899Y-46146802D01*
X127920243Y-46200649D01*
X127927080Y-46201349D01*
X127927082Y-46201350D01*
X127968401Y-46205583D01*
X128021268Y-46211000D01*
X128568732Y-46211000D01*
X128571978Y-46210663D01*
X128571982Y-46210663D01*
X128606083Y-46207125D01*
X128671019Y-46200387D01*
X128746321Y-46175264D01*
X128826324Y-46148573D01*
X128826326Y-46148572D01*
X128833268Y-46146256D01*
X128863780Y-46127374D01*
X128932231Y-46108538D01*
X128996198Y-46127261D01*
X129021667Y-46142961D01*
X129021669Y-46142962D01*
X129027899Y-46146802D01*
X129190243Y-46200649D01*
X129197080Y-46201349D01*
X129197082Y-46201350D01*
X129238401Y-46205583D01*
X129291268Y-46211000D01*
X129838732Y-46211000D01*
X129841978Y-46210663D01*
X129841982Y-46210663D01*
X129876083Y-46207125D01*
X129941019Y-46200387D01*
X130016321Y-46175264D01*
X130096324Y-46148573D01*
X130096326Y-46148572D01*
X130103268Y-46146256D01*
X130133780Y-46127375D01*
X130242485Y-46060106D01*
X130248713Y-46056252D01*
X130369552Y-45935202D01*
X130375677Y-45925266D01*
X130455462Y-45795831D01*
X130455463Y-45795829D01*
X130459302Y-45789601D01*
X130513149Y-45627257D01*
X130514206Y-45616947D01*
X130519568Y-45564609D01*
X130523500Y-45526232D01*
X130523500Y-45078838D01*
X132491500Y-45078838D01*
X132506359Y-45315020D01*
X132565505Y-45625072D01*
X132585099Y-45685375D01*
X132658274Y-45910584D01*
X132663044Y-45925266D01*
X132664731Y-45928852D01*
X132664733Y-45928856D01*
X132795750Y-46207283D01*
X132795754Y-46207290D01*
X132797438Y-46210869D01*
X132966568Y-46477375D01*
X133041724Y-46568223D01*
X133118059Y-46660495D01*
X133167767Y-46720582D01*
X133397860Y-46936654D01*
X133653221Y-47122184D01*
X133656690Y-47124091D01*
X133656693Y-47124093D01*
X133926352Y-47272340D01*
X133929821Y-47274247D01*
X133933490Y-47275700D01*
X133933495Y-47275702D01*
X134163166Y-47366635D01*
X134223298Y-47390443D01*
X134529025Y-47468940D01*
X134842179Y-47508500D01*
X135157821Y-47508500D01*
X135470975Y-47468940D01*
X135776702Y-47390443D01*
X135836834Y-47366635D01*
X136066505Y-47275702D01*
X136066510Y-47275700D01*
X136070179Y-47274247D01*
X136073648Y-47272340D01*
X136343307Y-47124093D01*
X136343310Y-47124091D01*
X136346779Y-47122184D01*
X136602140Y-46936654D01*
X136832233Y-46720582D01*
X136881942Y-46660495D01*
X136958276Y-46568223D01*
X137033432Y-46477375D01*
X137202562Y-46210869D01*
X137204246Y-46207290D01*
X137204250Y-46207283D01*
X137335267Y-45928856D01*
X137335269Y-45928852D01*
X137336956Y-45925266D01*
X137341727Y-45910584D01*
X137414901Y-45685375D01*
X137434495Y-45625072D01*
X137493641Y-45315020D01*
X137508500Y-45078838D01*
X137508500Y-39921162D01*
X137493641Y-39684980D01*
X137434495Y-39374928D01*
X137336956Y-39074734D01*
X137321483Y-39041852D01*
X137204250Y-38792717D01*
X137204246Y-38792710D01*
X137202562Y-38789131D01*
X137196705Y-38779901D01*
X137162017Y-38725243D01*
X137033432Y-38522625D01*
X136883184Y-38341007D01*
X136834758Y-38282470D01*
X136834757Y-38282469D01*
X136832233Y-38279418D01*
X136602140Y-38063346D01*
X136554596Y-38028803D01*
X136540000Y-38018199D01*
X136346779Y-37877816D01*
X136338156Y-37873075D01*
X136073648Y-37727660D01*
X136073647Y-37727659D01*
X136070179Y-37725753D01*
X136066510Y-37724300D01*
X136066505Y-37724298D01*
X135780372Y-37611010D01*
X135780371Y-37611010D01*
X135776702Y-37609557D01*
X135470975Y-37531060D01*
X135157821Y-37491500D01*
X134842179Y-37491500D01*
X134529025Y-37531060D01*
X134223298Y-37609557D01*
X134219629Y-37611010D01*
X134219628Y-37611010D01*
X133933495Y-37724298D01*
X133933490Y-37724300D01*
X133929821Y-37725753D01*
X133926353Y-37727659D01*
X133926352Y-37727660D01*
X133661845Y-37873075D01*
X133653221Y-37877816D01*
X133460000Y-38018199D01*
X133445405Y-38028803D01*
X133397860Y-38063346D01*
X133167767Y-38279418D01*
X133165243Y-38282469D01*
X133165242Y-38282470D01*
X133116816Y-38341007D01*
X132966568Y-38522625D01*
X132837983Y-38725243D01*
X132803296Y-38779901D01*
X132797438Y-38789131D01*
X132795754Y-38792710D01*
X132795750Y-38792717D01*
X132678517Y-39041852D01*
X132663044Y-39074734D01*
X132565505Y-39374928D01*
X132506359Y-39684980D01*
X132491500Y-39921162D01*
X132491500Y-45078838D01*
X130523500Y-45078838D01*
X130523500Y-44378768D01*
X130512887Y-44276481D01*
X130475905Y-44165634D01*
X130461073Y-44121176D01*
X130461072Y-44121174D01*
X130458756Y-44114232D01*
X130439981Y-44083891D01*
X130372606Y-43975015D01*
X130368752Y-43968787D01*
X130247702Y-43847948D01*
X130245330Y-43846486D01*
X130205345Y-43790088D01*
X130198500Y-43749124D01*
X130198500Y-40603379D01*
X130218502Y-40535258D01*
X130244894Y-40506116D01*
X130248713Y-40503752D01*
X130369552Y-40382702D01*
X130374162Y-40375223D01*
X130455462Y-40243331D01*
X130455463Y-40243329D01*
X130459302Y-40237101D01*
X130513149Y-40074757D01*
X130523500Y-39973732D01*
X130523500Y-38826268D01*
X130512887Y-38723981D01*
X130480963Y-38628295D01*
X130461073Y-38568676D01*
X130461071Y-38568671D01*
X130458756Y-38561732D01*
X130435593Y-38524300D01*
X130372606Y-38422515D01*
X130368752Y-38416287D01*
X130247702Y-38295448D01*
X130200049Y-38266074D01*
X130108331Y-38209538D01*
X130108329Y-38209537D01*
X130102101Y-38205698D01*
X129939757Y-38151851D01*
X129932920Y-38151151D01*
X129932918Y-38151150D01*
X129890538Y-38146808D01*
X129838732Y-38141500D01*
X129291268Y-38141500D01*
X129288022Y-38141837D01*
X129288018Y-38141837D01*
X129253917Y-38145375D01*
X129188981Y-38152113D01*
X129182440Y-38154295D01*
X129182441Y-38154295D01*
X129033676Y-38203927D01*
X129033674Y-38203928D01*
X129026732Y-38206244D01*
X128996220Y-38225126D01*
X128927769Y-38243962D01*
X128863802Y-38225239D01*
X128838333Y-38209539D01*
X128838330Y-38209537D01*
X128832101Y-38205698D01*
X128669757Y-38151851D01*
X128662920Y-38151151D01*
X128662918Y-38151150D01*
X128620538Y-38146808D01*
X128568732Y-38141500D01*
X128021268Y-38141500D01*
X128018022Y-38141837D01*
X128018018Y-38141837D01*
X127983917Y-38145375D01*
X127918981Y-38152113D01*
X127912440Y-38154295D01*
X127912441Y-38154295D01*
X127763676Y-38203927D01*
X127763674Y-38203928D01*
X127756732Y-38206244D01*
X127750508Y-38210096D01*
X127750507Y-38210096D01*
X127621497Y-38289930D01*
X127611287Y-38296248D01*
X127490448Y-38417298D01*
X127486608Y-38423528D01*
X127486607Y-38423529D01*
X127405255Y-38555507D01*
X127400698Y-38562899D01*
X127346851Y-38725243D01*
X127346151Y-38732080D01*
X127346150Y-38732082D01*
X127344673Y-38746498D01*
X127336500Y-38826268D01*
X127336500Y-39973732D01*
X127347113Y-40076019D01*
X127349295Y-40082559D01*
X127398537Y-40230153D01*
X127401244Y-40238268D01*
X127405096Y-40244492D01*
X127405096Y-40244493D01*
X127480596Y-40366500D01*
X127491248Y-40383713D01*
X127612298Y-40504552D01*
X127618528Y-40508392D01*
X127618529Y-40508393D01*
X127751668Y-40590461D01*
X127757899Y-40594302D01*
X127920243Y-40648149D01*
X127927080Y-40648849D01*
X127927082Y-40648850D01*
X127968401Y-40653083D01*
X128021268Y-40658500D01*
X128568732Y-40658500D01*
X128571978Y-40658163D01*
X128571982Y-40658163D01*
X128613442Y-40653861D01*
X128671019Y-40647887D01*
X128765624Y-40616324D01*
X128836573Y-40613738D01*
X128897657Y-40649922D01*
X128929482Y-40713386D01*
X128931500Y-40735847D01*
X128931500Y-43616625D01*
X128911498Y-43684746D01*
X128857842Y-43731239D01*
X128787568Y-43741343D01*
X128765833Y-43736218D01*
X128669757Y-43704351D01*
X128662920Y-43703651D01*
X128662918Y-43703650D01*
X128621599Y-43699417D01*
X128568732Y-43694000D01*
X128021268Y-43694000D01*
X128018022Y-43694337D01*
X128018018Y-43694337D01*
X127983917Y-43697875D01*
X127918981Y-43704613D01*
X127900925Y-43710637D01*
X127763676Y-43756427D01*
X127763674Y-43756428D01*
X127756732Y-43758744D01*
X127750508Y-43762596D01*
X127750507Y-43762596D01*
X127701826Y-43792721D01*
X127611287Y-43848748D01*
X127490448Y-43969798D01*
X127486608Y-43976028D01*
X127486607Y-43976029D01*
X127405255Y-44108007D01*
X127400698Y-44115399D01*
X127370875Y-44205314D01*
X127361802Y-44232667D01*
X127321371Y-44291027D01*
X127255807Y-44318264D01*
X127242209Y-44319000D01*
X127067095Y-44319000D01*
X126998974Y-44298998D01*
X126978000Y-44282095D01*
X125432122Y-42736217D01*
X125398096Y-42673905D01*
X125395907Y-42660292D01*
X125379232Y-42501635D01*
X125379232Y-42501633D01*
X125378542Y-42495072D01*
X125319527Y-42313444D01*
X125300177Y-42279928D01*
X125248215Y-42189928D01*
X125224040Y-42148056D01*
X125150863Y-42066785D01*
X125120147Y-42002779D01*
X125118500Y-41982476D01*
X125118500Y-40735875D01*
X125138502Y-40667754D01*
X125192158Y-40621261D01*
X125262432Y-40611157D01*
X125284166Y-40616282D01*
X125380243Y-40648149D01*
X125387080Y-40648849D01*
X125387082Y-40648850D01*
X125428401Y-40653083D01*
X125481268Y-40658500D01*
X126028732Y-40658500D01*
X126031978Y-40658163D01*
X126031982Y-40658163D01*
X126073442Y-40653861D01*
X126131019Y-40647887D01*
X126199952Y-40624889D01*
X126286324Y-40596073D01*
X126286326Y-40596072D01*
X126293268Y-40593756D01*
X126323780Y-40574875D01*
X126432485Y-40507606D01*
X126438713Y-40503752D01*
X126559552Y-40382702D01*
X126564162Y-40375223D01*
X126645462Y-40243331D01*
X126645463Y-40243329D01*
X126649302Y-40237101D01*
X126703149Y-40074757D01*
X126713500Y-39973732D01*
X126713500Y-38826268D01*
X126702887Y-38723981D01*
X126670963Y-38628295D01*
X126651073Y-38568676D01*
X126651071Y-38568671D01*
X126648756Y-38561732D01*
X126625593Y-38524300D01*
X126562606Y-38422515D01*
X126558752Y-38416287D01*
X126437702Y-38295448D01*
X126390049Y-38266074D01*
X126298331Y-38209538D01*
X126298329Y-38209537D01*
X126292101Y-38205698D01*
X126129757Y-38151851D01*
X126122920Y-38151151D01*
X126122918Y-38151150D01*
X126080538Y-38146808D01*
X126028732Y-38141500D01*
X125481268Y-38141500D01*
X125478022Y-38141837D01*
X125478018Y-38141837D01*
X125443917Y-38145375D01*
X125378981Y-38152113D01*
X125284376Y-38183676D01*
X125213427Y-38186262D01*
X125152343Y-38150078D01*
X125120518Y-38086614D01*
X125118500Y-38064153D01*
X125118500Y-37963763D01*
X125119027Y-37952579D01*
X125120701Y-37945091D01*
X125118562Y-37877032D01*
X125118500Y-37873075D01*
X125118500Y-37845144D01*
X125117994Y-37841138D01*
X125117061Y-37829292D01*
X125116476Y-37810655D01*
X125115673Y-37785110D01*
X125110022Y-37765658D01*
X125106014Y-37746306D01*
X125104467Y-37734063D01*
X125103474Y-37726203D01*
X125096167Y-37707747D01*
X125087200Y-37685097D01*
X125083355Y-37673870D01*
X125081673Y-37668082D01*
X125071018Y-37631407D01*
X125066984Y-37624585D01*
X125066981Y-37624579D01*
X125060706Y-37613968D01*
X125052010Y-37596218D01*
X125047472Y-37584756D01*
X125047469Y-37584751D01*
X125044552Y-37577383D01*
X125018573Y-37541625D01*
X125012057Y-37531707D01*
X124993575Y-37500457D01*
X124989542Y-37493637D01*
X124975218Y-37479313D01*
X124962376Y-37464278D01*
X124957374Y-37457393D01*
X124950472Y-37447893D01*
X124916406Y-37419711D01*
X124907627Y-37411722D01*
X124447122Y-36951217D01*
X124413096Y-36888905D01*
X124410907Y-36875292D01*
X124394232Y-36716635D01*
X124394232Y-36716633D01*
X124393542Y-36710072D01*
X124334527Y-36528444D01*
X124239040Y-36363056D01*
X124219926Y-36341827D01*
X124115675Y-36226045D01*
X124115674Y-36226044D01*
X124111253Y-36221134D01*
X123998129Y-36138944D01*
X123962094Y-36112763D01*
X123962093Y-36112762D01*
X123956752Y-36108882D01*
X123950724Y-36106198D01*
X123950722Y-36106197D01*
X123788319Y-36033891D01*
X123788318Y-36033891D01*
X123782288Y-36031206D01*
X123688888Y-36011353D01*
X123601944Y-35992872D01*
X123601939Y-35992872D01*
X123595487Y-35991500D01*
X123404513Y-35991500D01*
X123398061Y-35992872D01*
X123398056Y-35992872D01*
X123311112Y-36011353D01*
X123217712Y-36031206D01*
X123211682Y-36033891D01*
X123211681Y-36033891D01*
X123049278Y-36106197D01*
X123049276Y-36106198D01*
X123043248Y-36108882D01*
X123037907Y-36112762D01*
X123037906Y-36112763D01*
X123001871Y-36138944D01*
X122888747Y-36221134D01*
X122884326Y-36226044D01*
X122884325Y-36226045D01*
X122780075Y-36341827D01*
X122760960Y-36363056D01*
X122665473Y-36528444D01*
X122606458Y-36710072D01*
X122605768Y-36716633D01*
X122605768Y-36716635D01*
X122602579Y-36746981D01*
X122586496Y-36900000D01*
X122587186Y-36906565D01*
X122602509Y-37052352D01*
X122606458Y-37089928D01*
X122665473Y-37271556D01*
X122668776Y-37277278D01*
X122668777Y-37277279D01*
X122702686Y-37336010D01*
X122760960Y-37436944D01*
X122765378Y-37441851D01*
X122765379Y-37441852D01*
X122884052Y-37573652D01*
X122888747Y-37578866D01*
X122971061Y-37638671D01*
X123027354Y-37679570D01*
X123043248Y-37691118D01*
X123049276Y-37693802D01*
X123049278Y-37693803D01*
X123196610Y-37759399D01*
X123217712Y-37768794D01*
X123300574Y-37786407D01*
X123398056Y-37807128D01*
X123398061Y-37807128D01*
X123404513Y-37808500D01*
X123460406Y-37808500D01*
X123528527Y-37828502D01*
X123549501Y-37845405D01*
X123812936Y-38108840D01*
X123846962Y-38171152D01*
X123841897Y-38241967D01*
X123803348Y-38294973D01*
X123801287Y-38296248D01*
X123680448Y-38417298D01*
X123676608Y-38423528D01*
X123676607Y-38423529D01*
X123595255Y-38555507D01*
X123590698Y-38562899D01*
X123536851Y-38725243D01*
X123536151Y-38732080D01*
X123536150Y-38732082D01*
X123534673Y-38746498D01*
X123526500Y-38826268D01*
X123526500Y-39973732D01*
X123537113Y-40076019D01*
X123539295Y-40082559D01*
X123588537Y-40230153D01*
X123591244Y-40238268D01*
X123595096Y-40244492D01*
X123595096Y-40244493D01*
X123670596Y-40366500D01*
X123681248Y-40383713D01*
X123802298Y-40504552D01*
X123804670Y-40506014D01*
X123844655Y-40562412D01*
X123851500Y-40603376D01*
X123851500Y-41982476D01*
X123831498Y-42050597D01*
X123819142Y-42066779D01*
X123745960Y-42148056D01*
X123721785Y-42189928D01*
X123669824Y-42279928D01*
X123650473Y-42313444D01*
X123591458Y-42495072D01*
X123590768Y-42501633D01*
X123590768Y-42501635D01*
X123578485Y-42618500D01*
X123571496Y-42685000D01*
X123572186Y-42691565D01*
X123587324Y-42835592D01*
X123591458Y-42874928D01*
X123650473Y-43056556D01*
X123653776Y-43062278D01*
X123653777Y-43062279D01*
X123684144Y-43114876D01*
X123745960Y-43221944D01*
X123750378Y-43226851D01*
X123750379Y-43226852D01*
X123843447Y-43330214D01*
X123873747Y-43363866D01*
X124028248Y-43476118D01*
X124034276Y-43478802D01*
X124034278Y-43478803D01*
X124196681Y-43551109D01*
X124202712Y-43553794D01*
X124286694Y-43571645D01*
X124383056Y-43592128D01*
X124383061Y-43592128D01*
X124389513Y-43593500D01*
X124445406Y-43593500D01*
X124513527Y-43613502D01*
X124534501Y-43630405D01*
X124739321Y-43835225D01*
X124773347Y-43897537D01*
X124768282Y-43968352D01*
X124725735Y-44025188D01*
X124659215Y-44049999D01*
X124624028Y-44047566D01*
X124601951Y-44042873D01*
X124601942Y-44042872D01*
X124595487Y-44041500D01*
X124404513Y-44041500D01*
X124398061Y-44042872D01*
X124398056Y-44042872D01*
X124324793Y-44058445D01*
X124217712Y-44081206D01*
X124211682Y-44083891D01*
X124211681Y-44083891D01*
X124049278Y-44156197D01*
X124049276Y-44156198D01*
X124043248Y-44158882D01*
X124037907Y-44162762D01*
X124037906Y-44162763D01*
X124027945Y-44170000D01*
X123888747Y-44271134D01*
X123884326Y-44276044D01*
X123884325Y-44276045D01*
X123772292Y-44400471D01*
X123760960Y-44413056D01*
X123733735Y-44460211D01*
X123684664Y-44545205D01*
X123665473Y-44578444D01*
X123606458Y-44760072D01*
X123605768Y-44766633D01*
X123605768Y-44766635D01*
X123598562Y-44835202D01*
X123591266Y-44904621D01*
X123589093Y-44925292D01*
X123562080Y-44990949D01*
X123552878Y-45001218D01*
X123196999Y-45357096D01*
X123134687Y-45391121D01*
X123107904Y-45394000D01*
X119219500Y-45394000D01*
X119151379Y-45373998D01*
X119104886Y-45320342D01*
X119093500Y-45268000D01*
X119093500Y-44378768D01*
X119082887Y-44276481D01*
X119045905Y-44165634D01*
X119031073Y-44121176D01*
X119031072Y-44121174D01*
X119028756Y-44114232D01*
X119009981Y-44083891D01*
X118942606Y-43975015D01*
X118938752Y-43968787D01*
X118817702Y-43847948D01*
X118770049Y-43818574D01*
X118678331Y-43762038D01*
X118678329Y-43762037D01*
X118672101Y-43758198D01*
X118509757Y-43704351D01*
X118502920Y-43703651D01*
X118502918Y-43703650D01*
X118461599Y-43699417D01*
X118408732Y-43694000D01*
X117861268Y-43694000D01*
X117858022Y-43694337D01*
X117858018Y-43694337D01*
X117823917Y-43697875D01*
X117758981Y-43704613D01*
X117740925Y-43710637D01*
X117603676Y-43756427D01*
X117603674Y-43756428D01*
X117596732Y-43758744D01*
X117566220Y-43777626D01*
X117497769Y-43796462D01*
X117433802Y-43777739D01*
X117408333Y-43762039D01*
X117408330Y-43762037D01*
X117402101Y-43758198D01*
X117239757Y-43704351D01*
X117232920Y-43703651D01*
X117232918Y-43703650D01*
X117191599Y-43699417D01*
X117138732Y-43694000D01*
X116591268Y-43694000D01*
X116588022Y-43694337D01*
X116588018Y-43694337D01*
X116553917Y-43697875D01*
X116488981Y-43704613D01*
X116394376Y-43736176D01*
X116323427Y-43738762D01*
X116262343Y-43702578D01*
X116230518Y-43639114D01*
X116228500Y-43616653D01*
X116228500Y-43051895D01*
X116248502Y-42983774D01*
X116302158Y-42937281D01*
X116372432Y-42927177D01*
X116413176Y-42941280D01*
X116413248Y-42941118D01*
X116419276Y-42943802D01*
X116419278Y-42943803D01*
X116581681Y-43016109D01*
X116587712Y-43018794D01*
X116669403Y-43036158D01*
X116768056Y-43057128D01*
X116768061Y-43057128D01*
X116774513Y-43058500D01*
X116965487Y-43058500D01*
X116971939Y-43057128D01*
X116971944Y-43057128D01*
X117070597Y-43036158D01*
X117152288Y-43018794D01*
X117158319Y-43016109D01*
X117320722Y-42943803D01*
X117320724Y-42943802D01*
X117326752Y-42941118D01*
X117347525Y-42926026D01*
X117477230Y-42831789D01*
X117544098Y-42807931D01*
X117613249Y-42824011D01*
X117625352Y-42831789D01*
X117678174Y-42870166D01*
X117693248Y-42881118D01*
X117699276Y-42883802D01*
X117699278Y-42883803D01*
X117834041Y-42943803D01*
X117867712Y-42958794D01*
X117961113Y-42978647D01*
X118048056Y-42997128D01*
X118048061Y-42997128D01*
X118054513Y-42998500D01*
X118245487Y-42998500D01*
X118251939Y-42997128D01*
X118251944Y-42997128D01*
X118338888Y-42978647D01*
X118432288Y-42958794D01*
X118465959Y-42943803D01*
X118600722Y-42883803D01*
X118600724Y-42883802D01*
X118606752Y-42881118D01*
X118623715Y-42868794D01*
X118726930Y-42793803D01*
X118761253Y-42768866D01*
X118765675Y-42763955D01*
X118884621Y-42631852D01*
X118884622Y-42631851D01*
X118889040Y-42626944D01*
X118961686Y-42501118D01*
X118981223Y-42467279D01*
X118981224Y-42467278D01*
X118984527Y-42461556D01*
X119043542Y-42279928D01*
X119052342Y-42196206D01*
X119062814Y-42096565D01*
X119063504Y-42090000D01*
X119059363Y-42050597D01*
X119044232Y-41906635D01*
X119044232Y-41906633D01*
X119043542Y-41900072D01*
X118984527Y-41718444D01*
X118967274Y-41688560D01*
X118929261Y-41622721D01*
X118889040Y-41553056D01*
X118815863Y-41471785D01*
X118785147Y-41407779D01*
X118783500Y-41387476D01*
X118783500Y-40248763D01*
X118784027Y-40237579D01*
X118785701Y-40230091D01*
X118783562Y-40162032D01*
X118783500Y-40158075D01*
X118783500Y-40130144D01*
X118782994Y-40126138D01*
X118782061Y-40114292D01*
X118780922Y-40078037D01*
X118780673Y-40070110D01*
X118775022Y-40050658D01*
X118771014Y-40031306D01*
X118769468Y-40019068D01*
X118769467Y-40019066D01*
X118768474Y-40011203D01*
X118753638Y-39973732D01*
X119716500Y-39973732D01*
X119727113Y-40076019D01*
X119729295Y-40082559D01*
X119778537Y-40230153D01*
X119781244Y-40238268D01*
X119785096Y-40244492D01*
X119785096Y-40244493D01*
X119860596Y-40366500D01*
X119871248Y-40383713D01*
X119992298Y-40504552D01*
X119998528Y-40508392D01*
X119998529Y-40508393D01*
X120131668Y-40590461D01*
X120137899Y-40594302D01*
X120300243Y-40648149D01*
X120307080Y-40648849D01*
X120307082Y-40648850D01*
X120348401Y-40653083D01*
X120401268Y-40658500D01*
X120948732Y-40658500D01*
X120951978Y-40658163D01*
X120951982Y-40658163D01*
X120993442Y-40653861D01*
X121051019Y-40647887D01*
X121119952Y-40624889D01*
X121206324Y-40596073D01*
X121206326Y-40596072D01*
X121213268Y-40593756D01*
X121243780Y-40574874D01*
X121312231Y-40556038D01*
X121376198Y-40574761D01*
X121401667Y-40590461D01*
X121401669Y-40590462D01*
X121407899Y-40594302D01*
X121570243Y-40648149D01*
X121577080Y-40648849D01*
X121577082Y-40648850D01*
X121618401Y-40653083D01*
X121671268Y-40658500D01*
X122218732Y-40658500D01*
X122221978Y-40658163D01*
X122221982Y-40658163D01*
X122263442Y-40653861D01*
X122321019Y-40647887D01*
X122389952Y-40624889D01*
X122476324Y-40596073D01*
X122476326Y-40596072D01*
X122483268Y-40593756D01*
X122513780Y-40574875D01*
X122622485Y-40507606D01*
X122628713Y-40503752D01*
X122749552Y-40382702D01*
X122754162Y-40375223D01*
X122835462Y-40243331D01*
X122835463Y-40243329D01*
X122839302Y-40237101D01*
X122893149Y-40074757D01*
X122903500Y-39973732D01*
X122903500Y-38826268D01*
X122892887Y-38723981D01*
X122860963Y-38628295D01*
X122841073Y-38568676D01*
X122841071Y-38568671D01*
X122838756Y-38561732D01*
X122815593Y-38524300D01*
X122752606Y-38422515D01*
X122748752Y-38416287D01*
X122627702Y-38295448D01*
X122580049Y-38266074D01*
X122488331Y-38209538D01*
X122488329Y-38209537D01*
X122482101Y-38205698D01*
X122319757Y-38151851D01*
X122312920Y-38151151D01*
X122312918Y-38151150D01*
X122270538Y-38146808D01*
X122218732Y-38141500D01*
X121671268Y-38141500D01*
X121668022Y-38141837D01*
X121668018Y-38141837D01*
X121633917Y-38145375D01*
X121568981Y-38152113D01*
X121562440Y-38154295D01*
X121562441Y-38154295D01*
X121413676Y-38203927D01*
X121413674Y-38203928D01*
X121406732Y-38206244D01*
X121376220Y-38225126D01*
X121307769Y-38243962D01*
X121243802Y-38225239D01*
X121218333Y-38209539D01*
X121218330Y-38209537D01*
X121212101Y-38205698D01*
X121049757Y-38151851D01*
X121042920Y-38151151D01*
X121042918Y-38151150D01*
X121000538Y-38146808D01*
X120948732Y-38141500D01*
X120401268Y-38141500D01*
X120398022Y-38141837D01*
X120398018Y-38141837D01*
X120363917Y-38145375D01*
X120298981Y-38152113D01*
X120292440Y-38154295D01*
X120292441Y-38154295D01*
X120143676Y-38203927D01*
X120143674Y-38203928D01*
X120136732Y-38206244D01*
X120130508Y-38210096D01*
X120130507Y-38210096D01*
X120001497Y-38289930D01*
X119991287Y-38296248D01*
X119870448Y-38417298D01*
X119866608Y-38423528D01*
X119866607Y-38423529D01*
X119785255Y-38555507D01*
X119780698Y-38562899D01*
X119726851Y-38725243D01*
X119726151Y-38732080D01*
X119726150Y-38732082D01*
X119724673Y-38746498D01*
X119716500Y-38826268D01*
X119716500Y-39973732D01*
X118753638Y-39973732D01*
X118752194Y-39970086D01*
X118748359Y-39958885D01*
X118736018Y-39916406D01*
X118731985Y-39909587D01*
X118731983Y-39909582D01*
X118725707Y-39898971D01*
X118717010Y-39881221D01*
X118709552Y-39862383D01*
X118683571Y-39826623D01*
X118677053Y-39816701D01*
X118658578Y-39785460D01*
X118658574Y-39785455D01*
X118654542Y-39778637D01*
X118640218Y-39764313D01*
X118627376Y-39749278D01*
X118626717Y-39748371D01*
X118615472Y-39732893D01*
X118581406Y-39704711D01*
X118572627Y-39696722D01*
X117883652Y-39007747D01*
X117876112Y-38999461D01*
X117872000Y-38992982D01*
X117851810Y-38974022D01*
X117829547Y-38953116D01*
X117822348Y-38946356D01*
X117819507Y-38943602D01*
X117799770Y-38923865D01*
X117796573Y-38921385D01*
X117787551Y-38913680D01*
X117755321Y-38883414D01*
X117748375Y-38879595D01*
X117748372Y-38879593D01*
X117737566Y-38873652D01*
X117721047Y-38862801D01*
X117720382Y-38862285D01*
X117705041Y-38850386D01*
X117697772Y-38847241D01*
X117697768Y-38847238D01*
X117664463Y-38832826D01*
X117653813Y-38827609D01*
X117615060Y-38806305D01*
X117595437Y-38801267D01*
X117576734Y-38794863D01*
X117565420Y-38789967D01*
X117565419Y-38789967D01*
X117558145Y-38786819D01*
X117550322Y-38785580D01*
X117550312Y-38785577D01*
X117514476Y-38779901D01*
X117502856Y-38777495D01*
X117467711Y-38768472D01*
X117467710Y-38768472D01*
X117460030Y-38766500D01*
X117439776Y-38766500D01*
X117420065Y-38764949D01*
X117407886Y-38763020D01*
X117400057Y-38761780D01*
X117392165Y-38762526D01*
X117356039Y-38765941D01*
X117344181Y-38766500D01*
X114107862Y-38766500D01*
X114039741Y-38746498D01*
X113993248Y-38692842D01*
X113988345Y-38680394D01*
X113948756Y-38561732D01*
X113925593Y-38524300D01*
X113862606Y-38422515D01*
X113858752Y-38416287D01*
X113737702Y-38295448D01*
X113690049Y-38266074D01*
X113598331Y-38209538D01*
X113598329Y-38209537D01*
X113592101Y-38205698D01*
X113429757Y-38151851D01*
X113422920Y-38151151D01*
X113422918Y-38151150D01*
X113380538Y-38146808D01*
X113328732Y-38141500D01*
X112781268Y-38141500D01*
X112778022Y-38141837D01*
X112778018Y-38141837D01*
X112743917Y-38145375D01*
X112678981Y-38152113D01*
X112672440Y-38154295D01*
X112672441Y-38154295D01*
X112523676Y-38203927D01*
X112523674Y-38203928D01*
X112516732Y-38206244D01*
X112486220Y-38225126D01*
X112417769Y-38243962D01*
X112353802Y-38225239D01*
X112328333Y-38209539D01*
X112328330Y-38209537D01*
X112322101Y-38205698D01*
X112159757Y-38151851D01*
X112152920Y-38151151D01*
X112152918Y-38151150D01*
X112110538Y-38146808D01*
X112058732Y-38141500D01*
X111511268Y-38141500D01*
X111508022Y-38141837D01*
X111508018Y-38141837D01*
X111473917Y-38145375D01*
X111408981Y-38152113D01*
X111402440Y-38154295D01*
X111402441Y-38154295D01*
X111253676Y-38203927D01*
X111253674Y-38203928D01*
X111246732Y-38206244D01*
X111216220Y-38225126D01*
X111147769Y-38243962D01*
X111083802Y-38225239D01*
X111058333Y-38209539D01*
X111058330Y-38209537D01*
X111052101Y-38205698D01*
X110889757Y-38151851D01*
X110882920Y-38151151D01*
X110882918Y-38151150D01*
X110840538Y-38146808D01*
X110788732Y-38141500D01*
X110447979Y-38141500D01*
X110379858Y-38121498D01*
X110333365Y-38067842D01*
X110323261Y-37997568D01*
X110352755Y-37932988D01*
X110363668Y-37921864D01*
X110368237Y-37917750D01*
X110373583Y-37913866D01*
X110378787Y-37908087D01*
X110496951Y-37776852D01*
X110496952Y-37776851D01*
X110501370Y-37771944D01*
X110575456Y-37643624D01*
X110593553Y-37612279D01*
X110593554Y-37612278D01*
X110596857Y-37606556D01*
X110655872Y-37424928D01*
X110657599Y-37408503D01*
X110675144Y-37241565D01*
X110675834Y-37235000D01*
X110661246Y-37096206D01*
X110656562Y-37051635D01*
X110656562Y-37051633D01*
X110655872Y-37045072D01*
X110596857Y-36863444D01*
X110583444Y-36840211D01*
X110548411Y-36779533D01*
X110501370Y-36698056D01*
X110483041Y-36677699D01*
X110378005Y-36561045D01*
X110378004Y-36561044D01*
X110373583Y-36556134D01*
X110241327Y-36460044D01*
X110224424Y-36447763D01*
X110224423Y-36447762D01*
X110219082Y-36443882D01*
X110213054Y-36441198D01*
X110213052Y-36441197D01*
X110050649Y-36368891D01*
X110050648Y-36368891D01*
X110044618Y-36366206D01*
X109958675Y-36347938D01*
X109896201Y-36314209D01*
X109865039Y-36263627D01*
X109849971Y-36217251D01*
X109824527Y-36138944D01*
X109819364Y-36130001D01*
X109818854Y-36127901D01*
X109818539Y-36127193D01*
X109818669Y-36127135D01*
X109802625Y-36061007D01*
X109825844Y-35993914D01*
X109881651Y-35950026D01*
X109928482Y-35941000D01*
X112087072Y-35941000D01*
X112087072Y-32069146D01*
X112107074Y-32001025D01*
X112160730Y-31954532D01*
X112178825Y-31948161D01*
X112184473Y-31947478D01*
X112192003Y-31944497D01*
X112252708Y-31920462D01*
X112326747Y-31891148D01*
X112391500Y-31841998D01*
X112423820Y-31817466D01*
X112490173Y-31792212D01*
X112559647Y-31806840D01*
X112576180Y-31817466D01*
X112608500Y-31841998D01*
X112673253Y-31891148D01*
X112815527Y-31947478D01*
X112823565Y-31948451D01*
X112823566Y-31948451D01*
X112848338Y-31951449D01*
X112906608Y-31958500D01*
X113093392Y-31958500D01*
X113151662Y-31951449D01*
X113176434Y-31948451D01*
X113176435Y-31948451D01*
X113184473Y-31947478D01*
X113326747Y-31891148D01*
X113391500Y-31841998D01*
X113423820Y-31817466D01*
X113490173Y-31792212D01*
X113559647Y-31806840D01*
X113576180Y-31817466D01*
X113608500Y-31841998D01*
X113673253Y-31891148D01*
X113815527Y-31947478D01*
X113823565Y-31948451D01*
X113823566Y-31948451D01*
X113848338Y-31951449D01*
X113906608Y-31958500D01*
X114093392Y-31958500D01*
X114151662Y-31951449D01*
X114176434Y-31948451D01*
X114176435Y-31948451D01*
X114184473Y-31947478D01*
X114197282Y-31942407D01*
X114230657Y-31929193D01*
X114301357Y-31922714D01*
X114364337Y-31955487D01*
X114399601Y-32017106D01*
X114400608Y-32022729D01*
X114401549Y-32026436D01*
X114402522Y-32034473D01*
X114458852Y-32176747D01*
X114551368Y-32298632D01*
X114673253Y-32391148D01*
X114815527Y-32447478D01*
X114823565Y-32448451D01*
X114823566Y-32448451D01*
X114848338Y-32451449D01*
X114906608Y-32458500D01*
X115093392Y-32458500D01*
X115151662Y-32451449D01*
X115176434Y-32448451D01*
X115176435Y-32448451D01*
X115184473Y-32447478D01*
X115326747Y-32391148D01*
X115448632Y-32298632D01*
X115541148Y-32176747D01*
X115597478Y-32034473D01*
X115598451Y-32026434D01*
X115600441Y-32018597D01*
X115603014Y-32019250D01*
X115625911Y-31965987D01*
X115684762Y-31926274D01*
X115755741Y-31924684D01*
X115769343Y-31929193D01*
X115802718Y-31942407D01*
X115815527Y-31947478D01*
X115823565Y-31948451D01*
X115823566Y-31948451D01*
X115848338Y-31951449D01*
X115906608Y-31958500D01*
X116093392Y-31958500D01*
X116151662Y-31951449D01*
X116176434Y-31948451D01*
X116176435Y-31948451D01*
X116184473Y-31947478D01*
X116326747Y-31891148D01*
X116391500Y-31841998D01*
X116423820Y-31817466D01*
X116490173Y-31792212D01*
X116559647Y-31806840D01*
X116576180Y-31817466D01*
X116608500Y-31841998D01*
X116673253Y-31891148D01*
X116815527Y-31947478D01*
X116823565Y-31948451D01*
X116823566Y-31948451D01*
X116848338Y-31951449D01*
X116906608Y-31958500D01*
X117093392Y-31958500D01*
X117151662Y-31951449D01*
X117176434Y-31948451D01*
X117176435Y-31948451D01*
X117184473Y-31947478D01*
X117326747Y-31891148D01*
X117391500Y-31841998D01*
X117423820Y-31817466D01*
X117490173Y-31792212D01*
X117559647Y-31806840D01*
X117576180Y-31817466D01*
X117608500Y-31841998D01*
X117673253Y-31891148D01*
X117747292Y-31920462D01*
X117807998Y-31944497D01*
X117815527Y-31947478D01*
X117819530Y-31947962D01*
X117879045Y-31983178D01*
X117910900Y-32046627D01*
X117912929Y-32069146D01*
X117912929Y-35941000D01*
X122087072Y-35941000D01*
X122087072Y-32069146D01*
X122107074Y-32001025D01*
X122160730Y-31954532D01*
X122178825Y-31948161D01*
X122184473Y-31947478D01*
X122192003Y-31944497D01*
X122252708Y-31920462D01*
X122326747Y-31891148D01*
X122391500Y-31841998D01*
X122423820Y-31817466D01*
X122490173Y-31792212D01*
X122559647Y-31806840D01*
X122576180Y-31817466D01*
X122608500Y-31841998D01*
X122673253Y-31891148D01*
X122815527Y-31947478D01*
X122823565Y-31948451D01*
X122823566Y-31948451D01*
X122848338Y-31951449D01*
X122906608Y-31958500D01*
X123093392Y-31958500D01*
X123151662Y-31951449D01*
X123176434Y-31948451D01*
X123176435Y-31948451D01*
X123184473Y-31947478D01*
X123326747Y-31891148D01*
X123391500Y-31841998D01*
X123423820Y-31817466D01*
X123490173Y-31792212D01*
X123559647Y-31806840D01*
X123576180Y-31817466D01*
X123608500Y-31841998D01*
X123673253Y-31891148D01*
X123815527Y-31947478D01*
X123823565Y-31948451D01*
X123823566Y-31948451D01*
X123848338Y-31951449D01*
X123906608Y-31958500D01*
X124093392Y-31958500D01*
X124151662Y-31951449D01*
X124176434Y-31948451D01*
X124176435Y-31948451D01*
X124184473Y-31947478D01*
X124197282Y-31942407D01*
X124230657Y-31929193D01*
X124301357Y-31922714D01*
X124364337Y-31955487D01*
X124399601Y-32017106D01*
X124400608Y-32022729D01*
X124401549Y-32026436D01*
X124402522Y-32034473D01*
X124458852Y-32176747D01*
X124551368Y-32298632D01*
X124673253Y-32391148D01*
X124815527Y-32447478D01*
X124823565Y-32448451D01*
X124823566Y-32448451D01*
X124848338Y-32451449D01*
X124906608Y-32458500D01*
X125093392Y-32458500D01*
X125151662Y-32451449D01*
X125176434Y-32448451D01*
X125176435Y-32448451D01*
X125184473Y-32447478D01*
X125326747Y-32391148D01*
X125448632Y-32298632D01*
X125541148Y-32176747D01*
X125597478Y-32034473D01*
X125598451Y-32026434D01*
X125600441Y-32018597D01*
X125603014Y-32019250D01*
X125625911Y-31965987D01*
X125684762Y-31926274D01*
X125755741Y-31924684D01*
X125769343Y-31929193D01*
X125802718Y-31942407D01*
X125815527Y-31947478D01*
X125823565Y-31948451D01*
X125823566Y-31948451D01*
X125848338Y-31951449D01*
X125906608Y-31958500D01*
X126093392Y-31958500D01*
X126151662Y-31951449D01*
X126176434Y-31948451D01*
X126176435Y-31948451D01*
X126184473Y-31947478D01*
X126326747Y-31891148D01*
X126391500Y-31841998D01*
X126423820Y-31817466D01*
X126490173Y-31792212D01*
X126559647Y-31806840D01*
X126576180Y-31817466D01*
X126608500Y-31841998D01*
X126673253Y-31891148D01*
X126815527Y-31947478D01*
X126823565Y-31948451D01*
X126823566Y-31948451D01*
X126848338Y-31951449D01*
X126906608Y-31958500D01*
X127093392Y-31958500D01*
X127151662Y-31951449D01*
X127176434Y-31948451D01*
X127176435Y-31948451D01*
X127184473Y-31947478D01*
X127326747Y-31891148D01*
X127391500Y-31841998D01*
X127423820Y-31817466D01*
X127490173Y-31792212D01*
X127559647Y-31806840D01*
X127576180Y-31817466D01*
X127608500Y-31841998D01*
X127673253Y-31891148D01*
X127747292Y-31920462D01*
X127807998Y-31944497D01*
X127815527Y-31947478D01*
X127819530Y-31947962D01*
X127879045Y-31983178D01*
X127910900Y-32046627D01*
X127912929Y-32069146D01*
X127912929Y-35941000D01*
X132087072Y-35941000D01*
X132087072Y-32069146D01*
X132107074Y-32001025D01*
X132160730Y-31954532D01*
X132178825Y-31948161D01*
X132184473Y-31947478D01*
X132192003Y-31944497D01*
X132252708Y-31920462D01*
X132326747Y-31891148D01*
X132391500Y-31841998D01*
X132423820Y-31817466D01*
X132490173Y-31792212D01*
X132559647Y-31806840D01*
X132576180Y-31817466D01*
X132608500Y-31841998D01*
X132673253Y-31891148D01*
X132815527Y-31947478D01*
X132823565Y-31948451D01*
X132823566Y-31948451D01*
X132848338Y-31951449D01*
X132906608Y-31958500D01*
X133093392Y-31958500D01*
X133151662Y-31951449D01*
X133176434Y-31948451D01*
X133176435Y-31948451D01*
X133184473Y-31947478D01*
X133326747Y-31891148D01*
X133391500Y-31841998D01*
X133423820Y-31817466D01*
X133490173Y-31792212D01*
X133559647Y-31806840D01*
X133576180Y-31817466D01*
X133608500Y-31841998D01*
X133673253Y-31891148D01*
X133815527Y-31947478D01*
X133823565Y-31948451D01*
X133823566Y-31948451D01*
X133848338Y-31951449D01*
X133906608Y-31958500D01*
X134093392Y-31958500D01*
X134151662Y-31951449D01*
X134176434Y-31948451D01*
X134176435Y-31948451D01*
X134184473Y-31947478D01*
X134197282Y-31942407D01*
X134230657Y-31929193D01*
X134301357Y-31922714D01*
X134364337Y-31955487D01*
X134399601Y-32017106D01*
X134400608Y-32022729D01*
X134401549Y-32026436D01*
X134402522Y-32034473D01*
X134458852Y-32176747D01*
X134551368Y-32298632D01*
X134673253Y-32391148D01*
X134815527Y-32447478D01*
X134823565Y-32448451D01*
X134823566Y-32448451D01*
X134848338Y-32451449D01*
X134906608Y-32458500D01*
X135093392Y-32458500D01*
X135151662Y-32451449D01*
X135176434Y-32448451D01*
X135176435Y-32448451D01*
X135184473Y-32447478D01*
X135326747Y-32391148D01*
X135448632Y-32298632D01*
X135541148Y-32176747D01*
X135597478Y-32034473D01*
X135598451Y-32026434D01*
X135600441Y-32018597D01*
X135603014Y-32019250D01*
X135625911Y-31965987D01*
X135684762Y-31926274D01*
X135755741Y-31924684D01*
X135769343Y-31929193D01*
X135802718Y-31942407D01*
X135815527Y-31947478D01*
X135823565Y-31948451D01*
X135823566Y-31948451D01*
X135848338Y-31951449D01*
X135906608Y-31958500D01*
X136093392Y-31958500D01*
X136151662Y-31951449D01*
X136176434Y-31948451D01*
X136176435Y-31948451D01*
X136184473Y-31947478D01*
X136326747Y-31891148D01*
X136391500Y-31841998D01*
X136423820Y-31817466D01*
X136490173Y-31792212D01*
X136559647Y-31806840D01*
X136576180Y-31817466D01*
X136608500Y-31841998D01*
X136673253Y-31891148D01*
X136815527Y-31947478D01*
X136823565Y-31948451D01*
X136823566Y-31948451D01*
X136848338Y-31951449D01*
X136906608Y-31958500D01*
X137093392Y-31958500D01*
X137151662Y-31951449D01*
X137176434Y-31948451D01*
X137176435Y-31948451D01*
X137184473Y-31947478D01*
X137326747Y-31891148D01*
X137391500Y-31841998D01*
X137423820Y-31817466D01*
X137490173Y-31792212D01*
X137559647Y-31806840D01*
X137576180Y-31817466D01*
X137608500Y-31841998D01*
X137673253Y-31891148D01*
X137815527Y-31947478D01*
X137823565Y-31948451D01*
X137823566Y-31948451D01*
X137848338Y-31951449D01*
X137906608Y-31958500D01*
X138093392Y-31958500D01*
X138151662Y-31951449D01*
X138176434Y-31948451D01*
X138176435Y-31948451D01*
X138184473Y-31947478D01*
X138326747Y-31891148D01*
X138391500Y-31841998D01*
X138423820Y-31817466D01*
X138490173Y-31792212D01*
X138559647Y-31806840D01*
G37*
%TD.AperFunction*%
%TA.AperFunction,Conductor*%
G36*
X87617012Y-39853370D02*
G01*
X87623595Y-39859499D01*
X88979595Y-41215499D01*
X89013621Y-41277811D01*
X89016500Y-41304594D01*
X89016500Y-42498434D01*
X88996498Y-42566555D01*
X88956335Y-42605867D01*
X88764798Y-42723241D01*
X88764792Y-42723245D01*
X88760584Y-42725824D01*
X88580031Y-42880031D01*
X88425824Y-43060584D01*
X88423245Y-43064792D01*
X88423241Y-43064798D01*
X88332538Y-43212812D01*
X88301760Y-43263037D01*
X88299867Y-43267607D01*
X88299865Y-43267611D01*
X88212789Y-43477833D01*
X88210895Y-43482406D01*
X88206561Y-43500460D01*
X88157548Y-43704613D01*
X88155465Y-43713289D01*
X88136835Y-43950000D01*
X88155465Y-44186711D01*
X88156619Y-44191518D01*
X88156620Y-44191524D01*
X88178663Y-44283337D01*
X88210895Y-44417594D01*
X88212788Y-44422165D01*
X88212789Y-44422167D01*
X88299772Y-44632163D01*
X88301760Y-44636963D01*
X88304346Y-44641183D01*
X88423241Y-44835202D01*
X88423245Y-44835208D01*
X88425824Y-44839416D01*
X88580031Y-45019969D01*
X88583787Y-45023177D01*
X88583792Y-45023182D01*
X88758257Y-45172189D01*
X88797067Y-45231639D01*
X88797574Y-45302634D01*
X88759617Y-45362633D01*
X88695249Y-45392586D01*
X88676427Y-45394000D01*
X86110114Y-45394000D01*
X86041993Y-45373998D01*
X85995500Y-45320342D01*
X85985396Y-45250068D01*
X86016679Y-45183467D01*
X86017907Y-45182110D01*
X86014124Y-45173334D01*
X84879885Y-44039095D01*
X84845859Y-43976783D01*
X84847694Y-43951132D01*
X85514408Y-43951132D01*
X85514539Y-43952965D01*
X85518790Y-43959580D01*
X86370290Y-44811080D01*
X86382670Y-44817840D01*
X86390320Y-44812113D01*
X86495205Y-44640958D01*
X86499687Y-44632163D01*
X86586734Y-44422012D01*
X86589783Y-44412627D01*
X86642885Y-44191446D01*
X86644428Y-44181699D01*
X86662275Y-43954930D01*
X86662275Y-43945070D01*
X86644428Y-43718301D01*
X86642885Y-43708554D01*
X86589783Y-43487373D01*
X86586734Y-43477988D01*
X86499687Y-43267837D01*
X86495205Y-43259042D01*
X86392568Y-43091555D01*
X86382110Y-43082093D01*
X86373334Y-43085876D01*
X85522022Y-43937188D01*
X85514408Y-43951132D01*
X84847694Y-43951132D01*
X84850924Y-43905968D01*
X84879885Y-43860905D01*
X86011080Y-42729710D01*
X86017840Y-42717330D01*
X86012113Y-42709680D01*
X85840958Y-42604795D01*
X85832163Y-42600313D01*
X85622012Y-42513266D01*
X85612627Y-42510217D01*
X85391446Y-42457115D01*
X85381699Y-42455572D01*
X85154930Y-42437725D01*
X85145070Y-42437725D01*
X84918301Y-42455572D01*
X84908554Y-42457115D01*
X84687373Y-42510217D01*
X84677988Y-42513266D01*
X84607718Y-42542373D01*
X84537128Y-42549962D01*
X84473641Y-42518183D01*
X84437414Y-42457125D01*
X84433500Y-42425964D01*
X84433500Y-41328768D01*
X84434027Y-41317585D01*
X84435702Y-41310092D01*
X84434688Y-41277811D01*
X84433562Y-41242002D01*
X84433500Y-41238044D01*
X84433500Y-41210144D01*
X84432996Y-41206150D01*
X84432063Y-41194311D01*
X84431724Y-41183500D01*
X84430674Y-41150111D01*
X84426339Y-41135190D01*
X84426540Y-41064195D01*
X84461650Y-41009901D01*
X84399259Y-40989212D01*
X84361528Y-40947374D01*
X84359552Y-40942383D01*
X84333563Y-40906612D01*
X84327047Y-40896692D01*
X84318416Y-40882098D01*
X84304542Y-40858638D01*
X84290221Y-40844317D01*
X84277380Y-40829283D01*
X84274447Y-40825246D01*
X84265472Y-40812893D01*
X84231395Y-40784702D01*
X84222616Y-40776712D01*
X84174499Y-40728595D01*
X84140473Y-40666283D01*
X84145538Y-40595468D01*
X84188085Y-40538632D01*
X84254605Y-40513821D01*
X84263594Y-40513500D01*
X84465500Y-40513500D01*
X84533621Y-40533502D01*
X84580114Y-40587158D01*
X84591500Y-40639500D01*
X84591500Y-40828134D01*
X84591869Y-40831531D01*
X84596268Y-40872025D01*
X84583740Y-40941908D01*
X84549993Y-40978235D01*
X84600001Y-40985570D01*
X84648212Y-41027584D01*
X84649385Y-41026705D01*
X84736739Y-41143261D01*
X84853295Y-41230615D01*
X84989684Y-41281745D01*
X85051866Y-41288500D01*
X86948134Y-41288500D01*
X87010316Y-41281745D01*
X87146705Y-41230615D01*
X87263261Y-41143261D01*
X87350615Y-41026705D01*
X87401745Y-40890316D01*
X87408500Y-40828134D01*
X87408500Y-39948594D01*
X87428502Y-39880473D01*
X87482158Y-39833980D01*
X87552432Y-39823876D01*
X87617012Y-39853370D01*
G37*
%TD.AperFunction*%
%TD*%
M02*
