%TF.GenerationSoftware,KiCad,Pcbnew,(6.0.10)*%
%TF.CreationDate,2024-05-12T12:00:46+09:00*%
%TF.ProjectId,simpleLogicCircuit,73696d70-6c65-44c6-9f67-696343697263,rev?*%
%TF.SameCoordinates,Original*%
%TF.FileFunction,Paste,Top*%
%TF.FilePolarity,Positive*%
%FSLAX46Y46*%
G04 Gerber Fmt 4.6, Leading zero omitted, Abs format (unit mm)*
G04 Created by KiCad (PCBNEW (6.0.10)) date 2024-05-12 12:00:46*
%MOMM*%
%LPD*%
G01*
G04 APERTURE LIST*
G04 Aperture macros list*
%AMRoundRect*
0 Rectangle with rounded corners*
0 $1 Rounding radius*
0 $2 $3 $4 $5 $6 $7 $8 $9 X,Y pos of 4 corners*
0 Add a 4 corners polygon primitive as box body*
4,1,4,$2,$3,$4,$5,$6,$7,$8,$9,$2,$3,0*
0 Add four circle primitives for the rounded corners*
1,1,$1+$1,$2,$3*
1,1,$1+$1,$4,$5*
1,1,$1+$1,$6,$7*
1,1,$1+$1,$8,$9*
0 Add four rect primitives between the rounded corners*
20,1,$1+$1,$2,$3,$4,$5,0*
20,1,$1+$1,$4,$5,$6,$7,0*
20,1,$1+$1,$6,$7,$8,$9,0*
20,1,$1+$1,$8,$9,$2,$3,0*%
G04 Aperture macros list end*
%ADD10RoundRect,0.225000X-0.225000X-0.525000X0.225000X-0.525000X0.225000X0.525000X-0.225000X0.525000X0*%
%ADD11RoundRect,0.050000X-0.050000X-1.200000X0.050000X-1.200000X0.050000X1.200000X-0.050000X1.200000X0*%
%ADD12RoundRect,0.050000X-0.050000X-0.950000X0.050000X-0.950000X0.050000X0.950000X-0.050000X0.950000X0*%
%ADD13RoundRect,0.050000X-0.050000X-0.700000X0.050000X-0.700000X0.050000X0.700000X-0.050000X0.700000X0*%
G04 APERTURE END LIST*
D10*
%TO.C,AND*%
X105435000Y-44952500D03*
X106705000Y-44952500D03*
X110515000Y-44952500D03*
X111785000Y-44952500D03*
X115595000Y-44952500D03*
X116865000Y-44952500D03*
X118135000Y-44952500D03*
X128295000Y-44952500D03*
X129565000Y-44952500D03*
%TD*%
%TO.C,XOR*%
X105435000Y-50600000D03*
X106705000Y-50600000D03*
X107975000Y-50600000D03*
X110515000Y-50600000D03*
X111785000Y-50600000D03*
X113055000Y-50600000D03*
X115595000Y-50600000D03*
X116865000Y-50600000D03*
X118135000Y-50600000D03*
X120675000Y-50600000D03*
X121945000Y-50600000D03*
X124485000Y-50600000D03*
X125755000Y-50600000D03*
X128295000Y-50600000D03*
X129565000Y-50600000D03*
%TD*%
%TO.C,OR*%
X105435000Y-39400000D03*
X106705000Y-39400000D03*
X107975000Y-39400000D03*
X110515000Y-39400000D03*
X111785000Y-39400000D03*
X113055000Y-39400000D03*
X120675000Y-39400000D03*
X121945000Y-39400000D03*
X124485000Y-39400000D03*
X125755000Y-39400000D03*
X128295000Y-39400000D03*
X129565000Y-39400000D03*
%TD*%
D11*
%TO.C,REF\u002A\u002A*%
X60000000Y-31200000D03*
X70000000Y-31200000D03*
X130000000Y-31200000D03*
X90000000Y-31200000D03*
X120000000Y-31200000D03*
X110000000Y-31200000D03*
X80000000Y-31200000D03*
X100000000Y-31200000D03*
X50000000Y-31200000D03*
D12*
X135000000Y-30950000D03*
X75000000Y-30950000D03*
X115000000Y-30950000D03*
X95000000Y-30950000D03*
X55000000Y-30950000D03*
X125000000Y-30950000D03*
X105000000Y-30950000D03*
X85000000Y-30950000D03*
X45000000Y-30950000D03*
X65000000Y-30950000D03*
D13*
X74000000Y-30700000D03*
X64000000Y-30700000D03*
X44000000Y-30700000D03*
X94000000Y-30700000D03*
X84000000Y-30700000D03*
X114000000Y-30700000D03*
X134000000Y-30700000D03*
X124000000Y-30700000D03*
X104000000Y-30700000D03*
X54000000Y-30700000D03*
X103000000Y-30700000D03*
X83000000Y-30700000D03*
X53000000Y-30700000D03*
X93000000Y-30700000D03*
X113000000Y-30700000D03*
X73000000Y-30700000D03*
X63000000Y-30700000D03*
X123000000Y-30700000D03*
X133000000Y-30700000D03*
X43000000Y-30700000D03*
X62000000Y-30700000D03*
X82000000Y-30700000D03*
X102000000Y-30700000D03*
X122000000Y-30700000D03*
X92000000Y-30700000D03*
X132000000Y-30700000D03*
X42000000Y-30700000D03*
X52000000Y-30700000D03*
X72000000Y-30700000D03*
X112000000Y-30700000D03*
X121000000Y-30700000D03*
X81000000Y-30700000D03*
X71000000Y-30700000D03*
X41000000Y-30700000D03*
X111000000Y-30700000D03*
X131000000Y-30700000D03*
X101000000Y-30700000D03*
X91000000Y-30700000D03*
X51000000Y-30700000D03*
X61000000Y-30700000D03*
X76000000Y-30700000D03*
X106000000Y-30700000D03*
X46000000Y-30700000D03*
X96000000Y-30700000D03*
X126000000Y-30700000D03*
X56000000Y-30700000D03*
X66000000Y-30700000D03*
X136000000Y-30700000D03*
X116000000Y-30700000D03*
X86000000Y-30700000D03*
X77000000Y-30700000D03*
X47000000Y-30700000D03*
X87000000Y-30700000D03*
X117000000Y-30700000D03*
X137000000Y-30700000D03*
X67000000Y-30700000D03*
X57000000Y-30700000D03*
X127000000Y-30700000D03*
X97000000Y-30700000D03*
X107000000Y-30700000D03*
X108000000Y-30700000D03*
X68000000Y-30700000D03*
X48000000Y-30700000D03*
X138000000Y-30700000D03*
X128000000Y-30700000D03*
X78000000Y-30700000D03*
X88000000Y-30700000D03*
X118000000Y-30700000D03*
X58000000Y-30700000D03*
X98000000Y-30700000D03*
X79000000Y-30700000D03*
X99000000Y-30700000D03*
X119000000Y-30700000D03*
X49000000Y-30700000D03*
X129000000Y-30700000D03*
X89000000Y-30700000D03*
X69000000Y-30700000D03*
X59000000Y-30700000D03*
X109000000Y-30700000D03*
X139000000Y-30700000D03*
%TD*%
M02*
