%TF.GenerationSoftware,KiCad,Pcbnew,(6.0.10)*%
%TF.CreationDate,2024-05-12T12:16:17+09:00*%
%TF.ProjectId,simpleLogicCircuit_4x1_v1.3,73696d70-6c65-44c6-9f67-696343697263,rev?*%
%TF.SameCoordinates,Original*%
%TF.FileFunction,Soldermask,Top*%
%TF.FilePolarity,Negative*%
%FSLAX46Y46*%
G04 Gerber Fmt 4.6, Leading zero omitted, Abs format (unit mm)*
G04 Created by KiCad (PCBNEW (6.0.10)) date 2024-05-12 12:16:17*
%MOMM*%
%LPD*%
G01*
G04 APERTURE LIST*
G04 Aperture macros list*
%AMRoundRect*
0 Rectangle with rounded corners*
0 $1 Rounding radius*
0 $2 $3 $4 $5 $6 $7 $8 $9 X,Y pos of 4 corners*
0 Add a 4 corners polygon primitive as box body*
4,1,4,$2,$3,$4,$5,$6,$7,$8,$9,$2,$3,0*
0 Add four circle primitives for the rounded corners*
1,1,$1+$1,$2,$3*
1,1,$1+$1,$4,$5*
1,1,$1+$1,$6,$7*
1,1,$1+$1,$8,$9*
0 Add four rect primitives between the rounded corners*
20,1,$1+$1,$2,$3,$4,$5,0*
20,1,$1+$1,$4,$5,$6,$7,0*
20,1,$1+$1,$6,$7,$8,$9,0*
20,1,$1+$1,$8,$9,$2,$3,0*%
G04 Aperture macros list end*
%ADD10C,0.300000*%
%ADD11R,1.800000X1.800000*%
%ADD12C,1.800000*%
%ADD13RoundRect,0.225000X-0.225000X-0.525000X0.225000X-0.525000X0.225000X0.525000X-0.225000X0.525000X0*%
%ADD14R,1.600000X1.600000*%
%ADD15O,1.600000X1.600000*%
%ADD16C,1.400000*%
%ADD17O,1.400000X1.400000*%
%ADD18C,2.000000*%
%ADD19O,4.000000X9.000000*%
%ADD20O,2.000000X1.300000*%
%ADD21RoundRect,0.050000X-0.050000X-1.200000X0.050000X-1.200000X0.050000X1.200000X-0.050000X1.200000X0*%
%ADD22RoundRect,0.050000X-0.050000X-0.950000X0.050000X-0.950000X0.050000X0.950000X-0.050000X0.950000X0*%
%ADD23RoundRect,0.050000X-0.050000X-0.700000X0.050000X-0.700000X0.050000X0.700000X-0.050000X0.700000X0*%
G04 APERTURE END LIST*
D10*
%TO.C,REF\u002A\u002A*%
X132192857Y-106801428D02*
X132050000Y-106730000D01*
X131978571Y-106658571D01*
X131907142Y-106515714D01*
X131907142Y-106444285D01*
X131978571Y-106301428D01*
X132050000Y-106230000D01*
X132192857Y-106158571D01*
X132478571Y-106158571D01*
X132621428Y-106230000D01*
X132692857Y-106301428D01*
X132764285Y-106444285D01*
X132764285Y-106515714D01*
X132692857Y-106658571D01*
X132621428Y-106730000D01*
X132478571Y-106801428D01*
X132192857Y-106801428D01*
X132050000Y-106872857D01*
X131978571Y-106944285D01*
X131907142Y-107087142D01*
X131907142Y-107372857D01*
X131978571Y-107515714D01*
X132050000Y-107587142D01*
X132192857Y-107658571D01*
X132478571Y-107658571D01*
X132621428Y-107587142D01*
X132692857Y-107515714D01*
X132764285Y-107372857D01*
X132764285Y-107087142D01*
X132692857Y-106944285D01*
X132621428Y-106872857D01*
X132478571Y-106801428D01*
X133692857Y-106158571D02*
X133835714Y-106158571D01*
X133978571Y-106230000D01*
X134050000Y-106301428D01*
X134121428Y-106444285D01*
X134192857Y-106730000D01*
X134192857Y-107087142D01*
X134121428Y-107372857D01*
X134050000Y-107515714D01*
X133978571Y-107587142D01*
X133835714Y-107658571D01*
X133692857Y-107658571D01*
X133550000Y-107587142D01*
X133478571Y-107515714D01*
X133407142Y-107372857D01*
X133335714Y-107087142D01*
X133335714Y-106730000D01*
X133407142Y-106444285D01*
X133478571Y-106301428D01*
X133550000Y-106230000D01*
X133692857Y-106158571D01*
X71907142Y-106301428D02*
X71978571Y-106230000D01*
X72121428Y-106158571D01*
X72478571Y-106158571D01*
X72621428Y-106230000D01*
X72692857Y-106301428D01*
X72764285Y-106444285D01*
X72764285Y-106587142D01*
X72692857Y-106801428D01*
X71835714Y-107658571D01*
X72764285Y-107658571D01*
X73692857Y-106158571D02*
X73835714Y-106158571D01*
X73978571Y-106230000D01*
X74050000Y-106301428D01*
X74121428Y-106444285D01*
X74192857Y-106730000D01*
X74192857Y-107087142D01*
X74121428Y-107372857D01*
X74050000Y-107515714D01*
X73978571Y-107587142D01*
X73835714Y-107658571D01*
X73692857Y-107658571D01*
X73550000Y-107587142D01*
X73478571Y-107515714D01*
X73407142Y-107372857D01*
X73335714Y-107087142D01*
X73335714Y-106730000D01*
X73407142Y-106444285D01*
X73478571Y-106301428D01*
X73550000Y-106230000D01*
X73692857Y-106158571D01*
X121835714Y-106158571D02*
X122835714Y-106158571D01*
X122192857Y-107658571D01*
X123692857Y-106158571D02*
X123835714Y-106158571D01*
X123978571Y-106230000D01*
X124050000Y-106301428D01*
X124121428Y-106444285D01*
X124192857Y-106730000D01*
X124192857Y-107087142D01*
X124121428Y-107372857D01*
X124050000Y-107515714D01*
X123978571Y-107587142D01*
X123835714Y-107658571D01*
X123692857Y-107658571D01*
X123550000Y-107587142D01*
X123478571Y-107515714D01*
X123407142Y-107372857D01*
X123335714Y-107087142D01*
X123335714Y-106730000D01*
X123407142Y-106444285D01*
X123478571Y-106301428D01*
X123550000Y-106230000D01*
X123692857Y-106158571D01*
X102692857Y-106158571D02*
X101978571Y-106158571D01*
X101907142Y-106872857D01*
X101978571Y-106801428D01*
X102121428Y-106730000D01*
X102478571Y-106730000D01*
X102621428Y-106801428D01*
X102692857Y-106872857D01*
X102764285Y-107015714D01*
X102764285Y-107372857D01*
X102692857Y-107515714D01*
X102621428Y-107587142D01*
X102478571Y-107658571D01*
X102121428Y-107658571D01*
X101978571Y-107587142D01*
X101907142Y-107515714D01*
X103692857Y-106158571D02*
X103835714Y-106158571D01*
X103978571Y-106230000D01*
X104050000Y-106301428D01*
X104121428Y-106444285D01*
X104192857Y-106730000D01*
X104192857Y-107087142D01*
X104121428Y-107372857D01*
X104050000Y-107515714D01*
X103978571Y-107587142D01*
X103835714Y-107658571D01*
X103692857Y-107658571D01*
X103550000Y-107587142D01*
X103478571Y-107515714D01*
X103407142Y-107372857D01*
X103335714Y-107087142D01*
X103335714Y-106730000D01*
X103407142Y-106444285D01*
X103478571Y-106301428D01*
X103550000Y-106230000D01*
X103692857Y-106158571D01*
X142050000Y-107658571D02*
X142335714Y-107658571D01*
X142478571Y-107587142D01*
X142550000Y-107515714D01*
X142692857Y-107301428D01*
X142764285Y-107015714D01*
X142764285Y-106444285D01*
X142692857Y-106301428D01*
X142621428Y-106230000D01*
X142478571Y-106158571D01*
X142192857Y-106158571D01*
X142050000Y-106230000D01*
X141978571Y-106301428D01*
X141907142Y-106444285D01*
X141907142Y-106801428D01*
X141978571Y-106944285D01*
X142050000Y-107015714D01*
X142192857Y-107087142D01*
X142478571Y-107087142D01*
X142621428Y-107015714D01*
X142692857Y-106944285D01*
X142764285Y-106801428D01*
X143692857Y-106158571D02*
X143835714Y-106158571D01*
X143978571Y-106230000D01*
X144050000Y-106301428D01*
X144121428Y-106444285D01*
X144192857Y-106730000D01*
X144192857Y-107087142D01*
X144121428Y-107372857D01*
X144050000Y-107515714D01*
X143978571Y-107587142D01*
X143835714Y-107658571D01*
X143692857Y-107658571D01*
X143550000Y-107587142D01*
X143478571Y-107515714D01*
X143407142Y-107372857D01*
X143335714Y-107087142D01*
X143335714Y-106730000D01*
X143407142Y-106444285D01*
X143478571Y-106301428D01*
X143550000Y-106230000D01*
X143692857Y-106158571D01*
X62764285Y-107658571D02*
X61907142Y-107658571D01*
X62335714Y-107658571D02*
X62335714Y-106158571D01*
X62192857Y-106372857D01*
X62050000Y-106515714D01*
X61907142Y-106587142D01*
X63692857Y-106158571D02*
X63835714Y-106158571D01*
X63978571Y-106230000D01*
X64050000Y-106301428D01*
X64121428Y-106444285D01*
X64192857Y-106730000D01*
X64192857Y-107087142D01*
X64121428Y-107372857D01*
X64050000Y-107515714D01*
X63978571Y-107587142D01*
X63835714Y-107658571D01*
X63692857Y-107658571D01*
X63550000Y-107587142D01*
X63478571Y-107515714D01*
X63407142Y-107372857D01*
X63335714Y-107087142D01*
X63335714Y-106730000D01*
X63407142Y-106444285D01*
X63478571Y-106301428D01*
X63550000Y-106230000D01*
X63692857Y-106158571D01*
X92621428Y-106658571D02*
X92621428Y-107658571D01*
X92264285Y-106087142D02*
X91907142Y-107158571D01*
X92835714Y-107158571D01*
X93692857Y-106158571D02*
X93835714Y-106158571D01*
X93978571Y-106230000D01*
X94050000Y-106301428D01*
X94121428Y-106444285D01*
X94192857Y-106730000D01*
X94192857Y-107087142D01*
X94121428Y-107372857D01*
X94050000Y-107515714D01*
X93978571Y-107587142D01*
X93835714Y-107658571D01*
X93692857Y-107658571D01*
X93550000Y-107587142D01*
X93478571Y-107515714D01*
X93407142Y-107372857D01*
X93335714Y-107087142D01*
X93335714Y-106730000D01*
X93407142Y-106444285D01*
X93478571Y-106301428D01*
X93550000Y-106230000D01*
X93692857Y-106158571D01*
X81835714Y-106158571D02*
X82764285Y-106158571D01*
X82264285Y-106730000D01*
X82478571Y-106730000D01*
X82621428Y-106801428D01*
X82692857Y-106872857D01*
X82764285Y-107015714D01*
X82764285Y-107372857D01*
X82692857Y-107515714D01*
X82621428Y-107587142D01*
X82478571Y-107658571D01*
X82050000Y-107658571D01*
X81907142Y-107587142D01*
X81835714Y-107515714D01*
X83692857Y-106158571D02*
X83835714Y-106158571D01*
X83978571Y-106230000D01*
X84050000Y-106301428D01*
X84121428Y-106444285D01*
X84192857Y-106730000D01*
X84192857Y-107087142D01*
X84121428Y-107372857D01*
X84050000Y-107515714D01*
X83978571Y-107587142D01*
X83835714Y-107658571D01*
X83692857Y-107658571D01*
X83550000Y-107587142D01*
X83478571Y-107515714D01*
X83407142Y-107372857D01*
X83335714Y-107087142D01*
X83335714Y-106730000D01*
X83407142Y-106444285D01*
X83478571Y-106301428D01*
X83550000Y-106230000D01*
X83692857Y-106158571D01*
X112621428Y-106158571D02*
X112335714Y-106158571D01*
X112192857Y-106230000D01*
X112121428Y-106301428D01*
X111978571Y-106515714D01*
X111907142Y-106801428D01*
X111907142Y-107372857D01*
X111978571Y-107515714D01*
X112050000Y-107587142D01*
X112192857Y-107658571D01*
X112478571Y-107658571D01*
X112621428Y-107587142D01*
X112692857Y-107515714D01*
X112764285Y-107372857D01*
X112764285Y-107015714D01*
X112692857Y-106872857D01*
X112621428Y-106801428D01*
X112478571Y-106730000D01*
X112192857Y-106730000D01*
X112050000Y-106801428D01*
X111978571Y-106872857D01*
X111907142Y-107015714D01*
X113692857Y-106158571D02*
X113835714Y-106158571D01*
X113978571Y-106230000D01*
X114050000Y-106301428D01*
X114121428Y-106444285D01*
X114192857Y-106730000D01*
X114192857Y-107087142D01*
X114121428Y-107372857D01*
X114050000Y-107515714D01*
X113978571Y-107587142D01*
X113835714Y-107658571D01*
X113692857Y-107658571D01*
X113550000Y-107587142D01*
X113478571Y-107515714D01*
X113407142Y-107372857D01*
X113335714Y-107087142D01*
X113335714Y-106730000D01*
X113407142Y-106444285D01*
X113478571Y-106301428D01*
X113550000Y-106230000D01*
X113692857Y-106158571D01*
X132192857Y-81801428D02*
X132050000Y-81730000D01*
X131978571Y-81658571D01*
X131907142Y-81515714D01*
X131907142Y-81444285D01*
X131978571Y-81301428D01*
X132050000Y-81230000D01*
X132192857Y-81158571D01*
X132478571Y-81158571D01*
X132621428Y-81230000D01*
X132692857Y-81301428D01*
X132764285Y-81444285D01*
X132764285Y-81515714D01*
X132692857Y-81658571D01*
X132621428Y-81730000D01*
X132478571Y-81801428D01*
X132192857Y-81801428D01*
X132050000Y-81872857D01*
X131978571Y-81944285D01*
X131907142Y-82087142D01*
X131907142Y-82372857D01*
X131978571Y-82515714D01*
X132050000Y-82587142D01*
X132192857Y-82658571D01*
X132478571Y-82658571D01*
X132621428Y-82587142D01*
X132692857Y-82515714D01*
X132764285Y-82372857D01*
X132764285Y-82087142D01*
X132692857Y-81944285D01*
X132621428Y-81872857D01*
X132478571Y-81801428D01*
X133692857Y-81158571D02*
X133835714Y-81158571D01*
X133978571Y-81230000D01*
X134050000Y-81301428D01*
X134121428Y-81444285D01*
X134192857Y-81730000D01*
X134192857Y-82087142D01*
X134121428Y-82372857D01*
X134050000Y-82515714D01*
X133978571Y-82587142D01*
X133835714Y-82658571D01*
X133692857Y-82658571D01*
X133550000Y-82587142D01*
X133478571Y-82515714D01*
X133407142Y-82372857D01*
X133335714Y-82087142D01*
X133335714Y-81730000D01*
X133407142Y-81444285D01*
X133478571Y-81301428D01*
X133550000Y-81230000D01*
X133692857Y-81158571D01*
X71907142Y-81301428D02*
X71978571Y-81230000D01*
X72121428Y-81158571D01*
X72478571Y-81158571D01*
X72621428Y-81230000D01*
X72692857Y-81301428D01*
X72764285Y-81444285D01*
X72764285Y-81587142D01*
X72692857Y-81801428D01*
X71835714Y-82658571D01*
X72764285Y-82658571D01*
X73692857Y-81158571D02*
X73835714Y-81158571D01*
X73978571Y-81230000D01*
X74050000Y-81301428D01*
X74121428Y-81444285D01*
X74192857Y-81730000D01*
X74192857Y-82087142D01*
X74121428Y-82372857D01*
X74050000Y-82515714D01*
X73978571Y-82587142D01*
X73835714Y-82658571D01*
X73692857Y-82658571D01*
X73550000Y-82587142D01*
X73478571Y-82515714D01*
X73407142Y-82372857D01*
X73335714Y-82087142D01*
X73335714Y-81730000D01*
X73407142Y-81444285D01*
X73478571Y-81301428D01*
X73550000Y-81230000D01*
X73692857Y-81158571D01*
X121835714Y-81158571D02*
X122835714Y-81158571D01*
X122192857Y-82658571D01*
X123692857Y-81158571D02*
X123835714Y-81158571D01*
X123978571Y-81230000D01*
X124050000Y-81301428D01*
X124121428Y-81444285D01*
X124192857Y-81730000D01*
X124192857Y-82087142D01*
X124121428Y-82372857D01*
X124050000Y-82515714D01*
X123978571Y-82587142D01*
X123835714Y-82658571D01*
X123692857Y-82658571D01*
X123550000Y-82587142D01*
X123478571Y-82515714D01*
X123407142Y-82372857D01*
X123335714Y-82087142D01*
X123335714Y-81730000D01*
X123407142Y-81444285D01*
X123478571Y-81301428D01*
X123550000Y-81230000D01*
X123692857Y-81158571D01*
X102692857Y-81158571D02*
X101978571Y-81158571D01*
X101907142Y-81872857D01*
X101978571Y-81801428D01*
X102121428Y-81730000D01*
X102478571Y-81730000D01*
X102621428Y-81801428D01*
X102692857Y-81872857D01*
X102764285Y-82015714D01*
X102764285Y-82372857D01*
X102692857Y-82515714D01*
X102621428Y-82587142D01*
X102478571Y-82658571D01*
X102121428Y-82658571D01*
X101978571Y-82587142D01*
X101907142Y-82515714D01*
X103692857Y-81158571D02*
X103835714Y-81158571D01*
X103978571Y-81230000D01*
X104050000Y-81301428D01*
X104121428Y-81444285D01*
X104192857Y-81730000D01*
X104192857Y-82087142D01*
X104121428Y-82372857D01*
X104050000Y-82515714D01*
X103978571Y-82587142D01*
X103835714Y-82658571D01*
X103692857Y-82658571D01*
X103550000Y-82587142D01*
X103478571Y-82515714D01*
X103407142Y-82372857D01*
X103335714Y-82087142D01*
X103335714Y-81730000D01*
X103407142Y-81444285D01*
X103478571Y-81301428D01*
X103550000Y-81230000D01*
X103692857Y-81158571D01*
X142050000Y-82658571D02*
X142335714Y-82658571D01*
X142478571Y-82587142D01*
X142550000Y-82515714D01*
X142692857Y-82301428D01*
X142764285Y-82015714D01*
X142764285Y-81444285D01*
X142692857Y-81301428D01*
X142621428Y-81230000D01*
X142478571Y-81158571D01*
X142192857Y-81158571D01*
X142050000Y-81230000D01*
X141978571Y-81301428D01*
X141907142Y-81444285D01*
X141907142Y-81801428D01*
X141978571Y-81944285D01*
X142050000Y-82015714D01*
X142192857Y-82087142D01*
X142478571Y-82087142D01*
X142621428Y-82015714D01*
X142692857Y-81944285D01*
X142764285Y-81801428D01*
X143692857Y-81158571D02*
X143835714Y-81158571D01*
X143978571Y-81230000D01*
X144050000Y-81301428D01*
X144121428Y-81444285D01*
X144192857Y-81730000D01*
X144192857Y-82087142D01*
X144121428Y-82372857D01*
X144050000Y-82515714D01*
X143978571Y-82587142D01*
X143835714Y-82658571D01*
X143692857Y-82658571D01*
X143550000Y-82587142D01*
X143478571Y-82515714D01*
X143407142Y-82372857D01*
X143335714Y-82087142D01*
X143335714Y-81730000D01*
X143407142Y-81444285D01*
X143478571Y-81301428D01*
X143550000Y-81230000D01*
X143692857Y-81158571D01*
X62764285Y-82658571D02*
X61907142Y-82658571D01*
X62335714Y-82658571D02*
X62335714Y-81158571D01*
X62192857Y-81372857D01*
X62050000Y-81515714D01*
X61907142Y-81587142D01*
X63692857Y-81158571D02*
X63835714Y-81158571D01*
X63978571Y-81230000D01*
X64050000Y-81301428D01*
X64121428Y-81444285D01*
X64192857Y-81730000D01*
X64192857Y-82087142D01*
X64121428Y-82372857D01*
X64050000Y-82515714D01*
X63978571Y-82587142D01*
X63835714Y-82658571D01*
X63692857Y-82658571D01*
X63550000Y-82587142D01*
X63478571Y-82515714D01*
X63407142Y-82372857D01*
X63335714Y-82087142D01*
X63335714Y-81730000D01*
X63407142Y-81444285D01*
X63478571Y-81301428D01*
X63550000Y-81230000D01*
X63692857Y-81158571D01*
X92621428Y-81658571D02*
X92621428Y-82658571D01*
X92264285Y-81087142D02*
X91907142Y-82158571D01*
X92835714Y-82158571D01*
X93692857Y-81158571D02*
X93835714Y-81158571D01*
X93978571Y-81230000D01*
X94050000Y-81301428D01*
X94121428Y-81444285D01*
X94192857Y-81730000D01*
X94192857Y-82087142D01*
X94121428Y-82372857D01*
X94050000Y-82515714D01*
X93978571Y-82587142D01*
X93835714Y-82658571D01*
X93692857Y-82658571D01*
X93550000Y-82587142D01*
X93478571Y-82515714D01*
X93407142Y-82372857D01*
X93335714Y-82087142D01*
X93335714Y-81730000D01*
X93407142Y-81444285D01*
X93478571Y-81301428D01*
X93550000Y-81230000D01*
X93692857Y-81158571D01*
X81835714Y-81158571D02*
X82764285Y-81158571D01*
X82264285Y-81730000D01*
X82478571Y-81730000D01*
X82621428Y-81801428D01*
X82692857Y-81872857D01*
X82764285Y-82015714D01*
X82764285Y-82372857D01*
X82692857Y-82515714D01*
X82621428Y-82587142D01*
X82478571Y-82658571D01*
X82050000Y-82658571D01*
X81907142Y-82587142D01*
X81835714Y-82515714D01*
X83692857Y-81158571D02*
X83835714Y-81158571D01*
X83978571Y-81230000D01*
X84050000Y-81301428D01*
X84121428Y-81444285D01*
X84192857Y-81730000D01*
X84192857Y-82087142D01*
X84121428Y-82372857D01*
X84050000Y-82515714D01*
X83978571Y-82587142D01*
X83835714Y-82658571D01*
X83692857Y-82658571D01*
X83550000Y-82587142D01*
X83478571Y-82515714D01*
X83407142Y-82372857D01*
X83335714Y-82087142D01*
X83335714Y-81730000D01*
X83407142Y-81444285D01*
X83478571Y-81301428D01*
X83550000Y-81230000D01*
X83692857Y-81158571D01*
X112621428Y-81158571D02*
X112335714Y-81158571D01*
X112192857Y-81230000D01*
X112121428Y-81301428D01*
X111978571Y-81515714D01*
X111907142Y-81801428D01*
X111907142Y-82372857D01*
X111978571Y-82515714D01*
X112050000Y-82587142D01*
X112192857Y-82658571D01*
X112478571Y-82658571D01*
X112621428Y-82587142D01*
X112692857Y-82515714D01*
X112764285Y-82372857D01*
X112764285Y-82015714D01*
X112692857Y-81872857D01*
X112621428Y-81801428D01*
X112478571Y-81730000D01*
X112192857Y-81730000D01*
X112050000Y-81801428D01*
X111978571Y-81872857D01*
X111907142Y-82015714D01*
X113692857Y-81158571D02*
X113835714Y-81158571D01*
X113978571Y-81230000D01*
X114050000Y-81301428D01*
X114121428Y-81444285D01*
X114192857Y-81730000D01*
X114192857Y-82087142D01*
X114121428Y-82372857D01*
X114050000Y-82515714D01*
X113978571Y-82587142D01*
X113835714Y-82658571D01*
X113692857Y-82658571D01*
X113550000Y-82587142D01*
X113478571Y-82515714D01*
X113407142Y-82372857D01*
X113335714Y-82087142D01*
X113335714Y-81730000D01*
X113407142Y-81444285D01*
X113478571Y-81301428D01*
X113550000Y-81230000D01*
X113692857Y-81158571D01*
X132192857Y-56801428D02*
X132050000Y-56730000D01*
X131978571Y-56658571D01*
X131907142Y-56515714D01*
X131907142Y-56444285D01*
X131978571Y-56301428D01*
X132050000Y-56230000D01*
X132192857Y-56158571D01*
X132478571Y-56158571D01*
X132621428Y-56230000D01*
X132692857Y-56301428D01*
X132764285Y-56444285D01*
X132764285Y-56515714D01*
X132692857Y-56658571D01*
X132621428Y-56730000D01*
X132478571Y-56801428D01*
X132192857Y-56801428D01*
X132050000Y-56872857D01*
X131978571Y-56944285D01*
X131907142Y-57087142D01*
X131907142Y-57372857D01*
X131978571Y-57515714D01*
X132050000Y-57587142D01*
X132192857Y-57658571D01*
X132478571Y-57658571D01*
X132621428Y-57587142D01*
X132692857Y-57515714D01*
X132764285Y-57372857D01*
X132764285Y-57087142D01*
X132692857Y-56944285D01*
X132621428Y-56872857D01*
X132478571Y-56801428D01*
X133692857Y-56158571D02*
X133835714Y-56158571D01*
X133978571Y-56230000D01*
X134050000Y-56301428D01*
X134121428Y-56444285D01*
X134192857Y-56730000D01*
X134192857Y-57087142D01*
X134121428Y-57372857D01*
X134050000Y-57515714D01*
X133978571Y-57587142D01*
X133835714Y-57658571D01*
X133692857Y-57658571D01*
X133550000Y-57587142D01*
X133478571Y-57515714D01*
X133407142Y-57372857D01*
X133335714Y-57087142D01*
X133335714Y-56730000D01*
X133407142Y-56444285D01*
X133478571Y-56301428D01*
X133550000Y-56230000D01*
X133692857Y-56158571D01*
X71907142Y-56301428D02*
X71978571Y-56230000D01*
X72121428Y-56158571D01*
X72478571Y-56158571D01*
X72621428Y-56230000D01*
X72692857Y-56301428D01*
X72764285Y-56444285D01*
X72764285Y-56587142D01*
X72692857Y-56801428D01*
X71835714Y-57658571D01*
X72764285Y-57658571D01*
X73692857Y-56158571D02*
X73835714Y-56158571D01*
X73978571Y-56230000D01*
X74050000Y-56301428D01*
X74121428Y-56444285D01*
X74192857Y-56730000D01*
X74192857Y-57087142D01*
X74121428Y-57372857D01*
X74050000Y-57515714D01*
X73978571Y-57587142D01*
X73835714Y-57658571D01*
X73692857Y-57658571D01*
X73550000Y-57587142D01*
X73478571Y-57515714D01*
X73407142Y-57372857D01*
X73335714Y-57087142D01*
X73335714Y-56730000D01*
X73407142Y-56444285D01*
X73478571Y-56301428D01*
X73550000Y-56230000D01*
X73692857Y-56158571D01*
X121835714Y-56158571D02*
X122835714Y-56158571D01*
X122192857Y-57658571D01*
X123692857Y-56158571D02*
X123835714Y-56158571D01*
X123978571Y-56230000D01*
X124050000Y-56301428D01*
X124121428Y-56444285D01*
X124192857Y-56730000D01*
X124192857Y-57087142D01*
X124121428Y-57372857D01*
X124050000Y-57515714D01*
X123978571Y-57587142D01*
X123835714Y-57658571D01*
X123692857Y-57658571D01*
X123550000Y-57587142D01*
X123478571Y-57515714D01*
X123407142Y-57372857D01*
X123335714Y-57087142D01*
X123335714Y-56730000D01*
X123407142Y-56444285D01*
X123478571Y-56301428D01*
X123550000Y-56230000D01*
X123692857Y-56158571D01*
X102692857Y-56158571D02*
X101978571Y-56158571D01*
X101907142Y-56872857D01*
X101978571Y-56801428D01*
X102121428Y-56730000D01*
X102478571Y-56730000D01*
X102621428Y-56801428D01*
X102692857Y-56872857D01*
X102764285Y-57015714D01*
X102764285Y-57372857D01*
X102692857Y-57515714D01*
X102621428Y-57587142D01*
X102478571Y-57658571D01*
X102121428Y-57658571D01*
X101978571Y-57587142D01*
X101907142Y-57515714D01*
X103692857Y-56158571D02*
X103835714Y-56158571D01*
X103978571Y-56230000D01*
X104050000Y-56301428D01*
X104121428Y-56444285D01*
X104192857Y-56730000D01*
X104192857Y-57087142D01*
X104121428Y-57372857D01*
X104050000Y-57515714D01*
X103978571Y-57587142D01*
X103835714Y-57658571D01*
X103692857Y-57658571D01*
X103550000Y-57587142D01*
X103478571Y-57515714D01*
X103407142Y-57372857D01*
X103335714Y-57087142D01*
X103335714Y-56730000D01*
X103407142Y-56444285D01*
X103478571Y-56301428D01*
X103550000Y-56230000D01*
X103692857Y-56158571D01*
X142050000Y-57658571D02*
X142335714Y-57658571D01*
X142478571Y-57587142D01*
X142550000Y-57515714D01*
X142692857Y-57301428D01*
X142764285Y-57015714D01*
X142764285Y-56444285D01*
X142692857Y-56301428D01*
X142621428Y-56230000D01*
X142478571Y-56158571D01*
X142192857Y-56158571D01*
X142050000Y-56230000D01*
X141978571Y-56301428D01*
X141907142Y-56444285D01*
X141907142Y-56801428D01*
X141978571Y-56944285D01*
X142050000Y-57015714D01*
X142192857Y-57087142D01*
X142478571Y-57087142D01*
X142621428Y-57015714D01*
X142692857Y-56944285D01*
X142764285Y-56801428D01*
X143692857Y-56158571D02*
X143835714Y-56158571D01*
X143978571Y-56230000D01*
X144050000Y-56301428D01*
X144121428Y-56444285D01*
X144192857Y-56730000D01*
X144192857Y-57087142D01*
X144121428Y-57372857D01*
X144050000Y-57515714D01*
X143978571Y-57587142D01*
X143835714Y-57658571D01*
X143692857Y-57658571D01*
X143550000Y-57587142D01*
X143478571Y-57515714D01*
X143407142Y-57372857D01*
X143335714Y-57087142D01*
X143335714Y-56730000D01*
X143407142Y-56444285D01*
X143478571Y-56301428D01*
X143550000Y-56230000D01*
X143692857Y-56158571D01*
X62764285Y-57658571D02*
X61907142Y-57658571D01*
X62335714Y-57658571D02*
X62335714Y-56158571D01*
X62192857Y-56372857D01*
X62050000Y-56515714D01*
X61907142Y-56587142D01*
X63692857Y-56158571D02*
X63835714Y-56158571D01*
X63978571Y-56230000D01*
X64050000Y-56301428D01*
X64121428Y-56444285D01*
X64192857Y-56730000D01*
X64192857Y-57087142D01*
X64121428Y-57372857D01*
X64050000Y-57515714D01*
X63978571Y-57587142D01*
X63835714Y-57658571D01*
X63692857Y-57658571D01*
X63550000Y-57587142D01*
X63478571Y-57515714D01*
X63407142Y-57372857D01*
X63335714Y-57087142D01*
X63335714Y-56730000D01*
X63407142Y-56444285D01*
X63478571Y-56301428D01*
X63550000Y-56230000D01*
X63692857Y-56158571D01*
X92621428Y-56658571D02*
X92621428Y-57658571D01*
X92264285Y-56087142D02*
X91907142Y-57158571D01*
X92835714Y-57158571D01*
X93692857Y-56158571D02*
X93835714Y-56158571D01*
X93978571Y-56230000D01*
X94050000Y-56301428D01*
X94121428Y-56444285D01*
X94192857Y-56730000D01*
X94192857Y-57087142D01*
X94121428Y-57372857D01*
X94050000Y-57515714D01*
X93978571Y-57587142D01*
X93835714Y-57658571D01*
X93692857Y-57658571D01*
X93550000Y-57587142D01*
X93478571Y-57515714D01*
X93407142Y-57372857D01*
X93335714Y-57087142D01*
X93335714Y-56730000D01*
X93407142Y-56444285D01*
X93478571Y-56301428D01*
X93550000Y-56230000D01*
X93692857Y-56158571D01*
X81835714Y-56158571D02*
X82764285Y-56158571D01*
X82264285Y-56730000D01*
X82478571Y-56730000D01*
X82621428Y-56801428D01*
X82692857Y-56872857D01*
X82764285Y-57015714D01*
X82764285Y-57372857D01*
X82692857Y-57515714D01*
X82621428Y-57587142D01*
X82478571Y-57658571D01*
X82050000Y-57658571D01*
X81907142Y-57587142D01*
X81835714Y-57515714D01*
X83692857Y-56158571D02*
X83835714Y-56158571D01*
X83978571Y-56230000D01*
X84050000Y-56301428D01*
X84121428Y-56444285D01*
X84192857Y-56730000D01*
X84192857Y-57087142D01*
X84121428Y-57372857D01*
X84050000Y-57515714D01*
X83978571Y-57587142D01*
X83835714Y-57658571D01*
X83692857Y-57658571D01*
X83550000Y-57587142D01*
X83478571Y-57515714D01*
X83407142Y-57372857D01*
X83335714Y-57087142D01*
X83335714Y-56730000D01*
X83407142Y-56444285D01*
X83478571Y-56301428D01*
X83550000Y-56230000D01*
X83692857Y-56158571D01*
X112621428Y-56158571D02*
X112335714Y-56158571D01*
X112192857Y-56230000D01*
X112121428Y-56301428D01*
X111978571Y-56515714D01*
X111907142Y-56801428D01*
X111907142Y-57372857D01*
X111978571Y-57515714D01*
X112050000Y-57587142D01*
X112192857Y-57658571D01*
X112478571Y-57658571D01*
X112621428Y-57587142D01*
X112692857Y-57515714D01*
X112764285Y-57372857D01*
X112764285Y-57015714D01*
X112692857Y-56872857D01*
X112621428Y-56801428D01*
X112478571Y-56730000D01*
X112192857Y-56730000D01*
X112050000Y-56801428D01*
X111978571Y-56872857D01*
X111907142Y-57015714D01*
X113692857Y-56158571D02*
X113835714Y-56158571D01*
X113978571Y-56230000D01*
X114050000Y-56301428D01*
X114121428Y-56444285D01*
X114192857Y-56730000D01*
X114192857Y-57087142D01*
X114121428Y-57372857D01*
X114050000Y-57515714D01*
X113978571Y-57587142D01*
X113835714Y-57658571D01*
X113692857Y-57658571D01*
X113550000Y-57587142D01*
X113478571Y-57515714D01*
X113407142Y-57372857D01*
X113335714Y-57087142D01*
X113335714Y-56730000D01*
X113407142Y-56444285D01*
X113478571Y-56301428D01*
X113550000Y-56230000D01*
X113692857Y-56158571D01*
X132192857Y-31801428D02*
X132050000Y-31730000D01*
X131978571Y-31658571D01*
X131907142Y-31515714D01*
X131907142Y-31444285D01*
X131978571Y-31301428D01*
X132050000Y-31230000D01*
X132192857Y-31158571D01*
X132478571Y-31158571D01*
X132621428Y-31230000D01*
X132692857Y-31301428D01*
X132764285Y-31444285D01*
X132764285Y-31515714D01*
X132692857Y-31658571D01*
X132621428Y-31730000D01*
X132478571Y-31801428D01*
X132192857Y-31801428D01*
X132050000Y-31872857D01*
X131978571Y-31944285D01*
X131907142Y-32087142D01*
X131907142Y-32372857D01*
X131978571Y-32515714D01*
X132050000Y-32587142D01*
X132192857Y-32658571D01*
X132478571Y-32658571D01*
X132621428Y-32587142D01*
X132692857Y-32515714D01*
X132764285Y-32372857D01*
X132764285Y-32087142D01*
X132692857Y-31944285D01*
X132621428Y-31872857D01*
X132478571Y-31801428D01*
X133692857Y-31158571D02*
X133835714Y-31158571D01*
X133978571Y-31230000D01*
X134050000Y-31301428D01*
X134121428Y-31444285D01*
X134192857Y-31730000D01*
X134192857Y-32087142D01*
X134121428Y-32372857D01*
X134050000Y-32515714D01*
X133978571Y-32587142D01*
X133835714Y-32658571D01*
X133692857Y-32658571D01*
X133550000Y-32587142D01*
X133478571Y-32515714D01*
X133407142Y-32372857D01*
X133335714Y-32087142D01*
X133335714Y-31730000D01*
X133407142Y-31444285D01*
X133478571Y-31301428D01*
X133550000Y-31230000D01*
X133692857Y-31158571D01*
X71907142Y-31301428D02*
X71978571Y-31230000D01*
X72121428Y-31158571D01*
X72478571Y-31158571D01*
X72621428Y-31230000D01*
X72692857Y-31301428D01*
X72764285Y-31444285D01*
X72764285Y-31587142D01*
X72692857Y-31801428D01*
X71835714Y-32658571D01*
X72764285Y-32658571D01*
X73692857Y-31158571D02*
X73835714Y-31158571D01*
X73978571Y-31230000D01*
X74050000Y-31301428D01*
X74121428Y-31444285D01*
X74192857Y-31730000D01*
X74192857Y-32087142D01*
X74121428Y-32372857D01*
X74050000Y-32515714D01*
X73978571Y-32587142D01*
X73835714Y-32658571D01*
X73692857Y-32658571D01*
X73550000Y-32587142D01*
X73478571Y-32515714D01*
X73407142Y-32372857D01*
X73335714Y-32087142D01*
X73335714Y-31730000D01*
X73407142Y-31444285D01*
X73478571Y-31301428D01*
X73550000Y-31230000D01*
X73692857Y-31158571D01*
X121835714Y-31158571D02*
X122835714Y-31158571D01*
X122192857Y-32658571D01*
X123692857Y-31158571D02*
X123835714Y-31158571D01*
X123978571Y-31230000D01*
X124050000Y-31301428D01*
X124121428Y-31444285D01*
X124192857Y-31730000D01*
X124192857Y-32087142D01*
X124121428Y-32372857D01*
X124050000Y-32515714D01*
X123978571Y-32587142D01*
X123835714Y-32658571D01*
X123692857Y-32658571D01*
X123550000Y-32587142D01*
X123478571Y-32515714D01*
X123407142Y-32372857D01*
X123335714Y-32087142D01*
X123335714Y-31730000D01*
X123407142Y-31444285D01*
X123478571Y-31301428D01*
X123550000Y-31230000D01*
X123692857Y-31158571D01*
X102692857Y-31158571D02*
X101978571Y-31158571D01*
X101907142Y-31872857D01*
X101978571Y-31801428D01*
X102121428Y-31730000D01*
X102478571Y-31730000D01*
X102621428Y-31801428D01*
X102692857Y-31872857D01*
X102764285Y-32015714D01*
X102764285Y-32372857D01*
X102692857Y-32515714D01*
X102621428Y-32587142D01*
X102478571Y-32658571D01*
X102121428Y-32658571D01*
X101978571Y-32587142D01*
X101907142Y-32515714D01*
X103692857Y-31158571D02*
X103835714Y-31158571D01*
X103978571Y-31230000D01*
X104050000Y-31301428D01*
X104121428Y-31444285D01*
X104192857Y-31730000D01*
X104192857Y-32087142D01*
X104121428Y-32372857D01*
X104050000Y-32515714D01*
X103978571Y-32587142D01*
X103835714Y-32658571D01*
X103692857Y-32658571D01*
X103550000Y-32587142D01*
X103478571Y-32515714D01*
X103407142Y-32372857D01*
X103335714Y-32087142D01*
X103335714Y-31730000D01*
X103407142Y-31444285D01*
X103478571Y-31301428D01*
X103550000Y-31230000D01*
X103692857Y-31158571D01*
X142050000Y-32658571D02*
X142335714Y-32658571D01*
X142478571Y-32587142D01*
X142550000Y-32515714D01*
X142692857Y-32301428D01*
X142764285Y-32015714D01*
X142764285Y-31444285D01*
X142692857Y-31301428D01*
X142621428Y-31230000D01*
X142478571Y-31158571D01*
X142192857Y-31158571D01*
X142050000Y-31230000D01*
X141978571Y-31301428D01*
X141907142Y-31444285D01*
X141907142Y-31801428D01*
X141978571Y-31944285D01*
X142050000Y-32015714D01*
X142192857Y-32087142D01*
X142478571Y-32087142D01*
X142621428Y-32015714D01*
X142692857Y-31944285D01*
X142764285Y-31801428D01*
X143692857Y-31158571D02*
X143835714Y-31158571D01*
X143978571Y-31230000D01*
X144050000Y-31301428D01*
X144121428Y-31444285D01*
X144192857Y-31730000D01*
X144192857Y-32087142D01*
X144121428Y-32372857D01*
X144050000Y-32515714D01*
X143978571Y-32587142D01*
X143835714Y-32658571D01*
X143692857Y-32658571D01*
X143550000Y-32587142D01*
X143478571Y-32515714D01*
X143407142Y-32372857D01*
X143335714Y-32087142D01*
X143335714Y-31730000D01*
X143407142Y-31444285D01*
X143478571Y-31301428D01*
X143550000Y-31230000D01*
X143692857Y-31158571D01*
X62764285Y-32658571D02*
X61907142Y-32658571D01*
X62335714Y-32658571D02*
X62335714Y-31158571D01*
X62192857Y-31372857D01*
X62050000Y-31515714D01*
X61907142Y-31587142D01*
X63692857Y-31158571D02*
X63835714Y-31158571D01*
X63978571Y-31230000D01*
X64050000Y-31301428D01*
X64121428Y-31444285D01*
X64192857Y-31730000D01*
X64192857Y-32087142D01*
X64121428Y-32372857D01*
X64050000Y-32515714D01*
X63978571Y-32587142D01*
X63835714Y-32658571D01*
X63692857Y-32658571D01*
X63550000Y-32587142D01*
X63478571Y-32515714D01*
X63407142Y-32372857D01*
X63335714Y-32087142D01*
X63335714Y-31730000D01*
X63407142Y-31444285D01*
X63478571Y-31301428D01*
X63550000Y-31230000D01*
X63692857Y-31158571D01*
X92621428Y-31658571D02*
X92621428Y-32658571D01*
X92264285Y-31087142D02*
X91907142Y-32158571D01*
X92835714Y-32158571D01*
X93692857Y-31158571D02*
X93835714Y-31158571D01*
X93978571Y-31230000D01*
X94050000Y-31301428D01*
X94121428Y-31444285D01*
X94192857Y-31730000D01*
X94192857Y-32087142D01*
X94121428Y-32372857D01*
X94050000Y-32515714D01*
X93978571Y-32587142D01*
X93835714Y-32658571D01*
X93692857Y-32658571D01*
X93550000Y-32587142D01*
X93478571Y-32515714D01*
X93407142Y-32372857D01*
X93335714Y-32087142D01*
X93335714Y-31730000D01*
X93407142Y-31444285D01*
X93478571Y-31301428D01*
X93550000Y-31230000D01*
X93692857Y-31158571D01*
X81835714Y-31158571D02*
X82764285Y-31158571D01*
X82264285Y-31730000D01*
X82478571Y-31730000D01*
X82621428Y-31801428D01*
X82692857Y-31872857D01*
X82764285Y-32015714D01*
X82764285Y-32372857D01*
X82692857Y-32515714D01*
X82621428Y-32587142D01*
X82478571Y-32658571D01*
X82050000Y-32658571D01*
X81907142Y-32587142D01*
X81835714Y-32515714D01*
X83692857Y-31158571D02*
X83835714Y-31158571D01*
X83978571Y-31230000D01*
X84050000Y-31301428D01*
X84121428Y-31444285D01*
X84192857Y-31730000D01*
X84192857Y-32087142D01*
X84121428Y-32372857D01*
X84050000Y-32515714D01*
X83978571Y-32587142D01*
X83835714Y-32658571D01*
X83692857Y-32658571D01*
X83550000Y-32587142D01*
X83478571Y-32515714D01*
X83407142Y-32372857D01*
X83335714Y-32087142D01*
X83335714Y-31730000D01*
X83407142Y-31444285D01*
X83478571Y-31301428D01*
X83550000Y-31230000D01*
X83692857Y-31158571D01*
X112621428Y-31158571D02*
X112335714Y-31158571D01*
X112192857Y-31230000D01*
X112121428Y-31301428D01*
X111978571Y-31515714D01*
X111907142Y-31801428D01*
X111907142Y-32372857D01*
X111978571Y-32515714D01*
X112050000Y-32587142D01*
X112192857Y-32658571D01*
X112478571Y-32658571D01*
X112621428Y-32587142D01*
X112692857Y-32515714D01*
X112764285Y-32372857D01*
X112764285Y-32015714D01*
X112692857Y-31872857D01*
X112621428Y-31801428D01*
X112478571Y-31730000D01*
X112192857Y-31730000D01*
X112050000Y-31801428D01*
X111978571Y-31872857D01*
X111907142Y-32015714D01*
X113692857Y-31158571D02*
X113835714Y-31158571D01*
X113978571Y-31230000D01*
X114050000Y-31301428D01*
X114121428Y-31444285D01*
X114192857Y-31730000D01*
X114192857Y-32087142D01*
X114121428Y-32372857D01*
X114050000Y-32515714D01*
X113978571Y-32587142D01*
X113835714Y-32658571D01*
X113692857Y-32658571D01*
X113550000Y-32587142D01*
X113478571Y-32515714D01*
X113407142Y-32372857D01*
X113335714Y-32087142D01*
X113335714Y-31730000D01*
X113407142Y-31444285D01*
X113478571Y-31301428D01*
X113550000Y-31230000D01*
X113692857Y-31158571D01*
%TD*%
D11*
%TO.C,X1*%
X99050000Y-112860000D03*
D12*
X99050000Y-110320000D03*
%TD*%
D13*
%TO.C,XOR*%
X118485000Y-123580000D03*
X119755000Y-123580000D03*
X121025000Y-123580000D03*
X123565000Y-123580000D03*
X124835000Y-123580000D03*
X126105000Y-123580000D03*
X128645000Y-123580000D03*
X129915000Y-123580000D03*
X131185000Y-123580000D03*
X133725000Y-123580000D03*
X134995000Y-123580000D03*
X137535000Y-123580000D03*
X138805000Y-123580000D03*
X141345000Y-123580000D03*
X142615000Y-123580000D03*
%TD*%
D14*
%TO.C,74HC00*%
X64925000Y-118280000D03*
D15*
X67465000Y-118280000D03*
X70005000Y-118280000D03*
X72545000Y-118280000D03*
X75085000Y-118280000D03*
X77625000Y-118280000D03*
X80165000Y-118280000D03*
X80165000Y-110660000D03*
X77625000Y-110660000D03*
X75085000Y-110660000D03*
X72545000Y-110660000D03*
X70005000Y-110660000D03*
X67465000Y-110660000D03*
X64925000Y-110660000D03*
%TD*%
D16*
%TO.C,R3*%
X92360000Y-118380000D03*
D17*
X84740000Y-118380000D03*
%TD*%
D18*
%TO.C,SW2*%
X107400000Y-123430000D03*
X107400000Y-116930000D03*
X111900000Y-116930000D03*
X111900000Y-123430000D03*
%TD*%
D11*
%TO.C,X2*%
X105050000Y-112755000D03*
D12*
X105050000Y-110215000D03*
%TD*%
D19*
%TO.C,REF\u002A\u002A*%
X148050000Y-115480000D03*
%TD*%
D18*
%TO.C,USB-CPWR*%
X60375000Y-116180000D03*
X60375000Y-119780000D03*
D20*
X56575000Y-122280000D03*
X56575000Y-113680000D03*
%TD*%
D16*
%TO.C,R2*%
X92360000Y-114480000D03*
D17*
X84740000Y-114480000D03*
%TD*%
D21*
%TO.C,REF\u002A\u002A*%
X73050000Y-104180000D03*
X83050000Y-104180000D03*
X143050000Y-104180000D03*
X103050000Y-104180000D03*
X133050000Y-104180000D03*
X123050000Y-104180000D03*
X93050000Y-104180000D03*
X113050000Y-104180000D03*
X63050000Y-104180000D03*
D22*
X148050000Y-103930000D03*
X88050000Y-103930000D03*
X128050000Y-103930000D03*
X108050000Y-103930000D03*
X68050000Y-103930000D03*
X138050000Y-103930000D03*
X118050000Y-103930000D03*
X98050000Y-103930000D03*
X58050000Y-103930000D03*
X78050000Y-103930000D03*
D23*
X87050000Y-103680000D03*
X77050000Y-103680000D03*
X57050000Y-103680000D03*
X107050000Y-103680000D03*
X97050000Y-103680000D03*
X127050000Y-103680000D03*
X147050000Y-103680000D03*
X137050000Y-103680000D03*
X117050000Y-103680000D03*
X67050000Y-103680000D03*
X116050000Y-103680000D03*
X96050000Y-103680000D03*
X66050000Y-103680000D03*
X106050000Y-103680000D03*
X126050000Y-103680000D03*
X86050000Y-103680000D03*
X76050000Y-103680000D03*
X136050000Y-103680000D03*
X146050000Y-103680000D03*
X56050000Y-103680000D03*
X75050000Y-103680000D03*
X95050000Y-103680000D03*
X115050000Y-103680000D03*
X135050000Y-103680000D03*
X105050000Y-103680000D03*
X145050000Y-103680000D03*
X55050000Y-103680000D03*
X65050000Y-103680000D03*
X85050000Y-103680000D03*
X125050000Y-103680000D03*
X134050000Y-103680000D03*
X94050000Y-103680000D03*
X84050000Y-103680000D03*
X54050000Y-103680000D03*
X124050000Y-103680000D03*
X144050000Y-103680000D03*
X114050000Y-103680000D03*
X104050000Y-103680000D03*
X64050000Y-103680000D03*
X74050000Y-103680000D03*
X89050000Y-103680000D03*
X119050000Y-103680000D03*
X59050000Y-103680000D03*
X109050000Y-103680000D03*
X139050000Y-103680000D03*
X69050000Y-103680000D03*
X79050000Y-103680000D03*
X149050000Y-103680000D03*
X129050000Y-103680000D03*
X99050000Y-103680000D03*
X90050000Y-103680000D03*
X60050000Y-103680000D03*
X100050000Y-103680000D03*
X130050000Y-103680000D03*
X150050000Y-103680000D03*
X80050000Y-103680000D03*
X70050000Y-103680000D03*
X140050000Y-103680000D03*
X110050000Y-103680000D03*
X120050000Y-103680000D03*
X121050000Y-103680000D03*
X81050000Y-103680000D03*
X61050000Y-103680000D03*
X151050000Y-103680000D03*
X141050000Y-103680000D03*
X91050000Y-103680000D03*
X101050000Y-103680000D03*
X131050000Y-103680000D03*
X71050000Y-103680000D03*
X111050000Y-103680000D03*
X92050000Y-103680000D03*
X112050000Y-103680000D03*
X132050000Y-103680000D03*
X62050000Y-103680000D03*
X142050000Y-103680000D03*
X102050000Y-103680000D03*
X82050000Y-103680000D03*
X72050000Y-103680000D03*
X122050000Y-103680000D03*
X152050000Y-103680000D03*
%TD*%
D18*
%TO.C,SW1*%
X98200000Y-123430000D03*
X98200000Y-116930000D03*
X102700000Y-123430000D03*
X102700000Y-116930000D03*
%TD*%
D13*
%TO.C,OR*%
X118485000Y-112380000D03*
X119755000Y-112380000D03*
X121025000Y-112380000D03*
X123565000Y-112380000D03*
X124835000Y-112380000D03*
X126105000Y-112380000D03*
X133725000Y-112380000D03*
X134995000Y-112380000D03*
X137535000Y-112380000D03*
X138805000Y-112380000D03*
X141345000Y-112380000D03*
X142615000Y-112380000D03*
%TD*%
%TO.C,AND*%
X118485000Y-117932500D03*
X119755000Y-117932500D03*
X123565000Y-117932500D03*
X124835000Y-117932500D03*
X128645000Y-117932500D03*
X129915000Y-117932500D03*
X131185000Y-117932500D03*
X141345000Y-117932500D03*
X142615000Y-117932500D03*
%TD*%
D11*
%TO.C,Y*%
X111050000Y-112755000D03*
D12*
X111050000Y-110215000D03*
%TD*%
D16*
%TO.C,R1*%
X92360000Y-110580000D03*
D17*
X84740000Y-110580000D03*
%TD*%
D11*
%TO.C,X1*%
X99050000Y-87860000D03*
D12*
X99050000Y-85320000D03*
%TD*%
D13*
%TO.C,XOR*%
X118485000Y-98580000D03*
X119755000Y-98580000D03*
X121025000Y-98580000D03*
X123565000Y-98580000D03*
X124835000Y-98580000D03*
X126105000Y-98580000D03*
X128645000Y-98580000D03*
X129915000Y-98580000D03*
X131185000Y-98580000D03*
X133725000Y-98580000D03*
X134995000Y-98580000D03*
X137535000Y-98580000D03*
X138805000Y-98580000D03*
X141345000Y-98580000D03*
X142615000Y-98580000D03*
%TD*%
D14*
%TO.C,74HC00*%
X64925000Y-93280000D03*
D15*
X67465000Y-93280000D03*
X70005000Y-93280000D03*
X72545000Y-93280000D03*
X75085000Y-93280000D03*
X77625000Y-93280000D03*
X80165000Y-93280000D03*
X80165000Y-85660000D03*
X77625000Y-85660000D03*
X75085000Y-85660000D03*
X72545000Y-85660000D03*
X70005000Y-85660000D03*
X67465000Y-85660000D03*
X64925000Y-85660000D03*
%TD*%
D16*
%TO.C,R3*%
X92360000Y-93380000D03*
D17*
X84740000Y-93380000D03*
%TD*%
D18*
%TO.C,SW2*%
X107400000Y-98430000D03*
X107400000Y-91930000D03*
X111900000Y-91930000D03*
X111900000Y-98430000D03*
%TD*%
D11*
%TO.C,X2*%
X105050000Y-87755000D03*
D12*
X105050000Y-85215000D03*
%TD*%
D19*
%TO.C,REF\u002A\u002A*%
X148050000Y-90480000D03*
%TD*%
D18*
%TO.C,USB-CPWR*%
X60375000Y-91180000D03*
X60375000Y-94780000D03*
D20*
X56575000Y-97280000D03*
X56575000Y-88680000D03*
%TD*%
D16*
%TO.C,R2*%
X92360000Y-89480000D03*
D17*
X84740000Y-89480000D03*
%TD*%
D21*
%TO.C,REF\u002A\u002A*%
X73050000Y-79180000D03*
X83050000Y-79180000D03*
X143050000Y-79180000D03*
X103050000Y-79180000D03*
X133050000Y-79180000D03*
X123050000Y-79180000D03*
X93050000Y-79180000D03*
X113050000Y-79180000D03*
X63050000Y-79180000D03*
D22*
X148050000Y-78930000D03*
X88050000Y-78930000D03*
X128050000Y-78930000D03*
X108050000Y-78930000D03*
X68050000Y-78930000D03*
X138050000Y-78930000D03*
X118050000Y-78930000D03*
X98050000Y-78930000D03*
X58050000Y-78930000D03*
X78050000Y-78930000D03*
D23*
X87050000Y-78680000D03*
X77050000Y-78680000D03*
X57050000Y-78680000D03*
X107050000Y-78680000D03*
X97050000Y-78680000D03*
X127050000Y-78680000D03*
X147050000Y-78680000D03*
X137050000Y-78680000D03*
X117050000Y-78680000D03*
X67050000Y-78680000D03*
X116050000Y-78680000D03*
X96050000Y-78680000D03*
X66050000Y-78680000D03*
X106050000Y-78680000D03*
X126050000Y-78680000D03*
X86050000Y-78680000D03*
X76050000Y-78680000D03*
X136050000Y-78680000D03*
X146050000Y-78680000D03*
X56050000Y-78680000D03*
X75050000Y-78680000D03*
X95050000Y-78680000D03*
X115050000Y-78680000D03*
X135050000Y-78680000D03*
X105050000Y-78680000D03*
X145050000Y-78680000D03*
X55050000Y-78680000D03*
X65050000Y-78680000D03*
X85050000Y-78680000D03*
X125050000Y-78680000D03*
X134050000Y-78680000D03*
X94050000Y-78680000D03*
X84050000Y-78680000D03*
X54050000Y-78680000D03*
X124050000Y-78680000D03*
X144050000Y-78680000D03*
X114050000Y-78680000D03*
X104050000Y-78680000D03*
X64050000Y-78680000D03*
X74050000Y-78680000D03*
X89050000Y-78680000D03*
X119050000Y-78680000D03*
X59050000Y-78680000D03*
X109050000Y-78680000D03*
X139050000Y-78680000D03*
X69050000Y-78680000D03*
X79050000Y-78680000D03*
X149050000Y-78680000D03*
X129050000Y-78680000D03*
X99050000Y-78680000D03*
X90050000Y-78680000D03*
X60050000Y-78680000D03*
X100050000Y-78680000D03*
X130050000Y-78680000D03*
X150050000Y-78680000D03*
X80050000Y-78680000D03*
X70050000Y-78680000D03*
X140050000Y-78680000D03*
X110050000Y-78680000D03*
X120050000Y-78680000D03*
X121050000Y-78680000D03*
X81050000Y-78680000D03*
X61050000Y-78680000D03*
X151050000Y-78680000D03*
X141050000Y-78680000D03*
X91050000Y-78680000D03*
X101050000Y-78680000D03*
X131050000Y-78680000D03*
X71050000Y-78680000D03*
X111050000Y-78680000D03*
X92050000Y-78680000D03*
X112050000Y-78680000D03*
X132050000Y-78680000D03*
X62050000Y-78680000D03*
X142050000Y-78680000D03*
X102050000Y-78680000D03*
X82050000Y-78680000D03*
X72050000Y-78680000D03*
X122050000Y-78680000D03*
X152050000Y-78680000D03*
%TD*%
D18*
%TO.C,SW1*%
X98200000Y-98430000D03*
X98200000Y-91930000D03*
X102700000Y-98430000D03*
X102700000Y-91930000D03*
%TD*%
D13*
%TO.C,OR*%
X118485000Y-87380000D03*
X119755000Y-87380000D03*
X121025000Y-87380000D03*
X123565000Y-87380000D03*
X124835000Y-87380000D03*
X126105000Y-87380000D03*
X133725000Y-87380000D03*
X134995000Y-87380000D03*
X137535000Y-87380000D03*
X138805000Y-87380000D03*
X141345000Y-87380000D03*
X142615000Y-87380000D03*
%TD*%
%TO.C,AND*%
X118485000Y-92932500D03*
X119755000Y-92932500D03*
X123565000Y-92932500D03*
X124835000Y-92932500D03*
X128645000Y-92932500D03*
X129915000Y-92932500D03*
X131185000Y-92932500D03*
X141345000Y-92932500D03*
X142615000Y-92932500D03*
%TD*%
D11*
%TO.C,Y*%
X111050000Y-87755000D03*
D12*
X111050000Y-85215000D03*
%TD*%
D16*
%TO.C,R1*%
X92360000Y-85580000D03*
D17*
X84740000Y-85580000D03*
%TD*%
D11*
%TO.C,X1*%
X99050000Y-62860000D03*
D12*
X99050000Y-60320000D03*
%TD*%
D13*
%TO.C,XOR*%
X118485000Y-73580000D03*
X119755000Y-73580000D03*
X121025000Y-73580000D03*
X123565000Y-73580000D03*
X124835000Y-73580000D03*
X126105000Y-73580000D03*
X128645000Y-73580000D03*
X129915000Y-73580000D03*
X131185000Y-73580000D03*
X133725000Y-73580000D03*
X134995000Y-73580000D03*
X137535000Y-73580000D03*
X138805000Y-73580000D03*
X141345000Y-73580000D03*
X142615000Y-73580000D03*
%TD*%
D14*
%TO.C,74HC00*%
X64925000Y-68280000D03*
D15*
X67465000Y-68280000D03*
X70005000Y-68280000D03*
X72545000Y-68280000D03*
X75085000Y-68280000D03*
X77625000Y-68280000D03*
X80165000Y-68280000D03*
X80165000Y-60660000D03*
X77625000Y-60660000D03*
X75085000Y-60660000D03*
X72545000Y-60660000D03*
X70005000Y-60660000D03*
X67465000Y-60660000D03*
X64925000Y-60660000D03*
%TD*%
D16*
%TO.C,R3*%
X92360000Y-68380000D03*
D17*
X84740000Y-68380000D03*
%TD*%
D18*
%TO.C,SW2*%
X107400000Y-73430000D03*
X107400000Y-66930000D03*
X111900000Y-66930000D03*
X111900000Y-73430000D03*
%TD*%
D11*
%TO.C,X2*%
X105050000Y-62755000D03*
D12*
X105050000Y-60215000D03*
%TD*%
D19*
%TO.C,REF\u002A\u002A*%
X148050000Y-65480000D03*
%TD*%
D18*
%TO.C,USB-CPWR*%
X60375000Y-66180000D03*
X60375000Y-69780000D03*
D20*
X56575000Y-72280000D03*
X56575000Y-63680000D03*
%TD*%
D16*
%TO.C,R2*%
X92360000Y-64480000D03*
D17*
X84740000Y-64480000D03*
%TD*%
D21*
%TO.C,REF\u002A\u002A*%
X73050000Y-54180000D03*
X83050000Y-54180000D03*
X143050000Y-54180000D03*
X103050000Y-54180000D03*
X133050000Y-54180000D03*
X123050000Y-54180000D03*
X93050000Y-54180000D03*
X113050000Y-54180000D03*
X63050000Y-54180000D03*
D22*
X148050000Y-53930000D03*
X88050000Y-53930000D03*
X128050000Y-53930000D03*
X108050000Y-53930000D03*
X68050000Y-53930000D03*
X138050000Y-53930000D03*
X118050000Y-53930000D03*
X98050000Y-53930000D03*
X58050000Y-53930000D03*
X78050000Y-53930000D03*
D23*
X87050000Y-53680000D03*
X77050000Y-53680000D03*
X57050000Y-53680000D03*
X107050000Y-53680000D03*
X97050000Y-53680000D03*
X127050000Y-53680000D03*
X147050000Y-53680000D03*
X137050000Y-53680000D03*
X117050000Y-53680000D03*
X67050000Y-53680000D03*
X116050000Y-53680000D03*
X96050000Y-53680000D03*
X66050000Y-53680000D03*
X106050000Y-53680000D03*
X126050000Y-53680000D03*
X86050000Y-53680000D03*
X76050000Y-53680000D03*
X136050000Y-53680000D03*
X146050000Y-53680000D03*
X56050000Y-53680000D03*
X75050000Y-53680000D03*
X95050000Y-53680000D03*
X115050000Y-53680000D03*
X135050000Y-53680000D03*
X105050000Y-53680000D03*
X145050000Y-53680000D03*
X55050000Y-53680000D03*
X65050000Y-53680000D03*
X85050000Y-53680000D03*
X125050000Y-53680000D03*
X134050000Y-53680000D03*
X94050000Y-53680000D03*
X84050000Y-53680000D03*
X54050000Y-53680000D03*
X124050000Y-53680000D03*
X144050000Y-53680000D03*
X114050000Y-53680000D03*
X104050000Y-53680000D03*
X64050000Y-53680000D03*
X74050000Y-53680000D03*
X89050000Y-53680000D03*
X119050000Y-53680000D03*
X59050000Y-53680000D03*
X109050000Y-53680000D03*
X139050000Y-53680000D03*
X69050000Y-53680000D03*
X79050000Y-53680000D03*
X149050000Y-53680000D03*
X129050000Y-53680000D03*
X99050000Y-53680000D03*
X90050000Y-53680000D03*
X60050000Y-53680000D03*
X100050000Y-53680000D03*
X130050000Y-53680000D03*
X150050000Y-53680000D03*
X80050000Y-53680000D03*
X70050000Y-53680000D03*
X140050000Y-53680000D03*
X110050000Y-53680000D03*
X120050000Y-53680000D03*
X121050000Y-53680000D03*
X81050000Y-53680000D03*
X61050000Y-53680000D03*
X151050000Y-53680000D03*
X141050000Y-53680000D03*
X91050000Y-53680000D03*
X101050000Y-53680000D03*
X131050000Y-53680000D03*
X71050000Y-53680000D03*
X111050000Y-53680000D03*
X92050000Y-53680000D03*
X112050000Y-53680000D03*
X132050000Y-53680000D03*
X62050000Y-53680000D03*
X142050000Y-53680000D03*
X102050000Y-53680000D03*
X82050000Y-53680000D03*
X72050000Y-53680000D03*
X122050000Y-53680000D03*
X152050000Y-53680000D03*
%TD*%
D18*
%TO.C,SW1*%
X98200000Y-73430000D03*
X98200000Y-66930000D03*
X102700000Y-73430000D03*
X102700000Y-66930000D03*
%TD*%
D13*
%TO.C,OR*%
X118485000Y-62380000D03*
X119755000Y-62380000D03*
X121025000Y-62380000D03*
X123565000Y-62380000D03*
X124835000Y-62380000D03*
X126105000Y-62380000D03*
X133725000Y-62380000D03*
X134995000Y-62380000D03*
X137535000Y-62380000D03*
X138805000Y-62380000D03*
X141345000Y-62380000D03*
X142615000Y-62380000D03*
%TD*%
%TO.C,AND*%
X118485000Y-67932500D03*
X119755000Y-67932500D03*
X123565000Y-67932500D03*
X124835000Y-67932500D03*
X128645000Y-67932500D03*
X129915000Y-67932500D03*
X131185000Y-67932500D03*
X141345000Y-67932500D03*
X142615000Y-67932500D03*
%TD*%
D11*
%TO.C,Y*%
X111050000Y-62755000D03*
D12*
X111050000Y-60215000D03*
%TD*%
D16*
%TO.C,R1*%
X92360000Y-60580000D03*
D17*
X84740000Y-60580000D03*
%TD*%
D11*
%TO.C,X1*%
X99050000Y-37860000D03*
D12*
X99050000Y-35320000D03*
%TD*%
D13*
%TO.C,AND*%
X118485000Y-42932500D03*
X119755000Y-42932500D03*
X123565000Y-42932500D03*
X124835000Y-42932500D03*
X128645000Y-42932500D03*
X129915000Y-42932500D03*
X131185000Y-42932500D03*
X141345000Y-42932500D03*
X142615000Y-42932500D03*
%TD*%
D11*
%TO.C,X2*%
X105050000Y-37755000D03*
D12*
X105050000Y-35215000D03*
%TD*%
D11*
%TO.C,Y*%
X111050000Y-37755000D03*
D12*
X111050000Y-35215000D03*
%TD*%
D16*
%TO.C,R3*%
X92360000Y-43380000D03*
D17*
X84740000Y-43380000D03*
%TD*%
D18*
%TO.C,USB-CPWR*%
X60375000Y-41180000D03*
X60375000Y-44780000D03*
D20*
X56575000Y-47280000D03*
X56575000Y-38680000D03*
%TD*%
D18*
%TO.C,SW2*%
X107400000Y-48430000D03*
X107400000Y-41930000D03*
X111900000Y-41930000D03*
X111900000Y-48430000D03*
%TD*%
D16*
%TO.C,R2*%
X92360000Y-39480000D03*
D17*
X84740000Y-39480000D03*
%TD*%
D14*
%TO.C,74HC00*%
X64925000Y-43280000D03*
D15*
X67465000Y-43280000D03*
X70005000Y-43280000D03*
X72545000Y-43280000D03*
X75085000Y-43280000D03*
X77625000Y-43280000D03*
X80165000Y-43280000D03*
X80165000Y-35660000D03*
X77625000Y-35660000D03*
X75085000Y-35660000D03*
X72545000Y-35660000D03*
X70005000Y-35660000D03*
X67465000Y-35660000D03*
X64925000Y-35660000D03*
%TD*%
D13*
%TO.C,XOR*%
X118485000Y-48580000D03*
X119755000Y-48580000D03*
X121025000Y-48580000D03*
X123565000Y-48580000D03*
X124835000Y-48580000D03*
X126105000Y-48580000D03*
X128645000Y-48580000D03*
X129915000Y-48580000D03*
X131185000Y-48580000D03*
X133725000Y-48580000D03*
X134995000Y-48580000D03*
X137535000Y-48580000D03*
X138805000Y-48580000D03*
X141345000Y-48580000D03*
X142615000Y-48580000D03*
%TD*%
%TO.C,OR*%
X118485000Y-37380000D03*
X119755000Y-37380000D03*
X121025000Y-37380000D03*
X123565000Y-37380000D03*
X124835000Y-37380000D03*
X126105000Y-37380000D03*
X133725000Y-37380000D03*
X134995000Y-37380000D03*
X137535000Y-37380000D03*
X138805000Y-37380000D03*
X141345000Y-37380000D03*
X142615000Y-37380000D03*
%TD*%
D19*
%TO.C,REF\u002A\u002A*%
X148050000Y-40480000D03*
%TD*%
D18*
%TO.C,SW1*%
X98200000Y-48430000D03*
X98200000Y-41930000D03*
X102700000Y-48430000D03*
X102700000Y-41930000D03*
%TD*%
D21*
%TO.C,REF\u002A\u002A*%
X73050000Y-29180000D03*
X83050000Y-29180000D03*
X143050000Y-29180000D03*
X103050000Y-29180000D03*
X133050000Y-29180000D03*
X123050000Y-29180000D03*
X93050000Y-29180000D03*
X113050000Y-29180000D03*
X63050000Y-29180000D03*
D22*
X148050000Y-28930000D03*
X88050000Y-28930000D03*
X128050000Y-28930000D03*
X108050000Y-28930000D03*
X68050000Y-28930000D03*
X138050000Y-28930000D03*
X118050000Y-28930000D03*
X98050000Y-28930000D03*
X58050000Y-28930000D03*
X78050000Y-28930000D03*
D23*
X87050000Y-28680000D03*
X77050000Y-28680000D03*
X57050000Y-28680000D03*
X107050000Y-28680000D03*
X97050000Y-28680000D03*
X127050000Y-28680000D03*
X147050000Y-28680000D03*
X137050000Y-28680000D03*
X117050000Y-28680000D03*
X67050000Y-28680000D03*
X116050000Y-28680000D03*
X96050000Y-28680000D03*
X66050000Y-28680000D03*
X106050000Y-28680000D03*
X126050000Y-28680000D03*
X86050000Y-28680000D03*
X76050000Y-28680000D03*
X136050000Y-28680000D03*
X146050000Y-28680000D03*
X56050000Y-28680000D03*
X75050000Y-28680000D03*
X95050000Y-28680000D03*
X115050000Y-28680000D03*
X135050000Y-28680000D03*
X105050000Y-28680000D03*
X145050000Y-28680000D03*
X55050000Y-28680000D03*
X65050000Y-28680000D03*
X85050000Y-28680000D03*
X125050000Y-28680000D03*
X134050000Y-28680000D03*
X94050000Y-28680000D03*
X84050000Y-28680000D03*
X54050000Y-28680000D03*
X124050000Y-28680000D03*
X144050000Y-28680000D03*
X114050000Y-28680000D03*
X104050000Y-28680000D03*
X64050000Y-28680000D03*
X74050000Y-28680000D03*
X89050000Y-28680000D03*
X119050000Y-28680000D03*
X59050000Y-28680000D03*
X109050000Y-28680000D03*
X139050000Y-28680000D03*
X69050000Y-28680000D03*
X79050000Y-28680000D03*
X149050000Y-28680000D03*
X129050000Y-28680000D03*
X99050000Y-28680000D03*
X90050000Y-28680000D03*
X60050000Y-28680000D03*
X100050000Y-28680000D03*
X130050000Y-28680000D03*
X150050000Y-28680000D03*
X80050000Y-28680000D03*
X70050000Y-28680000D03*
X140050000Y-28680000D03*
X110050000Y-28680000D03*
X120050000Y-28680000D03*
X121050000Y-28680000D03*
X81050000Y-28680000D03*
X61050000Y-28680000D03*
X151050000Y-28680000D03*
X141050000Y-28680000D03*
X91050000Y-28680000D03*
X101050000Y-28680000D03*
X131050000Y-28680000D03*
X71050000Y-28680000D03*
X111050000Y-28680000D03*
X92050000Y-28680000D03*
X112050000Y-28680000D03*
X132050000Y-28680000D03*
X62050000Y-28680000D03*
X142050000Y-28680000D03*
X102050000Y-28680000D03*
X82050000Y-28680000D03*
X72050000Y-28680000D03*
X122050000Y-28680000D03*
X152050000Y-28680000D03*
%TD*%
D16*
%TO.C,R1*%
X92360000Y-35580000D03*
D17*
X84740000Y-35580000D03*
%TD*%
M02*
