M48
; DRILL file {KiCad (6.0.10)} date Sun May 12 12:16:23 2024
; FORMAT={-:-/ absolute / inch / decimal}
; #@! TF.CreationDate,2024-05-12T12:16:23+09:00
; #@! TF.GenerationSoftware,Kicad,Pcbnew,(6.0.10)
; #@! TF.FileFunction,Plated,1,2,PTH
FMAT,2
INCH
; #@! TA.AperFunction,Plated,PTH,ViaDrill
T1C0.0157
; #@! TA.AperFunction,Plated,PTH,ComponentDrill
T2C0.0236
; #@! TA.AperFunction,Plated,PTH,ComponentDrill
T3C0.0276
; #@! TA.AperFunction,Plated,PTH,ComponentDrill
T4C0.0315
; #@! TA.AperFunction,Plated,PTH,ComponentDrill
T5C0.0354
; #@! TA.AperFunction,Plated,PTH,ComponentDrill
T6C0.0433
; #@! TA.AperFunction,Plated,PTH,ComponentDrill
T7C0.0441
; #@! TA.AperFunction,Plated,PTH,ComponentDrill
T8C0.1181
%
G90
G05
T1
X3.1791Y-1.7776
X3.1791Y-2.7618
X3.1791Y-3.7461
X3.1791Y-4.7303
X3.4421Y-1.8059
X3.4421Y-2.7902
X3.4421Y-3.7744
X3.4421Y-4.7587
X3.478Y-1.8344
X3.478Y-2.8187
X3.478Y-3.8029
X3.478Y-4.7872
X3.5144Y-1.863
X3.5144Y-2.8472
X3.5144Y-3.8315
X3.5144Y-4.8157
X3.5874Y-1.6594
X3.5874Y-2.6437
X3.5874Y-3.628
X3.5874Y-4.6122
X3.6437Y-1.863
X3.6437Y-2.8472
X3.6437Y-3.8315
X3.6437Y-4.8157
X3.7331Y-1.8059
X3.7331Y-2.7902
X3.7331Y-3.7744
X3.7331Y-4.7587
X3.7886Y-1.9768
X3.7886Y-2.961
X3.7886Y-3.9453
X3.7886Y-4.9295
X4.2321Y-1.4423
X4.2321Y-2.4266
X4.2321Y-3.4108
X4.2321Y-4.3951
X4.2717Y-1.5449
X4.2717Y-2.5291
X4.2717Y-3.5134
X4.2717Y-4.4976
X4.3057Y-1.516
X4.3057Y-2.5002
X4.3057Y-3.4845
X4.3057Y-4.4687
X4.5Y-1.3579
X4.5Y-2.3421
X4.5Y-3.3264
X4.5Y-4.3106
X4.5083Y-1.574
X4.5083Y-2.5583
X4.5083Y-3.5425
X4.5083Y-4.5268
X4.5209Y-1.4362
X4.5209Y-2.4205
X4.5209Y-3.4047
X4.5209Y-4.389
X4.5295Y-1.3864
X4.5295Y-2.3707
X4.5295Y-3.3549
X4.5295Y-4.3392
X4.6213Y-1.4362
X4.6213Y-2.4205
X4.6213Y-3.4047
X4.6213Y-4.389
X4.6368Y-1.8497
X4.6368Y-2.8339
X4.6368Y-3.8182
X4.6368Y-4.8024
X4.6648Y-1.9126
X4.6648Y-2.8969
X4.6648Y-3.8811
X4.6648Y-4.8654
X4.6654Y-1.4717
X4.6654Y-1.6902
X4.6654Y-2.4559
X4.6654Y-2.6744
X4.6654Y-3.4402
X4.6654Y-3.6587
X4.6654Y-4.4244
X4.6654Y-4.6429
X4.7146Y-1.4717
X4.7146Y-1.6902
X4.7146Y-1.9126
X4.7146Y-2.4559
X4.7146Y-2.6744
X4.7146Y-2.8969
X4.7146Y-3.4402
X4.7146Y-3.6587
X4.7146Y-3.8811
X4.7146Y-4.4244
X4.7146Y-4.6429
X4.7146Y-4.8654
X4.7431Y-1.574
X4.7431Y-2.5583
X4.7431Y-3.5425
X4.7431Y-4.5268
X4.7648Y-1.9126
X4.7648Y-2.8969
X4.7648Y-3.8811
X4.7648Y-4.8654
X4.7972Y-1.8497
X4.7972Y-2.8339
X4.7972Y-3.8182
X4.7972Y-4.8024
X4.8047Y-1.3579
X4.8047Y-2.3421
X4.8047Y-3.3264
X4.8047Y-4.3106
X4.8351Y-1.3864
X4.8351Y-2.3707
X4.8351Y-3.3549
X4.8351Y-4.3392
X4.8642Y-1.4717
X4.8642Y-1.6921
X4.8642Y-2.4559
X4.8642Y-2.6764
X4.8642Y-3.4402
X4.8642Y-3.6606
X4.8642Y-4.4244
X4.8642Y-4.6449
X4.8648Y-1.9126
X4.8648Y-2.8969
X4.8648Y-3.8811
X4.8648Y-4.8654
X4.8961Y-1.5626
X4.8961Y-2.5469
X4.8961Y-3.5311
X4.8961Y-4.5154
X4.9148Y-1.4717
X4.9148Y-2.4559
X4.9148Y-3.4402
X4.9148Y-4.4244
X4.9154Y-1.6902
X4.9154Y-1.9126
X4.9154Y-2.6744
X4.9154Y-2.8969
X4.9154Y-3.6587
X4.9154Y-3.8811
X4.9154Y-4.6429
X4.9154Y-4.8654
X4.9646Y-1.5876
X4.9646Y-2.5719
X4.9646Y-3.5562
X4.9646Y-4.5404
X4.9646Y-1.4717
X4.9646Y-1.7041
X4.9646Y-1.7925
X4.9646Y-1.9126
X4.9646Y-2.4559
X4.9646Y-2.6883
X4.9646Y-2.7768
X4.9646Y-2.8969
X4.9646Y-3.4402
X4.9646Y-3.6726
X4.9646Y-3.761
X4.9646Y-3.8811
X4.9646Y-4.4244
X4.9646Y-4.6568
X4.9646Y-4.7453
X4.9646Y-4.8654
X5.065Y-1.5496
X5.065Y-1.6902
X5.065Y-1.9126
X5.065Y-2.5339
X5.065Y-2.6744
X5.065Y-2.8969
X5.065Y-3.5181
X5.065Y-3.6587
X5.065Y-3.8811
X5.065Y-4.5024
X5.065Y-4.6429
X5.065Y-4.8654
X5.1142Y-1.9126
X5.1142Y-2.8969
X5.1142Y-3.8811
X5.1142Y-4.8654
X5.115Y-1.5799
X5.115Y-1.6906
X5.115Y-2.5642
X5.115Y-2.6748
X5.115Y-3.5484
X5.115Y-3.6591
X5.115Y-4.5327
X5.115Y-4.6433
X5.1654Y-1.5776
X5.1654Y-1.6882
X5.1654Y-1.9126
X5.1654Y-2.5618
X5.1654Y-2.6724
X5.1654Y-2.8969
X5.1654Y-3.5461
X5.1654Y-3.6567
X5.1654Y-3.8811
X5.1654Y-4.5303
X5.1654Y-4.6409
X5.1654Y-4.8654
X5.2106Y-1.7748
X5.2106Y-2.7591
X5.2106Y-3.7433
X5.2106Y-4.7276
X5.2638Y-1.9126
X5.2638Y-2.8969
X5.2638Y-3.8811
X5.2638Y-4.8654
X5.2657Y-1.4717
X5.2657Y-2.4559
X5.2657Y-3.4402
X5.2657Y-4.4244
X5.315Y-1.4717
X5.315Y-2.4559
X5.315Y-3.4402
X5.315Y-4.4244
X5.376Y-1.3732
X5.376Y-2.3575
X5.376Y-3.3417
X5.376Y-4.326
X5.4148Y-1.601
X5.4148Y-2.5852
X5.4148Y-3.5695
X5.4148Y-4.5537
X5.4154Y-1.6902
X5.4154Y-1.9126
X5.4154Y-2.6744
X5.4154Y-2.8969
X5.4154Y-3.6587
X5.4154Y-3.8811
X5.4154Y-4.6429
X5.4154Y-4.8654
X5.4646Y-1.4717
X5.4646Y-2.4559
X5.4646Y-3.4402
X5.4646Y-4.4244
X5.565Y-1.4717
X5.565Y-2.4559
X5.565Y-3.4402
X5.565Y-4.4244
X5.6148Y-1.4717
X5.6148Y-1.6903
X5.6148Y-2.4559
X5.6148Y-2.6745
X5.6148Y-3.4402
X5.6148Y-3.6588
X5.6148Y-4.4244
X5.6148Y-4.643
X5.615Y-1.9122
X5.615Y-2.8965
X5.615Y-3.8807
X5.615Y-4.865
T3
X3.3362Y-1.4008
X3.3362Y-1.5543
X3.3362Y-1.7079
X3.3362Y-2.385
X3.3362Y-2.5386
X3.3362Y-2.6921
X3.3362Y-3.3693
X3.3362Y-3.5228
X3.3362Y-3.6764
X3.3362Y-4.3535
X3.3362Y-4.5071
X3.3362Y-4.6606
X3.6362Y-1.4008
X3.6362Y-1.5543
X3.6362Y-1.7079
X3.6362Y-2.385
X3.6362Y-2.5386
X3.6362Y-2.6921
X3.6362Y-3.3693
X3.6362Y-3.5228
X3.6362Y-3.6764
X3.6362Y-4.3535
X3.6362Y-4.5071
X3.6362Y-4.6606
T4
X2.5561Y-1.4039
X2.5561Y-1.7039
X2.5561Y-2.3882
X2.5561Y-2.6882
X2.5561Y-3.3724
X2.5561Y-3.6724
X2.5561Y-4.3567
X2.5561Y-4.6567
X2.6561Y-1.4039
X2.6561Y-1.7039
X2.6561Y-2.3882
X2.6561Y-2.6882
X2.6561Y-3.3724
X2.6561Y-3.6724
X2.6561Y-4.3567
X2.6561Y-4.6567
X2.7561Y-1.4039
X2.7561Y-1.7039
X2.7561Y-2.3882
X2.7561Y-2.6882
X2.7561Y-3.3724
X2.7561Y-3.6724
X2.7561Y-4.3567
X2.7561Y-4.6567
X2.8561Y-1.4039
X2.8561Y-1.7039
X2.8561Y-2.3882
X2.8561Y-2.6882
X2.8561Y-3.3724
X2.8561Y-3.6724
X2.8561Y-4.3567
X2.8561Y-4.6567
X2.9561Y-1.4039
X2.9561Y-1.7039
X2.9561Y-2.3882
X2.9561Y-2.6882
X2.9561Y-3.3724
X2.9561Y-3.6724
X2.9561Y-4.3567
X2.9561Y-4.6567
X3.0561Y-1.4039
X3.0561Y-1.7039
X3.0561Y-2.3882
X3.0561Y-2.6882
X3.0561Y-3.3724
X3.0561Y-3.6724
X3.0561Y-4.3567
X3.0561Y-4.6567
X3.1561Y-1.4039
X3.1561Y-1.7039
X3.1561Y-2.3882
X3.1561Y-2.6882
X3.1561Y-3.3724
X3.1561Y-3.6724
X3.1561Y-4.3567
X3.1561Y-4.6567
T5
X3.8996Y-1.3906
X3.8996Y-1.4906
X3.8996Y-2.3748
X3.8996Y-2.4748
X3.8996Y-3.3591
X3.8996Y-3.4591
X3.8996Y-4.3433
X3.8996Y-4.4433
X4.1358Y-1.3864
X4.1358Y-1.4864
X4.1358Y-2.3707
X4.1358Y-2.4707
X4.1358Y-3.3549
X4.1358Y-3.4549
X4.1358Y-4.3392
X4.1358Y-4.4392
X4.372Y-1.3864
X4.372Y-1.4864
X4.372Y-2.3707
X4.372Y-2.4707
X4.372Y-3.3549
X4.372Y-3.4549
X4.372Y-4.3392
X4.372Y-4.4392
T6
X3.8661Y-1.6508
X3.8661Y-1.9067
X3.8661Y-2.635
X3.8661Y-2.8909
X3.8661Y-3.6193
X3.8661Y-3.8752
X3.8661Y-4.6035
X3.8661Y-4.8594
X4.0433Y-1.6508
X4.0433Y-1.9067
X4.0433Y-2.635
X4.0433Y-2.8909
X4.0433Y-3.6193
X4.0433Y-3.8752
X4.0433Y-4.6035
X4.0433Y-4.8594
X4.2283Y-1.6508
X4.2283Y-1.9067
X4.2283Y-2.635
X4.2283Y-2.8909
X4.2283Y-3.6193
X4.2283Y-3.8752
X4.2283Y-4.6035
X4.2283Y-4.8594
X4.4055Y-1.6508
X4.4055Y-1.9067
X4.4055Y-2.635
X4.4055Y-2.8909
X4.4055Y-3.6193
X4.4055Y-3.8752
X4.4055Y-4.6035
X4.4055Y-4.8594
T7
X2.377Y-1.6213
X2.377Y-1.763
X2.377Y-2.6055
X2.377Y-2.7472
X2.377Y-3.5898
X2.377Y-3.7315
X2.377Y-4.574
X2.377Y-4.7157
T2
G00X2.2411Y-1.5228
M15
G01X2.2136Y-1.5228
M16
G05
G00X2.2411Y-1.8614
M15
G01X2.2136Y-1.8614
M16
G05
G00X2.2411Y-2.5071
M15
G01X2.2136Y-2.5071
M16
G05
G00X2.2411Y-2.8457
M15
G01X2.2136Y-2.8457
M16
G05
G00X2.2411Y-3.4913
M15
G01X2.2136Y-3.4913
M16
G05
G00X2.2411Y-3.8299
M15
G01X2.2136Y-3.8299
M16
G05
G00X2.2411Y-4.4756
M15
G01X2.2136Y-4.4756
M16
G05
G00X2.2411Y-4.8142
M15
G01X2.2136Y-4.8142
M16
G05
T8
G00X5.8287Y-1.4953
M15
G01X5.8287Y-1.6921
M16
G05
G00X5.8287Y-2.4795
M15
G01X5.8287Y-2.6764
M16
G05
G00X5.8287Y-3.4638
M15
G01X5.8287Y-3.6606
M16
G05
G00X5.8287Y-4.448
M15
G01X5.8287Y-4.6449
M16
G05
T0
M30
