%TF.GenerationSoftware,KiCad,Pcbnew,(6.0.10)*%
%TF.CreationDate,2024-05-12T12:16:17+09:00*%
%TF.ProjectId,simpleLogicCircuit_4x1_v1.3,73696d70-6c65-44c6-9f67-696343697263,rev?*%
%TF.SameCoordinates,Original*%
%TF.FileFunction,Paste,Top*%
%TF.FilePolarity,Positive*%
%FSLAX46Y46*%
G04 Gerber Fmt 4.6, Leading zero omitted, Abs format (unit mm)*
G04 Created by KiCad (PCBNEW (6.0.10)) date 2024-05-12 12:16:17*
%MOMM*%
%LPD*%
G01*
G04 APERTURE LIST*
G04 Aperture macros list*
%AMRoundRect*
0 Rectangle with rounded corners*
0 $1 Rounding radius*
0 $2 $3 $4 $5 $6 $7 $8 $9 X,Y pos of 4 corners*
0 Add a 4 corners polygon primitive as box body*
4,1,4,$2,$3,$4,$5,$6,$7,$8,$9,$2,$3,0*
0 Add four circle primitives for the rounded corners*
1,1,$1+$1,$2,$3*
1,1,$1+$1,$4,$5*
1,1,$1+$1,$6,$7*
1,1,$1+$1,$8,$9*
0 Add four rect primitives between the rounded corners*
20,1,$1+$1,$2,$3,$4,$5,0*
20,1,$1+$1,$4,$5,$6,$7,0*
20,1,$1+$1,$6,$7,$8,$9,0*
20,1,$1+$1,$8,$9,$2,$3,0*%
G04 Aperture macros list end*
%ADD10RoundRect,0.225000X-0.225000X-0.525000X0.225000X-0.525000X0.225000X0.525000X-0.225000X0.525000X0*%
%ADD11RoundRect,0.050000X-0.050000X-1.200000X0.050000X-1.200000X0.050000X1.200000X-0.050000X1.200000X0*%
%ADD12RoundRect,0.050000X-0.050000X-0.950000X0.050000X-0.950000X0.050000X0.950000X-0.050000X0.950000X0*%
%ADD13RoundRect,0.050000X-0.050000X-0.700000X0.050000X-0.700000X0.050000X0.700000X-0.050000X0.700000X0*%
G04 APERTURE END LIST*
D10*
%TO.C,XOR*%
X118485000Y-123580000D03*
X119755000Y-123580000D03*
X121025000Y-123580000D03*
X123565000Y-123580000D03*
X124835000Y-123580000D03*
X126105000Y-123580000D03*
X128645000Y-123580000D03*
X129915000Y-123580000D03*
X131185000Y-123580000D03*
X133725000Y-123580000D03*
X134995000Y-123580000D03*
X137535000Y-123580000D03*
X138805000Y-123580000D03*
X141345000Y-123580000D03*
X142615000Y-123580000D03*
%TD*%
D11*
%TO.C,REF\u002A\u002A*%
X73050000Y-104180000D03*
X83050000Y-104180000D03*
X143050000Y-104180000D03*
X103050000Y-104180000D03*
X133050000Y-104180000D03*
X123050000Y-104180000D03*
X93050000Y-104180000D03*
X113050000Y-104180000D03*
X63050000Y-104180000D03*
D12*
X148050000Y-103930000D03*
X88050000Y-103930000D03*
X128050000Y-103930000D03*
X108050000Y-103930000D03*
X68050000Y-103930000D03*
X138050000Y-103930000D03*
X118050000Y-103930000D03*
X98050000Y-103930000D03*
X58050000Y-103930000D03*
X78050000Y-103930000D03*
D13*
X87050000Y-103680000D03*
X77050000Y-103680000D03*
X57050000Y-103680000D03*
X107050000Y-103680000D03*
X97050000Y-103680000D03*
X127050000Y-103680000D03*
X147050000Y-103680000D03*
X137050000Y-103680000D03*
X117050000Y-103680000D03*
X67050000Y-103680000D03*
X116050000Y-103680000D03*
X96050000Y-103680000D03*
X66050000Y-103680000D03*
X106050000Y-103680000D03*
X126050000Y-103680000D03*
X86050000Y-103680000D03*
X76050000Y-103680000D03*
X136050000Y-103680000D03*
X146050000Y-103680000D03*
X56050000Y-103680000D03*
X75050000Y-103680000D03*
X95050000Y-103680000D03*
X115050000Y-103680000D03*
X135050000Y-103680000D03*
X105050000Y-103680000D03*
X145050000Y-103680000D03*
X55050000Y-103680000D03*
X65050000Y-103680000D03*
X85050000Y-103680000D03*
X125050000Y-103680000D03*
X134050000Y-103680000D03*
X94050000Y-103680000D03*
X84050000Y-103680000D03*
X54050000Y-103680000D03*
X124050000Y-103680000D03*
X144050000Y-103680000D03*
X114050000Y-103680000D03*
X104050000Y-103680000D03*
X64050000Y-103680000D03*
X74050000Y-103680000D03*
X89050000Y-103680000D03*
X119050000Y-103680000D03*
X59050000Y-103680000D03*
X109050000Y-103680000D03*
X139050000Y-103680000D03*
X69050000Y-103680000D03*
X79050000Y-103680000D03*
X149050000Y-103680000D03*
X129050000Y-103680000D03*
X99050000Y-103680000D03*
X90050000Y-103680000D03*
X60050000Y-103680000D03*
X100050000Y-103680000D03*
X130050000Y-103680000D03*
X150050000Y-103680000D03*
X80050000Y-103680000D03*
X70050000Y-103680000D03*
X140050000Y-103680000D03*
X110050000Y-103680000D03*
X120050000Y-103680000D03*
X121050000Y-103680000D03*
X81050000Y-103680000D03*
X61050000Y-103680000D03*
X151050000Y-103680000D03*
X141050000Y-103680000D03*
X91050000Y-103680000D03*
X101050000Y-103680000D03*
X131050000Y-103680000D03*
X71050000Y-103680000D03*
X111050000Y-103680000D03*
X92050000Y-103680000D03*
X112050000Y-103680000D03*
X132050000Y-103680000D03*
X62050000Y-103680000D03*
X142050000Y-103680000D03*
X102050000Y-103680000D03*
X82050000Y-103680000D03*
X72050000Y-103680000D03*
X122050000Y-103680000D03*
X152050000Y-103680000D03*
%TD*%
D10*
%TO.C,OR*%
X118485000Y-112380000D03*
X119755000Y-112380000D03*
X121025000Y-112380000D03*
X123565000Y-112380000D03*
X124835000Y-112380000D03*
X126105000Y-112380000D03*
X133725000Y-112380000D03*
X134995000Y-112380000D03*
X137535000Y-112380000D03*
X138805000Y-112380000D03*
X141345000Y-112380000D03*
X142615000Y-112380000D03*
%TD*%
%TO.C,AND*%
X118485000Y-117932500D03*
X119755000Y-117932500D03*
X123565000Y-117932500D03*
X124835000Y-117932500D03*
X128645000Y-117932500D03*
X129915000Y-117932500D03*
X131185000Y-117932500D03*
X141345000Y-117932500D03*
X142615000Y-117932500D03*
%TD*%
%TO.C,XOR*%
X118485000Y-98580000D03*
X119755000Y-98580000D03*
X121025000Y-98580000D03*
X123565000Y-98580000D03*
X124835000Y-98580000D03*
X126105000Y-98580000D03*
X128645000Y-98580000D03*
X129915000Y-98580000D03*
X131185000Y-98580000D03*
X133725000Y-98580000D03*
X134995000Y-98580000D03*
X137535000Y-98580000D03*
X138805000Y-98580000D03*
X141345000Y-98580000D03*
X142615000Y-98580000D03*
%TD*%
D11*
%TO.C,REF\u002A\u002A*%
X73050000Y-79180000D03*
X83050000Y-79180000D03*
X143050000Y-79180000D03*
X103050000Y-79180000D03*
X133050000Y-79180000D03*
X123050000Y-79180000D03*
X93050000Y-79180000D03*
X113050000Y-79180000D03*
X63050000Y-79180000D03*
D12*
X148050000Y-78930000D03*
X88050000Y-78930000D03*
X128050000Y-78930000D03*
X108050000Y-78930000D03*
X68050000Y-78930000D03*
X138050000Y-78930000D03*
X118050000Y-78930000D03*
X98050000Y-78930000D03*
X58050000Y-78930000D03*
X78050000Y-78930000D03*
D13*
X87050000Y-78680000D03*
X77050000Y-78680000D03*
X57050000Y-78680000D03*
X107050000Y-78680000D03*
X97050000Y-78680000D03*
X127050000Y-78680000D03*
X147050000Y-78680000D03*
X137050000Y-78680000D03*
X117050000Y-78680000D03*
X67050000Y-78680000D03*
X116050000Y-78680000D03*
X96050000Y-78680000D03*
X66050000Y-78680000D03*
X106050000Y-78680000D03*
X126050000Y-78680000D03*
X86050000Y-78680000D03*
X76050000Y-78680000D03*
X136050000Y-78680000D03*
X146050000Y-78680000D03*
X56050000Y-78680000D03*
X75050000Y-78680000D03*
X95050000Y-78680000D03*
X115050000Y-78680000D03*
X135050000Y-78680000D03*
X105050000Y-78680000D03*
X145050000Y-78680000D03*
X55050000Y-78680000D03*
X65050000Y-78680000D03*
X85050000Y-78680000D03*
X125050000Y-78680000D03*
X134050000Y-78680000D03*
X94050000Y-78680000D03*
X84050000Y-78680000D03*
X54050000Y-78680000D03*
X124050000Y-78680000D03*
X144050000Y-78680000D03*
X114050000Y-78680000D03*
X104050000Y-78680000D03*
X64050000Y-78680000D03*
X74050000Y-78680000D03*
X89050000Y-78680000D03*
X119050000Y-78680000D03*
X59050000Y-78680000D03*
X109050000Y-78680000D03*
X139050000Y-78680000D03*
X69050000Y-78680000D03*
X79050000Y-78680000D03*
X149050000Y-78680000D03*
X129050000Y-78680000D03*
X99050000Y-78680000D03*
X90050000Y-78680000D03*
X60050000Y-78680000D03*
X100050000Y-78680000D03*
X130050000Y-78680000D03*
X150050000Y-78680000D03*
X80050000Y-78680000D03*
X70050000Y-78680000D03*
X140050000Y-78680000D03*
X110050000Y-78680000D03*
X120050000Y-78680000D03*
X121050000Y-78680000D03*
X81050000Y-78680000D03*
X61050000Y-78680000D03*
X151050000Y-78680000D03*
X141050000Y-78680000D03*
X91050000Y-78680000D03*
X101050000Y-78680000D03*
X131050000Y-78680000D03*
X71050000Y-78680000D03*
X111050000Y-78680000D03*
X92050000Y-78680000D03*
X112050000Y-78680000D03*
X132050000Y-78680000D03*
X62050000Y-78680000D03*
X142050000Y-78680000D03*
X102050000Y-78680000D03*
X82050000Y-78680000D03*
X72050000Y-78680000D03*
X122050000Y-78680000D03*
X152050000Y-78680000D03*
%TD*%
D10*
%TO.C,OR*%
X118485000Y-87380000D03*
X119755000Y-87380000D03*
X121025000Y-87380000D03*
X123565000Y-87380000D03*
X124835000Y-87380000D03*
X126105000Y-87380000D03*
X133725000Y-87380000D03*
X134995000Y-87380000D03*
X137535000Y-87380000D03*
X138805000Y-87380000D03*
X141345000Y-87380000D03*
X142615000Y-87380000D03*
%TD*%
%TO.C,AND*%
X118485000Y-92932500D03*
X119755000Y-92932500D03*
X123565000Y-92932500D03*
X124835000Y-92932500D03*
X128645000Y-92932500D03*
X129915000Y-92932500D03*
X131185000Y-92932500D03*
X141345000Y-92932500D03*
X142615000Y-92932500D03*
%TD*%
%TO.C,XOR*%
X118485000Y-73580000D03*
X119755000Y-73580000D03*
X121025000Y-73580000D03*
X123565000Y-73580000D03*
X124835000Y-73580000D03*
X126105000Y-73580000D03*
X128645000Y-73580000D03*
X129915000Y-73580000D03*
X131185000Y-73580000D03*
X133725000Y-73580000D03*
X134995000Y-73580000D03*
X137535000Y-73580000D03*
X138805000Y-73580000D03*
X141345000Y-73580000D03*
X142615000Y-73580000D03*
%TD*%
D11*
%TO.C,REF\u002A\u002A*%
X73050000Y-54180000D03*
X83050000Y-54180000D03*
X143050000Y-54180000D03*
X103050000Y-54180000D03*
X133050000Y-54180000D03*
X123050000Y-54180000D03*
X93050000Y-54180000D03*
X113050000Y-54180000D03*
X63050000Y-54180000D03*
D12*
X148050000Y-53930000D03*
X88050000Y-53930000D03*
X128050000Y-53930000D03*
X108050000Y-53930000D03*
X68050000Y-53930000D03*
X138050000Y-53930000D03*
X118050000Y-53930000D03*
X98050000Y-53930000D03*
X58050000Y-53930000D03*
X78050000Y-53930000D03*
D13*
X87050000Y-53680000D03*
X77050000Y-53680000D03*
X57050000Y-53680000D03*
X107050000Y-53680000D03*
X97050000Y-53680000D03*
X127050000Y-53680000D03*
X147050000Y-53680000D03*
X137050000Y-53680000D03*
X117050000Y-53680000D03*
X67050000Y-53680000D03*
X116050000Y-53680000D03*
X96050000Y-53680000D03*
X66050000Y-53680000D03*
X106050000Y-53680000D03*
X126050000Y-53680000D03*
X86050000Y-53680000D03*
X76050000Y-53680000D03*
X136050000Y-53680000D03*
X146050000Y-53680000D03*
X56050000Y-53680000D03*
X75050000Y-53680000D03*
X95050000Y-53680000D03*
X115050000Y-53680000D03*
X135050000Y-53680000D03*
X105050000Y-53680000D03*
X145050000Y-53680000D03*
X55050000Y-53680000D03*
X65050000Y-53680000D03*
X85050000Y-53680000D03*
X125050000Y-53680000D03*
X134050000Y-53680000D03*
X94050000Y-53680000D03*
X84050000Y-53680000D03*
X54050000Y-53680000D03*
X124050000Y-53680000D03*
X144050000Y-53680000D03*
X114050000Y-53680000D03*
X104050000Y-53680000D03*
X64050000Y-53680000D03*
X74050000Y-53680000D03*
X89050000Y-53680000D03*
X119050000Y-53680000D03*
X59050000Y-53680000D03*
X109050000Y-53680000D03*
X139050000Y-53680000D03*
X69050000Y-53680000D03*
X79050000Y-53680000D03*
X149050000Y-53680000D03*
X129050000Y-53680000D03*
X99050000Y-53680000D03*
X90050000Y-53680000D03*
X60050000Y-53680000D03*
X100050000Y-53680000D03*
X130050000Y-53680000D03*
X150050000Y-53680000D03*
X80050000Y-53680000D03*
X70050000Y-53680000D03*
X140050000Y-53680000D03*
X110050000Y-53680000D03*
X120050000Y-53680000D03*
X121050000Y-53680000D03*
X81050000Y-53680000D03*
X61050000Y-53680000D03*
X151050000Y-53680000D03*
X141050000Y-53680000D03*
X91050000Y-53680000D03*
X101050000Y-53680000D03*
X131050000Y-53680000D03*
X71050000Y-53680000D03*
X111050000Y-53680000D03*
X92050000Y-53680000D03*
X112050000Y-53680000D03*
X132050000Y-53680000D03*
X62050000Y-53680000D03*
X142050000Y-53680000D03*
X102050000Y-53680000D03*
X82050000Y-53680000D03*
X72050000Y-53680000D03*
X122050000Y-53680000D03*
X152050000Y-53680000D03*
%TD*%
D10*
%TO.C,OR*%
X118485000Y-62380000D03*
X119755000Y-62380000D03*
X121025000Y-62380000D03*
X123565000Y-62380000D03*
X124835000Y-62380000D03*
X126105000Y-62380000D03*
X133725000Y-62380000D03*
X134995000Y-62380000D03*
X137535000Y-62380000D03*
X138805000Y-62380000D03*
X141345000Y-62380000D03*
X142615000Y-62380000D03*
%TD*%
%TO.C,AND*%
X118485000Y-67932500D03*
X119755000Y-67932500D03*
X123565000Y-67932500D03*
X124835000Y-67932500D03*
X128645000Y-67932500D03*
X129915000Y-67932500D03*
X131185000Y-67932500D03*
X141345000Y-67932500D03*
X142615000Y-67932500D03*
%TD*%
%TO.C,AND*%
X118485000Y-42932500D03*
X119755000Y-42932500D03*
X123565000Y-42932500D03*
X124835000Y-42932500D03*
X128645000Y-42932500D03*
X129915000Y-42932500D03*
X131185000Y-42932500D03*
X141345000Y-42932500D03*
X142615000Y-42932500D03*
%TD*%
%TO.C,XOR*%
X118485000Y-48580000D03*
X119755000Y-48580000D03*
X121025000Y-48580000D03*
X123565000Y-48580000D03*
X124835000Y-48580000D03*
X126105000Y-48580000D03*
X128645000Y-48580000D03*
X129915000Y-48580000D03*
X131185000Y-48580000D03*
X133725000Y-48580000D03*
X134995000Y-48580000D03*
X137535000Y-48580000D03*
X138805000Y-48580000D03*
X141345000Y-48580000D03*
X142615000Y-48580000D03*
%TD*%
%TO.C,OR*%
X118485000Y-37380000D03*
X119755000Y-37380000D03*
X121025000Y-37380000D03*
X123565000Y-37380000D03*
X124835000Y-37380000D03*
X126105000Y-37380000D03*
X133725000Y-37380000D03*
X134995000Y-37380000D03*
X137535000Y-37380000D03*
X138805000Y-37380000D03*
X141345000Y-37380000D03*
X142615000Y-37380000D03*
%TD*%
D11*
%TO.C,REF\u002A\u002A*%
X73050000Y-29180000D03*
X83050000Y-29180000D03*
X143050000Y-29180000D03*
X103050000Y-29180000D03*
X133050000Y-29180000D03*
X123050000Y-29180000D03*
X93050000Y-29180000D03*
X113050000Y-29180000D03*
X63050000Y-29180000D03*
D12*
X148050000Y-28930000D03*
X88050000Y-28930000D03*
X128050000Y-28930000D03*
X108050000Y-28930000D03*
X68050000Y-28930000D03*
X138050000Y-28930000D03*
X118050000Y-28930000D03*
X98050000Y-28930000D03*
X58050000Y-28930000D03*
X78050000Y-28930000D03*
D13*
X87050000Y-28680000D03*
X77050000Y-28680000D03*
X57050000Y-28680000D03*
X107050000Y-28680000D03*
X97050000Y-28680000D03*
X127050000Y-28680000D03*
X147050000Y-28680000D03*
X137050000Y-28680000D03*
X117050000Y-28680000D03*
X67050000Y-28680000D03*
X116050000Y-28680000D03*
X96050000Y-28680000D03*
X66050000Y-28680000D03*
X106050000Y-28680000D03*
X126050000Y-28680000D03*
X86050000Y-28680000D03*
X76050000Y-28680000D03*
X136050000Y-28680000D03*
X146050000Y-28680000D03*
X56050000Y-28680000D03*
X75050000Y-28680000D03*
X95050000Y-28680000D03*
X115050000Y-28680000D03*
X135050000Y-28680000D03*
X105050000Y-28680000D03*
X145050000Y-28680000D03*
X55050000Y-28680000D03*
X65050000Y-28680000D03*
X85050000Y-28680000D03*
X125050000Y-28680000D03*
X134050000Y-28680000D03*
X94050000Y-28680000D03*
X84050000Y-28680000D03*
X54050000Y-28680000D03*
X124050000Y-28680000D03*
X144050000Y-28680000D03*
X114050000Y-28680000D03*
X104050000Y-28680000D03*
X64050000Y-28680000D03*
X74050000Y-28680000D03*
X89050000Y-28680000D03*
X119050000Y-28680000D03*
X59050000Y-28680000D03*
X109050000Y-28680000D03*
X139050000Y-28680000D03*
X69050000Y-28680000D03*
X79050000Y-28680000D03*
X149050000Y-28680000D03*
X129050000Y-28680000D03*
X99050000Y-28680000D03*
X90050000Y-28680000D03*
X60050000Y-28680000D03*
X100050000Y-28680000D03*
X130050000Y-28680000D03*
X150050000Y-28680000D03*
X80050000Y-28680000D03*
X70050000Y-28680000D03*
X140050000Y-28680000D03*
X110050000Y-28680000D03*
X120050000Y-28680000D03*
X121050000Y-28680000D03*
X81050000Y-28680000D03*
X61050000Y-28680000D03*
X151050000Y-28680000D03*
X141050000Y-28680000D03*
X91050000Y-28680000D03*
X101050000Y-28680000D03*
X131050000Y-28680000D03*
X71050000Y-28680000D03*
X111050000Y-28680000D03*
X92050000Y-28680000D03*
X112050000Y-28680000D03*
X132050000Y-28680000D03*
X62050000Y-28680000D03*
X142050000Y-28680000D03*
X102050000Y-28680000D03*
X82050000Y-28680000D03*
X72050000Y-28680000D03*
X122050000Y-28680000D03*
X152050000Y-28680000D03*
%TD*%
M02*
