%TF.GenerationSoftware,KiCad,Pcbnew,(6.0.10)*%
%TF.CreationDate,2024-05-12T12:16:17+09:00*%
%TF.ProjectId,simpleLogicCircuit_4x1_v1.3,73696d70-6c65-44c6-9f67-696343697263,rev?*%
%TF.SameCoordinates,Original*%
%TF.FileFunction,Legend,Top*%
%TF.FilePolarity,Positive*%
%FSLAX46Y46*%
G04 Gerber Fmt 4.6, Leading zero omitted, Abs format (unit mm)*
G04 Created by KiCad (PCBNEW (6.0.10)) date 2024-05-12 12:16:17*
%MOMM*%
%LPD*%
G01*
G04 APERTURE LIST*
%ADD10C,0.300000*%
%ADD11C,0.150000*%
%ADD12C,0.120000*%
G04 APERTURE END LIST*
D10*
X64516428Y-123601071D02*
X63802142Y-123601071D01*
X63802142Y-122101071D01*
X65230714Y-123601071D02*
X65087857Y-123529642D01*
X65016428Y-123458214D01*
X64945000Y-123315357D01*
X64945000Y-122886785D01*
X65016428Y-122743928D01*
X65087857Y-122672500D01*
X65230714Y-122601071D01*
X65445000Y-122601071D01*
X65587857Y-122672500D01*
X65659285Y-122743928D01*
X65730714Y-122886785D01*
X65730714Y-123315357D01*
X65659285Y-123458214D01*
X65587857Y-123529642D01*
X65445000Y-123601071D01*
X65230714Y-123601071D01*
X67016428Y-122601071D02*
X67016428Y-123815357D01*
X66945000Y-123958214D01*
X66873571Y-124029642D01*
X66730714Y-124101071D01*
X66516428Y-124101071D01*
X66373571Y-124029642D01*
X67016428Y-123529642D02*
X66873571Y-123601071D01*
X66587857Y-123601071D01*
X66445000Y-123529642D01*
X66373571Y-123458214D01*
X66302142Y-123315357D01*
X66302142Y-122886785D01*
X66373571Y-122743928D01*
X66445000Y-122672500D01*
X66587857Y-122601071D01*
X66873571Y-122601071D01*
X67016428Y-122672500D01*
X67730714Y-123601071D02*
X67730714Y-122601071D01*
X67730714Y-122101071D02*
X67659285Y-122172500D01*
X67730714Y-122243928D01*
X67802142Y-122172500D01*
X67730714Y-122101071D01*
X67730714Y-122243928D01*
X69087857Y-123529642D02*
X68945000Y-123601071D01*
X68659285Y-123601071D01*
X68516428Y-123529642D01*
X68445000Y-123458214D01*
X68373571Y-123315357D01*
X68373571Y-122886785D01*
X68445000Y-122743928D01*
X68516428Y-122672500D01*
X68659285Y-122601071D01*
X68945000Y-122601071D01*
X69087857Y-122672500D01*
X71659285Y-122172500D02*
X71516428Y-122101071D01*
X71302142Y-122101071D01*
X71087857Y-122172500D01*
X70945000Y-122315357D01*
X70873571Y-122458214D01*
X70802142Y-122743928D01*
X70802142Y-122958214D01*
X70873571Y-123243928D01*
X70945000Y-123386785D01*
X71087857Y-123529642D01*
X71302142Y-123601071D01*
X71445000Y-123601071D01*
X71659285Y-123529642D01*
X71730714Y-123458214D01*
X71730714Y-122958214D01*
X71445000Y-122958214D01*
X73016428Y-123601071D02*
X73016428Y-122815357D01*
X72945000Y-122672500D01*
X72802142Y-122601071D01*
X72516428Y-122601071D01*
X72373571Y-122672500D01*
X73016428Y-123529642D02*
X72873571Y-123601071D01*
X72516428Y-123601071D01*
X72373571Y-123529642D01*
X72302142Y-123386785D01*
X72302142Y-123243928D01*
X72373571Y-123101071D01*
X72516428Y-123029642D01*
X72873571Y-123029642D01*
X73016428Y-122958214D01*
X73516428Y-122601071D02*
X74087857Y-122601071D01*
X73730714Y-122101071D02*
X73730714Y-123386785D01*
X73802142Y-123529642D01*
X73945000Y-123601071D01*
X74087857Y-123601071D01*
X75159285Y-123529642D02*
X75016428Y-123601071D01*
X74730714Y-123601071D01*
X74587857Y-123529642D01*
X74516428Y-123386785D01*
X74516428Y-122815357D01*
X74587857Y-122672500D01*
X74730714Y-122601071D01*
X75016428Y-122601071D01*
X75159285Y-122672500D01*
X75230714Y-122815357D01*
X75230714Y-122958214D01*
X74516428Y-123101071D01*
X77873571Y-123601071D02*
X77373571Y-122886785D01*
X77016428Y-123601071D02*
X77016428Y-122101071D01*
X77587857Y-122101071D01*
X77730714Y-122172500D01*
X77802142Y-122243928D01*
X77873571Y-122386785D01*
X77873571Y-122601071D01*
X77802142Y-122743928D01*
X77730714Y-122815357D01*
X77587857Y-122886785D01*
X77016428Y-122886785D01*
X79159285Y-122601071D02*
X79159285Y-123601071D01*
X78516428Y-122601071D02*
X78516428Y-123386785D01*
X78587857Y-123529642D01*
X78730714Y-123601071D01*
X78945000Y-123601071D01*
X79087857Y-123529642D01*
X79159285Y-123458214D01*
X80087857Y-123601071D02*
X79945000Y-123529642D01*
X79873571Y-123386785D01*
X79873571Y-122101071D01*
X81230714Y-123529642D02*
X81087857Y-123601071D01*
X80802142Y-123601071D01*
X80659285Y-123529642D01*
X80587857Y-123386785D01*
X80587857Y-122815357D01*
X80659285Y-122672500D01*
X80802142Y-122601071D01*
X81087857Y-122601071D01*
X81230714Y-122672500D01*
X81302142Y-122815357D01*
X81302142Y-122958214D01*
X80587857Y-123101071D01*
X81945000Y-123601071D02*
X81945000Y-122601071D01*
X81945000Y-122886785D02*
X82016428Y-122743928D01*
X82087857Y-122672500D01*
X82230714Y-122601071D01*
X82373571Y-122601071D01*
X83873571Y-122601071D02*
X84230714Y-123601071D01*
X84587857Y-122601071D01*
X85945000Y-123601071D02*
X85087857Y-123601071D01*
X85516428Y-123601071D02*
X85516428Y-122101071D01*
X85373571Y-122315357D01*
X85230714Y-122458214D01*
X85087857Y-122529642D01*
X86587857Y-123458214D02*
X86659285Y-123529642D01*
X86587857Y-123601071D01*
X86516428Y-123529642D01*
X86587857Y-123458214D01*
X86587857Y-123601071D01*
X87159285Y-122101071D02*
X88087857Y-122101071D01*
X87587857Y-122672500D01*
X87802142Y-122672500D01*
X87945000Y-122743928D01*
X88016428Y-122815357D01*
X88087857Y-122958214D01*
X88087857Y-123315357D01*
X88016428Y-123458214D01*
X87945000Y-123529642D01*
X87802142Y-123601071D01*
X87373571Y-123601071D01*
X87230714Y-123529642D01*
X87159285Y-123458214D01*
X63802142Y-126016071D02*
X63802142Y-124516071D01*
X64159285Y-124516071D01*
X64373571Y-124587500D01*
X64516428Y-124730357D01*
X64587857Y-124873214D01*
X64659285Y-125158928D01*
X64659285Y-125373214D01*
X64587857Y-125658928D01*
X64516428Y-125801785D01*
X64373571Y-125944642D01*
X64159285Y-126016071D01*
X63802142Y-126016071D01*
X65873571Y-125944642D02*
X65730714Y-126016071D01*
X65445000Y-126016071D01*
X65302142Y-125944642D01*
X65230714Y-125801785D01*
X65230714Y-125230357D01*
X65302142Y-125087500D01*
X65445000Y-125016071D01*
X65730714Y-125016071D01*
X65873571Y-125087500D01*
X65945000Y-125230357D01*
X65945000Y-125373214D01*
X65230714Y-125516071D01*
X66516428Y-125944642D02*
X66659285Y-126016071D01*
X66945000Y-126016071D01*
X67087857Y-125944642D01*
X67159285Y-125801785D01*
X67159285Y-125730357D01*
X67087857Y-125587500D01*
X66945000Y-125516071D01*
X66730714Y-125516071D01*
X66587857Y-125444642D01*
X66516428Y-125301785D01*
X66516428Y-125230357D01*
X66587857Y-125087500D01*
X66730714Y-125016071D01*
X66945000Y-125016071D01*
X67087857Y-125087500D01*
X67802142Y-126016071D02*
X67802142Y-125016071D01*
X67802142Y-124516071D02*
X67730714Y-124587500D01*
X67802142Y-124658928D01*
X67873571Y-124587500D01*
X67802142Y-124516071D01*
X67802142Y-124658928D01*
X69159285Y-125016071D02*
X69159285Y-126230357D01*
X69087857Y-126373214D01*
X69016428Y-126444642D01*
X68873571Y-126516071D01*
X68659285Y-126516071D01*
X68516428Y-126444642D01*
X69159285Y-125944642D02*
X69016428Y-126016071D01*
X68730714Y-126016071D01*
X68587857Y-125944642D01*
X68516428Y-125873214D01*
X68445000Y-125730357D01*
X68445000Y-125301785D01*
X68516428Y-125158928D01*
X68587857Y-125087500D01*
X68730714Y-125016071D01*
X69016428Y-125016071D01*
X69159285Y-125087500D01*
X69873571Y-125016071D02*
X69873571Y-126016071D01*
X69873571Y-125158928D02*
X69945000Y-125087500D01*
X70087857Y-125016071D01*
X70302142Y-125016071D01*
X70445000Y-125087500D01*
X70516428Y-125230357D01*
X70516428Y-126016071D01*
X71802142Y-125944642D02*
X71659285Y-126016071D01*
X71373571Y-126016071D01*
X71230714Y-125944642D01*
X71159285Y-125801785D01*
X71159285Y-125230357D01*
X71230714Y-125087500D01*
X71373571Y-125016071D01*
X71659285Y-125016071D01*
X71802142Y-125087500D01*
X71873571Y-125230357D01*
X71873571Y-125373214D01*
X71159285Y-125516071D01*
X73159285Y-126016071D02*
X73159285Y-124516071D01*
X73159285Y-125944642D02*
X73016428Y-126016071D01*
X72730714Y-126016071D01*
X72587857Y-125944642D01*
X72516428Y-125873214D01*
X72445000Y-125730357D01*
X72445000Y-125301785D01*
X72516428Y-125158928D01*
X72587857Y-125087500D01*
X72730714Y-125016071D01*
X73016428Y-125016071D01*
X73159285Y-125087500D01*
X75016428Y-126016071D02*
X75016428Y-124516071D01*
X75016428Y-125087500D02*
X75159285Y-125016071D01*
X75445000Y-125016071D01*
X75587857Y-125087500D01*
X75659285Y-125158928D01*
X75730714Y-125301785D01*
X75730714Y-125730357D01*
X75659285Y-125873214D01*
X75587857Y-125944642D01*
X75445000Y-126016071D01*
X75159285Y-126016071D01*
X75016428Y-125944642D01*
X76230714Y-125016071D02*
X76587857Y-126016071D01*
X76945000Y-125016071D02*
X76587857Y-126016071D01*
X76445000Y-126373214D01*
X76373571Y-126444642D01*
X76230714Y-126516071D01*
X78659285Y-126016071D02*
X78659285Y-124516071D01*
X79159285Y-125587500D01*
X79659285Y-124516071D01*
X79659285Y-126016071D01*
X80373571Y-126016071D02*
X80373571Y-124516071D01*
X81802142Y-126016071D02*
X81087857Y-126016071D01*
X81087857Y-124516071D01*
X82945000Y-126016071D02*
X82945000Y-125230357D01*
X82873571Y-125087500D01*
X82730714Y-125016071D01*
X82445000Y-125016071D01*
X82302142Y-125087500D01*
X82945000Y-125944642D02*
X82802142Y-126016071D01*
X82445000Y-126016071D01*
X82302142Y-125944642D01*
X82230714Y-125801785D01*
X82230714Y-125658928D01*
X82302142Y-125516071D01*
X82445000Y-125444642D01*
X82802142Y-125444642D01*
X82945000Y-125373214D01*
X83659285Y-126016071D02*
X83659285Y-124516071D01*
X83659285Y-125087500D02*
X83802142Y-125016071D01*
X84087857Y-125016071D01*
X84230714Y-125087500D01*
X84302142Y-125158928D01*
X84373571Y-125301785D01*
X84373571Y-125730357D01*
X84302142Y-125873214D01*
X84230714Y-125944642D01*
X84087857Y-126016071D01*
X83802142Y-126016071D01*
X83659285Y-125944642D01*
X86087857Y-124658928D02*
X86159285Y-124587500D01*
X86302142Y-124516071D01*
X86659285Y-124516071D01*
X86802142Y-124587500D01*
X86873571Y-124658928D01*
X86945000Y-124801785D01*
X86945000Y-124944642D01*
X86873571Y-125158928D01*
X86016428Y-126016071D01*
X86945000Y-126016071D01*
X87873571Y-124516071D02*
X88016428Y-124516071D01*
X88159285Y-124587500D01*
X88230714Y-124658928D01*
X88302142Y-124801785D01*
X88373571Y-125087500D01*
X88373571Y-125444642D01*
X88302142Y-125730357D01*
X88230714Y-125873214D01*
X88159285Y-125944642D01*
X88016428Y-126016071D01*
X87873571Y-126016071D01*
X87730714Y-125944642D01*
X87659285Y-125873214D01*
X87587857Y-125730357D01*
X87516428Y-125444642D01*
X87516428Y-125087500D01*
X87587857Y-124801785D01*
X87659285Y-124658928D01*
X87730714Y-124587500D01*
X87873571Y-124516071D01*
X88945000Y-124658928D02*
X89016428Y-124587500D01*
X89159285Y-124516071D01*
X89516428Y-124516071D01*
X89659285Y-124587500D01*
X89730714Y-124658928D01*
X89802142Y-124801785D01*
X89802142Y-124944642D01*
X89730714Y-125158928D01*
X88873571Y-126016071D01*
X89802142Y-126016071D01*
X91087857Y-125016071D02*
X91087857Y-126016071D01*
X90730714Y-124444642D02*
X90373571Y-125516071D01*
X91302142Y-125516071D01*
D11*
X55697380Y-120360952D02*
X56506904Y-120360952D01*
X56602142Y-120313333D01*
X56649761Y-120265714D01*
X56697380Y-120170476D01*
X56697380Y-119980000D01*
X56649761Y-119884761D01*
X56602142Y-119837142D01*
X56506904Y-119789523D01*
X55697380Y-119789523D01*
X56649761Y-119360952D02*
X56697380Y-119218095D01*
X56697380Y-118980000D01*
X56649761Y-118884761D01*
X56602142Y-118837142D01*
X56506904Y-118789523D01*
X56411666Y-118789523D01*
X56316428Y-118837142D01*
X56268809Y-118884761D01*
X56221190Y-118980000D01*
X56173571Y-119170476D01*
X56125952Y-119265714D01*
X56078333Y-119313333D01*
X55983095Y-119360952D01*
X55887857Y-119360952D01*
X55792619Y-119313333D01*
X55745000Y-119265714D01*
X55697380Y-119170476D01*
X55697380Y-118932380D01*
X55745000Y-118789523D01*
X56173571Y-118027619D02*
X56221190Y-117884761D01*
X56268809Y-117837142D01*
X56364047Y-117789523D01*
X56506904Y-117789523D01*
X56602142Y-117837142D01*
X56649761Y-117884761D01*
X56697380Y-117980000D01*
X56697380Y-118360952D01*
X55697380Y-118360952D01*
X55697380Y-118027619D01*
X55745000Y-117932380D01*
X55792619Y-117884761D01*
X55887857Y-117837142D01*
X55983095Y-117837142D01*
X56078333Y-117884761D01*
X56125952Y-117932380D01*
X56173571Y-118027619D01*
X56173571Y-118360952D01*
X56316428Y-117360952D02*
X56316428Y-116599047D01*
X56602142Y-115551428D02*
X56649761Y-115599047D01*
X56697380Y-115741904D01*
X56697380Y-115837142D01*
X56649761Y-115980000D01*
X56554523Y-116075238D01*
X56459285Y-116122857D01*
X56268809Y-116170476D01*
X56125952Y-116170476D01*
X55935476Y-116122857D01*
X55840238Y-116075238D01*
X55745000Y-115980000D01*
X55697380Y-115837142D01*
X55697380Y-115741904D01*
X55745000Y-115599047D01*
X55792619Y-115551428D01*
X58307380Y-120289523D02*
X57307380Y-120289523D01*
X57307380Y-119908571D01*
X57355000Y-119813333D01*
X57402619Y-119765714D01*
X57497857Y-119718095D01*
X57640714Y-119718095D01*
X57735952Y-119765714D01*
X57783571Y-119813333D01*
X57831190Y-119908571D01*
X57831190Y-120289523D01*
X57307380Y-119099047D02*
X57307380Y-118908571D01*
X57355000Y-118813333D01*
X57450238Y-118718095D01*
X57640714Y-118670476D01*
X57974047Y-118670476D01*
X58164523Y-118718095D01*
X58259761Y-118813333D01*
X58307380Y-118908571D01*
X58307380Y-119099047D01*
X58259761Y-119194285D01*
X58164523Y-119289523D01*
X57974047Y-119337142D01*
X57640714Y-119337142D01*
X57450238Y-119289523D01*
X57355000Y-119194285D01*
X57307380Y-119099047D01*
X57307380Y-118337142D02*
X58307380Y-118099047D01*
X57593095Y-117908571D01*
X58307380Y-117718095D01*
X57307380Y-117480000D01*
X57783571Y-117099047D02*
X57783571Y-116765714D01*
X58307380Y-116622857D02*
X58307380Y-117099047D01*
X57307380Y-117099047D01*
X57307380Y-116622857D01*
X58307380Y-115622857D02*
X57831190Y-115956190D01*
X58307380Y-116194285D02*
X57307380Y-116194285D01*
X57307380Y-115813333D01*
X57355000Y-115718095D01*
X57402619Y-115670476D01*
X57497857Y-115622857D01*
X57640714Y-115622857D01*
X57735952Y-115670476D01*
X57783571Y-115718095D01*
X57831190Y-115813333D01*
X57831190Y-116194285D01*
D10*
X64516428Y-98601071D02*
X63802142Y-98601071D01*
X63802142Y-97101071D01*
X65230714Y-98601071D02*
X65087857Y-98529642D01*
X65016428Y-98458214D01*
X64945000Y-98315357D01*
X64945000Y-97886785D01*
X65016428Y-97743928D01*
X65087857Y-97672500D01*
X65230714Y-97601071D01*
X65445000Y-97601071D01*
X65587857Y-97672500D01*
X65659285Y-97743928D01*
X65730714Y-97886785D01*
X65730714Y-98315357D01*
X65659285Y-98458214D01*
X65587857Y-98529642D01*
X65445000Y-98601071D01*
X65230714Y-98601071D01*
X67016428Y-97601071D02*
X67016428Y-98815357D01*
X66945000Y-98958214D01*
X66873571Y-99029642D01*
X66730714Y-99101071D01*
X66516428Y-99101071D01*
X66373571Y-99029642D01*
X67016428Y-98529642D02*
X66873571Y-98601071D01*
X66587857Y-98601071D01*
X66445000Y-98529642D01*
X66373571Y-98458214D01*
X66302142Y-98315357D01*
X66302142Y-97886785D01*
X66373571Y-97743928D01*
X66445000Y-97672500D01*
X66587857Y-97601071D01*
X66873571Y-97601071D01*
X67016428Y-97672500D01*
X67730714Y-98601071D02*
X67730714Y-97601071D01*
X67730714Y-97101071D02*
X67659285Y-97172500D01*
X67730714Y-97243928D01*
X67802142Y-97172500D01*
X67730714Y-97101071D01*
X67730714Y-97243928D01*
X69087857Y-98529642D02*
X68945000Y-98601071D01*
X68659285Y-98601071D01*
X68516428Y-98529642D01*
X68445000Y-98458214D01*
X68373571Y-98315357D01*
X68373571Y-97886785D01*
X68445000Y-97743928D01*
X68516428Y-97672500D01*
X68659285Y-97601071D01*
X68945000Y-97601071D01*
X69087857Y-97672500D01*
X71659285Y-97172500D02*
X71516428Y-97101071D01*
X71302142Y-97101071D01*
X71087857Y-97172500D01*
X70945000Y-97315357D01*
X70873571Y-97458214D01*
X70802142Y-97743928D01*
X70802142Y-97958214D01*
X70873571Y-98243928D01*
X70945000Y-98386785D01*
X71087857Y-98529642D01*
X71302142Y-98601071D01*
X71445000Y-98601071D01*
X71659285Y-98529642D01*
X71730714Y-98458214D01*
X71730714Y-97958214D01*
X71445000Y-97958214D01*
X73016428Y-98601071D02*
X73016428Y-97815357D01*
X72945000Y-97672500D01*
X72802142Y-97601071D01*
X72516428Y-97601071D01*
X72373571Y-97672500D01*
X73016428Y-98529642D02*
X72873571Y-98601071D01*
X72516428Y-98601071D01*
X72373571Y-98529642D01*
X72302142Y-98386785D01*
X72302142Y-98243928D01*
X72373571Y-98101071D01*
X72516428Y-98029642D01*
X72873571Y-98029642D01*
X73016428Y-97958214D01*
X73516428Y-97601071D02*
X74087857Y-97601071D01*
X73730714Y-97101071D02*
X73730714Y-98386785D01*
X73802142Y-98529642D01*
X73945000Y-98601071D01*
X74087857Y-98601071D01*
X75159285Y-98529642D02*
X75016428Y-98601071D01*
X74730714Y-98601071D01*
X74587857Y-98529642D01*
X74516428Y-98386785D01*
X74516428Y-97815357D01*
X74587857Y-97672500D01*
X74730714Y-97601071D01*
X75016428Y-97601071D01*
X75159285Y-97672500D01*
X75230714Y-97815357D01*
X75230714Y-97958214D01*
X74516428Y-98101071D01*
X77873571Y-98601071D02*
X77373571Y-97886785D01*
X77016428Y-98601071D02*
X77016428Y-97101071D01*
X77587857Y-97101071D01*
X77730714Y-97172500D01*
X77802142Y-97243928D01*
X77873571Y-97386785D01*
X77873571Y-97601071D01*
X77802142Y-97743928D01*
X77730714Y-97815357D01*
X77587857Y-97886785D01*
X77016428Y-97886785D01*
X79159285Y-97601071D02*
X79159285Y-98601071D01*
X78516428Y-97601071D02*
X78516428Y-98386785D01*
X78587857Y-98529642D01*
X78730714Y-98601071D01*
X78945000Y-98601071D01*
X79087857Y-98529642D01*
X79159285Y-98458214D01*
X80087857Y-98601071D02*
X79945000Y-98529642D01*
X79873571Y-98386785D01*
X79873571Y-97101071D01*
X81230714Y-98529642D02*
X81087857Y-98601071D01*
X80802142Y-98601071D01*
X80659285Y-98529642D01*
X80587857Y-98386785D01*
X80587857Y-97815357D01*
X80659285Y-97672500D01*
X80802142Y-97601071D01*
X81087857Y-97601071D01*
X81230714Y-97672500D01*
X81302142Y-97815357D01*
X81302142Y-97958214D01*
X80587857Y-98101071D01*
X81945000Y-98601071D02*
X81945000Y-97601071D01*
X81945000Y-97886785D02*
X82016428Y-97743928D01*
X82087857Y-97672500D01*
X82230714Y-97601071D01*
X82373571Y-97601071D01*
X83873571Y-97601071D02*
X84230714Y-98601071D01*
X84587857Y-97601071D01*
X85945000Y-98601071D02*
X85087857Y-98601071D01*
X85516428Y-98601071D02*
X85516428Y-97101071D01*
X85373571Y-97315357D01*
X85230714Y-97458214D01*
X85087857Y-97529642D01*
X86587857Y-98458214D02*
X86659285Y-98529642D01*
X86587857Y-98601071D01*
X86516428Y-98529642D01*
X86587857Y-98458214D01*
X86587857Y-98601071D01*
X87159285Y-97101071D02*
X88087857Y-97101071D01*
X87587857Y-97672500D01*
X87802142Y-97672500D01*
X87945000Y-97743928D01*
X88016428Y-97815357D01*
X88087857Y-97958214D01*
X88087857Y-98315357D01*
X88016428Y-98458214D01*
X87945000Y-98529642D01*
X87802142Y-98601071D01*
X87373571Y-98601071D01*
X87230714Y-98529642D01*
X87159285Y-98458214D01*
X63802142Y-101016071D02*
X63802142Y-99516071D01*
X64159285Y-99516071D01*
X64373571Y-99587500D01*
X64516428Y-99730357D01*
X64587857Y-99873214D01*
X64659285Y-100158928D01*
X64659285Y-100373214D01*
X64587857Y-100658928D01*
X64516428Y-100801785D01*
X64373571Y-100944642D01*
X64159285Y-101016071D01*
X63802142Y-101016071D01*
X65873571Y-100944642D02*
X65730714Y-101016071D01*
X65445000Y-101016071D01*
X65302142Y-100944642D01*
X65230714Y-100801785D01*
X65230714Y-100230357D01*
X65302142Y-100087500D01*
X65445000Y-100016071D01*
X65730714Y-100016071D01*
X65873571Y-100087500D01*
X65945000Y-100230357D01*
X65945000Y-100373214D01*
X65230714Y-100516071D01*
X66516428Y-100944642D02*
X66659285Y-101016071D01*
X66945000Y-101016071D01*
X67087857Y-100944642D01*
X67159285Y-100801785D01*
X67159285Y-100730357D01*
X67087857Y-100587500D01*
X66945000Y-100516071D01*
X66730714Y-100516071D01*
X66587857Y-100444642D01*
X66516428Y-100301785D01*
X66516428Y-100230357D01*
X66587857Y-100087500D01*
X66730714Y-100016071D01*
X66945000Y-100016071D01*
X67087857Y-100087500D01*
X67802142Y-101016071D02*
X67802142Y-100016071D01*
X67802142Y-99516071D02*
X67730714Y-99587500D01*
X67802142Y-99658928D01*
X67873571Y-99587500D01*
X67802142Y-99516071D01*
X67802142Y-99658928D01*
X69159285Y-100016071D02*
X69159285Y-101230357D01*
X69087857Y-101373214D01*
X69016428Y-101444642D01*
X68873571Y-101516071D01*
X68659285Y-101516071D01*
X68516428Y-101444642D01*
X69159285Y-100944642D02*
X69016428Y-101016071D01*
X68730714Y-101016071D01*
X68587857Y-100944642D01*
X68516428Y-100873214D01*
X68445000Y-100730357D01*
X68445000Y-100301785D01*
X68516428Y-100158928D01*
X68587857Y-100087500D01*
X68730714Y-100016071D01*
X69016428Y-100016071D01*
X69159285Y-100087500D01*
X69873571Y-100016071D02*
X69873571Y-101016071D01*
X69873571Y-100158928D02*
X69945000Y-100087500D01*
X70087857Y-100016071D01*
X70302142Y-100016071D01*
X70445000Y-100087500D01*
X70516428Y-100230357D01*
X70516428Y-101016071D01*
X71802142Y-100944642D02*
X71659285Y-101016071D01*
X71373571Y-101016071D01*
X71230714Y-100944642D01*
X71159285Y-100801785D01*
X71159285Y-100230357D01*
X71230714Y-100087500D01*
X71373571Y-100016071D01*
X71659285Y-100016071D01*
X71802142Y-100087500D01*
X71873571Y-100230357D01*
X71873571Y-100373214D01*
X71159285Y-100516071D01*
X73159285Y-101016071D02*
X73159285Y-99516071D01*
X73159285Y-100944642D02*
X73016428Y-101016071D01*
X72730714Y-101016071D01*
X72587857Y-100944642D01*
X72516428Y-100873214D01*
X72445000Y-100730357D01*
X72445000Y-100301785D01*
X72516428Y-100158928D01*
X72587857Y-100087500D01*
X72730714Y-100016071D01*
X73016428Y-100016071D01*
X73159285Y-100087500D01*
X75016428Y-101016071D02*
X75016428Y-99516071D01*
X75016428Y-100087500D02*
X75159285Y-100016071D01*
X75445000Y-100016071D01*
X75587857Y-100087500D01*
X75659285Y-100158928D01*
X75730714Y-100301785D01*
X75730714Y-100730357D01*
X75659285Y-100873214D01*
X75587857Y-100944642D01*
X75445000Y-101016071D01*
X75159285Y-101016071D01*
X75016428Y-100944642D01*
X76230714Y-100016071D02*
X76587857Y-101016071D01*
X76945000Y-100016071D02*
X76587857Y-101016071D01*
X76445000Y-101373214D01*
X76373571Y-101444642D01*
X76230714Y-101516071D01*
X78659285Y-101016071D02*
X78659285Y-99516071D01*
X79159285Y-100587500D01*
X79659285Y-99516071D01*
X79659285Y-101016071D01*
X80373571Y-101016071D02*
X80373571Y-99516071D01*
X81802142Y-101016071D02*
X81087857Y-101016071D01*
X81087857Y-99516071D01*
X82945000Y-101016071D02*
X82945000Y-100230357D01*
X82873571Y-100087500D01*
X82730714Y-100016071D01*
X82445000Y-100016071D01*
X82302142Y-100087500D01*
X82945000Y-100944642D02*
X82802142Y-101016071D01*
X82445000Y-101016071D01*
X82302142Y-100944642D01*
X82230714Y-100801785D01*
X82230714Y-100658928D01*
X82302142Y-100516071D01*
X82445000Y-100444642D01*
X82802142Y-100444642D01*
X82945000Y-100373214D01*
X83659285Y-101016071D02*
X83659285Y-99516071D01*
X83659285Y-100087500D02*
X83802142Y-100016071D01*
X84087857Y-100016071D01*
X84230714Y-100087500D01*
X84302142Y-100158928D01*
X84373571Y-100301785D01*
X84373571Y-100730357D01*
X84302142Y-100873214D01*
X84230714Y-100944642D01*
X84087857Y-101016071D01*
X83802142Y-101016071D01*
X83659285Y-100944642D01*
X86087857Y-99658928D02*
X86159285Y-99587500D01*
X86302142Y-99516071D01*
X86659285Y-99516071D01*
X86802142Y-99587500D01*
X86873571Y-99658928D01*
X86945000Y-99801785D01*
X86945000Y-99944642D01*
X86873571Y-100158928D01*
X86016428Y-101016071D01*
X86945000Y-101016071D01*
X87873571Y-99516071D02*
X88016428Y-99516071D01*
X88159285Y-99587500D01*
X88230714Y-99658928D01*
X88302142Y-99801785D01*
X88373571Y-100087500D01*
X88373571Y-100444642D01*
X88302142Y-100730357D01*
X88230714Y-100873214D01*
X88159285Y-100944642D01*
X88016428Y-101016071D01*
X87873571Y-101016071D01*
X87730714Y-100944642D01*
X87659285Y-100873214D01*
X87587857Y-100730357D01*
X87516428Y-100444642D01*
X87516428Y-100087500D01*
X87587857Y-99801785D01*
X87659285Y-99658928D01*
X87730714Y-99587500D01*
X87873571Y-99516071D01*
X88945000Y-99658928D02*
X89016428Y-99587500D01*
X89159285Y-99516071D01*
X89516428Y-99516071D01*
X89659285Y-99587500D01*
X89730714Y-99658928D01*
X89802142Y-99801785D01*
X89802142Y-99944642D01*
X89730714Y-100158928D01*
X88873571Y-101016071D01*
X89802142Y-101016071D01*
X91087857Y-100016071D02*
X91087857Y-101016071D01*
X90730714Y-99444642D02*
X90373571Y-100516071D01*
X91302142Y-100516071D01*
D11*
X55697380Y-95360952D02*
X56506904Y-95360952D01*
X56602142Y-95313333D01*
X56649761Y-95265714D01*
X56697380Y-95170476D01*
X56697380Y-94980000D01*
X56649761Y-94884761D01*
X56602142Y-94837142D01*
X56506904Y-94789523D01*
X55697380Y-94789523D01*
X56649761Y-94360952D02*
X56697380Y-94218095D01*
X56697380Y-93980000D01*
X56649761Y-93884761D01*
X56602142Y-93837142D01*
X56506904Y-93789523D01*
X56411666Y-93789523D01*
X56316428Y-93837142D01*
X56268809Y-93884761D01*
X56221190Y-93980000D01*
X56173571Y-94170476D01*
X56125952Y-94265714D01*
X56078333Y-94313333D01*
X55983095Y-94360952D01*
X55887857Y-94360952D01*
X55792619Y-94313333D01*
X55745000Y-94265714D01*
X55697380Y-94170476D01*
X55697380Y-93932380D01*
X55745000Y-93789523D01*
X56173571Y-93027619D02*
X56221190Y-92884761D01*
X56268809Y-92837142D01*
X56364047Y-92789523D01*
X56506904Y-92789523D01*
X56602142Y-92837142D01*
X56649761Y-92884761D01*
X56697380Y-92980000D01*
X56697380Y-93360952D01*
X55697380Y-93360952D01*
X55697380Y-93027619D01*
X55745000Y-92932380D01*
X55792619Y-92884761D01*
X55887857Y-92837142D01*
X55983095Y-92837142D01*
X56078333Y-92884761D01*
X56125952Y-92932380D01*
X56173571Y-93027619D01*
X56173571Y-93360952D01*
X56316428Y-92360952D02*
X56316428Y-91599047D01*
X56602142Y-90551428D02*
X56649761Y-90599047D01*
X56697380Y-90741904D01*
X56697380Y-90837142D01*
X56649761Y-90980000D01*
X56554523Y-91075238D01*
X56459285Y-91122857D01*
X56268809Y-91170476D01*
X56125952Y-91170476D01*
X55935476Y-91122857D01*
X55840238Y-91075238D01*
X55745000Y-90980000D01*
X55697380Y-90837142D01*
X55697380Y-90741904D01*
X55745000Y-90599047D01*
X55792619Y-90551428D01*
X58307380Y-95289523D02*
X57307380Y-95289523D01*
X57307380Y-94908571D01*
X57355000Y-94813333D01*
X57402619Y-94765714D01*
X57497857Y-94718095D01*
X57640714Y-94718095D01*
X57735952Y-94765714D01*
X57783571Y-94813333D01*
X57831190Y-94908571D01*
X57831190Y-95289523D01*
X57307380Y-94099047D02*
X57307380Y-93908571D01*
X57355000Y-93813333D01*
X57450238Y-93718095D01*
X57640714Y-93670476D01*
X57974047Y-93670476D01*
X58164523Y-93718095D01*
X58259761Y-93813333D01*
X58307380Y-93908571D01*
X58307380Y-94099047D01*
X58259761Y-94194285D01*
X58164523Y-94289523D01*
X57974047Y-94337142D01*
X57640714Y-94337142D01*
X57450238Y-94289523D01*
X57355000Y-94194285D01*
X57307380Y-94099047D01*
X57307380Y-93337142D02*
X58307380Y-93099047D01*
X57593095Y-92908571D01*
X58307380Y-92718095D01*
X57307380Y-92480000D01*
X57783571Y-92099047D02*
X57783571Y-91765714D01*
X58307380Y-91622857D02*
X58307380Y-92099047D01*
X57307380Y-92099047D01*
X57307380Y-91622857D01*
X58307380Y-90622857D02*
X57831190Y-90956190D01*
X58307380Y-91194285D02*
X57307380Y-91194285D01*
X57307380Y-90813333D01*
X57355000Y-90718095D01*
X57402619Y-90670476D01*
X57497857Y-90622857D01*
X57640714Y-90622857D01*
X57735952Y-90670476D01*
X57783571Y-90718095D01*
X57831190Y-90813333D01*
X57831190Y-91194285D01*
D10*
X64516428Y-73601071D02*
X63802142Y-73601071D01*
X63802142Y-72101071D01*
X65230714Y-73601071D02*
X65087857Y-73529642D01*
X65016428Y-73458214D01*
X64945000Y-73315357D01*
X64945000Y-72886785D01*
X65016428Y-72743928D01*
X65087857Y-72672500D01*
X65230714Y-72601071D01*
X65445000Y-72601071D01*
X65587857Y-72672500D01*
X65659285Y-72743928D01*
X65730714Y-72886785D01*
X65730714Y-73315357D01*
X65659285Y-73458214D01*
X65587857Y-73529642D01*
X65445000Y-73601071D01*
X65230714Y-73601071D01*
X67016428Y-72601071D02*
X67016428Y-73815357D01*
X66945000Y-73958214D01*
X66873571Y-74029642D01*
X66730714Y-74101071D01*
X66516428Y-74101071D01*
X66373571Y-74029642D01*
X67016428Y-73529642D02*
X66873571Y-73601071D01*
X66587857Y-73601071D01*
X66445000Y-73529642D01*
X66373571Y-73458214D01*
X66302142Y-73315357D01*
X66302142Y-72886785D01*
X66373571Y-72743928D01*
X66445000Y-72672500D01*
X66587857Y-72601071D01*
X66873571Y-72601071D01*
X67016428Y-72672500D01*
X67730714Y-73601071D02*
X67730714Y-72601071D01*
X67730714Y-72101071D02*
X67659285Y-72172500D01*
X67730714Y-72243928D01*
X67802142Y-72172500D01*
X67730714Y-72101071D01*
X67730714Y-72243928D01*
X69087857Y-73529642D02*
X68945000Y-73601071D01*
X68659285Y-73601071D01*
X68516428Y-73529642D01*
X68445000Y-73458214D01*
X68373571Y-73315357D01*
X68373571Y-72886785D01*
X68445000Y-72743928D01*
X68516428Y-72672500D01*
X68659285Y-72601071D01*
X68945000Y-72601071D01*
X69087857Y-72672500D01*
X71659285Y-72172500D02*
X71516428Y-72101071D01*
X71302142Y-72101071D01*
X71087857Y-72172500D01*
X70945000Y-72315357D01*
X70873571Y-72458214D01*
X70802142Y-72743928D01*
X70802142Y-72958214D01*
X70873571Y-73243928D01*
X70945000Y-73386785D01*
X71087857Y-73529642D01*
X71302142Y-73601071D01*
X71445000Y-73601071D01*
X71659285Y-73529642D01*
X71730714Y-73458214D01*
X71730714Y-72958214D01*
X71445000Y-72958214D01*
X73016428Y-73601071D02*
X73016428Y-72815357D01*
X72945000Y-72672500D01*
X72802142Y-72601071D01*
X72516428Y-72601071D01*
X72373571Y-72672500D01*
X73016428Y-73529642D02*
X72873571Y-73601071D01*
X72516428Y-73601071D01*
X72373571Y-73529642D01*
X72302142Y-73386785D01*
X72302142Y-73243928D01*
X72373571Y-73101071D01*
X72516428Y-73029642D01*
X72873571Y-73029642D01*
X73016428Y-72958214D01*
X73516428Y-72601071D02*
X74087857Y-72601071D01*
X73730714Y-72101071D02*
X73730714Y-73386785D01*
X73802142Y-73529642D01*
X73945000Y-73601071D01*
X74087857Y-73601071D01*
X75159285Y-73529642D02*
X75016428Y-73601071D01*
X74730714Y-73601071D01*
X74587857Y-73529642D01*
X74516428Y-73386785D01*
X74516428Y-72815357D01*
X74587857Y-72672500D01*
X74730714Y-72601071D01*
X75016428Y-72601071D01*
X75159285Y-72672500D01*
X75230714Y-72815357D01*
X75230714Y-72958214D01*
X74516428Y-73101071D01*
X77873571Y-73601071D02*
X77373571Y-72886785D01*
X77016428Y-73601071D02*
X77016428Y-72101071D01*
X77587857Y-72101071D01*
X77730714Y-72172500D01*
X77802142Y-72243928D01*
X77873571Y-72386785D01*
X77873571Y-72601071D01*
X77802142Y-72743928D01*
X77730714Y-72815357D01*
X77587857Y-72886785D01*
X77016428Y-72886785D01*
X79159285Y-72601071D02*
X79159285Y-73601071D01*
X78516428Y-72601071D02*
X78516428Y-73386785D01*
X78587857Y-73529642D01*
X78730714Y-73601071D01*
X78945000Y-73601071D01*
X79087857Y-73529642D01*
X79159285Y-73458214D01*
X80087857Y-73601071D02*
X79945000Y-73529642D01*
X79873571Y-73386785D01*
X79873571Y-72101071D01*
X81230714Y-73529642D02*
X81087857Y-73601071D01*
X80802142Y-73601071D01*
X80659285Y-73529642D01*
X80587857Y-73386785D01*
X80587857Y-72815357D01*
X80659285Y-72672500D01*
X80802142Y-72601071D01*
X81087857Y-72601071D01*
X81230714Y-72672500D01*
X81302142Y-72815357D01*
X81302142Y-72958214D01*
X80587857Y-73101071D01*
X81945000Y-73601071D02*
X81945000Y-72601071D01*
X81945000Y-72886785D02*
X82016428Y-72743928D01*
X82087857Y-72672500D01*
X82230714Y-72601071D01*
X82373571Y-72601071D01*
X83873571Y-72601071D02*
X84230714Y-73601071D01*
X84587857Y-72601071D01*
X85945000Y-73601071D02*
X85087857Y-73601071D01*
X85516428Y-73601071D02*
X85516428Y-72101071D01*
X85373571Y-72315357D01*
X85230714Y-72458214D01*
X85087857Y-72529642D01*
X86587857Y-73458214D02*
X86659285Y-73529642D01*
X86587857Y-73601071D01*
X86516428Y-73529642D01*
X86587857Y-73458214D01*
X86587857Y-73601071D01*
X87159285Y-72101071D02*
X88087857Y-72101071D01*
X87587857Y-72672500D01*
X87802142Y-72672500D01*
X87945000Y-72743928D01*
X88016428Y-72815357D01*
X88087857Y-72958214D01*
X88087857Y-73315357D01*
X88016428Y-73458214D01*
X87945000Y-73529642D01*
X87802142Y-73601071D01*
X87373571Y-73601071D01*
X87230714Y-73529642D01*
X87159285Y-73458214D01*
X63802142Y-76016071D02*
X63802142Y-74516071D01*
X64159285Y-74516071D01*
X64373571Y-74587500D01*
X64516428Y-74730357D01*
X64587857Y-74873214D01*
X64659285Y-75158928D01*
X64659285Y-75373214D01*
X64587857Y-75658928D01*
X64516428Y-75801785D01*
X64373571Y-75944642D01*
X64159285Y-76016071D01*
X63802142Y-76016071D01*
X65873571Y-75944642D02*
X65730714Y-76016071D01*
X65445000Y-76016071D01*
X65302142Y-75944642D01*
X65230714Y-75801785D01*
X65230714Y-75230357D01*
X65302142Y-75087500D01*
X65445000Y-75016071D01*
X65730714Y-75016071D01*
X65873571Y-75087500D01*
X65945000Y-75230357D01*
X65945000Y-75373214D01*
X65230714Y-75516071D01*
X66516428Y-75944642D02*
X66659285Y-76016071D01*
X66945000Y-76016071D01*
X67087857Y-75944642D01*
X67159285Y-75801785D01*
X67159285Y-75730357D01*
X67087857Y-75587500D01*
X66945000Y-75516071D01*
X66730714Y-75516071D01*
X66587857Y-75444642D01*
X66516428Y-75301785D01*
X66516428Y-75230357D01*
X66587857Y-75087500D01*
X66730714Y-75016071D01*
X66945000Y-75016071D01*
X67087857Y-75087500D01*
X67802142Y-76016071D02*
X67802142Y-75016071D01*
X67802142Y-74516071D02*
X67730714Y-74587500D01*
X67802142Y-74658928D01*
X67873571Y-74587500D01*
X67802142Y-74516071D01*
X67802142Y-74658928D01*
X69159285Y-75016071D02*
X69159285Y-76230357D01*
X69087857Y-76373214D01*
X69016428Y-76444642D01*
X68873571Y-76516071D01*
X68659285Y-76516071D01*
X68516428Y-76444642D01*
X69159285Y-75944642D02*
X69016428Y-76016071D01*
X68730714Y-76016071D01*
X68587857Y-75944642D01*
X68516428Y-75873214D01*
X68445000Y-75730357D01*
X68445000Y-75301785D01*
X68516428Y-75158928D01*
X68587857Y-75087500D01*
X68730714Y-75016071D01*
X69016428Y-75016071D01*
X69159285Y-75087500D01*
X69873571Y-75016071D02*
X69873571Y-76016071D01*
X69873571Y-75158928D02*
X69945000Y-75087500D01*
X70087857Y-75016071D01*
X70302142Y-75016071D01*
X70445000Y-75087500D01*
X70516428Y-75230357D01*
X70516428Y-76016071D01*
X71802142Y-75944642D02*
X71659285Y-76016071D01*
X71373571Y-76016071D01*
X71230714Y-75944642D01*
X71159285Y-75801785D01*
X71159285Y-75230357D01*
X71230714Y-75087500D01*
X71373571Y-75016071D01*
X71659285Y-75016071D01*
X71802142Y-75087500D01*
X71873571Y-75230357D01*
X71873571Y-75373214D01*
X71159285Y-75516071D01*
X73159285Y-76016071D02*
X73159285Y-74516071D01*
X73159285Y-75944642D02*
X73016428Y-76016071D01*
X72730714Y-76016071D01*
X72587857Y-75944642D01*
X72516428Y-75873214D01*
X72445000Y-75730357D01*
X72445000Y-75301785D01*
X72516428Y-75158928D01*
X72587857Y-75087500D01*
X72730714Y-75016071D01*
X73016428Y-75016071D01*
X73159285Y-75087500D01*
X75016428Y-76016071D02*
X75016428Y-74516071D01*
X75016428Y-75087500D02*
X75159285Y-75016071D01*
X75445000Y-75016071D01*
X75587857Y-75087500D01*
X75659285Y-75158928D01*
X75730714Y-75301785D01*
X75730714Y-75730357D01*
X75659285Y-75873214D01*
X75587857Y-75944642D01*
X75445000Y-76016071D01*
X75159285Y-76016071D01*
X75016428Y-75944642D01*
X76230714Y-75016071D02*
X76587857Y-76016071D01*
X76945000Y-75016071D02*
X76587857Y-76016071D01*
X76445000Y-76373214D01*
X76373571Y-76444642D01*
X76230714Y-76516071D01*
X78659285Y-76016071D02*
X78659285Y-74516071D01*
X79159285Y-75587500D01*
X79659285Y-74516071D01*
X79659285Y-76016071D01*
X80373571Y-76016071D02*
X80373571Y-74516071D01*
X81802142Y-76016071D02*
X81087857Y-76016071D01*
X81087857Y-74516071D01*
X82945000Y-76016071D02*
X82945000Y-75230357D01*
X82873571Y-75087500D01*
X82730714Y-75016071D01*
X82445000Y-75016071D01*
X82302142Y-75087500D01*
X82945000Y-75944642D02*
X82802142Y-76016071D01*
X82445000Y-76016071D01*
X82302142Y-75944642D01*
X82230714Y-75801785D01*
X82230714Y-75658928D01*
X82302142Y-75516071D01*
X82445000Y-75444642D01*
X82802142Y-75444642D01*
X82945000Y-75373214D01*
X83659285Y-76016071D02*
X83659285Y-74516071D01*
X83659285Y-75087500D02*
X83802142Y-75016071D01*
X84087857Y-75016071D01*
X84230714Y-75087500D01*
X84302142Y-75158928D01*
X84373571Y-75301785D01*
X84373571Y-75730357D01*
X84302142Y-75873214D01*
X84230714Y-75944642D01*
X84087857Y-76016071D01*
X83802142Y-76016071D01*
X83659285Y-75944642D01*
X86087857Y-74658928D02*
X86159285Y-74587500D01*
X86302142Y-74516071D01*
X86659285Y-74516071D01*
X86802142Y-74587500D01*
X86873571Y-74658928D01*
X86945000Y-74801785D01*
X86945000Y-74944642D01*
X86873571Y-75158928D01*
X86016428Y-76016071D01*
X86945000Y-76016071D01*
X87873571Y-74516071D02*
X88016428Y-74516071D01*
X88159285Y-74587500D01*
X88230714Y-74658928D01*
X88302142Y-74801785D01*
X88373571Y-75087500D01*
X88373571Y-75444642D01*
X88302142Y-75730357D01*
X88230714Y-75873214D01*
X88159285Y-75944642D01*
X88016428Y-76016071D01*
X87873571Y-76016071D01*
X87730714Y-75944642D01*
X87659285Y-75873214D01*
X87587857Y-75730357D01*
X87516428Y-75444642D01*
X87516428Y-75087500D01*
X87587857Y-74801785D01*
X87659285Y-74658928D01*
X87730714Y-74587500D01*
X87873571Y-74516071D01*
X88945000Y-74658928D02*
X89016428Y-74587500D01*
X89159285Y-74516071D01*
X89516428Y-74516071D01*
X89659285Y-74587500D01*
X89730714Y-74658928D01*
X89802142Y-74801785D01*
X89802142Y-74944642D01*
X89730714Y-75158928D01*
X88873571Y-76016071D01*
X89802142Y-76016071D01*
X91087857Y-75016071D02*
X91087857Y-76016071D01*
X90730714Y-74444642D02*
X90373571Y-75516071D01*
X91302142Y-75516071D01*
D11*
X55697380Y-70360952D02*
X56506904Y-70360952D01*
X56602142Y-70313333D01*
X56649761Y-70265714D01*
X56697380Y-70170476D01*
X56697380Y-69980000D01*
X56649761Y-69884761D01*
X56602142Y-69837142D01*
X56506904Y-69789523D01*
X55697380Y-69789523D01*
X56649761Y-69360952D02*
X56697380Y-69218095D01*
X56697380Y-68980000D01*
X56649761Y-68884761D01*
X56602142Y-68837142D01*
X56506904Y-68789523D01*
X56411666Y-68789523D01*
X56316428Y-68837142D01*
X56268809Y-68884761D01*
X56221190Y-68980000D01*
X56173571Y-69170476D01*
X56125952Y-69265714D01*
X56078333Y-69313333D01*
X55983095Y-69360952D01*
X55887857Y-69360952D01*
X55792619Y-69313333D01*
X55745000Y-69265714D01*
X55697380Y-69170476D01*
X55697380Y-68932380D01*
X55745000Y-68789523D01*
X56173571Y-68027619D02*
X56221190Y-67884761D01*
X56268809Y-67837142D01*
X56364047Y-67789523D01*
X56506904Y-67789523D01*
X56602142Y-67837142D01*
X56649761Y-67884761D01*
X56697380Y-67980000D01*
X56697380Y-68360952D01*
X55697380Y-68360952D01*
X55697380Y-68027619D01*
X55745000Y-67932380D01*
X55792619Y-67884761D01*
X55887857Y-67837142D01*
X55983095Y-67837142D01*
X56078333Y-67884761D01*
X56125952Y-67932380D01*
X56173571Y-68027619D01*
X56173571Y-68360952D01*
X56316428Y-67360952D02*
X56316428Y-66599047D01*
X56602142Y-65551428D02*
X56649761Y-65599047D01*
X56697380Y-65741904D01*
X56697380Y-65837142D01*
X56649761Y-65980000D01*
X56554523Y-66075238D01*
X56459285Y-66122857D01*
X56268809Y-66170476D01*
X56125952Y-66170476D01*
X55935476Y-66122857D01*
X55840238Y-66075238D01*
X55745000Y-65980000D01*
X55697380Y-65837142D01*
X55697380Y-65741904D01*
X55745000Y-65599047D01*
X55792619Y-65551428D01*
X58307380Y-70289523D02*
X57307380Y-70289523D01*
X57307380Y-69908571D01*
X57355000Y-69813333D01*
X57402619Y-69765714D01*
X57497857Y-69718095D01*
X57640714Y-69718095D01*
X57735952Y-69765714D01*
X57783571Y-69813333D01*
X57831190Y-69908571D01*
X57831190Y-70289523D01*
X57307380Y-69099047D02*
X57307380Y-68908571D01*
X57355000Y-68813333D01*
X57450238Y-68718095D01*
X57640714Y-68670476D01*
X57974047Y-68670476D01*
X58164523Y-68718095D01*
X58259761Y-68813333D01*
X58307380Y-68908571D01*
X58307380Y-69099047D01*
X58259761Y-69194285D01*
X58164523Y-69289523D01*
X57974047Y-69337142D01*
X57640714Y-69337142D01*
X57450238Y-69289523D01*
X57355000Y-69194285D01*
X57307380Y-69099047D01*
X57307380Y-68337142D02*
X58307380Y-68099047D01*
X57593095Y-67908571D01*
X58307380Y-67718095D01*
X57307380Y-67480000D01*
X57783571Y-67099047D02*
X57783571Y-66765714D01*
X58307380Y-66622857D02*
X58307380Y-67099047D01*
X57307380Y-67099047D01*
X57307380Y-66622857D01*
X58307380Y-65622857D02*
X57831190Y-65956190D01*
X58307380Y-66194285D02*
X57307380Y-66194285D01*
X57307380Y-65813333D01*
X57355000Y-65718095D01*
X57402619Y-65670476D01*
X57497857Y-65622857D01*
X57640714Y-65622857D01*
X57735952Y-65670476D01*
X57783571Y-65718095D01*
X57831190Y-65813333D01*
X57831190Y-66194285D01*
D10*
X64516428Y-48601071D02*
X63802142Y-48601071D01*
X63802142Y-47101071D01*
X65230714Y-48601071D02*
X65087857Y-48529642D01*
X65016428Y-48458214D01*
X64945000Y-48315357D01*
X64945000Y-47886785D01*
X65016428Y-47743928D01*
X65087857Y-47672500D01*
X65230714Y-47601071D01*
X65445000Y-47601071D01*
X65587857Y-47672500D01*
X65659285Y-47743928D01*
X65730714Y-47886785D01*
X65730714Y-48315357D01*
X65659285Y-48458214D01*
X65587857Y-48529642D01*
X65445000Y-48601071D01*
X65230714Y-48601071D01*
X67016428Y-47601071D02*
X67016428Y-48815357D01*
X66945000Y-48958214D01*
X66873571Y-49029642D01*
X66730714Y-49101071D01*
X66516428Y-49101071D01*
X66373571Y-49029642D01*
X67016428Y-48529642D02*
X66873571Y-48601071D01*
X66587857Y-48601071D01*
X66445000Y-48529642D01*
X66373571Y-48458214D01*
X66302142Y-48315357D01*
X66302142Y-47886785D01*
X66373571Y-47743928D01*
X66445000Y-47672500D01*
X66587857Y-47601071D01*
X66873571Y-47601071D01*
X67016428Y-47672500D01*
X67730714Y-48601071D02*
X67730714Y-47601071D01*
X67730714Y-47101071D02*
X67659285Y-47172500D01*
X67730714Y-47243928D01*
X67802142Y-47172500D01*
X67730714Y-47101071D01*
X67730714Y-47243928D01*
X69087857Y-48529642D02*
X68945000Y-48601071D01*
X68659285Y-48601071D01*
X68516428Y-48529642D01*
X68445000Y-48458214D01*
X68373571Y-48315357D01*
X68373571Y-47886785D01*
X68445000Y-47743928D01*
X68516428Y-47672500D01*
X68659285Y-47601071D01*
X68945000Y-47601071D01*
X69087857Y-47672500D01*
X71659285Y-47172500D02*
X71516428Y-47101071D01*
X71302142Y-47101071D01*
X71087857Y-47172500D01*
X70945000Y-47315357D01*
X70873571Y-47458214D01*
X70802142Y-47743928D01*
X70802142Y-47958214D01*
X70873571Y-48243928D01*
X70945000Y-48386785D01*
X71087857Y-48529642D01*
X71302142Y-48601071D01*
X71445000Y-48601071D01*
X71659285Y-48529642D01*
X71730714Y-48458214D01*
X71730714Y-47958214D01*
X71445000Y-47958214D01*
X73016428Y-48601071D02*
X73016428Y-47815357D01*
X72945000Y-47672500D01*
X72802142Y-47601071D01*
X72516428Y-47601071D01*
X72373571Y-47672500D01*
X73016428Y-48529642D02*
X72873571Y-48601071D01*
X72516428Y-48601071D01*
X72373571Y-48529642D01*
X72302142Y-48386785D01*
X72302142Y-48243928D01*
X72373571Y-48101071D01*
X72516428Y-48029642D01*
X72873571Y-48029642D01*
X73016428Y-47958214D01*
X73516428Y-47601071D02*
X74087857Y-47601071D01*
X73730714Y-47101071D02*
X73730714Y-48386785D01*
X73802142Y-48529642D01*
X73945000Y-48601071D01*
X74087857Y-48601071D01*
X75159285Y-48529642D02*
X75016428Y-48601071D01*
X74730714Y-48601071D01*
X74587857Y-48529642D01*
X74516428Y-48386785D01*
X74516428Y-47815357D01*
X74587857Y-47672500D01*
X74730714Y-47601071D01*
X75016428Y-47601071D01*
X75159285Y-47672500D01*
X75230714Y-47815357D01*
X75230714Y-47958214D01*
X74516428Y-48101071D01*
X77873571Y-48601071D02*
X77373571Y-47886785D01*
X77016428Y-48601071D02*
X77016428Y-47101071D01*
X77587857Y-47101071D01*
X77730714Y-47172500D01*
X77802142Y-47243928D01*
X77873571Y-47386785D01*
X77873571Y-47601071D01*
X77802142Y-47743928D01*
X77730714Y-47815357D01*
X77587857Y-47886785D01*
X77016428Y-47886785D01*
X79159285Y-47601071D02*
X79159285Y-48601071D01*
X78516428Y-47601071D02*
X78516428Y-48386785D01*
X78587857Y-48529642D01*
X78730714Y-48601071D01*
X78945000Y-48601071D01*
X79087857Y-48529642D01*
X79159285Y-48458214D01*
X80087857Y-48601071D02*
X79945000Y-48529642D01*
X79873571Y-48386785D01*
X79873571Y-47101071D01*
X81230714Y-48529642D02*
X81087857Y-48601071D01*
X80802142Y-48601071D01*
X80659285Y-48529642D01*
X80587857Y-48386785D01*
X80587857Y-47815357D01*
X80659285Y-47672500D01*
X80802142Y-47601071D01*
X81087857Y-47601071D01*
X81230714Y-47672500D01*
X81302142Y-47815357D01*
X81302142Y-47958214D01*
X80587857Y-48101071D01*
X81945000Y-48601071D02*
X81945000Y-47601071D01*
X81945000Y-47886785D02*
X82016428Y-47743928D01*
X82087857Y-47672500D01*
X82230714Y-47601071D01*
X82373571Y-47601071D01*
X83873571Y-47601071D02*
X84230714Y-48601071D01*
X84587857Y-47601071D01*
X85945000Y-48601071D02*
X85087857Y-48601071D01*
X85516428Y-48601071D02*
X85516428Y-47101071D01*
X85373571Y-47315357D01*
X85230714Y-47458214D01*
X85087857Y-47529642D01*
X86587857Y-48458214D02*
X86659285Y-48529642D01*
X86587857Y-48601071D01*
X86516428Y-48529642D01*
X86587857Y-48458214D01*
X86587857Y-48601071D01*
X87159285Y-47101071D02*
X88087857Y-47101071D01*
X87587857Y-47672500D01*
X87802142Y-47672500D01*
X87945000Y-47743928D01*
X88016428Y-47815357D01*
X88087857Y-47958214D01*
X88087857Y-48315357D01*
X88016428Y-48458214D01*
X87945000Y-48529642D01*
X87802142Y-48601071D01*
X87373571Y-48601071D01*
X87230714Y-48529642D01*
X87159285Y-48458214D01*
X63802142Y-51016071D02*
X63802142Y-49516071D01*
X64159285Y-49516071D01*
X64373571Y-49587500D01*
X64516428Y-49730357D01*
X64587857Y-49873214D01*
X64659285Y-50158928D01*
X64659285Y-50373214D01*
X64587857Y-50658928D01*
X64516428Y-50801785D01*
X64373571Y-50944642D01*
X64159285Y-51016071D01*
X63802142Y-51016071D01*
X65873571Y-50944642D02*
X65730714Y-51016071D01*
X65445000Y-51016071D01*
X65302142Y-50944642D01*
X65230714Y-50801785D01*
X65230714Y-50230357D01*
X65302142Y-50087500D01*
X65445000Y-50016071D01*
X65730714Y-50016071D01*
X65873571Y-50087500D01*
X65945000Y-50230357D01*
X65945000Y-50373214D01*
X65230714Y-50516071D01*
X66516428Y-50944642D02*
X66659285Y-51016071D01*
X66945000Y-51016071D01*
X67087857Y-50944642D01*
X67159285Y-50801785D01*
X67159285Y-50730357D01*
X67087857Y-50587500D01*
X66945000Y-50516071D01*
X66730714Y-50516071D01*
X66587857Y-50444642D01*
X66516428Y-50301785D01*
X66516428Y-50230357D01*
X66587857Y-50087500D01*
X66730714Y-50016071D01*
X66945000Y-50016071D01*
X67087857Y-50087500D01*
X67802142Y-51016071D02*
X67802142Y-50016071D01*
X67802142Y-49516071D02*
X67730714Y-49587500D01*
X67802142Y-49658928D01*
X67873571Y-49587500D01*
X67802142Y-49516071D01*
X67802142Y-49658928D01*
X69159285Y-50016071D02*
X69159285Y-51230357D01*
X69087857Y-51373214D01*
X69016428Y-51444642D01*
X68873571Y-51516071D01*
X68659285Y-51516071D01*
X68516428Y-51444642D01*
X69159285Y-50944642D02*
X69016428Y-51016071D01*
X68730714Y-51016071D01*
X68587857Y-50944642D01*
X68516428Y-50873214D01*
X68445000Y-50730357D01*
X68445000Y-50301785D01*
X68516428Y-50158928D01*
X68587857Y-50087500D01*
X68730714Y-50016071D01*
X69016428Y-50016071D01*
X69159285Y-50087500D01*
X69873571Y-50016071D02*
X69873571Y-51016071D01*
X69873571Y-50158928D02*
X69945000Y-50087500D01*
X70087857Y-50016071D01*
X70302142Y-50016071D01*
X70445000Y-50087500D01*
X70516428Y-50230357D01*
X70516428Y-51016071D01*
X71802142Y-50944642D02*
X71659285Y-51016071D01*
X71373571Y-51016071D01*
X71230714Y-50944642D01*
X71159285Y-50801785D01*
X71159285Y-50230357D01*
X71230714Y-50087500D01*
X71373571Y-50016071D01*
X71659285Y-50016071D01*
X71802142Y-50087500D01*
X71873571Y-50230357D01*
X71873571Y-50373214D01*
X71159285Y-50516071D01*
X73159285Y-51016071D02*
X73159285Y-49516071D01*
X73159285Y-50944642D02*
X73016428Y-51016071D01*
X72730714Y-51016071D01*
X72587857Y-50944642D01*
X72516428Y-50873214D01*
X72445000Y-50730357D01*
X72445000Y-50301785D01*
X72516428Y-50158928D01*
X72587857Y-50087500D01*
X72730714Y-50016071D01*
X73016428Y-50016071D01*
X73159285Y-50087500D01*
X75016428Y-51016071D02*
X75016428Y-49516071D01*
X75016428Y-50087500D02*
X75159285Y-50016071D01*
X75445000Y-50016071D01*
X75587857Y-50087500D01*
X75659285Y-50158928D01*
X75730714Y-50301785D01*
X75730714Y-50730357D01*
X75659285Y-50873214D01*
X75587857Y-50944642D01*
X75445000Y-51016071D01*
X75159285Y-51016071D01*
X75016428Y-50944642D01*
X76230714Y-50016071D02*
X76587857Y-51016071D01*
X76945000Y-50016071D02*
X76587857Y-51016071D01*
X76445000Y-51373214D01*
X76373571Y-51444642D01*
X76230714Y-51516071D01*
X78659285Y-51016071D02*
X78659285Y-49516071D01*
X79159285Y-50587500D01*
X79659285Y-49516071D01*
X79659285Y-51016071D01*
X80373571Y-51016071D02*
X80373571Y-49516071D01*
X81802142Y-51016071D02*
X81087857Y-51016071D01*
X81087857Y-49516071D01*
X82945000Y-51016071D02*
X82945000Y-50230357D01*
X82873571Y-50087500D01*
X82730714Y-50016071D01*
X82445000Y-50016071D01*
X82302142Y-50087500D01*
X82945000Y-50944642D02*
X82802142Y-51016071D01*
X82445000Y-51016071D01*
X82302142Y-50944642D01*
X82230714Y-50801785D01*
X82230714Y-50658928D01*
X82302142Y-50516071D01*
X82445000Y-50444642D01*
X82802142Y-50444642D01*
X82945000Y-50373214D01*
X83659285Y-51016071D02*
X83659285Y-49516071D01*
X83659285Y-50087500D02*
X83802142Y-50016071D01*
X84087857Y-50016071D01*
X84230714Y-50087500D01*
X84302142Y-50158928D01*
X84373571Y-50301785D01*
X84373571Y-50730357D01*
X84302142Y-50873214D01*
X84230714Y-50944642D01*
X84087857Y-51016071D01*
X83802142Y-51016071D01*
X83659285Y-50944642D01*
X86087857Y-49658928D02*
X86159285Y-49587500D01*
X86302142Y-49516071D01*
X86659285Y-49516071D01*
X86802142Y-49587500D01*
X86873571Y-49658928D01*
X86945000Y-49801785D01*
X86945000Y-49944642D01*
X86873571Y-50158928D01*
X86016428Y-51016071D01*
X86945000Y-51016071D01*
X87873571Y-49516071D02*
X88016428Y-49516071D01*
X88159285Y-49587500D01*
X88230714Y-49658928D01*
X88302142Y-49801785D01*
X88373571Y-50087500D01*
X88373571Y-50444642D01*
X88302142Y-50730357D01*
X88230714Y-50873214D01*
X88159285Y-50944642D01*
X88016428Y-51016071D01*
X87873571Y-51016071D01*
X87730714Y-50944642D01*
X87659285Y-50873214D01*
X87587857Y-50730357D01*
X87516428Y-50444642D01*
X87516428Y-50087500D01*
X87587857Y-49801785D01*
X87659285Y-49658928D01*
X87730714Y-49587500D01*
X87873571Y-49516071D01*
X88945000Y-49658928D02*
X89016428Y-49587500D01*
X89159285Y-49516071D01*
X89516428Y-49516071D01*
X89659285Y-49587500D01*
X89730714Y-49658928D01*
X89802142Y-49801785D01*
X89802142Y-49944642D01*
X89730714Y-50158928D01*
X88873571Y-51016071D01*
X89802142Y-51016071D01*
X91087857Y-50016071D02*
X91087857Y-51016071D01*
X90730714Y-49444642D02*
X90373571Y-50516071D01*
X91302142Y-50516071D01*
D11*
X55697380Y-45360952D02*
X56506904Y-45360952D01*
X56602142Y-45313333D01*
X56649761Y-45265714D01*
X56697380Y-45170476D01*
X56697380Y-44980000D01*
X56649761Y-44884761D01*
X56602142Y-44837142D01*
X56506904Y-44789523D01*
X55697380Y-44789523D01*
X56649761Y-44360952D02*
X56697380Y-44218095D01*
X56697380Y-43980000D01*
X56649761Y-43884761D01*
X56602142Y-43837142D01*
X56506904Y-43789523D01*
X56411666Y-43789523D01*
X56316428Y-43837142D01*
X56268809Y-43884761D01*
X56221190Y-43980000D01*
X56173571Y-44170476D01*
X56125952Y-44265714D01*
X56078333Y-44313333D01*
X55983095Y-44360952D01*
X55887857Y-44360952D01*
X55792619Y-44313333D01*
X55745000Y-44265714D01*
X55697380Y-44170476D01*
X55697380Y-43932380D01*
X55745000Y-43789523D01*
X56173571Y-43027619D02*
X56221190Y-42884761D01*
X56268809Y-42837142D01*
X56364047Y-42789523D01*
X56506904Y-42789523D01*
X56602142Y-42837142D01*
X56649761Y-42884761D01*
X56697380Y-42980000D01*
X56697380Y-43360952D01*
X55697380Y-43360952D01*
X55697380Y-43027619D01*
X55745000Y-42932380D01*
X55792619Y-42884761D01*
X55887857Y-42837142D01*
X55983095Y-42837142D01*
X56078333Y-42884761D01*
X56125952Y-42932380D01*
X56173571Y-43027619D01*
X56173571Y-43360952D01*
X56316428Y-42360952D02*
X56316428Y-41599047D01*
X56602142Y-40551428D02*
X56649761Y-40599047D01*
X56697380Y-40741904D01*
X56697380Y-40837142D01*
X56649761Y-40980000D01*
X56554523Y-41075238D01*
X56459285Y-41122857D01*
X56268809Y-41170476D01*
X56125952Y-41170476D01*
X55935476Y-41122857D01*
X55840238Y-41075238D01*
X55745000Y-40980000D01*
X55697380Y-40837142D01*
X55697380Y-40741904D01*
X55745000Y-40599047D01*
X55792619Y-40551428D01*
X58307380Y-45289523D02*
X57307380Y-45289523D01*
X57307380Y-44908571D01*
X57355000Y-44813333D01*
X57402619Y-44765714D01*
X57497857Y-44718095D01*
X57640714Y-44718095D01*
X57735952Y-44765714D01*
X57783571Y-44813333D01*
X57831190Y-44908571D01*
X57831190Y-45289523D01*
X57307380Y-44099047D02*
X57307380Y-43908571D01*
X57355000Y-43813333D01*
X57450238Y-43718095D01*
X57640714Y-43670476D01*
X57974047Y-43670476D01*
X58164523Y-43718095D01*
X58259761Y-43813333D01*
X58307380Y-43908571D01*
X58307380Y-44099047D01*
X58259761Y-44194285D01*
X58164523Y-44289523D01*
X57974047Y-44337142D01*
X57640714Y-44337142D01*
X57450238Y-44289523D01*
X57355000Y-44194285D01*
X57307380Y-44099047D01*
X57307380Y-43337142D02*
X58307380Y-43099047D01*
X57593095Y-42908571D01*
X58307380Y-42718095D01*
X57307380Y-42480000D01*
X57783571Y-42099047D02*
X57783571Y-41765714D01*
X58307380Y-41622857D02*
X58307380Y-42099047D01*
X57307380Y-42099047D01*
X57307380Y-41622857D01*
X58307380Y-40622857D02*
X57831190Y-40956190D01*
X58307380Y-41194285D02*
X57307380Y-41194285D01*
X57307380Y-40813333D01*
X57355000Y-40718095D01*
X57402619Y-40670476D01*
X57497857Y-40622857D01*
X57640714Y-40622857D01*
X57735952Y-40670476D01*
X57783571Y-40718095D01*
X57831190Y-40813333D01*
X57831190Y-41194285D01*
%TO.C,X1*%
X98240476Y-114182380D02*
X98907142Y-115182380D01*
X98907142Y-114182380D02*
X98240476Y-115182380D01*
X99811904Y-115182380D02*
X99240476Y-115182380D01*
X99526190Y-115182380D02*
X99526190Y-114182380D01*
X99430952Y-114325238D01*
X99335714Y-114420476D01*
X99240476Y-114468095D01*
%TO.C,XOR*%
X115651380Y-123921142D02*
X116651380Y-123254476D01*
X115651380Y-123254476D02*
X116651380Y-123921142D01*
X115651380Y-122683047D02*
X115651380Y-122492571D01*
X115699000Y-122397333D01*
X115794238Y-122302095D01*
X115984714Y-122254476D01*
X116318047Y-122254476D01*
X116508523Y-122302095D01*
X116603761Y-122397333D01*
X116651380Y-122492571D01*
X116651380Y-122683047D01*
X116603761Y-122778285D01*
X116508523Y-122873523D01*
X116318047Y-122921142D01*
X115984714Y-122921142D01*
X115794238Y-122873523D01*
X115699000Y-122778285D01*
X115651380Y-122683047D01*
X116651380Y-121254476D02*
X116175190Y-121587809D01*
X116651380Y-121825904D02*
X115651380Y-121825904D01*
X115651380Y-121444952D01*
X115699000Y-121349714D01*
X115746619Y-121302095D01*
X115841857Y-121254476D01*
X115984714Y-121254476D01*
X116079952Y-121302095D01*
X116127571Y-121349714D01*
X116175190Y-121444952D01*
X116175190Y-121825904D01*
X124382619Y-121865714D02*
X124335000Y-121818095D01*
X124287380Y-121722857D01*
X124287380Y-121484761D01*
X124335000Y-121389523D01*
X124382619Y-121341904D01*
X124477857Y-121294285D01*
X124573095Y-121294285D01*
X124715952Y-121341904D01*
X125287380Y-121913333D01*
X125287380Y-121294285D01*
X129367380Y-121341904D02*
X129367380Y-121818095D01*
X129843571Y-121865714D01*
X129795952Y-121818095D01*
X129748333Y-121722857D01*
X129748333Y-121484761D01*
X129795952Y-121389523D01*
X129843571Y-121341904D01*
X129938809Y-121294285D01*
X130176904Y-121294285D01*
X130272142Y-121341904D01*
X130319761Y-121389523D01*
X130367380Y-121484761D01*
X130367380Y-121722857D01*
X130319761Y-121818095D01*
X130272142Y-121865714D01*
X123017380Y-122389523D02*
X124017380Y-121722857D01*
X123017380Y-121722857D02*
X124017380Y-122389523D01*
X123112619Y-121389523D02*
X123065000Y-121341904D01*
X123017380Y-121246666D01*
X123017380Y-121008571D01*
X123065000Y-120913333D01*
X123112619Y-120865714D01*
X123207857Y-120818095D01*
X123303095Y-120818095D01*
X123445952Y-120865714D01*
X124017380Y-121437142D01*
X124017380Y-120818095D01*
X117937380Y-122389523D02*
X118937380Y-121722857D01*
X117937380Y-121722857D02*
X118937380Y-122389523D01*
X118937380Y-120818095D02*
X118937380Y-121389523D01*
X118937380Y-121103809D02*
X117937380Y-121103809D01*
X118080238Y-121199047D01*
X118175476Y-121294285D01*
X118223095Y-121389523D01*
X137415952Y-121675238D02*
X137368333Y-121770476D01*
X137320714Y-121818095D01*
X137225476Y-121865714D01*
X137177857Y-121865714D01*
X137082619Y-121818095D01*
X137035000Y-121770476D01*
X136987380Y-121675238D01*
X136987380Y-121484761D01*
X137035000Y-121389523D01*
X137082619Y-121341904D01*
X137177857Y-121294285D01*
X137225476Y-121294285D01*
X137320714Y-121341904D01*
X137368333Y-121389523D01*
X137415952Y-121484761D01*
X137415952Y-121675238D01*
X137463571Y-121770476D01*
X137511190Y-121818095D01*
X137606428Y-121865714D01*
X137796904Y-121865714D01*
X137892142Y-121818095D01*
X137939761Y-121770476D01*
X137987380Y-121675238D01*
X137987380Y-121484761D01*
X137939761Y-121389523D01*
X137892142Y-121341904D01*
X137796904Y-121294285D01*
X137606428Y-121294285D01*
X137511190Y-121341904D01*
X137463571Y-121389523D01*
X137415952Y-121484761D01*
X128097380Y-121913333D02*
X128097380Y-121294285D01*
X128478333Y-121627619D01*
X128478333Y-121484761D01*
X128525952Y-121389523D01*
X128573571Y-121341904D01*
X128668809Y-121294285D01*
X128906904Y-121294285D01*
X129002142Y-121341904D01*
X129049761Y-121389523D01*
X129097380Y-121484761D01*
X129097380Y-121770476D01*
X129049761Y-121865714D01*
X129002142Y-121913333D01*
X126557380Y-121770476D02*
X126557380Y-122341904D01*
X126557380Y-122056190D02*
X125557380Y-122056190D01*
X125700238Y-122151428D01*
X125795476Y-122246666D01*
X125843095Y-122341904D01*
X125557380Y-121151428D02*
X125557380Y-121056190D01*
X125605000Y-120960952D01*
X125652619Y-120913333D01*
X125747857Y-120865714D01*
X125938333Y-120818095D01*
X126176428Y-120818095D01*
X126366904Y-120865714D01*
X126462142Y-120913333D01*
X126509761Y-120960952D01*
X126557380Y-121056190D01*
X126557380Y-121151428D01*
X126509761Y-121246666D01*
X126462142Y-121294285D01*
X126366904Y-121341904D01*
X126176428Y-121389523D01*
X125938333Y-121389523D01*
X125747857Y-121341904D01*
X125652619Y-121294285D01*
X125605000Y-121246666D01*
X125557380Y-121151428D01*
X120207380Y-121294285D02*
X120207380Y-121865714D01*
X120207380Y-121580000D02*
X119207380Y-121580000D01*
X119350238Y-121675238D01*
X119445476Y-121770476D01*
X119493095Y-121865714D01*
X120810714Y-121389523D02*
X121477380Y-121389523D01*
X120429761Y-121627619D02*
X121144047Y-121865714D01*
X121144047Y-121246666D01*
X142845190Y-121040000D02*
X143321380Y-121040000D01*
X142321380Y-121373333D02*
X142845190Y-121040000D01*
X142321380Y-120706666D01*
X141797380Y-121770476D02*
X141797380Y-122341904D01*
X141797380Y-122056190D02*
X140797380Y-122056190D01*
X140940238Y-122151428D01*
X141035476Y-122246666D01*
X141083095Y-122341904D01*
X141797380Y-120818095D02*
X141797380Y-121389523D01*
X141797380Y-121103809D02*
X140797380Y-121103809D01*
X140940238Y-121199047D01*
X141035476Y-121294285D01*
X141083095Y-121389523D01*
X139257380Y-121770476D02*
X139257380Y-122341904D01*
X139257380Y-122056190D02*
X138257380Y-122056190D01*
X138400238Y-122151428D01*
X138495476Y-122246666D01*
X138543095Y-122341904D01*
X138257380Y-121437142D02*
X138257380Y-120818095D01*
X138638333Y-121151428D01*
X138638333Y-121008571D01*
X138685952Y-120913333D01*
X138733571Y-120865714D01*
X138828809Y-120818095D01*
X139066904Y-120818095D01*
X139162142Y-120865714D01*
X139209761Y-120913333D01*
X139257380Y-121008571D01*
X139257380Y-121294285D01*
X139209761Y-121389523D01*
X139162142Y-121437142D01*
X133177380Y-121389523D02*
X133177380Y-121580000D01*
X133225000Y-121675238D01*
X133272619Y-121722857D01*
X133415476Y-121818095D01*
X133605952Y-121865714D01*
X133986904Y-121865714D01*
X134082142Y-121818095D01*
X134129761Y-121770476D01*
X134177380Y-121675238D01*
X134177380Y-121484761D01*
X134129761Y-121389523D01*
X134082142Y-121341904D01*
X133986904Y-121294285D01*
X133748809Y-121294285D01*
X133653571Y-121341904D01*
X133605952Y-121389523D01*
X133558333Y-121484761D01*
X133558333Y-121675238D01*
X133605952Y-121770476D01*
X133653571Y-121818095D01*
X133748809Y-121865714D01*
X135447380Y-121770476D02*
X135447380Y-122341904D01*
X135447380Y-122056190D02*
X134447380Y-122056190D01*
X134590238Y-122151428D01*
X134685476Y-122246666D01*
X134733095Y-122341904D01*
X134542619Y-121389523D02*
X134495000Y-121341904D01*
X134447380Y-121246666D01*
X134447380Y-121008571D01*
X134495000Y-120913333D01*
X134542619Y-120865714D01*
X134637857Y-120818095D01*
X134733095Y-120818095D01*
X134875952Y-120865714D01*
X135447380Y-121437142D01*
X135447380Y-120818095D01*
X131637380Y-121770476D02*
X131637380Y-121580000D01*
X131589761Y-121484761D01*
X131542142Y-121437142D01*
X131399285Y-121341904D01*
X131208809Y-121294285D01*
X130827857Y-121294285D01*
X130732619Y-121341904D01*
X130685000Y-121389523D01*
X130637380Y-121484761D01*
X130637380Y-121675238D01*
X130685000Y-121770476D01*
X130732619Y-121818095D01*
X130827857Y-121865714D01*
X131065952Y-121865714D01*
X131161190Y-121818095D01*
X131208809Y-121770476D01*
X131256428Y-121675238D01*
X131256428Y-121484761D01*
X131208809Y-121389523D01*
X131161190Y-121341904D01*
X131065952Y-121294285D01*
%TO.C,74HC00*%
X69564285Y-114032380D02*
X70230952Y-114032380D01*
X69802380Y-115032380D01*
X71040476Y-114365714D02*
X71040476Y-115032380D01*
X70802380Y-113984761D02*
X70564285Y-114699047D01*
X71183333Y-114699047D01*
X71564285Y-115032380D02*
X71564285Y-114032380D01*
X71564285Y-114508571D02*
X72135714Y-114508571D01*
X72135714Y-115032380D02*
X72135714Y-114032380D01*
X73183333Y-114937142D02*
X73135714Y-114984761D01*
X72992857Y-115032380D01*
X72897619Y-115032380D01*
X72754761Y-114984761D01*
X72659523Y-114889523D01*
X72611904Y-114794285D01*
X72564285Y-114603809D01*
X72564285Y-114460952D01*
X72611904Y-114270476D01*
X72659523Y-114175238D01*
X72754761Y-114080000D01*
X72897619Y-114032380D01*
X72992857Y-114032380D01*
X73135714Y-114080000D01*
X73183333Y-114127619D01*
X73802380Y-114032380D02*
X73897619Y-114032380D01*
X73992857Y-114080000D01*
X74040476Y-114127619D01*
X74088095Y-114222857D01*
X74135714Y-114413333D01*
X74135714Y-114651428D01*
X74088095Y-114841904D01*
X74040476Y-114937142D01*
X73992857Y-114984761D01*
X73897619Y-115032380D01*
X73802380Y-115032380D01*
X73707142Y-114984761D01*
X73659523Y-114937142D01*
X73611904Y-114841904D01*
X73564285Y-114651428D01*
X73564285Y-114413333D01*
X73611904Y-114222857D01*
X73659523Y-114127619D01*
X73707142Y-114080000D01*
X73802380Y-114032380D01*
X74754761Y-114032380D02*
X74850000Y-114032380D01*
X74945238Y-114080000D01*
X74992857Y-114127619D01*
X75040476Y-114222857D01*
X75088095Y-114413333D01*
X75088095Y-114651428D01*
X75040476Y-114841904D01*
X74992857Y-114937142D01*
X74945238Y-114984761D01*
X74850000Y-115032380D01*
X74754761Y-115032380D01*
X74659523Y-114984761D01*
X74611904Y-114937142D01*
X74564285Y-114841904D01*
X74516666Y-114651428D01*
X74516666Y-114413333D01*
X74564285Y-114222857D01*
X74611904Y-114127619D01*
X74659523Y-114080000D01*
X74754761Y-114032380D01*
%TO.C,R3*%
X88383333Y-118832380D02*
X88050000Y-118356190D01*
X87811904Y-118832380D02*
X87811904Y-117832380D01*
X88192857Y-117832380D01*
X88288095Y-117880000D01*
X88335714Y-117927619D01*
X88383333Y-118022857D01*
X88383333Y-118165714D01*
X88335714Y-118260952D01*
X88288095Y-118308571D01*
X88192857Y-118356190D01*
X87811904Y-118356190D01*
X88716666Y-117832380D02*
X89335714Y-117832380D01*
X89002380Y-118213333D01*
X89145238Y-118213333D01*
X89240476Y-118260952D01*
X89288095Y-118308571D01*
X89335714Y-118403809D01*
X89335714Y-118641904D01*
X89288095Y-118737142D01*
X89240476Y-118784761D01*
X89145238Y-118832380D01*
X88859523Y-118832380D01*
X88764285Y-118784761D01*
X88716666Y-118737142D01*
%TO.C,SW2*%
X108266666Y-120684761D02*
X108409523Y-120732380D01*
X108647619Y-120732380D01*
X108742857Y-120684761D01*
X108790476Y-120637142D01*
X108838095Y-120541904D01*
X108838095Y-120446666D01*
X108790476Y-120351428D01*
X108742857Y-120303809D01*
X108647619Y-120256190D01*
X108457142Y-120208571D01*
X108361904Y-120160952D01*
X108314285Y-120113333D01*
X108266666Y-120018095D01*
X108266666Y-119922857D01*
X108314285Y-119827619D01*
X108361904Y-119780000D01*
X108457142Y-119732380D01*
X108695238Y-119732380D01*
X108838095Y-119780000D01*
X109171428Y-119732380D02*
X109409523Y-120732380D01*
X109600000Y-120018095D01*
X109790476Y-120732380D01*
X110028571Y-119732380D01*
X110361904Y-119827619D02*
X110409523Y-119780000D01*
X110504761Y-119732380D01*
X110742857Y-119732380D01*
X110838095Y-119780000D01*
X110885714Y-119827619D01*
X110933333Y-119922857D01*
X110933333Y-120018095D01*
X110885714Y-120160952D01*
X110314285Y-120732380D01*
X110933333Y-120732380D01*
%TO.C,X2*%
X104240476Y-114082380D02*
X104907142Y-115082380D01*
X104907142Y-114082380D02*
X104240476Y-115082380D01*
X105240476Y-114177619D02*
X105288095Y-114130000D01*
X105383333Y-114082380D01*
X105621428Y-114082380D01*
X105716666Y-114130000D01*
X105764285Y-114177619D01*
X105811904Y-114272857D01*
X105811904Y-114368095D01*
X105764285Y-114510952D01*
X105192857Y-115082380D01*
X105811904Y-115082380D01*
%TO.C,R2*%
X88383333Y-114932380D02*
X88050000Y-114456190D01*
X87811904Y-114932380D02*
X87811904Y-113932380D01*
X88192857Y-113932380D01*
X88288095Y-113980000D01*
X88335714Y-114027619D01*
X88383333Y-114122857D01*
X88383333Y-114265714D01*
X88335714Y-114360952D01*
X88288095Y-114408571D01*
X88192857Y-114456190D01*
X87811904Y-114456190D01*
X88764285Y-114027619D02*
X88811904Y-113980000D01*
X88907142Y-113932380D01*
X89145238Y-113932380D01*
X89240476Y-113980000D01*
X89288095Y-114027619D01*
X89335714Y-114122857D01*
X89335714Y-114218095D01*
X89288095Y-114360952D01*
X88716666Y-114932380D01*
X89335714Y-114932380D01*
%TO.C,SW1*%
X99166666Y-120734761D02*
X99309523Y-120782380D01*
X99547619Y-120782380D01*
X99642857Y-120734761D01*
X99690476Y-120687142D01*
X99738095Y-120591904D01*
X99738095Y-120496666D01*
X99690476Y-120401428D01*
X99642857Y-120353809D01*
X99547619Y-120306190D01*
X99357142Y-120258571D01*
X99261904Y-120210952D01*
X99214285Y-120163333D01*
X99166666Y-120068095D01*
X99166666Y-119972857D01*
X99214285Y-119877619D01*
X99261904Y-119830000D01*
X99357142Y-119782380D01*
X99595238Y-119782380D01*
X99738095Y-119830000D01*
X100071428Y-119782380D02*
X100309523Y-120782380D01*
X100500000Y-120068095D01*
X100690476Y-120782380D01*
X100928571Y-119782380D01*
X101833333Y-120782380D02*
X101261904Y-120782380D01*
X101547619Y-120782380D02*
X101547619Y-119782380D01*
X101452380Y-119925238D01*
X101357142Y-120020476D01*
X101261904Y-120068095D01*
%TO.C,OR*%
X115651380Y-111959238D02*
X115651380Y-111768761D01*
X115699000Y-111673523D01*
X115794238Y-111578285D01*
X115984714Y-111530666D01*
X116318047Y-111530666D01*
X116508523Y-111578285D01*
X116603761Y-111673523D01*
X116651380Y-111768761D01*
X116651380Y-111959238D01*
X116603761Y-112054476D01*
X116508523Y-112149714D01*
X116318047Y-112197333D01*
X115984714Y-112197333D01*
X115794238Y-112149714D01*
X115699000Y-112054476D01*
X115651380Y-111959238D01*
X116651380Y-110530666D02*
X116175190Y-110864000D01*
X116651380Y-111102095D02*
X115651380Y-111102095D01*
X115651380Y-110721142D01*
X115699000Y-110625904D01*
X115746619Y-110578285D01*
X115841857Y-110530666D01*
X115984714Y-110530666D01*
X116079952Y-110578285D01*
X116127571Y-110625904D01*
X116175190Y-110721142D01*
X116175190Y-111102095D01*
X135447380Y-110570476D02*
X135447380Y-110380000D01*
X135399761Y-110284761D01*
X135352142Y-110237142D01*
X135209285Y-110141904D01*
X135018809Y-110094285D01*
X134637857Y-110094285D01*
X134542619Y-110141904D01*
X134495000Y-110189523D01*
X134447380Y-110284761D01*
X134447380Y-110475238D01*
X134495000Y-110570476D01*
X134542619Y-110618095D01*
X134637857Y-110665714D01*
X134875952Y-110665714D01*
X134971190Y-110618095D01*
X135018809Y-110570476D01*
X135066428Y-110475238D01*
X135066428Y-110284761D01*
X135018809Y-110189523D01*
X134971190Y-110141904D01*
X134875952Y-110094285D01*
X133177380Y-110713333D02*
X133177380Y-110094285D01*
X133558333Y-110427619D01*
X133558333Y-110284761D01*
X133605952Y-110189523D01*
X133653571Y-110141904D01*
X133748809Y-110094285D01*
X133986904Y-110094285D01*
X134082142Y-110141904D01*
X134129761Y-110189523D01*
X134177380Y-110284761D01*
X134177380Y-110570476D01*
X134129761Y-110665714D01*
X134082142Y-110713333D01*
X136987380Y-110189523D02*
X136987380Y-110380000D01*
X137035000Y-110475238D01*
X137082619Y-110522857D01*
X137225476Y-110618095D01*
X137415952Y-110665714D01*
X137796904Y-110665714D01*
X137892142Y-110618095D01*
X137939761Y-110570476D01*
X137987380Y-110475238D01*
X137987380Y-110284761D01*
X137939761Y-110189523D01*
X137892142Y-110141904D01*
X137796904Y-110094285D01*
X137558809Y-110094285D01*
X137463571Y-110141904D01*
X137415952Y-110189523D01*
X137368333Y-110284761D01*
X137368333Y-110475238D01*
X137415952Y-110570476D01*
X137463571Y-110618095D01*
X137558809Y-110665714D01*
X142845190Y-110380000D02*
X143321380Y-110380000D01*
X142321380Y-110713333D02*
X142845190Y-110380000D01*
X142321380Y-110046666D01*
X120572619Y-110665714D02*
X120525000Y-110618095D01*
X120477380Y-110522857D01*
X120477380Y-110284761D01*
X120525000Y-110189523D01*
X120572619Y-110141904D01*
X120667857Y-110094285D01*
X120763095Y-110094285D01*
X120905952Y-110141904D01*
X121477380Y-110713333D01*
X121477380Y-110094285D01*
X124620714Y-110189523D02*
X125287380Y-110189523D01*
X124239761Y-110427619D02*
X124954047Y-110665714D01*
X124954047Y-110046666D01*
X139257380Y-110570476D02*
X139257380Y-111141904D01*
X139257380Y-110856190D02*
X138257380Y-110856190D01*
X138400238Y-110951428D01*
X138495476Y-111046666D01*
X138543095Y-111141904D01*
X138257380Y-109951428D02*
X138257380Y-109856190D01*
X138305000Y-109760952D01*
X138352619Y-109713333D01*
X138447857Y-109665714D01*
X138638333Y-109618095D01*
X138876428Y-109618095D01*
X139066904Y-109665714D01*
X139162142Y-109713333D01*
X139209761Y-109760952D01*
X139257380Y-109856190D01*
X139257380Y-109951428D01*
X139209761Y-110046666D01*
X139162142Y-110094285D01*
X139066904Y-110141904D01*
X138876428Y-110189523D01*
X138638333Y-110189523D01*
X138447857Y-110141904D01*
X138352619Y-110094285D01*
X138305000Y-110046666D01*
X138257380Y-109951428D01*
X123017380Y-111189523D02*
X124017380Y-110522857D01*
X123017380Y-110522857D02*
X124017380Y-111189523D01*
X123112619Y-110189523D02*
X123065000Y-110141904D01*
X123017380Y-110046666D01*
X123017380Y-109808571D01*
X123065000Y-109713333D01*
X123112619Y-109665714D01*
X123207857Y-109618095D01*
X123303095Y-109618095D01*
X123445952Y-109665714D01*
X124017380Y-110237142D01*
X124017380Y-109618095D01*
X120207380Y-110094285D02*
X120207380Y-110665714D01*
X120207380Y-110380000D02*
X119207380Y-110380000D01*
X119350238Y-110475238D01*
X119445476Y-110570476D01*
X119493095Y-110665714D01*
X125557380Y-110141904D02*
X125557380Y-110618095D01*
X126033571Y-110665714D01*
X125985952Y-110618095D01*
X125938333Y-110522857D01*
X125938333Y-110284761D01*
X125985952Y-110189523D01*
X126033571Y-110141904D01*
X126128809Y-110094285D01*
X126366904Y-110094285D01*
X126462142Y-110141904D01*
X126509761Y-110189523D01*
X126557380Y-110284761D01*
X126557380Y-110522857D01*
X126509761Y-110618095D01*
X126462142Y-110665714D01*
X117937380Y-111189523D02*
X118937380Y-110522857D01*
X117937380Y-110522857D02*
X118937380Y-111189523D01*
X118937380Y-109618095D02*
X118937380Y-110189523D01*
X118937380Y-109903809D02*
X117937380Y-109903809D01*
X118080238Y-109999047D01*
X118175476Y-110094285D01*
X118223095Y-110189523D01*
X141225952Y-110475238D02*
X141178333Y-110570476D01*
X141130714Y-110618095D01*
X141035476Y-110665714D01*
X140987857Y-110665714D01*
X140892619Y-110618095D01*
X140845000Y-110570476D01*
X140797380Y-110475238D01*
X140797380Y-110284761D01*
X140845000Y-110189523D01*
X140892619Y-110141904D01*
X140987857Y-110094285D01*
X141035476Y-110094285D01*
X141130714Y-110141904D01*
X141178333Y-110189523D01*
X141225952Y-110284761D01*
X141225952Y-110475238D01*
X141273571Y-110570476D01*
X141321190Y-110618095D01*
X141416428Y-110665714D01*
X141606904Y-110665714D01*
X141702142Y-110618095D01*
X141749761Y-110570476D01*
X141797380Y-110475238D01*
X141797380Y-110284761D01*
X141749761Y-110189523D01*
X141702142Y-110141904D01*
X141606904Y-110094285D01*
X141416428Y-110094285D01*
X141321190Y-110141904D01*
X141273571Y-110189523D01*
X141225952Y-110284761D01*
%TO.C,AND*%
X116365666Y-118178404D02*
X116365666Y-117702214D01*
X116651380Y-118273642D02*
X115651380Y-117940309D01*
X116651380Y-117606976D01*
X116651380Y-117273642D02*
X115651380Y-117273642D01*
X116651380Y-116702214D01*
X115651380Y-116702214D01*
X116651380Y-116226023D02*
X115651380Y-116226023D01*
X115651380Y-115987928D01*
X115699000Y-115845071D01*
X115794238Y-115749833D01*
X115889476Y-115702214D01*
X116079952Y-115654595D01*
X116222809Y-115654595D01*
X116413285Y-115702214D01*
X116508523Y-115749833D01*
X116603761Y-115845071D01*
X116651380Y-115987928D01*
X116651380Y-116226023D01*
X129770714Y-115742023D02*
X130437380Y-115742023D01*
X129389761Y-115980119D02*
X130104047Y-116218214D01*
X130104047Y-115599166D01*
X120277380Y-115646785D02*
X120277380Y-116218214D01*
X120277380Y-115932500D02*
X119277380Y-115932500D01*
X119420238Y-116027738D01*
X119515476Y-116122976D01*
X119563095Y-116218214D01*
X123087380Y-116742023D02*
X124087380Y-116075357D01*
X123087380Y-116075357D02*
X124087380Y-116742023D01*
X123182619Y-115742023D02*
X123135000Y-115694404D01*
X123087380Y-115599166D01*
X123087380Y-115361071D01*
X123135000Y-115265833D01*
X123182619Y-115218214D01*
X123277857Y-115170595D01*
X123373095Y-115170595D01*
X123515952Y-115218214D01*
X124087380Y-115789642D01*
X124087380Y-115170595D01*
X124452619Y-116218214D02*
X124405000Y-116170595D01*
X124357380Y-116075357D01*
X124357380Y-115837261D01*
X124405000Y-115742023D01*
X124452619Y-115694404D01*
X124547857Y-115646785D01*
X124643095Y-115646785D01*
X124785952Y-115694404D01*
X125357380Y-116265833D01*
X125357380Y-115646785D01*
X128167380Y-116265833D02*
X128167380Y-115646785D01*
X128548333Y-115980119D01*
X128548333Y-115837261D01*
X128595952Y-115742023D01*
X128643571Y-115694404D01*
X128738809Y-115646785D01*
X128976904Y-115646785D01*
X129072142Y-115694404D01*
X129119761Y-115742023D01*
X129167380Y-115837261D01*
X129167380Y-116122976D01*
X129119761Y-116218214D01*
X129072142Y-116265833D01*
X140867380Y-115742023D02*
X140867380Y-115932500D01*
X140915000Y-116027738D01*
X140962619Y-116075357D01*
X141105476Y-116170595D01*
X141295952Y-116218214D01*
X141676904Y-116218214D01*
X141772142Y-116170595D01*
X141819761Y-116122976D01*
X141867380Y-116027738D01*
X141867380Y-115837261D01*
X141819761Y-115742023D01*
X141772142Y-115694404D01*
X141676904Y-115646785D01*
X141438809Y-115646785D01*
X141343571Y-115694404D01*
X141295952Y-115742023D01*
X141248333Y-115837261D01*
X141248333Y-116027738D01*
X141295952Y-116122976D01*
X141343571Y-116170595D01*
X141438809Y-116218214D01*
X130707380Y-115694404D02*
X130707380Y-116170595D01*
X131183571Y-116218214D01*
X131135952Y-116170595D01*
X131088333Y-116075357D01*
X131088333Y-115837261D01*
X131135952Y-115742023D01*
X131183571Y-115694404D01*
X131278809Y-115646785D01*
X131516904Y-115646785D01*
X131612142Y-115694404D01*
X131659761Y-115742023D01*
X131707380Y-115837261D01*
X131707380Y-116075357D01*
X131659761Y-116170595D01*
X131612142Y-116218214D01*
X142915190Y-115932500D02*
X143391380Y-115932500D01*
X142391380Y-116265833D02*
X142915190Y-115932500D01*
X142391380Y-115599166D01*
X118007380Y-116742023D02*
X119007380Y-116075357D01*
X118007380Y-116075357D02*
X119007380Y-116742023D01*
X119007380Y-115170595D02*
X119007380Y-115742023D01*
X119007380Y-115456309D02*
X118007380Y-115456309D01*
X118150238Y-115551547D01*
X118245476Y-115646785D01*
X118293095Y-115742023D01*
%TO.C,Y*%
X111050000Y-114606190D02*
X111050000Y-115082380D01*
X110716666Y-114082380D02*
X111050000Y-114606190D01*
X111383333Y-114082380D01*
%TO.C,R1*%
X88383333Y-111032380D02*
X88050000Y-110556190D01*
X87811904Y-111032380D02*
X87811904Y-110032380D01*
X88192857Y-110032380D01*
X88288095Y-110080000D01*
X88335714Y-110127619D01*
X88383333Y-110222857D01*
X88383333Y-110365714D01*
X88335714Y-110460952D01*
X88288095Y-110508571D01*
X88192857Y-110556190D01*
X87811904Y-110556190D01*
X89335714Y-111032380D02*
X88764285Y-111032380D01*
X89050000Y-111032380D02*
X89050000Y-110032380D01*
X88954761Y-110175238D01*
X88859523Y-110270476D01*
X88764285Y-110318095D01*
%TO.C,X1*%
X98240476Y-89182380D02*
X98907142Y-90182380D01*
X98907142Y-89182380D02*
X98240476Y-90182380D01*
X99811904Y-90182380D02*
X99240476Y-90182380D01*
X99526190Y-90182380D02*
X99526190Y-89182380D01*
X99430952Y-89325238D01*
X99335714Y-89420476D01*
X99240476Y-89468095D01*
%TO.C,XOR*%
X115651380Y-98921142D02*
X116651380Y-98254476D01*
X115651380Y-98254476D02*
X116651380Y-98921142D01*
X115651380Y-97683047D02*
X115651380Y-97492571D01*
X115699000Y-97397333D01*
X115794238Y-97302095D01*
X115984714Y-97254476D01*
X116318047Y-97254476D01*
X116508523Y-97302095D01*
X116603761Y-97397333D01*
X116651380Y-97492571D01*
X116651380Y-97683047D01*
X116603761Y-97778285D01*
X116508523Y-97873523D01*
X116318047Y-97921142D01*
X115984714Y-97921142D01*
X115794238Y-97873523D01*
X115699000Y-97778285D01*
X115651380Y-97683047D01*
X116651380Y-96254476D02*
X116175190Y-96587809D01*
X116651380Y-96825904D02*
X115651380Y-96825904D01*
X115651380Y-96444952D01*
X115699000Y-96349714D01*
X115746619Y-96302095D01*
X115841857Y-96254476D01*
X115984714Y-96254476D01*
X116079952Y-96302095D01*
X116127571Y-96349714D01*
X116175190Y-96444952D01*
X116175190Y-96825904D01*
X124382619Y-96865714D02*
X124335000Y-96818095D01*
X124287380Y-96722857D01*
X124287380Y-96484761D01*
X124335000Y-96389523D01*
X124382619Y-96341904D01*
X124477857Y-96294285D01*
X124573095Y-96294285D01*
X124715952Y-96341904D01*
X125287380Y-96913333D01*
X125287380Y-96294285D01*
X129367380Y-96341904D02*
X129367380Y-96818095D01*
X129843571Y-96865714D01*
X129795952Y-96818095D01*
X129748333Y-96722857D01*
X129748333Y-96484761D01*
X129795952Y-96389523D01*
X129843571Y-96341904D01*
X129938809Y-96294285D01*
X130176904Y-96294285D01*
X130272142Y-96341904D01*
X130319761Y-96389523D01*
X130367380Y-96484761D01*
X130367380Y-96722857D01*
X130319761Y-96818095D01*
X130272142Y-96865714D01*
X123017380Y-97389523D02*
X124017380Y-96722857D01*
X123017380Y-96722857D02*
X124017380Y-97389523D01*
X123112619Y-96389523D02*
X123065000Y-96341904D01*
X123017380Y-96246666D01*
X123017380Y-96008571D01*
X123065000Y-95913333D01*
X123112619Y-95865714D01*
X123207857Y-95818095D01*
X123303095Y-95818095D01*
X123445952Y-95865714D01*
X124017380Y-96437142D01*
X124017380Y-95818095D01*
X117937380Y-97389523D02*
X118937380Y-96722857D01*
X117937380Y-96722857D02*
X118937380Y-97389523D01*
X118937380Y-95818095D02*
X118937380Y-96389523D01*
X118937380Y-96103809D02*
X117937380Y-96103809D01*
X118080238Y-96199047D01*
X118175476Y-96294285D01*
X118223095Y-96389523D01*
X137415952Y-96675238D02*
X137368333Y-96770476D01*
X137320714Y-96818095D01*
X137225476Y-96865714D01*
X137177857Y-96865714D01*
X137082619Y-96818095D01*
X137035000Y-96770476D01*
X136987380Y-96675238D01*
X136987380Y-96484761D01*
X137035000Y-96389523D01*
X137082619Y-96341904D01*
X137177857Y-96294285D01*
X137225476Y-96294285D01*
X137320714Y-96341904D01*
X137368333Y-96389523D01*
X137415952Y-96484761D01*
X137415952Y-96675238D01*
X137463571Y-96770476D01*
X137511190Y-96818095D01*
X137606428Y-96865714D01*
X137796904Y-96865714D01*
X137892142Y-96818095D01*
X137939761Y-96770476D01*
X137987380Y-96675238D01*
X137987380Y-96484761D01*
X137939761Y-96389523D01*
X137892142Y-96341904D01*
X137796904Y-96294285D01*
X137606428Y-96294285D01*
X137511190Y-96341904D01*
X137463571Y-96389523D01*
X137415952Y-96484761D01*
X128097380Y-96913333D02*
X128097380Y-96294285D01*
X128478333Y-96627619D01*
X128478333Y-96484761D01*
X128525952Y-96389523D01*
X128573571Y-96341904D01*
X128668809Y-96294285D01*
X128906904Y-96294285D01*
X129002142Y-96341904D01*
X129049761Y-96389523D01*
X129097380Y-96484761D01*
X129097380Y-96770476D01*
X129049761Y-96865714D01*
X129002142Y-96913333D01*
X126557380Y-96770476D02*
X126557380Y-97341904D01*
X126557380Y-97056190D02*
X125557380Y-97056190D01*
X125700238Y-97151428D01*
X125795476Y-97246666D01*
X125843095Y-97341904D01*
X125557380Y-96151428D02*
X125557380Y-96056190D01*
X125605000Y-95960952D01*
X125652619Y-95913333D01*
X125747857Y-95865714D01*
X125938333Y-95818095D01*
X126176428Y-95818095D01*
X126366904Y-95865714D01*
X126462142Y-95913333D01*
X126509761Y-95960952D01*
X126557380Y-96056190D01*
X126557380Y-96151428D01*
X126509761Y-96246666D01*
X126462142Y-96294285D01*
X126366904Y-96341904D01*
X126176428Y-96389523D01*
X125938333Y-96389523D01*
X125747857Y-96341904D01*
X125652619Y-96294285D01*
X125605000Y-96246666D01*
X125557380Y-96151428D01*
X120207380Y-96294285D02*
X120207380Y-96865714D01*
X120207380Y-96580000D02*
X119207380Y-96580000D01*
X119350238Y-96675238D01*
X119445476Y-96770476D01*
X119493095Y-96865714D01*
X120810714Y-96389523D02*
X121477380Y-96389523D01*
X120429761Y-96627619D02*
X121144047Y-96865714D01*
X121144047Y-96246666D01*
X142845190Y-96040000D02*
X143321380Y-96040000D01*
X142321380Y-96373333D02*
X142845190Y-96040000D01*
X142321380Y-95706666D01*
X141797380Y-96770476D02*
X141797380Y-97341904D01*
X141797380Y-97056190D02*
X140797380Y-97056190D01*
X140940238Y-97151428D01*
X141035476Y-97246666D01*
X141083095Y-97341904D01*
X141797380Y-95818095D02*
X141797380Y-96389523D01*
X141797380Y-96103809D02*
X140797380Y-96103809D01*
X140940238Y-96199047D01*
X141035476Y-96294285D01*
X141083095Y-96389523D01*
X139257380Y-96770476D02*
X139257380Y-97341904D01*
X139257380Y-97056190D02*
X138257380Y-97056190D01*
X138400238Y-97151428D01*
X138495476Y-97246666D01*
X138543095Y-97341904D01*
X138257380Y-96437142D02*
X138257380Y-95818095D01*
X138638333Y-96151428D01*
X138638333Y-96008571D01*
X138685952Y-95913333D01*
X138733571Y-95865714D01*
X138828809Y-95818095D01*
X139066904Y-95818095D01*
X139162142Y-95865714D01*
X139209761Y-95913333D01*
X139257380Y-96008571D01*
X139257380Y-96294285D01*
X139209761Y-96389523D01*
X139162142Y-96437142D01*
X133177380Y-96389523D02*
X133177380Y-96580000D01*
X133225000Y-96675238D01*
X133272619Y-96722857D01*
X133415476Y-96818095D01*
X133605952Y-96865714D01*
X133986904Y-96865714D01*
X134082142Y-96818095D01*
X134129761Y-96770476D01*
X134177380Y-96675238D01*
X134177380Y-96484761D01*
X134129761Y-96389523D01*
X134082142Y-96341904D01*
X133986904Y-96294285D01*
X133748809Y-96294285D01*
X133653571Y-96341904D01*
X133605952Y-96389523D01*
X133558333Y-96484761D01*
X133558333Y-96675238D01*
X133605952Y-96770476D01*
X133653571Y-96818095D01*
X133748809Y-96865714D01*
X135447380Y-96770476D02*
X135447380Y-97341904D01*
X135447380Y-97056190D02*
X134447380Y-97056190D01*
X134590238Y-97151428D01*
X134685476Y-97246666D01*
X134733095Y-97341904D01*
X134542619Y-96389523D02*
X134495000Y-96341904D01*
X134447380Y-96246666D01*
X134447380Y-96008571D01*
X134495000Y-95913333D01*
X134542619Y-95865714D01*
X134637857Y-95818095D01*
X134733095Y-95818095D01*
X134875952Y-95865714D01*
X135447380Y-96437142D01*
X135447380Y-95818095D01*
X131637380Y-96770476D02*
X131637380Y-96580000D01*
X131589761Y-96484761D01*
X131542142Y-96437142D01*
X131399285Y-96341904D01*
X131208809Y-96294285D01*
X130827857Y-96294285D01*
X130732619Y-96341904D01*
X130685000Y-96389523D01*
X130637380Y-96484761D01*
X130637380Y-96675238D01*
X130685000Y-96770476D01*
X130732619Y-96818095D01*
X130827857Y-96865714D01*
X131065952Y-96865714D01*
X131161190Y-96818095D01*
X131208809Y-96770476D01*
X131256428Y-96675238D01*
X131256428Y-96484761D01*
X131208809Y-96389523D01*
X131161190Y-96341904D01*
X131065952Y-96294285D01*
%TO.C,74HC00*%
X69564285Y-89032380D02*
X70230952Y-89032380D01*
X69802380Y-90032380D01*
X71040476Y-89365714D02*
X71040476Y-90032380D01*
X70802380Y-88984761D02*
X70564285Y-89699047D01*
X71183333Y-89699047D01*
X71564285Y-90032380D02*
X71564285Y-89032380D01*
X71564285Y-89508571D02*
X72135714Y-89508571D01*
X72135714Y-90032380D02*
X72135714Y-89032380D01*
X73183333Y-89937142D02*
X73135714Y-89984761D01*
X72992857Y-90032380D01*
X72897619Y-90032380D01*
X72754761Y-89984761D01*
X72659523Y-89889523D01*
X72611904Y-89794285D01*
X72564285Y-89603809D01*
X72564285Y-89460952D01*
X72611904Y-89270476D01*
X72659523Y-89175238D01*
X72754761Y-89080000D01*
X72897619Y-89032380D01*
X72992857Y-89032380D01*
X73135714Y-89080000D01*
X73183333Y-89127619D01*
X73802380Y-89032380D02*
X73897619Y-89032380D01*
X73992857Y-89080000D01*
X74040476Y-89127619D01*
X74088095Y-89222857D01*
X74135714Y-89413333D01*
X74135714Y-89651428D01*
X74088095Y-89841904D01*
X74040476Y-89937142D01*
X73992857Y-89984761D01*
X73897619Y-90032380D01*
X73802380Y-90032380D01*
X73707142Y-89984761D01*
X73659523Y-89937142D01*
X73611904Y-89841904D01*
X73564285Y-89651428D01*
X73564285Y-89413333D01*
X73611904Y-89222857D01*
X73659523Y-89127619D01*
X73707142Y-89080000D01*
X73802380Y-89032380D01*
X74754761Y-89032380D02*
X74850000Y-89032380D01*
X74945238Y-89080000D01*
X74992857Y-89127619D01*
X75040476Y-89222857D01*
X75088095Y-89413333D01*
X75088095Y-89651428D01*
X75040476Y-89841904D01*
X74992857Y-89937142D01*
X74945238Y-89984761D01*
X74850000Y-90032380D01*
X74754761Y-90032380D01*
X74659523Y-89984761D01*
X74611904Y-89937142D01*
X74564285Y-89841904D01*
X74516666Y-89651428D01*
X74516666Y-89413333D01*
X74564285Y-89222857D01*
X74611904Y-89127619D01*
X74659523Y-89080000D01*
X74754761Y-89032380D01*
%TO.C,R3*%
X88383333Y-93832380D02*
X88050000Y-93356190D01*
X87811904Y-93832380D02*
X87811904Y-92832380D01*
X88192857Y-92832380D01*
X88288095Y-92880000D01*
X88335714Y-92927619D01*
X88383333Y-93022857D01*
X88383333Y-93165714D01*
X88335714Y-93260952D01*
X88288095Y-93308571D01*
X88192857Y-93356190D01*
X87811904Y-93356190D01*
X88716666Y-92832380D02*
X89335714Y-92832380D01*
X89002380Y-93213333D01*
X89145238Y-93213333D01*
X89240476Y-93260952D01*
X89288095Y-93308571D01*
X89335714Y-93403809D01*
X89335714Y-93641904D01*
X89288095Y-93737142D01*
X89240476Y-93784761D01*
X89145238Y-93832380D01*
X88859523Y-93832380D01*
X88764285Y-93784761D01*
X88716666Y-93737142D01*
%TO.C,SW2*%
X108266666Y-95684761D02*
X108409523Y-95732380D01*
X108647619Y-95732380D01*
X108742857Y-95684761D01*
X108790476Y-95637142D01*
X108838095Y-95541904D01*
X108838095Y-95446666D01*
X108790476Y-95351428D01*
X108742857Y-95303809D01*
X108647619Y-95256190D01*
X108457142Y-95208571D01*
X108361904Y-95160952D01*
X108314285Y-95113333D01*
X108266666Y-95018095D01*
X108266666Y-94922857D01*
X108314285Y-94827619D01*
X108361904Y-94780000D01*
X108457142Y-94732380D01*
X108695238Y-94732380D01*
X108838095Y-94780000D01*
X109171428Y-94732380D02*
X109409523Y-95732380D01*
X109600000Y-95018095D01*
X109790476Y-95732380D01*
X110028571Y-94732380D01*
X110361904Y-94827619D02*
X110409523Y-94780000D01*
X110504761Y-94732380D01*
X110742857Y-94732380D01*
X110838095Y-94780000D01*
X110885714Y-94827619D01*
X110933333Y-94922857D01*
X110933333Y-95018095D01*
X110885714Y-95160952D01*
X110314285Y-95732380D01*
X110933333Y-95732380D01*
%TO.C,X2*%
X104240476Y-89082380D02*
X104907142Y-90082380D01*
X104907142Y-89082380D02*
X104240476Y-90082380D01*
X105240476Y-89177619D02*
X105288095Y-89130000D01*
X105383333Y-89082380D01*
X105621428Y-89082380D01*
X105716666Y-89130000D01*
X105764285Y-89177619D01*
X105811904Y-89272857D01*
X105811904Y-89368095D01*
X105764285Y-89510952D01*
X105192857Y-90082380D01*
X105811904Y-90082380D01*
%TO.C,R2*%
X88383333Y-89932380D02*
X88050000Y-89456190D01*
X87811904Y-89932380D02*
X87811904Y-88932380D01*
X88192857Y-88932380D01*
X88288095Y-88980000D01*
X88335714Y-89027619D01*
X88383333Y-89122857D01*
X88383333Y-89265714D01*
X88335714Y-89360952D01*
X88288095Y-89408571D01*
X88192857Y-89456190D01*
X87811904Y-89456190D01*
X88764285Y-89027619D02*
X88811904Y-88980000D01*
X88907142Y-88932380D01*
X89145238Y-88932380D01*
X89240476Y-88980000D01*
X89288095Y-89027619D01*
X89335714Y-89122857D01*
X89335714Y-89218095D01*
X89288095Y-89360952D01*
X88716666Y-89932380D01*
X89335714Y-89932380D01*
%TO.C,SW1*%
X99166666Y-95734761D02*
X99309523Y-95782380D01*
X99547619Y-95782380D01*
X99642857Y-95734761D01*
X99690476Y-95687142D01*
X99738095Y-95591904D01*
X99738095Y-95496666D01*
X99690476Y-95401428D01*
X99642857Y-95353809D01*
X99547619Y-95306190D01*
X99357142Y-95258571D01*
X99261904Y-95210952D01*
X99214285Y-95163333D01*
X99166666Y-95068095D01*
X99166666Y-94972857D01*
X99214285Y-94877619D01*
X99261904Y-94830000D01*
X99357142Y-94782380D01*
X99595238Y-94782380D01*
X99738095Y-94830000D01*
X100071428Y-94782380D02*
X100309523Y-95782380D01*
X100500000Y-95068095D01*
X100690476Y-95782380D01*
X100928571Y-94782380D01*
X101833333Y-95782380D02*
X101261904Y-95782380D01*
X101547619Y-95782380D02*
X101547619Y-94782380D01*
X101452380Y-94925238D01*
X101357142Y-95020476D01*
X101261904Y-95068095D01*
%TO.C,OR*%
X115651380Y-86959238D02*
X115651380Y-86768761D01*
X115699000Y-86673523D01*
X115794238Y-86578285D01*
X115984714Y-86530666D01*
X116318047Y-86530666D01*
X116508523Y-86578285D01*
X116603761Y-86673523D01*
X116651380Y-86768761D01*
X116651380Y-86959238D01*
X116603761Y-87054476D01*
X116508523Y-87149714D01*
X116318047Y-87197333D01*
X115984714Y-87197333D01*
X115794238Y-87149714D01*
X115699000Y-87054476D01*
X115651380Y-86959238D01*
X116651380Y-85530666D02*
X116175190Y-85864000D01*
X116651380Y-86102095D02*
X115651380Y-86102095D01*
X115651380Y-85721142D01*
X115699000Y-85625904D01*
X115746619Y-85578285D01*
X115841857Y-85530666D01*
X115984714Y-85530666D01*
X116079952Y-85578285D01*
X116127571Y-85625904D01*
X116175190Y-85721142D01*
X116175190Y-86102095D01*
X135447380Y-85570476D02*
X135447380Y-85380000D01*
X135399761Y-85284761D01*
X135352142Y-85237142D01*
X135209285Y-85141904D01*
X135018809Y-85094285D01*
X134637857Y-85094285D01*
X134542619Y-85141904D01*
X134495000Y-85189523D01*
X134447380Y-85284761D01*
X134447380Y-85475238D01*
X134495000Y-85570476D01*
X134542619Y-85618095D01*
X134637857Y-85665714D01*
X134875952Y-85665714D01*
X134971190Y-85618095D01*
X135018809Y-85570476D01*
X135066428Y-85475238D01*
X135066428Y-85284761D01*
X135018809Y-85189523D01*
X134971190Y-85141904D01*
X134875952Y-85094285D01*
X133177380Y-85713333D02*
X133177380Y-85094285D01*
X133558333Y-85427619D01*
X133558333Y-85284761D01*
X133605952Y-85189523D01*
X133653571Y-85141904D01*
X133748809Y-85094285D01*
X133986904Y-85094285D01*
X134082142Y-85141904D01*
X134129761Y-85189523D01*
X134177380Y-85284761D01*
X134177380Y-85570476D01*
X134129761Y-85665714D01*
X134082142Y-85713333D01*
X136987380Y-85189523D02*
X136987380Y-85380000D01*
X137035000Y-85475238D01*
X137082619Y-85522857D01*
X137225476Y-85618095D01*
X137415952Y-85665714D01*
X137796904Y-85665714D01*
X137892142Y-85618095D01*
X137939761Y-85570476D01*
X137987380Y-85475238D01*
X137987380Y-85284761D01*
X137939761Y-85189523D01*
X137892142Y-85141904D01*
X137796904Y-85094285D01*
X137558809Y-85094285D01*
X137463571Y-85141904D01*
X137415952Y-85189523D01*
X137368333Y-85284761D01*
X137368333Y-85475238D01*
X137415952Y-85570476D01*
X137463571Y-85618095D01*
X137558809Y-85665714D01*
X142845190Y-85380000D02*
X143321380Y-85380000D01*
X142321380Y-85713333D02*
X142845190Y-85380000D01*
X142321380Y-85046666D01*
X120572619Y-85665714D02*
X120525000Y-85618095D01*
X120477380Y-85522857D01*
X120477380Y-85284761D01*
X120525000Y-85189523D01*
X120572619Y-85141904D01*
X120667857Y-85094285D01*
X120763095Y-85094285D01*
X120905952Y-85141904D01*
X121477380Y-85713333D01*
X121477380Y-85094285D01*
X124620714Y-85189523D02*
X125287380Y-85189523D01*
X124239761Y-85427619D02*
X124954047Y-85665714D01*
X124954047Y-85046666D01*
X139257380Y-85570476D02*
X139257380Y-86141904D01*
X139257380Y-85856190D02*
X138257380Y-85856190D01*
X138400238Y-85951428D01*
X138495476Y-86046666D01*
X138543095Y-86141904D01*
X138257380Y-84951428D02*
X138257380Y-84856190D01*
X138305000Y-84760952D01*
X138352619Y-84713333D01*
X138447857Y-84665714D01*
X138638333Y-84618095D01*
X138876428Y-84618095D01*
X139066904Y-84665714D01*
X139162142Y-84713333D01*
X139209761Y-84760952D01*
X139257380Y-84856190D01*
X139257380Y-84951428D01*
X139209761Y-85046666D01*
X139162142Y-85094285D01*
X139066904Y-85141904D01*
X138876428Y-85189523D01*
X138638333Y-85189523D01*
X138447857Y-85141904D01*
X138352619Y-85094285D01*
X138305000Y-85046666D01*
X138257380Y-84951428D01*
X123017380Y-86189523D02*
X124017380Y-85522857D01*
X123017380Y-85522857D02*
X124017380Y-86189523D01*
X123112619Y-85189523D02*
X123065000Y-85141904D01*
X123017380Y-85046666D01*
X123017380Y-84808571D01*
X123065000Y-84713333D01*
X123112619Y-84665714D01*
X123207857Y-84618095D01*
X123303095Y-84618095D01*
X123445952Y-84665714D01*
X124017380Y-85237142D01*
X124017380Y-84618095D01*
X120207380Y-85094285D02*
X120207380Y-85665714D01*
X120207380Y-85380000D02*
X119207380Y-85380000D01*
X119350238Y-85475238D01*
X119445476Y-85570476D01*
X119493095Y-85665714D01*
X125557380Y-85141904D02*
X125557380Y-85618095D01*
X126033571Y-85665714D01*
X125985952Y-85618095D01*
X125938333Y-85522857D01*
X125938333Y-85284761D01*
X125985952Y-85189523D01*
X126033571Y-85141904D01*
X126128809Y-85094285D01*
X126366904Y-85094285D01*
X126462142Y-85141904D01*
X126509761Y-85189523D01*
X126557380Y-85284761D01*
X126557380Y-85522857D01*
X126509761Y-85618095D01*
X126462142Y-85665714D01*
X117937380Y-86189523D02*
X118937380Y-85522857D01*
X117937380Y-85522857D02*
X118937380Y-86189523D01*
X118937380Y-84618095D02*
X118937380Y-85189523D01*
X118937380Y-84903809D02*
X117937380Y-84903809D01*
X118080238Y-84999047D01*
X118175476Y-85094285D01*
X118223095Y-85189523D01*
X141225952Y-85475238D02*
X141178333Y-85570476D01*
X141130714Y-85618095D01*
X141035476Y-85665714D01*
X140987857Y-85665714D01*
X140892619Y-85618095D01*
X140845000Y-85570476D01*
X140797380Y-85475238D01*
X140797380Y-85284761D01*
X140845000Y-85189523D01*
X140892619Y-85141904D01*
X140987857Y-85094285D01*
X141035476Y-85094285D01*
X141130714Y-85141904D01*
X141178333Y-85189523D01*
X141225952Y-85284761D01*
X141225952Y-85475238D01*
X141273571Y-85570476D01*
X141321190Y-85618095D01*
X141416428Y-85665714D01*
X141606904Y-85665714D01*
X141702142Y-85618095D01*
X141749761Y-85570476D01*
X141797380Y-85475238D01*
X141797380Y-85284761D01*
X141749761Y-85189523D01*
X141702142Y-85141904D01*
X141606904Y-85094285D01*
X141416428Y-85094285D01*
X141321190Y-85141904D01*
X141273571Y-85189523D01*
X141225952Y-85284761D01*
%TO.C,AND*%
X116365666Y-93178404D02*
X116365666Y-92702214D01*
X116651380Y-93273642D02*
X115651380Y-92940309D01*
X116651380Y-92606976D01*
X116651380Y-92273642D02*
X115651380Y-92273642D01*
X116651380Y-91702214D01*
X115651380Y-91702214D01*
X116651380Y-91226023D02*
X115651380Y-91226023D01*
X115651380Y-90987928D01*
X115699000Y-90845071D01*
X115794238Y-90749833D01*
X115889476Y-90702214D01*
X116079952Y-90654595D01*
X116222809Y-90654595D01*
X116413285Y-90702214D01*
X116508523Y-90749833D01*
X116603761Y-90845071D01*
X116651380Y-90987928D01*
X116651380Y-91226023D01*
X129770714Y-90742023D02*
X130437380Y-90742023D01*
X129389761Y-90980119D02*
X130104047Y-91218214D01*
X130104047Y-90599166D01*
X120277380Y-90646785D02*
X120277380Y-91218214D01*
X120277380Y-90932500D02*
X119277380Y-90932500D01*
X119420238Y-91027738D01*
X119515476Y-91122976D01*
X119563095Y-91218214D01*
X123087380Y-91742023D02*
X124087380Y-91075357D01*
X123087380Y-91075357D02*
X124087380Y-91742023D01*
X123182619Y-90742023D02*
X123135000Y-90694404D01*
X123087380Y-90599166D01*
X123087380Y-90361071D01*
X123135000Y-90265833D01*
X123182619Y-90218214D01*
X123277857Y-90170595D01*
X123373095Y-90170595D01*
X123515952Y-90218214D01*
X124087380Y-90789642D01*
X124087380Y-90170595D01*
X124452619Y-91218214D02*
X124405000Y-91170595D01*
X124357380Y-91075357D01*
X124357380Y-90837261D01*
X124405000Y-90742023D01*
X124452619Y-90694404D01*
X124547857Y-90646785D01*
X124643095Y-90646785D01*
X124785952Y-90694404D01*
X125357380Y-91265833D01*
X125357380Y-90646785D01*
X128167380Y-91265833D02*
X128167380Y-90646785D01*
X128548333Y-90980119D01*
X128548333Y-90837261D01*
X128595952Y-90742023D01*
X128643571Y-90694404D01*
X128738809Y-90646785D01*
X128976904Y-90646785D01*
X129072142Y-90694404D01*
X129119761Y-90742023D01*
X129167380Y-90837261D01*
X129167380Y-91122976D01*
X129119761Y-91218214D01*
X129072142Y-91265833D01*
X140867380Y-90742023D02*
X140867380Y-90932500D01*
X140915000Y-91027738D01*
X140962619Y-91075357D01*
X141105476Y-91170595D01*
X141295952Y-91218214D01*
X141676904Y-91218214D01*
X141772142Y-91170595D01*
X141819761Y-91122976D01*
X141867380Y-91027738D01*
X141867380Y-90837261D01*
X141819761Y-90742023D01*
X141772142Y-90694404D01*
X141676904Y-90646785D01*
X141438809Y-90646785D01*
X141343571Y-90694404D01*
X141295952Y-90742023D01*
X141248333Y-90837261D01*
X141248333Y-91027738D01*
X141295952Y-91122976D01*
X141343571Y-91170595D01*
X141438809Y-91218214D01*
X130707380Y-90694404D02*
X130707380Y-91170595D01*
X131183571Y-91218214D01*
X131135952Y-91170595D01*
X131088333Y-91075357D01*
X131088333Y-90837261D01*
X131135952Y-90742023D01*
X131183571Y-90694404D01*
X131278809Y-90646785D01*
X131516904Y-90646785D01*
X131612142Y-90694404D01*
X131659761Y-90742023D01*
X131707380Y-90837261D01*
X131707380Y-91075357D01*
X131659761Y-91170595D01*
X131612142Y-91218214D01*
X142915190Y-90932500D02*
X143391380Y-90932500D01*
X142391380Y-91265833D02*
X142915190Y-90932500D01*
X142391380Y-90599166D01*
X118007380Y-91742023D02*
X119007380Y-91075357D01*
X118007380Y-91075357D02*
X119007380Y-91742023D01*
X119007380Y-90170595D02*
X119007380Y-90742023D01*
X119007380Y-90456309D02*
X118007380Y-90456309D01*
X118150238Y-90551547D01*
X118245476Y-90646785D01*
X118293095Y-90742023D01*
%TO.C,Y*%
X111050000Y-89606190D02*
X111050000Y-90082380D01*
X110716666Y-89082380D02*
X111050000Y-89606190D01*
X111383333Y-89082380D01*
%TO.C,R1*%
X88383333Y-86032380D02*
X88050000Y-85556190D01*
X87811904Y-86032380D02*
X87811904Y-85032380D01*
X88192857Y-85032380D01*
X88288095Y-85080000D01*
X88335714Y-85127619D01*
X88383333Y-85222857D01*
X88383333Y-85365714D01*
X88335714Y-85460952D01*
X88288095Y-85508571D01*
X88192857Y-85556190D01*
X87811904Y-85556190D01*
X89335714Y-86032380D02*
X88764285Y-86032380D01*
X89050000Y-86032380D02*
X89050000Y-85032380D01*
X88954761Y-85175238D01*
X88859523Y-85270476D01*
X88764285Y-85318095D01*
%TO.C,X1*%
X98240476Y-64182380D02*
X98907142Y-65182380D01*
X98907142Y-64182380D02*
X98240476Y-65182380D01*
X99811904Y-65182380D02*
X99240476Y-65182380D01*
X99526190Y-65182380D02*
X99526190Y-64182380D01*
X99430952Y-64325238D01*
X99335714Y-64420476D01*
X99240476Y-64468095D01*
%TO.C,XOR*%
X115651380Y-73921142D02*
X116651380Y-73254476D01*
X115651380Y-73254476D02*
X116651380Y-73921142D01*
X115651380Y-72683047D02*
X115651380Y-72492571D01*
X115699000Y-72397333D01*
X115794238Y-72302095D01*
X115984714Y-72254476D01*
X116318047Y-72254476D01*
X116508523Y-72302095D01*
X116603761Y-72397333D01*
X116651380Y-72492571D01*
X116651380Y-72683047D01*
X116603761Y-72778285D01*
X116508523Y-72873523D01*
X116318047Y-72921142D01*
X115984714Y-72921142D01*
X115794238Y-72873523D01*
X115699000Y-72778285D01*
X115651380Y-72683047D01*
X116651380Y-71254476D02*
X116175190Y-71587809D01*
X116651380Y-71825904D02*
X115651380Y-71825904D01*
X115651380Y-71444952D01*
X115699000Y-71349714D01*
X115746619Y-71302095D01*
X115841857Y-71254476D01*
X115984714Y-71254476D01*
X116079952Y-71302095D01*
X116127571Y-71349714D01*
X116175190Y-71444952D01*
X116175190Y-71825904D01*
X124382619Y-71865714D02*
X124335000Y-71818095D01*
X124287380Y-71722857D01*
X124287380Y-71484761D01*
X124335000Y-71389523D01*
X124382619Y-71341904D01*
X124477857Y-71294285D01*
X124573095Y-71294285D01*
X124715952Y-71341904D01*
X125287380Y-71913333D01*
X125287380Y-71294285D01*
X129367380Y-71341904D02*
X129367380Y-71818095D01*
X129843571Y-71865714D01*
X129795952Y-71818095D01*
X129748333Y-71722857D01*
X129748333Y-71484761D01*
X129795952Y-71389523D01*
X129843571Y-71341904D01*
X129938809Y-71294285D01*
X130176904Y-71294285D01*
X130272142Y-71341904D01*
X130319761Y-71389523D01*
X130367380Y-71484761D01*
X130367380Y-71722857D01*
X130319761Y-71818095D01*
X130272142Y-71865714D01*
X123017380Y-72389523D02*
X124017380Y-71722857D01*
X123017380Y-71722857D02*
X124017380Y-72389523D01*
X123112619Y-71389523D02*
X123065000Y-71341904D01*
X123017380Y-71246666D01*
X123017380Y-71008571D01*
X123065000Y-70913333D01*
X123112619Y-70865714D01*
X123207857Y-70818095D01*
X123303095Y-70818095D01*
X123445952Y-70865714D01*
X124017380Y-71437142D01*
X124017380Y-70818095D01*
X117937380Y-72389523D02*
X118937380Y-71722857D01*
X117937380Y-71722857D02*
X118937380Y-72389523D01*
X118937380Y-70818095D02*
X118937380Y-71389523D01*
X118937380Y-71103809D02*
X117937380Y-71103809D01*
X118080238Y-71199047D01*
X118175476Y-71294285D01*
X118223095Y-71389523D01*
X137415952Y-71675238D02*
X137368333Y-71770476D01*
X137320714Y-71818095D01*
X137225476Y-71865714D01*
X137177857Y-71865714D01*
X137082619Y-71818095D01*
X137035000Y-71770476D01*
X136987380Y-71675238D01*
X136987380Y-71484761D01*
X137035000Y-71389523D01*
X137082619Y-71341904D01*
X137177857Y-71294285D01*
X137225476Y-71294285D01*
X137320714Y-71341904D01*
X137368333Y-71389523D01*
X137415952Y-71484761D01*
X137415952Y-71675238D01*
X137463571Y-71770476D01*
X137511190Y-71818095D01*
X137606428Y-71865714D01*
X137796904Y-71865714D01*
X137892142Y-71818095D01*
X137939761Y-71770476D01*
X137987380Y-71675238D01*
X137987380Y-71484761D01*
X137939761Y-71389523D01*
X137892142Y-71341904D01*
X137796904Y-71294285D01*
X137606428Y-71294285D01*
X137511190Y-71341904D01*
X137463571Y-71389523D01*
X137415952Y-71484761D01*
X128097380Y-71913333D02*
X128097380Y-71294285D01*
X128478333Y-71627619D01*
X128478333Y-71484761D01*
X128525952Y-71389523D01*
X128573571Y-71341904D01*
X128668809Y-71294285D01*
X128906904Y-71294285D01*
X129002142Y-71341904D01*
X129049761Y-71389523D01*
X129097380Y-71484761D01*
X129097380Y-71770476D01*
X129049761Y-71865714D01*
X129002142Y-71913333D01*
X126557380Y-71770476D02*
X126557380Y-72341904D01*
X126557380Y-72056190D02*
X125557380Y-72056190D01*
X125700238Y-72151428D01*
X125795476Y-72246666D01*
X125843095Y-72341904D01*
X125557380Y-71151428D02*
X125557380Y-71056190D01*
X125605000Y-70960952D01*
X125652619Y-70913333D01*
X125747857Y-70865714D01*
X125938333Y-70818095D01*
X126176428Y-70818095D01*
X126366904Y-70865714D01*
X126462142Y-70913333D01*
X126509761Y-70960952D01*
X126557380Y-71056190D01*
X126557380Y-71151428D01*
X126509761Y-71246666D01*
X126462142Y-71294285D01*
X126366904Y-71341904D01*
X126176428Y-71389523D01*
X125938333Y-71389523D01*
X125747857Y-71341904D01*
X125652619Y-71294285D01*
X125605000Y-71246666D01*
X125557380Y-71151428D01*
X120207380Y-71294285D02*
X120207380Y-71865714D01*
X120207380Y-71580000D02*
X119207380Y-71580000D01*
X119350238Y-71675238D01*
X119445476Y-71770476D01*
X119493095Y-71865714D01*
X120810714Y-71389523D02*
X121477380Y-71389523D01*
X120429761Y-71627619D02*
X121144047Y-71865714D01*
X121144047Y-71246666D01*
X142845190Y-71040000D02*
X143321380Y-71040000D01*
X142321380Y-71373333D02*
X142845190Y-71040000D01*
X142321380Y-70706666D01*
X141797380Y-71770476D02*
X141797380Y-72341904D01*
X141797380Y-72056190D02*
X140797380Y-72056190D01*
X140940238Y-72151428D01*
X141035476Y-72246666D01*
X141083095Y-72341904D01*
X141797380Y-70818095D02*
X141797380Y-71389523D01*
X141797380Y-71103809D02*
X140797380Y-71103809D01*
X140940238Y-71199047D01*
X141035476Y-71294285D01*
X141083095Y-71389523D01*
X139257380Y-71770476D02*
X139257380Y-72341904D01*
X139257380Y-72056190D02*
X138257380Y-72056190D01*
X138400238Y-72151428D01*
X138495476Y-72246666D01*
X138543095Y-72341904D01*
X138257380Y-71437142D02*
X138257380Y-70818095D01*
X138638333Y-71151428D01*
X138638333Y-71008571D01*
X138685952Y-70913333D01*
X138733571Y-70865714D01*
X138828809Y-70818095D01*
X139066904Y-70818095D01*
X139162142Y-70865714D01*
X139209761Y-70913333D01*
X139257380Y-71008571D01*
X139257380Y-71294285D01*
X139209761Y-71389523D01*
X139162142Y-71437142D01*
X133177380Y-71389523D02*
X133177380Y-71580000D01*
X133225000Y-71675238D01*
X133272619Y-71722857D01*
X133415476Y-71818095D01*
X133605952Y-71865714D01*
X133986904Y-71865714D01*
X134082142Y-71818095D01*
X134129761Y-71770476D01*
X134177380Y-71675238D01*
X134177380Y-71484761D01*
X134129761Y-71389523D01*
X134082142Y-71341904D01*
X133986904Y-71294285D01*
X133748809Y-71294285D01*
X133653571Y-71341904D01*
X133605952Y-71389523D01*
X133558333Y-71484761D01*
X133558333Y-71675238D01*
X133605952Y-71770476D01*
X133653571Y-71818095D01*
X133748809Y-71865714D01*
X135447380Y-71770476D02*
X135447380Y-72341904D01*
X135447380Y-72056190D02*
X134447380Y-72056190D01*
X134590238Y-72151428D01*
X134685476Y-72246666D01*
X134733095Y-72341904D01*
X134542619Y-71389523D02*
X134495000Y-71341904D01*
X134447380Y-71246666D01*
X134447380Y-71008571D01*
X134495000Y-70913333D01*
X134542619Y-70865714D01*
X134637857Y-70818095D01*
X134733095Y-70818095D01*
X134875952Y-70865714D01*
X135447380Y-71437142D01*
X135447380Y-70818095D01*
X131637380Y-71770476D02*
X131637380Y-71580000D01*
X131589761Y-71484761D01*
X131542142Y-71437142D01*
X131399285Y-71341904D01*
X131208809Y-71294285D01*
X130827857Y-71294285D01*
X130732619Y-71341904D01*
X130685000Y-71389523D01*
X130637380Y-71484761D01*
X130637380Y-71675238D01*
X130685000Y-71770476D01*
X130732619Y-71818095D01*
X130827857Y-71865714D01*
X131065952Y-71865714D01*
X131161190Y-71818095D01*
X131208809Y-71770476D01*
X131256428Y-71675238D01*
X131256428Y-71484761D01*
X131208809Y-71389523D01*
X131161190Y-71341904D01*
X131065952Y-71294285D01*
%TO.C,74HC00*%
X69564285Y-64032380D02*
X70230952Y-64032380D01*
X69802380Y-65032380D01*
X71040476Y-64365714D02*
X71040476Y-65032380D01*
X70802380Y-63984761D02*
X70564285Y-64699047D01*
X71183333Y-64699047D01*
X71564285Y-65032380D02*
X71564285Y-64032380D01*
X71564285Y-64508571D02*
X72135714Y-64508571D01*
X72135714Y-65032380D02*
X72135714Y-64032380D01*
X73183333Y-64937142D02*
X73135714Y-64984761D01*
X72992857Y-65032380D01*
X72897619Y-65032380D01*
X72754761Y-64984761D01*
X72659523Y-64889523D01*
X72611904Y-64794285D01*
X72564285Y-64603809D01*
X72564285Y-64460952D01*
X72611904Y-64270476D01*
X72659523Y-64175238D01*
X72754761Y-64080000D01*
X72897619Y-64032380D01*
X72992857Y-64032380D01*
X73135714Y-64080000D01*
X73183333Y-64127619D01*
X73802380Y-64032380D02*
X73897619Y-64032380D01*
X73992857Y-64080000D01*
X74040476Y-64127619D01*
X74088095Y-64222857D01*
X74135714Y-64413333D01*
X74135714Y-64651428D01*
X74088095Y-64841904D01*
X74040476Y-64937142D01*
X73992857Y-64984761D01*
X73897619Y-65032380D01*
X73802380Y-65032380D01*
X73707142Y-64984761D01*
X73659523Y-64937142D01*
X73611904Y-64841904D01*
X73564285Y-64651428D01*
X73564285Y-64413333D01*
X73611904Y-64222857D01*
X73659523Y-64127619D01*
X73707142Y-64080000D01*
X73802380Y-64032380D01*
X74754761Y-64032380D02*
X74850000Y-64032380D01*
X74945238Y-64080000D01*
X74992857Y-64127619D01*
X75040476Y-64222857D01*
X75088095Y-64413333D01*
X75088095Y-64651428D01*
X75040476Y-64841904D01*
X74992857Y-64937142D01*
X74945238Y-64984761D01*
X74850000Y-65032380D01*
X74754761Y-65032380D01*
X74659523Y-64984761D01*
X74611904Y-64937142D01*
X74564285Y-64841904D01*
X74516666Y-64651428D01*
X74516666Y-64413333D01*
X74564285Y-64222857D01*
X74611904Y-64127619D01*
X74659523Y-64080000D01*
X74754761Y-64032380D01*
%TO.C,R3*%
X88383333Y-68832380D02*
X88050000Y-68356190D01*
X87811904Y-68832380D02*
X87811904Y-67832380D01*
X88192857Y-67832380D01*
X88288095Y-67880000D01*
X88335714Y-67927619D01*
X88383333Y-68022857D01*
X88383333Y-68165714D01*
X88335714Y-68260952D01*
X88288095Y-68308571D01*
X88192857Y-68356190D01*
X87811904Y-68356190D01*
X88716666Y-67832380D02*
X89335714Y-67832380D01*
X89002380Y-68213333D01*
X89145238Y-68213333D01*
X89240476Y-68260952D01*
X89288095Y-68308571D01*
X89335714Y-68403809D01*
X89335714Y-68641904D01*
X89288095Y-68737142D01*
X89240476Y-68784761D01*
X89145238Y-68832380D01*
X88859523Y-68832380D01*
X88764285Y-68784761D01*
X88716666Y-68737142D01*
%TO.C,SW2*%
X108266666Y-70684761D02*
X108409523Y-70732380D01*
X108647619Y-70732380D01*
X108742857Y-70684761D01*
X108790476Y-70637142D01*
X108838095Y-70541904D01*
X108838095Y-70446666D01*
X108790476Y-70351428D01*
X108742857Y-70303809D01*
X108647619Y-70256190D01*
X108457142Y-70208571D01*
X108361904Y-70160952D01*
X108314285Y-70113333D01*
X108266666Y-70018095D01*
X108266666Y-69922857D01*
X108314285Y-69827619D01*
X108361904Y-69780000D01*
X108457142Y-69732380D01*
X108695238Y-69732380D01*
X108838095Y-69780000D01*
X109171428Y-69732380D02*
X109409523Y-70732380D01*
X109600000Y-70018095D01*
X109790476Y-70732380D01*
X110028571Y-69732380D01*
X110361904Y-69827619D02*
X110409523Y-69780000D01*
X110504761Y-69732380D01*
X110742857Y-69732380D01*
X110838095Y-69780000D01*
X110885714Y-69827619D01*
X110933333Y-69922857D01*
X110933333Y-70018095D01*
X110885714Y-70160952D01*
X110314285Y-70732380D01*
X110933333Y-70732380D01*
%TO.C,X2*%
X104240476Y-64082380D02*
X104907142Y-65082380D01*
X104907142Y-64082380D02*
X104240476Y-65082380D01*
X105240476Y-64177619D02*
X105288095Y-64130000D01*
X105383333Y-64082380D01*
X105621428Y-64082380D01*
X105716666Y-64130000D01*
X105764285Y-64177619D01*
X105811904Y-64272857D01*
X105811904Y-64368095D01*
X105764285Y-64510952D01*
X105192857Y-65082380D01*
X105811904Y-65082380D01*
%TO.C,R2*%
X88383333Y-64932380D02*
X88050000Y-64456190D01*
X87811904Y-64932380D02*
X87811904Y-63932380D01*
X88192857Y-63932380D01*
X88288095Y-63980000D01*
X88335714Y-64027619D01*
X88383333Y-64122857D01*
X88383333Y-64265714D01*
X88335714Y-64360952D01*
X88288095Y-64408571D01*
X88192857Y-64456190D01*
X87811904Y-64456190D01*
X88764285Y-64027619D02*
X88811904Y-63980000D01*
X88907142Y-63932380D01*
X89145238Y-63932380D01*
X89240476Y-63980000D01*
X89288095Y-64027619D01*
X89335714Y-64122857D01*
X89335714Y-64218095D01*
X89288095Y-64360952D01*
X88716666Y-64932380D01*
X89335714Y-64932380D01*
%TO.C,SW1*%
X99166666Y-70734761D02*
X99309523Y-70782380D01*
X99547619Y-70782380D01*
X99642857Y-70734761D01*
X99690476Y-70687142D01*
X99738095Y-70591904D01*
X99738095Y-70496666D01*
X99690476Y-70401428D01*
X99642857Y-70353809D01*
X99547619Y-70306190D01*
X99357142Y-70258571D01*
X99261904Y-70210952D01*
X99214285Y-70163333D01*
X99166666Y-70068095D01*
X99166666Y-69972857D01*
X99214285Y-69877619D01*
X99261904Y-69830000D01*
X99357142Y-69782380D01*
X99595238Y-69782380D01*
X99738095Y-69830000D01*
X100071428Y-69782380D02*
X100309523Y-70782380D01*
X100500000Y-70068095D01*
X100690476Y-70782380D01*
X100928571Y-69782380D01*
X101833333Y-70782380D02*
X101261904Y-70782380D01*
X101547619Y-70782380D02*
X101547619Y-69782380D01*
X101452380Y-69925238D01*
X101357142Y-70020476D01*
X101261904Y-70068095D01*
%TO.C,OR*%
X115651380Y-61959238D02*
X115651380Y-61768761D01*
X115699000Y-61673523D01*
X115794238Y-61578285D01*
X115984714Y-61530666D01*
X116318047Y-61530666D01*
X116508523Y-61578285D01*
X116603761Y-61673523D01*
X116651380Y-61768761D01*
X116651380Y-61959238D01*
X116603761Y-62054476D01*
X116508523Y-62149714D01*
X116318047Y-62197333D01*
X115984714Y-62197333D01*
X115794238Y-62149714D01*
X115699000Y-62054476D01*
X115651380Y-61959238D01*
X116651380Y-60530666D02*
X116175190Y-60864000D01*
X116651380Y-61102095D02*
X115651380Y-61102095D01*
X115651380Y-60721142D01*
X115699000Y-60625904D01*
X115746619Y-60578285D01*
X115841857Y-60530666D01*
X115984714Y-60530666D01*
X116079952Y-60578285D01*
X116127571Y-60625904D01*
X116175190Y-60721142D01*
X116175190Y-61102095D01*
X135447380Y-60570476D02*
X135447380Y-60380000D01*
X135399761Y-60284761D01*
X135352142Y-60237142D01*
X135209285Y-60141904D01*
X135018809Y-60094285D01*
X134637857Y-60094285D01*
X134542619Y-60141904D01*
X134495000Y-60189523D01*
X134447380Y-60284761D01*
X134447380Y-60475238D01*
X134495000Y-60570476D01*
X134542619Y-60618095D01*
X134637857Y-60665714D01*
X134875952Y-60665714D01*
X134971190Y-60618095D01*
X135018809Y-60570476D01*
X135066428Y-60475238D01*
X135066428Y-60284761D01*
X135018809Y-60189523D01*
X134971190Y-60141904D01*
X134875952Y-60094285D01*
X133177380Y-60713333D02*
X133177380Y-60094285D01*
X133558333Y-60427619D01*
X133558333Y-60284761D01*
X133605952Y-60189523D01*
X133653571Y-60141904D01*
X133748809Y-60094285D01*
X133986904Y-60094285D01*
X134082142Y-60141904D01*
X134129761Y-60189523D01*
X134177380Y-60284761D01*
X134177380Y-60570476D01*
X134129761Y-60665714D01*
X134082142Y-60713333D01*
X136987380Y-60189523D02*
X136987380Y-60380000D01*
X137035000Y-60475238D01*
X137082619Y-60522857D01*
X137225476Y-60618095D01*
X137415952Y-60665714D01*
X137796904Y-60665714D01*
X137892142Y-60618095D01*
X137939761Y-60570476D01*
X137987380Y-60475238D01*
X137987380Y-60284761D01*
X137939761Y-60189523D01*
X137892142Y-60141904D01*
X137796904Y-60094285D01*
X137558809Y-60094285D01*
X137463571Y-60141904D01*
X137415952Y-60189523D01*
X137368333Y-60284761D01*
X137368333Y-60475238D01*
X137415952Y-60570476D01*
X137463571Y-60618095D01*
X137558809Y-60665714D01*
X142845190Y-60380000D02*
X143321380Y-60380000D01*
X142321380Y-60713333D02*
X142845190Y-60380000D01*
X142321380Y-60046666D01*
X120572619Y-60665714D02*
X120525000Y-60618095D01*
X120477380Y-60522857D01*
X120477380Y-60284761D01*
X120525000Y-60189523D01*
X120572619Y-60141904D01*
X120667857Y-60094285D01*
X120763095Y-60094285D01*
X120905952Y-60141904D01*
X121477380Y-60713333D01*
X121477380Y-60094285D01*
X124620714Y-60189523D02*
X125287380Y-60189523D01*
X124239761Y-60427619D02*
X124954047Y-60665714D01*
X124954047Y-60046666D01*
X139257380Y-60570476D02*
X139257380Y-61141904D01*
X139257380Y-60856190D02*
X138257380Y-60856190D01*
X138400238Y-60951428D01*
X138495476Y-61046666D01*
X138543095Y-61141904D01*
X138257380Y-59951428D02*
X138257380Y-59856190D01*
X138305000Y-59760952D01*
X138352619Y-59713333D01*
X138447857Y-59665714D01*
X138638333Y-59618095D01*
X138876428Y-59618095D01*
X139066904Y-59665714D01*
X139162142Y-59713333D01*
X139209761Y-59760952D01*
X139257380Y-59856190D01*
X139257380Y-59951428D01*
X139209761Y-60046666D01*
X139162142Y-60094285D01*
X139066904Y-60141904D01*
X138876428Y-60189523D01*
X138638333Y-60189523D01*
X138447857Y-60141904D01*
X138352619Y-60094285D01*
X138305000Y-60046666D01*
X138257380Y-59951428D01*
X123017380Y-61189523D02*
X124017380Y-60522857D01*
X123017380Y-60522857D02*
X124017380Y-61189523D01*
X123112619Y-60189523D02*
X123065000Y-60141904D01*
X123017380Y-60046666D01*
X123017380Y-59808571D01*
X123065000Y-59713333D01*
X123112619Y-59665714D01*
X123207857Y-59618095D01*
X123303095Y-59618095D01*
X123445952Y-59665714D01*
X124017380Y-60237142D01*
X124017380Y-59618095D01*
X120207380Y-60094285D02*
X120207380Y-60665714D01*
X120207380Y-60380000D02*
X119207380Y-60380000D01*
X119350238Y-60475238D01*
X119445476Y-60570476D01*
X119493095Y-60665714D01*
X125557380Y-60141904D02*
X125557380Y-60618095D01*
X126033571Y-60665714D01*
X125985952Y-60618095D01*
X125938333Y-60522857D01*
X125938333Y-60284761D01*
X125985952Y-60189523D01*
X126033571Y-60141904D01*
X126128809Y-60094285D01*
X126366904Y-60094285D01*
X126462142Y-60141904D01*
X126509761Y-60189523D01*
X126557380Y-60284761D01*
X126557380Y-60522857D01*
X126509761Y-60618095D01*
X126462142Y-60665714D01*
X117937380Y-61189523D02*
X118937380Y-60522857D01*
X117937380Y-60522857D02*
X118937380Y-61189523D01*
X118937380Y-59618095D02*
X118937380Y-60189523D01*
X118937380Y-59903809D02*
X117937380Y-59903809D01*
X118080238Y-59999047D01*
X118175476Y-60094285D01*
X118223095Y-60189523D01*
X141225952Y-60475238D02*
X141178333Y-60570476D01*
X141130714Y-60618095D01*
X141035476Y-60665714D01*
X140987857Y-60665714D01*
X140892619Y-60618095D01*
X140845000Y-60570476D01*
X140797380Y-60475238D01*
X140797380Y-60284761D01*
X140845000Y-60189523D01*
X140892619Y-60141904D01*
X140987857Y-60094285D01*
X141035476Y-60094285D01*
X141130714Y-60141904D01*
X141178333Y-60189523D01*
X141225952Y-60284761D01*
X141225952Y-60475238D01*
X141273571Y-60570476D01*
X141321190Y-60618095D01*
X141416428Y-60665714D01*
X141606904Y-60665714D01*
X141702142Y-60618095D01*
X141749761Y-60570476D01*
X141797380Y-60475238D01*
X141797380Y-60284761D01*
X141749761Y-60189523D01*
X141702142Y-60141904D01*
X141606904Y-60094285D01*
X141416428Y-60094285D01*
X141321190Y-60141904D01*
X141273571Y-60189523D01*
X141225952Y-60284761D01*
%TO.C,AND*%
X116365666Y-68178404D02*
X116365666Y-67702214D01*
X116651380Y-68273642D02*
X115651380Y-67940309D01*
X116651380Y-67606976D01*
X116651380Y-67273642D02*
X115651380Y-67273642D01*
X116651380Y-66702214D01*
X115651380Y-66702214D01*
X116651380Y-66226023D02*
X115651380Y-66226023D01*
X115651380Y-65987928D01*
X115699000Y-65845071D01*
X115794238Y-65749833D01*
X115889476Y-65702214D01*
X116079952Y-65654595D01*
X116222809Y-65654595D01*
X116413285Y-65702214D01*
X116508523Y-65749833D01*
X116603761Y-65845071D01*
X116651380Y-65987928D01*
X116651380Y-66226023D01*
X129770714Y-65742023D02*
X130437380Y-65742023D01*
X129389761Y-65980119D02*
X130104047Y-66218214D01*
X130104047Y-65599166D01*
X120277380Y-65646785D02*
X120277380Y-66218214D01*
X120277380Y-65932500D02*
X119277380Y-65932500D01*
X119420238Y-66027738D01*
X119515476Y-66122976D01*
X119563095Y-66218214D01*
X123087380Y-66742023D02*
X124087380Y-66075357D01*
X123087380Y-66075357D02*
X124087380Y-66742023D01*
X123182619Y-65742023D02*
X123135000Y-65694404D01*
X123087380Y-65599166D01*
X123087380Y-65361071D01*
X123135000Y-65265833D01*
X123182619Y-65218214D01*
X123277857Y-65170595D01*
X123373095Y-65170595D01*
X123515952Y-65218214D01*
X124087380Y-65789642D01*
X124087380Y-65170595D01*
X124452619Y-66218214D02*
X124405000Y-66170595D01*
X124357380Y-66075357D01*
X124357380Y-65837261D01*
X124405000Y-65742023D01*
X124452619Y-65694404D01*
X124547857Y-65646785D01*
X124643095Y-65646785D01*
X124785952Y-65694404D01*
X125357380Y-66265833D01*
X125357380Y-65646785D01*
X128167380Y-66265833D02*
X128167380Y-65646785D01*
X128548333Y-65980119D01*
X128548333Y-65837261D01*
X128595952Y-65742023D01*
X128643571Y-65694404D01*
X128738809Y-65646785D01*
X128976904Y-65646785D01*
X129072142Y-65694404D01*
X129119761Y-65742023D01*
X129167380Y-65837261D01*
X129167380Y-66122976D01*
X129119761Y-66218214D01*
X129072142Y-66265833D01*
X140867380Y-65742023D02*
X140867380Y-65932500D01*
X140915000Y-66027738D01*
X140962619Y-66075357D01*
X141105476Y-66170595D01*
X141295952Y-66218214D01*
X141676904Y-66218214D01*
X141772142Y-66170595D01*
X141819761Y-66122976D01*
X141867380Y-66027738D01*
X141867380Y-65837261D01*
X141819761Y-65742023D01*
X141772142Y-65694404D01*
X141676904Y-65646785D01*
X141438809Y-65646785D01*
X141343571Y-65694404D01*
X141295952Y-65742023D01*
X141248333Y-65837261D01*
X141248333Y-66027738D01*
X141295952Y-66122976D01*
X141343571Y-66170595D01*
X141438809Y-66218214D01*
X130707380Y-65694404D02*
X130707380Y-66170595D01*
X131183571Y-66218214D01*
X131135952Y-66170595D01*
X131088333Y-66075357D01*
X131088333Y-65837261D01*
X131135952Y-65742023D01*
X131183571Y-65694404D01*
X131278809Y-65646785D01*
X131516904Y-65646785D01*
X131612142Y-65694404D01*
X131659761Y-65742023D01*
X131707380Y-65837261D01*
X131707380Y-66075357D01*
X131659761Y-66170595D01*
X131612142Y-66218214D01*
X142915190Y-65932500D02*
X143391380Y-65932500D01*
X142391380Y-66265833D02*
X142915190Y-65932500D01*
X142391380Y-65599166D01*
X118007380Y-66742023D02*
X119007380Y-66075357D01*
X118007380Y-66075357D02*
X119007380Y-66742023D01*
X119007380Y-65170595D02*
X119007380Y-65742023D01*
X119007380Y-65456309D02*
X118007380Y-65456309D01*
X118150238Y-65551547D01*
X118245476Y-65646785D01*
X118293095Y-65742023D01*
%TO.C,Y*%
X111050000Y-64606190D02*
X111050000Y-65082380D01*
X110716666Y-64082380D02*
X111050000Y-64606190D01*
X111383333Y-64082380D01*
%TO.C,R1*%
X88383333Y-61032380D02*
X88050000Y-60556190D01*
X87811904Y-61032380D02*
X87811904Y-60032380D01*
X88192857Y-60032380D01*
X88288095Y-60080000D01*
X88335714Y-60127619D01*
X88383333Y-60222857D01*
X88383333Y-60365714D01*
X88335714Y-60460952D01*
X88288095Y-60508571D01*
X88192857Y-60556190D01*
X87811904Y-60556190D01*
X89335714Y-61032380D02*
X88764285Y-61032380D01*
X89050000Y-61032380D02*
X89050000Y-60032380D01*
X88954761Y-60175238D01*
X88859523Y-60270476D01*
X88764285Y-60318095D01*
%TO.C,X1*%
X98240476Y-39182380D02*
X98907142Y-40182380D01*
X98907142Y-39182380D02*
X98240476Y-40182380D01*
X99811904Y-40182380D02*
X99240476Y-40182380D01*
X99526190Y-40182380D02*
X99526190Y-39182380D01*
X99430952Y-39325238D01*
X99335714Y-39420476D01*
X99240476Y-39468095D01*
%TO.C,AND*%
X116365666Y-43178404D02*
X116365666Y-42702214D01*
X116651380Y-43273642D02*
X115651380Y-42940309D01*
X116651380Y-42606976D01*
X116651380Y-42273642D02*
X115651380Y-42273642D01*
X116651380Y-41702214D01*
X115651380Y-41702214D01*
X116651380Y-41226023D02*
X115651380Y-41226023D01*
X115651380Y-40987928D01*
X115699000Y-40845071D01*
X115794238Y-40749833D01*
X115889476Y-40702214D01*
X116079952Y-40654595D01*
X116222809Y-40654595D01*
X116413285Y-40702214D01*
X116508523Y-40749833D01*
X116603761Y-40845071D01*
X116651380Y-40987928D01*
X116651380Y-41226023D01*
X129770714Y-40742023D02*
X130437380Y-40742023D01*
X129389761Y-40980119D02*
X130104047Y-41218214D01*
X130104047Y-40599166D01*
X120277380Y-40646785D02*
X120277380Y-41218214D01*
X120277380Y-40932500D02*
X119277380Y-40932500D01*
X119420238Y-41027738D01*
X119515476Y-41122976D01*
X119563095Y-41218214D01*
X123087380Y-41742023D02*
X124087380Y-41075357D01*
X123087380Y-41075357D02*
X124087380Y-41742023D01*
X123182619Y-40742023D02*
X123135000Y-40694404D01*
X123087380Y-40599166D01*
X123087380Y-40361071D01*
X123135000Y-40265833D01*
X123182619Y-40218214D01*
X123277857Y-40170595D01*
X123373095Y-40170595D01*
X123515952Y-40218214D01*
X124087380Y-40789642D01*
X124087380Y-40170595D01*
X124452619Y-41218214D02*
X124405000Y-41170595D01*
X124357380Y-41075357D01*
X124357380Y-40837261D01*
X124405000Y-40742023D01*
X124452619Y-40694404D01*
X124547857Y-40646785D01*
X124643095Y-40646785D01*
X124785952Y-40694404D01*
X125357380Y-41265833D01*
X125357380Y-40646785D01*
X128167380Y-41265833D02*
X128167380Y-40646785D01*
X128548333Y-40980119D01*
X128548333Y-40837261D01*
X128595952Y-40742023D01*
X128643571Y-40694404D01*
X128738809Y-40646785D01*
X128976904Y-40646785D01*
X129072142Y-40694404D01*
X129119761Y-40742023D01*
X129167380Y-40837261D01*
X129167380Y-41122976D01*
X129119761Y-41218214D01*
X129072142Y-41265833D01*
X140867380Y-40742023D02*
X140867380Y-40932500D01*
X140915000Y-41027738D01*
X140962619Y-41075357D01*
X141105476Y-41170595D01*
X141295952Y-41218214D01*
X141676904Y-41218214D01*
X141772142Y-41170595D01*
X141819761Y-41122976D01*
X141867380Y-41027738D01*
X141867380Y-40837261D01*
X141819761Y-40742023D01*
X141772142Y-40694404D01*
X141676904Y-40646785D01*
X141438809Y-40646785D01*
X141343571Y-40694404D01*
X141295952Y-40742023D01*
X141248333Y-40837261D01*
X141248333Y-41027738D01*
X141295952Y-41122976D01*
X141343571Y-41170595D01*
X141438809Y-41218214D01*
X130707380Y-40694404D02*
X130707380Y-41170595D01*
X131183571Y-41218214D01*
X131135952Y-41170595D01*
X131088333Y-41075357D01*
X131088333Y-40837261D01*
X131135952Y-40742023D01*
X131183571Y-40694404D01*
X131278809Y-40646785D01*
X131516904Y-40646785D01*
X131612142Y-40694404D01*
X131659761Y-40742023D01*
X131707380Y-40837261D01*
X131707380Y-41075357D01*
X131659761Y-41170595D01*
X131612142Y-41218214D01*
X142915190Y-40932500D02*
X143391380Y-40932500D01*
X142391380Y-41265833D02*
X142915190Y-40932500D01*
X142391380Y-40599166D01*
X118007380Y-41742023D02*
X119007380Y-41075357D01*
X118007380Y-41075357D02*
X119007380Y-41742023D01*
X119007380Y-40170595D02*
X119007380Y-40742023D01*
X119007380Y-40456309D02*
X118007380Y-40456309D01*
X118150238Y-40551547D01*
X118245476Y-40646785D01*
X118293095Y-40742023D01*
%TO.C,X2*%
X104240476Y-39082380D02*
X104907142Y-40082380D01*
X104907142Y-39082380D02*
X104240476Y-40082380D01*
X105240476Y-39177619D02*
X105288095Y-39130000D01*
X105383333Y-39082380D01*
X105621428Y-39082380D01*
X105716666Y-39130000D01*
X105764285Y-39177619D01*
X105811904Y-39272857D01*
X105811904Y-39368095D01*
X105764285Y-39510952D01*
X105192857Y-40082380D01*
X105811904Y-40082380D01*
%TO.C,Y*%
X111050000Y-39606190D02*
X111050000Y-40082380D01*
X110716666Y-39082380D02*
X111050000Y-39606190D01*
X111383333Y-39082380D01*
%TO.C,R3*%
X88383333Y-43832380D02*
X88050000Y-43356190D01*
X87811904Y-43832380D02*
X87811904Y-42832380D01*
X88192857Y-42832380D01*
X88288095Y-42880000D01*
X88335714Y-42927619D01*
X88383333Y-43022857D01*
X88383333Y-43165714D01*
X88335714Y-43260952D01*
X88288095Y-43308571D01*
X88192857Y-43356190D01*
X87811904Y-43356190D01*
X88716666Y-42832380D02*
X89335714Y-42832380D01*
X89002380Y-43213333D01*
X89145238Y-43213333D01*
X89240476Y-43260952D01*
X89288095Y-43308571D01*
X89335714Y-43403809D01*
X89335714Y-43641904D01*
X89288095Y-43737142D01*
X89240476Y-43784761D01*
X89145238Y-43832380D01*
X88859523Y-43832380D01*
X88764285Y-43784761D01*
X88716666Y-43737142D01*
%TO.C,SW2*%
X108266666Y-45684761D02*
X108409523Y-45732380D01*
X108647619Y-45732380D01*
X108742857Y-45684761D01*
X108790476Y-45637142D01*
X108838095Y-45541904D01*
X108838095Y-45446666D01*
X108790476Y-45351428D01*
X108742857Y-45303809D01*
X108647619Y-45256190D01*
X108457142Y-45208571D01*
X108361904Y-45160952D01*
X108314285Y-45113333D01*
X108266666Y-45018095D01*
X108266666Y-44922857D01*
X108314285Y-44827619D01*
X108361904Y-44780000D01*
X108457142Y-44732380D01*
X108695238Y-44732380D01*
X108838095Y-44780000D01*
X109171428Y-44732380D02*
X109409523Y-45732380D01*
X109600000Y-45018095D01*
X109790476Y-45732380D01*
X110028571Y-44732380D01*
X110361904Y-44827619D02*
X110409523Y-44780000D01*
X110504761Y-44732380D01*
X110742857Y-44732380D01*
X110838095Y-44780000D01*
X110885714Y-44827619D01*
X110933333Y-44922857D01*
X110933333Y-45018095D01*
X110885714Y-45160952D01*
X110314285Y-45732380D01*
X110933333Y-45732380D01*
%TO.C,R2*%
X88383333Y-39932380D02*
X88050000Y-39456190D01*
X87811904Y-39932380D02*
X87811904Y-38932380D01*
X88192857Y-38932380D01*
X88288095Y-38980000D01*
X88335714Y-39027619D01*
X88383333Y-39122857D01*
X88383333Y-39265714D01*
X88335714Y-39360952D01*
X88288095Y-39408571D01*
X88192857Y-39456190D01*
X87811904Y-39456190D01*
X88764285Y-39027619D02*
X88811904Y-38980000D01*
X88907142Y-38932380D01*
X89145238Y-38932380D01*
X89240476Y-38980000D01*
X89288095Y-39027619D01*
X89335714Y-39122857D01*
X89335714Y-39218095D01*
X89288095Y-39360952D01*
X88716666Y-39932380D01*
X89335714Y-39932380D01*
%TO.C,74HC00*%
X69564285Y-39032380D02*
X70230952Y-39032380D01*
X69802380Y-40032380D01*
X71040476Y-39365714D02*
X71040476Y-40032380D01*
X70802380Y-38984761D02*
X70564285Y-39699047D01*
X71183333Y-39699047D01*
X71564285Y-40032380D02*
X71564285Y-39032380D01*
X71564285Y-39508571D02*
X72135714Y-39508571D01*
X72135714Y-40032380D02*
X72135714Y-39032380D01*
X73183333Y-39937142D02*
X73135714Y-39984761D01*
X72992857Y-40032380D01*
X72897619Y-40032380D01*
X72754761Y-39984761D01*
X72659523Y-39889523D01*
X72611904Y-39794285D01*
X72564285Y-39603809D01*
X72564285Y-39460952D01*
X72611904Y-39270476D01*
X72659523Y-39175238D01*
X72754761Y-39080000D01*
X72897619Y-39032380D01*
X72992857Y-39032380D01*
X73135714Y-39080000D01*
X73183333Y-39127619D01*
X73802380Y-39032380D02*
X73897619Y-39032380D01*
X73992857Y-39080000D01*
X74040476Y-39127619D01*
X74088095Y-39222857D01*
X74135714Y-39413333D01*
X74135714Y-39651428D01*
X74088095Y-39841904D01*
X74040476Y-39937142D01*
X73992857Y-39984761D01*
X73897619Y-40032380D01*
X73802380Y-40032380D01*
X73707142Y-39984761D01*
X73659523Y-39937142D01*
X73611904Y-39841904D01*
X73564285Y-39651428D01*
X73564285Y-39413333D01*
X73611904Y-39222857D01*
X73659523Y-39127619D01*
X73707142Y-39080000D01*
X73802380Y-39032380D01*
X74754761Y-39032380D02*
X74850000Y-39032380D01*
X74945238Y-39080000D01*
X74992857Y-39127619D01*
X75040476Y-39222857D01*
X75088095Y-39413333D01*
X75088095Y-39651428D01*
X75040476Y-39841904D01*
X74992857Y-39937142D01*
X74945238Y-39984761D01*
X74850000Y-40032380D01*
X74754761Y-40032380D01*
X74659523Y-39984761D01*
X74611904Y-39937142D01*
X74564285Y-39841904D01*
X74516666Y-39651428D01*
X74516666Y-39413333D01*
X74564285Y-39222857D01*
X74611904Y-39127619D01*
X74659523Y-39080000D01*
X74754761Y-39032380D01*
%TO.C,XOR*%
X115651380Y-48921142D02*
X116651380Y-48254476D01*
X115651380Y-48254476D02*
X116651380Y-48921142D01*
X115651380Y-47683047D02*
X115651380Y-47492571D01*
X115699000Y-47397333D01*
X115794238Y-47302095D01*
X115984714Y-47254476D01*
X116318047Y-47254476D01*
X116508523Y-47302095D01*
X116603761Y-47397333D01*
X116651380Y-47492571D01*
X116651380Y-47683047D01*
X116603761Y-47778285D01*
X116508523Y-47873523D01*
X116318047Y-47921142D01*
X115984714Y-47921142D01*
X115794238Y-47873523D01*
X115699000Y-47778285D01*
X115651380Y-47683047D01*
X116651380Y-46254476D02*
X116175190Y-46587809D01*
X116651380Y-46825904D02*
X115651380Y-46825904D01*
X115651380Y-46444952D01*
X115699000Y-46349714D01*
X115746619Y-46302095D01*
X115841857Y-46254476D01*
X115984714Y-46254476D01*
X116079952Y-46302095D01*
X116127571Y-46349714D01*
X116175190Y-46444952D01*
X116175190Y-46825904D01*
X124382619Y-46865714D02*
X124335000Y-46818095D01*
X124287380Y-46722857D01*
X124287380Y-46484761D01*
X124335000Y-46389523D01*
X124382619Y-46341904D01*
X124477857Y-46294285D01*
X124573095Y-46294285D01*
X124715952Y-46341904D01*
X125287380Y-46913333D01*
X125287380Y-46294285D01*
X129367380Y-46341904D02*
X129367380Y-46818095D01*
X129843571Y-46865714D01*
X129795952Y-46818095D01*
X129748333Y-46722857D01*
X129748333Y-46484761D01*
X129795952Y-46389523D01*
X129843571Y-46341904D01*
X129938809Y-46294285D01*
X130176904Y-46294285D01*
X130272142Y-46341904D01*
X130319761Y-46389523D01*
X130367380Y-46484761D01*
X130367380Y-46722857D01*
X130319761Y-46818095D01*
X130272142Y-46865714D01*
X123017380Y-47389523D02*
X124017380Y-46722857D01*
X123017380Y-46722857D02*
X124017380Y-47389523D01*
X123112619Y-46389523D02*
X123065000Y-46341904D01*
X123017380Y-46246666D01*
X123017380Y-46008571D01*
X123065000Y-45913333D01*
X123112619Y-45865714D01*
X123207857Y-45818095D01*
X123303095Y-45818095D01*
X123445952Y-45865714D01*
X124017380Y-46437142D01*
X124017380Y-45818095D01*
X117937380Y-47389523D02*
X118937380Y-46722857D01*
X117937380Y-46722857D02*
X118937380Y-47389523D01*
X118937380Y-45818095D02*
X118937380Y-46389523D01*
X118937380Y-46103809D02*
X117937380Y-46103809D01*
X118080238Y-46199047D01*
X118175476Y-46294285D01*
X118223095Y-46389523D01*
X137415952Y-46675238D02*
X137368333Y-46770476D01*
X137320714Y-46818095D01*
X137225476Y-46865714D01*
X137177857Y-46865714D01*
X137082619Y-46818095D01*
X137035000Y-46770476D01*
X136987380Y-46675238D01*
X136987380Y-46484761D01*
X137035000Y-46389523D01*
X137082619Y-46341904D01*
X137177857Y-46294285D01*
X137225476Y-46294285D01*
X137320714Y-46341904D01*
X137368333Y-46389523D01*
X137415952Y-46484761D01*
X137415952Y-46675238D01*
X137463571Y-46770476D01*
X137511190Y-46818095D01*
X137606428Y-46865714D01*
X137796904Y-46865714D01*
X137892142Y-46818095D01*
X137939761Y-46770476D01*
X137987380Y-46675238D01*
X137987380Y-46484761D01*
X137939761Y-46389523D01*
X137892142Y-46341904D01*
X137796904Y-46294285D01*
X137606428Y-46294285D01*
X137511190Y-46341904D01*
X137463571Y-46389523D01*
X137415952Y-46484761D01*
X128097380Y-46913333D02*
X128097380Y-46294285D01*
X128478333Y-46627619D01*
X128478333Y-46484761D01*
X128525952Y-46389523D01*
X128573571Y-46341904D01*
X128668809Y-46294285D01*
X128906904Y-46294285D01*
X129002142Y-46341904D01*
X129049761Y-46389523D01*
X129097380Y-46484761D01*
X129097380Y-46770476D01*
X129049761Y-46865714D01*
X129002142Y-46913333D01*
X126557380Y-46770476D02*
X126557380Y-47341904D01*
X126557380Y-47056190D02*
X125557380Y-47056190D01*
X125700238Y-47151428D01*
X125795476Y-47246666D01*
X125843095Y-47341904D01*
X125557380Y-46151428D02*
X125557380Y-46056190D01*
X125605000Y-45960952D01*
X125652619Y-45913333D01*
X125747857Y-45865714D01*
X125938333Y-45818095D01*
X126176428Y-45818095D01*
X126366904Y-45865714D01*
X126462142Y-45913333D01*
X126509761Y-45960952D01*
X126557380Y-46056190D01*
X126557380Y-46151428D01*
X126509761Y-46246666D01*
X126462142Y-46294285D01*
X126366904Y-46341904D01*
X126176428Y-46389523D01*
X125938333Y-46389523D01*
X125747857Y-46341904D01*
X125652619Y-46294285D01*
X125605000Y-46246666D01*
X125557380Y-46151428D01*
X120207380Y-46294285D02*
X120207380Y-46865714D01*
X120207380Y-46580000D02*
X119207380Y-46580000D01*
X119350238Y-46675238D01*
X119445476Y-46770476D01*
X119493095Y-46865714D01*
X120810714Y-46389523D02*
X121477380Y-46389523D01*
X120429761Y-46627619D02*
X121144047Y-46865714D01*
X121144047Y-46246666D01*
X142845190Y-46040000D02*
X143321380Y-46040000D01*
X142321380Y-46373333D02*
X142845190Y-46040000D01*
X142321380Y-45706666D01*
X141797380Y-46770476D02*
X141797380Y-47341904D01*
X141797380Y-47056190D02*
X140797380Y-47056190D01*
X140940238Y-47151428D01*
X141035476Y-47246666D01*
X141083095Y-47341904D01*
X141797380Y-45818095D02*
X141797380Y-46389523D01*
X141797380Y-46103809D02*
X140797380Y-46103809D01*
X140940238Y-46199047D01*
X141035476Y-46294285D01*
X141083095Y-46389523D01*
X139257380Y-46770476D02*
X139257380Y-47341904D01*
X139257380Y-47056190D02*
X138257380Y-47056190D01*
X138400238Y-47151428D01*
X138495476Y-47246666D01*
X138543095Y-47341904D01*
X138257380Y-46437142D02*
X138257380Y-45818095D01*
X138638333Y-46151428D01*
X138638333Y-46008571D01*
X138685952Y-45913333D01*
X138733571Y-45865714D01*
X138828809Y-45818095D01*
X139066904Y-45818095D01*
X139162142Y-45865714D01*
X139209761Y-45913333D01*
X139257380Y-46008571D01*
X139257380Y-46294285D01*
X139209761Y-46389523D01*
X139162142Y-46437142D01*
X133177380Y-46389523D02*
X133177380Y-46580000D01*
X133225000Y-46675238D01*
X133272619Y-46722857D01*
X133415476Y-46818095D01*
X133605952Y-46865714D01*
X133986904Y-46865714D01*
X134082142Y-46818095D01*
X134129761Y-46770476D01*
X134177380Y-46675238D01*
X134177380Y-46484761D01*
X134129761Y-46389523D01*
X134082142Y-46341904D01*
X133986904Y-46294285D01*
X133748809Y-46294285D01*
X133653571Y-46341904D01*
X133605952Y-46389523D01*
X133558333Y-46484761D01*
X133558333Y-46675238D01*
X133605952Y-46770476D01*
X133653571Y-46818095D01*
X133748809Y-46865714D01*
X135447380Y-46770476D02*
X135447380Y-47341904D01*
X135447380Y-47056190D02*
X134447380Y-47056190D01*
X134590238Y-47151428D01*
X134685476Y-47246666D01*
X134733095Y-47341904D01*
X134542619Y-46389523D02*
X134495000Y-46341904D01*
X134447380Y-46246666D01*
X134447380Y-46008571D01*
X134495000Y-45913333D01*
X134542619Y-45865714D01*
X134637857Y-45818095D01*
X134733095Y-45818095D01*
X134875952Y-45865714D01*
X135447380Y-46437142D01*
X135447380Y-45818095D01*
X131637380Y-46770476D02*
X131637380Y-46580000D01*
X131589761Y-46484761D01*
X131542142Y-46437142D01*
X131399285Y-46341904D01*
X131208809Y-46294285D01*
X130827857Y-46294285D01*
X130732619Y-46341904D01*
X130685000Y-46389523D01*
X130637380Y-46484761D01*
X130637380Y-46675238D01*
X130685000Y-46770476D01*
X130732619Y-46818095D01*
X130827857Y-46865714D01*
X131065952Y-46865714D01*
X131161190Y-46818095D01*
X131208809Y-46770476D01*
X131256428Y-46675238D01*
X131256428Y-46484761D01*
X131208809Y-46389523D01*
X131161190Y-46341904D01*
X131065952Y-46294285D01*
%TO.C,OR*%
X115651380Y-36959238D02*
X115651380Y-36768761D01*
X115699000Y-36673523D01*
X115794238Y-36578285D01*
X115984714Y-36530666D01*
X116318047Y-36530666D01*
X116508523Y-36578285D01*
X116603761Y-36673523D01*
X116651380Y-36768761D01*
X116651380Y-36959238D01*
X116603761Y-37054476D01*
X116508523Y-37149714D01*
X116318047Y-37197333D01*
X115984714Y-37197333D01*
X115794238Y-37149714D01*
X115699000Y-37054476D01*
X115651380Y-36959238D01*
X116651380Y-35530666D02*
X116175190Y-35864000D01*
X116651380Y-36102095D02*
X115651380Y-36102095D01*
X115651380Y-35721142D01*
X115699000Y-35625904D01*
X115746619Y-35578285D01*
X115841857Y-35530666D01*
X115984714Y-35530666D01*
X116079952Y-35578285D01*
X116127571Y-35625904D01*
X116175190Y-35721142D01*
X116175190Y-36102095D01*
X135447380Y-35570476D02*
X135447380Y-35380000D01*
X135399761Y-35284761D01*
X135352142Y-35237142D01*
X135209285Y-35141904D01*
X135018809Y-35094285D01*
X134637857Y-35094285D01*
X134542619Y-35141904D01*
X134495000Y-35189523D01*
X134447380Y-35284761D01*
X134447380Y-35475238D01*
X134495000Y-35570476D01*
X134542619Y-35618095D01*
X134637857Y-35665714D01*
X134875952Y-35665714D01*
X134971190Y-35618095D01*
X135018809Y-35570476D01*
X135066428Y-35475238D01*
X135066428Y-35284761D01*
X135018809Y-35189523D01*
X134971190Y-35141904D01*
X134875952Y-35094285D01*
X133177380Y-35713333D02*
X133177380Y-35094285D01*
X133558333Y-35427619D01*
X133558333Y-35284761D01*
X133605952Y-35189523D01*
X133653571Y-35141904D01*
X133748809Y-35094285D01*
X133986904Y-35094285D01*
X134082142Y-35141904D01*
X134129761Y-35189523D01*
X134177380Y-35284761D01*
X134177380Y-35570476D01*
X134129761Y-35665714D01*
X134082142Y-35713333D01*
X136987380Y-35189523D02*
X136987380Y-35380000D01*
X137035000Y-35475238D01*
X137082619Y-35522857D01*
X137225476Y-35618095D01*
X137415952Y-35665714D01*
X137796904Y-35665714D01*
X137892142Y-35618095D01*
X137939761Y-35570476D01*
X137987380Y-35475238D01*
X137987380Y-35284761D01*
X137939761Y-35189523D01*
X137892142Y-35141904D01*
X137796904Y-35094285D01*
X137558809Y-35094285D01*
X137463571Y-35141904D01*
X137415952Y-35189523D01*
X137368333Y-35284761D01*
X137368333Y-35475238D01*
X137415952Y-35570476D01*
X137463571Y-35618095D01*
X137558809Y-35665714D01*
X142845190Y-35380000D02*
X143321380Y-35380000D01*
X142321380Y-35713333D02*
X142845190Y-35380000D01*
X142321380Y-35046666D01*
X120572619Y-35665714D02*
X120525000Y-35618095D01*
X120477380Y-35522857D01*
X120477380Y-35284761D01*
X120525000Y-35189523D01*
X120572619Y-35141904D01*
X120667857Y-35094285D01*
X120763095Y-35094285D01*
X120905952Y-35141904D01*
X121477380Y-35713333D01*
X121477380Y-35094285D01*
X124620714Y-35189523D02*
X125287380Y-35189523D01*
X124239761Y-35427619D02*
X124954047Y-35665714D01*
X124954047Y-35046666D01*
X139257380Y-35570476D02*
X139257380Y-36141904D01*
X139257380Y-35856190D02*
X138257380Y-35856190D01*
X138400238Y-35951428D01*
X138495476Y-36046666D01*
X138543095Y-36141904D01*
X138257380Y-34951428D02*
X138257380Y-34856190D01*
X138305000Y-34760952D01*
X138352619Y-34713333D01*
X138447857Y-34665714D01*
X138638333Y-34618095D01*
X138876428Y-34618095D01*
X139066904Y-34665714D01*
X139162142Y-34713333D01*
X139209761Y-34760952D01*
X139257380Y-34856190D01*
X139257380Y-34951428D01*
X139209761Y-35046666D01*
X139162142Y-35094285D01*
X139066904Y-35141904D01*
X138876428Y-35189523D01*
X138638333Y-35189523D01*
X138447857Y-35141904D01*
X138352619Y-35094285D01*
X138305000Y-35046666D01*
X138257380Y-34951428D01*
X123017380Y-36189523D02*
X124017380Y-35522857D01*
X123017380Y-35522857D02*
X124017380Y-36189523D01*
X123112619Y-35189523D02*
X123065000Y-35141904D01*
X123017380Y-35046666D01*
X123017380Y-34808571D01*
X123065000Y-34713333D01*
X123112619Y-34665714D01*
X123207857Y-34618095D01*
X123303095Y-34618095D01*
X123445952Y-34665714D01*
X124017380Y-35237142D01*
X124017380Y-34618095D01*
X120207380Y-35094285D02*
X120207380Y-35665714D01*
X120207380Y-35380000D02*
X119207380Y-35380000D01*
X119350238Y-35475238D01*
X119445476Y-35570476D01*
X119493095Y-35665714D01*
X125557380Y-35141904D02*
X125557380Y-35618095D01*
X126033571Y-35665714D01*
X125985952Y-35618095D01*
X125938333Y-35522857D01*
X125938333Y-35284761D01*
X125985952Y-35189523D01*
X126033571Y-35141904D01*
X126128809Y-35094285D01*
X126366904Y-35094285D01*
X126462142Y-35141904D01*
X126509761Y-35189523D01*
X126557380Y-35284761D01*
X126557380Y-35522857D01*
X126509761Y-35618095D01*
X126462142Y-35665714D01*
X117937380Y-36189523D02*
X118937380Y-35522857D01*
X117937380Y-35522857D02*
X118937380Y-36189523D01*
X118937380Y-34618095D02*
X118937380Y-35189523D01*
X118937380Y-34903809D02*
X117937380Y-34903809D01*
X118080238Y-34999047D01*
X118175476Y-35094285D01*
X118223095Y-35189523D01*
X141225952Y-35475238D02*
X141178333Y-35570476D01*
X141130714Y-35618095D01*
X141035476Y-35665714D01*
X140987857Y-35665714D01*
X140892619Y-35618095D01*
X140845000Y-35570476D01*
X140797380Y-35475238D01*
X140797380Y-35284761D01*
X140845000Y-35189523D01*
X140892619Y-35141904D01*
X140987857Y-35094285D01*
X141035476Y-35094285D01*
X141130714Y-35141904D01*
X141178333Y-35189523D01*
X141225952Y-35284761D01*
X141225952Y-35475238D01*
X141273571Y-35570476D01*
X141321190Y-35618095D01*
X141416428Y-35665714D01*
X141606904Y-35665714D01*
X141702142Y-35618095D01*
X141749761Y-35570476D01*
X141797380Y-35475238D01*
X141797380Y-35284761D01*
X141749761Y-35189523D01*
X141702142Y-35141904D01*
X141606904Y-35094285D01*
X141416428Y-35094285D01*
X141321190Y-35141904D01*
X141273571Y-35189523D01*
X141225952Y-35284761D01*
%TO.C,SW1*%
X99166666Y-45734761D02*
X99309523Y-45782380D01*
X99547619Y-45782380D01*
X99642857Y-45734761D01*
X99690476Y-45687142D01*
X99738095Y-45591904D01*
X99738095Y-45496666D01*
X99690476Y-45401428D01*
X99642857Y-45353809D01*
X99547619Y-45306190D01*
X99357142Y-45258571D01*
X99261904Y-45210952D01*
X99214285Y-45163333D01*
X99166666Y-45068095D01*
X99166666Y-44972857D01*
X99214285Y-44877619D01*
X99261904Y-44830000D01*
X99357142Y-44782380D01*
X99595238Y-44782380D01*
X99738095Y-44830000D01*
X100071428Y-44782380D02*
X100309523Y-45782380D01*
X100500000Y-45068095D01*
X100690476Y-45782380D01*
X100928571Y-44782380D01*
X101833333Y-45782380D02*
X101261904Y-45782380D01*
X101547619Y-45782380D02*
X101547619Y-44782380D01*
X101452380Y-44925238D01*
X101357142Y-45020476D01*
X101261904Y-45068095D01*
%TO.C,R1*%
X88383333Y-36032380D02*
X88050000Y-35556190D01*
X87811904Y-36032380D02*
X87811904Y-35032380D01*
X88192857Y-35032380D01*
X88288095Y-35080000D01*
X88335714Y-35127619D01*
X88383333Y-35222857D01*
X88383333Y-35365714D01*
X88335714Y-35460952D01*
X88288095Y-35508571D01*
X88192857Y-35556190D01*
X87811904Y-35556190D01*
X89335714Y-36032380D02*
X88764285Y-36032380D01*
X89050000Y-36032380D02*
X89050000Y-35032380D01*
X88954761Y-35175238D01*
X88859523Y-35270476D01*
X88764285Y-35318095D01*
D12*
%TO.C,X1*%
X97814000Y-113150000D02*
X97970000Y-113150000D01*
X100130000Y-113150000D02*
X100286000Y-113150000D01*
X100285516Y-113150000D02*
G75*
G03*
X100128608Y-109917665I-1235516J1560000D01*
G01*
X97970163Y-110548870D02*
G75*
G03*
X97970000Y-112630961I1079837J-1041130D01*
G01*
X100130000Y-112630961D02*
G75*
G03*
X100129837Y-110548870I-1080000J1040961D01*
G01*
X97971392Y-109917665D02*
G75*
G03*
X97814484Y-113150000I1078608J-1672335D01*
G01*
%TO.C,XOR*%
X117215000Y-120270000D02*
X143885000Y-120270000D01*
X143885000Y-120270000D02*
X143885000Y-124985000D01*
X143885000Y-124985000D02*
X117215000Y-124985000D01*
X117215000Y-124985000D02*
X117215000Y-120270000D01*
%TO.C,74HC00*%
X81495000Y-111820000D02*
X63595000Y-111820000D01*
X63595000Y-111820000D02*
X63595000Y-113470000D01*
X63595000Y-117120000D02*
X81495000Y-117120000D01*
X63595000Y-115470000D02*
X63595000Y-117120000D01*
X81495000Y-117120000D02*
X81495000Y-111820000D01*
X63595000Y-115470000D02*
G75*
G03*
X63595000Y-113470000I0J1000000D01*
G01*
%TO.C,R3*%
X85680000Y-118380000D02*
X86630000Y-118380000D01*
X86630000Y-117460000D02*
X86630000Y-119300000D01*
X91420000Y-118380000D02*
X90470000Y-118380000D01*
X90470000Y-119300000D02*
X90470000Y-117460000D01*
X86630000Y-119300000D02*
X90470000Y-119300000D01*
X90470000Y-117460000D02*
X86630000Y-117460000D01*
%TO.C,SW2*%
X112900000Y-122430000D02*
X112900000Y-117930000D01*
X108900000Y-123680000D02*
X110400000Y-123680000D01*
X110400000Y-116680000D02*
X108900000Y-116680000D01*
X106400000Y-117930000D02*
X106400000Y-122430000D01*
%TO.C,X2*%
X103814000Y-113045000D02*
X103970000Y-113045000D01*
X106130000Y-113045000D02*
X106286000Y-113045000D01*
X106130000Y-112525961D02*
G75*
G03*
X106129837Y-110443870I-1080000J1040961D01*
G01*
X103970163Y-110443870D02*
G75*
G03*
X103970000Y-112525961I1079837J-1041130D01*
G01*
X103971392Y-109812665D02*
G75*
G03*
X103814484Y-113045000I1078608J-1672335D01*
G01*
X106285516Y-113045000D02*
G75*
G03*
X106128608Y-109812665I-1235516J1560000D01*
G01*
%TO.C,R2*%
X85680000Y-114480000D02*
X86630000Y-114480000D01*
X90470000Y-115400000D02*
X90470000Y-113560000D01*
X86630000Y-115400000D02*
X90470000Y-115400000D01*
X90470000Y-113560000D02*
X86630000Y-113560000D01*
X91420000Y-114480000D02*
X90470000Y-114480000D01*
X86630000Y-113560000D02*
X86630000Y-115400000D01*
%TO.C,SW1*%
X99700000Y-123680000D02*
X101200000Y-123680000D01*
X103700000Y-122430000D02*
X103700000Y-117930000D01*
X101200000Y-116680000D02*
X99700000Y-116680000D01*
X97200000Y-117930000D02*
X97200000Y-122430000D01*
%TO.C,OR*%
X117215000Y-109070000D02*
X143885000Y-109070000D01*
X143885000Y-109070000D02*
X143885000Y-113785000D01*
X143885000Y-113785000D02*
X117215000Y-113785000D01*
X117215000Y-113785000D02*
X117215000Y-109070000D01*
%TO.C,AND*%
X117215000Y-114622500D02*
X143885000Y-114622500D01*
X143885000Y-114622500D02*
X143885000Y-119337500D01*
X143885000Y-119337500D02*
X117215000Y-119337500D01*
X117215000Y-119337500D02*
X117215000Y-114622500D01*
%TO.C,Y*%
X112130000Y-113045000D02*
X112286000Y-113045000D01*
X109814000Y-113045000D02*
X109970000Y-113045000D01*
X109971392Y-109812665D02*
G75*
G03*
X109814484Y-113045000I1078608J-1672335D01*
G01*
X109970163Y-110443870D02*
G75*
G03*
X109970000Y-112525961I1079837J-1041130D01*
G01*
X112285516Y-113045000D02*
G75*
G03*
X112128608Y-109812665I-1235516J1560000D01*
G01*
X112130000Y-112525961D02*
G75*
G03*
X112129837Y-110443870I-1080000J1040961D01*
G01*
%TO.C,R1*%
X90470000Y-111500000D02*
X90470000Y-109660000D01*
X91420000Y-110580000D02*
X90470000Y-110580000D01*
X86630000Y-109660000D02*
X86630000Y-111500000D01*
X90470000Y-109660000D02*
X86630000Y-109660000D01*
X86630000Y-111500000D02*
X90470000Y-111500000D01*
X85680000Y-110580000D02*
X86630000Y-110580000D01*
%TO.C,X1*%
X97814000Y-88150000D02*
X97970000Y-88150000D01*
X100130000Y-88150000D02*
X100286000Y-88150000D01*
X100285516Y-88150000D02*
G75*
G03*
X100128608Y-84917665I-1235516J1560000D01*
G01*
X97970163Y-85548870D02*
G75*
G03*
X97970000Y-87630961I1079837J-1041130D01*
G01*
X100130000Y-87630961D02*
G75*
G03*
X100129837Y-85548870I-1080000J1040961D01*
G01*
X97971392Y-84917665D02*
G75*
G03*
X97814484Y-88150000I1078608J-1672335D01*
G01*
%TO.C,XOR*%
X117215000Y-95270000D02*
X143885000Y-95270000D01*
X143885000Y-95270000D02*
X143885000Y-99985000D01*
X143885000Y-99985000D02*
X117215000Y-99985000D01*
X117215000Y-99985000D02*
X117215000Y-95270000D01*
%TO.C,74HC00*%
X81495000Y-86820000D02*
X63595000Y-86820000D01*
X63595000Y-86820000D02*
X63595000Y-88470000D01*
X63595000Y-92120000D02*
X81495000Y-92120000D01*
X63595000Y-90470000D02*
X63595000Y-92120000D01*
X81495000Y-92120000D02*
X81495000Y-86820000D01*
X63595000Y-90470000D02*
G75*
G03*
X63595000Y-88470000I0J1000000D01*
G01*
%TO.C,R3*%
X85680000Y-93380000D02*
X86630000Y-93380000D01*
X86630000Y-92460000D02*
X86630000Y-94300000D01*
X91420000Y-93380000D02*
X90470000Y-93380000D01*
X90470000Y-94300000D02*
X90470000Y-92460000D01*
X86630000Y-94300000D02*
X90470000Y-94300000D01*
X90470000Y-92460000D02*
X86630000Y-92460000D01*
%TO.C,SW2*%
X112900000Y-97430000D02*
X112900000Y-92930000D01*
X108900000Y-98680000D02*
X110400000Y-98680000D01*
X110400000Y-91680000D02*
X108900000Y-91680000D01*
X106400000Y-92930000D02*
X106400000Y-97430000D01*
%TO.C,X2*%
X103814000Y-88045000D02*
X103970000Y-88045000D01*
X106130000Y-88045000D02*
X106286000Y-88045000D01*
X106130000Y-87525961D02*
G75*
G03*
X106129837Y-85443870I-1080000J1040961D01*
G01*
X103970163Y-85443870D02*
G75*
G03*
X103970000Y-87525961I1079837J-1041130D01*
G01*
X103971392Y-84812665D02*
G75*
G03*
X103814484Y-88045000I1078608J-1672335D01*
G01*
X106285516Y-88045000D02*
G75*
G03*
X106128608Y-84812665I-1235516J1560000D01*
G01*
%TO.C,R2*%
X85680000Y-89480000D02*
X86630000Y-89480000D01*
X90470000Y-90400000D02*
X90470000Y-88560000D01*
X86630000Y-90400000D02*
X90470000Y-90400000D01*
X90470000Y-88560000D02*
X86630000Y-88560000D01*
X91420000Y-89480000D02*
X90470000Y-89480000D01*
X86630000Y-88560000D02*
X86630000Y-90400000D01*
%TO.C,SW1*%
X99700000Y-98680000D02*
X101200000Y-98680000D01*
X103700000Y-97430000D02*
X103700000Y-92930000D01*
X101200000Y-91680000D02*
X99700000Y-91680000D01*
X97200000Y-92930000D02*
X97200000Y-97430000D01*
%TO.C,OR*%
X117215000Y-84070000D02*
X143885000Y-84070000D01*
X143885000Y-84070000D02*
X143885000Y-88785000D01*
X143885000Y-88785000D02*
X117215000Y-88785000D01*
X117215000Y-88785000D02*
X117215000Y-84070000D01*
%TO.C,AND*%
X117215000Y-89622500D02*
X143885000Y-89622500D01*
X143885000Y-89622500D02*
X143885000Y-94337500D01*
X143885000Y-94337500D02*
X117215000Y-94337500D01*
X117215000Y-94337500D02*
X117215000Y-89622500D01*
%TO.C,Y*%
X112130000Y-88045000D02*
X112286000Y-88045000D01*
X109814000Y-88045000D02*
X109970000Y-88045000D01*
X109971392Y-84812665D02*
G75*
G03*
X109814484Y-88045000I1078608J-1672335D01*
G01*
X109970163Y-85443870D02*
G75*
G03*
X109970000Y-87525961I1079837J-1041130D01*
G01*
X112285516Y-88045000D02*
G75*
G03*
X112128608Y-84812665I-1235516J1560000D01*
G01*
X112130000Y-87525961D02*
G75*
G03*
X112129837Y-85443870I-1080000J1040961D01*
G01*
%TO.C,R1*%
X90470000Y-86500000D02*
X90470000Y-84660000D01*
X91420000Y-85580000D02*
X90470000Y-85580000D01*
X86630000Y-84660000D02*
X86630000Y-86500000D01*
X90470000Y-84660000D02*
X86630000Y-84660000D01*
X86630000Y-86500000D02*
X90470000Y-86500000D01*
X85680000Y-85580000D02*
X86630000Y-85580000D01*
%TO.C,X1*%
X97814000Y-63150000D02*
X97970000Y-63150000D01*
X100130000Y-63150000D02*
X100286000Y-63150000D01*
X100285516Y-63150000D02*
G75*
G03*
X100128608Y-59917665I-1235516J1560000D01*
G01*
X97970163Y-60548870D02*
G75*
G03*
X97970000Y-62630961I1079837J-1041130D01*
G01*
X100130000Y-62630961D02*
G75*
G03*
X100129837Y-60548870I-1080000J1040961D01*
G01*
X97971392Y-59917665D02*
G75*
G03*
X97814484Y-63150000I1078608J-1672335D01*
G01*
%TO.C,XOR*%
X117215000Y-70270000D02*
X143885000Y-70270000D01*
X143885000Y-70270000D02*
X143885000Y-74985000D01*
X143885000Y-74985000D02*
X117215000Y-74985000D01*
X117215000Y-74985000D02*
X117215000Y-70270000D01*
%TO.C,74HC00*%
X81495000Y-61820000D02*
X63595000Y-61820000D01*
X63595000Y-61820000D02*
X63595000Y-63470000D01*
X63595000Y-67120000D02*
X81495000Y-67120000D01*
X63595000Y-65470000D02*
X63595000Y-67120000D01*
X81495000Y-67120000D02*
X81495000Y-61820000D01*
X63595000Y-65470000D02*
G75*
G03*
X63595000Y-63470000I0J1000000D01*
G01*
%TO.C,R3*%
X85680000Y-68380000D02*
X86630000Y-68380000D01*
X86630000Y-67460000D02*
X86630000Y-69300000D01*
X91420000Y-68380000D02*
X90470000Y-68380000D01*
X90470000Y-69300000D02*
X90470000Y-67460000D01*
X86630000Y-69300000D02*
X90470000Y-69300000D01*
X90470000Y-67460000D02*
X86630000Y-67460000D01*
%TO.C,SW2*%
X112900000Y-72430000D02*
X112900000Y-67930000D01*
X108900000Y-73680000D02*
X110400000Y-73680000D01*
X110400000Y-66680000D02*
X108900000Y-66680000D01*
X106400000Y-67930000D02*
X106400000Y-72430000D01*
%TO.C,X2*%
X103814000Y-63045000D02*
X103970000Y-63045000D01*
X106130000Y-63045000D02*
X106286000Y-63045000D01*
X106130000Y-62525961D02*
G75*
G03*
X106129837Y-60443870I-1080000J1040961D01*
G01*
X103970163Y-60443870D02*
G75*
G03*
X103970000Y-62525961I1079837J-1041130D01*
G01*
X103971392Y-59812665D02*
G75*
G03*
X103814484Y-63045000I1078608J-1672335D01*
G01*
X106285516Y-63045000D02*
G75*
G03*
X106128608Y-59812665I-1235516J1560000D01*
G01*
%TO.C,R2*%
X85680000Y-64480000D02*
X86630000Y-64480000D01*
X90470000Y-65400000D02*
X90470000Y-63560000D01*
X86630000Y-65400000D02*
X90470000Y-65400000D01*
X90470000Y-63560000D02*
X86630000Y-63560000D01*
X91420000Y-64480000D02*
X90470000Y-64480000D01*
X86630000Y-63560000D02*
X86630000Y-65400000D01*
%TO.C,SW1*%
X99700000Y-73680000D02*
X101200000Y-73680000D01*
X103700000Y-72430000D02*
X103700000Y-67930000D01*
X101200000Y-66680000D02*
X99700000Y-66680000D01*
X97200000Y-67930000D02*
X97200000Y-72430000D01*
%TO.C,OR*%
X117215000Y-59070000D02*
X143885000Y-59070000D01*
X143885000Y-59070000D02*
X143885000Y-63785000D01*
X143885000Y-63785000D02*
X117215000Y-63785000D01*
X117215000Y-63785000D02*
X117215000Y-59070000D01*
%TO.C,AND*%
X117215000Y-64622500D02*
X143885000Y-64622500D01*
X143885000Y-64622500D02*
X143885000Y-69337500D01*
X143885000Y-69337500D02*
X117215000Y-69337500D01*
X117215000Y-69337500D02*
X117215000Y-64622500D01*
%TO.C,Y*%
X112130000Y-63045000D02*
X112286000Y-63045000D01*
X109814000Y-63045000D02*
X109970000Y-63045000D01*
X109971392Y-59812665D02*
G75*
G03*
X109814484Y-63045000I1078608J-1672335D01*
G01*
X109970163Y-60443870D02*
G75*
G03*
X109970000Y-62525961I1079837J-1041130D01*
G01*
X112285516Y-63045000D02*
G75*
G03*
X112128608Y-59812665I-1235516J1560000D01*
G01*
X112130000Y-62525961D02*
G75*
G03*
X112129837Y-60443870I-1080000J1040961D01*
G01*
%TO.C,R1*%
X90470000Y-61500000D02*
X90470000Y-59660000D01*
X91420000Y-60580000D02*
X90470000Y-60580000D01*
X86630000Y-59660000D02*
X86630000Y-61500000D01*
X90470000Y-59660000D02*
X86630000Y-59660000D01*
X86630000Y-61500000D02*
X90470000Y-61500000D01*
X85680000Y-60580000D02*
X86630000Y-60580000D01*
%TO.C,X1*%
X97814000Y-38150000D02*
X97970000Y-38150000D01*
X100130000Y-38150000D02*
X100286000Y-38150000D01*
X100285516Y-38150000D02*
G75*
G03*
X100128608Y-34917665I-1235516J1560000D01*
G01*
X97970163Y-35548870D02*
G75*
G03*
X97970000Y-37630961I1079837J-1041130D01*
G01*
X100130000Y-37630961D02*
G75*
G03*
X100129837Y-35548870I-1080000J1040961D01*
G01*
X97971392Y-34917665D02*
G75*
G03*
X97814484Y-38150000I1078608J-1672335D01*
G01*
%TO.C,AND*%
X117215000Y-39622500D02*
X143885000Y-39622500D01*
X143885000Y-39622500D02*
X143885000Y-44337500D01*
X143885000Y-44337500D02*
X117215000Y-44337500D01*
X117215000Y-44337500D02*
X117215000Y-39622500D01*
%TO.C,X2*%
X103814000Y-38045000D02*
X103970000Y-38045000D01*
X106130000Y-38045000D02*
X106286000Y-38045000D01*
X106130000Y-37525961D02*
G75*
G03*
X106129837Y-35443870I-1080000J1040961D01*
G01*
X103970163Y-35443870D02*
G75*
G03*
X103970000Y-37525961I1079837J-1041130D01*
G01*
X103971392Y-34812665D02*
G75*
G03*
X103814484Y-38045000I1078608J-1672335D01*
G01*
X106285516Y-38045000D02*
G75*
G03*
X106128608Y-34812665I-1235516J1560000D01*
G01*
%TO.C,Y*%
X112130000Y-38045000D02*
X112286000Y-38045000D01*
X109814000Y-38045000D02*
X109970000Y-38045000D01*
X109971392Y-34812665D02*
G75*
G03*
X109814484Y-38045000I1078608J-1672335D01*
G01*
X109970163Y-35443870D02*
G75*
G03*
X109970000Y-37525961I1079837J-1041130D01*
G01*
X112285516Y-38045000D02*
G75*
G03*
X112128608Y-34812665I-1235516J1560000D01*
G01*
X112130000Y-37525961D02*
G75*
G03*
X112129837Y-35443870I-1080000J1040961D01*
G01*
%TO.C,R3*%
X85680000Y-43380000D02*
X86630000Y-43380000D01*
X86630000Y-42460000D02*
X86630000Y-44300000D01*
X91420000Y-43380000D02*
X90470000Y-43380000D01*
X90470000Y-44300000D02*
X90470000Y-42460000D01*
X86630000Y-44300000D02*
X90470000Y-44300000D01*
X90470000Y-42460000D02*
X86630000Y-42460000D01*
%TO.C,SW2*%
X112900000Y-47430000D02*
X112900000Y-42930000D01*
X108900000Y-48680000D02*
X110400000Y-48680000D01*
X110400000Y-41680000D02*
X108900000Y-41680000D01*
X106400000Y-42930000D02*
X106400000Y-47430000D01*
%TO.C,R2*%
X85680000Y-39480000D02*
X86630000Y-39480000D01*
X90470000Y-40400000D02*
X90470000Y-38560000D01*
X86630000Y-40400000D02*
X90470000Y-40400000D01*
X90470000Y-38560000D02*
X86630000Y-38560000D01*
X91420000Y-39480000D02*
X90470000Y-39480000D01*
X86630000Y-38560000D02*
X86630000Y-40400000D01*
%TO.C,74HC00*%
X81495000Y-36820000D02*
X63595000Y-36820000D01*
X63595000Y-36820000D02*
X63595000Y-38470000D01*
X63595000Y-42120000D02*
X81495000Y-42120000D01*
X63595000Y-40470000D02*
X63595000Y-42120000D01*
X81495000Y-42120000D02*
X81495000Y-36820000D01*
X63595000Y-40470000D02*
G75*
G03*
X63595000Y-38470000I0J1000000D01*
G01*
%TO.C,XOR*%
X117215000Y-45270000D02*
X143885000Y-45270000D01*
X143885000Y-45270000D02*
X143885000Y-49985000D01*
X143885000Y-49985000D02*
X117215000Y-49985000D01*
X117215000Y-49985000D02*
X117215000Y-45270000D01*
%TO.C,OR*%
X117215000Y-34070000D02*
X143885000Y-34070000D01*
X143885000Y-34070000D02*
X143885000Y-38785000D01*
X143885000Y-38785000D02*
X117215000Y-38785000D01*
X117215000Y-38785000D02*
X117215000Y-34070000D01*
%TO.C,SW1*%
X99700000Y-48680000D02*
X101200000Y-48680000D01*
X103700000Y-47430000D02*
X103700000Y-42930000D01*
X101200000Y-41680000D02*
X99700000Y-41680000D01*
X97200000Y-42930000D02*
X97200000Y-47430000D01*
%TO.C,R1*%
X90470000Y-36500000D02*
X90470000Y-34660000D01*
X91420000Y-35580000D02*
X90470000Y-35580000D01*
X86630000Y-34660000D02*
X86630000Y-36500000D01*
X90470000Y-34660000D02*
X86630000Y-34660000D01*
X86630000Y-36500000D02*
X90470000Y-36500000D01*
X85680000Y-35580000D02*
X86630000Y-35580000D01*
%TD*%
M02*
