%TF.GenerationSoftware,KiCad,Pcbnew,(6.0.10)*%
%TF.CreationDate,2023-09-25T09:30:20+09:00*%
%TF.ProjectId,simpleLogicCircuit,73696d70-6c65-44c6-9f67-696343697263,rev?*%
%TF.SameCoordinates,Original*%
%TF.FileFunction,Legend,Top*%
%TF.FilePolarity,Positive*%
%FSLAX46Y46*%
G04 Gerber Fmt 4.6, Leading zero omitted, Abs format (unit mm)*
G04 Created by KiCad (PCBNEW (6.0.10)) date 2023-09-25 09:30:20*
%MOMM*%
%LPD*%
G01*
G04 APERTURE LIST*
%ADD10C,0.150000*%
%ADD11C,0.120000*%
G04 APERTURE END LIST*
D10*
X47553619Y-121753714D02*
X47506000Y-121706095D01*
X47458380Y-121610857D01*
X47458380Y-121372761D01*
X47506000Y-121277523D01*
X47553619Y-121229904D01*
X47648857Y-121182285D01*
X47744095Y-121182285D01*
X47886952Y-121229904D01*
X48458380Y-121801333D01*
X48458380Y-121182285D01*
X52871714Y-121277523D02*
X53538380Y-121277523D01*
X52490761Y-121515619D02*
X53205047Y-121753714D01*
X53205047Y-121134666D01*
X49998380Y-121801333D02*
X49998380Y-121182285D01*
X50379333Y-121515619D01*
X50379333Y-121372761D01*
X50426952Y-121277523D01*
X50474571Y-121229904D01*
X50569809Y-121182285D01*
X50807904Y-121182285D01*
X50903142Y-121229904D01*
X50950761Y-121277523D01*
X50998380Y-121372761D01*
X50998380Y-121658476D01*
X50950761Y-121753714D01*
X50903142Y-121801333D01*
X58618380Y-110228476D02*
X58618380Y-110038000D01*
X58570761Y-109942761D01*
X58523142Y-109895142D01*
X58380285Y-109799904D01*
X58189809Y-109752285D01*
X57808857Y-109752285D01*
X57713619Y-109799904D01*
X57666000Y-109847523D01*
X57618380Y-109942761D01*
X57618380Y-110133238D01*
X57666000Y-110228476D01*
X57713619Y-110276095D01*
X57808857Y-110323714D01*
X58046952Y-110323714D01*
X58142190Y-110276095D01*
X58189809Y-110228476D01*
X58237428Y-110133238D01*
X58237428Y-109942761D01*
X58189809Y-109847523D01*
X58142190Y-109799904D01*
X58046952Y-109752285D01*
X32937380Y-118260952D02*
X33746904Y-118260952D01*
X33842142Y-118213333D01*
X33889761Y-118165714D01*
X33937380Y-118070476D01*
X33937380Y-117880000D01*
X33889761Y-117784761D01*
X33842142Y-117737142D01*
X33746904Y-117689523D01*
X32937380Y-117689523D01*
X33889761Y-117260952D02*
X33937380Y-117118095D01*
X33937380Y-116880000D01*
X33889761Y-116784761D01*
X33842142Y-116737142D01*
X33746904Y-116689523D01*
X33651666Y-116689523D01*
X33556428Y-116737142D01*
X33508809Y-116784761D01*
X33461190Y-116880000D01*
X33413571Y-117070476D01*
X33365952Y-117165714D01*
X33318333Y-117213333D01*
X33223095Y-117260952D01*
X33127857Y-117260952D01*
X33032619Y-117213333D01*
X32985000Y-117165714D01*
X32937380Y-117070476D01*
X32937380Y-116832380D01*
X32985000Y-116689523D01*
X33413571Y-115927619D02*
X33461190Y-115784761D01*
X33508809Y-115737142D01*
X33604047Y-115689523D01*
X33746904Y-115689523D01*
X33842142Y-115737142D01*
X33889761Y-115784761D01*
X33937380Y-115880000D01*
X33937380Y-116260952D01*
X32937380Y-116260952D01*
X32937380Y-115927619D01*
X32985000Y-115832380D01*
X33032619Y-115784761D01*
X33127857Y-115737142D01*
X33223095Y-115737142D01*
X33318333Y-115784761D01*
X33365952Y-115832380D01*
X33413571Y-115927619D01*
X33413571Y-116260952D01*
X33556428Y-115260952D02*
X33556428Y-114499047D01*
X33842142Y-113451428D02*
X33889761Y-113499047D01*
X33937380Y-113641904D01*
X33937380Y-113737142D01*
X33889761Y-113880000D01*
X33794523Y-113975238D01*
X33699285Y-114022857D01*
X33508809Y-114070476D01*
X33365952Y-114070476D01*
X33175476Y-114022857D01*
X33080238Y-113975238D01*
X32985000Y-113880000D01*
X32937380Y-113737142D01*
X32937380Y-113641904D01*
X32985000Y-113499047D01*
X33032619Y-113451428D01*
X35547380Y-117213333D02*
X34547380Y-117213333D01*
X34547380Y-116832380D01*
X34595000Y-116737142D01*
X34642619Y-116689523D01*
X34737857Y-116641904D01*
X34880714Y-116641904D01*
X34975952Y-116689523D01*
X35023571Y-116737142D01*
X35071190Y-116832380D01*
X35071190Y-117213333D01*
X34547380Y-116308571D02*
X35547380Y-116070476D01*
X34833095Y-115880000D01*
X35547380Y-115689523D01*
X34547380Y-115451428D01*
X35547380Y-114499047D02*
X35071190Y-114832380D01*
X35547380Y-115070476D02*
X34547380Y-115070476D01*
X34547380Y-114689523D01*
X34595000Y-114594285D01*
X34642619Y-114546666D01*
X34737857Y-114499047D01*
X34880714Y-114499047D01*
X34975952Y-114546666D01*
X35023571Y-114594285D01*
X35071190Y-114689523D01*
X35071190Y-115070476D01*
X79719047Y-108071428D02*
X80480952Y-108071428D01*
X80100000Y-108452380D02*
X80100000Y-107690476D01*
X53538380Y-110228476D02*
X53538380Y-110799904D01*
X53538380Y-110514190D02*
X52538380Y-110514190D01*
X52681238Y-110609428D01*
X52776476Y-110704666D01*
X52824095Y-110799904D01*
X53538380Y-109276095D02*
X53538380Y-109847523D01*
X53538380Y-109561809D02*
X52538380Y-109561809D01*
X52681238Y-109657047D01*
X52776476Y-109752285D01*
X52824095Y-109847523D01*
X50998380Y-110228476D02*
X50998380Y-110799904D01*
X50998380Y-110514190D02*
X49998380Y-110514190D01*
X50141238Y-110609428D01*
X50236476Y-110704666D01*
X50284095Y-110799904D01*
X50093619Y-109847523D02*
X50046000Y-109799904D01*
X49998380Y-109704666D01*
X49998380Y-109466571D01*
X50046000Y-109371333D01*
X50093619Y-109323714D01*
X50188857Y-109276095D01*
X50284095Y-109276095D01*
X50426952Y-109323714D01*
X50998380Y-109895142D01*
X50998380Y-109276095D01*
X60158380Y-121801333D02*
X60158380Y-121134666D01*
X61158380Y-121563238D01*
X55078380Y-121229904D02*
X55078380Y-121706095D01*
X55554571Y-121753714D01*
X55506952Y-121706095D01*
X55459333Y-121610857D01*
X55459333Y-121372761D01*
X55506952Y-121277523D01*
X55554571Y-121229904D01*
X55649809Y-121182285D01*
X55887904Y-121182285D01*
X55983142Y-121229904D01*
X56030761Y-121277523D01*
X56078380Y-121372761D01*
X56078380Y-121610857D01*
X56030761Y-121706095D01*
X55983142Y-121753714D01*
X86219047Y-108071428D02*
X86980952Y-108071428D01*
X86600000Y-108452380D02*
X86600000Y-107690476D01*
X57618380Y-121277523D02*
X57618380Y-121468000D01*
X57666000Y-121563238D01*
X57713619Y-121610857D01*
X57856476Y-121706095D01*
X58046952Y-121753714D01*
X58427904Y-121753714D01*
X58523142Y-121706095D01*
X58570761Y-121658476D01*
X58618380Y-121563238D01*
X58618380Y-121372761D01*
X58570761Y-121277523D01*
X58523142Y-121229904D01*
X58427904Y-121182285D01*
X58189809Y-121182285D01*
X58094571Y-121229904D01*
X58046952Y-121277523D01*
X57999333Y-121372761D01*
X57999333Y-121563238D01*
X58046952Y-121658476D01*
X58094571Y-121706095D01*
X58189809Y-121753714D01*
X56078380Y-110228476D02*
X56078380Y-110799904D01*
X56078380Y-110514190D02*
X55078380Y-110514190D01*
X55221238Y-110609428D01*
X55316476Y-110704666D01*
X55364095Y-110799904D01*
X55078380Y-109609428D02*
X55078380Y-109514190D01*
X55126000Y-109418952D01*
X55173619Y-109371333D01*
X55268857Y-109323714D01*
X55459333Y-109276095D01*
X55697428Y-109276095D01*
X55887904Y-109323714D01*
X55983142Y-109371333D01*
X56030761Y-109418952D01*
X56078380Y-109514190D01*
X56078380Y-109609428D01*
X56030761Y-109704666D01*
X55983142Y-109752285D01*
X55887904Y-109799904D01*
X55697428Y-109847523D01*
X55459333Y-109847523D01*
X55268857Y-109799904D01*
X55173619Y-109752285D01*
X55126000Y-109704666D01*
X55078380Y-109609428D01*
X60586952Y-110133238D02*
X60539333Y-110228476D01*
X60491714Y-110276095D01*
X60396476Y-110323714D01*
X60348857Y-110323714D01*
X60253619Y-110276095D01*
X60206000Y-110228476D01*
X60158380Y-110133238D01*
X60158380Y-109942761D01*
X60206000Y-109847523D01*
X60253619Y-109799904D01*
X60348857Y-109752285D01*
X60396476Y-109752285D01*
X60491714Y-109799904D01*
X60539333Y-109847523D01*
X60586952Y-109942761D01*
X60586952Y-110133238D01*
X60634571Y-110228476D01*
X60682190Y-110276095D01*
X60777428Y-110323714D01*
X60967904Y-110323714D01*
X61063142Y-110276095D01*
X61110761Y-110228476D01*
X61158380Y-110133238D01*
X61158380Y-109942761D01*
X61110761Y-109847523D01*
X61063142Y-109799904D01*
X60967904Y-109752285D01*
X60777428Y-109752285D01*
X60682190Y-109799904D01*
X60634571Y-109847523D01*
X60586952Y-109942761D01*
X45918380Y-121182285D02*
X45918380Y-121753714D01*
X45918380Y-121468000D02*
X44918380Y-121468000D01*
X45061238Y-121563238D01*
X45156476Y-121658476D01*
X45204095Y-121753714D01*
X92819047Y-108071428D02*
X93580952Y-108071428D01*
X93200000Y-108452380D02*
X93200000Y-107690476D01*
X45918380Y-110228476D02*
X45918380Y-110799904D01*
X45918380Y-110514190D02*
X44918380Y-110514190D01*
X45061238Y-110609428D01*
X45156476Y-110704666D01*
X45204095Y-110799904D01*
X45251714Y-109371333D02*
X45918380Y-109371333D01*
X44870761Y-109609428D02*
X45585047Y-109847523D01*
X45585047Y-109228476D01*
X48204380Y-110228476D02*
X48204380Y-110799904D01*
X48204380Y-110514190D02*
X47204380Y-110514190D01*
X47347238Y-110609428D01*
X47442476Y-110704666D01*
X47490095Y-110799904D01*
X47204380Y-109895142D02*
X47204380Y-109276095D01*
X47585333Y-109609428D01*
X47585333Y-109466571D01*
X47632952Y-109371333D01*
X47680571Y-109323714D01*
X47775809Y-109276095D01*
X48013904Y-109276095D01*
X48109142Y-109323714D01*
X48156761Y-109371333D01*
X48204380Y-109466571D01*
X48204380Y-109752285D01*
X48156761Y-109847523D01*
X48109142Y-109895142D01*
X44611785Y-123847380D02*
X44135595Y-123847380D01*
X44135595Y-122847380D01*
X45087976Y-123847380D02*
X44992738Y-123799761D01*
X44945119Y-123752142D01*
X44897500Y-123656904D01*
X44897500Y-123371190D01*
X44945119Y-123275952D01*
X44992738Y-123228333D01*
X45087976Y-123180714D01*
X45230833Y-123180714D01*
X45326071Y-123228333D01*
X45373690Y-123275952D01*
X45421309Y-123371190D01*
X45421309Y-123656904D01*
X45373690Y-123752142D01*
X45326071Y-123799761D01*
X45230833Y-123847380D01*
X45087976Y-123847380D01*
X46278452Y-123180714D02*
X46278452Y-123990238D01*
X46230833Y-124085476D01*
X46183214Y-124133095D01*
X46087976Y-124180714D01*
X45945119Y-124180714D01*
X45849880Y-124133095D01*
X46278452Y-123799761D02*
X46183214Y-123847380D01*
X45992738Y-123847380D01*
X45897500Y-123799761D01*
X45849880Y-123752142D01*
X45802261Y-123656904D01*
X45802261Y-123371190D01*
X45849880Y-123275952D01*
X45897500Y-123228333D01*
X45992738Y-123180714D01*
X46183214Y-123180714D01*
X46278452Y-123228333D01*
X46754642Y-123847380D02*
X46754642Y-123180714D01*
X46754642Y-122847380D02*
X46707023Y-122895000D01*
X46754642Y-122942619D01*
X46802261Y-122895000D01*
X46754642Y-122847380D01*
X46754642Y-122942619D01*
X47659404Y-123799761D02*
X47564166Y-123847380D01*
X47373690Y-123847380D01*
X47278452Y-123799761D01*
X47230833Y-123752142D01*
X47183214Y-123656904D01*
X47183214Y-123371190D01*
X47230833Y-123275952D01*
X47278452Y-123228333D01*
X47373690Y-123180714D01*
X47564166Y-123180714D01*
X47659404Y-123228333D01*
X49373690Y-122895000D02*
X49278452Y-122847380D01*
X49135595Y-122847380D01*
X48992738Y-122895000D01*
X48897500Y-122990238D01*
X48849880Y-123085476D01*
X48802261Y-123275952D01*
X48802261Y-123418809D01*
X48849880Y-123609285D01*
X48897500Y-123704523D01*
X48992738Y-123799761D01*
X49135595Y-123847380D01*
X49230833Y-123847380D01*
X49373690Y-123799761D01*
X49421309Y-123752142D01*
X49421309Y-123418809D01*
X49230833Y-123418809D01*
X50278452Y-123847380D02*
X50278452Y-123323571D01*
X50230833Y-123228333D01*
X50135595Y-123180714D01*
X49945119Y-123180714D01*
X49849880Y-123228333D01*
X50278452Y-123799761D02*
X50183214Y-123847380D01*
X49945119Y-123847380D01*
X49849880Y-123799761D01*
X49802261Y-123704523D01*
X49802261Y-123609285D01*
X49849880Y-123514047D01*
X49945119Y-123466428D01*
X50183214Y-123466428D01*
X50278452Y-123418809D01*
X50611785Y-123180714D02*
X50992738Y-123180714D01*
X50754642Y-122847380D02*
X50754642Y-123704523D01*
X50802261Y-123799761D01*
X50897500Y-123847380D01*
X50992738Y-123847380D01*
X51707023Y-123799761D02*
X51611785Y-123847380D01*
X51421309Y-123847380D01*
X51326071Y-123799761D01*
X51278452Y-123704523D01*
X51278452Y-123323571D01*
X51326071Y-123228333D01*
X51421309Y-123180714D01*
X51611785Y-123180714D01*
X51707023Y-123228333D01*
X51754642Y-123323571D01*
X51754642Y-123418809D01*
X51278452Y-123514047D01*
X53516547Y-123847380D02*
X53183214Y-123371190D01*
X52945119Y-123847380D02*
X52945119Y-122847380D01*
X53326071Y-122847380D01*
X53421309Y-122895000D01*
X53468928Y-122942619D01*
X53516547Y-123037857D01*
X53516547Y-123180714D01*
X53468928Y-123275952D01*
X53421309Y-123323571D01*
X53326071Y-123371190D01*
X52945119Y-123371190D01*
X54373690Y-123180714D02*
X54373690Y-123847380D01*
X53945119Y-123180714D02*
X53945119Y-123704523D01*
X53992738Y-123799761D01*
X54087976Y-123847380D01*
X54230833Y-123847380D01*
X54326071Y-123799761D01*
X54373690Y-123752142D01*
X54992738Y-123847380D02*
X54897500Y-123799761D01*
X54849880Y-123704523D01*
X54849880Y-122847380D01*
X55754642Y-123799761D02*
X55659404Y-123847380D01*
X55468928Y-123847380D01*
X55373690Y-123799761D01*
X55326071Y-123704523D01*
X55326071Y-123323571D01*
X55373690Y-123228333D01*
X55468928Y-123180714D01*
X55659404Y-123180714D01*
X55754642Y-123228333D01*
X55802261Y-123323571D01*
X55802261Y-123418809D01*
X55326071Y-123514047D01*
X56230833Y-123847380D02*
X56230833Y-123180714D01*
X56230833Y-123371190D02*
X56278452Y-123275952D01*
X56326071Y-123228333D01*
X56421309Y-123180714D01*
X56516547Y-123180714D01*
X57516547Y-123180714D02*
X57754642Y-123847380D01*
X57992738Y-123180714D01*
X58897500Y-123847380D02*
X58326071Y-123847380D01*
X58611785Y-123847380D02*
X58611785Y-122847380D01*
X58516547Y-122990238D01*
X58421309Y-123085476D01*
X58326071Y-123133095D01*
X59326071Y-123752142D02*
X59373690Y-123799761D01*
X59326071Y-123847380D01*
X59278452Y-123799761D01*
X59326071Y-123752142D01*
X59326071Y-123847380D01*
X59992738Y-122847380D02*
X60087976Y-122847380D01*
X60183214Y-122895000D01*
X60230833Y-122942619D01*
X60278452Y-123037857D01*
X60326071Y-123228333D01*
X60326071Y-123466428D01*
X60278452Y-123656904D01*
X60230833Y-123752142D01*
X60183214Y-123799761D01*
X60087976Y-123847380D01*
X59992738Y-123847380D01*
X59897500Y-123799761D01*
X59849880Y-123752142D01*
X59802261Y-123656904D01*
X59754642Y-123466428D01*
X59754642Y-123228333D01*
X59802261Y-123037857D01*
X59849880Y-122942619D01*
X59897500Y-122895000D01*
X59992738Y-122847380D01*
X44135595Y-125457380D02*
X44135595Y-124457380D01*
X44373690Y-124457380D01*
X44516547Y-124505000D01*
X44611785Y-124600238D01*
X44659404Y-124695476D01*
X44707023Y-124885952D01*
X44707023Y-125028809D01*
X44659404Y-125219285D01*
X44611785Y-125314523D01*
X44516547Y-125409761D01*
X44373690Y-125457380D01*
X44135595Y-125457380D01*
X45516547Y-125409761D02*
X45421309Y-125457380D01*
X45230833Y-125457380D01*
X45135595Y-125409761D01*
X45087976Y-125314523D01*
X45087976Y-124933571D01*
X45135595Y-124838333D01*
X45230833Y-124790714D01*
X45421309Y-124790714D01*
X45516547Y-124838333D01*
X45564166Y-124933571D01*
X45564166Y-125028809D01*
X45087976Y-125124047D01*
X45945119Y-125409761D02*
X46040357Y-125457380D01*
X46230833Y-125457380D01*
X46326071Y-125409761D01*
X46373690Y-125314523D01*
X46373690Y-125266904D01*
X46326071Y-125171666D01*
X46230833Y-125124047D01*
X46087976Y-125124047D01*
X45992738Y-125076428D01*
X45945119Y-124981190D01*
X45945119Y-124933571D01*
X45992738Y-124838333D01*
X46087976Y-124790714D01*
X46230833Y-124790714D01*
X46326071Y-124838333D01*
X46802261Y-125457380D02*
X46802261Y-124790714D01*
X46802261Y-124457380D02*
X46754642Y-124505000D01*
X46802261Y-124552619D01*
X46849880Y-124505000D01*
X46802261Y-124457380D01*
X46802261Y-124552619D01*
X47707023Y-124790714D02*
X47707023Y-125600238D01*
X47659404Y-125695476D01*
X47611785Y-125743095D01*
X47516547Y-125790714D01*
X47373690Y-125790714D01*
X47278452Y-125743095D01*
X47707023Y-125409761D02*
X47611785Y-125457380D01*
X47421309Y-125457380D01*
X47326071Y-125409761D01*
X47278452Y-125362142D01*
X47230833Y-125266904D01*
X47230833Y-124981190D01*
X47278452Y-124885952D01*
X47326071Y-124838333D01*
X47421309Y-124790714D01*
X47611785Y-124790714D01*
X47707023Y-124838333D01*
X48183214Y-124790714D02*
X48183214Y-125457380D01*
X48183214Y-124885952D02*
X48230833Y-124838333D01*
X48326071Y-124790714D01*
X48468928Y-124790714D01*
X48564166Y-124838333D01*
X48611785Y-124933571D01*
X48611785Y-125457380D01*
X49468928Y-125409761D02*
X49373690Y-125457380D01*
X49183214Y-125457380D01*
X49087976Y-125409761D01*
X49040357Y-125314523D01*
X49040357Y-124933571D01*
X49087976Y-124838333D01*
X49183214Y-124790714D01*
X49373690Y-124790714D01*
X49468928Y-124838333D01*
X49516547Y-124933571D01*
X49516547Y-125028809D01*
X49040357Y-125124047D01*
X50373690Y-125457380D02*
X50373690Y-124457380D01*
X50373690Y-125409761D02*
X50278452Y-125457380D01*
X50087976Y-125457380D01*
X49992738Y-125409761D01*
X49945119Y-125362142D01*
X49897500Y-125266904D01*
X49897500Y-124981190D01*
X49945119Y-124885952D01*
X49992738Y-124838333D01*
X50087976Y-124790714D01*
X50278452Y-124790714D01*
X50373690Y-124838333D01*
X51611785Y-125457380D02*
X51611785Y-124457380D01*
X51611785Y-124838333D02*
X51707023Y-124790714D01*
X51897500Y-124790714D01*
X51992738Y-124838333D01*
X52040357Y-124885952D01*
X52087976Y-124981190D01*
X52087976Y-125266904D01*
X52040357Y-125362142D01*
X51992738Y-125409761D01*
X51897500Y-125457380D01*
X51707023Y-125457380D01*
X51611785Y-125409761D01*
X52421309Y-124790714D02*
X52659404Y-125457380D01*
X52897500Y-124790714D02*
X52659404Y-125457380D01*
X52564166Y-125695476D01*
X52516547Y-125743095D01*
X52421309Y-125790714D01*
X54040357Y-125457380D02*
X54040357Y-124457380D01*
X54373690Y-125171666D01*
X54707023Y-124457380D01*
X54707023Y-125457380D01*
X55183214Y-125457380D02*
X55183214Y-124457380D01*
X56135595Y-125457380D02*
X55659404Y-125457380D01*
X55659404Y-124457380D01*
X56897500Y-125457380D02*
X56897500Y-124933571D01*
X56849880Y-124838333D01*
X56754642Y-124790714D01*
X56564166Y-124790714D01*
X56468928Y-124838333D01*
X56897500Y-125409761D02*
X56802261Y-125457380D01*
X56564166Y-125457380D01*
X56468928Y-125409761D01*
X56421309Y-125314523D01*
X56421309Y-125219285D01*
X56468928Y-125124047D01*
X56564166Y-125076428D01*
X56802261Y-125076428D01*
X56897500Y-125028809D01*
X57373690Y-125457380D02*
X57373690Y-124457380D01*
X57373690Y-124838333D02*
X57468928Y-124790714D01*
X57659404Y-124790714D01*
X57754642Y-124838333D01*
X57802261Y-124885952D01*
X57849880Y-124981190D01*
X57849880Y-125266904D01*
X57802261Y-125362142D01*
X57754642Y-125409761D01*
X57659404Y-125457380D01*
X57468928Y-125457380D01*
X57373690Y-125409761D01*
X58992738Y-124552619D02*
X59040357Y-124505000D01*
X59135595Y-124457380D01*
X59373690Y-124457380D01*
X59468928Y-124505000D01*
X59516547Y-124552619D01*
X59564166Y-124647857D01*
X59564166Y-124743095D01*
X59516547Y-124885952D01*
X58945119Y-125457380D01*
X59564166Y-125457380D01*
X60183214Y-124457380D02*
X60278452Y-124457380D01*
X60373690Y-124505000D01*
X60421309Y-124552619D01*
X60468928Y-124647857D01*
X60516547Y-124838333D01*
X60516547Y-125076428D01*
X60468928Y-125266904D01*
X60421309Y-125362142D01*
X60373690Y-125409761D01*
X60278452Y-125457380D01*
X60183214Y-125457380D01*
X60087976Y-125409761D01*
X60040357Y-125362142D01*
X59992738Y-125266904D01*
X59945119Y-125076428D01*
X59945119Y-124838333D01*
X59992738Y-124647857D01*
X60040357Y-124552619D01*
X60087976Y-124505000D01*
X60183214Y-124457380D01*
X60897500Y-124552619D02*
X60945119Y-124505000D01*
X61040357Y-124457380D01*
X61278452Y-124457380D01*
X61373690Y-124505000D01*
X61421309Y-124552619D01*
X61468928Y-124647857D01*
X61468928Y-124743095D01*
X61421309Y-124885952D01*
X60849880Y-125457380D01*
X61468928Y-125457380D01*
X61802261Y-124457380D02*
X62421309Y-124457380D01*
X62087976Y-124838333D01*
X62230833Y-124838333D01*
X62326071Y-124885952D01*
X62373690Y-124933571D01*
X62421309Y-125028809D01*
X62421309Y-125266904D01*
X62373690Y-125362142D01*
X62326071Y-125409761D01*
X62230833Y-125457380D01*
X61945119Y-125457380D01*
X61849880Y-125409761D01*
X61802261Y-125362142D01*
X47553619Y-91753714D02*
X47506000Y-91706095D01*
X47458380Y-91610857D01*
X47458380Y-91372761D01*
X47506000Y-91277523D01*
X47553619Y-91229904D01*
X47648857Y-91182285D01*
X47744095Y-91182285D01*
X47886952Y-91229904D01*
X48458380Y-91801333D01*
X48458380Y-91182285D01*
X52871714Y-91277523D02*
X53538380Y-91277523D01*
X52490761Y-91515619D02*
X53205047Y-91753714D01*
X53205047Y-91134666D01*
X49998380Y-91801333D02*
X49998380Y-91182285D01*
X50379333Y-91515619D01*
X50379333Y-91372761D01*
X50426952Y-91277523D01*
X50474571Y-91229904D01*
X50569809Y-91182285D01*
X50807904Y-91182285D01*
X50903142Y-91229904D01*
X50950761Y-91277523D01*
X50998380Y-91372761D01*
X50998380Y-91658476D01*
X50950761Y-91753714D01*
X50903142Y-91801333D01*
X58618380Y-80228476D02*
X58618380Y-80038000D01*
X58570761Y-79942761D01*
X58523142Y-79895142D01*
X58380285Y-79799904D01*
X58189809Y-79752285D01*
X57808857Y-79752285D01*
X57713619Y-79799904D01*
X57666000Y-79847523D01*
X57618380Y-79942761D01*
X57618380Y-80133238D01*
X57666000Y-80228476D01*
X57713619Y-80276095D01*
X57808857Y-80323714D01*
X58046952Y-80323714D01*
X58142190Y-80276095D01*
X58189809Y-80228476D01*
X58237428Y-80133238D01*
X58237428Y-79942761D01*
X58189809Y-79847523D01*
X58142190Y-79799904D01*
X58046952Y-79752285D01*
X32937380Y-88260952D02*
X33746904Y-88260952D01*
X33842142Y-88213333D01*
X33889761Y-88165714D01*
X33937380Y-88070476D01*
X33937380Y-87880000D01*
X33889761Y-87784761D01*
X33842142Y-87737142D01*
X33746904Y-87689523D01*
X32937380Y-87689523D01*
X33889761Y-87260952D02*
X33937380Y-87118095D01*
X33937380Y-86880000D01*
X33889761Y-86784761D01*
X33842142Y-86737142D01*
X33746904Y-86689523D01*
X33651666Y-86689523D01*
X33556428Y-86737142D01*
X33508809Y-86784761D01*
X33461190Y-86880000D01*
X33413571Y-87070476D01*
X33365952Y-87165714D01*
X33318333Y-87213333D01*
X33223095Y-87260952D01*
X33127857Y-87260952D01*
X33032619Y-87213333D01*
X32985000Y-87165714D01*
X32937380Y-87070476D01*
X32937380Y-86832380D01*
X32985000Y-86689523D01*
X33413571Y-85927619D02*
X33461190Y-85784761D01*
X33508809Y-85737142D01*
X33604047Y-85689523D01*
X33746904Y-85689523D01*
X33842142Y-85737142D01*
X33889761Y-85784761D01*
X33937380Y-85880000D01*
X33937380Y-86260952D01*
X32937380Y-86260952D01*
X32937380Y-85927619D01*
X32985000Y-85832380D01*
X33032619Y-85784761D01*
X33127857Y-85737142D01*
X33223095Y-85737142D01*
X33318333Y-85784761D01*
X33365952Y-85832380D01*
X33413571Y-85927619D01*
X33413571Y-86260952D01*
X33556428Y-85260952D02*
X33556428Y-84499047D01*
X33842142Y-83451428D02*
X33889761Y-83499047D01*
X33937380Y-83641904D01*
X33937380Y-83737142D01*
X33889761Y-83880000D01*
X33794523Y-83975238D01*
X33699285Y-84022857D01*
X33508809Y-84070476D01*
X33365952Y-84070476D01*
X33175476Y-84022857D01*
X33080238Y-83975238D01*
X32985000Y-83880000D01*
X32937380Y-83737142D01*
X32937380Y-83641904D01*
X32985000Y-83499047D01*
X33032619Y-83451428D01*
X35547380Y-87213333D02*
X34547380Y-87213333D01*
X34547380Y-86832380D01*
X34595000Y-86737142D01*
X34642619Y-86689523D01*
X34737857Y-86641904D01*
X34880714Y-86641904D01*
X34975952Y-86689523D01*
X35023571Y-86737142D01*
X35071190Y-86832380D01*
X35071190Y-87213333D01*
X34547380Y-86308571D02*
X35547380Y-86070476D01*
X34833095Y-85880000D01*
X35547380Y-85689523D01*
X34547380Y-85451428D01*
X35547380Y-84499047D02*
X35071190Y-84832380D01*
X35547380Y-85070476D02*
X34547380Y-85070476D01*
X34547380Y-84689523D01*
X34595000Y-84594285D01*
X34642619Y-84546666D01*
X34737857Y-84499047D01*
X34880714Y-84499047D01*
X34975952Y-84546666D01*
X35023571Y-84594285D01*
X35071190Y-84689523D01*
X35071190Y-85070476D01*
X79719047Y-78071428D02*
X80480952Y-78071428D01*
X80100000Y-78452380D02*
X80100000Y-77690476D01*
X53538380Y-80228476D02*
X53538380Y-80799904D01*
X53538380Y-80514190D02*
X52538380Y-80514190D01*
X52681238Y-80609428D01*
X52776476Y-80704666D01*
X52824095Y-80799904D01*
X53538380Y-79276095D02*
X53538380Y-79847523D01*
X53538380Y-79561809D02*
X52538380Y-79561809D01*
X52681238Y-79657047D01*
X52776476Y-79752285D01*
X52824095Y-79847523D01*
X50998380Y-80228476D02*
X50998380Y-80799904D01*
X50998380Y-80514190D02*
X49998380Y-80514190D01*
X50141238Y-80609428D01*
X50236476Y-80704666D01*
X50284095Y-80799904D01*
X50093619Y-79847523D02*
X50046000Y-79799904D01*
X49998380Y-79704666D01*
X49998380Y-79466571D01*
X50046000Y-79371333D01*
X50093619Y-79323714D01*
X50188857Y-79276095D01*
X50284095Y-79276095D01*
X50426952Y-79323714D01*
X50998380Y-79895142D01*
X50998380Y-79276095D01*
X60158380Y-91801333D02*
X60158380Y-91134666D01*
X61158380Y-91563238D01*
X55078380Y-91229904D02*
X55078380Y-91706095D01*
X55554571Y-91753714D01*
X55506952Y-91706095D01*
X55459333Y-91610857D01*
X55459333Y-91372761D01*
X55506952Y-91277523D01*
X55554571Y-91229904D01*
X55649809Y-91182285D01*
X55887904Y-91182285D01*
X55983142Y-91229904D01*
X56030761Y-91277523D01*
X56078380Y-91372761D01*
X56078380Y-91610857D01*
X56030761Y-91706095D01*
X55983142Y-91753714D01*
X86219047Y-78071428D02*
X86980952Y-78071428D01*
X86600000Y-78452380D02*
X86600000Y-77690476D01*
X57618380Y-91277523D02*
X57618380Y-91468000D01*
X57666000Y-91563238D01*
X57713619Y-91610857D01*
X57856476Y-91706095D01*
X58046952Y-91753714D01*
X58427904Y-91753714D01*
X58523142Y-91706095D01*
X58570761Y-91658476D01*
X58618380Y-91563238D01*
X58618380Y-91372761D01*
X58570761Y-91277523D01*
X58523142Y-91229904D01*
X58427904Y-91182285D01*
X58189809Y-91182285D01*
X58094571Y-91229904D01*
X58046952Y-91277523D01*
X57999333Y-91372761D01*
X57999333Y-91563238D01*
X58046952Y-91658476D01*
X58094571Y-91706095D01*
X58189809Y-91753714D01*
X56078380Y-80228476D02*
X56078380Y-80799904D01*
X56078380Y-80514190D02*
X55078380Y-80514190D01*
X55221238Y-80609428D01*
X55316476Y-80704666D01*
X55364095Y-80799904D01*
X55078380Y-79609428D02*
X55078380Y-79514190D01*
X55126000Y-79418952D01*
X55173619Y-79371333D01*
X55268857Y-79323714D01*
X55459333Y-79276095D01*
X55697428Y-79276095D01*
X55887904Y-79323714D01*
X55983142Y-79371333D01*
X56030761Y-79418952D01*
X56078380Y-79514190D01*
X56078380Y-79609428D01*
X56030761Y-79704666D01*
X55983142Y-79752285D01*
X55887904Y-79799904D01*
X55697428Y-79847523D01*
X55459333Y-79847523D01*
X55268857Y-79799904D01*
X55173619Y-79752285D01*
X55126000Y-79704666D01*
X55078380Y-79609428D01*
X60586952Y-80133238D02*
X60539333Y-80228476D01*
X60491714Y-80276095D01*
X60396476Y-80323714D01*
X60348857Y-80323714D01*
X60253619Y-80276095D01*
X60206000Y-80228476D01*
X60158380Y-80133238D01*
X60158380Y-79942761D01*
X60206000Y-79847523D01*
X60253619Y-79799904D01*
X60348857Y-79752285D01*
X60396476Y-79752285D01*
X60491714Y-79799904D01*
X60539333Y-79847523D01*
X60586952Y-79942761D01*
X60586952Y-80133238D01*
X60634571Y-80228476D01*
X60682190Y-80276095D01*
X60777428Y-80323714D01*
X60967904Y-80323714D01*
X61063142Y-80276095D01*
X61110761Y-80228476D01*
X61158380Y-80133238D01*
X61158380Y-79942761D01*
X61110761Y-79847523D01*
X61063142Y-79799904D01*
X60967904Y-79752285D01*
X60777428Y-79752285D01*
X60682190Y-79799904D01*
X60634571Y-79847523D01*
X60586952Y-79942761D01*
X45918380Y-91182285D02*
X45918380Y-91753714D01*
X45918380Y-91468000D02*
X44918380Y-91468000D01*
X45061238Y-91563238D01*
X45156476Y-91658476D01*
X45204095Y-91753714D01*
X92819047Y-78071428D02*
X93580952Y-78071428D01*
X93200000Y-78452380D02*
X93200000Y-77690476D01*
X45918380Y-80228476D02*
X45918380Y-80799904D01*
X45918380Y-80514190D02*
X44918380Y-80514190D01*
X45061238Y-80609428D01*
X45156476Y-80704666D01*
X45204095Y-80799904D01*
X45251714Y-79371333D02*
X45918380Y-79371333D01*
X44870761Y-79609428D02*
X45585047Y-79847523D01*
X45585047Y-79228476D01*
X48204380Y-80228476D02*
X48204380Y-80799904D01*
X48204380Y-80514190D02*
X47204380Y-80514190D01*
X47347238Y-80609428D01*
X47442476Y-80704666D01*
X47490095Y-80799904D01*
X47204380Y-79895142D02*
X47204380Y-79276095D01*
X47585333Y-79609428D01*
X47585333Y-79466571D01*
X47632952Y-79371333D01*
X47680571Y-79323714D01*
X47775809Y-79276095D01*
X48013904Y-79276095D01*
X48109142Y-79323714D01*
X48156761Y-79371333D01*
X48204380Y-79466571D01*
X48204380Y-79752285D01*
X48156761Y-79847523D01*
X48109142Y-79895142D01*
X44611785Y-93847380D02*
X44135595Y-93847380D01*
X44135595Y-92847380D01*
X45087976Y-93847380D02*
X44992738Y-93799761D01*
X44945119Y-93752142D01*
X44897500Y-93656904D01*
X44897500Y-93371190D01*
X44945119Y-93275952D01*
X44992738Y-93228333D01*
X45087976Y-93180714D01*
X45230833Y-93180714D01*
X45326071Y-93228333D01*
X45373690Y-93275952D01*
X45421309Y-93371190D01*
X45421309Y-93656904D01*
X45373690Y-93752142D01*
X45326071Y-93799761D01*
X45230833Y-93847380D01*
X45087976Y-93847380D01*
X46278452Y-93180714D02*
X46278452Y-93990238D01*
X46230833Y-94085476D01*
X46183214Y-94133095D01*
X46087976Y-94180714D01*
X45945119Y-94180714D01*
X45849880Y-94133095D01*
X46278452Y-93799761D02*
X46183214Y-93847380D01*
X45992738Y-93847380D01*
X45897500Y-93799761D01*
X45849880Y-93752142D01*
X45802261Y-93656904D01*
X45802261Y-93371190D01*
X45849880Y-93275952D01*
X45897500Y-93228333D01*
X45992738Y-93180714D01*
X46183214Y-93180714D01*
X46278452Y-93228333D01*
X46754642Y-93847380D02*
X46754642Y-93180714D01*
X46754642Y-92847380D02*
X46707023Y-92895000D01*
X46754642Y-92942619D01*
X46802261Y-92895000D01*
X46754642Y-92847380D01*
X46754642Y-92942619D01*
X47659404Y-93799761D02*
X47564166Y-93847380D01*
X47373690Y-93847380D01*
X47278452Y-93799761D01*
X47230833Y-93752142D01*
X47183214Y-93656904D01*
X47183214Y-93371190D01*
X47230833Y-93275952D01*
X47278452Y-93228333D01*
X47373690Y-93180714D01*
X47564166Y-93180714D01*
X47659404Y-93228333D01*
X49373690Y-92895000D02*
X49278452Y-92847380D01*
X49135595Y-92847380D01*
X48992738Y-92895000D01*
X48897500Y-92990238D01*
X48849880Y-93085476D01*
X48802261Y-93275952D01*
X48802261Y-93418809D01*
X48849880Y-93609285D01*
X48897500Y-93704523D01*
X48992738Y-93799761D01*
X49135595Y-93847380D01*
X49230833Y-93847380D01*
X49373690Y-93799761D01*
X49421309Y-93752142D01*
X49421309Y-93418809D01*
X49230833Y-93418809D01*
X50278452Y-93847380D02*
X50278452Y-93323571D01*
X50230833Y-93228333D01*
X50135595Y-93180714D01*
X49945119Y-93180714D01*
X49849880Y-93228333D01*
X50278452Y-93799761D02*
X50183214Y-93847380D01*
X49945119Y-93847380D01*
X49849880Y-93799761D01*
X49802261Y-93704523D01*
X49802261Y-93609285D01*
X49849880Y-93514047D01*
X49945119Y-93466428D01*
X50183214Y-93466428D01*
X50278452Y-93418809D01*
X50611785Y-93180714D02*
X50992738Y-93180714D01*
X50754642Y-92847380D02*
X50754642Y-93704523D01*
X50802261Y-93799761D01*
X50897500Y-93847380D01*
X50992738Y-93847380D01*
X51707023Y-93799761D02*
X51611785Y-93847380D01*
X51421309Y-93847380D01*
X51326071Y-93799761D01*
X51278452Y-93704523D01*
X51278452Y-93323571D01*
X51326071Y-93228333D01*
X51421309Y-93180714D01*
X51611785Y-93180714D01*
X51707023Y-93228333D01*
X51754642Y-93323571D01*
X51754642Y-93418809D01*
X51278452Y-93514047D01*
X53516547Y-93847380D02*
X53183214Y-93371190D01*
X52945119Y-93847380D02*
X52945119Y-92847380D01*
X53326071Y-92847380D01*
X53421309Y-92895000D01*
X53468928Y-92942619D01*
X53516547Y-93037857D01*
X53516547Y-93180714D01*
X53468928Y-93275952D01*
X53421309Y-93323571D01*
X53326071Y-93371190D01*
X52945119Y-93371190D01*
X54373690Y-93180714D02*
X54373690Y-93847380D01*
X53945119Y-93180714D02*
X53945119Y-93704523D01*
X53992738Y-93799761D01*
X54087976Y-93847380D01*
X54230833Y-93847380D01*
X54326071Y-93799761D01*
X54373690Y-93752142D01*
X54992738Y-93847380D02*
X54897500Y-93799761D01*
X54849880Y-93704523D01*
X54849880Y-92847380D01*
X55754642Y-93799761D02*
X55659404Y-93847380D01*
X55468928Y-93847380D01*
X55373690Y-93799761D01*
X55326071Y-93704523D01*
X55326071Y-93323571D01*
X55373690Y-93228333D01*
X55468928Y-93180714D01*
X55659404Y-93180714D01*
X55754642Y-93228333D01*
X55802261Y-93323571D01*
X55802261Y-93418809D01*
X55326071Y-93514047D01*
X56230833Y-93847380D02*
X56230833Y-93180714D01*
X56230833Y-93371190D02*
X56278452Y-93275952D01*
X56326071Y-93228333D01*
X56421309Y-93180714D01*
X56516547Y-93180714D01*
X57516547Y-93180714D02*
X57754642Y-93847380D01*
X57992738Y-93180714D01*
X58897500Y-93847380D02*
X58326071Y-93847380D01*
X58611785Y-93847380D02*
X58611785Y-92847380D01*
X58516547Y-92990238D01*
X58421309Y-93085476D01*
X58326071Y-93133095D01*
X59326071Y-93752142D02*
X59373690Y-93799761D01*
X59326071Y-93847380D01*
X59278452Y-93799761D01*
X59326071Y-93752142D01*
X59326071Y-93847380D01*
X59992738Y-92847380D02*
X60087976Y-92847380D01*
X60183214Y-92895000D01*
X60230833Y-92942619D01*
X60278452Y-93037857D01*
X60326071Y-93228333D01*
X60326071Y-93466428D01*
X60278452Y-93656904D01*
X60230833Y-93752142D01*
X60183214Y-93799761D01*
X60087976Y-93847380D01*
X59992738Y-93847380D01*
X59897500Y-93799761D01*
X59849880Y-93752142D01*
X59802261Y-93656904D01*
X59754642Y-93466428D01*
X59754642Y-93228333D01*
X59802261Y-93037857D01*
X59849880Y-92942619D01*
X59897500Y-92895000D01*
X59992738Y-92847380D01*
X44135595Y-95457380D02*
X44135595Y-94457380D01*
X44373690Y-94457380D01*
X44516547Y-94505000D01*
X44611785Y-94600238D01*
X44659404Y-94695476D01*
X44707023Y-94885952D01*
X44707023Y-95028809D01*
X44659404Y-95219285D01*
X44611785Y-95314523D01*
X44516547Y-95409761D01*
X44373690Y-95457380D01*
X44135595Y-95457380D01*
X45516547Y-95409761D02*
X45421309Y-95457380D01*
X45230833Y-95457380D01*
X45135595Y-95409761D01*
X45087976Y-95314523D01*
X45087976Y-94933571D01*
X45135595Y-94838333D01*
X45230833Y-94790714D01*
X45421309Y-94790714D01*
X45516547Y-94838333D01*
X45564166Y-94933571D01*
X45564166Y-95028809D01*
X45087976Y-95124047D01*
X45945119Y-95409761D02*
X46040357Y-95457380D01*
X46230833Y-95457380D01*
X46326071Y-95409761D01*
X46373690Y-95314523D01*
X46373690Y-95266904D01*
X46326071Y-95171666D01*
X46230833Y-95124047D01*
X46087976Y-95124047D01*
X45992738Y-95076428D01*
X45945119Y-94981190D01*
X45945119Y-94933571D01*
X45992738Y-94838333D01*
X46087976Y-94790714D01*
X46230833Y-94790714D01*
X46326071Y-94838333D01*
X46802261Y-95457380D02*
X46802261Y-94790714D01*
X46802261Y-94457380D02*
X46754642Y-94505000D01*
X46802261Y-94552619D01*
X46849880Y-94505000D01*
X46802261Y-94457380D01*
X46802261Y-94552619D01*
X47707023Y-94790714D02*
X47707023Y-95600238D01*
X47659404Y-95695476D01*
X47611785Y-95743095D01*
X47516547Y-95790714D01*
X47373690Y-95790714D01*
X47278452Y-95743095D01*
X47707023Y-95409761D02*
X47611785Y-95457380D01*
X47421309Y-95457380D01*
X47326071Y-95409761D01*
X47278452Y-95362142D01*
X47230833Y-95266904D01*
X47230833Y-94981190D01*
X47278452Y-94885952D01*
X47326071Y-94838333D01*
X47421309Y-94790714D01*
X47611785Y-94790714D01*
X47707023Y-94838333D01*
X48183214Y-94790714D02*
X48183214Y-95457380D01*
X48183214Y-94885952D02*
X48230833Y-94838333D01*
X48326071Y-94790714D01*
X48468928Y-94790714D01*
X48564166Y-94838333D01*
X48611785Y-94933571D01*
X48611785Y-95457380D01*
X49468928Y-95409761D02*
X49373690Y-95457380D01*
X49183214Y-95457380D01*
X49087976Y-95409761D01*
X49040357Y-95314523D01*
X49040357Y-94933571D01*
X49087976Y-94838333D01*
X49183214Y-94790714D01*
X49373690Y-94790714D01*
X49468928Y-94838333D01*
X49516547Y-94933571D01*
X49516547Y-95028809D01*
X49040357Y-95124047D01*
X50373690Y-95457380D02*
X50373690Y-94457380D01*
X50373690Y-95409761D02*
X50278452Y-95457380D01*
X50087976Y-95457380D01*
X49992738Y-95409761D01*
X49945119Y-95362142D01*
X49897500Y-95266904D01*
X49897500Y-94981190D01*
X49945119Y-94885952D01*
X49992738Y-94838333D01*
X50087976Y-94790714D01*
X50278452Y-94790714D01*
X50373690Y-94838333D01*
X51611785Y-95457380D02*
X51611785Y-94457380D01*
X51611785Y-94838333D02*
X51707023Y-94790714D01*
X51897500Y-94790714D01*
X51992738Y-94838333D01*
X52040357Y-94885952D01*
X52087976Y-94981190D01*
X52087976Y-95266904D01*
X52040357Y-95362142D01*
X51992738Y-95409761D01*
X51897500Y-95457380D01*
X51707023Y-95457380D01*
X51611785Y-95409761D01*
X52421309Y-94790714D02*
X52659404Y-95457380D01*
X52897500Y-94790714D02*
X52659404Y-95457380D01*
X52564166Y-95695476D01*
X52516547Y-95743095D01*
X52421309Y-95790714D01*
X54040357Y-95457380D02*
X54040357Y-94457380D01*
X54373690Y-95171666D01*
X54707023Y-94457380D01*
X54707023Y-95457380D01*
X55183214Y-95457380D02*
X55183214Y-94457380D01*
X56135595Y-95457380D02*
X55659404Y-95457380D01*
X55659404Y-94457380D01*
X56897500Y-95457380D02*
X56897500Y-94933571D01*
X56849880Y-94838333D01*
X56754642Y-94790714D01*
X56564166Y-94790714D01*
X56468928Y-94838333D01*
X56897500Y-95409761D02*
X56802261Y-95457380D01*
X56564166Y-95457380D01*
X56468928Y-95409761D01*
X56421309Y-95314523D01*
X56421309Y-95219285D01*
X56468928Y-95124047D01*
X56564166Y-95076428D01*
X56802261Y-95076428D01*
X56897500Y-95028809D01*
X57373690Y-95457380D02*
X57373690Y-94457380D01*
X57373690Y-94838333D02*
X57468928Y-94790714D01*
X57659404Y-94790714D01*
X57754642Y-94838333D01*
X57802261Y-94885952D01*
X57849880Y-94981190D01*
X57849880Y-95266904D01*
X57802261Y-95362142D01*
X57754642Y-95409761D01*
X57659404Y-95457380D01*
X57468928Y-95457380D01*
X57373690Y-95409761D01*
X58992738Y-94552619D02*
X59040357Y-94505000D01*
X59135595Y-94457380D01*
X59373690Y-94457380D01*
X59468928Y-94505000D01*
X59516547Y-94552619D01*
X59564166Y-94647857D01*
X59564166Y-94743095D01*
X59516547Y-94885952D01*
X58945119Y-95457380D01*
X59564166Y-95457380D01*
X60183214Y-94457380D02*
X60278452Y-94457380D01*
X60373690Y-94505000D01*
X60421309Y-94552619D01*
X60468928Y-94647857D01*
X60516547Y-94838333D01*
X60516547Y-95076428D01*
X60468928Y-95266904D01*
X60421309Y-95362142D01*
X60373690Y-95409761D01*
X60278452Y-95457380D01*
X60183214Y-95457380D01*
X60087976Y-95409761D01*
X60040357Y-95362142D01*
X59992738Y-95266904D01*
X59945119Y-95076428D01*
X59945119Y-94838333D01*
X59992738Y-94647857D01*
X60040357Y-94552619D01*
X60087976Y-94505000D01*
X60183214Y-94457380D01*
X60897500Y-94552619D02*
X60945119Y-94505000D01*
X61040357Y-94457380D01*
X61278452Y-94457380D01*
X61373690Y-94505000D01*
X61421309Y-94552619D01*
X61468928Y-94647857D01*
X61468928Y-94743095D01*
X61421309Y-94885952D01*
X60849880Y-95457380D01*
X61468928Y-95457380D01*
X61802261Y-94457380D02*
X62421309Y-94457380D01*
X62087976Y-94838333D01*
X62230833Y-94838333D01*
X62326071Y-94885952D01*
X62373690Y-94933571D01*
X62421309Y-95028809D01*
X62421309Y-95266904D01*
X62373690Y-95362142D01*
X62326071Y-95409761D01*
X62230833Y-95457380D01*
X61945119Y-95457380D01*
X61849880Y-95409761D01*
X61802261Y-95362142D01*
X50998380Y-50228476D02*
X50998380Y-50799904D01*
X50998380Y-50514190D02*
X49998380Y-50514190D01*
X50141238Y-50609428D01*
X50236476Y-50704666D01*
X50284095Y-50799904D01*
X50093619Y-49847523D02*
X50046000Y-49799904D01*
X49998380Y-49704666D01*
X49998380Y-49466571D01*
X50046000Y-49371333D01*
X50093619Y-49323714D01*
X50188857Y-49276095D01*
X50284095Y-49276095D01*
X50426952Y-49323714D01*
X50998380Y-49895142D01*
X50998380Y-49276095D01*
X79719047Y-48071428D02*
X80480952Y-48071428D01*
X80100000Y-48452380D02*
X80100000Y-47690476D01*
X92819047Y-48071428D02*
X93580952Y-48071428D01*
X93200000Y-48452380D02*
X93200000Y-47690476D01*
X45918380Y-50228476D02*
X45918380Y-50799904D01*
X45918380Y-50514190D02*
X44918380Y-50514190D01*
X45061238Y-50609428D01*
X45156476Y-50704666D01*
X45204095Y-50799904D01*
X45251714Y-49371333D02*
X45918380Y-49371333D01*
X44870761Y-49609428D02*
X45585047Y-49847523D01*
X45585047Y-49228476D01*
X47553619Y-61753714D02*
X47506000Y-61706095D01*
X47458380Y-61610857D01*
X47458380Y-61372761D01*
X47506000Y-61277523D01*
X47553619Y-61229904D01*
X47648857Y-61182285D01*
X47744095Y-61182285D01*
X47886952Y-61229904D01*
X48458380Y-61801333D01*
X48458380Y-61182285D01*
X32937380Y-58260952D02*
X33746904Y-58260952D01*
X33842142Y-58213333D01*
X33889761Y-58165714D01*
X33937380Y-58070476D01*
X33937380Y-57880000D01*
X33889761Y-57784761D01*
X33842142Y-57737142D01*
X33746904Y-57689523D01*
X32937380Y-57689523D01*
X33889761Y-57260952D02*
X33937380Y-57118095D01*
X33937380Y-56880000D01*
X33889761Y-56784761D01*
X33842142Y-56737142D01*
X33746904Y-56689523D01*
X33651666Y-56689523D01*
X33556428Y-56737142D01*
X33508809Y-56784761D01*
X33461190Y-56880000D01*
X33413571Y-57070476D01*
X33365952Y-57165714D01*
X33318333Y-57213333D01*
X33223095Y-57260952D01*
X33127857Y-57260952D01*
X33032619Y-57213333D01*
X32985000Y-57165714D01*
X32937380Y-57070476D01*
X32937380Y-56832380D01*
X32985000Y-56689523D01*
X33413571Y-55927619D02*
X33461190Y-55784761D01*
X33508809Y-55737142D01*
X33604047Y-55689523D01*
X33746904Y-55689523D01*
X33842142Y-55737142D01*
X33889761Y-55784761D01*
X33937380Y-55880000D01*
X33937380Y-56260952D01*
X32937380Y-56260952D01*
X32937380Y-55927619D01*
X32985000Y-55832380D01*
X33032619Y-55784761D01*
X33127857Y-55737142D01*
X33223095Y-55737142D01*
X33318333Y-55784761D01*
X33365952Y-55832380D01*
X33413571Y-55927619D01*
X33413571Y-56260952D01*
X33556428Y-55260952D02*
X33556428Y-54499047D01*
X33842142Y-53451428D02*
X33889761Y-53499047D01*
X33937380Y-53641904D01*
X33937380Y-53737142D01*
X33889761Y-53880000D01*
X33794523Y-53975238D01*
X33699285Y-54022857D01*
X33508809Y-54070476D01*
X33365952Y-54070476D01*
X33175476Y-54022857D01*
X33080238Y-53975238D01*
X32985000Y-53880000D01*
X32937380Y-53737142D01*
X32937380Y-53641904D01*
X32985000Y-53499047D01*
X33032619Y-53451428D01*
X35547380Y-57213333D02*
X34547380Y-57213333D01*
X34547380Y-56832380D01*
X34595000Y-56737142D01*
X34642619Y-56689523D01*
X34737857Y-56641904D01*
X34880714Y-56641904D01*
X34975952Y-56689523D01*
X35023571Y-56737142D01*
X35071190Y-56832380D01*
X35071190Y-57213333D01*
X34547380Y-56308571D02*
X35547380Y-56070476D01*
X34833095Y-55880000D01*
X35547380Y-55689523D01*
X34547380Y-55451428D01*
X35547380Y-54499047D02*
X35071190Y-54832380D01*
X35547380Y-55070476D02*
X34547380Y-55070476D01*
X34547380Y-54689523D01*
X34595000Y-54594285D01*
X34642619Y-54546666D01*
X34737857Y-54499047D01*
X34880714Y-54499047D01*
X34975952Y-54546666D01*
X35023571Y-54594285D01*
X35071190Y-54689523D01*
X35071190Y-55070476D01*
X48204380Y-50228476D02*
X48204380Y-50799904D01*
X48204380Y-50514190D02*
X47204380Y-50514190D01*
X47347238Y-50609428D01*
X47442476Y-50704666D01*
X47490095Y-50799904D01*
X47204380Y-49895142D02*
X47204380Y-49276095D01*
X47585333Y-49609428D01*
X47585333Y-49466571D01*
X47632952Y-49371333D01*
X47680571Y-49323714D01*
X47775809Y-49276095D01*
X48013904Y-49276095D01*
X48109142Y-49323714D01*
X48156761Y-49371333D01*
X48204380Y-49466571D01*
X48204380Y-49752285D01*
X48156761Y-49847523D01*
X48109142Y-49895142D01*
X58618380Y-50228476D02*
X58618380Y-50038000D01*
X58570761Y-49942761D01*
X58523142Y-49895142D01*
X58380285Y-49799904D01*
X58189809Y-49752285D01*
X57808857Y-49752285D01*
X57713619Y-49799904D01*
X57666000Y-49847523D01*
X57618380Y-49942761D01*
X57618380Y-50133238D01*
X57666000Y-50228476D01*
X57713619Y-50276095D01*
X57808857Y-50323714D01*
X58046952Y-50323714D01*
X58142190Y-50276095D01*
X58189809Y-50228476D01*
X58237428Y-50133238D01*
X58237428Y-49942761D01*
X58189809Y-49847523D01*
X58142190Y-49799904D01*
X58046952Y-49752285D01*
X57618380Y-61277523D02*
X57618380Y-61468000D01*
X57666000Y-61563238D01*
X57713619Y-61610857D01*
X57856476Y-61706095D01*
X58046952Y-61753714D01*
X58427904Y-61753714D01*
X58523142Y-61706095D01*
X58570761Y-61658476D01*
X58618380Y-61563238D01*
X58618380Y-61372761D01*
X58570761Y-61277523D01*
X58523142Y-61229904D01*
X58427904Y-61182285D01*
X58189809Y-61182285D01*
X58094571Y-61229904D01*
X58046952Y-61277523D01*
X57999333Y-61372761D01*
X57999333Y-61563238D01*
X58046952Y-61658476D01*
X58094571Y-61706095D01*
X58189809Y-61753714D01*
X86219047Y-48071428D02*
X86980952Y-48071428D01*
X86600000Y-48452380D02*
X86600000Y-47690476D01*
X45918380Y-61182285D02*
X45918380Y-61753714D01*
X45918380Y-61468000D02*
X44918380Y-61468000D01*
X45061238Y-61563238D01*
X45156476Y-61658476D01*
X45204095Y-61753714D01*
X49998380Y-61801333D02*
X49998380Y-61182285D01*
X50379333Y-61515619D01*
X50379333Y-61372761D01*
X50426952Y-61277523D01*
X50474571Y-61229904D01*
X50569809Y-61182285D01*
X50807904Y-61182285D01*
X50903142Y-61229904D01*
X50950761Y-61277523D01*
X50998380Y-61372761D01*
X50998380Y-61658476D01*
X50950761Y-61753714D01*
X50903142Y-61801333D01*
X52871714Y-61277523D02*
X53538380Y-61277523D01*
X52490761Y-61515619D02*
X53205047Y-61753714D01*
X53205047Y-61134666D01*
X53538380Y-50228476D02*
X53538380Y-50799904D01*
X53538380Y-50514190D02*
X52538380Y-50514190D01*
X52681238Y-50609428D01*
X52776476Y-50704666D01*
X52824095Y-50799904D01*
X53538380Y-49276095D02*
X53538380Y-49847523D01*
X53538380Y-49561809D02*
X52538380Y-49561809D01*
X52681238Y-49657047D01*
X52776476Y-49752285D01*
X52824095Y-49847523D01*
X44611785Y-63847380D02*
X44135595Y-63847380D01*
X44135595Y-62847380D01*
X45087976Y-63847380D02*
X44992738Y-63799761D01*
X44945119Y-63752142D01*
X44897500Y-63656904D01*
X44897500Y-63371190D01*
X44945119Y-63275952D01*
X44992738Y-63228333D01*
X45087976Y-63180714D01*
X45230833Y-63180714D01*
X45326071Y-63228333D01*
X45373690Y-63275952D01*
X45421309Y-63371190D01*
X45421309Y-63656904D01*
X45373690Y-63752142D01*
X45326071Y-63799761D01*
X45230833Y-63847380D01*
X45087976Y-63847380D01*
X46278452Y-63180714D02*
X46278452Y-63990238D01*
X46230833Y-64085476D01*
X46183214Y-64133095D01*
X46087976Y-64180714D01*
X45945119Y-64180714D01*
X45849880Y-64133095D01*
X46278452Y-63799761D02*
X46183214Y-63847380D01*
X45992738Y-63847380D01*
X45897500Y-63799761D01*
X45849880Y-63752142D01*
X45802261Y-63656904D01*
X45802261Y-63371190D01*
X45849880Y-63275952D01*
X45897500Y-63228333D01*
X45992738Y-63180714D01*
X46183214Y-63180714D01*
X46278452Y-63228333D01*
X46754642Y-63847380D02*
X46754642Y-63180714D01*
X46754642Y-62847380D02*
X46707023Y-62895000D01*
X46754642Y-62942619D01*
X46802261Y-62895000D01*
X46754642Y-62847380D01*
X46754642Y-62942619D01*
X47659404Y-63799761D02*
X47564166Y-63847380D01*
X47373690Y-63847380D01*
X47278452Y-63799761D01*
X47230833Y-63752142D01*
X47183214Y-63656904D01*
X47183214Y-63371190D01*
X47230833Y-63275952D01*
X47278452Y-63228333D01*
X47373690Y-63180714D01*
X47564166Y-63180714D01*
X47659404Y-63228333D01*
X49373690Y-62895000D02*
X49278452Y-62847380D01*
X49135595Y-62847380D01*
X48992738Y-62895000D01*
X48897500Y-62990238D01*
X48849880Y-63085476D01*
X48802261Y-63275952D01*
X48802261Y-63418809D01*
X48849880Y-63609285D01*
X48897500Y-63704523D01*
X48992738Y-63799761D01*
X49135595Y-63847380D01*
X49230833Y-63847380D01*
X49373690Y-63799761D01*
X49421309Y-63752142D01*
X49421309Y-63418809D01*
X49230833Y-63418809D01*
X50278452Y-63847380D02*
X50278452Y-63323571D01*
X50230833Y-63228333D01*
X50135595Y-63180714D01*
X49945119Y-63180714D01*
X49849880Y-63228333D01*
X50278452Y-63799761D02*
X50183214Y-63847380D01*
X49945119Y-63847380D01*
X49849880Y-63799761D01*
X49802261Y-63704523D01*
X49802261Y-63609285D01*
X49849880Y-63514047D01*
X49945119Y-63466428D01*
X50183214Y-63466428D01*
X50278452Y-63418809D01*
X50611785Y-63180714D02*
X50992738Y-63180714D01*
X50754642Y-62847380D02*
X50754642Y-63704523D01*
X50802261Y-63799761D01*
X50897500Y-63847380D01*
X50992738Y-63847380D01*
X51707023Y-63799761D02*
X51611785Y-63847380D01*
X51421309Y-63847380D01*
X51326071Y-63799761D01*
X51278452Y-63704523D01*
X51278452Y-63323571D01*
X51326071Y-63228333D01*
X51421309Y-63180714D01*
X51611785Y-63180714D01*
X51707023Y-63228333D01*
X51754642Y-63323571D01*
X51754642Y-63418809D01*
X51278452Y-63514047D01*
X53516547Y-63847380D02*
X53183214Y-63371190D01*
X52945119Y-63847380D02*
X52945119Y-62847380D01*
X53326071Y-62847380D01*
X53421309Y-62895000D01*
X53468928Y-62942619D01*
X53516547Y-63037857D01*
X53516547Y-63180714D01*
X53468928Y-63275952D01*
X53421309Y-63323571D01*
X53326071Y-63371190D01*
X52945119Y-63371190D01*
X54373690Y-63180714D02*
X54373690Y-63847380D01*
X53945119Y-63180714D02*
X53945119Y-63704523D01*
X53992738Y-63799761D01*
X54087976Y-63847380D01*
X54230833Y-63847380D01*
X54326071Y-63799761D01*
X54373690Y-63752142D01*
X54992738Y-63847380D02*
X54897500Y-63799761D01*
X54849880Y-63704523D01*
X54849880Y-62847380D01*
X55754642Y-63799761D02*
X55659404Y-63847380D01*
X55468928Y-63847380D01*
X55373690Y-63799761D01*
X55326071Y-63704523D01*
X55326071Y-63323571D01*
X55373690Y-63228333D01*
X55468928Y-63180714D01*
X55659404Y-63180714D01*
X55754642Y-63228333D01*
X55802261Y-63323571D01*
X55802261Y-63418809D01*
X55326071Y-63514047D01*
X56230833Y-63847380D02*
X56230833Y-63180714D01*
X56230833Y-63371190D02*
X56278452Y-63275952D01*
X56326071Y-63228333D01*
X56421309Y-63180714D01*
X56516547Y-63180714D01*
X57516547Y-63180714D02*
X57754642Y-63847380D01*
X57992738Y-63180714D01*
X58897500Y-63847380D02*
X58326071Y-63847380D01*
X58611785Y-63847380D02*
X58611785Y-62847380D01*
X58516547Y-62990238D01*
X58421309Y-63085476D01*
X58326071Y-63133095D01*
X59326071Y-63752142D02*
X59373690Y-63799761D01*
X59326071Y-63847380D01*
X59278452Y-63799761D01*
X59326071Y-63752142D01*
X59326071Y-63847380D01*
X59992738Y-62847380D02*
X60087976Y-62847380D01*
X60183214Y-62895000D01*
X60230833Y-62942619D01*
X60278452Y-63037857D01*
X60326071Y-63228333D01*
X60326071Y-63466428D01*
X60278452Y-63656904D01*
X60230833Y-63752142D01*
X60183214Y-63799761D01*
X60087976Y-63847380D01*
X59992738Y-63847380D01*
X59897500Y-63799761D01*
X59849880Y-63752142D01*
X59802261Y-63656904D01*
X59754642Y-63466428D01*
X59754642Y-63228333D01*
X59802261Y-63037857D01*
X59849880Y-62942619D01*
X59897500Y-62895000D01*
X59992738Y-62847380D01*
X44135595Y-65457380D02*
X44135595Y-64457380D01*
X44373690Y-64457380D01*
X44516547Y-64505000D01*
X44611785Y-64600238D01*
X44659404Y-64695476D01*
X44707023Y-64885952D01*
X44707023Y-65028809D01*
X44659404Y-65219285D01*
X44611785Y-65314523D01*
X44516547Y-65409761D01*
X44373690Y-65457380D01*
X44135595Y-65457380D01*
X45516547Y-65409761D02*
X45421309Y-65457380D01*
X45230833Y-65457380D01*
X45135595Y-65409761D01*
X45087976Y-65314523D01*
X45087976Y-64933571D01*
X45135595Y-64838333D01*
X45230833Y-64790714D01*
X45421309Y-64790714D01*
X45516547Y-64838333D01*
X45564166Y-64933571D01*
X45564166Y-65028809D01*
X45087976Y-65124047D01*
X45945119Y-65409761D02*
X46040357Y-65457380D01*
X46230833Y-65457380D01*
X46326071Y-65409761D01*
X46373690Y-65314523D01*
X46373690Y-65266904D01*
X46326071Y-65171666D01*
X46230833Y-65124047D01*
X46087976Y-65124047D01*
X45992738Y-65076428D01*
X45945119Y-64981190D01*
X45945119Y-64933571D01*
X45992738Y-64838333D01*
X46087976Y-64790714D01*
X46230833Y-64790714D01*
X46326071Y-64838333D01*
X46802261Y-65457380D02*
X46802261Y-64790714D01*
X46802261Y-64457380D02*
X46754642Y-64505000D01*
X46802261Y-64552619D01*
X46849880Y-64505000D01*
X46802261Y-64457380D01*
X46802261Y-64552619D01*
X47707023Y-64790714D02*
X47707023Y-65600238D01*
X47659404Y-65695476D01*
X47611785Y-65743095D01*
X47516547Y-65790714D01*
X47373690Y-65790714D01*
X47278452Y-65743095D01*
X47707023Y-65409761D02*
X47611785Y-65457380D01*
X47421309Y-65457380D01*
X47326071Y-65409761D01*
X47278452Y-65362142D01*
X47230833Y-65266904D01*
X47230833Y-64981190D01*
X47278452Y-64885952D01*
X47326071Y-64838333D01*
X47421309Y-64790714D01*
X47611785Y-64790714D01*
X47707023Y-64838333D01*
X48183214Y-64790714D02*
X48183214Y-65457380D01*
X48183214Y-64885952D02*
X48230833Y-64838333D01*
X48326071Y-64790714D01*
X48468928Y-64790714D01*
X48564166Y-64838333D01*
X48611785Y-64933571D01*
X48611785Y-65457380D01*
X49468928Y-65409761D02*
X49373690Y-65457380D01*
X49183214Y-65457380D01*
X49087976Y-65409761D01*
X49040357Y-65314523D01*
X49040357Y-64933571D01*
X49087976Y-64838333D01*
X49183214Y-64790714D01*
X49373690Y-64790714D01*
X49468928Y-64838333D01*
X49516547Y-64933571D01*
X49516547Y-65028809D01*
X49040357Y-65124047D01*
X50373690Y-65457380D02*
X50373690Y-64457380D01*
X50373690Y-65409761D02*
X50278452Y-65457380D01*
X50087976Y-65457380D01*
X49992738Y-65409761D01*
X49945119Y-65362142D01*
X49897500Y-65266904D01*
X49897500Y-64981190D01*
X49945119Y-64885952D01*
X49992738Y-64838333D01*
X50087976Y-64790714D01*
X50278452Y-64790714D01*
X50373690Y-64838333D01*
X51611785Y-65457380D02*
X51611785Y-64457380D01*
X51611785Y-64838333D02*
X51707023Y-64790714D01*
X51897500Y-64790714D01*
X51992738Y-64838333D01*
X52040357Y-64885952D01*
X52087976Y-64981190D01*
X52087976Y-65266904D01*
X52040357Y-65362142D01*
X51992738Y-65409761D01*
X51897500Y-65457380D01*
X51707023Y-65457380D01*
X51611785Y-65409761D01*
X52421309Y-64790714D02*
X52659404Y-65457380D01*
X52897500Y-64790714D02*
X52659404Y-65457380D01*
X52564166Y-65695476D01*
X52516547Y-65743095D01*
X52421309Y-65790714D01*
X54040357Y-65457380D02*
X54040357Y-64457380D01*
X54373690Y-65171666D01*
X54707023Y-64457380D01*
X54707023Y-65457380D01*
X55183214Y-65457380D02*
X55183214Y-64457380D01*
X56135595Y-65457380D02*
X55659404Y-65457380D01*
X55659404Y-64457380D01*
X56897500Y-65457380D02*
X56897500Y-64933571D01*
X56849880Y-64838333D01*
X56754642Y-64790714D01*
X56564166Y-64790714D01*
X56468928Y-64838333D01*
X56897500Y-65409761D02*
X56802261Y-65457380D01*
X56564166Y-65457380D01*
X56468928Y-65409761D01*
X56421309Y-65314523D01*
X56421309Y-65219285D01*
X56468928Y-65124047D01*
X56564166Y-65076428D01*
X56802261Y-65076428D01*
X56897500Y-65028809D01*
X57373690Y-65457380D02*
X57373690Y-64457380D01*
X57373690Y-64838333D02*
X57468928Y-64790714D01*
X57659404Y-64790714D01*
X57754642Y-64838333D01*
X57802261Y-64885952D01*
X57849880Y-64981190D01*
X57849880Y-65266904D01*
X57802261Y-65362142D01*
X57754642Y-65409761D01*
X57659404Y-65457380D01*
X57468928Y-65457380D01*
X57373690Y-65409761D01*
X58992738Y-64552619D02*
X59040357Y-64505000D01*
X59135595Y-64457380D01*
X59373690Y-64457380D01*
X59468928Y-64505000D01*
X59516547Y-64552619D01*
X59564166Y-64647857D01*
X59564166Y-64743095D01*
X59516547Y-64885952D01*
X58945119Y-65457380D01*
X59564166Y-65457380D01*
X60183214Y-64457380D02*
X60278452Y-64457380D01*
X60373690Y-64505000D01*
X60421309Y-64552619D01*
X60468928Y-64647857D01*
X60516547Y-64838333D01*
X60516547Y-65076428D01*
X60468928Y-65266904D01*
X60421309Y-65362142D01*
X60373690Y-65409761D01*
X60278452Y-65457380D01*
X60183214Y-65457380D01*
X60087976Y-65409761D01*
X60040357Y-65362142D01*
X59992738Y-65266904D01*
X59945119Y-65076428D01*
X59945119Y-64838333D01*
X59992738Y-64647857D01*
X60040357Y-64552619D01*
X60087976Y-64505000D01*
X60183214Y-64457380D01*
X60897500Y-64552619D02*
X60945119Y-64505000D01*
X61040357Y-64457380D01*
X61278452Y-64457380D01*
X61373690Y-64505000D01*
X61421309Y-64552619D01*
X61468928Y-64647857D01*
X61468928Y-64743095D01*
X61421309Y-64885952D01*
X60849880Y-65457380D01*
X61468928Y-65457380D01*
X61802261Y-64457380D02*
X62421309Y-64457380D01*
X62087976Y-64838333D01*
X62230833Y-64838333D01*
X62326071Y-64885952D01*
X62373690Y-64933571D01*
X62421309Y-65028809D01*
X62421309Y-65266904D01*
X62373690Y-65362142D01*
X62326071Y-65409761D01*
X62230833Y-65457380D01*
X61945119Y-65457380D01*
X61849880Y-65409761D01*
X61802261Y-65362142D01*
X56078380Y-50228476D02*
X56078380Y-50799904D01*
X56078380Y-50514190D02*
X55078380Y-50514190D01*
X55221238Y-50609428D01*
X55316476Y-50704666D01*
X55364095Y-50799904D01*
X55078380Y-49609428D02*
X55078380Y-49514190D01*
X55126000Y-49418952D01*
X55173619Y-49371333D01*
X55268857Y-49323714D01*
X55459333Y-49276095D01*
X55697428Y-49276095D01*
X55887904Y-49323714D01*
X55983142Y-49371333D01*
X56030761Y-49418952D01*
X56078380Y-49514190D01*
X56078380Y-49609428D01*
X56030761Y-49704666D01*
X55983142Y-49752285D01*
X55887904Y-49799904D01*
X55697428Y-49847523D01*
X55459333Y-49847523D01*
X55268857Y-49799904D01*
X55173619Y-49752285D01*
X55126000Y-49704666D01*
X55078380Y-49609428D01*
X60158380Y-61801333D02*
X60158380Y-61134666D01*
X61158380Y-61563238D01*
X60586952Y-50133238D02*
X60539333Y-50228476D01*
X60491714Y-50276095D01*
X60396476Y-50323714D01*
X60348857Y-50323714D01*
X60253619Y-50276095D01*
X60206000Y-50228476D01*
X60158380Y-50133238D01*
X60158380Y-49942761D01*
X60206000Y-49847523D01*
X60253619Y-49799904D01*
X60348857Y-49752285D01*
X60396476Y-49752285D01*
X60491714Y-49799904D01*
X60539333Y-49847523D01*
X60586952Y-49942761D01*
X60586952Y-50133238D01*
X60634571Y-50228476D01*
X60682190Y-50276095D01*
X60777428Y-50323714D01*
X60967904Y-50323714D01*
X61063142Y-50276095D01*
X61110761Y-50228476D01*
X61158380Y-50133238D01*
X61158380Y-49942761D01*
X61110761Y-49847523D01*
X61063142Y-49799904D01*
X60967904Y-49752285D01*
X60777428Y-49752285D01*
X60682190Y-49799904D01*
X60634571Y-49847523D01*
X60586952Y-49942761D01*
X55078380Y-61229904D02*
X55078380Y-61706095D01*
X55554571Y-61753714D01*
X55506952Y-61706095D01*
X55459333Y-61610857D01*
X55459333Y-61372761D01*
X55506952Y-61277523D01*
X55554571Y-61229904D01*
X55649809Y-61182285D01*
X55887904Y-61182285D01*
X55983142Y-61229904D01*
X56030761Y-61277523D01*
X56078380Y-61372761D01*
X56078380Y-61610857D01*
X56030761Y-61706095D01*
X55983142Y-61753714D01*
%TO.C,AND2*%
X96815666Y-111174595D02*
X96815666Y-110698404D01*
X97101380Y-111269833D02*
X96101380Y-110936500D01*
X97101380Y-110603166D01*
X97101380Y-110269833D02*
X96101380Y-110269833D01*
X97101380Y-109698404D01*
X96101380Y-109698404D01*
X97101380Y-109222214D02*
X96101380Y-109222214D01*
X96101380Y-108984119D01*
X96149000Y-108841261D01*
X96244238Y-108746023D01*
X96339476Y-108698404D01*
X96529952Y-108650785D01*
X96672809Y-108650785D01*
X96863285Y-108698404D01*
X96958523Y-108746023D01*
X97053761Y-108841261D01*
X97101380Y-108984119D01*
X97101380Y-109222214D01*
X96196619Y-108269833D02*
X96149000Y-108222214D01*
X96101380Y-108126976D01*
X96101380Y-107888880D01*
X96149000Y-107793642D01*
X96196619Y-107746023D01*
X96291857Y-107698404D01*
X96387095Y-107698404D01*
X96529952Y-107746023D01*
X97101380Y-108317452D01*
X97101380Y-107698404D01*
X98387380Y-108722023D02*
X99387380Y-108055357D01*
X98387380Y-108055357D02*
X99387380Y-108722023D01*
X99387380Y-107150595D02*
X99387380Y-107722023D01*
X99387380Y-107436309D02*
X98387380Y-107436309D01*
X98530238Y-107531547D01*
X98625476Y-107626785D01*
X98673095Y-107722023D01*
X111087380Y-107674404D02*
X111087380Y-108150595D01*
X111563571Y-108198214D01*
X111515952Y-108150595D01*
X111468333Y-108055357D01*
X111468333Y-107817261D01*
X111515952Y-107722023D01*
X111563571Y-107674404D01*
X111658809Y-107626785D01*
X111896904Y-107626785D01*
X111992142Y-107674404D01*
X112039761Y-107722023D01*
X112087380Y-107817261D01*
X112087380Y-108055357D01*
X112039761Y-108150595D01*
X111992142Y-108198214D01*
X121247380Y-107722023D02*
X121247380Y-107912500D01*
X121295000Y-108007738D01*
X121342619Y-108055357D01*
X121485476Y-108150595D01*
X121675952Y-108198214D01*
X122056904Y-108198214D01*
X122152142Y-108150595D01*
X122199761Y-108102976D01*
X122247380Y-108007738D01*
X122247380Y-107817261D01*
X122199761Y-107722023D01*
X122152142Y-107674404D01*
X122056904Y-107626785D01*
X121818809Y-107626785D01*
X121723571Y-107674404D01*
X121675952Y-107722023D01*
X121628333Y-107817261D01*
X121628333Y-108007738D01*
X121675952Y-108102976D01*
X121723571Y-108150595D01*
X121818809Y-108198214D01*
X108547380Y-108245833D02*
X108547380Y-107626785D01*
X108928333Y-107960119D01*
X108928333Y-107817261D01*
X108975952Y-107722023D01*
X109023571Y-107674404D01*
X109118809Y-107626785D01*
X109356904Y-107626785D01*
X109452142Y-107674404D01*
X109499761Y-107722023D01*
X109547380Y-107817261D01*
X109547380Y-108102976D01*
X109499761Y-108198214D01*
X109452142Y-108245833D01*
X100657380Y-107626785D02*
X100657380Y-108198214D01*
X100657380Y-107912500D02*
X99657380Y-107912500D01*
X99800238Y-108007738D01*
X99895476Y-108102976D01*
X99943095Y-108198214D01*
X110150714Y-107722023D02*
X110817380Y-107722023D01*
X109769761Y-107960119D02*
X110484047Y-108198214D01*
X110484047Y-107579166D01*
X123295190Y-107912500D02*
X123771380Y-107912500D01*
X122771380Y-108245833D02*
X123295190Y-107912500D01*
X122771380Y-107579166D01*
X104832619Y-108198214D02*
X104785000Y-108150595D01*
X104737380Y-108055357D01*
X104737380Y-107817261D01*
X104785000Y-107722023D01*
X104832619Y-107674404D01*
X104927857Y-107626785D01*
X105023095Y-107626785D01*
X105165952Y-107674404D01*
X105737380Y-108245833D01*
X105737380Y-107626785D01*
X103467380Y-108722023D02*
X104467380Y-108055357D01*
X103467380Y-108055357D02*
X104467380Y-108722023D01*
X103562619Y-107722023D02*
X103515000Y-107674404D01*
X103467380Y-107579166D01*
X103467380Y-107341071D01*
X103515000Y-107245833D01*
X103562619Y-107198214D01*
X103657857Y-107150595D01*
X103753095Y-107150595D01*
X103895952Y-107198214D01*
X104467380Y-107769642D01*
X104467380Y-107150595D01*
%TO.C,X5*%
X77590476Y-112952380D02*
X78257142Y-113952380D01*
X78257142Y-112952380D02*
X77590476Y-113952380D01*
X79114285Y-112952380D02*
X78638095Y-112952380D01*
X78590476Y-113428571D01*
X78638095Y-113380952D01*
X78733333Y-113333333D01*
X78971428Y-113333333D01*
X79066666Y-113380952D01*
X79114285Y-113428571D01*
X79161904Y-113523809D01*
X79161904Y-113761904D01*
X79114285Y-113857142D01*
X79066666Y-113904761D01*
X78971428Y-113952380D01*
X78733333Y-113952380D01*
X78638095Y-113904761D01*
X78590476Y-113857142D01*
%TO.C,R11*%
X68957142Y-110752380D02*
X68623809Y-110276190D01*
X68385714Y-110752380D02*
X68385714Y-109752380D01*
X68766666Y-109752380D01*
X68861904Y-109800000D01*
X68909523Y-109847619D01*
X68957142Y-109942857D01*
X68957142Y-110085714D01*
X68909523Y-110180952D01*
X68861904Y-110228571D01*
X68766666Y-110276190D01*
X68385714Y-110276190D01*
X69909523Y-110752380D02*
X69338095Y-110752380D01*
X69623809Y-110752380D02*
X69623809Y-109752380D01*
X69528571Y-109895238D01*
X69433333Y-109990476D01*
X69338095Y-110038095D01*
X70861904Y-110752380D02*
X70290476Y-110752380D01*
X70576190Y-110752380D02*
X70576190Y-109752380D01*
X70480952Y-109895238D01*
X70385714Y-109990476D01*
X70290476Y-110038095D01*
%TO.C,SW5*%
X78666666Y-125804761D02*
X78809523Y-125852380D01*
X79047619Y-125852380D01*
X79142857Y-125804761D01*
X79190476Y-125757142D01*
X79238095Y-125661904D01*
X79238095Y-125566666D01*
X79190476Y-125471428D01*
X79142857Y-125423809D01*
X79047619Y-125376190D01*
X78857142Y-125328571D01*
X78761904Y-125280952D01*
X78714285Y-125233333D01*
X78666666Y-125138095D01*
X78666666Y-125042857D01*
X78714285Y-124947619D01*
X78761904Y-124900000D01*
X78857142Y-124852380D01*
X79095238Y-124852380D01*
X79238095Y-124900000D01*
X79571428Y-124852380D02*
X79809523Y-125852380D01*
X80000000Y-125138095D01*
X80190476Y-125852380D01*
X80428571Y-124852380D01*
X81285714Y-124852380D02*
X80809523Y-124852380D01*
X80761904Y-125328571D01*
X80809523Y-125280952D01*
X80904761Y-125233333D01*
X81142857Y-125233333D01*
X81238095Y-125280952D01*
X81285714Y-125328571D01*
X81333333Y-125423809D01*
X81333333Y-125661904D01*
X81285714Y-125757142D01*
X81238095Y-125804761D01*
X81142857Y-125852380D01*
X80904761Y-125852380D01*
X80809523Y-125804761D01*
X80761904Y-125757142D01*
%TO.C,74HC2*%
X41952380Y-118299523D02*
X41952380Y-117632857D01*
X42952380Y-118061428D01*
X42285714Y-116823333D02*
X42952380Y-116823333D01*
X41904761Y-117061428D02*
X42619047Y-117299523D01*
X42619047Y-116680476D01*
X42952380Y-116299523D02*
X41952380Y-116299523D01*
X42428571Y-116299523D02*
X42428571Y-115728095D01*
X42952380Y-115728095D02*
X41952380Y-115728095D01*
X42857142Y-114680476D02*
X42904761Y-114728095D01*
X42952380Y-114870952D01*
X42952380Y-114966190D01*
X42904761Y-115109047D01*
X42809523Y-115204285D01*
X42714285Y-115251904D01*
X42523809Y-115299523D01*
X42380952Y-115299523D01*
X42190476Y-115251904D01*
X42095238Y-115204285D01*
X42000000Y-115109047D01*
X41952380Y-114966190D01*
X41952380Y-114870952D01*
X42000000Y-114728095D01*
X42047619Y-114680476D01*
X42047619Y-114299523D02*
X42000000Y-114251904D01*
X41952380Y-114156666D01*
X41952380Y-113918571D01*
X42000000Y-113823333D01*
X42047619Y-113775714D01*
X42142857Y-113728095D01*
X42238095Y-113728095D01*
X42380952Y-113775714D01*
X42952380Y-114347142D01*
X42952380Y-113728095D01*
%TO.C,R12*%
X68857142Y-114652380D02*
X68523809Y-114176190D01*
X68285714Y-114652380D02*
X68285714Y-113652380D01*
X68666666Y-113652380D01*
X68761904Y-113700000D01*
X68809523Y-113747619D01*
X68857142Y-113842857D01*
X68857142Y-113985714D01*
X68809523Y-114080952D01*
X68761904Y-114128571D01*
X68666666Y-114176190D01*
X68285714Y-114176190D01*
X69809523Y-114652380D02*
X69238095Y-114652380D01*
X69523809Y-114652380D02*
X69523809Y-113652380D01*
X69428571Y-113795238D01*
X69333333Y-113890476D01*
X69238095Y-113938095D01*
X70190476Y-113747619D02*
X70238095Y-113700000D01*
X70333333Y-113652380D01*
X70571428Y-113652380D01*
X70666666Y-113700000D01*
X70714285Y-113747619D01*
X70761904Y-113842857D01*
X70761904Y-113938095D01*
X70714285Y-114080952D01*
X70142857Y-114652380D01*
X70761904Y-114652380D01*
%TO.C,R13*%
X68957142Y-118252380D02*
X68623809Y-117776190D01*
X68385714Y-118252380D02*
X68385714Y-117252380D01*
X68766666Y-117252380D01*
X68861904Y-117300000D01*
X68909523Y-117347619D01*
X68957142Y-117442857D01*
X68957142Y-117585714D01*
X68909523Y-117680952D01*
X68861904Y-117728571D01*
X68766666Y-117776190D01*
X68385714Y-117776190D01*
X69909523Y-118252380D02*
X69338095Y-118252380D01*
X69623809Y-118252380D02*
X69623809Y-117252380D01*
X69528571Y-117395238D01*
X69433333Y-117490476D01*
X69338095Y-117538095D01*
X70242857Y-117252380D02*
X70861904Y-117252380D01*
X70528571Y-117633333D01*
X70671428Y-117633333D01*
X70766666Y-117680952D01*
X70814285Y-117728571D01*
X70861904Y-117823809D01*
X70861904Y-118061904D01*
X70814285Y-118157142D01*
X70766666Y-118204761D01*
X70671428Y-118252380D01*
X70385714Y-118252380D01*
X70290476Y-118204761D01*
X70242857Y-118157142D01*
%TO.C,XOR2*%
X96101380Y-124269833D02*
X97101380Y-123603166D01*
X96101380Y-123603166D02*
X97101380Y-124269833D01*
X96101380Y-123031738D02*
X96101380Y-122841261D01*
X96149000Y-122746023D01*
X96244238Y-122650785D01*
X96434714Y-122603166D01*
X96768047Y-122603166D01*
X96958523Y-122650785D01*
X97053761Y-122746023D01*
X97101380Y-122841261D01*
X97101380Y-123031738D01*
X97053761Y-123126976D01*
X96958523Y-123222214D01*
X96768047Y-123269833D01*
X96434714Y-123269833D01*
X96244238Y-123222214D01*
X96149000Y-123126976D01*
X96101380Y-123031738D01*
X97101380Y-121603166D02*
X96625190Y-121936500D01*
X97101380Y-122174595D02*
X96101380Y-122174595D01*
X96101380Y-121793642D01*
X96149000Y-121698404D01*
X96196619Y-121650785D01*
X96291857Y-121603166D01*
X96434714Y-121603166D01*
X96529952Y-121650785D01*
X96577571Y-121698404D01*
X96625190Y-121793642D01*
X96625190Y-122174595D01*
X96196619Y-121222214D02*
X96149000Y-121174595D01*
X96101380Y-121079357D01*
X96101380Y-120841261D01*
X96149000Y-120746023D01*
X96196619Y-120698404D01*
X96291857Y-120650785D01*
X96387095Y-120650785D01*
X96529952Y-120698404D01*
X97101380Y-121269833D01*
X97101380Y-120650785D01*
X101260714Y-120722023D02*
X101927380Y-120722023D01*
X100879761Y-120960119D02*
X101594047Y-121198214D01*
X101594047Y-120579166D01*
X103467380Y-121722023D02*
X104467380Y-121055357D01*
X103467380Y-121055357D02*
X104467380Y-121722023D01*
X103562619Y-120722023D02*
X103515000Y-120674404D01*
X103467380Y-120579166D01*
X103467380Y-120341071D01*
X103515000Y-120245833D01*
X103562619Y-120198214D01*
X103657857Y-120150595D01*
X103753095Y-120150595D01*
X103895952Y-120198214D01*
X104467380Y-120769642D01*
X104467380Y-120150595D01*
X119707380Y-121102976D02*
X119707380Y-121674404D01*
X119707380Y-121388690D02*
X118707380Y-121388690D01*
X118850238Y-121483928D01*
X118945476Y-121579166D01*
X118993095Y-121674404D01*
X118707380Y-120769642D02*
X118707380Y-120150595D01*
X119088333Y-120483928D01*
X119088333Y-120341071D01*
X119135952Y-120245833D01*
X119183571Y-120198214D01*
X119278809Y-120150595D01*
X119516904Y-120150595D01*
X119612142Y-120198214D01*
X119659761Y-120245833D01*
X119707380Y-120341071D01*
X119707380Y-120626785D01*
X119659761Y-120722023D01*
X119612142Y-120769642D01*
X98387380Y-121722023D02*
X99387380Y-121055357D01*
X98387380Y-121055357D02*
X99387380Y-121722023D01*
X99387380Y-120150595D02*
X99387380Y-120722023D01*
X99387380Y-120436309D02*
X98387380Y-120436309D01*
X98530238Y-120531547D01*
X98625476Y-120626785D01*
X98673095Y-120722023D01*
X123295190Y-120912500D02*
X123771380Y-120912500D01*
X122771380Y-121245833D02*
X123295190Y-120912500D01*
X122771380Y-120579166D01*
X108547380Y-121245833D02*
X108547380Y-120626785D01*
X108928333Y-120960119D01*
X108928333Y-120817261D01*
X108975952Y-120722023D01*
X109023571Y-120674404D01*
X109118809Y-120626785D01*
X109356904Y-120626785D01*
X109452142Y-120674404D01*
X109499761Y-120722023D01*
X109547380Y-120817261D01*
X109547380Y-121102976D01*
X109499761Y-121198214D01*
X109452142Y-121245833D01*
X107007380Y-121102976D02*
X107007380Y-121674404D01*
X107007380Y-121388690D02*
X106007380Y-121388690D01*
X106150238Y-121483928D01*
X106245476Y-121579166D01*
X106293095Y-121674404D01*
X106007380Y-120483928D02*
X106007380Y-120388690D01*
X106055000Y-120293452D01*
X106102619Y-120245833D01*
X106197857Y-120198214D01*
X106388333Y-120150595D01*
X106626428Y-120150595D01*
X106816904Y-120198214D01*
X106912142Y-120245833D01*
X106959761Y-120293452D01*
X107007380Y-120388690D01*
X107007380Y-120483928D01*
X106959761Y-120579166D01*
X106912142Y-120626785D01*
X106816904Y-120674404D01*
X106626428Y-120722023D01*
X106388333Y-120722023D01*
X106197857Y-120674404D01*
X106102619Y-120626785D01*
X106055000Y-120579166D01*
X106007380Y-120483928D01*
X117865952Y-121007738D02*
X117818333Y-121102976D01*
X117770714Y-121150595D01*
X117675476Y-121198214D01*
X117627857Y-121198214D01*
X117532619Y-121150595D01*
X117485000Y-121102976D01*
X117437380Y-121007738D01*
X117437380Y-120817261D01*
X117485000Y-120722023D01*
X117532619Y-120674404D01*
X117627857Y-120626785D01*
X117675476Y-120626785D01*
X117770714Y-120674404D01*
X117818333Y-120722023D01*
X117865952Y-120817261D01*
X117865952Y-121007738D01*
X117913571Y-121102976D01*
X117961190Y-121150595D01*
X118056428Y-121198214D01*
X118246904Y-121198214D01*
X118342142Y-121150595D01*
X118389761Y-121102976D01*
X118437380Y-121007738D01*
X118437380Y-120817261D01*
X118389761Y-120722023D01*
X118342142Y-120674404D01*
X118246904Y-120626785D01*
X118056428Y-120626785D01*
X117961190Y-120674404D01*
X117913571Y-120722023D01*
X117865952Y-120817261D01*
X122247380Y-121102976D02*
X122247380Y-121674404D01*
X122247380Y-121388690D02*
X121247380Y-121388690D01*
X121390238Y-121483928D01*
X121485476Y-121579166D01*
X121533095Y-121674404D01*
X122247380Y-120150595D02*
X122247380Y-120722023D01*
X122247380Y-120436309D02*
X121247380Y-120436309D01*
X121390238Y-120531547D01*
X121485476Y-120626785D01*
X121533095Y-120722023D01*
X113627380Y-120722023D02*
X113627380Y-120912500D01*
X113675000Y-121007738D01*
X113722619Y-121055357D01*
X113865476Y-121150595D01*
X114055952Y-121198214D01*
X114436904Y-121198214D01*
X114532142Y-121150595D01*
X114579761Y-121102976D01*
X114627380Y-121007738D01*
X114627380Y-120817261D01*
X114579761Y-120722023D01*
X114532142Y-120674404D01*
X114436904Y-120626785D01*
X114198809Y-120626785D01*
X114103571Y-120674404D01*
X114055952Y-120722023D01*
X114008333Y-120817261D01*
X114008333Y-121007738D01*
X114055952Y-121102976D01*
X114103571Y-121150595D01*
X114198809Y-121198214D01*
X100657380Y-120626785D02*
X100657380Y-121198214D01*
X100657380Y-120912500D02*
X99657380Y-120912500D01*
X99800238Y-121007738D01*
X99895476Y-121102976D01*
X99943095Y-121198214D01*
X109817380Y-120674404D02*
X109817380Y-121150595D01*
X110293571Y-121198214D01*
X110245952Y-121150595D01*
X110198333Y-121055357D01*
X110198333Y-120817261D01*
X110245952Y-120722023D01*
X110293571Y-120674404D01*
X110388809Y-120626785D01*
X110626904Y-120626785D01*
X110722142Y-120674404D01*
X110769761Y-120722023D01*
X110817380Y-120817261D01*
X110817380Y-121055357D01*
X110769761Y-121150595D01*
X110722142Y-121198214D01*
X112087380Y-121102976D02*
X112087380Y-120912500D01*
X112039761Y-120817261D01*
X111992142Y-120769642D01*
X111849285Y-120674404D01*
X111658809Y-120626785D01*
X111277857Y-120626785D01*
X111182619Y-120674404D01*
X111135000Y-120722023D01*
X111087380Y-120817261D01*
X111087380Y-121007738D01*
X111135000Y-121102976D01*
X111182619Y-121150595D01*
X111277857Y-121198214D01*
X111515952Y-121198214D01*
X111611190Y-121150595D01*
X111658809Y-121102976D01*
X111706428Y-121007738D01*
X111706428Y-120817261D01*
X111658809Y-120722023D01*
X111611190Y-120674404D01*
X111515952Y-120626785D01*
X115897380Y-121102976D02*
X115897380Y-121674404D01*
X115897380Y-121388690D02*
X114897380Y-121388690D01*
X115040238Y-121483928D01*
X115135476Y-121579166D01*
X115183095Y-121674404D01*
X114992619Y-120722023D02*
X114945000Y-120674404D01*
X114897380Y-120579166D01*
X114897380Y-120341071D01*
X114945000Y-120245833D01*
X114992619Y-120198214D01*
X115087857Y-120150595D01*
X115183095Y-120150595D01*
X115325952Y-120198214D01*
X115897380Y-120769642D01*
X115897380Y-120150595D01*
X104832619Y-121198214D02*
X104785000Y-121150595D01*
X104737380Y-121055357D01*
X104737380Y-120817261D01*
X104785000Y-120722023D01*
X104832619Y-120674404D01*
X104927857Y-120626785D01*
X105023095Y-120626785D01*
X105165952Y-120674404D01*
X105737380Y-121245833D01*
X105737380Y-120626785D01*
%TO.C,Y2*%
X91023809Y-113476190D02*
X91023809Y-113952380D01*
X90690476Y-112952380D02*
X91023809Y-113476190D01*
X91357142Y-112952380D01*
X91642857Y-113047619D02*
X91690476Y-113000000D01*
X91785714Y-112952380D01*
X92023809Y-112952380D01*
X92119047Y-113000000D01*
X92166666Y-113047619D01*
X92214285Y-113142857D01*
X92214285Y-113238095D01*
X92166666Y-113380952D01*
X91595238Y-113952380D01*
X92214285Y-113952380D01*
%TO.C,OR2*%
X96101380Y-117007928D02*
X96101380Y-116817452D01*
X96149000Y-116722214D01*
X96244238Y-116626976D01*
X96434714Y-116579357D01*
X96768047Y-116579357D01*
X96958523Y-116626976D01*
X97053761Y-116722214D01*
X97101380Y-116817452D01*
X97101380Y-117007928D01*
X97053761Y-117103166D01*
X96958523Y-117198404D01*
X96768047Y-117246023D01*
X96434714Y-117246023D01*
X96244238Y-117198404D01*
X96149000Y-117103166D01*
X96101380Y-117007928D01*
X97101380Y-115579357D02*
X96625190Y-115912690D01*
X97101380Y-116150785D02*
X96101380Y-116150785D01*
X96101380Y-115769833D01*
X96149000Y-115674595D01*
X96196619Y-115626976D01*
X96291857Y-115579357D01*
X96434714Y-115579357D01*
X96529952Y-115626976D01*
X96577571Y-115674595D01*
X96625190Y-115769833D01*
X96625190Y-116150785D01*
X96196619Y-115198404D02*
X96149000Y-115150785D01*
X96101380Y-115055547D01*
X96101380Y-114817452D01*
X96149000Y-114722214D01*
X96196619Y-114674595D01*
X96291857Y-114626976D01*
X96387095Y-114626976D01*
X96529952Y-114674595D01*
X97101380Y-115246023D01*
X97101380Y-114626976D01*
X103467380Y-115222023D02*
X104467380Y-114555357D01*
X103467380Y-114555357D02*
X104467380Y-115222023D01*
X103562619Y-114222023D02*
X103515000Y-114174404D01*
X103467380Y-114079166D01*
X103467380Y-113841071D01*
X103515000Y-113745833D01*
X103562619Y-113698214D01*
X103657857Y-113650595D01*
X103753095Y-113650595D01*
X103895952Y-113698214D01*
X104467380Y-114269642D01*
X104467380Y-113650595D01*
X119707380Y-114602976D02*
X119707380Y-115174404D01*
X119707380Y-114888690D02*
X118707380Y-114888690D01*
X118850238Y-114983928D01*
X118945476Y-115079166D01*
X118993095Y-115174404D01*
X118707380Y-113983928D02*
X118707380Y-113888690D01*
X118755000Y-113793452D01*
X118802619Y-113745833D01*
X118897857Y-113698214D01*
X119088333Y-113650595D01*
X119326428Y-113650595D01*
X119516904Y-113698214D01*
X119612142Y-113745833D01*
X119659761Y-113793452D01*
X119707380Y-113888690D01*
X119707380Y-113983928D01*
X119659761Y-114079166D01*
X119612142Y-114126785D01*
X119516904Y-114174404D01*
X119326428Y-114222023D01*
X119088333Y-114222023D01*
X118897857Y-114174404D01*
X118802619Y-114126785D01*
X118755000Y-114079166D01*
X118707380Y-113983928D01*
X106007380Y-114174404D02*
X106007380Y-114650595D01*
X106483571Y-114698214D01*
X106435952Y-114650595D01*
X106388333Y-114555357D01*
X106388333Y-114317261D01*
X106435952Y-114222023D01*
X106483571Y-114174404D01*
X106578809Y-114126785D01*
X106816904Y-114126785D01*
X106912142Y-114174404D01*
X106959761Y-114222023D01*
X107007380Y-114317261D01*
X107007380Y-114555357D01*
X106959761Y-114650595D01*
X106912142Y-114698214D01*
X101022619Y-114698214D02*
X100975000Y-114650595D01*
X100927380Y-114555357D01*
X100927380Y-114317261D01*
X100975000Y-114222023D01*
X101022619Y-114174404D01*
X101117857Y-114126785D01*
X101213095Y-114126785D01*
X101355952Y-114174404D01*
X101927380Y-114745833D01*
X101927380Y-114126785D01*
X100657380Y-114126785D02*
X100657380Y-114698214D01*
X100657380Y-114412500D02*
X99657380Y-114412500D01*
X99800238Y-114507738D01*
X99895476Y-114602976D01*
X99943095Y-114698214D01*
X98387380Y-115222023D02*
X99387380Y-114555357D01*
X98387380Y-114555357D02*
X99387380Y-115222023D01*
X99387380Y-113650595D02*
X99387380Y-114222023D01*
X99387380Y-113936309D02*
X98387380Y-113936309D01*
X98530238Y-114031547D01*
X98625476Y-114126785D01*
X98673095Y-114222023D01*
X113627380Y-114745833D02*
X113627380Y-114126785D01*
X114008333Y-114460119D01*
X114008333Y-114317261D01*
X114055952Y-114222023D01*
X114103571Y-114174404D01*
X114198809Y-114126785D01*
X114436904Y-114126785D01*
X114532142Y-114174404D01*
X114579761Y-114222023D01*
X114627380Y-114317261D01*
X114627380Y-114602976D01*
X114579761Y-114698214D01*
X114532142Y-114745833D01*
X105070714Y-114222023D02*
X105737380Y-114222023D01*
X104689761Y-114460119D02*
X105404047Y-114698214D01*
X105404047Y-114079166D01*
X121675952Y-114507738D02*
X121628333Y-114602976D01*
X121580714Y-114650595D01*
X121485476Y-114698214D01*
X121437857Y-114698214D01*
X121342619Y-114650595D01*
X121295000Y-114602976D01*
X121247380Y-114507738D01*
X121247380Y-114317261D01*
X121295000Y-114222023D01*
X121342619Y-114174404D01*
X121437857Y-114126785D01*
X121485476Y-114126785D01*
X121580714Y-114174404D01*
X121628333Y-114222023D01*
X121675952Y-114317261D01*
X121675952Y-114507738D01*
X121723571Y-114602976D01*
X121771190Y-114650595D01*
X121866428Y-114698214D01*
X122056904Y-114698214D01*
X122152142Y-114650595D01*
X122199761Y-114602976D01*
X122247380Y-114507738D01*
X122247380Y-114317261D01*
X122199761Y-114222023D01*
X122152142Y-114174404D01*
X122056904Y-114126785D01*
X121866428Y-114126785D01*
X121771190Y-114174404D01*
X121723571Y-114222023D01*
X121675952Y-114317261D01*
X117437380Y-114222023D02*
X117437380Y-114412500D01*
X117485000Y-114507738D01*
X117532619Y-114555357D01*
X117675476Y-114650595D01*
X117865952Y-114698214D01*
X118246904Y-114698214D01*
X118342142Y-114650595D01*
X118389761Y-114602976D01*
X118437380Y-114507738D01*
X118437380Y-114317261D01*
X118389761Y-114222023D01*
X118342142Y-114174404D01*
X118246904Y-114126785D01*
X118008809Y-114126785D01*
X117913571Y-114174404D01*
X117865952Y-114222023D01*
X117818333Y-114317261D01*
X117818333Y-114507738D01*
X117865952Y-114602976D01*
X117913571Y-114650595D01*
X118008809Y-114698214D01*
X115897380Y-114602976D02*
X115897380Y-114412500D01*
X115849761Y-114317261D01*
X115802142Y-114269642D01*
X115659285Y-114174404D01*
X115468809Y-114126785D01*
X115087857Y-114126785D01*
X114992619Y-114174404D01*
X114945000Y-114222023D01*
X114897380Y-114317261D01*
X114897380Y-114507738D01*
X114945000Y-114602976D01*
X114992619Y-114650595D01*
X115087857Y-114698214D01*
X115325952Y-114698214D01*
X115421190Y-114650595D01*
X115468809Y-114602976D01*
X115516428Y-114507738D01*
X115516428Y-114317261D01*
X115468809Y-114222023D01*
X115421190Y-114174404D01*
X115325952Y-114126785D01*
X123295190Y-114412500D02*
X123771380Y-114412500D01*
X122771380Y-114745833D02*
X123295190Y-114412500D01*
X122771380Y-114079166D01*
%TO.C,R14*%
X68947142Y-122252380D02*
X68613809Y-121776190D01*
X68375714Y-122252380D02*
X68375714Y-121252380D01*
X68756666Y-121252380D01*
X68851904Y-121300000D01*
X68899523Y-121347619D01*
X68947142Y-121442857D01*
X68947142Y-121585714D01*
X68899523Y-121680952D01*
X68851904Y-121728571D01*
X68756666Y-121776190D01*
X68375714Y-121776190D01*
X69899523Y-122252380D02*
X69328095Y-122252380D01*
X69613809Y-122252380D02*
X69613809Y-121252380D01*
X69518571Y-121395238D01*
X69423333Y-121490476D01*
X69328095Y-121538095D01*
X70756666Y-121585714D02*
X70756666Y-122252380D01*
X70518571Y-121204761D02*
X70280476Y-121919047D01*
X70899523Y-121919047D01*
%TO.C,X6*%
X84090476Y-112952380D02*
X84757142Y-113952380D01*
X84757142Y-112952380D02*
X84090476Y-113952380D01*
X85566666Y-112952380D02*
X85376190Y-112952380D01*
X85280952Y-113000000D01*
X85233333Y-113047619D01*
X85138095Y-113190476D01*
X85090476Y-113380952D01*
X85090476Y-113761904D01*
X85138095Y-113857142D01*
X85185714Y-113904761D01*
X85280952Y-113952380D01*
X85471428Y-113952380D01*
X85566666Y-113904761D01*
X85614285Y-113857142D01*
X85661904Y-113761904D01*
X85661904Y-113523809D01*
X85614285Y-113428571D01*
X85566666Y-113380952D01*
X85471428Y-113333333D01*
X85280952Y-113333333D01*
X85185714Y-113380952D01*
X85138095Y-113428571D01*
X85090476Y-113523809D01*
%TO.C,R15*%
X68947142Y-125952380D02*
X68613809Y-125476190D01*
X68375714Y-125952380D02*
X68375714Y-124952380D01*
X68756666Y-124952380D01*
X68851904Y-125000000D01*
X68899523Y-125047619D01*
X68947142Y-125142857D01*
X68947142Y-125285714D01*
X68899523Y-125380952D01*
X68851904Y-125428571D01*
X68756666Y-125476190D01*
X68375714Y-125476190D01*
X69899523Y-125952380D02*
X69328095Y-125952380D01*
X69613809Y-125952380D02*
X69613809Y-124952380D01*
X69518571Y-125095238D01*
X69423333Y-125190476D01*
X69328095Y-125238095D01*
X70804285Y-124952380D02*
X70328095Y-124952380D01*
X70280476Y-125428571D01*
X70328095Y-125380952D01*
X70423333Y-125333333D01*
X70661428Y-125333333D01*
X70756666Y-125380952D01*
X70804285Y-125428571D01*
X70851904Y-125523809D01*
X70851904Y-125761904D01*
X70804285Y-125857142D01*
X70756666Y-125904761D01*
X70661428Y-125952380D01*
X70423333Y-125952380D01*
X70328095Y-125904761D01*
X70280476Y-125857142D01*
%TO.C,SW6*%
X88666666Y-125804761D02*
X88809523Y-125852380D01*
X89047619Y-125852380D01*
X89142857Y-125804761D01*
X89190476Y-125757142D01*
X89238095Y-125661904D01*
X89238095Y-125566666D01*
X89190476Y-125471428D01*
X89142857Y-125423809D01*
X89047619Y-125376190D01*
X88857142Y-125328571D01*
X88761904Y-125280952D01*
X88714285Y-125233333D01*
X88666666Y-125138095D01*
X88666666Y-125042857D01*
X88714285Y-124947619D01*
X88761904Y-124900000D01*
X88857142Y-124852380D01*
X89095238Y-124852380D01*
X89238095Y-124900000D01*
X89571428Y-124852380D02*
X89809523Y-125852380D01*
X90000000Y-125138095D01*
X90190476Y-125852380D01*
X90428571Y-124852380D01*
X91238095Y-124852380D02*
X91047619Y-124852380D01*
X90952380Y-124900000D01*
X90904761Y-124947619D01*
X90809523Y-125090476D01*
X90761904Y-125280952D01*
X90761904Y-125661904D01*
X90809523Y-125757142D01*
X90857142Y-125804761D01*
X90952380Y-125852380D01*
X91142857Y-125852380D01*
X91238095Y-125804761D01*
X91285714Y-125757142D01*
X91333333Y-125661904D01*
X91333333Y-125423809D01*
X91285714Y-125328571D01*
X91238095Y-125280952D01*
X91142857Y-125233333D01*
X90952380Y-125233333D01*
X90857142Y-125280952D01*
X90809523Y-125328571D01*
X90761904Y-125423809D01*
%TO.C,AND1*%
X96815666Y-81174595D02*
X96815666Y-80698404D01*
X97101380Y-81269833D02*
X96101380Y-80936500D01*
X97101380Y-80603166D01*
X97101380Y-80269833D02*
X96101380Y-80269833D01*
X97101380Y-79698404D01*
X96101380Y-79698404D01*
X97101380Y-79222214D02*
X96101380Y-79222214D01*
X96101380Y-78984119D01*
X96149000Y-78841261D01*
X96244238Y-78746023D01*
X96339476Y-78698404D01*
X96529952Y-78650785D01*
X96672809Y-78650785D01*
X96863285Y-78698404D01*
X96958523Y-78746023D01*
X97053761Y-78841261D01*
X97101380Y-78984119D01*
X97101380Y-79222214D01*
X97101380Y-77698404D02*
X97101380Y-78269833D01*
X97101380Y-77984119D02*
X96101380Y-77984119D01*
X96244238Y-78079357D01*
X96339476Y-78174595D01*
X96387095Y-78269833D01*
X98387380Y-78722023D02*
X99387380Y-78055357D01*
X98387380Y-78055357D02*
X99387380Y-78722023D01*
X99387380Y-77150595D02*
X99387380Y-77722023D01*
X99387380Y-77436309D02*
X98387380Y-77436309D01*
X98530238Y-77531547D01*
X98625476Y-77626785D01*
X98673095Y-77722023D01*
X111087380Y-77674404D02*
X111087380Y-78150595D01*
X111563571Y-78198214D01*
X111515952Y-78150595D01*
X111468333Y-78055357D01*
X111468333Y-77817261D01*
X111515952Y-77722023D01*
X111563571Y-77674404D01*
X111658809Y-77626785D01*
X111896904Y-77626785D01*
X111992142Y-77674404D01*
X112039761Y-77722023D01*
X112087380Y-77817261D01*
X112087380Y-78055357D01*
X112039761Y-78150595D01*
X111992142Y-78198214D01*
X121247380Y-77722023D02*
X121247380Y-77912500D01*
X121295000Y-78007738D01*
X121342619Y-78055357D01*
X121485476Y-78150595D01*
X121675952Y-78198214D01*
X122056904Y-78198214D01*
X122152142Y-78150595D01*
X122199761Y-78102976D01*
X122247380Y-78007738D01*
X122247380Y-77817261D01*
X122199761Y-77722023D01*
X122152142Y-77674404D01*
X122056904Y-77626785D01*
X121818809Y-77626785D01*
X121723571Y-77674404D01*
X121675952Y-77722023D01*
X121628333Y-77817261D01*
X121628333Y-78007738D01*
X121675952Y-78102976D01*
X121723571Y-78150595D01*
X121818809Y-78198214D01*
X108547380Y-78245833D02*
X108547380Y-77626785D01*
X108928333Y-77960119D01*
X108928333Y-77817261D01*
X108975952Y-77722023D01*
X109023571Y-77674404D01*
X109118809Y-77626785D01*
X109356904Y-77626785D01*
X109452142Y-77674404D01*
X109499761Y-77722023D01*
X109547380Y-77817261D01*
X109547380Y-78102976D01*
X109499761Y-78198214D01*
X109452142Y-78245833D01*
X100657380Y-77626785D02*
X100657380Y-78198214D01*
X100657380Y-77912500D02*
X99657380Y-77912500D01*
X99800238Y-78007738D01*
X99895476Y-78102976D01*
X99943095Y-78198214D01*
X110150714Y-77722023D02*
X110817380Y-77722023D01*
X109769761Y-77960119D02*
X110484047Y-78198214D01*
X110484047Y-77579166D01*
X123295190Y-77912500D02*
X123771380Y-77912500D01*
X122771380Y-78245833D02*
X123295190Y-77912500D01*
X122771380Y-77579166D01*
X104832619Y-78198214D02*
X104785000Y-78150595D01*
X104737380Y-78055357D01*
X104737380Y-77817261D01*
X104785000Y-77722023D01*
X104832619Y-77674404D01*
X104927857Y-77626785D01*
X105023095Y-77626785D01*
X105165952Y-77674404D01*
X105737380Y-78245833D01*
X105737380Y-77626785D01*
X103467380Y-78722023D02*
X104467380Y-78055357D01*
X103467380Y-78055357D02*
X104467380Y-78722023D01*
X103562619Y-77722023D02*
X103515000Y-77674404D01*
X103467380Y-77579166D01*
X103467380Y-77341071D01*
X103515000Y-77245833D01*
X103562619Y-77198214D01*
X103657857Y-77150595D01*
X103753095Y-77150595D01*
X103895952Y-77198214D01*
X104467380Y-77769642D01*
X104467380Y-77150595D01*
%TO.C,X3*%
X77590476Y-82952380D02*
X78257142Y-83952380D01*
X78257142Y-82952380D02*
X77590476Y-83952380D01*
X78542857Y-82952380D02*
X79161904Y-82952380D01*
X78828571Y-83333333D01*
X78971428Y-83333333D01*
X79066666Y-83380952D01*
X79114285Y-83428571D01*
X79161904Y-83523809D01*
X79161904Y-83761904D01*
X79114285Y-83857142D01*
X79066666Y-83904761D01*
X78971428Y-83952380D01*
X78685714Y-83952380D01*
X78590476Y-83904761D01*
X78542857Y-83857142D01*
%TO.C,R6*%
X69433333Y-80752380D02*
X69100000Y-80276190D01*
X68861904Y-80752380D02*
X68861904Y-79752380D01*
X69242857Y-79752380D01*
X69338095Y-79800000D01*
X69385714Y-79847619D01*
X69433333Y-79942857D01*
X69433333Y-80085714D01*
X69385714Y-80180952D01*
X69338095Y-80228571D01*
X69242857Y-80276190D01*
X68861904Y-80276190D01*
X70290476Y-79752380D02*
X70100000Y-79752380D01*
X70004761Y-79800000D01*
X69957142Y-79847619D01*
X69861904Y-79990476D01*
X69814285Y-80180952D01*
X69814285Y-80561904D01*
X69861904Y-80657142D01*
X69909523Y-80704761D01*
X70004761Y-80752380D01*
X70195238Y-80752380D01*
X70290476Y-80704761D01*
X70338095Y-80657142D01*
X70385714Y-80561904D01*
X70385714Y-80323809D01*
X70338095Y-80228571D01*
X70290476Y-80180952D01*
X70195238Y-80133333D01*
X70004761Y-80133333D01*
X69909523Y-80180952D01*
X69861904Y-80228571D01*
X69814285Y-80323809D01*
%TO.C,SW3*%
X78666666Y-95804761D02*
X78809523Y-95852380D01*
X79047619Y-95852380D01*
X79142857Y-95804761D01*
X79190476Y-95757142D01*
X79238095Y-95661904D01*
X79238095Y-95566666D01*
X79190476Y-95471428D01*
X79142857Y-95423809D01*
X79047619Y-95376190D01*
X78857142Y-95328571D01*
X78761904Y-95280952D01*
X78714285Y-95233333D01*
X78666666Y-95138095D01*
X78666666Y-95042857D01*
X78714285Y-94947619D01*
X78761904Y-94900000D01*
X78857142Y-94852380D01*
X79095238Y-94852380D01*
X79238095Y-94900000D01*
X79571428Y-94852380D02*
X79809523Y-95852380D01*
X80000000Y-95138095D01*
X80190476Y-95852380D01*
X80428571Y-94852380D01*
X80714285Y-94852380D02*
X81333333Y-94852380D01*
X81000000Y-95233333D01*
X81142857Y-95233333D01*
X81238095Y-95280952D01*
X81285714Y-95328571D01*
X81333333Y-95423809D01*
X81333333Y-95661904D01*
X81285714Y-95757142D01*
X81238095Y-95804761D01*
X81142857Y-95852380D01*
X80857142Y-95852380D01*
X80761904Y-95804761D01*
X80714285Y-95757142D01*
%TO.C,74HC1*%
X41952380Y-88299523D02*
X41952380Y-87632857D01*
X42952380Y-88061428D01*
X42285714Y-86823333D02*
X42952380Y-86823333D01*
X41904761Y-87061428D02*
X42619047Y-87299523D01*
X42619047Y-86680476D01*
X42952380Y-86299523D02*
X41952380Y-86299523D01*
X42428571Y-86299523D02*
X42428571Y-85728095D01*
X42952380Y-85728095D02*
X41952380Y-85728095D01*
X42857142Y-84680476D02*
X42904761Y-84728095D01*
X42952380Y-84870952D01*
X42952380Y-84966190D01*
X42904761Y-85109047D01*
X42809523Y-85204285D01*
X42714285Y-85251904D01*
X42523809Y-85299523D01*
X42380952Y-85299523D01*
X42190476Y-85251904D01*
X42095238Y-85204285D01*
X42000000Y-85109047D01*
X41952380Y-84966190D01*
X41952380Y-84870952D01*
X42000000Y-84728095D01*
X42047619Y-84680476D01*
X42952380Y-83728095D02*
X42952380Y-84299523D01*
X42952380Y-84013809D02*
X41952380Y-84013809D01*
X42095238Y-84109047D01*
X42190476Y-84204285D01*
X42238095Y-84299523D01*
%TO.C,R7*%
X69333333Y-84652380D02*
X69000000Y-84176190D01*
X68761904Y-84652380D02*
X68761904Y-83652380D01*
X69142857Y-83652380D01*
X69238095Y-83700000D01*
X69285714Y-83747619D01*
X69333333Y-83842857D01*
X69333333Y-83985714D01*
X69285714Y-84080952D01*
X69238095Y-84128571D01*
X69142857Y-84176190D01*
X68761904Y-84176190D01*
X69666666Y-83652380D02*
X70333333Y-83652380D01*
X69904761Y-84652380D01*
%TO.C,R8*%
X69433333Y-88252380D02*
X69100000Y-87776190D01*
X68861904Y-88252380D02*
X68861904Y-87252380D01*
X69242857Y-87252380D01*
X69338095Y-87300000D01*
X69385714Y-87347619D01*
X69433333Y-87442857D01*
X69433333Y-87585714D01*
X69385714Y-87680952D01*
X69338095Y-87728571D01*
X69242857Y-87776190D01*
X68861904Y-87776190D01*
X70004761Y-87680952D02*
X69909523Y-87633333D01*
X69861904Y-87585714D01*
X69814285Y-87490476D01*
X69814285Y-87442857D01*
X69861904Y-87347619D01*
X69909523Y-87300000D01*
X70004761Y-87252380D01*
X70195238Y-87252380D01*
X70290476Y-87300000D01*
X70338095Y-87347619D01*
X70385714Y-87442857D01*
X70385714Y-87490476D01*
X70338095Y-87585714D01*
X70290476Y-87633333D01*
X70195238Y-87680952D01*
X70004761Y-87680952D01*
X69909523Y-87728571D01*
X69861904Y-87776190D01*
X69814285Y-87871428D01*
X69814285Y-88061904D01*
X69861904Y-88157142D01*
X69909523Y-88204761D01*
X70004761Y-88252380D01*
X70195238Y-88252380D01*
X70290476Y-88204761D01*
X70338095Y-88157142D01*
X70385714Y-88061904D01*
X70385714Y-87871428D01*
X70338095Y-87776190D01*
X70290476Y-87728571D01*
X70195238Y-87680952D01*
%TO.C,XOR1*%
X96101380Y-94269833D02*
X97101380Y-93603166D01*
X96101380Y-93603166D02*
X97101380Y-94269833D01*
X96101380Y-93031738D02*
X96101380Y-92841261D01*
X96149000Y-92746023D01*
X96244238Y-92650785D01*
X96434714Y-92603166D01*
X96768047Y-92603166D01*
X96958523Y-92650785D01*
X97053761Y-92746023D01*
X97101380Y-92841261D01*
X97101380Y-93031738D01*
X97053761Y-93126976D01*
X96958523Y-93222214D01*
X96768047Y-93269833D01*
X96434714Y-93269833D01*
X96244238Y-93222214D01*
X96149000Y-93126976D01*
X96101380Y-93031738D01*
X97101380Y-91603166D02*
X96625190Y-91936500D01*
X97101380Y-92174595D02*
X96101380Y-92174595D01*
X96101380Y-91793642D01*
X96149000Y-91698404D01*
X96196619Y-91650785D01*
X96291857Y-91603166D01*
X96434714Y-91603166D01*
X96529952Y-91650785D01*
X96577571Y-91698404D01*
X96625190Y-91793642D01*
X96625190Y-92174595D01*
X97101380Y-90650785D02*
X97101380Y-91222214D01*
X97101380Y-90936500D02*
X96101380Y-90936500D01*
X96244238Y-91031738D01*
X96339476Y-91126976D01*
X96387095Y-91222214D01*
X101260714Y-90722023D02*
X101927380Y-90722023D01*
X100879761Y-90960119D02*
X101594047Y-91198214D01*
X101594047Y-90579166D01*
X103467380Y-91722023D02*
X104467380Y-91055357D01*
X103467380Y-91055357D02*
X104467380Y-91722023D01*
X103562619Y-90722023D02*
X103515000Y-90674404D01*
X103467380Y-90579166D01*
X103467380Y-90341071D01*
X103515000Y-90245833D01*
X103562619Y-90198214D01*
X103657857Y-90150595D01*
X103753095Y-90150595D01*
X103895952Y-90198214D01*
X104467380Y-90769642D01*
X104467380Y-90150595D01*
X119707380Y-91102976D02*
X119707380Y-91674404D01*
X119707380Y-91388690D02*
X118707380Y-91388690D01*
X118850238Y-91483928D01*
X118945476Y-91579166D01*
X118993095Y-91674404D01*
X118707380Y-90769642D02*
X118707380Y-90150595D01*
X119088333Y-90483928D01*
X119088333Y-90341071D01*
X119135952Y-90245833D01*
X119183571Y-90198214D01*
X119278809Y-90150595D01*
X119516904Y-90150595D01*
X119612142Y-90198214D01*
X119659761Y-90245833D01*
X119707380Y-90341071D01*
X119707380Y-90626785D01*
X119659761Y-90722023D01*
X119612142Y-90769642D01*
X98387380Y-91722023D02*
X99387380Y-91055357D01*
X98387380Y-91055357D02*
X99387380Y-91722023D01*
X99387380Y-90150595D02*
X99387380Y-90722023D01*
X99387380Y-90436309D02*
X98387380Y-90436309D01*
X98530238Y-90531547D01*
X98625476Y-90626785D01*
X98673095Y-90722023D01*
X123295190Y-90912500D02*
X123771380Y-90912500D01*
X122771380Y-91245833D02*
X123295190Y-90912500D01*
X122771380Y-90579166D01*
X108547380Y-91245833D02*
X108547380Y-90626785D01*
X108928333Y-90960119D01*
X108928333Y-90817261D01*
X108975952Y-90722023D01*
X109023571Y-90674404D01*
X109118809Y-90626785D01*
X109356904Y-90626785D01*
X109452142Y-90674404D01*
X109499761Y-90722023D01*
X109547380Y-90817261D01*
X109547380Y-91102976D01*
X109499761Y-91198214D01*
X109452142Y-91245833D01*
X107007380Y-91102976D02*
X107007380Y-91674404D01*
X107007380Y-91388690D02*
X106007380Y-91388690D01*
X106150238Y-91483928D01*
X106245476Y-91579166D01*
X106293095Y-91674404D01*
X106007380Y-90483928D02*
X106007380Y-90388690D01*
X106055000Y-90293452D01*
X106102619Y-90245833D01*
X106197857Y-90198214D01*
X106388333Y-90150595D01*
X106626428Y-90150595D01*
X106816904Y-90198214D01*
X106912142Y-90245833D01*
X106959761Y-90293452D01*
X107007380Y-90388690D01*
X107007380Y-90483928D01*
X106959761Y-90579166D01*
X106912142Y-90626785D01*
X106816904Y-90674404D01*
X106626428Y-90722023D01*
X106388333Y-90722023D01*
X106197857Y-90674404D01*
X106102619Y-90626785D01*
X106055000Y-90579166D01*
X106007380Y-90483928D01*
X117865952Y-91007738D02*
X117818333Y-91102976D01*
X117770714Y-91150595D01*
X117675476Y-91198214D01*
X117627857Y-91198214D01*
X117532619Y-91150595D01*
X117485000Y-91102976D01*
X117437380Y-91007738D01*
X117437380Y-90817261D01*
X117485000Y-90722023D01*
X117532619Y-90674404D01*
X117627857Y-90626785D01*
X117675476Y-90626785D01*
X117770714Y-90674404D01*
X117818333Y-90722023D01*
X117865952Y-90817261D01*
X117865952Y-91007738D01*
X117913571Y-91102976D01*
X117961190Y-91150595D01*
X118056428Y-91198214D01*
X118246904Y-91198214D01*
X118342142Y-91150595D01*
X118389761Y-91102976D01*
X118437380Y-91007738D01*
X118437380Y-90817261D01*
X118389761Y-90722023D01*
X118342142Y-90674404D01*
X118246904Y-90626785D01*
X118056428Y-90626785D01*
X117961190Y-90674404D01*
X117913571Y-90722023D01*
X117865952Y-90817261D01*
X122247380Y-91102976D02*
X122247380Y-91674404D01*
X122247380Y-91388690D02*
X121247380Y-91388690D01*
X121390238Y-91483928D01*
X121485476Y-91579166D01*
X121533095Y-91674404D01*
X122247380Y-90150595D02*
X122247380Y-90722023D01*
X122247380Y-90436309D02*
X121247380Y-90436309D01*
X121390238Y-90531547D01*
X121485476Y-90626785D01*
X121533095Y-90722023D01*
X113627380Y-90722023D02*
X113627380Y-90912500D01*
X113675000Y-91007738D01*
X113722619Y-91055357D01*
X113865476Y-91150595D01*
X114055952Y-91198214D01*
X114436904Y-91198214D01*
X114532142Y-91150595D01*
X114579761Y-91102976D01*
X114627380Y-91007738D01*
X114627380Y-90817261D01*
X114579761Y-90722023D01*
X114532142Y-90674404D01*
X114436904Y-90626785D01*
X114198809Y-90626785D01*
X114103571Y-90674404D01*
X114055952Y-90722023D01*
X114008333Y-90817261D01*
X114008333Y-91007738D01*
X114055952Y-91102976D01*
X114103571Y-91150595D01*
X114198809Y-91198214D01*
X100657380Y-90626785D02*
X100657380Y-91198214D01*
X100657380Y-90912500D02*
X99657380Y-90912500D01*
X99800238Y-91007738D01*
X99895476Y-91102976D01*
X99943095Y-91198214D01*
X109817380Y-90674404D02*
X109817380Y-91150595D01*
X110293571Y-91198214D01*
X110245952Y-91150595D01*
X110198333Y-91055357D01*
X110198333Y-90817261D01*
X110245952Y-90722023D01*
X110293571Y-90674404D01*
X110388809Y-90626785D01*
X110626904Y-90626785D01*
X110722142Y-90674404D01*
X110769761Y-90722023D01*
X110817380Y-90817261D01*
X110817380Y-91055357D01*
X110769761Y-91150595D01*
X110722142Y-91198214D01*
X112087380Y-91102976D02*
X112087380Y-90912500D01*
X112039761Y-90817261D01*
X111992142Y-90769642D01*
X111849285Y-90674404D01*
X111658809Y-90626785D01*
X111277857Y-90626785D01*
X111182619Y-90674404D01*
X111135000Y-90722023D01*
X111087380Y-90817261D01*
X111087380Y-91007738D01*
X111135000Y-91102976D01*
X111182619Y-91150595D01*
X111277857Y-91198214D01*
X111515952Y-91198214D01*
X111611190Y-91150595D01*
X111658809Y-91102976D01*
X111706428Y-91007738D01*
X111706428Y-90817261D01*
X111658809Y-90722023D01*
X111611190Y-90674404D01*
X111515952Y-90626785D01*
X115897380Y-91102976D02*
X115897380Y-91674404D01*
X115897380Y-91388690D02*
X114897380Y-91388690D01*
X115040238Y-91483928D01*
X115135476Y-91579166D01*
X115183095Y-91674404D01*
X114992619Y-90722023D02*
X114945000Y-90674404D01*
X114897380Y-90579166D01*
X114897380Y-90341071D01*
X114945000Y-90245833D01*
X114992619Y-90198214D01*
X115087857Y-90150595D01*
X115183095Y-90150595D01*
X115325952Y-90198214D01*
X115897380Y-90769642D01*
X115897380Y-90150595D01*
X104832619Y-91198214D02*
X104785000Y-91150595D01*
X104737380Y-91055357D01*
X104737380Y-90817261D01*
X104785000Y-90722023D01*
X104832619Y-90674404D01*
X104927857Y-90626785D01*
X105023095Y-90626785D01*
X105165952Y-90674404D01*
X105737380Y-91245833D01*
X105737380Y-90626785D01*
%TO.C,Y1*%
X91023809Y-83476190D02*
X91023809Y-83952380D01*
X90690476Y-82952380D02*
X91023809Y-83476190D01*
X91357142Y-82952380D01*
X92214285Y-83952380D02*
X91642857Y-83952380D01*
X91928571Y-83952380D02*
X91928571Y-82952380D01*
X91833333Y-83095238D01*
X91738095Y-83190476D01*
X91642857Y-83238095D01*
%TO.C,OR1*%
X96101380Y-87007928D02*
X96101380Y-86817452D01*
X96149000Y-86722214D01*
X96244238Y-86626976D01*
X96434714Y-86579357D01*
X96768047Y-86579357D01*
X96958523Y-86626976D01*
X97053761Y-86722214D01*
X97101380Y-86817452D01*
X97101380Y-87007928D01*
X97053761Y-87103166D01*
X96958523Y-87198404D01*
X96768047Y-87246023D01*
X96434714Y-87246023D01*
X96244238Y-87198404D01*
X96149000Y-87103166D01*
X96101380Y-87007928D01*
X97101380Y-85579357D02*
X96625190Y-85912690D01*
X97101380Y-86150785D02*
X96101380Y-86150785D01*
X96101380Y-85769833D01*
X96149000Y-85674595D01*
X96196619Y-85626976D01*
X96291857Y-85579357D01*
X96434714Y-85579357D01*
X96529952Y-85626976D01*
X96577571Y-85674595D01*
X96625190Y-85769833D01*
X96625190Y-86150785D01*
X97101380Y-84626976D02*
X97101380Y-85198404D01*
X97101380Y-84912690D02*
X96101380Y-84912690D01*
X96244238Y-85007928D01*
X96339476Y-85103166D01*
X96387095Y-85198404D01*
X103467380Y-85222023D02*
X104467380Y-84555357D01*
X103467380Y-84555357D02*
X104467380Y-85222023D01*
X103562619Y-84222023D02*
X103515000Y-84174404D01*
X103467380Y-84079166D01*
X103467380Y-83841071D01*
X103515000Y-83745833D01*
X103562619Y-83698214D01*
X103657857Y-83650595D01*
X103753095Y-83650595D01*
X103895952Y-83698214D01*
X104467380Y-84269642D01*
X104467380Y-83650595D01*
X119707380Y-84602976D02*
X119707380Y-85174404D01*
X119707380Y-84888690D02*
X118707380Y-84888690D01*
X118850238Y-84983928D01*
X118945476Y-85079166D01*
X118993095Y-85174404D01*
X118707380Y-83983928D02*
X118707380Y-83888690D01*
X118755000Y-83793452D01*
X118802619Y-83745833D01*
X118897857Y-83698214D01*
X119088333Y-83650595D01*
X119326428Y-83650595D01*
X119516904Y-83698214D01*
X119612142Y-83745833D01*
X119659761Y-83793452D01*
X119707380Y-83888690D01*
X119707380Y-83983928D01*
X119659761Y-84079166D01*
X119612142Y-84126785D01*
X119516904Y-84174404D01*
X119326428Y-84222023D01*
X119088333Y-84222023D01*
X118897857Y-84174404D01*
X118802619Y-84126785D01*
X118755000Y-84079166D01*
X118707380Y-83983928D01*
X106007380Y-84174404D02*
X106007380Y-84650595D01*
X106483571Y-84698214D01*
X106435952Y-84650595D01*
X106388333Y-84555357D01*
X106388333Y-84317261D01*
X106435952Y-84222023D01*
X106483571Y-84174404D01*
X106578809Y-84126785D01*
X106816904Y-84126785D01*
X106912142Y-84174404D01*
X106959761Y-84222023D01*
X107007380Y-84317261D01*
X107007380Y-84555357D01*
X106959761Y-84650595D01*
X106912142Y-84698214D01*
X101022619Y-84698214D02*
X100975000Y-84650595D01*
X100927380Y-84555357D01*
X100927380Y-84317261D01*
X100975000Y-84222023D01*
X101022619Y-84174404D01*
X101117857Y-84126785D01*
X101213095Y-84126785D01*
X101355952Y-84174404D01*
X101927380Y-84745833D01*
X101927380Y-84126785D01*
X100657380Y-84126785D02*
X100657380Y-84698214D01*
X100657380Y-84412500D02*
X99657380Y-84412500D01*
X99800238Y-84507738D01*
X99895476Y-84602976D01*
X99943095Y-84698214D01*
X98387380Y-85222023D02*
X99387380Y-84555357D01*
X98387380Y-84555357D02*
X99387380Y-85222023D01*
X99387380Y-83650595D02*
X99387380Y-84222023D01*
X99387380Y-83936309D02*
X98387380Y-83936309D01*
X98530238Y-84031547D01*
X98625476Y-84126785D01*
X98673095Y-84222023D01*
X113627380Y-84745833D02*
X113627380Y-84126785D01*
X114008333Y-84460119D01*
X114008333Y-84317261D01*
X114055952Y-84222023D01*
X114103571Y-84174404D01*
X114198809Y-84126785D01*
X114436904Y-84126785D01*
X114532142Y-84174404D01*
X114579761Y-84222023D01*
X114627380Y-84317261D01*
X114627380Y-84602976D01*
X114579761Y-84698214D01*
X114532142Y-84745833D01*
X105070714Y-84222023D02*
X105737380Y-84222023D01*
X104689761Y-84460119D02*
X105404047Y-84698214D01*
X105404047Y-84079166D01*
X121675952Y-84507738D02*
X121628333Y-84602976D01*
X121580714Y-84650595D01*
X121485476Y-84698214D01*
X121437857Y-84698214D01*
X121342619Y-84650595D01*
X121295000Y-84602976D01*
X121247380Y-84507738D01*
X121247380Y-84317261D01*
X121295000Y-84222023D01*
X121342619Y-84174404D01*
X121437857Y-84126785D01*
X121485476Y-84126785D01*
X121580714Y-84174404D01*
X121628333Y-84222023D01*
X121675952Y-84317261D01*
X121675952Y-84507738D01*
X121723571Y-84602976D01*
X121771190Y-84650595D01*
X121866428Y-84698214D01*
X122056904Y-84698214D01*
X122152142Y-84650595D01*
X122199761Y-84602976D01*
X122247380Y-84507738D01*
X122247380Y-84317261D01*
X122199761Y-84222023D01*
X122152142Y-84174404D01*
X122056904Y-84126785D01*
X121866428Y-84126785D01*
X121771190Y-84174404D01*
X121723571Y-84222023D01*
X121675952Y-84317261D01*
X117437380Y-84222023D02*
X117437380Y-84412500D01*
X117485000Y-84507738D01*
X117532619Y-84555357D01*
X117675476Y-84650595D01*
X117865952Y-84698214D01*
X118246904Y-84698214D01*
X118342142Y-84650595D01*
X118389761Y-84602976D01*
X118437380Y-84507738D01*
X118437380Y-84317261D01*
X118389761Y-84222023D01*
X118342142Y-84174404D01*
X118246904Y-84126785D01*
X118008809Y-84126785D01*
X117913571Y-84174404D01*
X117865952Y-84222023D01*
X117818333Y-84317261D01*
X117818333Y-84507738D01*
X117865952Y-84602976D01*
X117913571Y-84650595D01*
X118008809Y-84698214D01*
X115897380Y-84602976D02*
X115897380Y-84412500D01*
X115849761Y-84317261D01*
X115802142Y-84269642D01*
X115659285Y-84174404D01*
X115468809Y-84126785D01*
X115087857Y-84126785D01*
X114992619Y-84174404D01*
X114945000Y-84222023D01*
X114897380Y-84317261D01*
X114897380Y-84507738D01*
X114945000Y-84602976D01*
X114992619Y-84650595D01*
X115087857Y-84698214D01*
X115325952Y-84698214D01*
X115421190Y-84650595D01*
X115468809Y-84602976D01*
X115516428Y-84507738D01*
X115516428Y-84317261D01*
X115468809Y-84222023D01*
X115421190Y-84174404D01*
X115325952Y-84126785D01*
X123295190Y-84412500D02*
X123771380Y-84412500D01*
X122771380Y-84745833D02*
X123295190Y-84412500D01*
X122771380Y-84079166D01*
%TO.C,R9*%
X69423333Y-92252380D02*
X69090000Y-91776190D01*
X68851904Y-92252380D02*
X68851904Y-91252380D01*
X69232857Y-91252380D01*
X69328095Y-91300000D01*
X69375714Y-91347619D01*
X69423333Y-91442857D01*
X69423333Y-91585714D01*
X69375714Y-91680952D01*
X69328095Y-91728571D01*
X69232857Y-91776190D01*
X68851904Y-91776190D01*
X69899523Y-92252380D02*
X70090000Y-92252380D01*
X70185238Y-92204761D01*
X70232857Y-92157142D01*
X70328095Y-92014285D01*
X70375714Y-91823809D01*
X70375714Y-91442857D01*
X70328095Y-91347619D01*
X70280476Y-91300000D01*
X70185238Y-91252380D01*
X69994761Y-91252380D01*
X69899523Y-91300000D01*
X69851904Y-91347619D01*
X69804285Y-91442857D01*
X69804285Y-91680952D01*
X69851904Y-91776190D01*
X69899523Y-91823809D01*
X69994761Y-91871428D01*
X70185238Y-91871428D01*
X70280476Y-91823809D01*
X70328095Y-91776190D01*
X70375714Y-91680952D01*
%TO.C,X4*%
X84090476Y-82952380D02*
X84757142Y-83952380D01*
X84757142Y-82952380D02*
X84090476Y-83952380D01*
X85566666Y-83285714D02*
X85566666Y-83952380D01*
X85328571Y-82904761D02*
X85090476Y-83619047D01*
X85709523Y-83619047D01*
%TO.C,R10*%
X68947142Y-95952380D02*
X68613809Y-95476190D01*
X68375714Y-95952380D02*
X68375714Y-94952380D01*
X68756666Y-94952380D01*
X68851904Y-95000000D01*
X68899523Y-95047619D01*
X68947142Y-95142857D01*
X68947142Y-95285714D01*
X68899523Y-95380952D01*
X68851904Y-95428571D01*
X68756666Y-95476190D01*
X68375714Y-95476190D01*
X69899523Y-95952380D02*
X69328095Y-95952380D01*
X69613809Y-95952380D02*
X69613809Y-94952380D01*
X69518571Y-95095238D01*
X69423333Y-95190476D01*
X69328095Y-95238095D01*
X70518571Y-94952380D02*
X70613809Y-94952380D01*
X70709047Y-95000000D01*
X70756666Y-95047619D01*
X70804285Y-95142857D01*
X70851904Y-95333333D01*
X70851904Y-95571428D01*
X70804285Y-95761904D01*
X70756666Y-95857142D01*
X70709047Y-95904761D01*
X70613809Y-95952380D01*
X70518571Y-95952380D01*
X70423333Y-95904761D01*
X70375714Y-95857142D01*
X70328095Y-95761904D01*
X70280476Y-95571428D01*
X70280476Y-95333333D01*
X70328095Y-95142857D01*
X70375714Y-95047619D01*
X70423333Y-95000000D01*
X70518571Y-94952380D01*
%TO.C,SW4*%
X88666666Y-95804761D02*
X88809523Y-95852380D01*
X89047619Y-95852380D01*
X89142857Y-95804761D01*
X89190476Y-95757142D01*
X89238095Y-95661904D01*
X89238095Y-95566666D01*
X89190476Y-95471428D01*
X89142857Y-95423809D01*
X89047619Y-95376190D01*
X88857142Y-95328571D01*
X88761904Y-95280952D01*
X88714285Y-95233333D01*
X88666666Y-95138095D01*
X88666666Y-95042857D01*
X88714285Y-94947619D01*
X88761904Y-94900000D01*
X88857142Y-94852380D01*
X89095238Y-94852380D01*
X89238095Y-94900000D01*
X89571428Y-94852380D02*
X89809523Y-95852380D01*
X90000000Y-95138095D01*
X90190476Y-95852380D01*
X90428571Y-94852380D01*
X91238095Y-95185714D02*
X91238095Y-95852380D01*
X91000000Y-94804761D02*
X90761904Y-95519047D01*
X91380952Y-95519047D01*
%TO.C,Y*%
X91500000Y-53476190D02*
X91500000Y-53952380D01*
X91166666Y-52952380D02*
X91500000Y-53476190D01*
X91833333Y-52952380D01*
%TO.C,OR*%
X96101380Y-56531738D02*
X96101380Y-56341261D01*
X96149000Y-56246023D01*
X96244238Y-56150785D01*
X96434714Y-56103166D01*
X96768047Y-56103166D01*
X96958523Y-56150785D01*
X97053761Y-56246023D01*
X97101380Y-56341261D01*
X97101380Y-56531738D01*
X97053761Y-56626976D01*
X96958523Y-56722214D01*
X96768047Y-56769833D01*
X96434714Y-56769833D01*
X96244238Y-56722214D01*
X96149000Y-56626976D01*
X96101380Y-56531738D01*
X97101380Y-55103166D02*
X96625190Y-55436500D01*
X97101380Y-55674595D02*
X96101380Y-55674595D01*
X96101380Y-55293642D01*
X96149000Y-55198404D01*
X96196619Y-55150785D01*
X96291857Y-55103166D01*
X96434714Y-55103166D01*
X96529952Y-55150785D01*
X96577571Y-55198404D01*
X96625190Y-55293642D01*
X96625190Y-55674595D01*
X103467380Y-55222023D02*
X104467380Y-54555357D01*
X103467380Y-54555357D02*
X104467380Y-55222023D01*
X103562619Y-54222023D02*
X103515000Y-54174404D01*
X103467380Y-54079166D01*
X103467380Y-53841071D01*
X103515000Y-53745833D01*
X103562619Y-53698214D01*
X103657857Y-53650595D01*
X103753095Y-53650595D01*
X103895952Y-53698214D01*
X104467380Y-54269642D01*
X104467380Y-53650595D01*
X119707380Y-54602976D02*
X119707380Y-55174404D01*
X119707380Y-54888690D02*
X118707380Y-54888690D01*
X118850238Y-54983928D01*
X118945476Y-55079166D01*
X118993095Y-55174404D01*
X118707380Y-53983928D02*
X118707380Y-53888690D01*
X118755000Y-53793452D01*
X118802619Y-53745833D01*
X118897857Y-53698214D01*
X119088333Y-53650595D01*
X119326428Y-53650595D01*
X119516904Y-53698214D01*
X119612142Y-53745833D01*
X119659761Y-53793452D01*
X119707380Y-53888690D01*
X119707380Y-53983928D01*
X119659761Y-54079166D01*
X119612142Y-54126785D01*
X119516904Y-54174404D01*
X119326428Y-54222023D01*
X119088333Y-54222023D01*
X118897857Y-54174404D01*
X118802619Y-54126785D01*
X118755000Y-54079166D01*
X118707380Y-53983928D01*
X106007380Y-54174404D02*
X106007380Y-54650595D01*
X106483571Y-54698214D01*
X106435952Y-54650595D01*
X106388333Y-54555357D01*
X106388333Y-54317261D01*
X106435952Y-54222023D01*
X106483571Y-54174404D01*
X106578809Y-54126785D01*
X106816904Y-54126785D01*
X106912142Y-54174404D01*
X106959761Y-54222023D01*
X107007380Y-54317261D01*
X107007380Y-54555357D01*
X106959761Y-54650595D01*
X106912142Y-54698214D01*
X101022619Y-54698214D02*
X100975000Y-54650595D01*
X100927380Y-54555357D01*
X100927380Y-54317261D01*
X100975000Y-54222023D01*
X101022619Y-54174404D01*
X101117857Y-54126785D01*
X101213095Y-54126785D01*
X101355952Y-54174404D01*
X101927380Y-54745833D01*
X101927380Y-54126785D01*
X100657380Y-54126785D02*
X100657380Y-54698214D01*
X100657380Y-54412500D02*
X99657380Y-54412500D01*
X99800238Y-54507738D01*
X99895476Y-54602976D01*
X99943095Y-54698214D01*
X98387380Y-55222023D02*
X99387380Y-54555357D01*
X98387380Y-54555357D02*
X99387380Y-55222023D01*
X99387380Y-53650595D02*
X99387380Y-54222023D01*
X99387380Y-53936309D02*
X98387380Y-53936309D01*
X98530238Y-54031547D01*
X98625476Y-54126785D01*
X98673095Y-54222023D01*
X113627380Y-54745833D02*
X113627380Y-54126785D01*
X114008333Y-54460119D01*
X114008333Y-54317261D01*
X114055952Y-54222023D01*
X114103571Y-54174404D01*
X114198809Y-54126785D01*
X114436904Y-54126785D01*
X114532142Y-54174404D01*
X114579761Y-54222023D01*
X114627380Y-54317261D01*
X114627380Y-54602976D01*
X114579761Y-54698214D01*
X114532142Y-54745833D01*
X105070714Y-54222023D02*
X105737380Y-54222023D01*
X104689761Y-54460119D02*
X105404047Y-54698214D01*
X105404047Y-54079166D01*
X121675952Y-54507738D02*
X121628333Y-54602976D01*
X121580714Y-54650595D01*
X121485476Y-54698214D01*
X121437857Y-54698214D01*
X121342619Y-54650595D01*
X121295000Y-54602976D01*
X121247380Y-54507738D01*
X121247380Y-54317261D01*
X121295000Y-54222023D01*
X121342619Y-54174404D01*
X121437857Y-54126785D01*
X121485476Y-54126785D01*
X121580714Y-54174404D01*
X121628333Y-54222023D01*
X121675952Y-54317261D01*
X121675952Y-54507738D01*
X121723571Y-54602976D01*
X121771190Y-54650595D01*
X121866428Y-54698214D01*
X122056904Y-54698214D01*
X122152142Y-54650595D01*
X122199761Y-54602976D01*
X122247380Y-54507738D01*
X122247380Y-54317261D01*
X122199761Y-54222023D01*
X122152142Y-54174404D01*
X122056904Y-54126785D01*
X121866428Y-54126785D01*
X121771190Y-54174404D01*
X121723571Y-54222023D01*
X121675952Y-54317261D01*
X117437380Y-54222023D02*
X117437380Y-54412500D01*
X117485000Y-54507738D01*
X117532619Y-54555357D01*
X117675476Y-54650595D01*
X117865952Y-54698214D01*
X118246904Y-54698214D01*
X118342142Y-54650595D01*
X118389761Y-54602976D01*
X118437380Y-54507738D01*
X118437380Y-54317261D01*
X118389761Y-54222023D01*
X118342142Y-54174404D01*
X118246904Y-54126785D01*
X118008809Y-54126785D01*
X117913571Y-54174404D01*
X117865952Y-54222023D01*
X117818333Y-54317261D01*
X117818333Y-54507738D01*
X117865952Y-54602976D01*
X117913571Y-54650595D01*
X118008809Y-54698214D01*
X115897380Y-54602976D02*
X115897380Y-54412500D01*
X115849761Y-54317261D01*
X115802142Y-54269642D01*
X115659285Y-54174404D01*
X115468809Y-54126785D01*
X115087857Y-54126785D01*
X114992619Y-54174404D01*
X114945000Y-54222023D01*
X114897380Y-54317261D01*
X114897380Y-54507738D01*
X114945000Y-54602976D01*
X114992619Y-54650595D01*
X115087857Y-54698214D01*
X115325952Y-54698214D01*
X115421190Y-54650595D01*
X115468809Y-54602976D01*
X115516428Y-54507738D01*
X115516428Y-54317261D01*
X115468809Y-54222023D01*
X115421190Y-54174404D01*
X115325952Y-54126785D01*
X123295190Y-54412500D02*
X123771380Y-54412500D01*
X122771380Y-54745833D02*
X123295190Y-54412500D01*
X122771380Y-54079166D01*
%TO.C,XOR*%
X96101380Y-63793642D02*
X97101380Y-63126976D01*
X96101380Y-63126976D02*
X97101380Y-63793642D01*
X96101380Y-62555547D02*
X96101380Y-62365071D01*
X96149000Y-62269833D01*
X96244238Y-62174595D01*
X96434714Y-62126976D01*
X96768047Y-62126976D01*
X96958523Y-62174595D01*
X97053761Y-62269833D01*
X97101380Y-62365071D01*
X97101380Y-62555547D01*
X97053761Y-62650785D01*
X96958523Y-62746023D01*
X96768047Y-62793642D01*
X96434714Y-62793642D01*
X96244238Y-62746023D01*
X96149000Y-62650785D01*
X96101380Y-62555547D01*
X97101380Y-61126976D02*
X96625190Y-61460309D01*
X97101380Y-61698404D02*
X96101380Y-61698404D01*
X96101380Y-61317452D01*
X96149000Y-61222214D01*
X96196619Y-61174595D01*
X96291857Y-61126976D01*
X96434714Y-61126976D01*
X96529952Y-61174595D01*
X96577571Y-61222214D01*
X96625190Y-61317452D01*
X96625190Y-61698404D01*
X101260714Y-60722023D02*
X101927380Y-60722023D01*
X100879761Y-60960119D02*
X101594047Y-61198214D01*
X101594047Y-60579166D01*
X103467380Y-61722023D02*
X104467380Y-61055357D01*
X103467380Y-61055357D02*
X104467380Y-61722023D01*
X103562619Y-60722023D02*
X103515000Y-60674404D01*
X103467380Y-60579166D01*
X103467380Y-60341071D01*
X103515000Y-60245833D01*
X103562619Y-60198214D01*
X103657857Y-60150595D01*
X103753095Y-60150595D01*
X103895952Y-60198214D01*
X104467380Y-60769642D01*
X104467380Y-60150595D01*
X119707380Y-61102976D02*
X119707380Y-61674404D01*
X119707380Y-61388690D02*
X118707380Y-61388690D01*
X118850238Y-61483928D01*
X118945476Y-61579166D01*
X118993095Y-61674404D01*
X118707380Y-60769642D02*
X118707380Y-60150595D01*
X119088333Y-60483928D01*
X119088333Y-60341071D01*
X119135952Y-60245833D01*
X119183571Y-60198214D01*
X119278809Y-60150595D01*
X119516904Y-60150595D01*
X119612142Y-60198214D01*
X119659761Y-60245833D01*
X119707380Y-60341071D01*
X119707380Y-60626785D01*
X119659761Y-60722023D01*
X119612142Y-60769642D01*
X98387380Y-61722023D02*
X99387380Y-61055357D01*
X98387380Y-61055357D02*
X99387380Y-61722023D01*
X99387380Y-60150595D02*
X99387380Y-60722023D01*
X99387380Y-60436309D02*
X98387380Y-60436309D01*
X98530238Y-60531547D01*
X98625476Y-60626785D01*
X98673095Y-60722023D01*
X123295190Y-60912500D02*
X123771380Y-60912500D01*
X122771380Y-61245833D02*
X123295190Y-60912500D01*
X122771380Y-60579166D01*
X108547380Y-61245833D02*
X108547380Y-60626785D01*
X108928333Y-60960119D01*
X108928333Y-60817261D01*
X108975952Y-60722023D01*
X109023571Y-60674404D01*
X109118809Y-60626785D01*
X109356904Y-60626785D01*
X109452142Y-60674404D01*
X109499761Y-60722023D01*
X109547380Y-60817261D01*
X109547380Y-61102976D01*
X109499761Y-61198214D01*
X109452142Y-61245833D01*
X107007380Y-61102976D02*
X107007380Y-61674404D01*
X107007380Y-61388690D02*
X106007380Y-61388690D01*
X106150238Y-61483928D01*
X106245476Y-61579166D01*
X106293095Y-61674404D01*
X106007380Y-60483928D02*
X106007380Y-60388690D01*
X106055000Y-60293452D01*
X106102619Y-60245833D01*
X106197857Y-60198214D01*
X106388333Y-60150595D01*
X106626428Y-60150595D01*
X106816904Y-60198214D01*
X106912142Y-60245833D01*
X106959761Y-60293452D01*
X107007380Y-60388690D01*
X107007380Y-60483928D01*
X106959761Y-60579166D01*
X106912142Y-60626785D01*
X106816904Y-60674404D01*
X106626428Y-60722023D01*
X106388333Y-60722023D01*
X106197857Y-60674404D01*
X106102619Y-60626785D01*
X106055000Y-60579166D01*
X106007380Y-60483928D01*
X117865952Y-61007738D02*
X117818333Y-61102976D01*
X117770714Y-61150595D01*
X117675476Y-61198214D01*
X117627857Y-61198214D01*
X117532619Y-61150595D01*
X117485000Y-61102976D01*
X117437380Y-61007738D01*
X117437380Y-60817261D01*
X117485000Y-60722023D01*
X117532619Y-60674404D01*
X117627857Y-60626785D01*
X117675476Y-60626785D01*
X117770714Y-60674404D01*
X117818333Y-60722023D01*
X117865952Y-60817261D01*
X117865952Y-61007738D01*
X117913571Y-61102976D01*
X117961190Y-61150595D01*
X118056428Y-61198214D01*
X118246904Y-61198214D01*
X118342142Y-61150595D01*
X118389761Y-61102976D01*
X118437380Y-61007738D01*
X118437380Y-60817261D01*
X118389761Y-60722023D01*
X118342142Y-60674404D01*
X118246904Y-60626785D01*
X118056428Y-60626785D01*
X117961190Y-60674404D01*
X117913571Y-60722023D01*
X117865952Y-60817261D01*
X122247380Y-61102976D02*
X122247380Y-61674404D01*
X122247380Y-61388690D02*
X121247380Y-61388690D01*
X121390238Y-61483928D01*
X121485476Y-61579166D01*
X121533095Y-61674404D01*
X122247380Y-60150595D02*
X122247380Y-60722023D01*
X122247380Y-60436309D02*
X121247380Y-60436309D01*
X121390238Y-60531547D01*
X121485476Y-60626785D01*
X121533095Y-60722023D01*
X113627380Y-60722023D02*
X113627380Y-60912500D01*
X113675000Y-61007738D01*
X113722619Y-61055357D01*
X113865476Y-61150595D01*
X114055952Y-61198214D01*
X114436904Y-61198214D01*
X114532142Y-61150595D01*
X114579761Y-61102976D01*
X114627380Y-61007738D01*
X114627380Y-60817261D01*
X114579761Y-60722023D01*
X114532142Y-60674404D01*
X114436904Y-60626785D01*
X114198809Y-60626785D01*
X114103571Y-60674404D01*
X114055952Y-60722023D01*
X114008333Y-60817261D01*
X114008333Y-61007738D01*
X114055952Y-61102976D01*
X114103571Y-61150595D01*
X114198809Y-61198214D01*
X100657380Y-60626785D02*
X100657380Y-61198214D01*
X100657380Y-60912500D02*
X99657380Y-60912500D01*
X99800238Y-61007738D01*
X99895476Y-61102976D01*
X99943095Y-61198214D01*
X109817380Y-60674404D02*
X109817380Y-61150595D01*
X110293571Y-61198214D01*
X110245952Y-61150595D01*
X110198333Y-61055357D01*
X110198333Y-60817261D01*
X110245952Y-60722023D01*
X110293571Y-60674404D01*
X110388809Y-60626785D01*
X110626904Y-60626785D01*
X110722142Y-60674404D01*
X110769761Y-60722023D01*
X110817380Y-60817261D01*
X110817380Y-61055357D01*
X110769761Y-61150595D01*
X110722142Y-61198214D01*
X112087380Y-61102976D02*
X112087380Y-60912500D01*
X112039761Y-60817261D01*
X111992142Y-60769642D01*
X111849285Y-60674404D01*
X111658809Y-60626785D01*
X111277857Y-60626785D01*
X111182619Y-60674404D01*
X111135000Y-60722023D01*
X111087380Y-60817261D01*
X111087380Y-61007738D01*
X111135000Y-61102976D01*
X111182619Y-61150595D01*
X111277857Y-61198214D01*
X111515952Y-61198214D01*
X111611190Y-61150595D01*
X111658809Y-61102976D01*
X111706428Y-61007738D01*
X111706428Y-60817261D01*
X111658809Y-60722023D01*
X111611190Y-60674404D01*
X111515952Y-60626785D01*
X115897380Y-61102976D02*
X115897380Y-61674404D01*
X115897380Y-61388690D02*
X114897380Y-61388690D01*
X115040238Y-61483928D01*
X115135476Y-61579166D01*
X115183095Y-61674404D01*
X114992619Y-60722023D02*
X114945000Y-60674404D01*
X114897380Y-60579166D01*
X114897380Y-60341071D01*
X114945000Y-60245833D01*
X114992619Y-60198214D01*
X115087857Y-60150595D01*
X115183095Y-60150595D01*
X115325952Y-60198214D01*
X115897380Y-60769642D01*
X115897380Y-60150595D01*
X104832619Y-61198214D02*
X104785000Y-61150595D01*
X104737380Y-61055357D01*
X104737380Y-60817261D01*
X104785000Y-60722023D01*
X104832619Y-60674404D01*
X104927857Y-60626785D01*
X105023095Y-60626785D01*
X105165952Y-60674404D01*
X105737380Y-61245833D01*
X105737380Y-60626785D01*
%TO.C,R3*%
X69433333Y-58252380D02*
X69100000Y-57776190D01*
X68861904Y-58252380D02*
X68861904Y-57252380D01*
X69242857Y-57252380D01*
X69338095Y-57300000D01*
X69385714Y-57347619D01*
X69433333Y-57442857D01*
X69433333Y-57585714D01*
X69385714Y-57680952D01*
X69338095Y-57728571D01*
X69242857Y-57776190D01*
X68861904Y-57776190D01*
X69766666Y-57252380D02*
X70385714Y-57252380D01*
X70052380Y-57633333D01*
X70195238Y-57633333D01*
X70290476Y-57680952D01*
X70338095Y-57728571D01*
X70385714Y-57823809D01*
X70385714Y-58061904D01*
X70338095Y-58157142D01*
X70290476Y-58204761D01*
X70195238Y-58252380D01*
X69909523Y-58252380D01*
X69814285Y-58204761D01*
X69766666Y-58157142D01*
%TO.C,R2*%
X69333333Y-54652380D02*
X69000000Y-54176190D01*
X68761904Y-54652380D02*
X68761904Y-53652380D01*
X69142857Y-53652380D01*
X69238095Y-53700000D01*
X69285714Y-53747619D01*
X69333333Y-53842857D01*
X69333333Y-53985714D01*
X69285714Y-54080952D01*
X69238095Y-54128571D01*
X69142857Y-54176190D01*
X68761904Y-54176190D01*
X69714285Y-53747619D02*
X69761904Y-53700000D01*
X69857142Y-53652380D01*
X70095238Y-53652380D01*
X70190476Y-53700000D01*
X70238095Y-53747619D01*
X70285714Y-53842857D01*
X70285714Y-53938095D01*
X70238095Y-54080952D01*
X69666666Y-54652380D01*
X70285714Y-54652380D01*
%TO.C,74HC00*%
X41952380Y-58775714D02*
X41952380Y-58109047D01*
X42952380Y-58537619D01*
X42285714Y-57299523D02*
X42952380Y-57299523D01*
X41904761Y-57537619D02*
X42619047Y-57775714D01*
X42619047Y-57156666D01*
X42952380Y-56775714D02*
X41952380Y-56775714D01*
X42428571Y-56775714D02*
X42428571Y-56204285D01*
X42952380Y-56204285D02*
X41952380Y-56204285D01*
X42857142Y-55156666D02*
X42904761Y-55204285D01*
X42952380Y-55347142D01*
X42952380Y-55442380D01*
X42904761Y-55585238D01*
X42809523Y-55680476D01*
X42714285Y-55728095D01*
X42523809Y-55775714D01*
X42380952Y-55775714D01*
X42190476Y-55728095D01*
X42095238Y-55680476D01*
X42000000Y-55585238D01*
X41952380Y-55442380D01*
X41952380Y-55347142D01*
X42000000Y-55204285D01*
X42047619Y-55156666D01*
X41952380Y-54537619D02*
X41952380Y-54442380D01*
X42000000Y-54347142D01*
X42047619Y-54299523D01*
X42142857Y-54251904D01*
X42333333Y-54204285D01*
X42571428Y-54204285D01*
X42761904Y-54251904D01*
X42857142Y-54299523D01*
X42904761Y-54347142D01*
X42952380Y-54442380D01*
X42952380Y-54537619D01*
X42904761Y-54632857D01*
X42857142Y-54680476D01*
X42761904Y-54728095D01*
X42571428Y-54775714D01*
X42333333Y-54775714D01*
X42142857Y-54728095D01*
X42047619Y-54680476D01*
X42000000Y-54632857D01*
X41952380Y-54537619D01*
X41952380Y-53585238D02*
X41952380Y-53490000D01*
X42000000Y-53394761D01*
X42047619Y-53347142D01*
X42142857Y-53299523D01*
X42333333Y-53251904D01*
X42571428Y-53251904D01*
X42761904Y-53299523D01*
X42857142Y-53347142D01*
X42904761Y-53394761D01*
X42952380Y-53490000D01*
X42952380Y-53585238D01*
X42904761Y-53680476D01*
X42857142Y-53728095D01*
X42761904Y-53775714D01*
X42571428Y-53823333D01*
X42333333Y-53823333D01*
X42142857Y-53775714D01*
X42047619Y-53728095D01*
X42000000Y-53680476D01*
X41952380Y-53585238D01*
%TO.C,SW1*%
X78666666Y-65804761D02*
X78809523Y-65852380D01*
X79047619Y-65852380D01*
X79142857Y-65804761D01*
X79190476Y-65757142D01*
X79238095Y-65661904D01*
X79238095Y-65566666D01*
X79190476Y-65471428D01*
X79142857Y-65423809D01*
X79047619Y-65376190D01*
X78857142Y-65328571D01*
X78761904Y-65280952D01*
X78714285Y-65233333D01*
X78666666Y-65138095D01*
X78666666Y-65042857D01*
X78714285Y-64947619D01*
X78761904Y-64900000D01*
X78857142Y-64852380D01*
X79095238Y-64852380D01*
X79238095Y-64900000D01*
X79571428Y-64852380D02*
X79809523Y-65852380D01*
X80000000Y-65138095D01*
X80190476Y-65852380D01*
X80428571Y-64852380D01*
X81333333Y-65852380D02*
X80761904Y-65852380D01*
X81047619Y-65852380D02*
X81047619Y-64852380D01*
X80952380Y-64995238D01*
X80857142Y-65090476D01*
X80761904Y-65138095D01*
%TO.C,R1*%
X69433333Y-50752380D02*
X69100000Y-50276190D01*
X68861904Y-50752380D02*
X68861904Y-49752380D01*
X69242857Y-49752380D01*
X69338095Y-49800000D01*
X69385714Y-49847619D01*
X69433333Y-49942857D01*
X69433333Y-50085714D01*
X69385714Y-50180952D01*
X69338095Y-50228571D01*
X69242857Y-50276190D01*
X68861904Y-50276190D01*
X70385714Y-50752380D02*
X69814285Y-50752380D01*
X70100000Y-50752380D02*
X70100000Y-49752380D01*
X70004761Y-49895238D01*
X69909523Y-49990476D01*
X69814285Y-50038095D01*
%TO.C,X1*%
X77590476Y-52952380D02*
X78257142Y-53952380D01*
X78257142Y-52952380D02*
X77590476Y-53952380D01*
X79161904Y-53952380D02*
X78590476Y-53952380D01*
X78876190Y-53952380D02*
X78876190Y-52952380D01*
X78780952Y-53095238D01*
X78685714Y-53190476D01*
X78590476Y-53238095D01*
%TO.C,AND*%
X96815666Y-50698404D02*
X96815666Y-50222214D01*
X97101380Y-50793642D02*
X96101380Y-50460309D01*
X97101380Y-50126976D01*
X97101380Y-49793642D02*
X96101380Y-49793642D01*
X97101380Y-49222214D01*
X96101380Y-49222214D01*
X97101380Y-48746023D02*
X96101380Y-48746023D01*
X96101380Y-48507928D01*
X96149000Y-48365071D01*
X96244238Y-48269833D01*
X96339476Y-48222214D01*
X96529952Y-48174595D01*
X96672809Y-48174595D01*
X96863285Y-48222214D01*
X96958523Y-48269833D01*
X97053761Y-48365071D01*
X97101380Y-48507928D01*
X97101380Y-48746023D01*
X98387380Y-48722023D02*
X99387380Y-48055357D01*
X98387380Y-48055357D02*
X99387380Y-48722023D01*
X99387380Y-47150595D02*
X99387380Y-47722023D01*
X99387380Y-47436309D02*
X98387380Y-47436309D01*
X98530238Y-47531547D01*
X98625476Y-47626785D01*
X98673095Y-47722023D01*
X111087380Y-47674404D02*
X111087380Y-48150595D01*
X111563571Y-48198214D01*
X111515952Y-48150595D01*
X111468333Y-48055357D01*
X111468333Y-47817261D01*
X111515952Y-47722023D01*
X111563571Y-47674404D01*
X111658809Y-47626785D01*
X111896904Y-47626785D01*
X111992142Y-47674404D01*
X112039761Y-47722023D01*
X112087380Y-47817261D01*
X112087380Y-48055357D01*
X112039761Y-48150595D01*
X111992142Y-48198214D01*
X121247380Y-47722023D02*
X121247380Y-47912500D01*
X121295000Y-48007738D01*
X121342619Y-48055357D01*
X121485476Y-48150595D01*
X121675952Y-48198214D01*
X122056904Y-48198214D01*
X122152142Y-48150595D01*
X122199761Y-48102976D01*
X122247380Y-48007738D01*
X122247380Y-47817261D01*
X122199761Y-47722023D01*
X122152142Y-47674404D01*
X122056904Y-47626785D01*
X121818809Y-47626785D01*
X121723571Y-47674404D01*
X121675952Y-47722023D01*
X121628333Y-47817261D01*
X121628333Y-48007738D01*
X121675952Y-48102976D01*
X121723571Y-48150595D01*
X121818809Y-48198214D01*
X108547380Y-48245833D02*
X108547380Y-47626785D01*
X108928333Y-47960119D01*
X108928333Y-47817261D01*
X108975952Y-47722023D01*
X109023571Y-47674404D01*
X109118809Y-47626785D01*
X109356904Y-47626785D01*
X109452142Y-47674404D01*
X109499761Y-47722023D01*
X109547380Y-47817261D01*
X109547380Y-48102976D01*
X109499761Y-48198214D01*
X109452142Y-48245833D01*
X100657380Y-47626785D02*
X100657380Y-48198214D01*
X100657380Y-47912500D02*
X99657380Y-47912500D01*
X99800238Y-48007738D01*
X99895476Y-48102976D01*
X99943095Y-48198214D01*
X110150714Y-47722023D02*
X110817380Y-47722023D01*
X109769761Y-47960119D02*
X110484047Y-48198214D01*
X110484047Y-47579166D01*
X123295190Y-47912500D02*
X123771380Y-47912500D01*
X122771380Y-48245833D02*
X123295190Y-47912500D01*
X122771380Y-47579166D01*
X104832619Y-48198214D02*
X104785000Y-48150595D01*
X104737380Y-48055357D01*
X104737380Y-47817261D01*
X104785000Y-47722023D01*
X104832619Y-47674404D01*
X104927857Y-47626785D01*
X105023095Y-47626785D01*
X105165952Y-47674404D01*
X105737380Y-48245833D01*
X105737380Y-47626785D01*
X103467380Y-48722023D02*
X104467380Y-48055357D01*
X103467380Y-48055357D02*
X104467380Y-48722023D01*
X103562619Y-47722023D02*
X103515000Y-47674404D01*
X103467380Y-47579166D01*
X103467380Y-47341071D01*
X103515000Y-47245833D01*
X103562619Y-47198214D01*
X103657857Y-47150595D01*
X103753095Y-47150595D01*
X103895952Y-47198214D01*
X104467380Y-47769642D01*
X104467380Y-47150595D01*
%TO.C,R5*%
X69423333Y-65952380D02*
X69090000Y-65476190D01*
X68851904Y-65952380D02*
X68851904Y-64952380D01*
X69232857Y-64952380D01*
X69328095Y-65000000D01*
X69375714Y-65047619D01*
X69423333Y-65142857D01*
X69423333Y-65285714D01*
X69375714Y-65380952D01*
X69328095Y-65428571D01*
X69232857Y-65476190D01*
X68851904Y-65476190D01*
X70328095Y-64952380D02*
X69851904Y-64952380D01*
X69804285Y-65428571D01*
X69851904Y-65380952D01*
X69947142Y-65333333D01*
X70185238Y-65333333D01*
X70280476Y-65380952D01*
X70328095Y-65428571D01*
X70375714Y-65523809D01*
X70375714Y-65761904D01*
X70328095Y-65857142D01*
X70280476Y-65904761D01*
X70185238Y-65952380D01*
X69947142Y-65952380D01*
X69851904Y-65904761D01*
X69804285Y-65857142D01*
%TO.C,R4*%
X69423333Y-62252380D02*
X69090000Y-61776190D01*
X68851904Y-62252380D02*
X68851904Y-61252380D01*
X69232857Y-61252380D01*
X69328095Y-61300000D01*
X69375714Y-61347619D01*
X69423333Y-61442857D01*
X69423333Y-61585714D01*
X69375714Y-61680952D01*
X69328095Y-61728571D01*
X69232857Y-61776190D01*
X68851904Y-61776190D01*
X70280476Y-61585714D02*
X70280476Y-62252380D01*
X70042380Y-61204761D02*
X69804285Y-61919047D01*
X70423333Y-61919047D01*
%TO.C,X2*%
X84090476Y-52952380D02*
X84757142Y-53952380D01*
X84757142Y-52952380D02*
X84090476Y-53952380D01*
X85090476Y-53047619D02*
X85138095Y-53000000D01*
X85233333Y-52952380D01*
X85471428Y-52952380D01*
X85566666Y-53000000D01*
X85614285Y-53047619D01*
X85661904Y-53142857D01*
X85661904Y-53238095D01*
X85614285Y-53380952D01*
X85042857Y-53952380D01*
X85661904Y-53952380D01*
%TO.C,SW2*%
X88666666Y-65804761D02*
X88809523Y-65852380D01*
X89047619Y-65852380D01*
X89142857Y-65804761D01*
X89190476Y-65757142D01*
X89238095Y-65661904D01*
X89238095Y-65566666D01*
X89190476Y-65471428D01*
X89142857Y-65423809D01*
X89047619Y-65376190D01*
X88857142Y-65328571D01*
X88761904Y-65280952D01*
X88714285Y-65233333D01*
X88666666Y-65138095D01*
X88666666Y-65042857D01*
X88714285Y-64947619D01*
X88761904Y-64900000D01*
X88857142Y-64852380D01*
X89095238Y-64852380D01*
X89238095Y-64900000D01*
X89571428Y-64852380D02*
X89809523Y-65852380D01*
X90000000Y-65138095D01*
X90190476Y-65852380D01*
X90428571Y-64852380D01*
X90761904Y-64947619D02*
X90809523Y-64900000D01*
X90904761Y-64852380D01*
X91142857Y-64852380D01*
X91238095Y-64900000D01*
X91285714Y-64947619D01*
X91333333Y-65042857D01*
X91333333Y-65138095D01*
X91285714Y-65280952D01*
X90714285Y-65852380D01*
X91333333Y-65852380D01*
D11*
%TO.C,AND2*%
X97665000Y-106642500D02*
X124335000Y-106642500D01*
X124335000Y-106642500D02*
X124335000Y-112357500D01*
X124335000Y-112357500D02*
X97665000Y-112357500D01*
X97665000Y-112357500D02*
X97665000Y-106642500D01*
%TO.C,X5*%
X77320163Y-108963870D02*
G75*
G03*
X77320000Y-111045961I1079837J-1041130D01*
G01*
X77321392Y-108332665D02*
G75*
G03*
X77164484Y-111565000I1078608J-1672335D01*
G01*
X79635516Y-111565000D02*
G75*
G03*
X79478608Y-108332665I-1235516J1560000D01*
G01*
X79480000Y-111045961D02*
G75*
G03*
X79479837Y-108963870I-1080000J1040961D01*
G01*
X77164000Y-111565000D02*
X77320000Y-111565000D01*
X79480000Y-111565000D02*
X79636000Y-111565000D01*
%TO.C,R11*%
X67680000Y-107580000D02*
X67680000Y-109420000D01*
X72470000Y-108500000D02*
X71520000Y-108500000D01*
X71520000Y-107580000D02*
X67680000Y-107580000D01*
X71520000Y-109420000D02*
X71520000Y-107580000D01*
X67680000Y-109420000D02*
X71520000Y-109420000D01*
X66730000Y-108500000D02*
X67680000Y-108500000D01*
%TO.C,SW5*%
X79250000Y-123500000D02*
X80750000Y-123500000D01*
X80750000Y-116500000D02*
X79250000Y-116500000D01*
X76750000Y-117750000D02*
X76750000Y-122250000D01*
X83250000Y-122250000D02*
X83250000Y-117750000D01*
%TO.C,74HC2*%
X44045000Y-116990000D02*
G75*
G03*
X44045000Y-114990000I0J1000000D01*
G01*
X44045000Y-113340000D02*
X44045000Y-114990000D01*
X44045000Y-116990000D02*
X44045000Y-118640000D01*
X44045000Y-118640000D02*
X61945000Y-118640000D01*
X61945000Y-118640000D02*
X61945000Y-113340000D01*
X61945000Y-113340000D02*
X44045000Y-113340000D01*
%TO.C,R12*%
X71510000Y-113320000D02*
X71510000Y-111480000D01*
X72460000Y-112400000D02*
X71510000Y-112400000D01*
X67670000Y-111480000D02*
X67670000Y-113320000D01*
X71510000Y-111480000D02*
X67670000Y-111480000D01*
X66720000Y-112400000D02*
X67670000Y-112400000D01*
X67670000Y-113320000D02*
X71510000Y-113320000D01*
%TO.C,R13*%
X66730000Y-116000000D02*
X67680000Y-116000000D01*
X67680000Y-115080000D02*
X67680000Y-116920000D01*
X71520000Y-115080000D02*
X67680000Y-115080000D01*
X71520000Y-116920000D02*
X71520000Y-115080000D01*
X72470000Y-116000000D02*
X71520000Y-116000000D01*
X67680000Y-116920000D02*
X71520000Y-116920000D01*
%TO.C,XOR2*%
X97665000Y-119642500D02*
X124335000Y-119642500D01*
X124335000Y-119642500D02*
X124335000Y-125357500D01*
X124335000Y-125357500D02*
X97665000Y-125357500D01*
X97665000Y-125357500D02*
X97665000Y-119642500D01*
%TO.C,Y2*%
X92735516Y-111565000D02*
G75*
G03*
X92578608Y-108332665I-1235516J1560000D01*
G01*
X92580000Y-111045961D02*
G75*
G03*
X92579837Y-108963870I-1080000J1040961D01*
G01*
X90421392Y-108332665D02*
G75*
G03*
X90264484Y-111565000I1078608J-1672335D01*
G01*
X90420163Y-108963870D02*
G75*
G03*
X90420000Y-111045961I1079837J-1041130D01*
G01*
X92580000Y-111565000D02*
X92736000Y-111565000D01*
X90264000Y-111565000D02*
X90420000Y-111565000D01*
%TO.C,OR2*%
X97665000Y-113142500D02*
X124335000Y-113142500D01*
X124335000Y-113142500D02*
X124335000Y-118857500D01*
X124335000Y-118857500D02*
X97665000Y-118857500D01*
X97665000Y-118857500D02*
X97665000Y-113142500D01*
%TO.C,R14*%
X67670000Y-119080000D02*
X67670000Y-120920000D01*
X72460000Y-120000000D02*
X71510000Y-120000000D01*
X71510000Y-120920000D02*
X71510000Y-119080000D01*
X67670000Y-120920000D02*
X71510000Y-120920000D01*
X71510000Y-119080000D02*
X67670000Y-119080000D01*
X66720000Y-120000000D02*
X67670000Y-120000000D01*
%TO.C,X6*%
X86135516Y-111565000D02*
G75*
G03*
X85978608Y-108332665I-1235516J1560000D01*
G01*
X83821392Y-108332665D02*
G75*
G03*
X83664484Y-111565000I1078608J-1672335D01*
G01*
X83820163Y-108963870D02*
G75*
G03*
X83820000Y-111045961I1079837J-1041130D01*
G01*
X85980000Y-111045961D02*
G75*
G03*
X85979837Y-108963870I-1080000J1040961D01*
G01*
X85980000Y-111565000D02*
X86136000Y-111565000D01*
X83664000Y-111565000D02*
X83820000Y-111565000D01*
%TO.C,R15*%
X71510000Y-124674000D02*
X71510000Y-122834000D01*
X72460000Y-123754000D02*
X71510000Y-123754000D01*
X66720000Y-123754000D02*
X67670000Y-123754000D01*
X71510000Y-122834000D02*
X67670000Y-122834000D01*
X67670000Y-124674000D02*
X71510000Y-124674000D01*
X67670000Y-122834000D02*
X67670000Y-124674000D01*
%TO.C,SW6*%
X93250000Y-122250000D02*
X93250000Y-117750000D01*
X89250000Y-123500000D02*
X90750000Y-123500000D01*
X90750000Y-116500000D02*
X89250000Y-116500000D01*
X86750000Y-117750000D02*
X86750000Y-122250000D01*
%TO.C,AND1*%
X97665000Y-76642500D02*
X124335000Y-76642500D01*
X124335000Y-76642500D02*
X124335000Y-82357500D01*
X124335000Y-82357500D02*
X97665000Y-82357500D01*
X97665000Y-82357500D02*
X97665000Y-76642500D01*
%TO.C,X3*%
X77320163Y-78963870D02*
G75*
G03*
X77320000Y-81045961I1079837J-1041130D01*
G01*
X77321392Y-78332665D02*
G75*
G03*
X77164484Y-81565000I1078608J-1672335D01*
G01*
X79635516Y-81565000D02*
G75*
G03*
X79478608Y-78332665I-1235516J1560000D01*
G01*
X79480000Y-81045961D02*
G75*
G03*
X79479837Y-78963870I-1080000J1040961D01*
G01*
X77164000Y-81565000D02*
X77320000Y-81565000D01*
X79480000Y-81565000D02*
X79636000Y-81565000D01*
%TO.C,R6*%
X67680000Y-77580000D02*
X67680000Y-79420000D01*
X72470000Y-78500000D02*
X71520000Y-78500000D01*
X71520000Y-77580000D02*
X67680000Y-77580000D01*
X71520000Y-79420000D02*
X71520000Y-77580000D01*
X67680000Y-79420000D02*
X71520000Y-79420000D01*
X66730000Y-78500000D02*
X67680000Y-78500000D01*
%TO.C,SW3*%
X79250000Y-93500000D02*
X80750000Y-93500000D01*
X80750000Y-86500000D02*
X79250000Y-86500000D01*
X76750000Y-87750000D02*
X76750000Y-92250000D01*
X83250000Y-92250000D02*
X83250000Y-87750000D01*
%TO.C,74HC1*%
X44045000Y-86990000D02*
G75*
G03*
X44045000Y-84990000I0J1000000D01*
G01*
X44045000Y-83340000D02*
X44045000Y-84990000D01*
X44045000Y-86990000D02*
X44045000Y-88640000D01*
X44045000Y-88640000D02*
X61945000Y-88640000D01*
X61945000Y-88640000D02*
X61945000Y-83340000D01*
X61945000Y-83340000D02*
X44045000Y-83340000D01*
%TO.C,R7*%
X71510000Y-83320000D02*
X71510000Y-81480000D01*
X72460000Y-82400000D02*
X71510000Y-82400000D01*
X67670000Y-81480000D02*
X67670000Y-83320000D01*
X71510000Y-81480000D02*
X67670000Y-81480000D01*
X66720000Y-82400000D02*
X67670000Y-82400000D01*
X67670000Y-83320000D02*
X71510000Y-83320000D01*
%TO.C,R8*%
X66730000Y-86000000D02*
X67680000Y-86000000D01*
X67680000Y-85080000D02*
X67680000Y-86920000D01*
X71520000Y-85080000D02*
X67680000Y-85080000D01*
X71520000Y-86920000D02*
X71520000Y-85080000D01*
X72470000Y-86000000D02*
X71520000Y-86000000D01*
X67680000Y-86920000D02*
X71520000Y-86920000D01*
%TO.C,XOR1*%
X97665000Y-89642500D02*
X124335000Y-89642500D01*
X124335000Y-89642500D02*
X124335000Y-95357500D01*
X124335000Y-95357500D02*
X97665000Y-95357500D01*
X97665000Y-95357500D02*
X97665000Y-89642500D01*
%TO.C,Y1*%
X92735516Y-81565000D02*
G75*
G03*
X92578608Y-78332665I-1235516J1560000D01*
G01*
X92580000Y-81045961D02*
G75*
G03*
X92579837Y-78963870I-1080000J1040961D01*
G01*
X90421392Y-78332665D02*
G75*
G03*
X90264484Y-81565000I1078608J-1672335D01*
G01*
X90420163Y-78963870D02*
G75*
G03*
X90420000Y-81045961I1079837J-1041130D01*
G01*
X92580000Y-81565000D02*
X92736000Y-81565000D01*
X90264000Y-81565000D02*
X90420000Y-81565000D01*
%TO.C,OR1*%
X97665000Y-83142500D02*
X124335000Y-83142500D01*
X124335000Y-83142500D02*
X124335000Y-88857500D01*
X124335000Y-88857500D02*
X97665000Y-88857500D01*
X97665000Y-88857500D02*
X97665000Y-83142500D01*
%TO.C,R9*%
X67670000Y-89080000D02*
X67670000Y-90920000D01*
X72460000Y-90000000D02*
X71510000Y-90000000D01*
X71510000Y-90920000D02*
X71510000Y-89080000D01*
X67670000Y-90920000D02*
X71510000Y-90920000D01*
X71510000Y-89080000D02*
X67670000Y-89080000D01*
X66720000Y-90000000D02*
X67670000Y-90000000D01*
%TO.C,X4*%
X86135516Y-81565000D02*
G75*
G03*
X85978608Y-78332665I-1235516J1560000D01*
G01*
X83821392Y-78332665D02*
G75*
G03*
X83664484Y-81565000I1078608J-1672335D01*
G01*
X83820163Y-78963870D02*
G75*
G03*
X83820000Y-81045961I1079837J-1041130D01*
G01*
X85980000Y-81045961D02*
G75*
G03*
X85979837Y-78963870I-1080000J1040961D01*
G01*
X85980000Y-81565000D02*
X86136000Y-81565000D01*
X83664000Y-81565000D02*
X83820000Y-81565000D01*
%TO.C,R10*%
X71510000Y-94674000D02*
X71510000Y-92834000D01*
X72460000Y-93754000D02*
X71510000Y-93754000D01*
X66720000Y-93754000D02*
X67670000Y-93754000D01*
X71510000Y-92834000D02*
X67670000Y-92834000D01*
X67670000Y-94674000D02*
X71510000Y-94674000D01*
X67670000Y-92834000D02*
X67670000Y-94674000D01*
%TO.C,SW4*%
X93250000Y-92250000D02*
X93250000Y-87750000D01*
X89250000Y-93500000D02*
X90750000Y-93500000D01*
X90750000Y-86500000D02*
X89250000Y-86500000D01*
X86750000Y-87750000D02*
X86750000Y-92250000D01*
%TO.C,Y*%
X92735516Y-51565000D02*
G75*
G03*
X92578608Y-48332665I-1235516J1560000D01*
G01*
X92580000Y-51045961D02*
G75*
G03*
X92579837Y-48963870I-1080000J1040961D01*
G01*
X90421392Y-48332665D02*
G75*
G03*
X90264484Y-51565000I1078608J-1672335D01*
G01*
X90420163Y-48963870D02*
G75*
G03*
X90420000Y-51045961I1079837J-1041130D01*
G01*
X92580000Y-51565000D02*
X92736000Y-51565000D01*
X90264000Y-51565000D02*
X90420000Y-51565000D01*
%TO.C,OR*%
X97665000Y-53142500D02*
X124335000Y-53142500D01*
X124335000Y-53142500D02*
X124335000Y-58857500D01*
X124335000Y-58857500D02*
X97665000Y-58857500D01*
X97665000Y-58857500D02*
X97665000Y-53142500D01*
%TO.C,XOR*%
X97665000Y-59642500D02*
X124335000Y-59642500D01*
X124335000Y-59642500D02*
X124335000Y-65357500D01*
X124335000Y-65357500D02*
X97665000Y-65357500D01*
X97665000Y-65357500D02*
X97665000Y-59642500D01*
%TO.C,R3*%
X66730000Y-56000000D02*
X67680000Y-56000000D01*
X67680000Y-55080000D02*
X67680000Y-56920000D01*
X71520000Y-55080000D02*
X67680000Y-55080000D01*
X71520000Y-56920000D02*
X71520000Y-55080000D01*
X72470000Y-56000000D02*
X71520000Y-56000000D01*
X67680000Y-56920000D02*
X71520000Y-56920000D01*
%TO.C,R2*%
X71510000Y-53320000D02*
X71510000Y-51480000D01*
X72460000Y-52400000D02*
X71510000Y-52400000D01*
X67670000Y-51480000D02*
X67670000Y-53320000D01*
X71510000Y-51480000D02*
X67670000Y-51480000D01*
X66720000Y-52400000D02*
X67670000Y-52400000D01*
X67670000Y-53320000D02*
X71510000Y-53320000D01*
%TO.C,74HC00*%
X44045000Y-56990000D02*
G75*
G03*
X44045000Y-54990000I0J1000000D01*
G01*
X44045000Y-53340000D02*
X44045000Y-54990000D01*
X44045000Y-56990000D02*
X44045000Y-58640000D01*
X44045000Y-58640000D02*
X61945000Y-58640000D01*
X61945000Y-58640000D02*
X61945000Y-53340000D01*
X61945000Y-53340000D02*
X44045000Y-53340000D01*
%TO.C,SW1*%
X79250000Y-63500000D02*
X80750000Y-63500000D01*
X80750000Y-56500000D02*
X79250000Y-56500000D01*
X76750000Y-57750000D02*
X76750000Y-62250000D01*
X83250000Y-62250000D02*
X83250000Y-57750000D01*
%TO.C,R1*%
X67680000Y-47580000D02*
X67680000Y-49420000D01*
X72470000Y-48500000D02*
X71520000Y-48500000D01*
X71520000Y-47580000D02*
X67680000Y-47580000D01*
X71520000Y-49420000D02*
X71520000Y-47580000D01*
X67680000Y-49420000D02*
X71520000Y-49420000D01*
X66730000Y-48500000D02*
X67680000Y-48500000D01*
%TO.C,X1*%
X77320163Y-48963870D02*
G75*
G03*
X77320000Y-51045961I1079837J-1041130D01*
G01*
X77321392Y-48332665D02*
G75*
G03*
X77164484Y-51565000I1078608J-1672335D01*
G01*
X79635516Y-51565000D02*
G75*
G03*
X79478608Y-48332665I-1235516J1560000D01*
G01*
X79480000Y-51045961D02*
G75*
G03*
X79479837Y-48963870I-1080000J1040961D01*
G01*
X77164000Y-51565000D02*
X77320000Y-51565000D01*
X79480000Y-51565000D02*
X79636000Y-51565000D01*
%TO.C,AND*%
X97665000Y-46642500D02*
X124335000Y-46642500D01*
X124335000Y-46642500D02*
X124335000Y-52357500D01*
X124335000Y-52357500D02*
X97665000Y-52357500D01*
X97665000Y-52357500D02*
X97665000Y-46642500D01*
%TO.C,R5*%
X71510000Y-64674000D02*
X71510000Y-62834000D01*
X72460000Y-63754000D02*
X71510000Y-63754000D01*
X66720000Y-63754000D02*
X67670000Y-63754000D01*
X71510000Y-62834000D02*
X67670000Y-62834000D01*
X67670000Y-64674000D02*
X71510000Y-64674000D01*
X67670000Y-62834000D02*
X67670000Y-64674000D01*
%TO.C,R4*%
X67670000Y-59080000D02*
X67670000Y-60920000D01*
X72460000Y-60000000D02*
X71510000Y-60000000D01*
X71510000Y-60920000D02*
X71510000Y-59080000D01*
X67670000Y-60920000D02*
X71510000Y-60920000D01*
X71510000Y-59080000D02*
X67670000Y-59080000D01*
X66720000Y-60000000D02*
X67670000Y-60000000D01*
%TO.C,X2*%
X86135516Y-51565000D02*
G75*
G03*
X85978608Y-48332665I-1235516J1560000D01*
G01*
X83821392Y-48332665D02*
G75*
G03*
X83664484Y-51565000I1078608J-1672335D01*
G01*
X83820163Y-48963870D02*
G75*
G03*
X83820000Y-51045961I1079837J-1041130D01*
G01*
X85980000Y-51045961D02*
G75*
G03*
X85979837Y-48963870I-1080000J1040961D01*
G01*
X85980000Y-51565000D02*
X86136000Y-51565000D01*
X83664000Y-51565000D02*
X83820000Y-51565000D01*
%TO.C,SW2*%
X93250000Y-62250000D02*
X93250000Y-57750000D01*
X89250000Y-63500000D02*
X90750000Y-63500000D01*
X90750000Y-56500000D02*
X89250000Y-56500000D01*
X86750000Y-57750000D02*
X86750000Y-62250000D01*
%TD*%
M02*
