%TF.GenerationSoftware,KiCad,Pcbnew,(6.0.10)*%
%TF.CreationDate,2023-10-04T10:21:36+09:00*%
%TF.ProjectId,simpleLogicCircuit,73696d70-6c65-44c6-9f67-696343697263,rev?*%
%TF.SameCoordinates,Original*%
%TF.FileFunction,Legend,Top*%
%TF.FilePolarity,Positive*%
%FSLAX46Y46*%
G04 Gerber Fmt 4.6, Leading zero omitted, Abs format (unit mm)*
G04 Created by KiCad (PCBNEW (6.0.10)) date 2023-10-04 10:21:36*
%MOMM*%
%LPD*%
G01*
G04 APERTURE LIST*
%ADD10C,0.150000*%
%ADD11C,0.120000*%
G04 APERTURE END LIST*
D10*
X53538380Y-110228476D02*
X53538380Y-110799904D01*
X53538380Y-110514190D02*
X52538380Y-110514190D01*
X52681238Y-110609428D01*
X52776476Y-110704666D01*
X52824095Y-110799904D01*
X53538380Y-109276095D02*
X53538380Y-109847523D01*
X53538380Y-109561809D02*
X52538380Y-109561809D01*
X52681238Y-109657047D01*
X52776476Y-109752285D01*
X52824095Y-109847523D01*
X49998380Y-121801333D02*
X49998380Y-121182285D01*
X50379333Y-121515619D01*
X50379333Y-121372761D01*
X50426952Y-121277523D01*
X50474571Y-121229904D01*
X50569809Y-121182285D01*
X50807904Y-121182285D01*
X50903142Y-121229904D01*
X50950761Y-121277523D01*
X50998380Y-121372761D01*
X50998380Y-121658476D01*
X50950761Y-121753714D01*
X50903142Y-121801333D01*
X45918380Y-110228476D02*
X45918380Y-110799904D01*
X45918380Y-110514190D02*
X44918380Y-110514190D01*
X45061238Y-110609428D01*
X45156476Y-110704666D01*
X45204095Y-110799904D01*
X45251714Y-109371333D02*
X45918380Y-109371333D01*
X44870761Y-109609428D02*
X45585047Y-109847523D01*
X45585047Y-109228476D01*
X79719047Y-108071428D02*
X80480952Y-108071428D01*
X80100000Y-108452380D02*
X80100000Y-107690476D01*
X60158380Y-121801333D02*
X60158380Y-121134666D01*
X61158380Y-121563238D01*
X58618380Y-110228476D02*
X58618380Y-110038000D01*
X58570761Y-109942761D01*
X58523142Y-109895142D01*
X58380285Y-109799904D01*
X58189809Y-109752285D01*
X57808857Y-109752285D01*
X57713619Y-109799904D01*
X57666000Y-109847523D01*
X57618380Y-109942761D01*
X57618380Y-110133238D01*
X57666000Y-110228476D01*
X57713619Y-110276095D01*
X57808857Y-110323714D01*
X58046952Y-110323714D01*
X58142190Y-110276095D01*
X58189809Y-110228476D01*
X58237428Y-110133238D01*
X58237428Y-109942761D01*
X58189809Y-109847523D01*
X58142190Y-109799904D01*
X58046952Y-109752285D01*
X52871714Y-121277523D02*
X53538380Y-121277523D01*
X52490761Y-121515619D02*
X53205047Y-121753714D01*
X53205047Y-121134666D01*
X92819047Y-108071428D02*
X93580952Y-108071428D01*
X93200000Y-108452380D02*
X93200000Y-107690476D01*
X56078380Y-110228476D02*
X56078380Y-110799904D01*
X56078380Y-110514190D02*
X55078380Y-110514190D01*
X55221238Y-110609428D01*
X55316476Y-110704666D01*
X55364095Y-110799904D01*
X55078380Y-109609428D02*
X55078380Y-109514190D01*
X55126000Y-109418952D01*
X55173619Y-109371333D01*
X55268857Y-109323714D01*
X55459333Y-109276095D01*
X55697428Y-109276095D01*
X55887904Y-109323714D01*
X55983142Y-109371333D01*
X56030761Y-109418952D01*
X56078380Y-109514190D01*
X56078380Y-109609428D01*
X56030761Y-109704666D01*
X55983142Y-109752285D01*
X55887904Y-109799904D01*
X55697428Y-109847523D01*
X55459333Y-109847523D01*
X55268857Y-109799904D01*
X55173619Y-109752285D01*
X55126000Y-109704666D01*
X55078380Y-109609428D01*
X86219047Y-108071428D02*
X86980952Y-108071428D01*
X86600000Y-108452380D02*
X86600000Y-107690476D01*
X57618380Y-121277523D02*
X57618380Y-121468000D01*
X57666000Y-121563238D01*
X57713619Y-121610857D01*
X57856476Y-121706095D01*
X58046952Y-121753714D01*
X58427904Y-121753714D01*
X58523142Y-121706095D01*
X58570761Y-121658476D01*
X58618380Y-121563238D01*
X58618380Y-121372761D01*
X58570761Y-121277523D01*
X58523142Y-121229904D01*
X58427904Y-121182285D01*
X58189809Y-121182285D01*
X58094571Y-121229904D01*
X58046952Y-121277523D01*
X57999333Y-121372761D01*
X57999333Y-121563238D01*
X58046952Y-121658476D01*
X58094571Y-121706095D01*
X58189809Y-121753714D01*
X47553619Y-121753714D02*
X47506000Y-121706095D01*
X47458380Y-121610857D01*
X47458380Y-121372761D01*
X47506000Y-121277523D01*
X47553619Y-121229904D01*
X47648857Y-121182285D01*
X47744095Y-121182285D01*
X47886952Y-121229904D01*
X48458380Y-121801333D01*
X48458380Y-121182285D01*
X44811785Y-124147380D02*
X44335595Y-124147380D01*
X44335595Y-123147380D01*
X45287976Y-124147380D02*
X45192738Y-124099761D01*
X45145119Y-124052142D01*
X45097500Y-123956904D01*
X45097500Y-123671190D01*
X45145119Y-123575952D01*
X45192738Y-123528333D01*
X45287976Y-123480714D01*
X45430833Y-123480714D01*
X45526071Y-123528333D01*
X45573690Y-123575952D01*
X45621309Y-123671190D01*
X45621309Y-123956904D01*
X45573690Y-124052142D01*
X45526071Y-124099761D01*
X45430833Y-124147380D01*
X45287976Y-124147380D01*
X46478452Y-123480714D02*
X46478452Y-124290238D01*
X46430833Y-124385476D01*
X46383214Y-124433095D01*
X46287976Y-124480714D01*
X46145119Y-124480714D01*
X46049880Y-124433095D01*
X46478452Y-124099761D02*
X46383214Y-124147380D01*
X46192738Y-124147380D01*
X46097500Y-124099761D01*
X46049880Y-124052142D01*
X46002261Y-123956904D01*
X46002261Y-123671190D01*
X46049880Y-123575952D01*
X46097500Y-123528333D01*
X46192738Y-123480714D01*
X46383214Y-123480714D01*
X46478452Y-123528333D01*
X46954642Y-124147380D02*
X46954642Y-123480714D01*
X46954642Y-123147380D02*
X46907023Y-123195000D01*
X46954642Y-123242619D01*
X47002261Y-123195000D01*
X46954642Y-123147380D01*
X46954642Y-123242619D01*
X47859404Y-124099761D02*
X47764166Y-124147380D01*
X47573690Y-124147380D01*
X47478452Y-124099761D01*
X47430833Y-124052142D01*
X47383214Y-123956904D01*
X47383214Y-123671190D01*
X47430833Y-123575952D01*
X47478452Y-123528333D01*
X47573690Y-123480714D01*
X47764166Y-123480714D01*
X47859404Y-123528333D01*
X49573690Y-123195000D02*
X49478452Y-123147380D01*
X49335595Y-123147380D01*
X49192738Y-123195000D01*
X49097500Y-123290238D01*
X49049880Y-123385476D01*
X49002261Y-123575952D01*
X49002261Y-123718809D01*
X49049880Y-123909285D01*
X49097500Y-124004523D01*
X49192738Y-124099761D01*
X49335595Y-124147380D01*
X49430833Y-124147380D01*
X49573690Y-124099761D01*
X49621309Y-124052142D01*
X49621309Y-123718809D01*
X49430833Y-123718809D01*
X50478452Y-124147380D02*
X50478452Y-123623571D01*
X50430833Y-123528333D01*
X50335595Y-123480714D01*
X50145119Y-123480714D01*
X50049880Y-123528333D01*
X50478452Y-124099761D02*
X50383214Y-124147380D01*
X50145119Y-124147380D01*
X50049880Y-124099761D01*
X50002261Y-124004523D01*
X50002261Y-123909285D01*
X50049880Y-123814047D01*
X50145119Y-123766428D01*
X50383214Y-123766428D01*
X50478452Y-123718809D01*
X50811785Y-123480714D02*
X51192738Y-123480714D01*
X50954642Y-123147380D02*
X50954642Y-124004523D01*
X51002261Y-124099761D01*
X51097500Y-124147380D01*
X51192738Y-124147380D01*
X51907023Y-124099761D02*
X51811785Y-124147380D01*
X51621309Y-124147380D01*
X51526071Y-124099761D01*
X51478452Y-124004523D01*
X51478452Y-123623571D01*
X51526071Y-123528333D01*
X51621309Y-123480714D01*
X51811785Y-123480714D01*
X51907023Y-123528333D01*
X51954642Y-123623571D01*
X51954642Y-123718809D01*
X51478452Y-123814047D01*
X53716547Y-124147380D02*
X53383214Y-123671190D01*
X53145119Y-124147380D02*
X53145119Y-123147380D01*
X53526071Y-123147380D01*
X53621309Y-123195000D01*
X53668928Y-123242619D01*
X53716547Y-123337857D01*
X53716547Y-123480714D01*
X53668928Y-123575952D01*
X53621309Y-123623571D01*
X53526071Y-123671190D01*
X53145119Y-123671190D01*
X54573690Y-123480714D02*
X54573690Y-124147380D01*
X54145119Y-123480714D02*
X54145119Y-124004523D01*
X54192738Y-124099761D01*
X54287976Y-124147380D01*
X54430833Y-124147380D01*
X54526071Y-124099761D01*
X54573690Y-124052142D01*
X55192738Y-124147380D02*
X55097500Y-124099761D01*
X55049880Y-124004523D01*
X55049880Y-123147380D01*
X55954642Y-124099761D02*
X55859404Y-124147380D01*
X55668928Y-124147380D01*
X55573690Y-124099761D01*
X55526071Y-124004523D01*
X55526071Y-123623571D01*
X55573690Y-123528333D01*
X55668928Y-123480714D01*
X55859404Y-123480714D01*
X55954642Y-123528333D01*
X56002261Y-123623571D01*
X56002261Y-123718809D01*
X55526071Y-123814047D01*
X56430833Y-124147380D02*
X56430833Y-123480714D01*
X56430833Y-123671190D02*
X56478452Y-123575952D01*
X56526071Y-123528333D01*
X56621309Y-123480714D01*
X56716547Y-123480714D01*
X57716547Y-123480714D02*
X57954642Y-124147380D01*
X58192738Y-123480714D01*
X59097500Y-124147380D02*
X58526071Y-124147380D01*
X58811785Y-124147380D02*
X58811785Y-123147380D01*
X58716547Y-123290238D01*
X58621309Y-123385476D01*
X58526071Y-123433095D01*
X59526071Y-124052142D02*
X59573690Y-124099761D01*
X59526071Y-124147380D01*
X59478452Y-124099761D01*
X59526071Y-124052142D01*
X59526071Y-124147380D01*
X59954642Y-123242619D02*
X60002261Y-123195000D01*
X60097500Y-123147380D01*
X60335595Y-123147380D01*
X60430833Y-123195000D01*
X60478452Y-123242619D01*
X60526071Y-123337857D01*
X60526071Y-123433095D01*
X60478452Y-123575952D01*
X59907023Y-124147380D01*
X60526071Y-124147380D01*
X44335595Y-125757380D02*
X44335595Y-124757380D01*
X44573690Y-124757380D01*
X44716547Y-124805000D01*
X44811785Y-124900238D01*
X44859404Y-124995476D01*
X44907023Y-125185952D01*
X44907023Y-125328809D01*
X44859404Y-125519285D01*
X44811785Y-125614523D01*
X44716547Y-125709761D01*
X44573690Y-125757380D01*
X44335595Y-125757380D01*
X45716547Y-125709761D02*
X45621309Y-125757380D01*
X45430833Y-125757380D01*
X45335595Y-125709761D01*
X45287976Y-125614523D01*
X45287976Y-125233571D01*
X45335595Y-125138333D01*
X45430833Y-125090714D01*
X45621309Y-125090714D01*
X45716547Y-125138333D01*
X45764166Y-125233571D01*
X45764166Y-125328809D01*
X45287976Y-125424047D01*
X46145119Y-125709761D02*
X46240357Y-125757380D01*
X46430833Y-125757380D01*
X46526071Y-125709761D01*
X46573690Y-125614523D01*
X46573690Y-125566904D01*
X46526071Y-125471666D01*
X46430833Y-125424047D01*
X46287976Y-125424047D01*
X46192738Y-125376428D01*
X46145119Y-125281190D01*
X46145119Y-125233571D01*
X46192738Y-125138333D01*
X46287976Y-125090714D01*
X46430833Y-125090714D01*
X46526071Y-125138333D01*
X47002261Y-125757380D02*
X47002261Y-125090714D01*
X47002261Y-124757380D02*
X46954642Y-124805000D01*
X47002261Y-124852619D01*
X47049880Y-124805000D01*
X47002261Y-124757380D01*
X47002261Y-124852619D01*
X47907023Y-125090714D02*
X47907023Y-125900238D01*
X47859404Y-125995476D01*
X47811785Y-126043095D01*
X47716547Y-126090714D01*
X47573690Y-126090714D01*
X47478452Y-126043095D01*
X47907023Y-125709761D02*
X47811785Y-125757380D01*
X47621309Y-125757380D01*
X47526071Y-125709761D01*
X47478452Y-125662142D01*
X47430833Y-125566904D01*
X47430833Y-125281190D01*
X47478452Y-125185952D01*
X47526071Y-125138333D01*
X47621309Y-125090714D01*
X47811785Y-125090714D01*
X47907023Y-125138333D01*
X48383214Y-125090714D02*
X48383214Y-125757380D01*
X48383214Y-125185952D02*
X48430833Y-125138333D01*
X48526071Y-125090714D01*
X48668928Y-125090714D01*
X48764166Y-125138333D01*
X48811785Y-125233571D01*
X48811785Y-125757380D01*
X49668928Y-125709761D02*
X49573690Y-125757380D01*
X49383214Y-125757380D01*
X49287976Y-125709761D01*
X49240357Y-125614523D01*
X49240357Y-125233571D01*
X49287976Y-125138333D01*
X49383214Y-125090714D01*
X49573690Y-125090714D01*
X49668928Y-125138333D01*
X49716547Y-125233571D01*
X49716547Y-125328809D01*
X49240357Y-125424047D01*
X50573690Y-125757380D02*
X50573690Y-124757380D01*
X50573690Y-125709761D02*
X50478452Y-125757380D01*
X50287976Y-125757380D01*
X50192738Y-125709761D01*
X50145119Y-125662142D01*
X50097500Y-125566904D01*
X50097500Y-125281190D01*
X50145119Y-125185952D01*
X50192738Y-125138333D01*
X50287976Y-125090714D01*
X50478452Y-125090714D01*
X50573690Y-125138333D01*
X51811785Y-125757380D02*
X51811785Y-124757380D01*
X51811785Y-125138333D02*
X51907023Y-125090714D01*
X52097500Y-125090714D01*
X52192738Y-125138333D01*
X52240357Y-125185952D01*
X52287976Y-125281190D01*
X52287976Y-125566904D01*
X52240357Y-125662142D01*
X52192738Y-125709761D01*
X52097500Y-125757380D01*
X51907023Y-125757380D01*
X51811785Y-125709761D01*
X52621309Y-125090714D02*
X52859404Y-125757380D01*
X53097500Y-125090714D02*
X52859404Y-125757380D01*
X52764166Y-125995476D01*
X52716547Y-126043095D01*
X52621309Y-126090714D01*
X54240357Y-125757380D02*
X54240357Y-124757380D01*
X54573690Y-125471666D01*
X54907023Y-124757380D01*
X54907023Y-125757380D01*
X55383214Y-125757380D02*
X55383214Y-124757380D01*
X56335595Y-125757380D02*
X55859404Y-125757380D01*
X55859404Y-124757380D01*
X57097500Y-125757380D02*
X57097500Y-125233571D01*
X57049880Y-125138333D01*
X56954642Y-125090714D01*
X56764166Y-125090714D01*
X56668928Y-125138333D01*
X57097500Y-125709761D02*
X57002261Y-125757380D01*
X56764166Y-125757380D01*
X56668928Y-125709761D01*
X56621309Y-125614523D01*
X56621309Y-125519285D01*
X56668928Y-125424047D01*
X56764166Y-125376428D01*
X57002261Y-125376428D01*
X57097500Y-125328809D01*
X57573690Y-125757380D02*
X57573690Y-124757380D01*
X57573690Y-125138333D02*
X57668928Y-125090714D01*
X57859404Y-125090714D01*
X57954642Y-125138333D01*
X58002261Y-125185952D01*
X58049880Y-125281190D01*
X58049880Y-125566904D01*
X58002261Y-125662142D01*
X57954642Y-125709761D01*
X57859404Y-125757380D01*
X57668928Y-125757380D01*
X57573690Y-125709761D01*
X59192738Y-124852619D02*
X59240357Y-124805000D01*
X59335595Y-124757380D01*
X59573690Y-124757380D01*
X59668928Y-124805000D01*
X59716547Y-124852619D01*
X59764166Y-124947857D01*
X59764166Y-125043095D01*
X59716547Y-125185952D01*
X59145119Y-125757380D01*
X59764166Y-125757380D01*
X60383214Y-124757380D02*
X60478452Y-124757380D01*
X60573690Y-124805000D01*
X60621309Y-124852619D01*
X60668928Y-124947857D01*
X60716547Y-125138333D01*
X60716547Y-125376428D01*
X60668928Y-125566904D01*
X60621309Y-125662142D01*
X60573690Y-125709761D01*
X60478452Y-125757380D01*
X60383214Y-125757380D01*
X60287976Y-125709761D01*
X60240357Y-125662142D01*
X60192738Y-125566904D01*
X60145119Y-125376428D01*
X60145119Y-125138333D01*
X60192738Y-124947857D01*
X60240357Y-124852619D01*
X60287976Y-124805000D01*
X60383214Y-124757380D01*
X61097500Y-124852619D02*
X61145119Y-124805000D01*
X61240357Y-124757380D01*
X61478452Y-124757380D01*
X61573690Y-124805000D01*
X61621309Y-124852619D01*
X61668928Y-124947857D01*
X61668928Y-125043095D01*
X61621309Y-125185952D01*
X61049880Y-125757380D01*
X61668928Y-125757380D01*
X62002261Y-124757380D02*
X62621309Y-124757380D01*
X62287976Y-125138333D01*
X62430833Y-125138333D01*
X62526071Y-125185952D01*
X62573690Y-125233571D01*
X62621309Y-125328809D01*
X62621309Y-125566904D01*
X62573690Y-125662142D01*
X62526071Y-125709761D01*
X62430833Y-125757380D01*
X62145119Y-125757380D01*
X62049880Y-125709761D01*
X62002261Y-125662142D01*
X60586952Y-110133238D02*
X60539333Y-110228476D01*
X60491714Y-110276095D01*
X60396476Y-110323714D01*
X60348857Y-110323714D01*
X60253619Y-110276095D01*
X60206000Y-110228476D01*
X60158380Y-110133238D01*
X60158380Y-109942761D01*
X60206000Y-109847523D01*
X60253619Y-109799904D01*
X60348857Y-109752285D01*
X60396476Y-109752285D01*
X60491714Y-109799904D01*
X60539333Y-109847523D01*
X60586952Y-109942761D01*
X60586952Y-110133238D01*
X60634571Y-110228476D01*
X60682190Y-110276095D01*
X60777428Y-110323714D01*
X60967904Y-110323714D01*
X61063142Y-110276095D01*
X61110761Y-110228476D01*
X61158380Y-110133238D01*
X61158380Y-109942761D01*
X61110761Y-109847523D01*
X61063142Y-109799904D01*
X60967904Y-109752285D01*
X60777428Y-109752285D01*
X60682190Y-109799904D01*
X60634571Y-109847523D01*
X60586952Y-109942761D01*
X45918380Y-121182285D02*
X45918380Y-121753714D01*
X45918380Y-121468000D02*
X44918380Y-121468000D01*
X45061238Y-121563238D01*
X45156476Y-121658476D01*
X45204095Y-121753714D01*
X32937380Y-118260952D02*
X33746904Y-118260952D01*
X33842142Y-118213333D01*
X33889761Y-118165714D01*
X33937380Y-118070476D01*
X33937380Y-117880000D01*
X33889761Y-117784761D01*
X33842142Y-117737142D01*
X33746904Y-117689523D01*
X32937380Y-117689523D01*
X33889761Y-117260952D02*
X33937380Y-117118095D01*
X33937380Y-116880000D01*
X33889761Y-116784761D01*
X33842142Y-116737142D01*
X33746904Y-116689523D01*
X33651666Y-116689523D01*
X33556428Y-116737142D01*
X33508809Y-116784761D01*
X33461190Y-116880000D01*
X33413571Y-117070476D01*
X33365952Y-117165714D01*
X33318333Y-117213333D01*
X33223095Y-117260952D01*
X33127857Y-117260952D01*
X33032619Y-117213333D01*
X32985000Y-117165714D01*
X32937380Y-117070476D01*
X32937380Y-116832380D01*
X32985000Y-116689523D01*
X33413571Y-115927619D02*
X33461190Y-115784761D01*
X33508809Y-115737142D01*
X33604047Y-115689523D01*
X33746904Y-115689523D01*
X33842142Y-115737142D01*
X33889761Y-115784761D01*
X33937380Y-115880000D01*
X33937380Y-116260952D01*
X32937380Y-116260952D01*
X32937380Y-115927619D01*
X32985000Y-115832380D01*
X33032619Y-115784761D01*
X33127857Y-115737142D01*
X33223095Y-115737142D01*
X33318333Y-115784761D01*
X33365952Y-115832380D01*
X33413571Y-115927619D01*
X33413571Y-116260952D01*
X33556428Y-115260952D02*
X33556428Y-114499047D01*
X33842142Y-113451428D02*
X33889761Y-113499047D01*
X33937380Y-113641904D01*
X33937380Y-113737142D01*
X33889761Y-113880000D01*
X33794523Y-113975238D01*
X33699285Y-114022857D01*
X33508809Y-114070476D01*
X33365952Y-114070476D01*
X33175476Y-114022857D01*
X33080238Y-113975238D01*
X32985000Y-113880000D01*
X32937380Y-113737142D01*
X32937380Y-113641904D01*
X32985000Y-113499047D01*
X33032619Y-113451428D01*
X35547380Y-118189523D02*
X34547380Y-118189523D01*
X34547380Y-117808571D01*
X34595000Y-117713333D01*
X34642619Y-117665714D01*
X34737857Y-117618095D01*
X34880714Y-117618095D01*
X34975952Y-117665714D01*
X35023571Y-117713333D01*
X35071190Y-117808571D01*
X35071190Y-118189523D01*
X34547380Y-116999047D02*
X34547380Y-116808571D01*
X34595000Y-116713333D01*
X34690238Y-116618095D01*
X34880714Y-116570476D01*
X35214047Y-116570476D01*
X35404523Y-116618095D01*
X35499761Y-116713333D01*
X35547380Y-116808571D01*
X35547380Y-116999047D01*
X35499761Y-117094285D01*
X35404523Y-117189523D01*
X35214047Y-117237142D01*
X34880714Y-117237142D01*
X34690238Y-117189523D01*
X34595000Y-117094285D01*
X34547380Y-116999047D01*
X34547380Y-116237142D02*
X35547380Y-115999047D01*
X34833095Y-115808571D01*
X35547380Y-115618095D01*
X34547380Y-115380000D01*
X35023571Y-114999047D02*
X35023571Y-114665714D01*
X35547380Y-114522857D02*
X35547380Y-114999047D01*
X34547380Y-114999047D01*
X34547380Y-114522857D01*
X35547380Y-113522857D02*
X35071190Y-113856190D01*
X35547380Y-114094285D02*
X34547380Y-114094285D01*
X34547380Y-113713333D01*
X34595000Y-113618095D01*
X34642619Y-113570476D01*
X34737857Y-113522857D01*
X34880714Y-113522857D01*
X34975952Y-113570476D01*
X35023571Y-113618095D01*
X35071190Y-113713333D01*
X35071190Y-114094285D01*
X50998380Y-110228476D02*
X50998380Y-110799904D01*
X50998380Y-110514190D02*
X49998380Y-110514190D01*
X50141238Y-110609428D01*
X50236476Y-110704666D01*
X50284095Y-110799904D01*
X50093619Y-109847523D02*
X50046000Y-109799904D01*
X49998380Y-109704666D01*
X49998380Y-109466571D01*
X50046000Y-109371333D01*
X50093619Y-109323714D01*
X50188857Y-109276095D01*
X50284095Y-109276095D01*
X50426952Y-109323714D01*
X50998380Y-109895142D01*
X50998380Y-109276095D01*
X48204380Y-110228476D02*
X48204380Y-110799904D01*
X48204380Y-110514190D02*
X47204380Y-110514190D01*
X47347238Y-110609428D01*
X47442476Y-110704666D01*
X47490095Y-110799904D01*
X47204380Y-109895142D02*
X47204380Y-109276095D01*
X47585333Y-109609428D01*
X47585333Y-109466571D01*
X47632952Y-109371333D01*
X47680571Y-109323714D01*
X47775809Y-109276095D01*
X48013904Y-109276095D01*
X48109142Y-109323714D01*
X48156761Y-109371333D01*
X48204380Y-109466571D01*
X48204380Y-109752285D01*
X48156761Y-109847523D01*
X48109142Y-109895142D01*
X55078380Y-121229904D02*
X55078380Y-121706095D01*
X55554571Y-121753714D01*
X55506952Y-121706095D01*
X55459333Y-121610857D01*
X55459333Y-121372761D01*
X55506952Y-121277523D01*
X55554571Y-121229904D01*
X55649809Y-121182285D01*
X55887904Y-121182285D01*
X55983142Y-121229904D01*
X56030761Y-121277523D01*
X56078380Y-121372761D01*
X56078380Y-121610857D01*
X56030761Y-121706095D01*
X55983142Y-121753714D01*
X53538380Y-80228476D02*
X53538380Y-80799904D01*
X53538380Y-80514190D02*
X52538380Y-80514190D01*
X52681238Y-80609428D01*
X52776476Y-80704666D01*
X52824095Y-80799904D01*
X53538380Y-79276095D02*
X53538380Y-79847523D01*
X53538380Y-79561809D02*
X52538380Y-79561809D01*
X52681238Y-79657047D01*
X52776476Y-79752285D01*
X52824095Y-79847523D01*
X49998380Y-91801333D02*
X49998380Y-91182285D01*
X50379333Y-91515619D01*
X50379333Y-91372761D01*
X50426952Y-91277523D01*
X50474571Y-91229904D01*
X50569809Y-91182285D01*
X50807904Y-91182285D01*
X50903142Y-91229904D01*
X50950761Y-91277523D01*
X50998380Y-91372761D01*
X50998380Y-91658476D01*
X50950761Y-91753714D01*
X50903142Y-91801333D01*
X45918380Y-80228476D02*
X45918380Y-80799904D01*
X45918380Y-80514190D02*
X44918380Y-80514190D01*
X45061238Y-80609428D01*
X45156476Y-80704666D01*
X45204095Y-80799904D01*
X45251714Y-79371333D02*
X45918380Y-79371333D01*
X44870761Y-79609428D02*
X45585047Y-79847523D01*
X45585047Y-79228476D01*
X79719047Y-78071428D02*
X80480952Y-78071428D01*
X80100000Y-78452380D02*
X80100000Y-77690476D01*
X60158380Y-91801333D02*
X60158380Y-91134666D01*
X61158380Y-91563238D01*
X58618380Y-80228476D02*
X58618380Y-80038000D01*
X58570761Y-79942761D01*
X58523142Y-79895142D01*
X58380285Y-79799904D01*
X58189809Y-79752285D01*
X57808857Y-79752285D01*
X57713619Y-79799904D01*
X57666000Y-79847523D01*
X57618380Y-79942761D01*
X57618380Y-80133238D01*
X57666000Y-80228476D01*
X57713619Y-80276095D01*
X57808857Y-80323714D01*
X58046952Y-80323714D01*
X58142190Y-80276095D01*
X58189809Y-80228476D01*
X58237428Y-80133238D01*
X58237428Y-79942761D01*
X58189809Y-79847523D01*
X58142190Y-79799904D01*
X58046952Y-79752285D01*
X52871714Y-91277523D02*
X53538380Y-91277523D01*
X52490761Y-91515619D02*
X53205047Y-91753714D01*
X53205047Y-91134666D01*
X92819047Y-78071428D02*
X93580952Y-78071428D01*
X93200000Y-78452380D02*
X93200000Y-77690476D01*
X56078380Y-80228476D02*
X56078380Y-80799904D01*
X56078380Y-80514190D02*
X55078380Y-80514190D01*
X55221238Y-80609428D01*
X55316476Y-80704666D01*
X55364095Y-80799904D01*
X55078380Y-79609428D02*
X55078380Y-79514190D01*
X55126000Y-79418952D01*
X55173619Y-79371333D01*
X55268857Y-79323714D01*
X55459333Y-79276095D01*
X55697428Y-79276095D01*
X55887904Y-79323714D01*
X55983142Y-79371333D01*
X56030761Y-79418952D01*
X56078380Y-79514190D01*
X56078380Y-79609428D01*
X56030761Y-79704666D01*
X55983142Y-79752285D01*
X55887904Y-79799904D01*
X55697428Y-79847523D01*
X55459333Y-79847523D01*
X55268857Y-79799904D01*
X55173619Y-79752285D01*
X55126000Y-79704666D01*
X55078380Y-79609428D01*
X86219047Y-78071428D02*
X86980952Y-78071428D01*
X86600000Y-78452380D02*
X86600000Y-77690476D01*
X57618380Y-91277523D02*
X57618380Y-91468000D01*
X57666000Y-91563238D01*
X57713619Y-91610857D01*
X57856476Y-91706095D01*
X58046952Y-91753714D01*
X58427904Y-91753714D01*
X58523142Y-91706095D01*
X58570761Y-91658476D01*
X58618380Y-91563238D01*
X58618380Y-91372761D01*
X58570761Y-91277523D01*
X58523142Y-91229904D01*
X58427904Y-91182285D01*
X58189809Y-91182285D01*
X58094571Y-91229904D01*
X58046952Y-91277523D01*
X57999333Y-91372761D01*
X57999333Y-91563238D01*
X58046952Y-91658476D01*
X58094571Y-91706095D01*
X58189809Y-91753714D01*
X47553619Y-91753714D02*
X47506000Y-91706095D01*
X47458380Y-91610857D01*
X47458380Y-91372761D01*
X47506000Y-91277523D01*
X47553619Y-91229904D01*
X47648857Y-91182285D01*
X47744095Y-91182285D01*
X47886952Y-91229904D01*
X48458380Y-91801333D01*
X48458380Y-91182285D01*
X44811785Y-94147380D02*
X44335595Y-94147380D01*
X44335595Y-93147380D01*
X45287976Y-94147380D02*
X45192738Y-94099761D01*
X45145119Y-94052142D01*
X45097500Y-93956904D01*
X45097500Y-93671190D01*
X45145119Y-93575952D01*
X45192738Y-93528333D01*
X45287976Y-93480714D01*
X45430833Y-93480714D01*
X45526071Y-93528333D01*
X45573690Y-93575952D01*
X45621309Y-93671190D01*
X45621309Y-93956904D01*
X45573690Y-94052142D01*
X45526071Y-94099761D01*
X45430833Y-94147380D01*
X45287976Y-94147380D01*
X46478452Y-93480714D02*
X46478452Y-94290238D01*
X46430833Y-94385476D01*
X46383214Y-94433095D01*
X46287976Y-94480714D01*
X46145119Y-94480714D01*
X46049880Y-94433095D01*
X46478452Y-94099761D02*
X46383214Y-94147380D01*
X46192738Y-94147380D01*
X46097500Y-94099761D01*
X46049880Y-94052142D01*
X46002261Y-93956904D01*
X46002261Y-93671190D01*
X46049880Y-93575952D01*
X46097500Y-93528333D01*
X46192738Y-93480714D01*
X46383214Y-93480714D01*
X46478452Y-93528333D01*
X46954642Y-94147380D02*
X46954642Y-93480714D01*
X46954642Y-93147380D02*
X46907023Y-93195000D01*
X46954642Y-93242619D01*
X47002261Y-93195000D01*
X46954642Y-93147380D01*
X46954642Y-93242619D01*
X47859404Y-94099761D02*
X47764166Y-94147380D01*
X47573690Y-94147380D01*
X47478452Y-94099761D01*
X47430833Y-94052142D01*
X47383214Y-93956904D01*
X47383214Y-93671190D01*
X47430833Y-93575952D01*
X47478452Y-93528333D01*
X47573690Y-93480714D01*
X47764166Y-93480714D01*
X47859404Y-93528333D01*
X49573690Y-93195000D02*
X49478452Y-93147380D01*
X49335595Y-93147380D01*
X49192738Y-93195000D01*
X49097500Y-93290238D01*
X49049880Y-93385476D01*
X49002261Y-93575952D01*
X49002261Y-93718809D01*
X49049880Y-93909285D01*
X49097500Y-94004523D01*
X49192738Y-94099761D01*
X49335595Y-94147380D01*
X49430833Y-94147380D01*
X49573690Y-94099761D01*
X49621309Y-94052142D01*
X49621309Y-93718809D01*
X49430833Y-93718809D01*
X50478452Y-94147380D02*
X50478452Y-93623571D01*
X50430833Y-93528333D01*
X50335595Y-93480714D01*
X50145119Y-93480714D01*
X50049880Y-93528333D01*
X50478452Y-94099761D02*
X50383214Y-94147380D01*
X50145119Y-94147380D01*
X50049880Y-94099761D01*
X50002261Y-94004523D01*
X50002261Y-93909285D01*
X50049880Y-93814047D01*
X50145119Y-93766428D01*
X50383214Y-93766428D01*
X50478452Y-93718809D01*
X50811785Y-93480714D02*
X51192738Y-93480714D01*
X50954642Y-93147380D02*
X50954642Y-94004523D01*
X51002261Y-94099761D01*
X51097500Y-94147380D01*
X51192738Y-94147380D01*
X51907023Y-94099761D02*
X51811785Y-94147380D01*
X51621309Y-94147380D01*
X51526071Y-94099761D01*
X51478452Y-94004523D01*
X51478452Y-93623571D01*
X51526071Y-93528333D01*
X51621309Y-93480714D01*
X51811785Y-93480714D01*
X51907023Y-93528333D01*
X51954642Y-93623571D01*
X51954642Y-93718809D01*
X51478452Y-93814047D01*
X53716547Y-94147380D02*
X53383214Y-93671190D01*
X53145119Y-94147380D02*
X53145119Y-93147380D01*
X53526071Y-93147380D01*
X53621309Y-93195000D01*
X53668928Y-93242619D01*
X53716547Y-93337857D01*
X53716547Y-93480714D01*
X53668928Y-93575952D01*
X53621309Y-93623571D01*
X53526071Y-93671190D01*
X53145119Y-93671190D01*
X54573690Y-93480714D02*
X54573690Y-94147380D01*
X54145119Y-93480714D02*
X54145119Y-94004523D01*
X54192738Y-94099761D01*
X54287976Y-94147380D01*
X54430833Y-94147380D01*
X54526071Y-94099761D01*
X54573690Y-94052142D01*
X55192738Y-94147380D02*
X55097500Y-94099761D01*
X55049880Y-94004523D01*
X55049880Y-93147380D01*
X55954642Y-94099761D02*
X55859404Y-94147380D01*
X55668928Y-94147380D01*
X55573690Y-94099761D01*
X55526071Y-94004523D01*
X55526071Y-93623571D01*
X55573690Y-93528333D01*
X55668928Y-93480714D01*
X55859404Y-93480714D01*
X55954642Y-93528333D01*
X56002261Y-93623571D01*
X56002261Y-93718809D01*
X55526071Y-93814047D01*
X56430833Y-94147380D02*
X56430833Y-93480714D01*
X56430833Y-93671190D02*
X56478452Y-93575952D01*
X56526071Y-93528333D01*
X56621309Y-93480714D01*
X56716547Y-93480714D01*
X57716547Y-93480714D02*
X57954642Y-94147380D01*
X58192738Y-93480714D01*
X59097500Y-94147380D02*
X58526071Y-94147380D01*
X58811785Y-94147380D02*
X58811785Y-93147380D01*
X58716547Y-93290238D01*
X58621309Y-93385476D01*
X58526071Y-93433095D01*
X59526071Y-94052142D02*
X59573690Y-94099761D01*
X59526071Y-94147380D01*
X59478452Y-94099761D01*
X59526071Y-94052142D01*
X59526071Y-94147380D01*
X59954642Y-93242619D02*
X60002261Y-93195000D01*
X60097500Y-93147380D01*
X60335595Y-93147380D01*
X60430833Y-93195000D01*
X60478452Y-93242619D01*
X60526071Y-93337857D01*
X60526071Y-93433095D01*
X60478452Y-93575952D01*
X59907023Y-94147380D01*
X60526071Y-94147380D01*
X44335595Y-95757380D02*
X44335595Y-94757380D01*
X44573690Y-94757380D01*
X44716547Y-94805000D01*
X44811785Y-94900238D01*
X44859404Y-94995476D01*
X44907023Y-95185952D01*
X44907023Y-95328809D01*
X44859404Y-95519285D01*
X44811785Y-95614523D01*
X44716547Y-95709761D01*
X44573690Y-95757380D01*
X44335595Y-95757380D01*
X45716547Y-95709761D02*
X45621309Y-95757380D01*
X45430833Y-95757380D01*
X45335595Y-95709761D01*
X45287976Y-95614523D01*
X45287976Y-95233571D01*
X45335595Y-95138333D01*
X45430833Y-95090714D01*
X45621309Y-95090714D01*
X45716547Y-95138333D01*
X45764166Y-95233571D01*
X45764166Y-95328809D01*
X45287976Y-95424047D01*
X46145119Y-95709761D02*
X46240357Y-95757380D01*
X46430833Y-95757380D01*
X46526071Y-95709761D01*
X46573690Y-95614523D01*
X46573690Y-95566904D01*
X46526071Y-95471666D01*
X46430833Y-95424047D01*
X46287976Y-95424047D01*
X46192738Y-95376428D01*
X46145119Y-95281190D01*
X46145119Y-95233571D01*
X46192738Y-95138333D01*
X46287976Y-95090714D01*
X46430833Y-95090714D01*
X46526071Y-95138333D01*
X47002261Y-95757380D02*
X47002261Y-95090714D01*
X47002261Y-94757380D02*
X46954642Y-94805000D01*
X47002261Y-94852619D01*
X47049880Y-94805000D01*
X47002261Y-94757380D01*
X47002261Y-94852619D01*
X47907023Y-95090714D02*
X47907023Y-95900238D01*
X47859404Y-95995476D01*
X47811785Y-96043095D01*
X47716547Y-96090714D01*
X47573690Y-96090714D01*
X47478452Y-96043095D01*
X47907023Y-95709761D02*
X47811785Y-95757380D01*
X47621309Y-95757380D01*
X47526071Y-95709761D01*
X47478452Y-95662142D01*
X47430833Y-95566904D01*
X47430833Y-95281190D01*
X47478452Y-95185952D01*
X47526071Y-95138333D01*
X47621309Y-95090714D01*
X47811785Y-95090714D01*
X47907023Y-95138333D01*
X48383214Y-95090714D02*
X48383214Y-95757380D01*
X48383214Y-95185952D02*
X48430833Y-95138333D01*
X48526071Y-95090714D01*
X48668928Y-95090714D01*
X48764166Y-95138333D01*
X48811785Y-95233571D01*
X48811785Y-95757380D01*
X49668928Y-95709761D02*
X49573690Y-95757380D01*
X49383214Y-95757380D01*
X49287976Y-95709761D01*
X49240357Y-95614523D01*
X49240357Y-95233571D01*
X49287976Y-95138333D01*
X49383214Y-95090714D01*
X49573690Y-95090714D01*
X49668928Y-95138333D01*
X49716547Y-95233571D01*
X49716547Y-95328809D01*
X49240357Y-95424047D01*
X50573690Y-95757380D02*
X50573690Y-94757380D01*
X50573690Y-95709761D02*
X50478452Y-95757380D01*
X50287976Y-95757380D01*
X50192738Y-95709761D01*
X50145119Y-95662142D01*
X50097500Y-95566904D01*
X50097500Y-95281190D01*
X50145119Y-95185952D01*
X50192738Y-95138333D01*
X50287976Y-95090714D01*
X50478452Y-95090714D01*
X50573690Y-95138333D01*
X51811785Y-95757380D02*
X51811785Y-94757380D01*
X51811785Y-95138333D02*
X51907023Y-95090714D01*
X52097500Y-95090714D01*
X52192738Y-95138333D01*
X52240357Y-95185952D01*
X52287976Y-95281190D01*
X52287976Y-95566904D01*
X52240357Y-95662142D01*
X52192738Y-95709761D01*
X52097500Y-95757380D01*
X51907023Y-95757380D01*
X51811785Y-95709761D01*
X52621309Y-95090714D02*
X52859404Y-95757380D01*
X53097500Y-95090714D02*
X52859404Y-95757380D01*
X52764166Y-95995476D01*
X52716547Y-96043095D01*
X52621309Y-96090714D01*
X54240357Y-95757380D02*
X54240357Y-94757380D01*
X54573690Y-95471666D01*
X54907023Y-94757380D01*
X54907023Y-95757380D01*
X55383214Y-95757380D02*
X55383214Y-94757380D01*
X56335595Y-95757380D02*
X55859404Y-95757380D01*
X55859404Y-94757380D01*
X57097500Y-95757380D02*
X57097500Y-95233571D01*
X57049880Y-95138333D01*
X56954642Y-95090714D01*
X56764166Y-95090714D01*
X56668928Y-95138333D01*
X57097500Y-95709761D02*
X57002261Y-95757380D01*
X56764166Y-95757380D01*
X56668928Y-95709761D01*
X56621309Y-95614523D01*
X56621309Y-95519285D01*
X56668928Y-95424047D01*
X56764166Y-95376428D01*
X57002261Y-95376428D01*
X57097500Y-95328809D01*
X57573690Y-95757380D02*
X57573690Y-94757380D01*
X57573690Y-95138333D02*
X57668928Y-95090714D01*
X57859404Y-95090714D01*
X57954642Y-95138333D01*
X58002261Y-95185952D01*
X58049880Y-95281190D01*
X58049880Y-95566904D01*
X58002261Y-95662142D01*
X57954642Y-95709761D01*
X57859404Y-95757380D01*
X57668928Y-95757380D01*
X57573690Y-95709761D01*
X59192738Y-94852619D02*
X59240357Y-94805000D01*
X59335595Y-94757380D01*
X59573690Y-94757380D01*
X59668928Y-94805000D01*
X59716547Y-94852619D01*
X59764166Y-94947857D01*
X59764166Y-95043095D01*
X59716547Y-95185952D01*
X59145119Y-95757380D01*
X59764166Y-95757380D01*
X60383214Y-94757380D02*
X60478452Y-94757380D01*
X60573690Y-94805000D01*
X60621309Y-94852619D01*
X60668928Y-94947857D01*
X60716547Y-95138333D01*
X60716547Y-95376428D01*
X60668928Y-95566904D01*
X60621309Y-95662142D01*
X60573690Y-95709761D01*
X60478452Y-95757380D01*
X60383214Y-95757380D01*
X60287976Y-95709761D01*
X60240357Y-95662142D01*
X60192738Y-95566904D01*
X60145119Y-95376428D01*
X60145119Y-95138333D01*
X60192738Y-94947857D01*
X60240357Y-94852619D01*
X60287976Y-94805000D01*
X60383214Y-94757380D01*
X61097500Y-94852619D02*
X61145119Y-94805000D01*
X61240357Y-94757380D01*
X61478452Y-94757380D01*
X61573690Y-94805000D01*
X61621309Y-94852619D01*
X61668928Y-94947857D01*
X61668928Y-95043095D01*
X61621309Y-95185952D01*
X61049880Y-95757380D01*
X61668928Y-95757380D01*
X62002261Y-94757380D02*
X62621309Y-94757380D01*
X62287976Y-95138333D01*
X62430833Y-95138333D01*
X62526071Y-95185952D01*
X62573690Y-95233571D01*
X62621309Y-95328809D01*
X62621309Y-95566904D01*
X62573690Y-95662142D01*
X62526071Y-95709761D01*
X62430833Y-95757380D01*
X62145119Y-95757380D01*
X62049880Y-95709761D01*
X62002261Y-95662142D01*
X60586952Y-80133238D02*
X60539333Y-80228476D01*
X60491714Y-80276095D01*
X60396476Y-80323714D01*
X60348857Y-80323714D01*
X60253619Y-80276095D01*
X60206000Y-80228476D01*
X60158380Y-80133238D01*
X60158380Y-79942761D01*
X60206000Y-79847523D01*
X60253619Y-79799904D01*
X60348857Y-79752285D01*
X60396476Y-79752285D01*
X60491714Y-79799904D01*
X60539333Y-79847523D01*
X60586952Y-79942761D01*
X60586952Y-80133238D01*
X60634571Y-80228476D01*
X60682190Y-80276095D01*
X60777428Y-80323714D01*
X60967904Y-80323714D01*
X61063142Y-80276095D01*
X61110761Y-80228476D01*
X61158380Y-80133238D01*
X61158380Y-79942761D01*
X61110761Y-79847523D01*
X61063142Y-79799904D01*
X60967904Y-79752285D01*
X60777428Y-79752285D01*
X60682190Y-79799904D01*
X60634571Y-79847523D01*
X60586952Y-79942761D01*
X45918380Y-91182285D02*
X45918380Y-91753714D01*
X45918380Y-91468000D02*
X44918380Y-91468000D01*
X45061238Y-91563238D01*
X45156476Y-91658476D01*
X45204095Y-91753714D01*
X32937380Y-88260952D02*
X33746904Y-88260952D01*
X33842142Y-88213333D01*
X33889761Y-88165714D01*
X33937380Y-88070476D01*
X33937380Y-87880000D01*
X33889761Y-87784761D01*
X33842142Y-87737142D01*
X33746904Y-87689523D01*
X32937380Y-87689523D01*
X33889761Y-87260952D02*
X33937380Y-87118095D01*
X33937380Y-86880000D01*
X33889761Y-86784761D01*
X33842142Y-86737142D01*
X33746904Y-86689523D01*
X33651666Y-86689523D01*
X33556428Y-86737142D01*
X33508809Y-86784761D01*
X33461190Y-86880000D01*
X33413571Y-87070476D01*
X33365952Y-87165714D01*
X33318333Y-87213333D01*
X33223095Y-87260952D01*
X33127857Y-87260952D01*
X33032619Y-87213333D01*
X32985000Y-87165714D01*
X32937380Y-87070476D01*
X32937380Y-86832380D01*
X32985000Y-86689523D01*
X33413571Y-85927619D02*
X33461190Y-85784761D01*
X33508809Y-85737142D01*
X33604047Y-85689523D01*
X33746904Y-85689523D01*
X33842142Y-85737142D01*
X33889761Y-85784761D01*
X33937380Y-85880000D01*
X33937380Y-86260952D01*
X32937380Y-86260952D01*
X32937380Y-85927619D01*
X32985000Y-85832380D01*
X33032619Y-85784761D01*
X33127857Y-85737142D01*
X33223095Y-85737142D01*
X33318333Y-85784761D01*
X33365952Y-85832380D01*
X33413571Y-85927619D01*
X33413571Y-86260952D01*
X33556428Y-85260952D02*
X33556428Y-84499047D01*
X33842142Y-83451428D02*
X33889761Y-83499047D01*
X33937380Y-83641904D01*
X33937380Y-83737142D01*
X33889761Y-83880000D01*
X33794523Y-83975238D01*
X33699285Y-84022857D01*
X33508809Y-84070476D01*
X33365952Y-84070476D01*
X33175476Y-84022857D01*
X33080238Y-83975238D01*
X32985000Y-83880000D01*
X32937380Y-83737142D01*
X32937380Y-83641904D01*
X32985000Y-83499047D01*
X33032619Y-83451428D01*
X35547380Y-88189523D02*
X34547380Y-88189523D01*
X34547380Y-87808571D01*
X34595000Y-87713333D01*
X34642619Y-87665714D01*
X34737857Y-87618095D01*
X34880714Y-87618095D01*
X34975952Y-87665714D01*
X35023571Y-87713333D01*
X35071190Y-87808571D01*
X35071190Y-88189523D01*
X34547380Y-86999047D02*
X34547380Y-86808571D01*
X34595000Y-86713333D01*
X34690238Y-86618095D01*
X34880714Y-86570476D01*
X35214047Y-86570476D01*
X35404523Y-86618095D01*
X35499761Y-86713333D01*
X35547380Y-86808571D01*
X35547380Y-86999047D01*
X35499761Y-87094285D01*
X35404523Y-87189523D01*
X35214047Y-87237142D01*
X34880714Y-87237142D01*
X34690238Y-87189523D01*
X34595000Y-87094285D01*
X34547380Y-86999047D01*
X34547380Y-86237142D02*
X35547380Y-85999047D01*
X34833095Y-85808571D01*
X35547380Y-85618095D01*
X34547380Y-85380000D01*
X35023571Y-84999047D02*
X35023571Y-84665714D01*
X35547380Y-84522857D02*
X35547380Y-84999047D01*
X34547380Y-84999047D01*
X34547380Y-84522857D01*
X35547380Y-83522857D02*
X35071190Y-83856190D01*
X35547380Y-84094285D02*
X34547380Y-84094285D01*
X34547380Y-83713333D01*
X34595000Y-83618095D01*
X34642619Y-83570476D01*
X34737857Y-83522857D01*
X34880714Y-83522857D01*
X34975952Y-83570476D01*
X35023571Y-83618095D01*
X35071190Y-83713333D01*
X35071190Y-84094285D01*
X50998380Y-80228476D02*
X50998380Y-80799904D01*
X50998380Y-80514190D02*
X49998380Y-80514190D01*
X50141238Y-80609428D01*
X50236476Y-80704666D01*
X50284095Y-80799904D01*
X50093619Y-79847523D02*
X50046000Y-79799904D01*
X49998380Y-79704666D01*
X49998380Y-79466571D01*
X50046000Y-79371333D01*
X50093619Y-79323714D01*
X50188857Y-79276095D01*
X50284095Y-79276095D01*
X50426952Y-79323714D01*
X50998380Y-79895142D01*
X50998380Y-79276095D01*
X48204380Y-80228476D02*
X48204380Y-80799904D01*
X48204380Y-80514190D02*
X47204380Y-80514190D01*
X47347238Y-80609428D01*
X47442476Y-80704666D01*
X47490095Y-80799904D01*
X47204380Y-79895142D02*
X47204380Y-79276095D01*
X47585333Y-79609428D01*
X47585333Y-79466571D01*
X47632952Y-79371333D01*
X47680571Y-79323714D01*
X47775809Y-79276095D01*
X48013904Y-79276095D01*
X48109142Y-79323714D01*
X48156761Y-79371333D01*
X48204380Y-79466571D01*
X48204380Y-79752285D01*
X48156761Y-79847523D01*
X48109142Y-79895142D01*
X55078380Y-91229904D02*
X55078380Y-91706095D01*
X55554571Y-91753714D01*
X55506952Y-91706095D01*
X55459333Y-91610857D01*
X55459333Y-91372761D01*
X55506952Y-91277523D01*
X55554571Y-91229904D01*
X55649809Y-91182285D01*
X55887904Y-91182285D01*
X55983142Y-91229904D01*
X56030761Y-91277523D01*
X56078380Y-91372761D01*
X56078380Y-91610857D01*
X56030761Y-91706095D01*
X55983142Y-91753714D01*
X50998380Y-50228476D02*
X50998380Y-50799904D01*
X50998380Y-50514190D02*
X49998380Y-50514190D01*
X50141238Y-50609428D01*
X50236476Y-50704666D01*
X50284095Y-50799904D01*
X50093619Y-49847523D02*
X50046000Y-49799904D01*
X49998380Y-49704666D01*
X49998380Y-49466571D01*
X50046000Y-49371333D01*
X50093619Y-49323714D01*
X50188857Y-49276095D01*
X50284095Y-49276095D01*
X50426952Y-49323714D01*
X50998380Y-49895142D01*
X50998380Y-49276095D01*
X79719047Y-48071428D02*
X80480952Y-48071428D01*
X80100000Y-48452380D02*
X80100000Y-47690476D01*
X92819047Y-48071428D02*
X93580952Y-48071428D01*
X93200000Y-48452380D02*
X93200000Y-47690476D01*
X45918380Y-50228476D02*
X45918380Y-50799904D01*
X45918380Y-50514190D02*
X44918380Y-50514190D01*
X45061238Y-50609428D01*
X45156476Y-50704666D01*
X45204095Y-50799904D01*
X45251714Y-49371333D02*
X45918380Y-49371333D01*
X44870761Y-49609428D02*
X45585047Y-49847523D01*
X45585047Y-49228476D01*
X47553619Y-61753714D02*
X47506000Y-61706095D01*
X47458380Y-61610857D01*
X47458380Y-61372761D01*
X47506000Y-61277523D01*
X47553619Y-61229904D01*
X47648857Y-61182285D01*
X47744095Y-61182285D01*
X47886952Y-61229904D01*
X48458380Y-61801333D01*
X48458380Y-61182285D01*
X32937380Y-58260952D02*
X33746904Y-58260952D01*
X33842142Y-58213333D01*
X33889761Y-58165714D01*
X33937380Y-58070476D01*
X33937380Y-57880000D01*
X33889761Y-57784761D01*
X33842142Y-57737142D01*
X33746904Y-57689523D01*
X32937380Y-57689523D01*
X33889761Y-57260952D02*
X33937380Y-57118095D01*
X33937380Y-56880000D01*
X33889761Y-56784761D01*
X33842142Y-56737142D01*
X33746904Y-56689523D01*
X33651666Y-56689523D01*
X33556428Y-56737142D01*
X33508809Y-56784761D01*
X33461190Y-56880000D01*
X33413571Y-57070476D01*
X33365952Y-57165714D01*
X33318333Y-57213333D01*
X33223095Y-57260952D01*
X33127857Y-57260952D01*
X33032619Y-57213333D01*
X32985000Y-57165714D01*
X32937380Y-57070476D01*
X32937380Y-56832380D01*
X32985000Y-56689523D01*
X33413571Y-55927619D02*
X33461190Y-55784761D01*
X33508809Y-55737142D01*
X33604047Y-55689523D01*
X33746904Y-55689523D01*
X33842142Y-55737142D01*
X33889761Y-55784761D01*
X33937380Y-55880000D01*
X33937380Y-56260952D01*
X32937380Y-56260952D01*
X32937380Y-55927619D01*
X32985000Y-55832380D01*
X33032619Y-55784761D01*
X33127857Y-55737142D01*
X33223095Y-55737142D01*
X33318333Y-55784761D01*
X33365952Y-55832380D01*
X33413571Y-55927619D01*
X33413571Y-56260952D01*
X33556428Y-55260952D02*
X33556428Y-54499047D01*
X33842142Y-53451428D02*
X33889761Y-53499047D01*
X33937380Y-53641904D01*
X33937380Y-53737142D01*
X33889761Y-53880000D01*
X33794523Y-53975238D01*
X33699285Y-54022857D01*
X33508809Y-54070476D01*
X33365952Y-54070476D01*
X33175476Y-54022857D01*
X33080238Y-53975238D01*
X32985000Y-53880000D01*
X32937380Y-53737142D01*
X32937380Y-53641904D01*
X32985000Y-53499047D01*
X33032619Y-53451428D01*
X35547380Y-58189523D02*
X34547380Y-58189523D01*
X34547380Y-57808571D01*
X34595000Y-57713333D01*
X34642619Y-57665714D01*
X34737857Y-57618095D01*
X34880714Y-57618095D01*
X34975952Y-57665714D01*
X35023571Y-57713333D01*
X35071190Y-57808571D01*
X35071190Y-58189523D01*
X34547380Y-56999047D02*
X34547380Y-56808571D01*
X34595000Y-56713333D01*
X34690238Y-56618095D01*
X34880714Y-56570476D01*
X35214047Y-56570476D01*
X35404523Y-56618095D01*
X35499761Y-56713333D01*
X35547380Y-56808571D01*
X35547380Y-56999047D01*
X35499761Y-57094285D01*
X35404523Y-57189523D01*
X35214047Y-57237142D01*
X34880714Y-57237142D01*
X34690238Y-57189523D01*
X34595000Y-57094285D01*
X34547380Y-56999047D01*
X34547380Y-56237142D02*
X35547380Y-55999047D01*
X34833095Y-55808571D01*
X35547380Y-55618095D01*
X34547380Y-55380000D01*
X35023571Y-54999047D02*
X35023571Y-54665714D01*
X35547380Y-54522857D02*
X35547380Y-54999047D01*
X34547380Y-54999047D01*
X34547380Y-54522857D01*
X35547380Y-53522857D02*
X35071190Y-53856190D01*
X35547380Y-54094285D02*
X34547380Y-54094285D01*
X34547380Y-53713333D01*
X34595000Y-53618095D01*
X34642619Y-53570476D01*
X34737857Y-53522857D01*
X34880714Y-53522857D01*
X34975952Y-53570476D01*
X35023571Y-53618095D01*
X35071190Y-53713333D01*
X35071190Y-54094285D01*
X48204380Y-50228476D02*
X48204380Y-50799904D01*
X48204380Y-50514190D02*
X47204380Y-50514190D01*
X47347238Y-50609428D01*
X47442476Y-50704666D01*
X47490095Y-50799904D01*
X47204380Y-49895142D02*
X47204380Y-49276095D01*
X47585333Y-49609428D01*
X47585333Y-49466571D01*
X47632952Y-49371333D01*
X47680571Y-49323714D01*
X47775809Y-49276095D01*
X48013904Y-49276095D01*
X48109142Y-49323714D01*
X48156761Y-49371333D01*
X48204380Y-49466571D01*
X48204380Y-49752285D01*
X48156761Y-49847523D01*
X48109142Y-49895142D01*
X58618380Y-50228476D02*
X58618380Y-50038000D01*
X58570761Y-49942761D01*
X58523142Y-49895142D01*
X58380285Y-49799904D01*
X58189809Y-49752285D01*
X57808857Y-49752285D01*
X57713619Y-49799904D01*
X57666000Y-49847523D01*
X57618380Y-49942761D01*
X57618380Y-50133238D01*
X57666000Y-50228476D01*
X57713619Y-50276095D01*
X57808857Y-50323714D01*
X58046952Y-50323714D01*
X58142190Y-50276095D01*
X58189809Y-50228476D01*
X58237428Y-50133238D01*
X58237428Y-49942761D01*
X58189809Y-49847523D01*
X58142190Y-49799904D01*
X58046952Y-49752285D01*
X57618380Y-61277523D02*
X57618380Y-61468000D01*
X57666000Y-61563238D01*
X57713619Y-61610857D01*
X57856476Y-61706095D01*
X58046952Y-61753714D01*
X58427904Y-61753714D01*
X58523142Y-61706095D01*
X58570761Y-61658476D01*
X58618380Y-61563238D01*
X58618380Y-61372761D01*
X58570761Y-61277523D01*
X58523142Y-61229904D01*
X58427904Y-61182285D01*
X58189809Y-61182285D01*
X58094571Y-61229904D01*
X58046952Y-61277523D01*
X57999333Y-61372761D01*
X57999333Y-61563238D01*
X58046952Y-61658476D01*
X58094571Y-61706095D01*
X58189809Y-61753714D01*
X86219047Y-48071428D02*
X86980952Y-48071428D01*
X86600000Y-48452380D02*
X86600000Y-47690476D01*
X45918380Y-61182285D02*
X45918380Y-61753714D01*
X45918380Y-61468000D02*
X44918380Y-61468000D01*
X45061238Y-61563238D01*
X45156476Y-61658476D01*
X45204095Y-61753714D01*
X49998380Y-61801333D02*
X49998380Y-61182285D01*
X50379333Y-61515619D01*
X50379333Y-61372761D01*
X50426952Y-61277523D01*
X50474571Y-61229904D01*
X50569809Y-61182285D01*
X50807904Y-61182285D01*
X50903142Y-61229904D01*
X50950761Y-61277523D01*
X50998380Y-61372761D01*
X50998380Y-61658476D01*
X50950761Y-61753714D01*
X50903142Y-61801333D01*
X52871714Y-61277523D02*
X53538380Y-61277523D01*
X52490761Y-61515619D02*
X53205047Y-61753714D01*
X53205047Y-61134666D01*
X53538380Y-50228476D02*
X53538380Y-50799904D01*
X53538380Y-50514190D02*
X52538380Y-50514190D01*
X52681238Y-50609428D01*
X52776476Y-50704666D01*
X52824095Y-50799904D01*
X53538380Y-49276095D02*
X53538380Y-49847523D01*
X53538380Y-49561809D02*
X52538380Y-49561809D01*
X52681238Y-49657047D01*
X52776476Y-49752285D01*
X52824095Y-49847523D01*
X44811785Y-64147380D02*
X44335595Y-64147380D01*
X44335595Y-63147380D01*
X45287976Y-64147380D02*
X45192738Y-64099761D01*
X45145119Y-64052142D01*
X45097500Y-63956904D01*
X45097500Y-63671190D01*
X45145119Y-63575952D01*
X45192738Y-63528333D01*
X45287976Y-63480714D01*
X45430833Y-63480714D01*
X45526071Y-63528333D01*
X45573690Y-63575952D01*
X45621309Y-63671190D01*
X45621309Y-63956904D01*
X45573690Y-64052142D01*
X45526071Y-64099761D01*
X45430833Y-64147380D01*
X45287976Y-64147380D01*
X46478452Y-63480714D02*
X46478452Y-64290238D01*
X46430833Y-64385476D01*
X46383214Y-64433095D01*
X46287976Y-64480714D01*
X46145119Y-64480714D01*
X46049880Y-64433095D01*
X46478452Y-64099761D02*
X46383214Y-64147380D01*
X46192738Y-64147380D01*
X46097500Y-64099761D01*
X46049880Y-64052142D01*
X46002261Y-63956904D01*
X46002261Y-63671190D01*
X46049880Y-63575952D01*
X46097500Y-63528333D01*
X46192738Y-63480714D01*
X46383214Y-63480714D01*
X46478452Y-63528333D01*
X46954642Y-64147380D02*
X46954642Y-63480714D01*
X46954642Y-63147380D02*
X46907023Y-63195000D01*
X46954642Y-63242619D01*
X47002261Y-63195000D01*
X46954642Y-63147380D01*
X46954642Y-63242619D01*
X47859404Y-64099761D02*
X47764166Y-64147380D01*
X47573690Y-64147380D01*
X47478452Y-64099761D01*
X47430833Y-64052142D01*
X47383214Y-63956904D01*
X47383214Y-63671190D01*
X47430833Y-63575952D01*
X47478452Y-63528333D01*
X47573690Y-63480714D01*
X47764166Y-63480714D01*
X47859404Y-63528333D01*
X49573690Y-63195000D02*
X49478452Y-63147380D01*
X49335595Y-63147380D01*
X49192738Y-63195000D01*
X49097500Y-63290238D01*
X49049880Y-63385476D01*
X49002261Y-63575952D01*
X49002261Y-63718809D01*
X49049880Y-63909285D01*
X49097500Y-64004523D01*
X49192738Y-64099761D01*
X49335595Y-64147380D01*
X49430833Y-64147380D01*
X49573690Y-64099761D01*
X49621309Y-64052142D01*
X49621309Y-63718809D01*
X49430833Y-63718809D01*
X50478452Y-64147380D02*
X50478452Y-63623571D01*
X50430833Y-63528333D01*
X50335595Y-63480714D01*
X50145119Y-63480714D01*
X50049880Y-63528333D01*
X50478452Y-64099761D02*
X50383214Y-64147380D01*
X50145119Y-64147380D01*
X50049880Y-64099761D01*
X50002261Y-64004523D01*
X50002261Y-63909285D01*
X50049880Y-63814047D01*
X50145119Y-63766428D01*
X50383214Y-63766428D01*
X50478452Y-63718809D01*
X50811785Y-63480714D02*
X51192738Y-63480714D01*
X50954642Y-63147380D02*
X50954642Y-64004523D01*
X51002261Y-64099761D01*
X51097500Y-64147380D01*
X51192738Y-64147380D01*
X51907023Y-64099761D02*
X51811785Y-64147380D01*
X51621309Y-64147380D01*
X51526071Y-64099761D01*
X51478452Y-64004523D01*
X51478452Y-63623571D01*
X51526071Y-63528333D01*
X51621309Y-63480714D01*
X51811785Y-63480714D01*
X51907023Y-63528333D01*
X51954642Y-63623571D01*
X51954642Y-63718809D01*
X51478452Y-63814047D01*
X53716547Y-64147380D02*
X53383214Y-63671190D01*
X53145119Y-64147380D02*
X53145119Y-63147380D01*
X53526071Y-63147380D01*
X53621309Y-63195000D01*
X53668928Y-63242619D01*
X53716547Y-63337857D01*
X53716547Y-63480714D01*
X53668928Y-63575952D01*
X53621309Y-63623571D01*
X53526071Y-63671190D01*
X53145119Y-63671190D01*
X54573690Y-63480714D02*
X54573690Y-64147380D01*
X54145119Y-63480714D02*
X54145119Y-64004523D01*
X54192738Y-64099761D01*
X54287976Y-64147380D01*
X54430833Y-64147380D01*
X54526071Y-64099761D01*
X54573690Y-64052142D01*
X55192738Y-64147380D02*
X55097500Y-64099761D01*
X55049880Y-64004523D01*
X55049880Y-63147380D01*
X55954642Y-64099761D02*
X55859404Y-64147380D01*
X55668928Y-64147380D01*
X55573690Y-64099761D01*
X55526071Y-64004523D01*
X55526071Y-63623571D01*
X55573690Y-63528333D01*
X55668928Y-63480714D01*
X55859404Y-63480714D01*
X55954642Y-63528333D01*
X56002261Y-63623571D01*
X56002261Y-63718809D01*
X55526071Y-63814047D01*
X56430833Y-64147380D02*
X56430833Y-63480714D01*
X56430833Y-63671190D02*
X56478452Y-63575952D01*
X56526071Y-63528333D01*
X56621309Y-63480714D01*
X56716547Y-63480714D01*
X57716547Y-63480714D02*
X57954642Y-64147380D01*
X58192738Y-63480714D01*
X59097500Y-64147380D02*
X58526071Y-64147380D01*
X58811785Y-64147380D02*
X58811785Y-63147380D01*
X58716547Y-63290238D01*
X58621309Y-63385476D01*
X58526071Y-63433095D01*
X59526071Y-64052142D02*
X59573690Y-64099761D01*
X59526071Y-64147380D01*
X59478452Y-64099761D01*
X59526071Y-64052142D01*
X59526071Y-64147380D01*
X59954642Y-63242619D02*
X60002261Y-63195000D01*
X60097500Y-63147380D01*
X60335595Y-63147380D01*
X60430833Y-63195000D01*
X60478452Y-63242619D01*
X60526071Y-63337857D01*
X60526071Y-63433095D01*
X60478452Y-63575952D01*
X59907023Y-64147380D01*
X60526071Y-64147380D01*
X44335595Y-65757380D02*
X44335595Y-64757380D01*
X44573690Y-64757380D01*
X44716547Y-64805000D01*
X44811785Y-64900238D01*
X44859404Y-64995476D01*
X44907023Y-65185952D01*
X44907023Y-65328809D01*
X44859404Y-65519285D01*
X44811785Y-65614523D01*
X44716547Y-65709761D01*
X44573690Y-65757380D01*
X44335595Y-65757380D01*
X45716547Y-65709761D02*
X45621309Y-65757380D01*
X45430833Y-65757380D01*
X45335595Y-65709761D01*
X45287976Y-65614523D01*
X45287976Y-65233571D01*
X45335595Y-65138333D01*
X45430833Y-65090714D01*
X45621309Y-65090714D01*
X45716547Y-65138333D01*
X45764166Y-65233571D01*
X45764166Y-65328809D01*
X45287976Y-65424047D01*
X46145119Y-65709761D02*
X46240357Y-65757380D01*
X46430833Y-65757380D01*
X46526071Y-65709761D01*
X46573690Y-65614523D01*
X46573690Y-65566904D01*
X46526071Y-65471666D01*
X46430833Y-65424047D01*
X46287976Y-65424047D01*
X46192738Y-65376428D01*
X46145119Y-65281190D01*
X46145119Y-65233571D01*
X46192738Y-65138333D01*
X46287976Y-65090714D01*
X46430833Y-65090714D01*
X46526071Y-65138333D01*
X47002261Y-65757380D02*
X47002261Y-65090714D01*
X47002261Y-64757380D02*
X46954642Y-64805000D01*
X47002261Y-64852619D01*
X47049880Y-64805000D01*
X47002261Y-64757380D01*
X47002261Y-64852619D01*
X47907023Y-65090714D02*
X47907023Y-65900238D01*
X47859404Y-65995476D01*
X47811785Y-66043095D01*
X47716547Y-66090714D01*
X47573690Y-66090714D01*
X47478452Y-66043095D01*
X47907023Y-65709761D02*
X47811785Y-65757380D01*
X47621309Y-65757380D01*
X47526071Y-65709761D01*
X47478452Y-65662142D01*
X47430833Y-65566904D01*
X47430833Y-65281190D01*
X47478452Y-65185952D01*
X47526071Y-65138333D01*
X47621309Y-65090714D01*
X47811785Y-65090714D01*
X47907023Y-65138333D01*
X48383214Y-65090714D02*
X48383214Y-65757380D01*
X48383214Y-65185952D02*
X48430833Y-65138333D01*
X48526071Y-65090714D01*
X48668928Y-65090714D01*
X48764166Y-65138333D01*
X48811785Y-65233571D01*
X48811785Y-65757380D01*
X49668928Y-65709761D02*
X49573690Y-65757380D01*
X49383214Y-65757380D01*
X49287976Y-65709761D01*
X49240357Y-65614523D01*
X49240357Y-65233571D01*
X49287976Y-65138333D01*
X49383214Y-65090714D01*
X49573690Y-65090714D01*
X49668928Y-65138333D01*
X49716547Y-65233571D01*
X49716547Y-65328809D01*
X49240357Y-65424047D01*
X50573690Y-65757380D02*
X50573690Y-64757380D01*
X50573690Y-65709761D02*
X50478452Y-65757380D01*
X50287976Y-65757380D01*
X50192738Y-65709761D01*
X50145119Y-65662142D01*
X50097500Y-65566904D01*
X50097500Y-65281190D01*
X50145119Y-65185952D01*
X50192738Y-65138333D01*
X50287976Y-65090714D01*
X50478452Y-65090714D01*
X50573690Y-65138333D01*
X51811785Y-65757380D02*
X51811785Y-64757380D01*
X51811785Y-65138333D02*
X51907023Y-65090714D01*
X52097500Y-65090714D01*
X52192738Y-65138333D01*
X52240357Y-65185952D01*
X52287976Y-65281190D01*
X52287976Y-65566904D01*
X52240357Y-65662142D01*
X52192738Y-65709761D01*
X52097500Y-65757380D01*
X51907023Y-65757380D01*
X51811785Y-65709761D01*
X52621309Y-65090714D02*
X52859404Y-65757380D01*
X53097500Y-65090714D02*
X52859404Y-65757380D01*
X52764166Y-65995476D01*
X52716547Y-66043095D01*
X52621309Y-66090714D01*
X54240357Y-65757380D02*
X54240357Y-64757380D01*
X54573690Y-65471666D01*
X54907023Y-64757380D01*
X54907023Y-65757380D01*
X55383214Y-65757380D02*
X55383214Y-64757380D01*
X56335595Y-65757380D02*
X55859404Y-65757380D01*
X55859404Y-64757380D01*
X57097500Y-65757380D02*
X57097500Y-65233571D01*
X57049880Y-65138333D01*
X56954642Y-65090714D01*
X56764166Y-65090714D01*
X56668928Y-65138333D01*
X57097500Y-65709761D02*
X57002261Y-65757380D01*
X56764166Y-65757380D01*
X56668928Y-65709761D01*
X56621309Y-65614523D01*
X56621309Y-65519285D01*
X56668928Y-65424047D01*
X56764166Y-65376428D01*
X57002261Y-65376428D01*
X57097500Y-65328809D01*
X57573690Y-65757380D02*
X57573690Y-64757380D01*
X57573690Y-65138333D02*
X57668928Y-65090714D01*
X57859404Y-65090714D01*
X57954642Y-65138333D01*
X58002261Y-65185952D01*
X58049880Y-65281190D01*
X58049880Y-65566904D01*
X58002261Y-65662142D01*
X57954642Y-65709761D01*
X57859404Y-65757380D01*
X57668928Y-65757380D01*
X57573690Y-65709761D01*
X59192738Y-64852619D02*
X59240357Y-64805000D01*
X59335595Y-64757380D01*
X59573690Y-64757380D01*
X59668928Y-64805000D01*
X59716547Y-64852619D01*
X59764166Y-64947857D01*
X59764166Y-65043095D01*
X59716547Y-65185952D01*
X59145119Y-65757380D01*
X59764166Y-65757380D01*
X60383214Y-64757380D02*
X60478452Y-64757380D01*
X60573690Y-64805000D01*
X60621309Y-64852619D01*
X60668928Y-64947857D01*
X60716547Y-65138333D01*
X60716547Y-65376428D01*
X60668928Y-65566904D01*
X60621309Y-65662142D01*
X60573690Y-65709761D01*
X60478452Y-65757380D01*
X60383214Y-65757380D01*
X60287976Y-65709761D01*
X60240357Y-65662142D01*
X60192738Y-65566904D01*
X60145119Y-65376428D01*
X60145119Y-65138333D01*
X60192738Y-64947857D01*
X60240357Y-64852619D01*
X60287976Y-64805000D01*
X60383214Y-64757380D01*
X61097500Y-64852619D02*
X61145119Y-64805000D01*
X61240357Y-64757380D01*
X61478452Y-64757380D01*
X61573690Y-64805000D01*
X61621309Y-64852619D01*
X61668928Y-64947857D01*
X61668928Y-65043095D01*
X61621309Y-65185952D01*
X61049880Y-65757380D01*
X61668928Y-65757380D01*
X62002261Y-64757380D02*
X62621309Y-64757380D01*
X62287976Y-65138333D01*
X62430833Y-65138333D01*
X62526071Y-65185952D01*
X62573690Y-65233571D01*
X62621309Y-65328809D01*
X62621309Y-65566904D01*
X62573690Y-65662142D01*
X62526071Y-65709761D01*
X62430833Y-65757380D01*
X62145119Y-65757380D01*
X62049880Y-65709761D01*
X62002261Y-65662142D01*
X56078380Y-50228476D02*
X56078380Y-50799904D01*
X56078380Y-50514190D02*
X55078380Y-50514190D01*
X55221238Y-50609428D01*
X55316476Y-50704666D01*
X55364095Y-50799904D01*
X55078380Y-49609428D02*
X55078380Y-49514190D01*
X55126000Y-49418952D01*
X55173619Y-49371333D01*
X55268857Y-49323714D01*
X55459333Y-49276095D01*
X55697428Y-49276095D01*
X55887904Y-49323714D01*
X55983142Y-49371333D01*
X56030761Y-49418952D01*
X56078380Y-49514190D01*
X56078380Y-49609428D01*
X56030761Y-49704666D01*
X55983142Y-49752285D01*
X55887904Y-49799904D01*
X55697428Y-49847523D01*
X55459333Y-49847523D01*
X55268857Y-49799904D01*
X55173619Y-49752285D01*
X55126000Y-49704666D01*
X55078380Y-49609428D01*
X60158380Y-61801333D02*
X60158380Y-61134666D01*
X61158380Y-61563238D01*
X60586952Y-50133238D02*
X60539333Y-50228476D01*
X60491714Y-50276095D01*
X60396476Y-50323714D01*
X60348857Y-50323714D01*
X60253619Y-50276095D01*
X60206000Y-50228476D01*
X60158380Y-50133238D01*
X60158380Y-49942761D01*
X60206000Y-49847523D01*
X60253619Y-49799904D01*
X60348857Y-49752285D01*
X60396476Y-49752285D01*
X60491714Y-49799904D01*
X60539333Y-49847523D01*
X60586952Y-49942761D01*
X60586952Y-50133238D01*
X60634571Y-50228476D01*
X60682190Y-50276095D01*
X60777428Y-50323714D01*
X60967904Y-50323714D01*
X61063142Y-50276095D01*
X61110761Y-50228476D01*
X61158380Y-50133238D01*
X61158380Y-49942761D01*
X61110761Y-49847523D01*
X61063142Y-49799904D01*
X60967904Y-49752285D01*
X60777428Y-49752285D01*
X60682190Y-49799904D01*
X60634571Y-49847523D01*
X60586952Y-49942761D01*
X55078380Y-61229904D02*
X55078380Y-61706095D01*
X55554571Y-61753714D01*
X55506952Y-61706095D01*
X55459333Y-61610857D01*
X55459333Y-61372761D01*
X55506952Y-61277523D01*
X55554571Y-61229904D01*
X55649809Y-61182285D01*
X55887904Y-61182285D01*
X55983142Y-61229904D01*
X56030761Y-61277523D01*
X56078380Y-61372761D01*
X56078380Y-61610857D01*
X56030761Y-61706095D01*
X55983142Y-61753714D01*
%TO.C,R3*%
X69433333Y-118252380D02*
X69100000Y-117776190D01*
X68861904Y-118252380D02*
X68861904Y-117252380D01*
X69242857Y-117252380D01*
X69338095Y-117300000D01*
X69385714Y-117347619D01*
X69433333Y-117442857D01*
X69433333Y-117585714D01*
X69385714Y-117680952D01*
X69338095Y-117728571D01*
X69242857Y-117776190D01*
X68861904Y-117776190D01*
X69766666Y-117252380D02*
X70385714Y-117252380D01*
X70052380Y-117633333D01*
X70195238Y-117633333D01*
X70290476Y-117680952D01*
X70338095Y-117728571D01*
X70385714Y-117823809D01*
X70385714Y-118061904D01*
X70338095Y-118157142D01*
X70290476Y-118204761D01*
X70195238Y-118252380D01*
X69909523Y-118252380D01*
X69814285Y-118204761D01*
X69766666Y-118157142D01*
%TO.C,XOR*%
X96101380Y-123793642D02*
X97101380Y-123126976D01*
X96101380Y-123126976D02*
X97101380Y-123793642D01*
X96101380Y-122555547D02*
X96101380Y-122365071D01*
X96149000Y-122269833D01*
X96244238Y-122174595D01*
X96434714Y-122126976D01*
X96768047Y-122126976D01*
X96958523Y-122174595D01*
X97053761Y-122269833D01*
X97101380Y-122365071D01*
X97101380Y-122555547D01*
X97053761Y-122650785D01*
X96958523Y-122746023D01*
X96768047Y-122793642D01*
X96434714Y-122793642D01*
X96244238Y-122746023D01*
X96149000Y-122650785D01*
X96101380Y-122555547D01*
X97101380Y-121126976D02*
X96625190Y-121460309D01*
X97101380Y-121698404D02*
X96101380Y-121698404D01*
X96101380Y-121317452D01*
X96149000Y-121222214D01*
X96196619Y-121174595D01*
X96291857Y-121126976D01*
X96434714Y-121126976D01*
X96529952Y-121174595D01*
X96577571Y-121222214D01*
X96625190Y-121317452D01*
X96625190Y-121698404D01*
X101260714Y-120722023D02*
X101927380Y-120722023D01*
X100879761Y-120960119D02*
X101594047Y-121198214D01*
X101594047Y-120579166D01*
X103467380Y-121722023D02*
X104467380Y-121055357D01*
X103467380Y-121055357D02*
X104467380Y-121722023D01*
X103562619Y-120722023D02*
X103515000Y-120674404D01*
X103467380Y-120579166D01*
X103467380Y-120341071D01*
X103515000Y-120245833D01*
X103562619Y-120198214D01*
X103657857Y-120150595D01*
X103753095Y-120150595D01*
X103895952Y-120198214D01*
X104467380Y-120769642D01*
X104467380Y-120150595D01*
X119707380Y-121102976D02*
X119707380Y-121674404D01*
X119707380Y-121388690D02*
X118707380Y-121388690D01*
X118850238Y-121483928D01*
X118945476Y-121579166D01*
X118993095Y-121674404D01*
X118707380Y-120769642D02*
X118707380Y-120150595D01*
X119088333Y-120483928D01*
X119088333Y-120341071D01*
X119135952Y-120245833D01*
X119183571Y-120198214D01*
X119278809Y-120150595D01*
X119516904Y-120150595D01*
X119612142Y-120198214D01*
X119659761Y-120245833D01*
X119707380Y-120341071D01*
X119707380Y-120626785D01*
X119659761Y-120722023D01*
X119612142Y-120769642D01*
X98387380Y-121722023D02*
X99387380Y-121055357D01*
X98387380Y-121055357D02*
X99387380Y-121722023D01*
X99387380Y-120150595D02*
X99387380Y-120722023D01*
X99387380Y-120436309D02*
X98387380Y-120436309D01*
X98530238Y-120531547D01*
X98625476Y-120626785D01*
X98673095Y-120722023D01*
X123295190Y-120912500D02*
X123771380Y-120912500D01*
X122771380Y-121245833D02*
X123295190Y-120912500D01*
X122771380Y-120579166D01*
X108547380Y-121245833D02*
X108547380Y-120626785D01*
X108928333Y-120960119D01*
X108928333Y-120817261D01*
X108975952Y-120722023D01*
X109023571Y-120674404D01*
X109118809Y-120626785D01*
X109356904Y-120626785D01*
X109452142Y-120674404D01*
X109499761Y-120722023D01*
X109547380Y-120817261D01*
X109547380Y-121102976D01*
X109499761Y-121198214D01*
X109452142Y-121245833D01*
X107007380Y-121102976D02*
X107007380Y-121674404D01*
X107007380Y-121388690D02*
X106007380Y-121388690D01*
X106150238Y-121483928D01*
X106245476Y-121579166D01*
X106293095Y-121674404D01*
X106007380Y-120483928D02*
X106007380Y-120388690D01*
X106055000Y-120293452D01*
X106102619Y-120245833D01*
X106197857Y-120198214D01*
X106388333Y-120150595D01*
X106626428Y-120150595D01*
X106816904Y-120198214D01*
X106912142Y-120245833D01*
X106959761Y-120293452D01*
X107007380Y-120388690D01*
X107007380Y-120483928D01*
X106959761Y-120579166D01*
X106912142Y-120626785D01*
X106816904Y-120674404D01*
X106626428Y-120722023D01*
X106388333Y-120722023D01*
X106197857Y-120674404D01*
X106102619Y-120626785D01*
X106055000Y-120579166D01*
X106007380Y-120483928D01*
X117865952Y-121007738D02*
X117818333Y-121102976D01*
X117770714Y-121150595D01*
X117675476Y-121198214D01*
X117627857Y-121198214D01*
X117532619Y-121150595D01*
X117485000Y-121102976D01*
X117437380Y-121007738D01*
X117437380Y-120817261D01*
X117485000Y-120722023D01*
X117532619Y-120674404D01*
X117627857Y-120626785D01*
X117675476Y-120626785D01*
X117770714Y-120674404D01*
X117818333Y-120722023D01*
X117865952Y-120817261D01*
X117865952Y-121007738D01*
X117913571Y-121102976D01*
X117961190Y-121150595D01*
X118056428Y-121198214D01*
X118246904Y-121198214D01*
X118342142Y-121150595D01*
X118389761Y-121102976D01*
X118437380Y-121007738D01*
X118437380Y-120817261D01*
X118389761Y-120722023D01*
X118342142Y-120674404D01*
X118246904Y-120626785D01*
X118056428Y-120626785D01*
X117961190Y-120674404D01*
X117913571Y-120722023D01*
X117865952Y-120817261D01*
X122247380Y-121102976D02*
X122247380Y-121674404D01*
X122247380Y-121388690D02*
X121247380Y-121388690D01*
X121390238Y-121483928D01*
X121485476Y-121579166D01*
X121533095Y-121674404D01*
X122247380Y-120150595D02*
X122247380Y-120722023D01*
X122247380Y-120436309D02*
X121247380Y-120436309D01*
X121390238Y-120531547D01*
X121485476Y-120626785D01*
X121533095Y-120722023D01*
X113627380Y-120722023D02*
X113627380Y-120912500D01*
X113675000Y-121007738D01*
X113722619Y-121055357D01*
X113865476Y-121150595D01*
X114055952Y-121198214D01*
X114436904Y-121198214D01*
X114532142Y-121150595D01*
X114579761Y-121102976D01*
X114627380Y-121007738D01*
X114627380Y-120817261D01*
X114579761Y-120722023D01*
X114532142Y-120674404D01*
X114436904Y-120626785D01*
X114198809Y-120626785D01*
X114103571Y-120674404D01*
X114055952Y-120722023D01*
X114008333Y-120817261D01*
X114008333Y-121007738D01*
X114055952Y-121102976D01*
X114103571Y-121150595D01*
X114198809Y-121198214D01*
X100657380Y-120626785D02*
X100657380Y-121198214D01*
X100657380Y-120912500D02*
X99657380Y-120912500D01*
X99800238Y-121007738D01*
X99895476Y-121102976D01*
X99943095Y-121198214D01*
X109817380Y-120674404D02*
X109817380Y-121150595D01*
X110293571Y-121198214D01*
X110245952Y-121150595D01*
X110198333Y-121055357D01*
X110198333Y-120817261D01*
X110245952Y-120722023D01*
X110293571Y-120674404D01*
X110388809Y-120626785D01*
X110626904Y-120626785D01*
X110722142Y-120674404D01*
X110769761Y-120722023D01*
X110817380Y-120817261D01*
X110817380Y-121055357D01*
X110769761Y-121150595D01*
X110722142Y-121198214D01*
X112087380Y-121102976D02*
X112087380Y-120912500D01*
X112039761Y-120817261D01*
X111992142Y-120769642D01*
X111849285Y-120674404D01*
X111658809Y-120626785D01*
X111277857Y-120626785D01*
X111182619Y-120674404D01*
X111135000Y-120722023D01*
X111087380Y-120817261D01*
X111087380Y-121007738D01*
X111135000Y-121102976D01*
X111182619Y-121150595D01*
X111277857Y-121198214D01*
X111515952Y-121198214D01*
X111611190Y-121150595D01*
X111658809Y-121102976D01*
X111706428Y-121007738D01*
X111706428Y-120817261D01*
X111658809Y-120722023D01*
X111611190Y-120674404D01*
X111515952Y-120626785D01*
X115897380Y-121102976D02*
X115897380Y-121674404D01*
X115897380Y-121388690D02*
X114897380Y-121388690D01*
X115040238Y-121483928D01*
X115135476Y-121579166D01*
X115183095Y-121674404D01*
X114992619Y-120722023D02*
X114945000Y-120674404D01*
X114897380Y-120579166D01*
X114897380Y-120341071D01*
X114945000Y-120245833D01*
X114992619Y-120198214D01*
X115087857Y-120150595D01*
X115183095Y-120150595D01*
X115325952Y-120198214D01*
X115897380Y-120769642D01*
X115897380Y-120150595D01*
X104832619Y-121198214D02*
X104785000Y-121150595D01*
X104737380Y-121055357D01*
X104737380Y-120817261D01*
X104785000Y-120722023D01*
X104832619Y-120674404D01*
X104927857Y-120626785D01*
X105023095Y-120626785D01*
X105165952Y-120674404D01*
X105737380Y-121245833D01*
X105737380Y-120626785D01*
%TO.C,Y*%
X91500000Y-113476190D02*
X91500000Y-113952380D01*
X91166666Y-112952380D02*
X91500000Y-113476190D01*
X91833333Y-112952380D01*
%TO.C,OR*%
X96101380Y-116531738D02*
X96101380Y-116341261D01*
X96149000Y-116246023D01*
X96244238Y-116150785D01*
X96434714Y-116103166D01*
X96768047Y-116103166D01*
X96958523Y-116150785D01*
X97053761Y-116246023D01*
X97101380Y-116341261D01*
X97101380Y-116531738D01*
X97053761Y-116626976D01*
X96958523Y-116722214D01*
X96768047Y-116769833D01*
X96434714Y-116769833D01*
X96244238Y-116722214D01*
X96149000Y-116626976D01*
X96101380Y-116531738D01*
X97101380Y-115103166D02*
X96625190Y-115436500D01*
X97101380Y-115674595D02*
X96101380Y-115674595D01*
X96101380Y-115293642D01*
X96149000Y-115198404D01*
X96196619Y-115150785D01*
X96291857Y-115103166D01*
X96434714Y-115103166D01*
X96529952Y-115150785D01*
X96577571Y-115198404D01*
X96625190Y-115293642D01*
X96625190Y-115674595D01*
X103467380Y-115222023D02*
X104467380Y-114555357D01*
X103467380Y-114555357D02*
X104467380Y-115222023D01*
X103562619Y-114222023D02*
X103515000Y-114174404D01*
X103467380Y-114079166D01*
X103467380Y-113841071D01*
X103515000Y-113745833D01*
X103562619Y-113698214D01*
X103657857Y-113650595D01*
X103753095Y-113650595D01*
X103895952Y-113698214D01*
X104467380Y-114269642D01*
X104467380Y-113650595D01*
X119707380Y-114602976D02*
X119707380Y-115174404D01*
X119707380Y-114888690D02*
X118707380Y-114888690D01*
X118850238Y-114983928D01*
X118945476Y-115079166D01*
X118993095Y-115174404D01*
X118707380Y-113983928D02*
X118707380Y-113888690D01*
X118755000Y-113793452D01*
X118802619Y-113745833D01*
X118897857Y-113698214D01*
X119088333Y-113650595D01*
X119326428Y-113650595D01*
X119516904Y-113698214D01*
X119612142Y-113745833D01*
X119659761Y-113793452D01*
X119707380Y-113888690D01*
X119707380Y-113983928D01*
X119659761Y-114079166D01*
X119612142Y-114126785D01*
X119516904Y-114174404D01*
X119326428Y-114222023D01*
X119088333Y-114222023D01*
X118897857Y-114174404D01*
X118802619Y-114126785D01*
X118755000Y-114079166D01*
X118707380Y-113983928D01*
X106007380Y-114174404D02*
X106007380Y-114650595D01*
X106483571Y-114698214D01*
X106435952Y-114650595D01*
X106388333Y-114555357D01*
X106388333Y-114317261D01*
X106435952Y-114222023D01*
X106483571Y-114174404D01*
X106578809Y-114126785D01*
X106816904Y-114126785D01*
X106912142Y-114174404D01*
X106959761Y-114222023D01*
X107007380Y-114317261D01*
X107007380Y-114555357D01*
X106959761Y-114650595D01*
X106912142Y-114698214D01*
X101022619Y-114698214D02*
X100975000Y-114650595D01*
X100927380Y-114555357D01*
X100927380Y-114317261D01*
X100975000Y-114222023D01*
X101022619Y-114174404D01*
X101117857Y-114126785D01*
X101213095Y-114126785D01*
X101355952Y-114174404D01*
X101927380Y-114745833D01*
X101927380Y-114126785D01*
X100657380Y-114126785D02*
X100657380Y-114698214D01*
X100657380Y-114412500D02*
X99657380Y-114412500D01*
X99800238Y-114507738D01*
X99895476Y-114602976D01*
X99943095Y-114698214D01*
X98387380Y-115222023D02*
X99387380Y-114555357D01*
X98387380Y-114555357D02*
X99387380Y-115222023D01*
X99387380Y-113650595D02*
X99387380Y-114222023D01*
X99387380Y-113936309D02*
X98387380Y-113936309D01*
X98530238Y-114031547D01*
X98625476Y-114126785D01*
X98673095Y-114222023D01*
X113627380Y-114745833D02*
X113627380Y-114126785D01*
X114008333Y-114460119D01*
X114008333Y-114317261D01*
X114055952Y-114222023D01*
X114103571Y-114174404D01*
X114198809Y-114126785D01*
X114436904Y-114126785D01*
X114532142Y-114174404D01*
X114579761Y-114222023D01*
X114627380Y-114317261D01*
X114627380Y-114602976D01*
X114579761Y-114698214D01*
X114532142Y-114745833D01*
X105070714Y-114222023D02*
X105737380Y-114222023D01*
X104689761Y-114460119D02*
X105404047Y-114698214D01*
X105404047Y-114079166D01*
X121675952Y-114507738D02*
X121628333Y-114602976D01*
X121580714Y-114650595D01*
X121485476Y-114698214D01*
X121437857Y-114698214D01*
X121342619Y-114650595D01*
X121295000Y-114602976D01*
X121247380Y-114507738D01*
X121247380Y-114317261D01*
X121295000Y-114222023D01*
X121342619Y-114174404D01*
X121437857Y-114126785D01*
X121485476Y-114126785D01*
X121580714Y-114174404D01*
X121628333Y-114222023D01*
X121675952Y-114317261D01*
X121675952Y-114507738D01*
X121723571Y-114602976D01*
X121771190Y-114650595D01*
X121866428Y-114698214D01*
X122056904Y-114698214D01*
X122152142Y-114650595D01*
X122199761Y-114602976D01*
X122247380Y-114507738D01*
X122247380Y-114317261D01*
X122199761Y-114222023D01*
X122152142Y-114174404D01*
X122056904Y-114126785D01*
X121866428Y-114126785D01*
X121771190Y-114174404D01*
X121723571Y-114222023D01*
X121675952Y-114317261D01*
X117437380Y-114222023D02*
X117437380Y-114412500D01*
X117485000Y-114507738D01*
X117532619Y-114555357D01*
X117675476Y-114650595D01*
X117865952Y-114698214D01*
X118246904Y-114698214D01*
X118342142Y-114650595D01*
X118389761Y-114602976D01*
X118437380Y-114507738D01*
X118437380Y-114317261D01*
X118389761Y-114222023D01*
X118342142Y-114174404D01*
X118246904Y-114126785D01*
X118008809Y-114126785D01*
X117913571Y-114174404D01*
X117865952Y-114222023D01*
X117818333Y-114317261D01*
X117818333Y-114507738D01*
X117865952Y-114602976D01*
X117913571Y-114650595D01*
X118008809Y-114698214D01*
X115897380Y-114602976D02*
X115897380Y-114412500D01*
X115849761Y-114317261D01*
X115802142Y-114269642D01*
X115659285Y-114174404D01*
X115468809Y-114126785D01*
X115087857Y-114126785D01*
X114992619Y-114174404D01*
X114945000Y-114222023D01*
X114897380Y-114317261D01*
X114897380Y-114507738D01*
X114945000Y-114602976D01*
X114992619Y-114650595D01*
X115087857Y-114698214D01*
X115325952Y-114698214D01*
X115421190Y-114650595D01*
X115468809Y-114602976D01*
X115516428Y-114507738D01*
X115516428Y-114317261D01*
X115468809Y-114222023D01*
X115421190Y-114174404D01*
X115325952Y-114126785D01*
X123295190Y-114412500D02*
X123771380Y-114412500D01*
X122771380Y-114745833D02*
X123295190Y-114412500D01*
X122771380Y-114079166D01*
%TO.C,R2*%
X69333333Y-114652380D02*
X69000000Y-114176190D01*
X68761904Y-114652380D02*
X68761904Y-113652380D01*
X69142857Y-113652380D01*
X69238095Y-113700000D01*
X69285714Y-113747619D01*
X69333333Y-113842857D01*
X69333333Y-113985714D01*
X69285714Y-114080952D01*
X69238095Y-114128571D01*
X69142857Y-114176190D01*
X68761904Y-114176190D01*
X69714285Y-113747619D02*
X69761904Y-113700000D01*
X69857142Y-113652380D01*
X70095238Y-113652380D01*
X70190476Y-113700000D01*
X70238095Y-113747619D01*
X70285714Y-113842857D01*
X70285714Y-113938095D01*
X70238095Y-114080952D01*
X69666666Y-114652380D01*
X70285714Y-114652380D01*
%TO.C,R5*%
X69423333Y-125952380D02*
X69090000Y-125476190D01*
X68851904Y-125952380D02*
X68851904Y-124952380D01*
X69232857Y-124952380D01*
X69328095Y-125000000D01*
X69375714Y-125047619D01*
X69423333Y-125142857D01*
X69423333Y-125285714D01*
X69375714Y-125380952D01*
X69328095Y-125428571D01*
X69232857Y-125476190D01*
X68851904Y-125476190D01*
X70328095Y-124952380D02*
X69851904Y-124952380D01*
X69804285Y-125428571D01*
X69851904Y-125380952D01*
X69947142Y-125333333D01*
X70185238Y-125333333D01*
X70280476Y-125380952D01*
X70328095Y-125428571D01*
X70375714Y-125523809D01*
X70375714Y-125761904D01*
X70328095Y-125857142D01*
X70280476Y-125904761D01*
X70185238Y-125952380D01*
X69947142Y-125952380D01*
X69851904Y-125904761D01*
X69804285Y-125857142D01*
%TO.C,SW2*%
X88666666Y-125804761D02*
X88809523Y-125852380D01*
X89047619Y-125852380D01*
X89142857Y-125804761D01*
X89190476Y-125757142D01*
X89238095Y-125661904D01*
X89238095Y-125566666D01*
X89190476Y-125471428D01*
X89142857Y-125423809D01*
X89047619Y-125376190D01*
X88857142Y-125328571D01*
X88761904Y-125280952D01*
X88714285Y-125233333D01*
X88666666Y-125138095D01*
X88666666Y-125042857D01*
X88714285Y-124947619D01*
X88761904Y-124900000D01*
X88857142Y-124852380D01*
X89095238Y-124852380D01*
X89238095Y-124900000D01*
X89571428Y-124852380D02*
X89809523Y-125852380D01*
X90000000Y-125138095D01*
X90190476Y-125852380D01*
X90428571Y-124852380D01*
X90761904Y-124947619D02*
X90809523Y-124900000D01*
X90904761Y-124852380D01*
X91142857Y-124852380D01*
X91238095Y-124900000D01*
X91285714Y-124947619D01*
X91333333Y-125042857D01*
X91333333Y-125138095D01*
X91285714Y-125280952D01*
X90714285Y-125852380D01*
X91333333Y-125852380D01*
%TO.C,R4*%
X69423333Y-122252380D02*
X69090000Y-121776190D01*
X68851904Y-122252380D02*
X68851904Y-121252380D01*
X69232857Y-121252380D01*
X69328095Y-121300000D01*
X69375714Y-121347619D01*
X69423333Y-121442857D01*
X69423333Y-121585714D01*
X69375714Y-121680952D01*
X69328095Y-121728571D01*
X69232857Y-121776190D01*
X68851904Y-121776190D01*
X70280476Y-121585714D02*
X70280476Y-122252380D01*
X70042380Y-121204761D02*
X69804285Y-121919047D01*
X70423333Y-121919047D01*
%TO.C,SW1*%
X78666666Y-125804761D02*
X78809523Y-125852380D01*
X79047619Y-125852380D01*
X79142857Y-125804761D01*
X79190476Y-125757142D01*
X79238095Y-125661904D01*
X79238095Y-125566666D01*
X79190476Y-125471428D01*
X79142857Y-125423809D01*
X79047619Y-125376190D01*
X78857142Y-125328571D01*
X78761904Y-125280952D01*
X78714285Y-125233333D01*
X78666666Y-125138095D01*
X78666666Y-125042857D01*
X78714285Y-124947619D01*
X78761904Y-124900000D01*
X78857142Y-124852380D01*
X79095238Y-124852380D01*
X79238095Y-124900000D01*
X79571428Y-124852380D02*
X79809523Y-125852380D01*
X80000000Y-125138095D01*
X80190476Y-125852380D01*
X80428571Y-124852380D01*
X81333333Y-125852380D02*
X80761904Y-125852380D01*
X81047619Y-125852380D02*
X81047619Y-124852380D01*
X80952380Y-124995238D01*
X80857142Y-125090476D01*
X80761904Y-125138095D01*
%TO.C,AND*%
X96815666Y-110698404D02*
X96815666Y-110222214D01*
X97101380Y-110793642D02*
X96101380Y-110460309D01*
X97101380Y-110126976D01*
X97101380Y-109793642D02*
X96101380Y-109793642D01*
X97101380Y-109222214D01*
X96101380Y-109222214D01*
X97101380Y-108746023D02*
X96101380Y-108746023D01*
X96101380Y-108507928D01*
X96149000Y-108365071D01*
X96244238Y-108269833D01*
X96339476Y-108222214D01*
X96529952Y-108174595D01*
X96672809Y-108174595D01*
X96863285Y-108222214D01*
X96958523Y-108269833D01*
X97053761Y-108365071D01*
X97101380Y-108507928D01*
X97101380Y-108746023D01*
X98387380Y-108722023D02*
X99387380Y-108055357D01*
X98387380Y-108055357D02*
X99387380Y-108722023D01*
X99387380Y-107150595D02*
X99387380Y-107722023D01*
X99387380Y-107436309D02*
X98387380Y-107436309D01*
X98530238Y-107531547D01*
X98625476Y-107626785D01*
X98673095Y-107722023D01*
X111087380Y-107674404D02*
X111087380Y-108150595D01*
X111563571Y-108198214D01*
X111515952Y-108150595D01*
X111468333Y-108055357D01*
X111468333Y-107817261D01*
X111515952Y-107722023D01*
X111563571Y-107674404D01*
X111658809Y-107626785D01*
X111896904Y-107626785D01*
X111992142Y-107674404D01*
X112039761Y-107722023D01*
X112087380Y-107817261D01*
X112087380Y-108055357D01*
X112039761Y-108150595D01*
X111992142Y-108198214D01*
X121247380Y-107722023D02*
X121247380Y-107912500D01*
X121295000Y-108007738D01*
X121342619Y-108055357D01*
X121485476Y-108150595D01*
X121675952Y-108198214D01*
X122056904Y-108198214D01*
X122152142Y-108150595D01*
X122199761Y-108102976D01*
X122247380Y-108007738D01*
X122247380Y-107817261D01*
X122199761Y-107722023D01*
X122152142Y-107674404D01*
X122056904Y-107626785D01*
X121818809Y-107626785D01*
X121723571Y-107674404D01*
X121675952Y-107722023D01*
X121628333Y-107817261D01*
X121628333Y-108007738D01*
X121675952Y-108102976D01*
X121723571Y-108150595D01*
X121818809Y-108198214D01*
X108547380Y-108245833D02*
X108547380Y-107626785D01*
X108928333Y-107960119D01*
X108928333Y-107817261D01*
X108975952Y-107722023D01*
X109023571Y-107674404D01*
X109118809Y-107626785D01*
X109356904Y-107626785D01*
X109452142Y-107674404D01*
X109499761Y-107722023D01*
X109547380Y-107817261D01*
X109547380Y-108102976D01*
X109499761Y-108198214D01*
X109452142Y-108245833D01*
X100657380Y-107626785D02*
X100657380Y-108198214D01*
X100657380Y-107912500D02*
X99657380Y-107912500D01*
X99800238Y-108007738D01*
X99895476Y-108102976D01*
X99943095Y-108198214D01*
X110150714Y-107722023D02*
X110817380Y-107722023D01*
X109769761Y-107960119D02*
X110484047Y-108198214D01*
X110484047Y-107579166D01*
X123295190Y-107912500D02*
X123771380Y-107912500D01*
X122771380Y-108245833D02*
X123295190Y-107912500D01*
X122771380Y-107579166D01*
X104832619Y-108198214D02*
X104785000Y-108150595D01*
X104737380Y-108055357D01*
X104737380Y-107817261D01*
X104785000Y-107722023D01*
X104832619Y-107674404D01*
X104927857Y-107626785D01*
X105023095Y-107626785D01*
X105165952Y-107674404D01*
X105737380Y-108245833D01*
X105737380Y-107626785D01*
X103467380Y-108722023D02*
X104467380Y-108055357D01*
X103467380Y-108055357D02*
X104467380Y-108722023D01*
X103562619Y-107722023D02*
X103515000Y-107674404D01*
X103467380Y-107579166D01*
X103467380Y-107341071D01*
X103515000Y-107245833D01*
X103562619Y-107198214D01*
X103657857Y-107150595D01*
X103753095Y-107150595D01*
X103895952Y-107198214D01*
X104467380Y-107769642D01*
X104467380Y-107150595D01*
%TO.C,X1*%
X77590476Y-112952380D02*
X78257142Y-113952380D01*
X78257142Y-112952380D02*
X77590476Y-113952380D01*
X79161904Y-113952380D02*
X78590476Y-113952380D01*
X78876190Y-113952380D02*
X78876190Y-112952380D01*
X78780952Y-113095238D01*
X78685714Y-113190476D01*
X78590476Y-113238095D01*
%TO.C,74HC00*%
X41952380Y-118775714D02*
X41952380Y-118109047D01*
X42952380Y-118537619D01*
X42285714Y-117299523D02*
X42952380Y-117299523D01*
X41904761Y-117537619D02*
X42619047Y-117775714D01*
X42619047Y-117156666D01*
X42952380Y-116775714D02*
X41952380Y-116775714D01*
X42428571Y-116775714D02*
X42428571Y-116204285D01*
X42952380Y-116204285D02*
X41952380Y-116204285D01*
X42857142Y-115156666D02*
X42904761Y-115204285D01*
X42952380Y-115347142D01*
X42952380Y-115442380D01*
X42904761Y-115585238D01*
X42809523Y-115680476D01*
X42714285Y-115728095D01*
X42523809Y-115775714D01*
X42380952Y-115775714D01*
X42190476Y-115728095D01*
X42095238Y-115680476D01*
X42000000Y-115585238D01*
X41952380Y-115442380D01*
X41952380Y-115347142D01*
X42000000Y-115204285D01*
X42047619Y-115156666D01*
X41952380Y-114537619D02*
X41952380Y-114442380D01*
X42000000Y-114347142D01*
X42047619Y-114299523D01*
X42142857Y-114251904D01*
X42333333Y-114204285D01*
X42571428Y-114204285D01*
X42761904Y-114251904D01*
X42857142Y-114299523D01*
X42904761Y-114347142D01*
X42952380Y-114442380D01*
X42952380Y-114537619D01*
X42904761Y-114632857D01*
X42857142Y-114680476D01*
X42761904Y-114728095D01*
X42571428Y-114775714D01*
X42333333Y-114775714D01*
X42142857Y-114728095D01*
X42047619Y-114680476D01*
X42000000Y-114632857D01*
X41952380Y-114537619D01*
X41952380Y-113585238D02*
X41952380Y-113490000D01*
X42000000Y-113394761D01*
X42047619Y-113347142D01*
X42142857Y-113299523D01*
X42333333Y-113251904D01*
X42571428Y-113251904D01*
X42761904Y-113299523D01*
X42857142Y-113347142D01*
X42904761Y-113394761D01*
X42952380Y-113490000D01*
X42952380Y-113585238D01*
X42904761Y-113680476D01*
X42857142Y-113728095D01*
X42761904Y-113775714D01*
X42571428Y-113823333D01*
X42333333Y-113823333D01*
X42142857Y-113775714D01*
X42047619Y-113728095D01*
X42000000Y-113680476D01*
X41952380Y-113585238D01*
%TO.C,R1*%
X69433333Y-110752380D02*
X69100000Y-110276190D01*
X68861904Y-110752380D02*
X68861904Y-109752380D01*
X69242857Y-109752380D01*
X69338095Y-109800000D01*
X69385714Y-109847619D01*
X69433333Y-109942857D01*
X69433333Y-110085714D01*
X69385714Y-110180952D01*
X69338095Y-110228571D01*
X69242857Y-110276190D01*
X68861904Y-110276190D01*
X70385714Y-110752380D02*
X69814285Y-110752380D01*
X70100000Y-110752380D02*
X70100000Y-109752380D01*
X70004761Y-109895238D01*
X69909523Y-109990476D01*
X69814285Y-110038095D01*
%TO.C,X2*%
X84090476Y-112952380D02*
X84757142Y-113952380D01*
X84757142Y-112952380D02*
X84090476Y-113952380D01*
X85090476Y-113047619D02*
X85138095Y-113000000D01*
X85233333Y-112952380D01*
X85471428Y-112952380D01*
X85566666Y-113000000D01*
X85614285Y-113047619D01*
X85661904Y-113142857D01*
X85661904Y-113238095D01*
X85614285Y-113380952D01*
X85042857Y-113952380D01*
X85661904Y-113952380D01*
%TO.C,R3*%
X69433333Y-88252380D02*
X69100000Y-87776190D01*
X68861904Y-88252380D02*
X68861904Y-87252380D01*
X69242857Y-87252380D01*
X69338095Y-87300000D01*
X69385714Y-87347619D01*
X69433333Y-87442857D01*
X69433333Y-87585714D01*
X69385714Y-87680952D01*
X69338095Y-87728571D01*
X69242857Y-87776190D01*
X68861904Y-87776190D01*
X69766666Y-87252380D02*
X70385714Y-87252380D01*
X70052380Y-87633333D01*
X70195238Y-87633333D01*
X70290476Y-87680952D01*
X70338095Y-87728571D01*
X70385714Y-87823809D01*
X70385714Y-88061904D01*
X70338095Y-88157142D01*
X70290476Y-88204761D01*
X70195238Y-88252380D01*
X69909523Y-88252380D01*
X69814285Y-88204761D01*
X69766666Y-88157142D01*
%TO.C,XOR*%
X96101380Y-93793642D02*
X97101380Y-93126976D01*
X96101380Y-93126976D02*
X97101380Y-93793642D01*
X96101380Y-92555547D02*
X96101380Y-92365071D01*
X96149000Y-92269833D01*
X96244238Y-92174595D01*
X96434714Y-92126976D01*
X96768047Y-92126976D01*
X96958523Y-92174595D01*
X97053761Y-92269833D01*
X97101380Y-92365071D01*
X97101380Y-92555547D01*
X97053761Y-92650785D01*
X96958523Y-92746023D01*
X96768047Y-92793642D01*
X96434714Y-92793642D01*
X96244238Y-92746023D01*
X96149000Y-92650785D01*
X96101380Y-92555547D01*
X97101380Y-91126976D02*
X96625190Y-91460309D01*
X97101380Y-91698404D02*
X96101380Y-91698404D01*
X96101380Y-91317452D01*
X96149000Y-91222214D01*
X96196619Y-91174595D01*
X96291857Y-91126976D01*
X96434714Y-91126976D01*
X96529952Y-91174595D01*
X96577571Y-91222214D01*
X96625190Y-91317452D01*
X96625190Y-91698404D01*
X101260714Y-90722023D02*
X101927380Y-90722023D01*
X100879761Y-90960119D02*
X101594047Y-91198214D01*
X101594047Y-90579166D01*
X103467380Y-91722023D02*
X104467380Y-91055357D01*
X103467380Y-91055357D02*
X104467380Y-91722023D01*
X103562619Y-90722023D02*
X103515000Y-90674404D01*
X103467380Y-90579166D01*
X103467380Y-90341071D01*
X103515000Y-90245833D01*
X103562619Y-90198214D01*
X103657857Y-90150595D01*
X103753095Y-90150595D01*
X103895952Y-90198214D01*
X104467380Y-90769642D01*
X104467380Y-90150595D01*
X119707380Y-91102976D02*
X119707380Y-91674404D01*
X119707380Y-91388690D02*
X118707380Y-91388690D01*
X118850238Y-91483928D01*
X118945476Y-91579166D01*
X118993095Y-91674404D01*
X118707380Y-90769642D02*
X118707380Y-90150595D01*
X119088333Y-90483928D01*
X119088333Y-90341071D01*
X119135952Y-90245833D01*
X119183571Y-90198214D01*
X119278809Y-90150595D01*
X119516904Y-90150595D01*
X119612142Y-90198214D01*
X119659761Y-90245833D01*
X119707380Y-90341071D01*
X119707380Y-90626785D01*
X119659761Y-90722023D01*
X119612142Y-90769642D01*
X98387380Y-91722023D02*
X99387380Y-91055357D01*
X98387380Y-91055357D02*
X99387380Y-91722023D01*
X99387380Y-90150595D02*
X99387380Y-90722023D01*
X99387380Y-90436309D02*
X98387380Y-90436309D01*
X98530238Y-90531547D01*
X98625476Y-90626785D01*
X98673095Y-90722023D01*
X123295190Y-90912500D02*
X123771380Y-90912500D01*
X122771380Y-91245833D02*
X123295190Y-90912500D01*
X122771380Y-90579166D01*
X108547380Y-91245833D02*
X108547380Y-90626785D01*
X108928333Y-90960119D01*
X108928333Y-90817261D01*
X108975952Y-90722023D01*
X109023571Y-90674404D01*
X109118809Y-90626785D01*
X109356904Y-90626785D01*
X109452142Y-90674404D01*
X109499761Y-90722023D01*
X109547380Y-90817261D01*
X109547380Y-91102976D01*
X109499761Y-91198214D01*
X109452142Y-91245833D01*
X107007380Y-91102976D02*
X107007380Y-91674404D01*
X107007380Y-91388690D02*
X106007380Y-91388690D01*
X106150238Y-91483928D01*
X106245476Y-91579166D01*
X106293095Y-91674404D01*
X106007380Y-90483928D02*
X106007380Y-90388690D01*
X106055000Y-90293452D01*
X106102619Y-90245833D01*
X106197857Y-90198214D01*
X106388333Y-90150595D01*
X106626428Y-90150595D01*
X106816904Y-90198214D01*
X106912142Y-90245833D01*
X106959761Y-90293452D01*
X107007380Y-90388690D01*
X107007380Y-90483928D01*
X106959761Y-90579166D01*
X106912142Y-90626785D01*
X106816904Y-90674404D01*
X106626428Y-90722023D01*
X106388333Y-90722023D01*
X106197857Y-90674404D01*
X106102619Y-90626785D01*
X106055000Y-90579166D01*
X106007380Y-90483928D01*
X117865952Y-91007738D02*
X117818333Y-91102976D01*
X117770714Y-91150595D01*
X117675476Y-91198214D01*
X117627857Y-91198214D01*
X117532619Y-91150595D01*
X117485000Y-91102976D01*
X117437380Y-91007738D01*
X117437380Y-90817261D01*
X117485000Y-90722023D01*
X117532619Y-90674404D01*
X117627857Y-90626785D01*
X117675476Y-90626785D01*
X117770714Y-90674404D01*
X117818333Y-90722023D01*
X117865952Y-90817261D01*
X117865952Y-91007738D01*
X117913571Y-91102976D01*
X117961190Y-91150595D01*
X118056428Y-91198214D01*
X118246904Y-91198214D01*
X118342142Y-91150595D01*
X118389761Y-91102976D01*
X118437380Y-91007738D01*
X118437380Y-90817261D01*
X118389761Y-90722023D01*
X118342142Y-90674404D01*
X118246904Y-90626785D01*
X118056428Y-90626785D01*
X117961190Y-90674404D01*
X117913571Y-90722023D01*
X117865952Y-90817261D01*
X122247380Y-91102976D02*
X122247380Y-91674404D01*
X122247380Y-91388690D02*
X121247380Y-91388690D01*
X121390238Y-91483928D01*
X121485476Y-91579166D01*
X121533095Y-91674404D01*
X122247380Y-90150595D02*
X122247380Y-90722023D01*
X122247380Y-90436309D02*
X121247380Y-90436309D01*
X121390238Y-90531547D01*
X121485476Y-90626785D01*
X121533095Y-90722023D01*
X113627380Y-90722023D02*
X113627380Y-90912500D01*
X113675000Y-91007738D01*
X113722619Y-91055357D01*
X113865476Y-91150595D01*
X114055952Y-91198214D01*
X114436904Y-91198214D01*
X114532142Y-91150595D01*
X114579761Y-91102976D01*
X114627380Y-91007738D01*
X114627380Y-90817261D01*
X114579761Y-90722023D01*
X114532142Y-90674404D01*
X114436904Y-90626785D01*
X114198809Y-90626785D01*
X114103571Y-90674404D01*
X114055952Y-90722023D01*
X114008333Y-90817261D01*
X114008333Y-91007738D01*
X114055952Y-91102976D01*
X114103571Y-91150595D01*
X114198809Y-91198214D01*
X100657380Y-90626785D02*
X100657380Y-91198214D01*
X100657380Y-90912500D02*
X99657380Y-90912500D01*
X99800238Y-91007738D01*
X99895476Y-91102976D01*
X99943095Y-91198214D01*
X109817380Y-90674404D02*
X109817380Y-91150595D01*
X110293571Y-91198214D01*
X110245952Y-91150595D01*
X110198333Y-91055357D01*
X110198333Y-90817261D01*
X110245952Y-90722023D01*
X110293571Y-90674404D01*
X110388809Y-90626785D01*
X110626904Y-90626785D01*
X110722142Y-90674404D01*
X110769761Y-90722023D01*
X110817380Y-90817261D01*
X110817380Y-91055357D01*
X110769761Y-91150595D01*
X110722142Y-91198214D01*
X112087380Y-91102976D02*
X112087380Y-90912500D01*
X112039761Y-90817261D01*
X111992142Y-90769642D01*
X111849285Y-90674404D01*
X111658809Y-90626785D01*
X111277857Y-90626785D01*
X111182619Y-90674404D01*
X111135000Y-90722023D01*
X111087380Y-90817261D01*
X111087380Y-91007738D01*
X111135000Y-91102976D01*
X111182619Y-91150595D01*
X111277857Y-91198214D01*
X111515952Y-91198214D01*
X111611190Y-91150595D01*
X111658809Y-91102976D01*
X111706428Y-91007738D01*
X111706428Y-90817261D01*
X111658809Y-90722023D01*
X111611190Y-90674404D01*
X111515952Y-90626785D01*
X115897380Y-91102976D02*
X115897380Y-91674404D01*
X115897380Y-91388690D02*
X114897380Y-91388690D01*
X115040238Y-91483928D01*
X115135476Y-91579166D01*
X115183095Y-91674404D01*
X114992619Y-90722023D02*
X114945000Y-90674404D01*
X114897380Y-90579166D01*
X114897380Y-90341071D01*
X114945000Y-90245833D01*
X114992619Y-90198214D01*
X115087857Y-90150595D01*
X115183095Y-90150595D01*
X115325952Y-90198214D01*
X115897380Y-90769642D01*
X115897380Y-90150595D01*
X104832619Y-91198214D02*
X104785000Y-91150595D01*
X104737380Y-91055357D01*
X104737380Y-90817261D01*
X104785000Y-90722023D01*
X104832619Y-90674404D01*
X104927857Y-90626785D01*
X105023095Y-90626785D01*
X105165952Y-90674404D01*
X105737380Y-91245833D01*
X105737380Y-90626785D01*
%TO.C,Y*%
X91500000Y-83476190D02*
X91500000Y-83952380D01*
X91166666Y-82952380D02*
X91500000Y-83476190D01*
X91833333Y-82952380D01*
%TO.C,OR*%
X96101380Y-86531738D02*
X96101380Y-86341261D01*
X96149000Y-86246023D01*
X96244238Y-86150785D01*
X96434714Y-86103166D01*
X96768047Y-86103166D01*
X96958523Y-86150785D01*
X97053761Y-86246023D01*
X97101380Y-86341261D01*
X97101380Y-86531738D01*
X97053761Y-86626976D01*
X96958523Y-86722214D01*
X96768047Y-86769833D01*
X96434714Y-86769833D01*
X96244238Y-86722214D01*
X96149000Y-86626976D01*
X96101380Y-86531738D01*
X97101380Y-85103166D02*
X96625190Y-85436500D01*
X97101380Y-85674595D02*
X96101380Y-85674595D01*
X96101380Y-85293642D01*
X96149000Y-85198404D01*
X96196619Y-85150785D01*
X96291857Y-85103166D01*
X96434714Y-85103166D01*
X96529952Y-85150785D01*
X96577571Y-85198404D01*
X96625190Y-85293642D01*
X96625190Y-85674595D01*
X103467380Y-85222023D02*
X104467380Y-84555357D01*
X103467380Y-84555357D02*
X104467380Y-85222023D01*
X103562619Y-84222023D02*
X103515000Y-84174404D01*
X103467380Y-84079166D01*
X103467380Y-83841071D01*
X103515000Y-83745833D01*
X103562619Y-83698214D01*
X103657857Y-83650595D01*
X103753095Y-83650595D01*
X103895952Y-83698214D01*
X104467380Y-84269642D01*
X104467380Y-83650595D01*
X119707380Y-84602976D02*
X119707380Y-85174404D01*
X119707380Y-84888690D02*
X118707380Y-84888690D01*
X118850238Y-84983928D01*
X118945476Y-85079166D01*
X118993095Y-85174404D01*
X118707380Y-83983928D02*
X118707380Y-83888690D01*
X118755000Y-83793452D01*
X118802619Y-83745833D01*
X118897857Y-83698214D01*
X119088333Y-83650595D01*
X119326428Y-83650595D01*
X119516904Y-83698214D01*
X119612142Y-83745833D01*
X119659761Y-83793452D01*
X119707380Y-83888690D01*
X119707380Y-83983928D01*
X119659761Y-84079166D01*
X119612142Y-84126785D01*
X119516904Y-84174404D01*
X119326428Y-84222023D01*
X119088333Y-84222023D01*
X118897857Y-84174404D01*
X118802619Y-84126785D01*
X118755000Y-84079166D01*
X118707380Y-83983928D01*
X106007380Y-84174404D02*
X106007380Y-84650595D01*
X106483571Y-84698214D01*
X106435952Y-84650595D01*
X106388333Y-84555357D01*
X106388333Y-84317261D01*
X106435952Y-84222023D01*
X106483571Y-84174404D01*
X106578809Y-84126785D01*
X106816904Y-84126785D01*
X106912142Y-84174404D01*
X106959761Y-84222023D01*
X107007380Y-84317261D01*
X107007380Y-84555357D01*
X106959761Y-84650595D01*
X106912142Y-84698214D01*
X101022619Y-84698214D02*
X100975000Y-84650595D01*
X100927380Y-84555357D01*
X100927380Y-84317261D01*
X100975000Y-84222023D01*
X101022619Y-84174404D01*
X101117857Y-84126785D01*
X101213095Y-84126785D01*
X101355952Y-84174404D01*
X101927380Y-84745833D01*
X101927380Y-84126785D01*
X100657380Y-84126785D02*
X100657380Y-84698214D01*
X100657380Y-84412500D02*
X99657380Y-84412500D01*
X99800238Y-84507738D01*
X99895476Y-84602976D01*
X99943095Y-84698214D01*
X98387380Y-85222023D02*
X99387380Y-84555357D01*
X98387380Y-84555357D02*
X99387380Y-85222023D01*
X99387380Y-83650595D02*
X99387380Y-84222023D01*
X99387380Y-83936309D02*
X98387380Y-83936309D01*
X98530238Y-84031547D01*
X98625476Y-84126785D01*
X98673095Y-84222023D01*
X113627380Y-84745833D02*
X113627380Y-84126785D01*
X114008333Y-84460119D01*
X114008333Y-84317261D01*
X114055952Y-84222023D01*
X114103571Y-84174404D01*
X114198809Y-84126785D01*
X114436904Y-84126785D01*
X114532142Y-84174404D01*
X114579761Y-84222023D01*
X114627380Y-84317261D01*
X114627380Y-84602976D01*
X114579761Y-84698214D01*
X114532142Y-84745833D01*
X105070714Y-84222023D02*
X105737380Y-84222023D01*
X104689761Y-84460119D02*
X105404047Y-84698214D01*
X105404047Y-84079166D01*
X121675952Y-84507738D02*
X121628333Y-84602976D01*
X121580714Y-84650595D01*
X121485476Y-84698214D01*
X121437857Y-84698214D01*
X121342619Y-84650595D01*
X121295000Y-84602976D01*
X121247380Y-84507738D01*
X121247380Y-84317261D01*
X121295000Y-84222023D01*
X121342619Y-84174404D01*
X121437857Y-84126785D01*
X121485476Y-84126785D01*
X121580714Y-84174404D01*
X121628333Y-84222023D01*
X121675952Y-84317261D01*
X121675952Y-84507738D01*
X121723571Y-84602976D01*
X121771190Y-84650595D01*
X121866428Y-84698214D01*
X122056904Y-84698214D01*
X122152142Y-84650595D01*
X122199761Y-84602976D01*
X122247380Y-84507738D01*
X122247380Y-84317261D01*
X122199761Y-84222023D01*
X122152142Y-84174404D01*
X122056904Y-84126785D01*
X121866428Y-84126785D01*
X121771190Y-84174404D01*
X121723571Y-84222023D01*
X121675952Y-84317261D01*
X117437380Y-84222023D02*
X117437380Y-84412500D01*
X117485000Y-84507738D01*
X117532619Y-84555357D01*
X117675476Y-84650595D01*
X117865952Y-84698214D01*
X118246904Y-84698214D01*
X118342142Y-84650595D01*
X118389761Y-84602976D01*
X118437380Y-84507738D01*
X118437380Y-84317261D01*
X118389761Y-84222023D01*
X118342142Y-84174404D01*
X118246904Y-84126785D01*
X118008809Y-84126785D01*
X117913571Y-84174404D01*
X117865952Y-84222023D01*
X117818333Y-84317261D01*
X117818333Y-84507738D01*
X117865952Y-84602976D01*
X117913571Y-84650595D01*
X118008809Y-84698214D01*
X115897380Y-84602976D02*
X115897380Y-84412500D01*
X115849761Y-84317261D01*
X115802142Y-84269642D01*
X115659285Y-84174404D01*
X115468809Y-84126785D01*
X115087857Y-84126785D01*
X114992619Y-84174404D01*
X114945000Y-84222023D01*
X114897380Y-84317261D01*
X114897380Y-84507738D01*
X114945000Y-84602976D01*
X114992619Y-84650595D01*
X115087857Y-84698214D01*
X115325952Y-84698214D01*
X115421190Y-84650595D01*
X115468809Y-84602976D01*
X115516428Y-84507738D01*
X115516428Y-84317261D01*
X115468809Y-84222023D01*
X115421190Y-84174404D01*
X115325952Y-84126785D01*
X123295190Y-84412500D02*
X123771380Y-84412500D01*
X122771380Y-84745833D02*
X123295190Y-84412500D01*
X122771380Y-84079166D01*
%TO.C,R2*%
X69333333Y-84652380D02*
X69000000Y-84176190D01*
X68761904Y-84652380D02*
X68761904Y-83652380D01*
X69142857Y-83652380D01*
X69238095Y-83700000D01*
X69285714Y-83747619D01*
X69333333Y-83842857D01*
X69333333Y-83985714D01*
X69285714Y-84080952D01*
X69238095Y-84128571D01*
X69142857Y-84176190D01*
X68761904Y-84176190D01*
X69714285Y-83747619D02*
X69761904Y-83700000D01*
X69857142Y-83652380D01*
X70095238Y-83652380D01*
X70190476Y-83700000D01*
X70238095Y-83747619D01*
X70285714Y-83842857D01*
X70285714Y-83938095D01*
X70238095Y-84080952D01*
X69666666Y-84652380D01*
X70285714Y-84652380D01*
%TO.C,R5*%
X69423333Y-95952380D02*
X69090000Y-95476190D01*
X68851904Y-95952380D02*
X68851904Y-94952380D01*
X69232857Y-94952380D01*
X69328095Y-95000000D01*
X69375714Y-95047619D01*
X69423333Y-95142857D01*
X69423333Y-95285714D01*
X69375714Y-95380952D01*
X69328095Y-95428571D01*
X69232857Y-95476190D01*
X68851904Y-95476190D01*
X70328095Y-94952380D02*
X69851904Y-94952380D01*
X69804285Y-95428571D01*
X69851904Y-95380952D01*
X69947142Y-95333333D01*
X70185238Y-95333333D01*
X70280476Y-95380952D01*
X70328095Y-95428571D01*
X70375714Y-95523809D01*
X70375714Y-95761904D01*
X70328095Y-95857142D01*
X70280476Y-95904761D01*
X70185238Y-95952380D01*
X69947142Y-95952380D01*
X69851904Y-95904761D01*
X69804285Y-95857142D01*
%TO.C,SW2*%
X88666666Y-95804761D02*
X88809523Y-95852380D01*
X89047619Y-95852380D01*
X89142857Y-95804761D01*
X89190476Y-95757142D01*
X89238095Y-95661904D01*
X89238095Y-95566666D01*
X89190476Y-95471428D01*
X89142857Y-95423809D01*
X89047619Y-95376190D01*
X88857142Y-95328571D01*
X88761904Y-95280952D01*
X88714285Y-95233333D01*
X88666666Y-95138095D01*
X88666666Y-95042857D01*
X88714285Y-94947619D01*
X88761904Y-94900000D01*
X88857142Y-94852380D01*
X89095238Y-94852380D01*
X89238095Y-94900000D01*
X89571428Y-94852380D02*
X89809523Y-95852380D01*
X90000000Y-95138095D01*
X90190476Y-95852380D01*
X90428571Y-94852380D01*
X90761904Y-94947619D02*
X90809523Y-94900000D01*
X90904761Y-94852380D01*
X91142857Y-94852380D01*
X91238095Y-94900000D01*
X91285714Y-94947619D01*
X91333333Y-95042857D01*
X91333333Y-95138095D01*
X91285714Y-95280952D01*
X90714285Y-95852380D01*
X91333333Y-95852380D01*
%TO.C,R4*%
X69423333Y-92252380D02*
X69090000Y-91776190D01*
X68851904Y-92252380D02*
X68851904Y-91252380D01*
X69232857Y-91252380D01*
X69328095Y-91300000D01*
X69375714Y-91347619D01*
X69423333Y-91442857D01*
X69423333Y-91585714D01*
X69375714Y-91680952D01*
X69328095Y-91728571D01*
X69232857Y-91776190D01*
X68851904Y-91776190D01*
X70280476Y-91585714D02*
X70280476Y-92252380D01*
X70042380Y-91204761D02*
X69804285Y-91919047D01*
X70423333Y-91919047D01*
%TO.C,SW1*%
X78666666Y-95804761D02*
X78809523Y-95852380D01*
X79047619Y-95852380D01*
X79142857Y-95804761D01*
X79190476Y-95757142D01*
X79238095Y-95661904D01*
X79238095Y-95566666D01*
X79190476Y-95471428D01*
X79142857Y-95423809D01*
X79047619Y-95376190D01*
X78857142Y-95328571D01*
X78761904Y-95280952D01*
X78714285Y-95233333D01*
X78666666Y-95138095D01*
X78666666Y-95042857D01*
X78714285Y-94947619D01*
X78761904Y-94900000D01*
X78857142Y-94852380D01*
X79095238Y-94852380D01*
X79238095Y-94900000D01*
X79571428Y-94852380D02*
X79809523Y-95852380D01*
X80000000Y-95138095D01*
X80190476Y-95852380D01*
X80428571Y-94852380D01*
X81333333Y-95852380D02*
X80761904Y-95852380D01*
X81047619Y-95852380D02*
X81047619Y-94852380D01*
X80952380Y-94995238D01*
X80857142Y-95090476D01*
X80761904Y-95138095D01*
%TO.C,AND*%
X96815666Y-80698404D02*
X96815666Y-80222214D01*
X97101380Y-80793642D02*
X96101380Y-80460309D01*
X97101380Y-80126976D01*
X97101380Y-79793642D02*
X96101380Y-79793642D01*
X97101380Y-79222214D01*
X96101380Y-79222214D01*
X97101380Y-78746023D02*
X96101380Y-78746023D01*
X96101380Y-78507928D01*
X96149000Y-78365071D01*
X96244238Y-78269833D01*
X96339476Y-78222214D01*
X96529952Y-78174595D01*
X96672809Y-78174595D01*
X96863285Y-78222214D01*
X96958523Y-78269833D01*
X97053761Y-78365071D01*
X97101380Y-78507928D01*
X97101380Y-78746023D01*
X98387380Y-78722023D02*
X99387380Y-78055357D01*
X98387380Y-78055357D02*
X99387380Y-78722023D01*
X99387380Y-77150595D02*
X99387380Y-77722023D01*
X99387380Y-77436309D02*
X98387380Y-77436309D01*
X98530238Y-77531547D01*
X98625476Y-77626785D01*
X98673095Y-77722023D01*
X111087380Y-77674404D02*
X111087380Y-78150595D01*
X111563571Y-78198214D01*
X111515952Y-78150595D01*
X111468333Y-78055357D01*
X111468333Y-77817261D01*
X111515952Y-77722023D01*
X111563571Y-77674404D01*
X111658809Y-77626785D01*
X111896904Y-77626785D01*
X111992142Y-77674404D01*
X112039761Y-77722023D01*
X112087380Y-77817261D01*
X112087380Y-78055357D01*
X112039761Y-78150595D01*
X111992142Y-78198214D01*
X121247380Y-77722023D02*
X121247380Y-77912500D01*
X121295000Y-78007738D01*
X121342619Y-78055357D01*
X121485476Y-78150595D01*
X121675952Y-78198214D01*
X122056904Y-78198214D01*
X122152142Y-78150595D01*
X122199761Y-78102976D01*
X122247380Y-78007738D01*
X122247380Y-77817261D01*
X122199761Y-77722023D01*
X122152142Y-77674404D01*
X122056904Y-77626785D01*
X121818809Y-77626785D01*
X121723571Y-77674404D01*
X121675952Y-77722023D01*
X121628333Y-77817261D01*
X121628333Y-78007738D01*
X121675952Y-78102976D01*
X121723571Y-78150595D01*
X121818809Y-78198214D01*
X108547380Y-78245833D02*
X108547380Y-77626785D01*
X108928333Y-77960119D01*
X108928333Y-77817261D01*
X108975952Y-77722023D01*
X109023571Y-77674404D01*
X109118809Y-77626785D01*
X109356904Y-77626785D01*
X109452142Y-77674404D01*
X109499761Y-77722023D01*
X109547380Y-77817261D01*
X109547380Y-78102976D01*
X109499761Y-78198214D01*
X109452142Y-78245833D01*
X100657380Y-77626785D02*
X100657380Y-78198214D01*
X100657380Y-77912500D02*
X99657380Y-77912500D01*
X99800238Y-78007738D01*
X99895476Y-78102976D01*
X99943095Y-78198214D01*
X110150714Y-77722023D02*
X110817380Y-77722023D01*
X109769761Y-77960119D02*
X110484047Y-78198214D01*
X110484047Y-77579166D01*
X123295190Y-77912500D02*
X123771380Y-77912500D01*
X122771380Y-78245833D02*
X123295190Y-77912500D01*
X122771380Y-77579166D01*
X104832619Y-78198214D02*
X104785000Y-78150595D01*
X104737380Y-78055357D01*
X104737380Y-77817261D01*
X104785000Y-77722023D01*
X104832619Y-77674404D01*
X104927857Y-77626785D01*
X105023095Y-77626785D01*
X105165952Y-77674404D01*
X105737380Y-78245833D01*
X105737380Y-77626785D01*
X103467380Y-78722023D02*
X104467380Y-78055357D01*
X103467380Y-78055357D02*
X104467380Y-78722023D01*
X103562619Y-77722023D02*
X103515000Y-77674404D01*
X103467380Y-77579166D01*
X103467380Y-77341071D01*
X103515000Y-77245833D01*
X103562619Y-77198214D01*
X103657857Y-77150595D01*
X103753095Y-77150595D01*
X103895952Y-77198214D01*
X104467380Y-77769642D01*
X104467380Y-77150595D01*
%TO.C,X1*%
X77590476Y-82952380D02*
X78257142Y-83952380D01*
X78257142Y-82952380D02*
X77590476Y-83952380D01*
X79161904Y-83952380D02*
X78590476Y-83952380D01*
X78876190Y-83952380D02*
X78876190Y-82952380D01*
X78780952Y-83095238D01*
X78685714Y-83190476D01*
X78590476Y-83238095D01*
%TO.C,74HC00*%
X41952380Y-88775714D02*
X41952380Y-88109047D01*
X42952380Y-88537619D01*
X42285714Y-87299523D02*
X42952380Y-87299523D01*
X41904761Y-87537619D02*
X42619047Y-87775714D01*
X42619047Y-87156666D01*
X42952380Y-86775714D02*
X41952380Y-86775714D01*
X42428571Y-86775714D02*
X42428571Y-86204285D01*
X42952380Y-86204285D02*
X41952380Y-86204285D01*
X42857142Y-85156666D02*
X42904761Y-85204285D01*
X42952380Y-85347142D01*
X42952380Y-85442380D01*
X42904761Y-85585238D01*
X42809523Y-85680476D01*
X42714285Y-85728095D01*
X42523809Y-85775714D01*
X42380952Y-85775714D01*
X42190476Y-85728095D01*
X42095238Y-85680476D01*
X42000000Y-85585238D01*
X41952380Y-85442380D01*
X41952380Y-85347142D01*
X42000000Y-85204285D01*
X42047619Y-85156666D01*
X41952380Y-84537619D02*
X41952380Y-84442380D01*
X42000000Y-84347142D01*
X42047619Y-84299523D01*
X42142857Y-84251904D01*
X42333333Y-84204285D01*
X42571428Y-84204285D01*
X42761904Y-84251904D01*
X42857142Y-84299523D01*
X42904761Y-84347142D01*
X42952380Y-84442380D01*
X42952380Y-84537619D01*
X42904761Y-84632857D01*
X42857142Y-84680476D01*
X42761904Y-84728095D01*
X42571428Y-84775714D01*
X42333333Y-84775714D01*
X42142857Y-84728095D01*
X42047619Y-84680476D01*
X42000000Y-84632857D01*
X41952380Y-84537619D01*
X41952380Y-83585238D02*
X41952380Y-83490000D01*
X42000000Y-83394761D01*
X42047619Y-83347142D01*
X42142857Y-83299523D01*
X42333333Y-83251904D01*
X42571428Y-83251904D01*
X42761904Y-83299523D01*
X42857142Y-83347142D01*
X42904761Y-83394761D01*
X42952380Y-83490000D01*
X42952380Y-83585238D01*
X42904761Y-83680476D01*
X42857142Y-83728095D01*
X42761904Y-83775714D01*
X42571428Y-83823333D01*
X42333333Y-83823333D01*
X42142857Y-83775714D01*
X42047619Y-83728095D01*
X42000000Y-83680476D01*
X41952380Y-83585238D01*
%TO.C,R1*%
X69433333Y-80752380D02*
X69100000Y-80276190D01*
X68861904Y-80752380D02*
X68861904Y-79752380D01*
X69242857Y-79752380D01*
X69338095Y-79800000D01*
X69385714Y-79847619D01*
X69433333Y-79942857D01*
X69433333Y-80085714D01*
X69385714Y-80180952D01*
X69338095Y-80228571D01*
X69242857Y-80276190D01*
X68861904Y-80276190D01*
X70385714Y-80752380D02*
X69814285Y-80752380D01*
X70100000Y-80752380D02*
X70100000Y-79752380D01*
X70004761Y-79895238D01*
X69909523Y-79990476D01*
X69814285Y-80038095D01*
%TO.C,X2*%
X84090476Y-82952380D02*
X84757142Y-83952380D01*
X84757142Y-82952380D02*
X84090476Y-83952380D01*
X85090476Y-83047619D02*
X85138095Y-83000000D01*
X85233333Y-82952380D01*
X85471428Y-82952380D01*
X85566666Y-83000000D01*
X85614285Y-83047619D01*
X85661904Y-83142857D01*
X85661904Y-83238095D01*
X85614285Y-83380952D01*
X85042857Y-83952380D01*
X85661904Y-83952380D01*
%TO.C,Y*%
X91500000Y-53476190D02*
X91500000Y-53952380D01*
X91166666Y-52952380D02*
X91500000Y-53476190D01*
X91833333Y-52952380D01*
%TO.C,OR*%
X96101380Y-56531738D02*
X96101380Y-56341261D01*
X96149000Y-56246023D01*
X96244238Y-56150785D01*
X96434714Y-56103166D01*
X96768047Y-56103166D01*
X96958523Y-56150785D01*
X97053761Y-56246023D01*
X97101380Y-56341261D01*
X97101380Y-56531738D01*
X97053761Y-56626976D01*
X96958523Y-56722214D01*
X96768047Y-56769833D01*
X96434714Y-56769833D01*
X96244238Y-56722214D01*
X96149000Y-56626976D01*
X96101380Y-56531738D01*
X97101380Y-55103166D02*
X96625190Y-55436500D01*
X97101380Y-55674595D02*
X96101380Y-55674595D01*
X96101380Y-55293642D01*
X96149000Y-55198404D01*
X96196619Y-55150785D01*
X96291857Y-55103166D01*
X96434714Y-55103166D01*
X96529952Y-55150785D01*
X96577571Y-55198404D01*
X96625190Y-55293642D01*
X96625190Y-55674595D01*
X103467380Y-55222023D02*
X104467380Y-54555357D01*
X103467380Y-54555357D02*
X104467380Y-55222023D01*
X103562619Y-54222023D02*
X103515000Y-54174404D01*
X103467380Y-54079166D01*
X103467380Y-53841071D01*
X103515000Y-53745833D01*
X103562619Y-53698214D01*
X103657857Y-53650595D01*
X103753095Y-53650595D01*
X103895952Y-53698214D01*
X104467380Y-54269642D01*
X104467380Y-53650595D01*
X119707380Y-54602976D02*
X119707380Y-55174404D01*
X119707380Y-54888690D02*
X118707380Y-54888690D01*
X118850238Y-54983928D01*
X118945476Y-55079166D01*
X118993095Y-55174404D01*
X118707380Y-53983928D02*
X118707380Y-53888690D01*
X118755000Y-53793452D01*
X118802619Y-53745833D01*
X118897857Y-53698214D01*
X119088333Y-53650595D01*
X119326428Y-53650595D01*
X119516904Y-53698214D01*
X119612142Y-53745833D01*
X119659761Y-53793452D01*
X119707380Y-53888690D01*
X119707380Y-53983928D01*
X119659761Y-54079166D01*
X119612142Y-54126785D01*
X119516904Y-54174404D01*
X119326428Y-54222023D01*
X119088333Y-54222023D01*
X118897857Y-54174404D01*
X118802619Y-54126785D01*
X118755000Y-54079166D01*
X118707380Y-53983928D01*
X106007380Y-54174404D02*
X106007380Y-54650595D01*
X106483571Y-54698214D01*
X106435952Y-54650595D01*
X106388333Y-54555357D01*
X106388333Y-54317261D01*
X106435952Y-54222023D01*
X106483571Y-54174404D01*
X106578809Y-54126785D01*
X106816904Y-54126785D01*
X106912142Y-54174404D01*
X106959761Y-54222023D01*
X107007380Y-54317261D01*
X107007380Y-54555357D01*
X106959761Y-54650595D01*
X106912142Y-54698214D01*
X101022619Y-54698214D02*
X100975000Y-54650595D01*
X100927380Y-54555357D01*
X100927380Y-54317261D01*
X100975000Y-54222023D01*
X101022619Y-54174404D01*
X101117857Y-54126785D01*
X101213095Y-54126785D01*
X101355952Y-54174404D01*
X101927380Y-54745833D01*
X101927380Y-54126785D01*
X100657380Y-54126785D02*
X100657380Y-54698214D01*
X100657380Y-54412500D02*
X99657380Y-54412500D01*
X99800238Y-54507738D01*
X99895476Y-54602976D01*
X99943095Y-54698214D01*
X98387380Y-55222023D02*
X99387380Y-54555357D01*
X98387380Y-54555357D02*
X99387380Y-55222023D01*
X99387380Y-53650595D02*
X99387380Y-54222023D01*
X99387380Y-53936309D02*
X98387380Y-53936309D01*
X98530238Y-54031547D01*
X98625476Y-54126785D01*
X98673095Y-54222023D01*
X113627380Y-54745833D02*
X113627380Y-54126785D01*
X114008333Y-54460119D01*
X114008333Y-54317261D01*
X114055952Y-54222023D01*
X114103571Y-54174404D01*
X114198809Y-54126785D01*
X114436904Y-54126785D01*
X114532142Y-54174404D01*
X114579761Y-54222023D01*
X114627380Y-54317261D01*
X114627380Y-54602976D01*
X114579761Y-54698214D01*
X114532142Y-54745833D01*
X105070714Y-54222023D02*
X105737380Y-54222023D01*
X104689761Y-54460119D02*
X105404047Y-54698214D01*
X105404047Y-54079166D01*
X121675952Y-54507738D02*
X121628333Y-54602976D01*
X121580714Y-54650595D01*
X121485476Y-54698214D01*
X121437857Y-54698214D01*
X121342619Y-54650595D01*
X121295000Y-54602976D01*
X121247380Y-54507738D01*
X121247380Y-54317261D01*
X121295000Y-54222023D01*
X121342619Y-54174404D01*
X121437857Y-54126785D01*
X121485476Y-54126785D01*
X121580714Y-54174404D01*
X121628333Y-54222023D01*
X121675952Y-54317261D01*
X121675952Y-54507738D01*
X121723571Y-54602976D01*
X121771190Y-54650595D01*
X121866428Y-54698214D01*
X122056904Y-54698214D01*
X122152142Y-54650595D01*
X122199761Y-54602976D01*
X122247380Y-54507738D01*
X122247380Y-54317261D01*
X122199761Y-54222023D01*
X122152142Y-54174404D01*
X122056904Y-54126785D01*
X121866428Y-54126785D01*
X121771190Y-54174404D01*
X121723571Y-54222023D01*
X121675952Y-54317261D01*
X117437380Y-54222023D02*
X117437380Y-54412500D01*
X117485000Y-54507738D01*
X117532619Y-54555357D01*
X117675476Y-54650595D01*
X117865952Y-54698214D01*
X118246904Y-54698214D01*
X118342142Y-54650595D01*
X118389761Y-54602976D01*
X118437380Y-54507738D01*
X118437380Y-54317261D01*
X118389761Y-54222023D01*
X118342142Y-54174404D01*
X118246904Y-54126785D01*
X118008809Y-54126785D01*
X117913571Y-54174404D01*
X117865952Y-54222023D01*
X117818333Y-54317261D01*
X117818333Y-54507738D01*
X117865952Y-54602976D01*
X117913571Y-54650595D01*
X118008809Y-54698214D01*
X115897380Y-54602976D02*
X115897380Y-54412500D01*
X115849761Y-54317261D01*
X115802142Y-54269642D01*
X115659285Y-54174404D01*
X115468809Y-54126785D01*
X115087857Y-54126785D01*
X114992619Y-54174404D01*
X114945000Y-54222023D01*
X114897380Y-54317261D01*
X114897380Y-54507738D01*
X114945000Y-54602976D01*
X114992619Y-54650595D01*
X115087857Y-54698214D01*
X115325952Y-54698214D01*
X115421190Y-54650595D01*
X115468809Y-54602976D01*
X115516428Y-54507738D01*
X115516428Y-54317261D01*
X115468809Y-54222023D01*
X115421190Y-54174404D01*
X115325952Y-54126785D01*
X123295190Y-54412500D02*
X123771380Y-54412500D01*
X122771380Y-54745833D02*
X123295190Y-54412500D01*
X122771380Y-54079166D01*
%TO.C,XOR*%
X96101380Y-63793642D02*
X97101380Y-63126976D01*
X96101380Y-63126976D02*
X97101380Y-63793642D01*
X96101380Y-62555547D02*
X96101380Y-62365071D01*
X96149000Y-62269833D01*
X96244238Y-62174595D01*
X96434714Y-62126976D01*
X96768047Y-62126976D01*
X96958523Y-62174595D01*
X97053761Y-62269833D01*
X97101380Y-62365071D01*
X97101380Y-62555547D01*
X97053761Y-62650785D01*
X96958523Y-62746023D01*
X96768047Y-62793642D01*
X96434714Y-62793642D01*
X96244238Y-62746023D01*
X96149000Y-62650785D01*
X96101380Y-62555547D01*
X97101380Y-61126976D02*
X96625190Y-61460309D01*
X97101380Y-61698404D02*
X96101380Y-61698404D01*
X96101380Y-61317452D01*
X96149000Y-61222214D01*
X96196619Y-61174595D01*
X96291857Y-61126976D01*
X96434714Y-61126976D01*
X96529952Y-61174595D01*
X96577571Y-61222214D01*
X96625190Y-61317452D01*
X96625190Y-61698404D01*
X101260714Y-60722023D02*
X101927380Y-60722023D01*
X100879761Y-60960119D02*
X101594047Y-61198214D01*
X101594047Y-60579166D01*
X103467380Y-61722023D02*
X104467380Y-61055357D01*
X103467380Y-61055357D02*
X104467380Y-61722023D01*
X103562619Y-60722023D02*
X103515000Y-60674404D01*
X103467380Y-60579166D01*
X103467380Y-60341071D01*
X103515000Y-60245833D01*
X103562619Y-60198214D01*
X103657857Y-60150595D01*
X103753095Y-60150595D01*
X103895952Y-60198214D01*
X104467380Y-60769642D01*
X104467380Y-60150595D01*
X119707380Y-61102976D02*
X119707380Y-61674404D01*
X119707380Y-61388690D02*
X118707380Y-61388690D01*
X118850238Y-61483928D01*
X118945476Y-61579166D01*
X118993095Y-61674404D01*
X118707380Y-60769642D02*
X118707380Y-60150595D01*
X119088333Y-60483928D01*
X119088333Y-60341071D01*
X119135952Y-60245833D01*
X119183571Y-60198214D01*
X119278809Y-60150595D01*
X119516904Y-60150595D01*
X119612142Y-60198214D01*
X119659761Y-60245833D01*
X119707380Y-60341071D01*
X119707380Y-60626785D01*
X119659761Y-60722023D01*
X119612142Y-60769642D01*
X98387380Y-61722023D02*
X99387380Y-61055357D01*
X98387380Y-61055357D02*
X99387380Y-61722023D01*
X99387380Y-60150595D02*
X99387380Y-60722023D01*
X99387380Y-60436309D02*
X98387380Y-60436309D01*
X98530238Y-60531547D01*
X98625476Y-60626785D01*
X98673095Y-60722023D01*
X123295190Y-60912500D02*
X123771380Y-60912500D01*
X122771380Y-61245833D02*
X123295190Y-60912500D01*
X122771380Y-60579166D01*
X108547380Y-61245833D02*
X108547380Y-60626785D01*
X108928333Y-60960119D01*
X108928333Y-60817261D01*
X108975952Y-60722023D01*
X109023571Y-60674404D01*
X109118809Y-60626785D01*
X109356904Y-60626785D01*
X109452142Y-60674404D01*
X109499761Y-60722023D01*
X109547380Y-60817261D01*
X109547380Y-61102976D01*
X109499761Y-61198214D01*
X109452142Y-61245833D01*
X107007380Y-61102976D02*
X107007380Y-61674404D01*
X107007380Y-61388690D02*
X106007380Y-61388690D01*
X106150238Y-61483928D01*
X106245476Y-61579166D01*
X106293095Y-61674404D01*
X106007380Y-60483928D02*
X106007380Y-60388690D01*
X106055000Y-60293452D01*
X106102619Y-60245833D01*
X106197857Y-60198214D01*
X106388333Y-60150595D01*
X106626428Y-60150595D01*
X106816904Y-60198214D01*
X106912142Y-60245833D01*
X106959761Y-60293452D01*
X107007380Y-60388690D01*
X107007380Y-60483928D01*
X106959761Y-60579166D01*
X106912142Y-60626785D01*
X106816904Y-60674404D01*
X106626428Y-60722023D01*
X106388333Y-60722023D01*
X106197857Y-60674404D01*
X106102619Y-60626785D01*
X106055000Y-60579166D01*
X106007380Y-60483928D01*
X117865952Y-61007738D02*
X117818333Y-61102976D01*
X117770714Y-61150595D01*
X117675476Y-61198214D01*
X117627857Y-61198214D01*
X117532619Y-61150595D01*
X117485000Y-61102976D01*
X117437380Y-61007738D01*
X117437380Y-60817261D01*
X117485000Y-60722023D01*
X117532619Y-60674404D01*
X117627857Y-60626785D01*
X117675476Y-60626785D01*
X117770714Y-60674404D01*
X117818333Y-60722023D01*
X117865952Y-60817261D01*
X117865952Y-61007738D01*
X117913571Y-61102976D01*
X117961190Y-61150595D01*
X118056428Y-61198214D01*
X118246904Y-61198214D01*
X118342142Y-61150595D01*
X118389761Y-61102976D01*
X118437380Y-61007738D01*
X118437380Y-60817261D01*
X118389761Y-60722023D01*
X118342142Y-60674404D01*
X118246904Y-60626785D01*
X118056428Y-60626785D01*
X117961190Y-60674404D01*
X117913571Y-60722023D01*
X117865952Y-60817261D01*
X122247380Y-61102976D02*
X122247380Y-61674404D01*
X122247380Y-61388690D02*
X121247380Y-61388690D01*
X121390238Y-61483928D01*
X121485476Y-61579166D01*
X121533095Y-61674404D01*
X122247380Y-60150595D02*
X122247380Y-60722023D01*
X122247380Y-60436309D02*
X121247380Y-60436309D01*
X121390238Y-60531547D01*
X121485476Y-60626785D01*
X121533095Y-60722023D01*
X113627380Y-60722023D02*
X113627380Y-60912500D01*
X113675000Y-61007738D01*
X113722619Y-61055357D01*
X113865476Y-61150595D01*
X114055952Y-61198214D01*
X114436904Y-61198214D01*
X114532142Y-61150595D01*
X114579761Y-61102976D01*
X114627380Y-61007738D01*
X114627380Y-60817261D01*
X114579761Y-60722023D01*
X114532142Y-60674404D01*
X114436904Y-60626785D01*
X114198809Y-60626785D01*
X114103571Y-60674404D01*
X114055952Y-60722023D01*
X114008333Y-60817261D01*
X114008333Y-61007738D01*
X114055952Y-61102976D01*
X114103571Y-61150595D01*
X114198809Y-61198214D01*
X100657380Y-60626785D02*
X100657380Y-61198214D01*
X100657380Y-60912500D02*
X99657380Y-60912500D01*
X99800238Y-61007738D01*
X99895476Y-61102976D01*
X99943095Y-61198214D01*
X109817380Y-60674404D02*
X109817380Y-61150595D01*
X110293571Y-61198214D01*
X110245952Y-61150595D01*
X110198333Y-61055357D01*
X110198333Y-60817261D01*
X110245952Y-60722023D01*
X110293571Y-60674404D01*
X110388809Y-60626785D01*
X110626904Y-60626785D01*
X110722142Y-60674404D01*
X110769761Y-60722023D01*
X110817380Y-60817261D01*
X110817380Y-61055357D01*
X110769761Y-61150595D01*
X110722142Y-61198214D01*
X112087380Y-61102976D02*
X112087380Y-60912500D01*
X112039761Y-60817261D01*
X111992142Y-60769642D01*
X111849285Y-60674404D01*
X111658809Y-60626785D01*
X111277857Y-60626785D01*
X111182619Y-60674404D01*
X111135000Y-60722023D01*
X111087380Y-60817261D01*
X111087380Y-61007738D01*
X111135000Y-61102976D01*
X111182619Y-61150595D01*
X111277857Y-61198214D01*
X111515952Y-61198214D01*
X111611190Y-61150595D01*
X111658809Y-61102976D01*
X111706428Y-61007738D01*
X111706428Y-60817261D01*
X111658809Y-60722023D01*
X111611190Y-60674404D01*
X111515952Y-60626785D01*
X115897380Y-61102976D02*
X115897380Y-61674404D01*
X115897380Y-61388690D02*
X114897380Y-61388690D01*
X115040238Y-61483928D01*
X115135476Y-61579166D01*
X115183095Y-61674404D01*
X114992619Y-60722023D02*
X114945000Y-60674404D01*
X114897380Y-60579166D01*
X114897380Y-60341071D01*
X114945000Y-60245833D01*
X114992619Y-60198214D01*
X115087857Y-60150595D01*
X115183095Y-60150595D01*
X115325952Y-60198214D01*
X115897380Y-60769642D01*
X115897380Y-60150595D01*
X104832619Y-61198214D02*
X104785000Y-61150595D01*
X104737380Y-61055357D01*
X104737380Y-60817261D01*
X104785000Y-60722023D01*
X104832619Y-60674404D01*
X104927857Y-60626785D01*
X105023095Y-60626785D01*
X105165952Y-60674404D01*
X105737380Y-61245833D01*
X105737380Y-60626785D01*
%TO.C,R3*%
X69433333Y-58252380D02*
X69100000Y-57776190D01*
X68861904Y-58252380D02*
X68861904Y-57252380D01*
X69242857Y-57252380D01*
X69338095Y-57300000D01*
X69385714Y-57347619D01*
X69433333Y-57442857D01*
X69433333Y-57585714D01*
X69385714Y-57680952D01*
X69338095Y-57728571D01*
X69242857Y-57776190D01*
X68861904Y-57776190D01*
X69766666Y-57252380D02*
X70385714Y-57252380D01*
X70052380Y-57633333D01*
X70195238Y-57633333D01*
X70290476Y-57680952D01*
X70338095Y-57728571D01*
X70385714Y-57823809D01*
X70385714Y-58061904D01*
X70338095Y-58157142D01*
X70290476Y-58204761D01*
X70195238Y-58252380D01*
X69909523Y-58252380D01*
X69814285Y-58204761D01*
X69766666Y-58157142D01*
%TO.C,R2*%
X69333333Y-54652380D02*
X69000000Y-54176190D01*
X68761904Y-54652380D02*
X68761904Y-53652380D01*
X69142857Y-53652380D01*
X69238095Y-53700000D01*
X69285714Y-53747619D01*
X69333333Y-53842857D01*
X69333333Y-53985714D01*
X69285714Y-54080952D01*
X69238095Y-54128571D01*
X69142857Y-54176190D01*
X68761904Y-54176190D01*
X69714285Y-53747619D02*
X69761904Y-53700000D01*
X69857142Y-53652380D01*
X70095238Y-53652380D01*
X70190476Y-53700000D01*
X70238095Y-53747619D01*
X70285714Y-53842857D01*
X70285714Y-53938095D01*
X70238095Y-54080952D01*
X69666666Y-54652380D01*
X70285714Y-54652380D01*
%TO.C,74HC00*%
X41952380Y-58775714D02*
X41952380Y-58109047D01*
X42952380Y-58537619D01*
X42285714Y-57299523D02*
X42952380Y-57299523D01*
X41904761Y-57537619D02*
X42619047Y-57775714D01*
X42619047Y-57156666D01*
X42952380Y-56775714D02*
X41952380Y-56775714D01*
X42428571Y-56775714D02*
X42428571Y-56204285D01*
X42952380Y-56204285D02*
X41952380Y-56204285D01*
X42857142Y-55156666D02*
X42904761Y-55204285D01*
X42952380Y-55347142D01*
X42952380Y-55442380D01*
X42904761Y-55585238D01*
X42809523Y-55680476D01*
X42714285Y-55728095D01*
X42523809Y-55775714D01*
X42380952Y-55775714D01*
X42190476Y-55728095D01*
X42095238Y-55680476D01*
X42000000Y-55585238D01*
X41952380Y-55442380D01*
X41952380Y-55347142D01*
X42000000Y-55204285D01*
X42047619Y-55156666D01*
X41952380Y-54537619D02*
X41952380Y-54442380D01*
X42000000Y-54347142D01*
X42047619Y-54299523D01*
X42142857Y-54251904D01*
X42333333Y-54204285D01*
X42571428Y-54204285D01*
X42761904Y-54251904D01*
X42857142Y-54299523D01*
X42904761Y-54347142D01*
X42952380Y-54442380D01*
X42952380Y-54537619D01*
X42904761Y-54632857D01*
X42857142Y-54680476D01*
X42761904Y-54728095D01*
X42571428Y-54775714D01*
X42333333Y-54775714D01*
X42142857Y-54728095D01*
X42047619Y-54680476D01*
X42000000Y-54632857D01*
X41952380Y-54537619D01*
X41952380Y-53585238D02*
X41952380Y-53490000D01*
X42000000Y-53394761D01*
X42047619Y-53347142D01*
X42142857Y-53299523D01*
X42333333Y-53251904D01*
X42571428Y-53251904D01*
X42761904Y-53299523D01*
X42857142Y-53347142D01*
X42904761Y-53394761D01*
X42952380Y-53490000D01*
X42952380Y-53585238D01*
X42904761Y-53680476D01*
X42857142Y-53728095D01*
X42761904Y-53775714D01*
X42571428Y-53823333D01*
X42333333Y-53823333D01*
X42142857Y-53775714D01*
X42047619Y-53728095D01*
X42000000Y-53680476D01*
X41952380Y-53585238D01*
%TO.C,SW1*%
X78666666Y-65804761D02*
X78809523Y-65852380D01*
X79047619Y-65852380D01*
X79142857Y-65804761D01*
X79190476Y-65757142D01*
X79238095Y-65661904D01*
X79238095Y-65566666D01*
X79190476Y-65471428D01*
X79142857Y-65423809D01*
X79047619Y-65376190D01*
X78857142Y-65328571D01*
X78761904Y-65280952D01*
X78714285Y-65233333D01*
X78666666Y-65138095D01*
X78666666Y-65042857D01*
X78714285Y-64947619D01*
X78761904Y-64900000D01*
X78857142Y-64852380D01*
X79095238Y-64852380D01*
X79238095Y-64900000D01*
X79571428Y-64852380D02*
X79809523Y-65852380D01*
X80000000Y-65138095D01*
X80190476Y-65852380D01*
X80428571Y-64852380D01*
X81333333Y-65852380D02*
X80761904Y-65852380D01*
X81047619Y-65852380D02*
X81047619Y-64852380D01*
X80952380Y-64995238D01*
X80857142Y-65090476D01*
X80761904Y-65138095D01*
%TO.C,R1*%
X69433333Y-50752380D02*
X69100000Y-50276190D01*
X68861904Y-50752380D02*
X68861904Y-49752380D01*
X69242857Y-49752380D01*
X69338095Y-49800000D01*
X69385714Y-49847619D01*
X69433333Y-49942857D01*
X69433333Y-50085714D01*
X69385714Y-50180952D01*
X69338095Y-50228571D01*
X69242857Y-50276190D01*
X68861904Y-50276190D01*
X70385714Y-50752380D02*
X69814285Y-50752380D01*
X70100000Y-50752380D02*
X70100000Y-49752380D01*
X70004761Y-49895238D01*
X69909523Y-49990476D01*
X69814285Y-50038095D01*
%TO.C,X1*%
X77590476Y-52952380D02*
X78257142Y-53952380D01*
X78257142Y-52952380D02*
X77590476Y-53952380D01*
X79161904Y-53952380D02*
X78590476Y-53952380D01*
X78876190Y-53952380D02*
X78876190Y-52952380D01*
X78780952Y-53095238D01*
X78685714Y-53190476D01*
X78590476Y-53238095D01*
%TO.C,AND*%
X96815666Y-50698404D02*
X96815666Y-50222214D01*
X97101380Y-50793642D02*
X96101380Y-50460309D01*
X97101380Y-50126976D01*
X97101380Y-49793642D02*
X96101380Y-49793642D01*
X97101380Y-49222214D01*
X96101380Y-49222214D01*
X97101380Y-48746023D02*
X96101380Y-48746023D01*
X96101380Y-48507928D01*
X96149000Y-48365071D01*
X96244238Y-48269833D01*
X96339476Y-48222214D01*
X96529952Y-48174595D01*
X96672809Y-48174595D01*
X96863285Y-48222214D01*
X96958523Y-48269833D01*
X97053761Y-48365071D01*
X97101380Y-48507928D01*
X97101380Y-48746023D01*
X98387380Y-48722023D02*
X99387380Y-48055357D01*
X98387380Y-48055357D02*
X99387380Y-48722023D01*
X99387380Y-47150595D02*
X99387380Y-47722023D01*
X99387380Y-47436309D02*
X98387380Y-47436309D01*
X98530238Y-47531547D01*
X98625476Y-47626785D01*
X98673095Y-47722023D01*
X111087380Y-47674404D02*
X111087380Y-48150595D01*
X111563571Y-48198214D01*
X111515952Y-48150595D01*
X111468333Y-48055357D01*
X111468333Y-47817261D01*
X111515952Y-47722023D01*
X111563571Y-47674404D01*
X111658809Y-47626785D01*
X111896904Y-47626785D01*
X111992142Y-47674404D01*
X112039761Y-47722023D01*
X112087380Y-47817261D01*
X112087380Y-48055357D01*
X112039761Y-48150595D01*
X111992142Y-48198214D01*
X121247380Y-47722023D02*
X121247380Y-47912500D01*
X121295000Y-48007738D01*
X121342619Y-48055357D01*
X121485476Y-48150595D01*
X121675952Y-48198214D01*
X122056904Y-48198214D01*
X122152142Y-48150595D01*
X122199761Y-48102976D01*
X122247380Y-48007738D01*
X122247380Y-47817261D01*
X122199761Y-47722023D01*
X122152142Y-47674404D01*
X122056904Y-47626785D01*
X121818809Y-47626785D01*
X121723571Y-47674404D01*
X121675952Y-47722023D01*
X121628333Y-47817261D01*
X121628333Y-48007738D01*
X121675952Y-48102976D01*
X121723571Y-48150595D01*
X121818809Y-48198214D01*
X108547380Y-48245833D02*
X108547380Y-47626785D01*
X108928333Y-47960119D01*
X108928333Y-47817261D01*
X108975952Y-47722023D01*
X109023571Y-47674404D01*
X109118809Y-47626785D01*
X109356904Y-47626785D01*
X109452142Y-47674404D01*
X109499761Y-47722023D01*
X109547380Y-47817261D01*
X109547380Y-48102976D01*
X109499761Y-48198214D01*
X109452142Y-48245833D01*
X100657380Y-47626785D02*
X100657380Y-48198214D01*
X100657380Y-47912500D02*
X99657380Y-47912500D01*
X99800238Y-48007738D01*
X99895476Y-48102976D01*
X99943095Y-48198214D01*
X110150714Y-47722023D02*
X110817380Y-47722023D01*
X109769761Y-47960119D02*
X110484047Y-48198214D01*
X110484047Y-47579166D01*
X123295190Y-47912500D02*
X123771380Y-47912500D01*
X122771380Y-48245833D02*
X123295190Y-47912500D01*
X122771380Y-47579166D01*
X104832619Y-48198214D02*
X104785000Y-48150595D01*
X104737380Y-48055357D01*
X104737380Y-47817261D01*
X104785000Y-47722023D01*
X104832619Y-47674404D01*
X104927857Y-47626785D01*
X105023095Y-47626785D01*
X105165952Y-47674404D01*
X105737380Y-48245833D01*
X105737380Y-47626785D01*
X103467380Y-48722023D02*
X104467380Y-48055357D01*
X103467380Y-48055357D02*
X104467380Y-48722023D01*
X103562619Y-47722023D02*
X103515000Y-47674404D01*
X103467380Y-47579166D01*
X103467380Y-47341071D01*
X103515000Y-47245833D01*
X103562619Y-47198214D01*
X103657857Y-47150595D01*
X103753095Y-47150595D01*
X103895952Y-47198214D01*
X104467380Y-47769642D01*
X104467380Y-47150595D01*
%TO.C,R5*%
X69423333Y-65952380D02*
X69090000Y-65476190D01*
X68851904Y-65952380D02*
X68851904Y-64952380D01*
X69232857Y-64952380D01*
X69328095Y-65000000D01*
X69375714Y-65047619D01*
X69423333Y-65142857D01*
X69423333Y-65285714D01*
X69375714Y-65380952D01*
X69328095Y-65428571D01*
X69232857Y-65476190D01*
X68851904Y-65476190D01*
X70328095Y-64952380D02*
X69851904Y-64952380D01*
X69804285Y-65428571D01*
X69851904Y-65380952D01*
X69947142Y-65333333D01*
X70185238Y-65333333D01*
X70280476Y-65380952D01*
X70328095Y-65428571D01*
X70375714Y-65523809D01*
X70375714Y-65761904D01*
X70328095Y-65857142D01*
X70280476Y-65904761D01*
X70185238Y-65952380D01*
X69947142Y-65952380D01*
X69851904Y-65904761D01*
X69804285Y-65857142D01*
%TO.C,R4*%
X69423333Y-62252380D02*
X69090000Y-61776190D01*
X68851904Y-62252380D02*
X68851904Y-61252380D01*
X69232857Y-61252380D01*
X69328095Y-61300000D01*
X69375714Y-61347619D01*
X69423333Y-61442857D01*
X69423333Y-61585714D01*
X69375714Y-61680952D01*
X69328095Y-61728571D01*
X69232857Y-61776190D01*
X68851904Y-61776190D01*
X70280476Y-61585714D02*
X70280476Y-62252380D01*
X70042380Y-61204761D02*
X69804285Y-61919047D01*
X70423333Y-61919047D01*
%TO.C,X2*%
X84090476Y-52952380D02*
X84757142Y-53952380D01*
X84757142Y-52952380D02*
X84090476Y-53952380D01*
X85090476Y-53047619D02*
X85138095Y-53000000D01*
X85233333Y-52952380D01*
X85471428Y-52952380D01*
X85566666Y-53000000D01*
X85614285Y-53047619D01*
X85661904Y-53142857D01*
X85661904Y-53238095D01*
X85614285Y-53380952D01*
X85042857Y-53952380D01*
X85661904Y-53952380D01*
%TO.C,SW2*%
X88666666Y-65804761D02*
X88809523Y-65852380D01*
X89047619Y-65852380D01*
X89142857Y-65804761D01*
X89190476Y-65757142D01*
X89238095Y-65661904D01*
X89238095Y-65566666D01*
X89190476Y-65471428D01*
X89142857Y-65423809D01*
X89047619Y-65376190D01*
X88857142Y-65328571D01*
X88761904Y-65280952D01*
X88714285Y-65233333D01*
X88666666Y-65138095D01*
X88666666Y-65042857D01*
X88714285Y-64947619D01*
X88761904Y-64900000D01*
X88857142Y-64852380D01*
X89095238Y-64852380D01*
X89238095Y-64900000D01*
X89571428Y-64852380D02*
X89809523Y-65852380D01*
X90000000Y-65138095D01*
X90190476Y-65852380D01*
X90428571Y-64852380D01*
X90761904Y-64947619D02*
X90809523Y-64900000D01*
X90904761Y-64852380D01*
X91142857Y-64852380D01*
X91238095Y-64900000D01*
X91285714Y-64947619D01*
X91333333Y-65042857D01*
X91333333Y-65138095D01*
X91285714Y-65280952D01*
X90714285Y-65852380D01*
X91333333Y-65852380D01*
D11*
%TO.C,R3*%
X66730000Y-116000000D02*
X67680000Y-116000000D01*
X67680000Y-115080000D02*
X67680000Y-116920000D01*
X71520000Y-115080000D02*
X67680000Y-115080000D01*
X71520000Y-116920000D02*
X71520000Y-115080000D01*
X72470000Y-116000000D02*
X71520000Y-116000000D01*
X67680000Y-116920000D02*
X71520000Y-116920000D01*
%TO.C,XOR*%
X97665000Y-119642500D02*
X124335000Y-119642500D01*
X124335000Y-119642500D02*
X124335000Y-125357500D01*
X124335000Y-125357500D02*
X97665000Y-125357500D01*
X97665000Y-125357500D02*
X97665000Y-119642500D01*
%TO.C,Y*%
X92735516Y-111565000D02*
G75*
G03*
X92578608Y-108332665I-1235516J1560000D01*
G01*
X92580000Y-111045961D02*
G75*
G03*
X92579837Y-108963870I-1080000J1040961D01*
G01*
X90421392Y-108332665D02*
G75*
G03*
X90264484Y-111565000I1078608J-1672335D01*
G01*
X90420163Y-108963870D02*
G75*
G03*
X90420000Y-111045961I1079837J-1041130D01*
G01*
X92580000Y-111565000D02*
X92736000Y-111565000D01*
X90264000Y-111565000D02*
X90420000Y-111565000D01*
%TO.C,OR*%
X97665000Y-113142500D02*
X124335000Y-113142500D01*
X124335000Y-113142500D02*
X124335000Y-118857500D01*
X124335000Y-118857500D02*
X97665000Y-118857500D01*
X97665000Y-118857500D02*
X97665000Y-113142500D01*
%TO.C,R2*%
X71510000Y-113320000D02*
X71510000Y-111480000D01*
X72460000Y-112400000D02*
X71510000Y-112400000D01*
X67670000Y-111480000D02*
X67670000Y-113320000D01*
X71510000Y-111480000D02*
X67670000Y-111480000D01*
X66720000Y-112400000D02*
X67670000Y-112400000D01*
X67670000Y-113320000D02*
X71510000Y-113320000D01*
%TO.C,R5*%
X71510000Y-124674000D02*
X71510000Y-122834000D01*
X72460000Y-123754000D02*
X71510000Y-123754000D01*
X66720000Y-123754000D02*
X67670000Y-123754000D01*
X71510000Y-122834000D02*
X67670000Y-122834000D01*
X67670000Y-124674000D02*
X71510000Y-124674000D01*
X67670000Y-122834000D02*
X67670000Y-124674000D01*
%TO.C,SW2*%
X93250000Y-122250000D02*
X93250000Y-117750000D01*
X89250000Y-123500000D02*
X90750000Y-123500000D01*
X90750000Y-116500000D02*
X89250000Y-116500000D01*
X86750000Y-117750000D02*
X86750000Y-122250000D01*
%TO.C,R4*%
X67670000Y-119080000D02*
X67670000Y-120920000D01*
X72460000Y-120000000D02*
X71510000Y-120000000D01*
X71510000Y-120920000D02*
X71510000Y-119080000D01*
X67670000Y-120920000D02*
X71510000Y-120920000D01*
X71510000Y-119080000D02*
X67670000Y-119080000D01*
X66720000Y-120000000D02*
X67670000Y-120000000D01*
%TO.C,SW1*%
X79250000Y-123500000D02*
X80750000Y-123500000D01*
X80750000Y-116500000D02*
X79250000Y-116500000D01*
X76750000Y-117750000D02*
X76750000Y-122250000D01*
X83250000Y-122250000D02*
X83250000Y-117750000D01*
%TO.C,AND*%
X97665000Y-106642500D02*
X124335000Y-106642500D01*
X124335000Y-106642500D02*
X124335000Y-112357500D01*
X124335000Y-112357500D02*
X97665000Y-112357500D01*
X97665000Y-112357500D02*
X97665000Y-106642500D01*
%TO.C,X1*%
X77320163Y-108963870D02*
G75*
G03*
X77320000Y-111045961I1079837J-1041130D01*
G01*
X77321392Y-108332665D02*
G75*
G03*
X77164484Y-111565000I1078608J-1672335D01*
G01*
X79635516Y-111565000D02*
G75*
G03*
X79478608Y-108332665I-1235516J1560000D01*
G01*
X79480000Y-111045961D02*
G75*
G03*
X79479837Y-108963870I-1080000J1040961D01*
G01*
X77164000Y-111565000D02*
X77320000Y-111565000D01*
X79480000Y-111565000D02*
X79636000Y-111565000D01*
%TO.C,74HC00*%
X44045000Y-116990000D02*
G75*
G03*
X44045000Y-114990000I0J1000000D01*
G01*
X44045000Y-113340000D02*
X44045000Y-114990000D01*
X44045000Y-116990000D02*
X44045000Y-118640000D01*
X44045000Y-118640000D02*
X61945000Y-118640000D01*
X61945000Y-118640000D02*
X61945000Y-113340000D01*
X61945000Y-113340000D02*
X44045000Y-113340000D01*
%TO.C,R1*%
X67680000Y-107580000D02*
X67680000Y-109420000D01*
X72470000Y-108500000D02*
X71520000Y-108500000D01*
X71520000Y-107580000D02*
X67680000Y-107580000D01*
X71520000Y-109420000D02*
X71520000Y-107580000D01*
X67680000Y-109420000D02*
X71520000Y-109420000D01*
X66730000Y-108500000D02*
X67680000Y-108500000D01*
%TO.C,X2*%
X86135516Y-111565000D02*
G75*
G03*
X85978608Y-108332665I-1235516J1560000D01*
G01*
X83821392Y-108332665D02*
G75*
G03*
X83664484Y-111565000I1078608J-1672335D01*
G01*
X83820163Y-108963870D02*
G75*
G03*
X83820000Y-111045961I1079837J-1041130D01*
G01*
X85980000Y-111045961D02*
G75*
G03*
X85979837Y-108963870I-1080000J1040961D01*
G01*
X85980000Y-111565000D02*
X86136000Y-111565000D01*
X83664000Y-111565000D02*
X83820000Y-111565000D01*
%TO.C,R3*%
X66730000Y-86000000D02*
X67680000Y-86000000D01*
X67680000Y-85080000D02*
X67680000Y-86920000D01*
X71520000Y-85080000D02*
X67680000Y-85080000D01*
X71520000Y-86920000D02*
X71520000Y-85080000D01*
X72470000Y-86000000D02*
X71520000Y-86000000D01*
X67680000Y-86920000D02*
X71520000Y-86920000D01*
%TO.C,XOR*%
X97665000Y-89642500D02*
X124335000Y-89642500D01*
X124335000Y-89642500D02*
X124335000Y-95357500D01*
X124335000Y-95357500D02*
X97665000Y-95357500D01*
X97665000Y-95357500D02*
X97665000Y-89642500D01*
%TO.C,Y*%
X92735516Y-81565000D02*
G75*
G03*
X92578608Y-78332665I-1235516J1560000D01*
G01*
X92580000Y-81045961D02*
G75*
G03*
X92579837Y-78963870I-1080000J1040961D01*
G01*
X90421392Y-78332665D02*
G75*
G03*
X90264484Y-81565000I1078608J-1672335D01*
G01*
X90420163Y-78963870D02*
G75*
G03*
X90420000Y-81045961I1079837J-1041130D01*
G01*
X92580000Y-81565000D02*
X92736000Y-81565000D01*
X90264000Y-81565000D02*
X90420000Y-81565000D01*
%TO.C,OR*%
X97665000Y-83142500D02*
X124335000Y-83142500D01*
X124335000Y-83142500D02*
X124335000Y-88857500D01*
X124335000Y-88857500D02*
X97665000Y-88857500D01*
X97665000Y-88857500D02*
X97665000Y-83142500D01*
%TO.C,R2*%
X71510000Y-83320000D02*
X71510000Y-81480000D01*
X72460000Y-82400000D02*
X71510000Y-82400000D01*
X67670000Y-81480000D02*
X67670000Y-83320000D01*
X71510000Y-81480000D02*
X67670000Y-81480000D01*
X66720000Y-82400000D02*
X67670000Y-82400000D01*
X67670000Y-83320000D02*
X71510000Y-83320000D01*
%TO.C,R5*%
X71510000Y-94674000D02*
X71510000Y-92834000D01*
X72460000Y-93754000D02*
X71510000Y-93754000D01*
X66720000Y-93754000D02*
X67670000Y-93754000D01*
X71510000Y-92834000D02*
X67670000Y-92834000D01*
X67670000Y-94674000D02*
X71510000Y-94674000D01*
X67670000Y-92834000D02*
X67670000Y-94674000D01*
%TO.C,SW2*%
X93250000Y-92250000D02*
X93250000Y-87750000D01*
X89250000Y-93500000D02*
X90750000Y-93500000D01*
X90750000Y-86500000D02*
X89250000Y-86500000D01*
X86750000Y-87750000D02*
X86750000Y-92250000D01*
%TO.C,R4*%
X67670000Y-89080000D02*
X67670000Y-90920000D01*
X72460000Y-90000000D02*
X71510000Y-90000000D01*
X71510000Y-90920000D02*
X71510000Y-89080000D01*
X67670000Y-90920000D02*
X71510000Y-90920000D01*
X71510000Y-89080000D02*
X67670000Y-89080000D01*
X66720000Y-90000000D02*
X67670000Y-90000000D01*
%TO.C,SW1*%
X79250000Y-93500000D02*
X80750000Y-93500000D01*
X80750000Y-86500000D02*
X79250000Y-86500000D01*
X76750000Y-87750000D02*
X76750000Y-92250000D01*
X83250000Y-92250000D02*
X83250000Y-87750000D01*
%TO.C,AND*%
X97665000Y-76642500D02*
X124335000Y-76642500D01*
X124335000Y-76642500D02*
X124335000Y-82357500D01*
X124335000Y-82357500D02*
X97665000Y-82357500D01*
X97665000Y-82357500D02*
X97665000Y-76642500D01*
%TO.C,X1*%
X77320163Y-78963870D02*
G75*
G03*
X77320000Y-81045961I1079837J-1041130D01*
G01*
X77321392Y-78332665D02*
G75*
G03*
X77164484Y-81565000I1078608J-1672335D01*
G01*
X79635516Y-81565000D02*
G75*
G03*
X79478608Y-78332665I-1235516J1560000D01*
G01*
X79480000Y-81045961D02*
G75*
G03*
X79479837Y-78963870I-1080000J1040961D01*
G01*
X77164000Y-81565000D02*
X77320000Y-81565000D01*
X79480000Y-81565000D02*
X79636000Y-81565000D01*
%TO.C,74HC00*%
X44045000Y-86990000D02*
G75*
G03*
X44045000Y-84990000I0J1000000D01*
G01*
X44045000Y-83340000D02*
X44045000Y-84990000D01*
X44045000Y-86990000D02*
X44045000Y-88640000D01*
X44045000Y-88640000D02*
X61945000Y-88640000D01*
X61945000Y-88640000D02*
X61945000Y-83340000D01*
X61945000Y-83340000D02*
X44045000Y-83340000D01*
%TO.C,R1*%
X67680000Y-77580000D02*
X67680000Y-79420000D01*
X72470000Y-78500000D02*
X71520000Y-78500000D01*
X71520000Y-77580000D02*
X67680000Y-77580000D01*
X71520000Y-79420000D02*
X71520000Y-77580000D01*
X67680000Y-79420000D02*
X71520000Y-79420000D01*
X66730000Y-78500000D02*
X67680000Y-78500000D01*
%TO.C,X2*%
X86135516Y-81565000D02*
G75*
G03*
X85978608Y-78332665I-1235516J1560000D01*
G01*
X83821392Y-78332665D02*
G75*
G03*
X83664484Y-81565000I1078608J-1672335D01*
G01*
X83820163Y-78963870D02*
G75*
G03*
X83820000Y-81045961I1079837J-1041130D01*
G01*
X85980000Y-81045961D02*
G75*
G03*
X85979837Y-78963870I-1080000J1040961D01*
G01*
X85980000Y-81565000D02*
X86136000Y-81565000D01*
X83664000Y-81565000D02*
X83820000Y-81565000D01*
%TO.C,Y*%
X92735516Y-51565000D02*
G75*
G03*
X92578608Y-48332665I-1235516J1560000D01*
G01*
X92580000Y-51045961D02*
G75*
G03*
X92579837Y-48963870I-1080000J1040961D01*
G01*
X90421392Y-48332665D02*
G75*
G03*
X90264484Y-51565000I1078608J-1672335D01*
G01*
X90420163Y-48963870D02*
G75*
G03*
X90420000Y-51045961I1079837J-1041130D01*
G01*
X92580000Y-51565000D02*
X92736000Y-51565000D01*
X90264000Y-51565000D02*
X90420000Y-51565000D01*
%TO.C,OR*%
X97665000Y-53142500D02*
X124335000Y-53142500D01*
X124335000Y-53142500D02*
X124335000Y-58857500D01*
X124335000Y-58857500D02*
X97665000Y-58857500D01*
X97665000Y-58857500D02*
X97665000Y-53142500D01*
%TO.C,XOR*%
X97665000Y-59642500D02*
X124335000Y-59642500D01*
X124335000Y-59642500D02*
X124335000Y-65357500D01*
X124335000Y-65357500D02*
X97665000Y-65357500D01*
X97665000Y-65357500D02*
X97665000Y-59642500D01*
%TO.C,R3*%
X66730000Y-56000000D02*
X67680000Y-56000000D01*
X67680000Y-55080000D02*
X67680000Y-56920000D01*
X71520000Y-55080000D02*
X67680000Y-55080000D01*
X71520000Y-56920000D02*
X71520000Y-55080000D01*
X72470000Y-56000000D02*
X71520000Y-56000000D01*
X67680000Y-56920000D02*
X71520000Y-56920000D01*
%TO.C,R2*%
X71510000Y-53320000D02*
X71510000Y-51480000D01*
X72460000Y-52400000D02*
X71510000Y-52400000D01*
X67670000Y-51480000D02*
X67670000Y-53320000D01*
X71510000Y-51480000D02*
X67670000Y-51480000D01*
X66720000Y-52400000D02*
X67670000Y-52400000D01*
X67670000Y-53320000D02*
X71510000Y-53320000D01*
%TO.C,74HC00*%
X44045000Y-56990000D02*
G75*
G03*
X44045000Y-54990000I0J1000000D01*
G01*
X44045000Y-53340000D02*
X44045000Y-54990000D01*
X44045000Y-56990000D02*
X44045000Y-58640000D01*
X44045000Y-58640000D02*
X61945000Y-58640000D01*
X61945000Y-58640000D02*
X61945000Y-53340000D01*
X61945000Y-53340000D02*
X44045000Y-53340000D01*
%TO.C,SW1*%
X79250000Y-63500000D02*
X80750000Y-63500000D01*
X80750000Y-56500000D02*
X79250000Y-56500000D01*
X76750000Y-57750000D02*
X76750000Y-62250000D01*
X83250000Y-62250000D02*
X83250000Y-57750000D01*
%TO.C,R1*%
X67680000Y-47580000D02*
X67680000Y-49420000D01*
X72470000Y-48500000D02*
X71520000Y-48500000D01*
X71520000Y-47580000D02*
X67680000Y-47580000D01*
X71520000Y-49420000D02*
X71520000Y-47580000D01*
X67680000Y-49420000D02*
X71520000Y-49420000D01*
X66730000Y-48500000D02*
X67680000Y-48500000D01*
%TO.C,X1*%
X77320163Y-48963870D02*
G75*
G03*
X77320000Y-51045961I1079837J-1041130D01*
G01*
X77321392Y-48332665D02*
G75*
G03*
X77164484Y-51565000I1078608J-1672335D01*
G01*
X79635516Y-51565000D02*
G75*
G03*
X79478608Y-48332665I-1235516J1560000D01*
G01*
X79480000Y-51045961D02*
G75*
G03*
X79479837Y-48963870I-1080000J1040961D01*
G01*
X77164000Y-51565000D02*
X77320000Y-51565000D01*
X79480000Y-51565000D02*
X79636000Y-51565000D01*
%TO.C,AND*%
X97665000Y-46642500D02*
X124335000Y-46642500D01*
X124335000Y-46642500D02*
X124335000Y-52357500D01*
X124335000Y-52357500D02*
X97665000Y-52357500D01*
X97665000Y-52357500D02*
X97665000Y-46642500D01*
%TO.C,R5*%
X71510000Y-64674000D02*
X71510000Y-62834000D01*
X72460000Y-63754000D02*
X71510000Y-63754000D01*
X66720000Y-63754000D02*
X67670000Y-63754000D01*
X71510000Y-62834000D02*
X67670000Y-62834000D01*
X67670000Y-64674000D02*
X71510000Y-64674000D01*
X67670000Y-62834000D02*
X67670000Y-64674000D01*
%TO.C,R4*%
X67670000Y-59080000D02*
X67670000Y-60920000D01*
X72460000Y-60000000D02*
X71510000Y-60000000D01*
X71510000Y-60920000D02*
X71510000Y-59080000D01*
X67670000Y-60920000D02*
X71510000Y-60920000D01*
X71510000Y-59080000D02*
X67670000Y-59080000D01*
X66720000Y-60000000D02*
X67670000Y-60000000D01*
%TO.C,X2*%
X86135516Y-51565000D02*
G75*
G03*
X85978608Y-48332665I-1235516J1560000D01*
G01*
X83821392Y-48332665D02*
G75*
G03*
X83664484Y-51565000I1078608J-1672335D01*
G01*
X83820163Y-48963870D02*
G75*
G03*
X83820000Y-51045961I1079837J-1041130D01*
G01*
X85980000Y-51045961D02*
G75*
G03*
X85979837Y-48963870I-1080000J1040961D01*
G01*
X85980000Y-51565000D02*
X86136000Y-51565000D01*
X83664000Y-51565000D02*
X83820000Y-51565000D01*
%TO.C,SW2*%
X93250000Y-62250000D02*
X93250000Y-57750000D01*
X89250000Y-63500000D02*
X90750000Y-63500000D01*
X90750000Y-56500000D02*
X89250000Y-56500000D01*
X86750000Y-57750000D02*
X86750000Y-62250000D01*
%TD*%
M02*
