M48
; DRILL file {KiCad 9.0.2} date 2025-10-23T19:15:08+0900
; FORMAT={-:-/ absolute / metric / decimal}
; #@! TF.CreationDate,2025-10-23T19:15:08+09:00
; #@! TF.GenerationSoftware,Kicad,Pcbnew,9.0.2
; #@! TF.FileFunction,Plated,1,2,PTH
FMAT,2
METRIC
; #@! TA.AperFunction,Plated,PTH,ViaDrill
T1C0.400
; #@! TA.AperFunction,Plated,PTH,ComponentDrill
T2C0.600
; #@! TA.AperFunction,Plated,PTH,ComponentDrill
T3C0.700
; #@! TA.AperFunction,Plated,PTH,ComponentDrill
T4C0.800
; #@! TA.AperFunction,Plated,PTH,ComponentDrill
T5C0.900
; #@! TA.AperFunction,Plated,PTH,ComponentDrill
T6C1.100
; #@! TA.AperFunction,Plated,PTH,ComponentDrill
T7C1.120
; #@! TA.AperFunction,Plated,PTH,ComponentDrill
T8C3.000
%
G90
G05
T1
X67.7Y-47.17
X74.38Y-47.89
X75.291Y-48.614
X76.215Y-49.339
X78.07Y-44.17
X79.501Y-49.339
X81.77Y-47.89
X83.18Y-52.23
X94.445Y-38.655
X95.45Y-41.26
X96.315Y-40.525
X101.25Y-36.511
X101.46Y-42.0
X101.78Y-38.5
X102.0Y-37.235
X104.33Y-38.5
X104.725Y-49.002
X105.435Y-50.6
X105.45Y-39.4
X105.45Y-44.95
X106.7Y-39.4
X106.7Y-44.95
X106.7Y-50.6
X107.424Y-42.0
X107.975Y-50.6
X108.8Y-49.002
X108.99Y-36.511
X109.762Y-37.235
X110.5Y-39.4
X110.5Y-45.0
X110.515Y-50.6
X111.31Y-41.71
X111.785Y-39.4
X111.8Y-44.95
X111.8Y-50.6
X113.05Y-42.346
X113.05Y-39.4
X113.05Y-45.303
X113.05Y-47.55
X113.05Y-50.6
X115.6Y-41.38
X115.6Y-44.95
X115.6Y-50.6
X116.85Y-50.6
X116.87Y-42.15
X116.87Y-44.96
X118.15Y-42.09
X118.15Y-44.9
X118.15Y-50.6
X119.3Y-47.1
X120.65Y-50.6
X120.7Y-39.4
X121.95Y-39.4
X123.5Y-36.9
X124.485Y-42.685
X124.5Y-44.95
X124.5Y-50.6
X125.75Y-39.4
X128.3Y-39.4
X129.565Y-39.4
X129.565Y-44.953
X129.57Y-50.59
T3
X71.69Y-37.6
X71.69Y-41.5
X71.69Y-45.4
X79.31Y-37.6
X79.31Y-41.5
X79.31Y-45.4
T4
X51.875Y-37.68
X51.875Y-45.3
X54.415Y-37.68
X54.415Y-45.3
X56.955Y-37.68
X56.955Y-45.3
X59.495Y-37.68
X59.495Y-45.3
X62.035Y-37.68
X62.035Y-45.3
X64.575Y-37.68
X64.575Y-45.3
X67.115Y-37.68
X67.115Y-45.3
T5
X86.0Y-37.34
X86.0Y-39.88
X92.0Y-37.235
X92.0Y-39.775
X98.0Y-37.235
X98.0Y-39.775
T6
X85.15Y-43.95
X85.15Y-50.45
X89.65Y-43.95
X89.65Y-50.45
X94.35Y-43.95
X94.35Y-50.45
X98.85Y-43.95
X98.85Y-50.45
T7
X47.325Y-43.2
X47.325Y-46.8
T2
G00X43.875Y-40.7
M15
G01X43.175Y-40.7
M16
G05
G00X43.875Y-49.3
M15
G01X43.175Y-49.3
M16
G05
T8
G00X135.0Y-40.0
M15
G01X135.0Y-45.0
M16
G05
M30
