%TF.GenerationSoftware,KiCad,Pcbnew,9.0.2*%
%TF.CreationDate,2025-10-23T19:15:02+09:00*%
%TF.ProjectId,simpleLogicCircuit,73696d70-6c65-44c6-9f67-696343697263,rev?*%
%TF.SameCoordinates,Original*%
%TF.FileFunction,Legend,Top*%
%TF.FilePolarity,Positive*%
%FSLAX46Y46*%
G04 Gerber Fmt 4.6, Leading zero omitted, Abs format (unit mm)*
G04 Created by KiCad (PCBNEW 9.0.2) date 2025-10-23 19:15:02*
%MOMM*%
%LPD*%
G01*
G04 APERTURE LIST*
%ADD10C,0.300000*%
%ADD11C,0.150000*%
%ADD12C,0.120000*%
G04 APERTURE END LIST*
D10*
X51468796Y-50620870D02*
X50754510Y-50620870D01*
X50754510Y-50620870D02*
X50754510Y-49120870D01*
X52183082Y-50620870D02*
X52040225Y-50549442D01*
X52040225Y-50549442D02*
X51968796Y-50478013D01*
X51968796Y-50478013D02*
X51897368Y-50335156D01*
X51897368Y-50335156D02*
X51897368Y-49906584D01*
X51897368Y-49906584D02*
X51968796Y-49763727D01*
X51968796Y-49763727D02*
X52040225Y-49692299D01*
X52040225Y-49692299D02*
X52183082Y-49620870D01*
X52183082Y-49620870D02*
X52397368Y-49620870D01*
X52397368Y-49620870D02*
X52540225Y-49692299D01*
X52540225Y-49692299D02*
X52611654Y-49763727D01*
X52611654Y-49763727D02*
X52683082Y-49906584D01*
X52683082Y-49906584D02*
X52683082Y-50335156D01*
X52683082Y-50335156D02*
X52611654Y-50478013D01*
X52611654Y-50478013D02*
X52540225Y-50549442D01*
X52540225Y-50549442D02*
X52397368Y-50620870D01*
X52397368Y-50620870D02*
X52183082Y-50620870D01*
X53968797Y-49620870D02*
X53968797Y-50835156D01*
X53968797Y-50835156D02*
X53897368Y-50978013D01*
X53897368Y-50978013D02*
X53825939Y-51049442D01*
X53825939Y-51049442D02*
X53683082Y-51120870D01*
X53683082Y-51120870D02*
X53468797Y-51120870D01*
X53468797Y-51120870D02*
X53325939Y-51049442D01*
X53968797Y-50549442D02*
X53825939Y-50620870D01*
X53825939Y-50620870D02*
X53540225Y-50620870D01*
X53540225Y-50620870D02*
X53397368Y-50549442D01*
X53397368Y-50549442D02*
X53325939Y-50478013D01*
X53325939Y-50478013D02*
X53254511Y-50335156D01*
X53254511Y-50335156D02*
X53254511Y-49906584D01*
X53254511Y-49906584D02*
X53325939Y-49763727D01*
X53325939Y-49763727D02*
X53397368Y-49692299D01*
X53397368Y-49692299D02*
X53540225Y-49620870D01*
X53540225Y-49620870D02*
X53825939Y-49620870D01*
X53825939Y-49620870D02*
X53968797Y-49692299D01*
X54683082Y-50620870D02*
X54683082Y-49620870D01*
X54683082Y-49120870D02*
X54611654Y-49192299D01*
X54611654Y-49192299D02*
X54683082Y-49263727D01*
X54683082Y-49263727D02*
X54754511Y-49192299D01*
X54754511Y-49192299D02*
X54683082Y-49120870D01*
X54683082Y-49120870D02*
X54683082Y-49263727D01*
X56040226Y-50549442D02*
X55897368Y-50620870D01*
X55897368Y-50620870D02*
X55611654Y-50620870D01*
X55611654Y-50620870D02*
X55468797Y-50549442D01*
X55468797Y-50549442D02*
X55397368Y-50478013D01*
X55397368Y-50478013D02*
X55325940Y-50335156D01*
X55325940Y-50335156D02*
X55325940Y-49906584D01*
X55325940Y-49906584D02*
X55397368Y-49763727D01*
X55397368Y-49763727D02*
X55468797Y-49692299D01*
X55468797Y-49692299D02*
X55611654Y-49620870D01*
X55611654Y-49620870D02*
X55897368Y-49620870D01*
X55897368Y-49620870D02*
X56040226Y-49692299D01*
X58611654Y-49192299D02*
X58468797Y-49120870D01*
X58468797Y-49120870D02*
X58254511Y-49120870D01*
X58254511Y-49120870D02*
X58040225Y-49192299D01*
X58040225Y-49192299D02*
X57897368Y-49335156D01*
X57897368Y-49335156D02*
X57825939Y-49478013D01*
X57825939Y-49478013D02*
X57754511Y-49763727D01*
X57754511Y-49763727D02*
X57754511Y-49978013D01*
X57754511Y-49978013D02*
X57825939Y-50263727D01*
X57825939Y-50263727D02*
X57897368Y-50406584D01*
X57897368Y-50406584D02*
X58040225Y-50549442D01*
X58040225Y-50549442D02*
X58254511Y-50620870D01*
X58254511Y-50620870D02*
X58397368Y-50620870D01*
X58397368Y-50620870D02*
X58611654Y-50549442D01*
X58611654Y-50549442D02*
X58683082Y-50478013D01*
X58683082Y-50478013D02*
X58683082Y-49978013D01*
X58683082Y-49978013D02*
X58397368Y-49978013D01*
X59968797Y-50620870D02*
X59968797Y-49835156D01*
X59968797Y-49835156D02*
X59897368Y-49692299D01*
X59897368Y-49692299D02*
X59754511Y-49620870D01*
X59754511Y-49620870D02*
X59468797Y-49620870D01*
X59468797Y-49620870D02*
X59325939Y-49692299D01*
X59968797Y-50549442D02*
X59825939Y-50620870D01*
X59825939Y-50620870D02*
X59468797Y-50620870D01*
X59468797Y-50620870D02*
X59325939Y-50549442D01*
X59325939Y-50549442D02*
X59254511Y-50406584D01*
X59254511Y-50406584D02*
X59254511Y-50263727D01*
X59254511Y-50263727D02*
X59325939Y-50120870D01*
X59325939Y-50120870D02*
X59468797Y-50049442D01*
X59468797Y-50049442D02*
X59825939Y-50049442D01*
X59825939Y-50049442D02*
X59968797Y-49978013D01*
X60468797Y-49620870D02*
X61040225Y-49620870D01*
X60683082Y-49120870D02*
X60683082Y-50406584D01*
X60683082Y-50406584D02*
X60754511Y-50549442D01*
X60754511Y-50549442D02*
X60897368Y-50620870D01*
X60897368Y-50620870D02*
X61040225Y-50620870D01*
X62111654Y-50549442D02*
X61968797Y-50620870D01*
X61968797Y-50620870D02*
X61683083Y-50620870D01*
X61683083Y-50620870D02*
X61540225Y-50549442D01*
X61540225Y-50549442D02*
X61468797Y-50406584D01*
X61468797Y-50406584D02*
X61468797Y-49835156D01*
X61468797Y-49835156D02*
X61540225Y-49692299D01*
X61540225Y-49692299D02*
X61683083Y-49620870D01*
X61683083Y-49620870D02*
X61968797Y-49620870D01*
X61968797Y-49620870D02*
X62111654Y-49692299D01*
X62111654Y-49692299D02*
X62183083Y-49835156D01*
X62183083Y-49835156D02*
X62183083Y-49978013D01*
X62183083Y-49978013D02*
X61468797Y-50120870D01*
X64825939Y-50620870D02*
X64325939Y-49906584D01*
X63968796Y-50620870D02*
X63968796Y-49120870D01*
X63968796Y-49120870D02*
X64540225Y-49120870D01*
X64540225Y-49120870D02*
X64683082Y-49192299D01*
X64683082Y-49192299D02*
X64754511Y-49263727D01*
X64754511Y-49263727D02*
X64825939Y-49406584D01*
X64825939Y-49406584D02*
X64825939Y-49620870D01*
X64825939Y-49620870D02*
X64754511Y-49763727D01*
X64754511Y-49763727D02*
X64683082Y-49835156D01*
X64683082Y-49835156D02*
X64540225Y-49906584D01*
X64540225Y-49906584D02*
X63968796Y-49906584D01*
X66111654Y-49620870D02*
X66111654Y-50620870D01*
X65468796Y-49620870D02*
X65468796Y-50406584D01*
X65468796Y-50406584D02*
X65540225Y-50549442D01*
X65540225Y-50549442D02*
X65683082Y-50620870D01*
X65683082Y-50620870D02*
X65897368Y-50620870D01*
X65897368Y-50620870D02*
X66040225Y-50549442D01*
X66040225Y-50549442D02*
X66111654Y-50478013D01*
X67040225Y-50620870D02*
X66897368Y-50549442D01*
X66897368Y-50549442D02*
X66825939Y-50406584D01*
X66825939Y-50406584D02*
X66825939Y-49120870D01*
X68183082Y-50549442D02*
X68040225Y-50620870D01*
X68040225Y-50620870D02*
X67754511Y-50620870D01*
X67754511Y-50620870D02*
X67611653Y-50549442D01*
X67611653Y-50549442D02*
X67540225Y-50406584D01*
X67540225Y-50406584D02*
X67540225Y-49835156D01*
X67540225Y-49835156D02*
X67611653Y-49692299D01*
X67611653Y-49692299D02*
X67754511Y-49620870D01*
X67754511Y-49620870D02*
X68040225Y-49620870D01*
X68040225Y-49620870D02*
X68183082Y-49692299D01*
X68183082Y-49692299D02*
X68254511Y-49835156D01*
X68254511Y-49835156D02*
X68254511Y-49978013D01*
X68254511Y-49978013D02*
X67540225Y-50120870D01*
X68897367Y-50620870D02*
X68897367Y-49620870D01*
X68897367Y-49906584D02*
X68968796Y-49763727D01*
X68968796Y-49763727D02*
X69040225Y-49692299D01*
X69040225Y-49692299D02*
X69183082Y-49620870D01*
X69183082Y-49620870D02*
X69325939Y-49620870D01*
X70825938Y-49620870D02*
X71183081Y-50620870D01*
X71183081Y-50620870D02*
X71540224Y-49620870D01*
X72897367Y-50620870D02*
X72040224Y-50620870D01*
X72468795Y-50620870D02*
X72468795Y-49120870D01*
X72468795Y-49120870D02*
X72325938Y-49335156D01*
X72325938Y-49335156D02*
X72183081Y-49478013D01*
X72183081Y-49478013D02*
X72040224Y-49549442D01*
X73540223Y-50478013D02*
X73611652Y-50549442D01*
X73611652Y-50549442D02*
X73540223Y-50620870D01*
X73540223Y-50620870D02*
X73468795Y-50549442D01*
X73468795Y-50549442D02*
X73540223Y-50478013D01*
X73540223Y-50478013D02*
X73540223Y-50620870D01*
X74897367Y-49620870D02*
X74897367Y-50620870D01*
X74540224Y-49049442D02*
X74183081Y-50120870D01*
X74183081Y-50120870D02*
X75111652Y-50120870D01*
X50754510Y-53035786D02*
X50754510Y-51535786D01*
X50754510Y-51535786D02*
X51111653Y-51535786D01*
X51111653Y-51535786D02*
X51325939Y-51607215D01*
X51325939Y-51607215D02*
X51468796Y-51750072D01*
X51468796Y-51750072D02*
X51540225Y-51892929D01*
X51540225Y-51892929D02*
X51611653Y-52178643D01*
X51611653Y-52178643D02*
X51611653Y-52392929D01*
X51611653Y-52392929D02*
X51540225Y-52678643D01*
X51540225Y-52678643D02*
X51468796Y-52821500D01*
X51468796Y-52821500D02*
X51325939Y-52964358D01*
X51325939Y-52964358D02*
X51111653Y-53035786D01*
X51111653Y-53035786D02*
X50754510Y-53035786D01*
X52825939Y-52964358D02*
X52683082Y-53035786D01*
X52683082Y-53035786D02*
X52397368Y-53035786D01*
X52397368Y-53035786D02*
X52254510Y-52964358D01*
X52254510Y-52964358D02*
X52183082Y-52821500D01*
X52183082Y-52821500D02*
X52183082Y-52250072D01*
X52183082Y-52250072D02*
X52254510Y-52107215D01*
X52254510Y-52107215D02*
X52397368Y-52035786D01*
X52397368Y-52035786D02*
X52683082Y-52035786D01*
X52683082Y-52035786D02*
X52825939Y-52107215D01*
X52825939Y-52107215D02*
X52897368Y-52250072D01*
X52897368Y-52250072D02*
X52897368Y-52392929D01*
X52897368Y-52392929D02*
X52183082Y-52535786D01*
X53468796Y-52964358D02*
X53611653Y-53035786D01*
X53611653Y-53035786D02*
X53897367Y-53035786D01*
X53897367Y-53035786D02*
X54040224Y-52964358D01*
X54040224Y-52964358D02*
X54111653Y-52821500D01*
X54111653Y-52821500D02*
X54111653Y-52750072D01*
X54111653Y-52750072D02*
X54040224Y-52607215D01*
X54040224Y-52607215D02*
X53897367Y-52535786D01*
X53897367Y-52535786D02*
X53683082Y-52535786D01*
X53683082Y-52535786D02*
X53540224Y-52464358D01*
X53540224Y-52464358D02*
X53468796Y-52321500D01*
X53468796Y-52321500D02*
X53468796Y-52250072D01*
X53468796Y-52250072D02*
X53540224Y-52107215D01*
X53540224Y-52107215D02*
X53683082Y-52035786D01*
X53683082Y-52035786D02*
X53897367Y-52035786D01*
X53897367Y-52035786D02*
X54040224Y-52107215D01*
X54754510Y-53035786D02*
X54754510Y-52035786D01*
X54754510Y-51535786D02*
X54683082Y-51607215D01*
X54683082Y-51607215D02*
X54754510Y-51678643D01*
X54754510Y-51678643D02*
X54825939Y-51607215D01*
X54825939Y-51607215D02*
X54754510Y-51535786D01*
X54754510Y-51535786D02*
X54754510Y-51678643D01*
X56111654Y-52035786D02*
X56111654Y-53250072D01*
X56111654Y-53250072D02*
X56040225Y-53392929D01*
X56040225Y-53392929D02*
X55968796Y-53464358D01*
X55968796Y-53464358D02*
X55825939Y-53535786D01*
X55825939Y-53535786D02*
X55611654Y-53535786D01*
X55611654Y-53535786D02*
X55468796Y-53464358D01*
X56111654Y-52964358D02*
X55968796Y-53035786D01*
X55968796Y-53035786D02*
X55683082Y-53035786D01*
X55683082Y-53035786D02*
X55540225Y-52964358D01*
X55540225Y-52964358D02*
X55468796Y-52892929D01*
X55468796Y-52892929D02*
X55397368Y-52750072D01*
X55397368Y-52750072D02*
X55397368Y-52321500D01*
X55397368Y-52321500D02*
X55468796Y-52178643D01*
X55468796Y-52178643D02*
X55540225Y-52107215D01*
X55540225Y-52107215D02*
X55683082Y-52035786D01*
X55683082Y-52035786D02*
X55968796Y-52035786D01*
X55968796Y-52035786D02*
X56111654Y-52107215D01*
X56825939Y-52035786D02*
X56825939Y-53035786D01*
X56825939Y-52178643D02*
X56897368Y-52107215D01*
X56897368Y-52107215D02*
X57040225Y-52035786D01*
X57040225Y-52035786D02*
X57254511Y-52035786D01*
X57254511Y-52035786D02*
X57397368Y-52107215D01*
X57397368Y-52107215D02*
X57468797Y-52250072D01*
X57468797Y-52250072D02*
X57468797Y-53035786D01*
X58754511Y-52964358D02*
X58611654Y-53035786D01*
X58611654Y-53035786D02*
X58325940Y-53035786D01*
X58325940Y-53035786D02*
X58183082Y-52964358D01*
X58183082Y-52964358D02*
X58111654Y-52821500D01*
X58111654Y-52821500D02*
X58111654Y-52250072D01*
X58111654Y-52250072D02*
X58183082Y-52107215D01*
X58183082Y-52107215D02*
X58325940Y-52035786D01*
X58325940Y-52035786D02*
X58611654Y-52035786D01*
X58611654Y-52035786D02*
X58754511Y-52107215D01*
X58754511Y-52107215D02*
X58825940Y-52250072D01*
X58825940Y-52250072D02*
X58825940Y-52392929D01*
X58825940Y-52392929D02*
X58111654Y-52535786D01*
X60111654Y-53035786D02*
X60111654Y-51535786D01*
X60111654Y-52964358D02*
X59968796Y-53035786D01*
X59968796Y-53035786D02*
X59683082Y-53035786D01*
X59683082Y-53035786D02*
X59540225Y-52964358D01*
X59540225Y-52964358D02*
X59468796Y-52892929D01*
X59468796Y-52892929D02*
X59397368Y-52750072D01*
X59397368Y-52750072D02*
X59397368Y-52321500D01*
X59397368Y-52321500D02*
X59468796Y-52178643D01*
X59468796Y-52178643D02*
X59540225Y-52107215D01*
X59540225Y-52107215D02*
X59683082Y-52035786D01*
X59683082Y-52035786D02*
X59968796Y-52035786D01*
X59968796Y-52035786D02*
X60111654Y-52107215D01*
X61968796Y-53035786D02*
X61968796Y-51535786D01*
X61968796Y-52107215D02*
X62111654Y-52035786D01*
X62111654Y-52035786D02*
X62397368Y-52035786D01*
X62397368Y-52035786D02*
X62540225Y-52107215D01*
X62540225Y-52107215D02*
X62611654Y-52178643D01*
X62611654Y-52178643D02*
X62683082Y-52321500D01*
X62683082Y-52321500D02*
X62683082Y-52750072D01*
X62683082Y-52750072D02*
X62611654Y-52892929D01*
X62611654Y-52892929D02*
X62540225Y-52964358D01*
X62540225Y-52964358D02*
X62397368Y-53035786D01*
X62397368Y-53035786D02*
X62111654Y-53035786D01*
X62111654Y-53035786D02*
X61968796Y-52964358D01*
X63183082Y-52035786D02*
X63540225Y-53035786D01*
X63897368Y-52035786D02*
X63540225Y-53035786D01*
X63540225Y-53035786D02*
X63397368Y-53392929D01*
X63397368Y-53392929D02*
X63325939Y-53464358D01*
X63325939Y-53464358D02*
X63183082Y-53535786D01*
X65611653Y-53035786D02*
X65611653Y-51535786D01*
X65611653Y-51535786D02*
X66111653Y-52607215D01*
X66111653Y-52607215D02*
X66611653Y-51535786D01*
X66611653Y-51535786D02*
X66611653Y-53035786D01*
X67325939Y-53035786D02*
X67325939Y-51535786D01*
X68754511Y-53035786D02*
X68040225Y-53035786D01*
X68040225Y-53035786D02*
X68040225Y-51535786D01*
X69897369Y-53035786D02*
X69897369Y-52250072D01*
X69897369Y-52250072D02*
X69825940Y-52107215D01*
X69825940Y-52107215D02*
X69683083Y-52035786D01*
X69683083Y-52035786D02*
X69397369Y-52035786D01*
X69397369Y-52035786D02*
X69254511Y-52107215D01*
X69897369Y-52964358D02*
X69754511Y-53035786D01*
X69754511Y-53035786D02*
X69397369Y-53035786D01*
X69397369Y-53035786D02*
X69254511Y-52964358D01*
X69254511Y-52964358D02*
X69183083Y-52821500D01*
X69183083Y-52821500D02*
X69183083Y-52678643D01*
X69183083Y-52678643D02*
X69254511Y-52535786D01*
X69254511Y-52535786D02*
X69397369Y-52464358D01*
X69397369Y-52464358D02*
X69754511Y-52464358D01*
X69754511Y-52464358D02*
X69897369Y-52392929D01*
X70611654Y-53035786D02*
X70611654Y-51535786D01*
X70611654Y-52107215D02*
X70754512Y-52035786D01*
X70754512Y-52035786D02*
X71040226Y-52035786D01*
X71040226Y-52035786D02*
X71183083Y-52107215D01*
X71183083Y-52107215D02*
X71254512Y-52178643D01*
X71254512Y-52178643D02*
X71325940Y-52321500D01*
X71325940Y-52321500D02*
X71325940Y-52750072D01*
X71325940Y-52750072D02*
X71254512Y-52892929D01*
X71254512Y-52892929D02*
X71183083Y-52964358D01*
X71183083Y-52964358D02*
X71040226Y-53035786D01*
X71040226Y-53035786D02*
X70754512Y-53035786D01*
X70754512Y-53035786D02*
X70611654Y-52964358D01*
X73040226Y-51678643D02*
X73111654Y-51607215D01*
X73111654Y-51607215D02*
X73254512Y-51535786D01*
X73254512Y-51535786D02*
X73611654Y-51535786D01*
X73611654Y-51535786D02*
X73754512Y-51607215D01*
X73754512Y-51607215D02*
X73825940Y-51678643D01*
X73825940Y-51678643D02*
X73897369Y-51821500D01*
X73897369Y-51821500D02*
X73897369Y-51964358D01*
X73897369Y-51964358D02*
X73825940Y-52178643D01*
X73825940Y-52178643D02*
X72968797Y-53035786D01*
X72968797Y-53035786D02*
X73897369Y-53035786D01*
X74825940Y-51535786D02*
X74968797Y-51535786D01*
X74968797Y-51535786D02*
X75111654Y-51607215D01*
X75111654Y-51607215D02*
X75183083Y-51678643D01*
X75183083Y-51678643D02*
X75254511Y-51821500D01*
X75254511Y-51821500D02*
X75325940Y-52107215D01*
X75325940Y-52107215D02*
X75325940Y-52464358D01*
X75325940Y-52464358D02*
X75254511Y-52750072D01*
X75254511Y-52750072D02*
X75183083Y-52892929D01*
X75183083Y-52892929D02*
X75111654Y-52964358D01*
X75111654Y-52964358D02*
X74968797Y-53035786D01*
X74968797Y-53035786D02*
X74825940Y-53035786D01*
X74825940Y-53035786D02*
X74683083Y-52964358D01*
X74683083Y-52964358D02*
X74611654Y-52892929D01*
X74611654Y-52892929D02*
X74540225Y-52750072D01*
X74540225Y-52750072D02*
X74468797Y-52464358D01*
X74468797Y-52464358D02*
X74468797Y-52107215D01*
X74468797Y-52107215D02*
X74540225Y-51821500D01*
X74540225Y-51821500D02*
X74611654Y-51678643D01*
X74611654Y-51678643D02*
X74683083Y-51607215D01*
X74683083Y-51607215D02*
X74825940Y-51535786D01*
X75897368Y-51678643D02*
X75968796Y-51607215D01*
X75968796Y-51607215D02*
X76111654Y-51535786D01*
X76111654Y-51535786D02*
X76468796Y-51535786D01*
X76468796Y-51535786D02*
X76611654Y-51607215D01*
X76611654Y-51607215D02*
X76683082Y-51678643D01*
X76683082Y-51678643D02*
X76754511Y-51821500D01*
X76754511Y-51821500D02*
X76754511Y-51964358D01*
X76754511Y-51964358D02*
X76683082Y-52178643D01*
X76683082Y-52178643D02*
X75825939Y-53035786D01*
X75825939Y-53035786D02*
X76754511Y-53035786D01*
X78111653Y-51535786D02*
X77397367Y-51535786D01*
X77397367Y-51535786D02*
X77325939Y-52250072D01*
X77325939Y-52250072D02*
X77397367Y-52178643D01*
X77397367Y-52178643D02*
X77540225Y-52107215D01*
X77540225Y-52107215D02*
X77897367Y-52107215D01*
X77897367Y-52107215D02*
X78040225Y-52178643D01*
X78040225Y-52178643D02*
X78111653Y-52250072D01*
X78111653Y-52250072D02*
X78183082Y-52392929D01*
X78183082Y-52392929D02*
X78183082Y-52750072D01*
X78183082Y-52750072D02*
X78111653Y-52892929D01*
X78111653Y-52892929D02*
X78040225Y-52964358D01*
X78040225Y-52964358D02*
X77897367Y-53035786D01*
X77897367Y-53035786D02*
X77540225Y-53035786D01*
X77540225Y-53035786D02*
X77397367Y-52964358D01*
X77397367Y-52964358D02*
X77325939Y-52892929D01*
D11*
X42649847Y-47380951D02*
X43459370Y-47380951D01*
X43459370Y-47380951D02*
X43554608Y-47333332D01*
X43554608Y-47333332D02*
X43602228Y-47285713D01*
X43602228Y-47285713D02*
X43649847Y-47190475D01*
X43649847Y-47190475D02*
X43649847Y-46999999D01*
X43649847Y-46999999D02*
X43602228Y-46904761D01*
X43602228Y-46904761D02*
X43554608Y-46857142D01*
X43554608Y-46857142D02*
X43459370Y-46809523D01*
X43459370Y-46809523D02*
X42649847Y-46809523D01*
X43602228Y-46380951D02*
X43649847Y-46238094D01*
X43649847Y-46238094D02*
X43649847Y-45999999D01*
X43649847Y-45999999D02*
X43602228Y-45904761D01*
X43602228Y-45904761D02*
X43554608Y-45857142D01*
X43554608Y-45857142D02*
X43459370Y-45809523D01*
X43459370Y-45809523D02*
X43364132Y-45809523D01*
X43364132Y-45809523D02*
X43268894Y-45857142D01*
X43268894Y-45857142D02*
X43221275Y-45904761D01*
X43221275Y-45904761D02*
X43173656Y-45999999D01*
X43173656Y-45999999D02*
X43126037Y-46190475D01*
X43126037Y-46190475D02*
X43078418Y-46285713D01*
X43078418Y-46285713D02*
X43030799Y-46333332D01*
X43030799Y-46333332D02*
X42935561Y-46380951D01*
X42935561Y-46380951D02*
X42840323Y-46380951D01*
X42840323Y-46380951D02*
X42745085Y-46333332D01*
X42745085Y-46333332D02*
X42697466Y-46285713D01*
X42697466Y-46285713D02*
X42649847Y-46190475D01*
X42649847Y-46190475D02*
X42649847Y-45952380D01*
X42649847Y-45952380D02*
X42697466Y-45809523D01*
X43126037Y-45047618D02*
X43173656Y-44904761D01*
X43173656Y-44904761D02*
X43221275Y-44857142D01*
X43221275Y-44857142D02*
X43316513Y-44809523D01*
X43316513Y-44809523D02*
X43459370Y-44809523D01*
X43459370Y-44809523D02*
X43554608Y-44857142D01*
X43554608Y-44857142D02*
X43602228Y-44904761D01*
X43602228Y-44904761D02*
X43649847Y-44999999D01*
X43649847Y-44999999D02*
X43649847Y-45380951D01*
X43649847Y-45380951D02*
X42649847Y-45380951D01*
X42649847Y-45380951D02*
X42649847Y-45047618D01*
X42649847Y-45047618D02*
X42697466Y-44952380D01*
X42697466Y-44952380D02*
X42745085Y-44904761D01*
X42745085Y-44904761D02*
X42840323Y-44857142D01*
X42840323Y-44857142D02*
X42935561Y-44857142D01*
X42935561Y-44857142D02*
X43030799Y-44904761D01*
X43030799Y-44904761D02*
X43078418Y-44952380D01*
X43078418Y-44952380D02*
X43126037Y-45047618D01*
X43126037Y-45047618D02*
X43126037Y-45380951D01*
X43268894Y-44380951D02*
X43268894Y-43619047D01*
X43554608Y-42571428D02*
X43602228Y-42619047D01*
X43602228Y-42619047D02*
X43649847Y-42761904D01*
X43649847Y-42761904D02*
X43649847Y-42857142D01*
X43649847Y-42857142D02*
X43602228Y-42999999D01*
X43602228Y-42999999D02*
X43506989Y-43095237D01*
X43506989Y-43095237D02*
X43411751Y-43142856D01*
X43411751Y-43142856D02*
X43221275Y-43190475D01*
X43221275Y-43190475D02*
X43078418Y-43190475D01*
X43078418Y-43190475D02*
X42887942Y-43142856D01*
X42887942Y-43142856D02*
X42792704Y-43095237D01*
X42792704Y-43095237D02*
X42697466Y-42999999D01*
X42697466Y-42999999D02*
X42649847Y-42857142D01*
X42649847Y-42857142D02*
X42649847Y-42761904D01*
X42649847Y-42761904D02*
X42697466Y-42619047D01*
X42697466Y-42619047D02*
X42745085Y-42571428D01*
X45259791Y-47309523D02*
X44259791Y-47309523D01*
X44259791Y-47309523D02*
X44259791Y-46928571D01*
X44259791Y-46928571D02*
X44307410Y-46833333D01*
X44307410Y-46833333D02*
X44355029Y-46785714D01*
X44355029Y-46785714D02*
X44450267Y-46738095D01*
X44450267Y-46738095D02*
X44593124Y-46738095D01*
X44593124Y-46738095D02*
X44688362Y-46785714D01*
X44688362Y-46785714D02*
X44735981Y-46833333D01*
X44735981Y-46833333D02*
X44783600Y-46928571D01*
X44783600Y-46928571D02*
X44783600Y-47309523D01*
X44259791Y-46119047D02*
X44259791Y-45928571D01*
X44259791Y-45928571D02*
X44307410Y-45833333D01*
X44307410Y-45833333D02*
X44402648Y-45738095D01*
X44402648Y-45738095D02*
X44593124Y-45690476D01*
X44593124Y-45690476D02*
X44926457Y-45690476D01*
X44926457Y-45690476D02*
X45116933Y-45738095D01*
X45116933Y-45738095D02*
X45212172Y-45833333D01*
X45212172Y-45833333D02*
X45259791Y-45928571D01*
X45259791Y-45928571D02*
X45259791Y-46119047D01*
X45259791Y-46119047D02*
X45212172Y-46214285D01*
X45212172Y-46214285D02*
X45116933Y-46309523D01*
X45116933Y-46309523D02*
X44926457Y-46357142D01*
X44926457Y-46357142D02*
X44593124Y-46357142D01*
X44593124Y-46357142D02*
X44402648Y-46309523D01*
X44402648Y-46309523D02*
X44307410Y-46214285D01*
X44307410Y-46214285D02*
X44259791Y-46119047D01*
X44259791Y-45357142D02*
X45259791Y-45119047D01*
X45259791Y-45119047D02*
X44545505Y-44928571D01*
X44545505Y-44928571D02*
X45259791Y-44738095D01*
X45259791Y-44738095D02*
X44259791Y-44500000D01*
X44735981Y-44119047D02*
X44735981Y-43785714D01*
X45259791Y-43642857D02*
X45259791Y-44119047D01*
X45259791Y-44119047D02*
X44259791Y-44119047D01*
X44259791Y-44119047D02*
X44259791Y-43642857D01*
X45259791Y-42642857D02*
X44783600Y-42976190D01*
X45259791Y-43214285D02*
X44259791Y-43214285D01*
X44259791Y-43214285D02*
X44259791Y-42833333D01*
X44259791Y-42833333D02*
X44307410Y-42738095D01*
X44307410Y-42738095D02*
X44355029Y-42690476D01*
X44355029Y-42690476D02*
X44450267Y-42642857D01*
X44450267Y-42642857D02*
X44593124Y-42642857D01*
X44593124Y-42642857D02*
X44688362Y-42690476D01*
X44688362Y-42690476D02*
X44735981Y-42738095D01*
X44735981Y-42738095D02*
X44783600Y-42833333D01*
X44783600Y-42833333D02*
X44783600Y-43214285D01*
X85190476Y-41204819D02*
X85857142Y-42204819D01*
X85857142Y-41204819D02*
X85190476Y-42204819D01*
X86761904Y-42204819D02*
X86190476Y-42204819D01*
X86476190Y-42204819D02*
X86476190Y-41204819D01*
X86476190Y-41204819D02*
X86380952Y-41347676D01*
X86380952Y-41347676D02*
X86285714Y-41442914D01*
X86285714Y-41442914D02*
X86190476Y-41490533D01*
X103318104Y-45198404D02*
X103318104Y-44722214D01*
X103603819Y-45293642D02*
X102603819Y-44960309D01*
X102603819Y-44960309D02*
X103603819Y-44626976D01*
X103603819Y-44293642D02*
X102603819Y-44293642D01*
X102603819Y-44293642D02*
X103603819Y-43722214D01*
X103603819Y-43722214D02*
X102603819Y-43722214D01*
X103603819Y-43246023D02*
X102603819Y-43246023D01*
X102603819Y-43246023D02*
X102603819Y-43007928D01*
X102603819Y-43007928D02*
X102651438Y-42865071D01*
X102651438Y-42865071D02*
X102746676Y-42769833D01*
X102746676Y-42769833D02*
X102841914Y-42722214D01*
X102841914Y-42722214D02*
X103032390Y-42674595D01*
X103032390Y-42674595D02*
X103175247Y-42674595D01*
X103175247Y-42674595D02*
X103365723Y-42722214D01*
X103365723Y-42722214D02*
X103460961Y-42769833D01*
X103460961Y-42769833D02*
X103556200Y-42865071D01*
X103556200Y-42865071D02*
X103603819Y-43007928D01*
X103603819Y-43007928D02*
X103603819Y-43246023D01*
X116723152Y-42762023D02*
X117389819Y-42762023D01*
X116342200Y-43000118D02*
X117056485Y-43238213D01*
X117056485Y-43238213D02*
X117056485Y-42619166D01*
X107229819Y-42666785D02*
X107229819Y-43238213D01*
X107229819Y-42952499D02*
X106229819Y-42952499D01*
X106229819Y-42952499D02*
X106372676Y-43047737D01*
X106372676Y-43047737D02*
X106467914Y-43142975D01*
X106467914Y-43142975D02*
X106515533Y-43238213D01*
X110039819Y-43762023D02*
X111039819Y-43095357D01*
X110039819Y-43095357D02*
X111039819Y-43762023D01*
X110135057Y-42762023D02*
X110087438Y-42714404D01*
X110087438Y-42714404D02*
X110039819Y-42619166D01*
X110039819Y-42619166D02*
X110039819Y-42381071D01*
X110039819Y-42381071D02*
X110087438Y-42285833D01*
X110087438Y-42285833D02*
X110135057Y-42238214D01*
X110135057Y-42238214D02*
X110230295Y-42190595D01*
X110230295Y-42190595D02*
X110325533Y-42190595D01*
X110325533Y-42190595D02*
X110468390Y-42238214D01*
X110468390Y-42238214D02*
X111039819Y-42809642D01*
X111039819Y-42809642D02*
X111039819Y-42190595D01*
X111405057Y-43238213D02*
X111357438Y-43190594D01*
X111357438Y-43190594D02*
X111309819Y-43095356D01*
X111309819Y-43095356D02*
X111309819Y-42857261D01*
X111309819Y-42857261D02*
X111357438Y-42762023D01*
X111357438Y-42762023D02*
X111405057Y-42714404D01*
X111405057Y-42714404D02*
X111500295Y-42666785D01*
X111500295Y-42666785D02*
X111595533Y-42666785D01*
X111595533Y-42666785D02*
X111738390Y-42714404D01*
X111738390Y-42714404D02*
X112309819Y-43285832D01*
X112309819Y-43285832D02*
X112309819Y-42666785D01*
X115119819Y-43285832D02*
X115119819Y-42666785D01*
X115119819Y-42666785D02*
X115500771Y-43000118D01*
X115500771Y-43000118D02*
X115500771Y-42857261D01*
X115500771Y-42857261D02*
X115548390Y-42762023D01*
X115548390Y-42762023D02*
X115596009Y-42714404D01*
X115596009Y-42714404D02*
X115691247Y-42666785D01*
X115691247Y-42666785D02*
X115929342Y-42666785D01*
X115929342Y-42666785D02*
X116024580Y-42714404D01*
X116024580Y-42714404D02*
X116072200Y-42762023D01*
X116072200Y-42762023D02*
X116119819Y-42857261D01*
X116119819Y-42857261D02*
X116119819Y-43142975D01*
X116119819Y-43142975D02*
X116072200Y-43238213D01*
X116072200Y-43238213D02*
X116024580Y-43285832D01*
X127819819Y-42762023D02*
X127819819Y-42952499D01*
X127819819Y-42952499D02*
X127867438Y-43047737D01*
X127867438Y-43047737D02*
X127915057Y-43095356D01*
X127915057Y-43095356D02*
X128057914Y-43190594D01*
X128057914Y-43190594D02*
X128248390Y-43238213D01*
X128248390Y-43238213D02*
X128629342Y-43238213D01*
X128629342Y-43238213D02*
X128724580Y-43190594D01*
X128724580Y-43190594D02*
X128772200Y-43142975D01*
X128772200Y-43142975D02*
X128819819Y-43047737D01*
X128819819Y-43047737D02*
X128819819Y-42857261D01*
X128819819Y-42857261D02*
X128772200Y-42762023D01*
X128772200Y-42762023D02*
X128724580Y-42714404D01*
X128724580Y-42714404D02*
X128629342Y-42666785D01*
X128629342Y-42666785D02*
X128391247Y-42666785D01*
X128391247Y-42666785D02*
X128296009Y-42714404D01*
X128296009Y-42714404D02*
X128248390Y-42762023D01*
X128248390Y-42762023D02*
X128200771Y-42857261D01*
X128200771Y-42857261D02*
X128200771Y-43047737D01*
X128200771Y-43047737D02*
X128248390Y-43142975D01*
X128248390Y-43142975D02*
X128296009Y-43190594D01*
X128296009Y-43190594D02*
X128391247Y-43238213D01*
X117659819Y-42714404D02*
X117659819Y-43190594D01*
X117659819Y-43190594D02*
X118136009Y-43238213D01*
X118136009Y-43238213D02*
X118088390Y-43190594D01*
X118088390Y-43190594D02*
X118040771Y-43095356D01*
X118040771Y-43095356D02*
X118040771Y-42857261D01*
X118040771Y-42857261D02*
X118088390Y-42762023D01*
X118088390Y-42762023D02*
X118136009Y-42714404D01*
X118136009Y-42714404D02*
X118231247Y-42666785D01*
X118231247Y-42666785D02*
X118469342Y-42666785D01*
X118469342Y-42666785D02*
X118564580Y-42714404D01*
X118564580Y-42714404D02*
X118612200Y-42762023D01*
X118612200Y-42762023D02*
X118659819Y-42857261D01*
X118659819Y-42857261D02*
X118659819Y-43095356D01*
X118659819Y-43095356D02*
X118612200Y-43190594D01*
X118612200Y-43190594D02*
X118564580Y-43238213D01*
X129867628Y-42952499D02*
X130343819Y-42952499D01*
X129343819Y-43285832D02*
X129867628Y-42952499D01*
X129867628Y-42952499D02*
X129343819Y-42619166D01*
X104959819Y-43762023D02*
X105959819Y-43095357D01*
X104959819Y-43095357D02*
X105959819Y-43762023D01*
X105959819Y-42190595D02*
X105959819Y-42762023D01*
X105959819Y-42476309D02*
X104959819Y-42476309D01*
X104959819Y-42476309D02*
X105102676Y-42571547D01*
X105102676Y-42571547D02*
X105197914Y-42666785D01*
X105197914Y-42666785D02*
X105245533Y-42762023D01*
X91190476Y-41104819D02*
X91857142Y-42104819D01*
X91857142Y-41104819D02*
X91190476Y-42104819D01*
X92190476Y-41200057D02*
X92238095Y-41152438D01*
X92238095Y-41152438D02*
X92333333Y-41104819D01*
X92333333Y-41104819D02*
X92571428Y-41104819D01*
X92571428Y-41104819D02*
X92666666Y-41152438D01*
X92666666Y-41152438D02*
X92714285Y-41200057D01*
X92714285Y-41200057D02*
X92761904Y-41295295D01*
X92761904Y-41295295D02*
X92761904Y-41390533D01*
X92761904Y-41390533D02*
X92714285Y-41533390D01*
X92714285Y-41533390D02*
X92142857Y-42104819D01*
X92142857Y-42104819D02*
X92761904Y-42104819D01*
X98000000Y-41628628D02*
X98000000Y-42104819D01*
X97666667Y-41104819D02*
X98000000Y-41628628D01*
X98000000Y-41628628D02*
X98333333Y-41104819D01*
X75333333Y-45854819D02*
X75000000Y-45378628D01*
X74761905Y-45854819D02*
X74761905Y-44854819D01*
X74761905Y-44854819D02*
X75142857Y-44854819D01*
X75142857Y-44854819D02*
X75238095Y-44902438D01*
X75238095Y-44902438D02*
X75285714Y-44950057D01*
X75285714Y-44950057D02*
X75333333Y-45045295D01*
X75333333Y-45045295D02*
X75333333Y-45188152D01*
X75333333Y-45188152D02*
X75285714Y-45283390D01*
X75285714Y-45283390D02*
X75238095Y-45331009D01*
X75238095Y-45331009D02*
X75142857Y-45378628D01*
X75142857Y-45378628D02*
X74761905Y-45378628D01*
X75666667Y-44854819D02*
X76285714Y-44854819D01*
X76285714Y-44854819D02*
X75952381Y-45235771D01*
X75952381Y-45235771D02*
X76095238Y-45235771D01*
X76095238Y-45235771D02*
X76190476Y-45283390D01*
X76190476Y-45283390D02*
X76238095Y-45331009D01*
X76238095Y-45331009D02*
X76285714Y-45426247D01*
X76285714Y-45426247D02*
X76285714Y-45664342D01*
X76285714Y-45664342D02*
X76238095Y-45759580D01*
X76238095Y-45759580D02*
X76190476Y-45807200D01*
X76190476Y-45807200D02*
X76095238Y-45854819D01*
X76095238Y-45854819D02*
X75809524Y-45854819D01*
X75809524Y-45854819D02*
X75714286Y-45807200D01*
X75714286Y-45807200D02*
X75666667Y-45759580D01*
X95216667Y-47707200D02*
X95359524Y-47754819D01*
X95359524Y-47754819D02*
X95597619Y-47754819D01*
X95597619Y-47754819D02*
X95692857Y-47707200D01*
X95692857Y-47707200D02*
X95740476Y-47659580D01*
X95740476Y-47659580D02*
X95788095Y-47564342D01*
X95788095Y-47564342D02*
X95788095Y-47469104D01*
X95788095Y-47469104D02*
X95740476Y-47373866D01*
X95740476Y-47373866D02*
X95692857Y-47326247D01*
X95692857Y-47326247D02*
X95597619Y-47278628D01*
X95597619Y-47278628D02*
X95407143Y-47231009D01*
X95407143Y-47231009D02*
X95311905Y-47183390D01*
X95311905Y-47183390D02*
X95264286Y-47135771D01*
X95264286Y-47135771D02*
X95216667Y-47040533D01*
X95216667Y-47040533D02*
X95216667Y-46945295D01*
X95216667Y-46945295D02*
X95264286Y-46850057D01*
X95264286Y-46850057D02*
X95311905Y-46802438D01*
X95311905Y-46802438D02*
X95407143Y-46754819D01*
X95407143Y-46754819D02*
X95645238Y-46754819D01*
X95645238Y-46754819D02*
X95788095Y-46802438D01*
X96121429Y-46754819D02*
X96359524Y-47754819D01*
X96359524Y-47754819D02*
X96550000Y-47040533D01*
X96550000Y-47040533D02*
X96740476Y-47754819D01*
X96740476Y-47754819D02*
X96978572Y-46754819D01*
X97311905Y-46850057D02*
X97359524Y-46802438D01*
X97359524Y-46802438D02*
X97454762Y-46754819D01*
X97454762Y-46754819D02*
X97692857Y-46754819D01*
X97692857Y-46754819D02*
X97788095Y-46802438D01*
X97788095Y-46802438D02*
X97835714Y-46850057D01*
X97835714Y-46850057D02*
X97883333Y-46945295D01*
X97883333Y-46945295D02*
X97883333Y-47040533D01*
X97883333Y-47040533D02*
X97835714Y-47183390D01*
X97835714Y-47183390D02*
X97264286Y-47754819D01*
X97264286Y-47754819D02*
X97883333Y-47754819D01*
X75333333Y-41954819D02*
X75000000Y-41478628D01*
X74761905Y-41954819D02*
X74761905Y-40954819D01*
X74761905Y-40954819D02*
X75142857Y-40954819D01*
X75142857Y-40954819D02*
X75238095Y-41002438D01*
X75238095Y-41002438D02*
X75285714Y-41050057D01*
X75285714Y-41050057D02*
X75333333Y-41145295D01*
X75333333Y-41145295D02*
X75333333Y-41288152D01*
X75333333Y-41288152D02*
X75285714Y-41383390D01*
X75285714Y-41383390D02*
X75238095Y-41431009D01*
X75238095Y-41431009D02*
X75142857Y-41478628D01*
X75142857Y-41478628D02*
X74761905Y-41478628D01*
X75714286Y-41050057D02*
X75761905Y-41002438D01*
X75761905Y-41002438D02*
X75857143Y-40954819D01*
X75857143Y-40954819D02*
X76095238Y-40954819D01*
X76095238Y-40954819D02*
X76190476Y-41002438D01*
X76190476Y-41002438D02*
X76238095Y-41050057D01*
X76238095Y-41050057D02*
X76285714Y-41145295D01*
X76285714Y-41145295D02*
X76285714Y-41240533D01*
X76285714Y-41240533D02*
X76238095Y-41383390D01*
X76238095Y-41383390D02*
X75666667Y-41954819D01*
X75666667Y-41954819D02*
X76285714Y-41954819D01*
X56514286Y-41054819D02*
X57180952Y-41054819D01*
X57180952Y-41054819D02*
X56752381Y-42054819D01*
X57990476Y-41388152D02*
X57990476Y-42054819D01*
X57752381Y-41007200D02*
X57514286Y-41721485D01*
X57514286Y-41721485D02*
X58133333Y-41721485D01*
X58514286Y-42054819D02*
X58514286Y-41054819D01*
X58514286Y-41531009D02*
X59085714Y-41531009D01*
X59085714Y-42054819D02*
X59085714Y-41054819D01*
X60133333Y-41959580D02*
X60085714Y-42007200D01*
X60085714Y-42007200D02*
X59942857Y-42054819D01*
X59942857Y-42054819D02*
X59847619Y-42054819D01*
X59847619Y-42054819D02*
X59704762Y-42007200D01*
X59704762Y-42007200D02*
X59609524Y-41911961D01*
X59609524Y-41911961D02*
X59561905Y-41816723D01*
X59561905Y-41816723D02*
X59514286Y-41626247D01*
X59514286Y-41626247D02*
X59514286Y-41483390D01*
X59514286Y-41483390D02*
X59561905Y-41292914D01*
X59561905Y-41292914D02*
X59609524Y-41197676D01*
X59609524Y-41197676D02*
X59704762Y-41102438D01*
X59704762Y-41102438D02*
X59847619Y-41054819D01*
X59847619Y-41054819D02*
X59942857Y-41054819D01*
X59942857Y-41054819D02*
X60085714Y-41102438D01*
X60085714Y-41102438D02*
X60133333Y-41150057D01*
X60752381Y-41054819D02*
X60847619Y-41054819D01*
X60847619Y-41054819D02*
X60942857Y-41102438D01*
X60942857Y-41102438D02*
X60990476Y-41150057D01*
X60990476Y-41150057D02*
X61038095Y-41245295D01*
X61038095Y-41245295D02*
X61085714Y-41435771D01*
X61085714Y-41435771D02*
X61085714Y-41673866D01*
X61085714Y-41673866D02*
X61038095Y-41864342D01*
X61038095Y-41864342D02*
X60990476Y-41959580D01*
X60990476Y-41959580D02*
X60942857Y-42007200D01*
X60942857Y-42007200D02*
X60847619Y-42054819D01*
X60847619Y-42054819D02*
X60752381Y-42054819D01*
X60752381Y-42054819D02*
X60657143Y-42007200D01*
X60657143Y-42007200D02*
X60609524Y-41959580D01*
X60609524Y-41959580D02*
X60561905Y-41864342D01*
X60561905Y-41864342D02*
X60514286Y-41673866D01*
X60514286Y-41673866D02*
X60514286Y-41435771D01*
X60514286Y-41435771D02*
X60561905Y-41245295D01*
X60561905Y-41245295D02*
X60609524Y-41150057D01*
X60609524Y-41150057D02*
X60657143Y-41102438D01*
X60657143Y-41102438D02*
X60752381Y-41054819D01*
X61704762Y-41054819D02*
X61800000Y-41054819D01*
X61800000Y-41054819D02*
X61895238Y-41102438D01*
X61895238Y-41102438D02*
X61942857Y-41150057D01*
X61942857Y-41150057D02*
X61990476Y-41245295D01*
X61990476Y-41245295D02*
X62038095Y-41435771D01*
X62038095Y-41435771D02*
X62038095Y-41673866D01*
X62038095Y-41673866D02*
X61990476Y-41864342D01*
X61990476Y-41864342D02*
X61942857Y-41959580D01*
X61942857Y-41959580D02*
X61895238Y-42007200D01*
X61895238Y-42007200D02*
X61800000Y-42054819D01*
X61800000Y-42054819D02*
X61704762Y-42054819D01*
X61704762Y-42054819D02*
X61609524Y-42007200D01*
X61609524Y-42007200D02*
X61561905Y-41959580D01*
X61561905Y-41959580D02*
X61514286Y-41864342D01*
X61514286Y-41864342D02*
X61466667Y-41673866D01*
X61466667Y-41673866D02*
X61466667Y-41435771D01*
X61466667Y-41435771D02*
X61514286Y-41245295D01*
X61514286Y-41245295D02*
X61561905Y-41150057D01*
X61561905Y-41150057D02*
X61609524Y-41102438D01*
X61609524Y-41102438D02*
X61704762Y-41054819D01*
X102603819Y-50941142D02*
X103603819Y-50274476D01*
X102603819Y-50274476D02*
X103603819Y-50941142D01*
X102603819Y-49703047D02*
X102603819Y-49512571D01*
X102603819Y-49512571D02*
X102651438Y-49417333D01*
X102651438Y-49417333D02*
X102746676Y-49322095D01*
X102746676Y-49322095D02*
X102937152Y-49274476D01*
X102937152Y-49274476D02*
X103270485Y-49274476D01*
X103270485Y-49274476D02*
X103460961Y-49322095D01*
X103460961Y-49322095D02*
X103556200Y-49417333D01*
X103556200Y-49417333D02*
X103603819Y-49512571D01*
X103603819Y-49512571D02*
X103603819Y-49703047D01*
X103603819Y-49703047D02*
X103556200Y-49798285D01*
X103556200Y-49798285D02*
X103460961Y-49893523D01*
X103460961Y-49893523D02*
X103270485Y-49941142D01*
X103270485Y-49941142D02*
X102937152Y-49941142D01*
X102937152Y-49941142D02*
X102746676Y-49893523D01*
X102746676Y-49893523D02*
X102651438Y-49798285D01*
X102651438Y-49798285D02*
X102603819Y-49703047D01*
X103603819Y-48274476D02*
X103127628Y-48607809D01*
X103603819Y-48845904D02*
X102603819Y-48845904D01*
X102603819Y-48845904D02*
X102603819Y-48464952D01*
X102603819Y-48464952D02*
X102651438Y-48369714D01*
X102651438Y-48369714D02*
X102699057Y-48322095D01*
X102699057Y-48322095D02*
X102794295Y-48274476D01*
X102794295Y-48274476D02*
X102937152Y-48274476D01*
X102937152Y-48274476D02*
X103032390Y-48322095D01*
X103032390Y-48322095D02*
X103080009Y-48369714D01*
X103080009Y-48369714D02*
X103127628Y-48464952D01*
X103127628Y-48464952D02*
X103127628Y-48845904D01*
X111335057Y-48885713D02*
X111287438Y-48838094D01*
X111287438Y-48838094D02*
X111239819Y-48742856D01*
X111239819Y-48742856D02*
X111239819Y-48504761D01*
X111239819Y-48504761D02*
X111287438Y-48409523D01*
X111287438Y-48409523D02*
X111335057Y-48361904D01*
X111335057Y-48361904D02*
X111430295Y-48314285D01*
X111430295Y-48314285D02*
X111525533Y-48314285D01*
X111525533Y-48314285D02*
X111668390Y-48361904D01*
X111668390Y-48361904D02*
X112239819Y-48933332D01*
X112239819Y-48933332D02*
X112239819Y-48314285D01*
X116319819Y-48361904D02*
X116319819Y-48838094D01*
X116319819Y-48838094D02*
X116796009Y-48885713D01*
X116796009Y-48885713D02*
X116748390Y-48838094D01*
X116748390Y-48838094D02*
X116700771Y-48742856D01*
X116700771Y-48742856D02*
X116700771Y-48504761D01*
X116700771Y-48504761D02*
X116748390Y-48409523D01*
X116748390Y-48409523D02*
X116796009Y-48361904D01*
X116796009Y-48361904D02*
X116891247Y-48314285D01*
X116891247Y-48314285D02*
X117129342Y-48314285D01*
X117129342Y-48314285D02*
X117224580Y-48361904D01*
X117224580Y-48361904D02*
X117272200Y-48409523D01*
X117272200Y-48409523D02*
X117319819Y-48504761D01*
X117319819Y-48504761D02*
X117319819Y-48742856D01*
X117319819Y-48742856D02*
X117272200Y-48838094D01*
X117272200Y-48838094D02*
X117224580Y-48885713D01*
X109969819Y-49409523D02*
X110969819Y-48742857D01*
X109969819Y-48742857D02*
X110969819Y-49409523D01*
X110065057Y-48409523D02*
X110017438Y-48361904D01*
X110017438Y-48361904D02*
X109969819Y-48266666D01*
X109969819Y-48266666D02*
X109969819Y-48028571D01*
X109969819Y-48028571D02*
X110017438Y-47933333D01*
X110017438Y-47933333D02*
X110065057Y-47885714D01*
X110065057Y-47885714D02*
X110160295Y-47838095D01*
X110160295Y-47838095D02*
X110255533Y-47838095D01*
X110255533Y-47838095D02*
X110398390Y-47885714D01*
X110398390Y-47885714D02*
X110969819Y-48457142D01*
X110969819Y-48457142D02*
X110969819Y-47838095D01*
X104889819Y-49409523D02*
X105889819Y-48742857D01*
X104889819Y-48742857D02*
X105889819Y-49409523D01*
X105889819Y-47838095D02*
X105889819Y-48409523D01*
X105889819Y-48123809D02*
X104889819Y-48123809D01*
X104889819Y-48123809D02*
X105032676Y-48219047D01*
X105032676Y-48219047D02*
X105127914Y-48314285D01*
X105127914Y-48314285D02*
X105175533Y-48409523D01*
X124368390Y-48695237D02*
X124320771Y-48790475D01*
X124320771Y-48790475D02*
X124273152Y-48838094D01*
X124273152Y-48838094D02*
X124177914Y-48885713D01*
X124177914Y-48885713D02*
X124130295Y-48885713D01*
X124130295Y-48885713D02*
X124035057Y-48838094D01*
X124035057Y-48838094D02*
X123987438Y-48790475D01*
X123987438Y-48790475D02*
X123939819Y-48695237D01*
X123939819Y-48695237D02*
X123939819Y-48504761D01*
X123939819Y-48504761D02*
X123987438Y-48409523D01*
X123987438Y-48409523D02*
X124035057Y-48361904D01*
X124035057Y-48361904D02*
X124130295Y-48314285D01*
X124130295Y-48314285D02*
X124177914Y-48314285D01*
X124177914Y-48314285D02*
X124273152Y-48361904D01*
X124273152Y-48361904D02*
X124320771Y-48409523D01*
X124320771Y-48409523D02*
X124368390Y-48504761D01*
X124368390Y-48504761D02*
X124368390Y-48695237D01*
X124368390Y-48695237D02*
X124416009Y-48790475D01*
X124416009Y-48790475D02*
X124463628Y-48838094D01*
X124463628Y-48838094D02*
X124558866Y-48885713D01*
X124558866Y-48885713D02*
X124749342Y-48885713D01*
X124749342Y-48885713D02*
X124844580Y-48838094D01*
X124844580Y-48838094D02*
X124892200Y-48790475D01*
X124892200Y-48790475D02*
X124939819Y-48695237D01*
X124939819Y-48695237D02*
X124939819Y-48504761D01*
X124939819Y-48504761D02*
X124892200Y-48409523D01*
X124892200Y-48409523D02*
X124844580Y-48361904D01*
X124844580Y-48361904D02*
X124749342Y-48314285D01*
X124749342Y-48314285D02*
X124558866Y-48314285D01*
X124558866Y-48314285D02*
X124463628Y-48361904D01*
X124463628Y-48361904D02*
X124416009Y-48409523D01*
X124416009Y-48409523D02*
X124368390Y-48504761D01*
X115049819Y-48933332D02*
X115049819Y-48314285D01*
X115049819Y-48314285D02*
X115430771Y-48647618D01*
X115430771Y-48647618D02*
X115430771Y-48504761D01*
X115430771Y-48504761D02*
X115478390Y-48409523D01*
X115478390Y-48409523D02*
X115526009Y-48361904D01*
X115526009Y-48361904D02*
X115621247Y-48314285D01*
X115621247Y-48314285D02*
X115859342Y-48314285D01*
X115859342Y-48314285D02*
X115954580Y-48361904D01*
X115954580Y-48361904D02*
X116002200Y-48409523D01*
X116002200Y-48409523D02*
X116049819Y-48504761D01*
X116049819Y-48504761D02*
X116049819Y-48790475D01*
X116049819Y-48790475D02*
X116002200Y-48885713D01*
X116002200Y-48885713D02*
X115954580Y-48933332D01*
X113509819Y-48790476D02*
X113509819Y-49361904D01*
X113509819Y-49076190D02*
X112509819Y-49076190D01*
X112509819Y-49076190D02*
X112652676Y-49171428D01*
X112652676Y-49171428D02*
X112747914Y-49266666D01*
X112747914Y-49266666D02*
X112795533Y-49361904D01*
X112509819Y-48171428D02*
X112509819Y-48076190D01*
X112509819Y-48076190D02*
X112557438Y-47980952D01*
X112557438Y-47980952D02*
X112605057Y-47933333D01*
X112605057Y-47933333D02*
X112700295Y-47885714D01*
X112700295Y-47885714D02*
X112890771Y-47838095D01*
X112890771Y-47838095D02*
X113128866Y-47838095D01*
X113128866Y-47838095D02*
X113319342Y-47885714D01*
X113319342Y-47885714D02*
X113414580Y-47933333D01*
X113414580Y-47933333D02*
X113462200Y-47980952D01*
X113462200Y-47980952D02*
X113509819Y-48076190D01*
X113509819Y-48076190D02*
X113509819Y-48171428D01*
X113509819Y-48171428D02*
X113462200Y-48266666D01*
X113462200Y-48266666D02*
X113414580Y-48314285D01*
X113414580Y-48314285D02*
X113319342Y-48361904D01*
X113319342Y-48361904D02*
X113128866Y-48409523D01*
X113128866Y-48409523D02*
X112890771Y-48409523D01*
X112890771Y-48409523D02*
X112700295Y-48361904D01*
X112700295Y-48361904D02*
X112605057Y-48314285D01*
X112605057Y-48314285D02*
X112557438Y-48266666D01*
X112557438Y-48266666D02*
X112509819Y-48171428D01*
X107159819Y-48314285D02*
X107159819Y-48885713D01*
X107159819Y-48599999D02*
X106159819Y-48599999D01*
X106159819Y-48599999D02*
X106302676Y-48695237D01*
X106302676Y-48695237D02*
X106397914Y-48790475D01*
X106397914Y-48790475D02*
X106445533Y-48885713D01*
X107763152Y-48409523D02*
X108429819Y-48409523D01*
X107382200Y-48647618D02*
X108096485Y-48885713D01*
X108096485Y-48885713D02*
X108096485Y-48266666D01*
X129797628Y-48059999D02*
X130273819Y-48059999D01*
X129273819Y-48393332D02*
X129797628Y-48059999D01*
X129797628Y-48059999D02*
X129273819Y-47726666D01*
X128749819Y-48790476D02*
X128749819Y-49361904D01*
X128749819Y-49076190D02*
X127749819Y-49076190D01*
X127749819Y-49076190D02*
X127892676Y-49171428D01*
X127892676Y-49171428D02*
X127987914Y-49266666D01*
X127987914Y-49266666D02*
X128035533Y-49361904D01*
X128749819Y-47838095D02*
X128749819Y-48409523D01*
X128749819Y-48123809D02*
X127749819Y-48123809D01*
X127749819Y-48123809D02*
X127892676Y-48219047D01*
X127892676Y-48219047D02*
X127987914Y-48314285D01*
X127987914Y-48314285D02*
X128035533Y-48409523D01*
X126209819Y-48790476D02*
X126209819Y-49361904D01*
X126209819Y-49076190D02*
X125209819Y-49076190D01*
X125209819Y-49076190D02*
X125352676Y-49171428D01*
X125352676Y-49171428D02*
X125447914Y-49266666D01*
X125447914Y-49266666D02*
X125495533Y-49361904D01*
X125209819Y-48457142D02*
X125209819Y-47838095D01*
X125209819Y-47838095D02*
X125590771Y-48171428D01*
X125590771Y-48171428D02*
X125590771Y-48028571D01*
X125590771Y-48028571D02*
X125638390Y-47933333D01*
X125638390Y-47933333D02*
X125686009Y-47885714D01*
X125686009Y-47885714D02*
X125781247Y-47838095D01*
X125781247Y-47838095D02*
X126019342Y-47838095D01*
X126019342Y-47838095D02*
X126114580Y-47885714D01*
X126114580Y-47885714D02*
X126162200Y-47933333D01*
X126162200Y-47933333D02*
X126209819Y-48028571D01*
X126209819Y-48028571D02*
X126209819Y-48314285D01*
X126209819Y-48314285D02*
X126162200Y-48409523D01*
X126162200Y-48409523D02*
X126114580Y-48457142D01*
X120129819Y-48409523D02*
X120129819Y-48599999D01*
X120129819Y-48599999D02*
X120177438Y-48695237D01*
X120177438Y-48695237D02*
X120225057Y-48742856D01*
X120225057Y-48742856D02*
X120367914Y-48838094D01*
X120367914Y-48838094D02*
X120558390Y-48885713D01*
X120558390Y-48885713D02*
X120939342Y-48885713D01*
X120939342Y-48885713D02*
X121034580Y-48838094D01*
X121034580Y-48838094D02*
X121082200Y-48790475D01*
X121082200Y-48790475D02*
X121129819Y-48695237D01*
X121129819Y-48695237D02*
X121129819Y-48504761D01*
X121129819Y-48504761D02*
X121082200Y-48409523D01*
X121082200Y-48409523D02*
X121034580Y-48361904D01*
X121034580Y-48361904D02*
X120939342Y-48314285D01*
X120939342Y-48314285D02*
X120701247Y-48314285D01*
X120701247Y-48314285D02*
X120606009Y-48361904D01*
X120606009Y-48361904D02*
X120558390Y-48409523D01*
X120558390Y-48409523D02*
X120510771Y-48504761D01*
X120510771Y-48504761D02*
X120510771Y-48695237D01*
X120510771Y-48695237D02*
X120558390Y-48790475D01*
X120558390Y-48790475D02*
X120606009Y-48838094D01*
X120606009Y-48838094D02*
X120701247Y-48885713D01*
X122399819Y-48790476D02*
X122399819Y-49361904D01*
X122399819Y-49076190D02*
X121399819Y-49076190D01*
X121399819Y-49076190D02*
X121542676Y-49171428D01*
X121542676Y-49171428D02*
X121637914Y-49266666D01*
X121637914Y-49266666D02*
X121685533Y-49361904D01*
X121495057Y-48409523D02*
X121447438Y-48361904D01*
X121447438Y-48361904D02*
X121399819Y-48266666D01*
X121399819Y-48266666D02*
X121399819Y-48028571D01*
X121399819Y-48028571D02*
X121447438Y-47933333D01*
X121447438Y-47933333D02*
X121495057Y-47885714D01*
X121495057Y-47885714D02*
X121590295Y-47838095D01*
X121590295Y-47838095D02*
X121685533Y-47838095D01*
X121685533Y-47838095D02*
X121828390Y-47885714D01*
X121828390Y-47885714D02*
X122399819Y-48457142D01*
X122399819Y-48457142D02*
X122399819Y-47838095D01*
X118589819Y-48790475D02*
X118589819Y-48599999D01*
X118589819Y-48599999D02*
X118542200Y-48504761D01*
X118542200Y-48504761D02*
X118494580Y-48457142D01*
X118494580Y-48457142D02*
X118351723Y-48361904D01*
X118351723Y-48361904D02*
X118161247Y-48314285D01*
X118161247Y-48314285D02*
X117780295Y-48314285D01*
X117780295Y-48314285D02*
X117685057Y-48361904D01*
X117685057Y-48361904D02*
X117637438Y-48409523D01*
X117637438Y-48409523D02*
X117589819Y-48504761D01*
X117589819Y-48504761D02*
X117589819Y-48695237D01*
X117589819Y-48695237D02*
X117637438Y-48790475D01*
X117637438Y-48790475D02*
X117685057Y-48838094D01*
X117685057Y-48838094D02*
X117780295Y-48885713D01*
X117780295Y-48885713D02*
X118018390Y-48885713D01*
X118018390Y-48885713D02*
X118113628Y-48838094D01*
X118113628Y-48838094D02*
X118161247Y-48790475D01*
X118161247Y-48790475D02*
X118208866Y-48695237D01*
X118208866Y-48695237D02*
X118208866Y-48504761D01*
X118208866Y-48504761D02*
X118161247Y-48409523D01*
X118161247Y-48409523D02*
X118113628Y-48361904D01*
X118113628Y-48361904D02*
X118018390Y-48314285D01*
X102603819Y-38979237D02*
X102603819Y-38788761D01*
X102603819Y-38788761D02*
X102651438Y-38693523D01*
X102651438Y-38693523D02*
X102746676Y-38598285D01*
X102746676Y-38598285D02*
X102937152Y-38550666D01*
X102937152Y-38550666D02*
X103270485Y-38550666D01*
X103270485Y-38550666D02*
X103460961Y-38598285D01*
X103460961Y-38598285D02*
X103556200Y-38693523D01*
X103556200Y-38693523D02*
X103603819Y-38788761D01*
X103603819Y-38788761D02*
X103603819Y-38979237D01*
X103603819Y-38979237D02*
X103556200Y-39074475D01*
X103556200Y-39074475D02*
X103460961Y-39169713D01*
X103460961Y-39169713D02*
X103270485Y-39217332D01*
X103270485Y-39217332D02*
X102937152Y-39217332D01*
X102937152Y-39217332D02*
X102746676Y-39169713D01*
X102746676Y-39169713D02*
X102651438Y-39074475D01*
X102651438Y-39074475D02*
X102603819Y-38979237D01*
X103603819Y-37550666D02*
X103127628Y-37883999D01*
X103603819Y-38122094D02*
X102603819Y-38122094D01*
X102603819Y-38122094D02*
X102603819Y-37741142D01*
X102603819Y-37741142D02*
X102651438Y-37645904D01*
X102651438Y-37645904D02*
X102699057Y-37598285D01*
X102699057Y-37598285D02*
X102794295Y-37550666D01*
X102794295Y-37550666D02*
X102937152Y-37550666D01*
X102937152Y-37550666D02*
X103032390Y-37598285D01*
X103032390Y-37598285D02*
X103080009Y-37645904D01*
X103080009Y-37645904D02*
X103127628Y-37741142D01*
X103127628Y-37741142D02*
X103127628Y-38122094D01*
X122399819Y-37590475D02*
X122399819Y-37399999D01*
X122399819Y-37399999D02*
X122352200Y-37304761D01*
X122352200Y-37304761D02*
X122304580Y-37257142D01*
X122304580Y-37257142D02*
X122161723Y-37161904D01*
X122161723Y-37161904D02*
X121971247Y-37114285D01*
X121971247Y-37114285D02*
X121590295Y-37114285D01*
X121590295Y-37114285D02*
X121495057Y-37161904D01*
X121495057Y-37161904D02*
X121447438Y-37209523D01*
X121447438Y-37209523D02*
X121399819Y-37304761D01*
X121399819Y-37304761D02*
X121399819Y-37495237D01*
X121399819Y-37495237D02*
X121447438Y-37590475D01*
X121447438Y-37590475D02*
X121495057Y-37638094D01*
X121495057Y-37638094D02*
X121590295Y-37685713D01*
X121590295Y-37685713D02*
X121828390Y-37685713D01*
X121828390Y-37685713D02*
X121923628Y-37638094D01*
X121923628Y-37638094D02*
X121971247Y-37590475D01*
X121971247Y-37590475D02*
X122018866Y-37495237D01*
X122018866Y-37495237D02*
X122018866Y-37304761D01*
X122018866Y-37304761D02*
X121971247Y-37209523D01*
X121971247Y-37209523D02*
X121923628Y-37161904D01*
X121923628Y-37161904D02*
X121828390Y-37114285D01*
X120129819Y-37733332D02*
X120129819Y-37114285D01*
X120129819Y-37114285D02*
X120510771Y-37447618D01*
X120510771Y-37447618D02*
X120510771Y-37304761D01*
X120510771Y-37304761D02*
X120558390Y-37209523D01*
X120558390Y-37209523D02*
X120606009Y-37161904D01*
X120606009Y-37161904D02*
X120701247Y-37114285D01*
X120701247Y-37114285D02*
X120939342Y-37114285D01*
X120939342Y-37114285D02*
X121034580Y-37161904D01*
X121034580Y-37161904D02*
X121082200Y-37209523D01*
X121082200Y-37209523D02*
X121129819Y-37304761D01*
X121129819Y-37304761D02*
X121129819Y-37590475D01*
X121129819Y-37590475D02*
X121082200Y-37685713D01*
X121082200Y-37685713D02*
X121034580Y-37733332D01*
X123939819Y-37209523D02*
X123939819Y-37399999D01*
X123939819Y-37399999D02*
X123987438Y-37495237D01*
X123987438Y-37495237D02*
X124035057Y-37542856D01*
X124035057Y-37542856D02*
X124177914Y-37638094D01*
X124177914Y-37638094D02*
X124368390Y-37685713D01*
X124368390Y-37685713D02*
X124749342Y-37685713D01*
X124749342Y-37685713D02*
X124844580Y-37638094D01*
X124844580Y-37638094D02*
X124892200Y-37590475D01*
X124892200Y-37590475D02*
X124939819Y-37495237D01*
X124939819Y-37495237D02*
X124939819Y-37304761D01*
X124939819Y-37304761D02*
X124892200Y-37209523D01*
X124892200Y-37209523D02*
X124844580Y-37161904D01*
X124844580Y-37161904D02*
X124749342Y-37114285D01*
X124749342Y-37114285D02*
X124511247Y-37114285D01*
X124511247Y-37114285D02*
X124416009Y-37161904D01*
X124416009Y-37161904D02*
X124368390Y-37209523D01*
X124368390Y-37209523D02*
X124320771Y-37304761D01*
X124320771Y-37304761D02*
X124320771Y-37495237D01*
X124320771Y-37495237D02*
X124368390Y-37590475D01*
X124368390Y-37590475D02*
X124416009Y-37638094D01*
X124416009Y-37638094D02*
X124511247Y-37685713D01*
X129797628Y-37399999D02*
X130273819Y-37399999D01*
X129273819Y-37733332D02*
X129797628Y-37399999D01*
X129797628Y-37399999D02*
X129273819Y-37066666D01*
X107525057Y-37685713D02*
X107477438Y-37638094D01*
X107477438Y-37638094D02*
X107429819Y-37542856D01*
X107429819Y-37542856D02*
X107429819Y-37304761D01*
X107429819Y-37304761D02*
X107477438Y-37209523D01*
X107477438Y-37209523D02*
X107525057Y-37161904D01*
X107525057Y-37161904D02*
X107620295Y-37114285D01*
X107620295Y-37114285D02*
X107715533Y-37114285D01*
X107715533Y-37114285D02*
X107858390Y-37161904D01*
X107858390Y-37161904D02*
X108429819Y-37733332D01*
X108429819Y-37733332D02*
X108429819Y-37114285D01*
X111573152Y-37209523D02*
X112239819Y-37209523D01*
X111192200Y-37447618D02*
X111906485Y-37685713D01*
X111906485Y-37685713D02*
X111906485Y-37066666D01*
X126209819Y-37590476D02*
X126209819Y-38161904D01*
X126209819Y-37876190D02*
X125209819Y-37876190D01*
X125209819Y-37876190D02*
X125352676Y-37971428D01*
X125352676Y-37971428D02*
X125447914Y-38066666D01*
X125447914Y-38066666D02*
X125495533Y-38161904D01*
X125209819Y-36971428D02*
X125209819Y-36876190D01*
X125209819Y-36876190D02*
X125257438Y-36780952D01*
X125257438Y-36780952D02*
X125305057Y-36733333D01*
X125305057Y-36733333D02*
X125400295Y-36685714D01*
X125400295Y-36685714D02*
X125590771Y-36638095D01*
X125590771Y-36638095D02*
X125828866Y-36638095D01*
X125828866Y-36638095D02*
X126019342Y-36685714D01*
X126019342Y-36685714D02*
X126114580Y-36733333D01*
X126114580Y-36733333D02*
X126162200Y-36780952D01*
X126162200Y-36780952D02*
X126209819Y-36876190D01*
X126209819Y-36876190D02*
X126209819Y-36971428D01*
X126209819Y-36971428D02*
X126162200Y-37066666D01*
X126162200Y-37066666D02*
X126114580Y-37114285D01*
X126114580Y-37114285D02*
X126019342Y-37161904D01*
X126019342Y-37161904D02*
X125828866Y-37209523D01*
X125828866Y-37209523D02*
X125590771Y-37209523D01*
X125590771Y-37209523D02*
X125400295Y-37161904D01*
X125400295Y-37161904D02*
X125305057Y-37114285D01*
X125305057Y-37114285D02*
X125257438Y-37066666D01*
X125257438Y-37066666D02*
X125209819Y-36971428D01*
X109969819Y-38209523D02*
X110969819Y-37542857D01*
X109969819Y-37542857D02*
X110969819Y-38209523D01*
X110065057Y-37209523D02*
X110017438Y-37161904D01*
X110017438Y-37161904D02*
X109969819Y-37066666D01*
X109969819Y-37066666D02*
X109969819Y-36828571D01*
X109969819Y-36828571D02*
X110017438Y-36733333D01*
X110017438Y-36733333D02*
X110065057Y-36685714D01*
X110065057Y-36685714D02*
X110160295Y-36638095D01*
X110160295Y-36638095D02*
X110255533Y-36638095D01*
X110255533Y-36638095D02*
X110398390Y-36685714D01*
X110398390Y-36685714D02*
X110969819Y-37257142D01*
X110969819Y-37257142D02*
X110969819Y-36638095D01*
X107159819Y-37114285D02*
X107159819Y-37685713D01*
X107159819Y-37399999D02*
X106159819Y-37399999D01*
X106159819Y-37399999D02*
X106302676Y-37495237D01*
X106302676Y-37495237D02*
X106397914Y-37590475D01*
X106397914Y-37590475D02*
X106445533Y-37685713D01*
X112509819Y-37161904D02*
X112509819Y-37638094D01*
X112509819Y-37638094D02*
X112986009Y-37685713D01*
X112986009Y-37685713D02*
X112938390Y-37638094D01*
X112938390Y-37638094D02*
X112890771Y-37542856D01*
X112890771Y-37542856D02*
X112890771Y-37304761D01*
X112890771Y-37304761D02*
X112938390Y-37209523D01*
X112938390Y-37209523D02*
X112986009Y-37161904D01*
X112986009Y-37161904D02*
X113081247Y-37114285D01*
X113081247Y-37114285D02*
X113319342Y-37114285D01*
X113319342Y-37114285D02*
X113414580Y-37161904D01*
X113414580Y-37161904D02*
X113462200Y-37209523D01*
X113462200Y-37209523D02*
X113509819Y-37304761D01*
X113509819Y-37304761D02*
X113509819Y-37542856D01*
X113509819Y-37542856D02*
X113462200Y-37638094D01*
X113462200Y-37638094D02*
X113414580Y-37685713D01*
X104889819Y-38209523D02*
X105889819Y-37542857D01*
X104889819Y-37542857D02*
X105889819Y-38209523D01*
X105889819Y-36638095D02*
X105889819Y-37209523D01*
X105889819Y-36923809D02*
X104889819Y-36923809D01*
X104889819Y-36923809D02*
X105032676Y-37019047D01*
X105032676Y-37019047D02*
X105127914Y-37114285D01*
X105127914Y-37114285D02*
X105175533Y-37209523D01*
X128178390Y-37495237D02*
X128130771Y-37590475D01*
X128130771Y-37590475D02*
X128083152Y-37638094D01*
X128083152Y-37638094D02*
X127987914Y-37685713D01*
X127987914Y-37685713D02*
X127940295Y-37685713D01*
X127940295Y-37685713D02*
X127845057Y-37638094D01*
X127845057Y-37638094D02*
X127797438Y-37590475D01*
X127797438Y-37590475D02*
X127749819Y-37495237D01*
X127749819Y-37495237D02*
X127749819Y-37304761D01*
X127749819Y-37304761D02*
X127797438Y-37209523D01*
X127797438Y-37209523D02*
X127845057Y-37161904D01*
X127845057Y-37161904D02*
X127940295Y-37114285D01*
X127940295Y-37114285D02*
X127987914Y-37114285D01*
X127987914Y-37114285D02*
X128083152Y-37161904D01*
X128083152Y-37161904D02*
X128130771Y-37209523D01*
X128130771Y-37209523D02*
X128178390Y-37304761D01*
X128178390Y-37304761D02*
X128178390Y-37495237D01*
X128178390Y-37495237D02*
X128226009Y-37590475D01*
X128226009Y-37590475D02*
X128273628Y-37638094D01*
X128273628Y-37638094D02*
X128368866Y-37685713D01*
X128368866Y-37685713D02*
X128559342Y-37685713D01*
X128559342Y-37685713D02*
X128654580Y-37638094D01*
X128654580Y-37638094D02*
X128702200Y-37590475D01*
X128702200Y-37590475D02*
X128749819Y-37495237D01*
X128749819Y-37495237D02*
X128749819Y-37304761D01*
X128749819Y-37304761D02*
X128702200Y-37209523D01*
X128702200Y-37209523D02*
X128654580Y-37161904D01*
X128654580Y-37161904D02*
X128559342Y-37114285D01*
X128559342Y-37114285D02*
X128368866Y-37114285D01*
X128368866Y-37114285D02*
X128273628Y-37161904D01*
X128273628Y-37161904D02*
X128226009Y-37209523D01*
X128226009Y-37209523D02*
X128178390Y-37304761D01*
X86116667Y-47757200D02*
X86259524Y-47804819D01*
X86259524Y-47804819D02*
X86497619Y-47804819D01*
X86497619Y-47804819D02*
X86592857Y-47757200D01*
X86592857Y-47757200D02*
X86640476Y-47709580D01*
X86640476Y-47709580D02*
X86688095Y-47614342D01*
X86688095Y-47614342D02*
X86688095Y-47519104D01*
X86688095Y-47519104D02*
X86640476Y-47423866D01*
X86640476Y-47423866D02*
X86592857Y-47376247D01*
X86592857Y-47376247D02*
X86497619Y-47328628D01*
X86497619Y-47328628D02*
X86307143Y-47281009D01*
X86307143Y-47281009D02*
X86211905Y-47233390D01*
X86211905Y-47233390D02*
X86164286Y-47185771D01*
X86164286Y-47185771D02*
X86116667Y-47090533D01*
X86116667Y-47090533D02*
X86116667Y-46995295D01*
X86116667Y-46995295D02*
X86164286Y-46900057D01*
X86164286Y-46900057D02*
X86211905Y-46852438D01*
X86211905Y-46852438D02*
X86307143Y-46804819D01*
X86307143Y-46804819D02*
X86545238Y-46804819D01*
X86545238Y-46804819D02*
X86688095Y-46852438D01*
X87021429Y-46804819D02*
X87259524Y-47804819D01*
X87259524Y-47804819D02*
X87450000Y-47090533D01*
X87450000Y-47090533D02*
X87640476Y-47804819D01*
X87640476Y-47804819D02*
X87878572Y-46804819D01*
X88783333Y-47804819D02*
X88211905Y-47804819D01*
X88497619Y-47804819D02*
X88497619Y-46804819D01*
X88497619Y-46804819D02*
X88402381Y-46947676D01*
X88402381Y-46947676D02*
X88307143Y-47042914D01*
X88307143Y-47042914D02*
X88211905Y-47090533D01*
X75333333Y-38054819D02*
X75000000Y-37578628D01*
X74761905Y-38054819D02*
X74761905Y-37054819D01*
X74761905Y-37054819D02*
X75142857Y-37054819D01*
X75142857Y-37054819D02*
X75238095Y-37102438D01*
X75238095Y-37102438D02*
X75285714Y-37150057D01*
X75285714Y-37150057D02*
X75333333Y-37245295D01*
X75333333Y-37245295D02*
X75333333Y-37388152D01*
X75333333Y-37388152D02*
X75285714Y-37483390D01*
X75285714Y-37483390D02*
X75238095Y-37531009D01*
X75238095Y-37531009D02*
X75142857Y-37578628D01*
X75142857Y-37578628D02*
X74761905Y-37578628D01*
X76285714Y-38054819D02*
X75714286Y-38054819D01*
X76000000Y-38054819D02*
X76000000Y-37054819D01*
X76000000Y-37054819D02*
X75904762Y-37197676D01*
X75904762Y-37197676D02*
X75809524Y-37292914D01*
X75809524Y-37292914D02*
X75714286Y-37340533D01*
D12*
%TO.C,X1*%
X84764000Y-40170000D02*
X84920000Y-40170000D01*
X87080000Y-40170000D02*
X87236000Y-40170000D01*
X84764484Y-40170000D02*
G75*
G02*
X84921392Y-36937665I1235516J1560000D01*
G01*
X84920000Y-39650961D02*
G75*
G02*
X84920163Y-37568870I1080000J1040961D01*
G01*
X87078608Y-36937665D02*
G75*
G02*
X87235516Y-40170000I-1078608J-1672335D01*
G01*
X87079837Y-37568870D02*
G75*
G02*
X87080000Y-39650961I-1079837J-1041130D01*
G01*
%TO.C,AND*%
X104165000Y-41642500D02*
X130835000Y-41642500D01*
X130835000Y-46357500D01*
X104165000Y-46357500D01*
X104165000Y-41642500D01*
%TO.C,X2*%
X90764000Y-40065000D02*
X90920000Y-40065000D01*
X93080000Y-40065000D02*
X93236000Y-40065000D01*
X90764484Y-40065000D02*
G75*
G02*
X90921392Y-36832665I1235516J1560000D01*
G01*
X90920000Y-39545961D02*
G75*
G02*
X90920163Y-37463870I1080000J1040961D01*
G01*
X93078608Y-36832665D02*
G75*
G02*
X93235516Y-40065000I-1078608J-1672335D01*
G01*
X93079837Y-37463870D02*
G75*
G02*
X93080000Y-39545961I-1079837J-1041130D01*
G01*
%TO.C,Y*%
X96764000Y-40065000D02*
X96920000Y-40065000D01*
X99080000Y-40065000D02*
X99236000Y-40065000D01*
X96764484Y-40065000D02*
G75*
G02*
X96921392Y-36832665I1235516J1560000D01*
G01*
X96920000Y-39545961D02*
G75*
G02*
X96920163Y-37463870I1080000J1040961D01*
G01*
X99078608Y-36832665D02*
G75*
G02*
X99235516Y-40065000I-1078608J-1672335D01*
G01*
X99079837Y-37463870D02*
G75*
G02*
X99080000Y-39545961I-1079837J-1041130D01*
G01*
%TO.C,R3*%
X72630000Y-45400000D02*
X73580000Y-45400000D01*
X73580000Y-44480000D02*
X73580000Y-46320000D01*
X73580000Y-46320000D02*
X77420000Y-46320000D01*
X77420000Y-44480000D02*
X73580000Y-44480000D01*
X77420000Y-46320000D02*
X77420000Y-44480000D01*
X78370000Y-45400000D02*
X77420000Y-45400000D01*
%TO.C,SW2*%
X93350000Y-44950000D02*
X93350000Y-49450000D01*
X95850000Y-50700000D02*
X97350000Y-50700000D01*
X97350000Y-43700000D02*
X95850000Y-43700000D01*
X99850000Y-49450000D02*
X99850000Y-44950000D01*
%TO.C,R2*%
X72630000Y-41500000D02*
X73580000Y-41500000D01*
X73580000Y-40580000D02*
X73580000Y-42420000D01*
X73580000Y-42420000D02*
X77420000Y-42420000D01*
X77420000Y-40580000D02*
X73580000Y-40580000D01*
X77420000Y-42420000D02*
X77420000Y-40580000D01*
X78370000Y-41500000D02*
X77420000Y-41500000D01*
%TO.C,74HC00*%
X50545000Y-38840000D02*
X50545000Y-40490000D01*
X50545000Y-42490000D02*
X50545000Y-44140000D01*
X50545000Y-44140000D02*
X68445000Y-44140000D01*
X68445000Y-38840000D02*
X50545000Y-38840000D01*
X68445000Y-44140000D02*
X68445000Y-38840000D01*
X50545000Y-40490000D02*
G75*
G02*
X50545000Y-42490000I0J-1000000D01*
G01*
%TO.C,XOR*%
X104165000Y-47290000D02*
X130835000Y-47290000D01*
X130835000Y-52005000D01*
X104165000Y-52005000D01*
X104165000Y-47290000D01*
%TO.C,OR*%
X104165000Y-36090000D02*
X130835000Y-36090000D01*
X130835000Y-40805000D01*
X104165000Y-40805000D01*
X104165000Y-36090000D01*
%TO.C,SW1*%
X84150000Y-44950000D02*
X84150000Y-49450000D01*
X86650000Y-50700000D02*
X88150000Y-50700000D01*
X88150000Y-43700000D02*
X86650000Y-43700000D01*
X90650000Y-49450000D02*
X90650000Y-44950000D01*
%TO.C,R1*%
X72630000Y-37600000D02*
X73580000Y-37600000D01*
X73580000Y-36680000D02*
X73580000Y-38520000D01*
X73580000Y-38520000D02*
X77420000Y-38520000D01*
X77420000Y-36680000D02*
X73580000Y-36680000D01*
X77420000Y-38520000D02*
X77420000Y-36680000D01*
X78370000Y-37600000D02*
X77420000Y-37600000D01*
%TD*%
M02*
