%TF.GenerationSoftware,KiCad,Pcbnew,(6.0.10)*%
%TF.CreationDate,2023-09-25T09:49:00+09:00*%
%TF.ProjectId,simpleLogicCircuit,73696d70-6c65-44c6-9f67-696343697263,rev?*%
%TF.SameCoordinates,Original*%
%TF.FileFunction,Soldermask,Top*%
%TF.FilePolarity,Negative*%
%FSLAX46Y46*%
G04 Gerber Fmt 4.6, Leading zero omitted, Abs format (unit mm)*
G04 Created by KiCad (PCBNEW (6.0.10)) date 2023-09-25 09:49:00*
%MOMM*%
%LPD*%
G01*
G04 APERTURE LIST*
G04 Aperture macros list*
%AMRoundRect*
0 Rectangle with rounded corners*
0 $1 Rounding radius*
0 $2 $3 $4 $5 $6 $7 $8 $9 X,Y pos of 4 corners*
0 Add a 4 corners polygon primitive as box body*
4,1,4,$2,$3,$4,$5,$6,$7,$8,$9,$2,$3,0*
0 Add four circle primitives for the rounded corners*
1,1,$1+$1,$2,$3*
1,1,$1+$1,$4,$5*
1,1,$1+$1,$6,$7*
1,1,$1+$1,$8,$9*
0 Add four rect primitives between the rounded corners*
20,1,$1+$1,$2,$3,$4,$5,0*
20,1,$1+$1,$4,$5,$6,$7,0*
20,1,$1+$1,$6,$7,$8,$9,0*
20,1,$1+$1,$8,$9,$2,$3,0*%
G04 Aperture macros list end*
%ADD10C,0.300000*%
%ADD11RoundRect,0.225000X-0.225000X-0.918000X0.225000X-0.918000X0.225000X0.918000X-0.225000X0.918000X0*%
%ADD12C,1.800000*%
%ADD13R,1.800000X1.800000*%
%ADD14O,1.400000X1.400000*%
%ADD15C,1.400000*%
%ADD16C,2.000000*%
%ADD17O,1.600000X1.600000*%
%ADD18R,1.600000X1.600000*%
%ADD19RoundRect,0.050000X-0.050000X-1.450000X0.050000X-1.450000X0.050000X1.450000X-0.050000X1.450000X0*%
%ADD20RoundRect,0.050000X-0.050000X-1.950000X0.050000X-1.950000X0.050000X1.950000X-0.050000X1.950000X0*%
%ADD21RoundRect,0.050000X-0.050000X-2.950000X0.050000X-2.950000X0.050000X2.950000X-0.050000X2.950000X0*%
%ADD22O,2.000000X1.300000*%
%ADD23O,4.000000X9.000000*%
G04 APERTURE END LIST*
D10*
%TO.C,REF\u002A\u002A*%
X71571428Y-104678571D02*
X71571428Y-105678571D01*
X71214285Y-104107142D02*
X70857142Y-105178571D01*
X71785714Y-105178571D01*
X72642857Y-104178571D02*
X72785714Y-104178571D01*
X72928571Y-104250000D01*
X73000000Y-104321428D01*
X73071428Y-104464285D01*
X73142857Y-104750000D01*
X73142857Y-105107142D01*
X73071428Y-105392857D01*
X73000000Y-105535714D01*
X72928571Y-105607142D01*
X72785714Y-105678571D01*
X72642857Y-105678571D01*
X72500000Y-105607142D01*
X72428571Y-105535714D01*
X72357142Y-105392857D01*
X72285714Y-105107142D01*
X72285714Y-104750000D01*
X72357142Y-104464285D01*
X72428571Y-104321428D01*
X72500000Y-104250000D01*
X72642857Y-104178571D01*
X81642857Y-104178571D02*
X80928571Y-104178571D01*
X80857142Y-104892857D01*
X80928571Y-104821428D01*
X81071428Y-104750000D01*
X81428571Y-104750000D01*
X81571428Y-104821428D01*
X81642857Y-104892857D01*
X81714285Y-105035714D01*
X81714285Y-105392857D01*
X81642857Y-105535714D01*
X81571428Y-105607142D01*
X81428571Y-105678571D01*
X81071428Y-105678571D01*
X80928571Y-105607142D01*
X80857142Y-105535714D01*
X82642857Y-104178571D02*
X82785714Y-104178571D01*
X82928571Y-104250000D01*
X83000000Y-104321428D01*
X83071428Y-104464285D01*
X83142857Y-104750000D01*
X83142857Y-105107142D01*
X83071428Y-105392857D01*
X83000000Y-105535714D01*
X82928571Y-105607142D01*
X82785714Y-105678571D01*
X82642857Y-105678571D01*
X82500000Y-105607142D01*
X82428571Y-105535714D01*
X82357142Y-105392857D01*
X82285714Y-105107142D01*
X82285714Y-104750000D01*
X82357142Y-104464285D01*
X82428571Y-104321428D01*
X82500000Y-104250000D01*
X82642857Y-104178571D01*
X91571428Y-104178571D02*
X91285714Y-104178571D01*
X91142857Y-104250000D01*
X91071428Y-104321428D01*
X90928571Y-104535714D01*
X90857142Y-104821428D01*
X90857142Y-105392857D01*
X90928571Y-105535714D01*
X91000000Y-105607142D01*
X91142857Y-105678571D01*
X91428571Y-105678571D01*
X91571428Y-105607142D01*
X91642857Y-105535714D01*
X91714285Y-105392857D01*
X91714285Y-105035714D01*
X91642857Y-104892857D01*
X91571428Y-104821428D01*
X91428571Y-104750000D01*
X91142857Y-104750000D01*
X91000000Y-104821428D01*
X90928571Y-104892857D01*
X90857142Y-105035714D01*
X92642857Y-104178571D02*
X92785714Y-104178571D01*
X92928571Y-104250000D01*
X93000000Y-104321428D01*
X93071428Y-104464285D01*
X93142857Y-104750000D01*
X93142857Y-105107142D01*
X93071428Y-105392857D01*
X93000000Y-105535714D01*
X92928571Y-105607142D01*
X92785714Y-105678571D01*
X92642857Y-105678571D01*
X92500000Y-105607142D01*
X92428571Y-105535714D01*
X92357142Y-105392857D01*
X92285714Y-105107142D01*
X92285714Y-104750000D01*
X92357142Y-104464285D01*
X92428571Y-104321428D01*
X92500000Y-104250000D01*
X92642857Y-104178571D01*
X100785714Y-104178571D02*
X101785714Y-104178571D01*
X101142857Y-105678571D01*
X102642857Y-104178571D02*
X102785714Y-104178571D01*
X102928571Y-104250000D01*
X103000000Y-104321428D01*
X103071428Y-104464285D01*
X103142857Y-104750000D01*
X103142857Y-105107142D01*
X103071428Y-105392857D01*
X103000000Y-105535714D01*
X102928571Y-105607142D01*
X102785714Y-105678571D01*
X102642857Y-105678571D01*
X102500000Y-105607142D01*
X102428571Y-105535714D01*
X102357142Y-105392857D01*
X102285714Y-105107142D01*
X102285714Y-104750000D01*
X102357142Y-104464285D01*
X102428571Y-104321428D01*
X102500000Y-104250000D01*
X102642857Y-104178571D01*
X41714285Y-105678571D02*
X40857142Y-105678571D01*
X41285714Y-105678571D02*
X41285714Y-104178571D01*
X41142857Y-104392857D01*
X41000000Y-104535714D01*
X40857142Y-104607142D01*
X42642857Y-104178571D02*
X42785714Y-104178571D01*
X42928571Y-104250000D01*
X43000000Y-104321428D01*
X43071428Y-104464285D01*
X43142857Y-104750000D01*
X43142857Y-105107142D01*
X43071428Y-105392857D01*
X43000000Y-105535714D01*
X42928571Y-105607142D01*
X42785714Y-105678571D01*
X42642857Y-105678571D01*
X42500000Y-105607142D01*
X42428571Y-105535714D01*
X42357142Y-105392857D01*
X42285714Y-105107142D01*
X42285714Y-104750000D01*
X42357142Y-104464285D01*
X42428571Y-104321428D01*
X42500000Y-104250000D01*
X42642857Y-104178571D01*
X121000000Y-105678571D02*
X121285714Y-105678571D01*
X121428571Y-105607142D01*
X121500000Y-105535714D01*
X121642857Y-105321428D01*
X121714285Y-105035714D01*
X121714285Y-104464285D01*
X121642857Y-104321428D01*
X121571428Y-104250000D01*
X121428571Y-104178571D01*
X121142857Y-104178571D01*
X121000000Y-104250000D01*
X120928571Y-104321428D01*
X120857142Y-104464285D01*
X120857142Y-104821428D01*
X120928571Y-104964285D01*
X121000000Y-105035714D01*
X121142857Y-105107142D01*
X121428571Y-105107142D01*
X121571428Y-105035714D01*
X121642857Y-104964285D01*
X121714285Y-104821428D01*
X122642857Y-104178571D02*
X122785714Y-104178571D01*
X122928571Y-104250000D01*
X123000000Y-104321428D01*
X123071428Y-104464285D01*
X123142857Y-104750000D01*
X123142857Y-105107142D01*
X123071428Y-105392857D01*
X123000000Y-105535714D01*
X122928571Y-105607142D01*
X122785714Y-105678571D01*
X122642857Y-105678571D01*
X122500000Y-105607142D01*
X122428571Y-105535714D01*
X122357142Y-105392857D01*
X122285714Y-105107142D01*
X122285714Y-104750000D01*
X122357142Y-104464285D01*
X122428571Y-104321428D01*
X122500000Y-104250000D01*
X122642857Y-104178571D01*
X111142857Y-104821428D02*
X111000000Y-104750000D01*
X110928571Y-104678571D01*
X110857142Y-104535714D01*
X110857142Y-104464285D01*
X110928571Y-104321428D01*
X111000000Y-104250000D01*
X111142857Y-104178571D01*
X111428571Y-104178571D01*
X111571428Y-104250000D01*
X111642857Y-104321428D01*
X111714285Y-104464285D01*
X111714285Y-104535714D01*
X111642857Y-104678571D01*
X111571428Y-104750000D01*
X111428571Y-104821428D01*
X111142857Y-104821428D01*
X111000000Y-104892857D01*
X110928571Y-104964285D01*
X110857142Y-105107142D01*
X110857142Y-105392857D01*
X110928571Y-105535714D01*
X111000000Y-105607142D01*
X111142857Y-105678571D01*
X111428571Y-105678571D01*
X111571428Y-105607142D01*
X111642857Y-105535714D01*
X111714285Y-105392857D01*
X111714285Y-105107142D01*
X111642857Y-104964285D01*
X111571428Y-104892857D01*
X111428571Y-104821428D01*
X112642857Y-104178571D02*
X112785714Y-104178571D01*
X112928571Y-104250000D01*
X113000000Y-104321428D01*
X113071428Y-104464285D01*
X113142857Y-104750000D01*
X113142857Y-105107142D01*
X113071428Y-105392857D01*
X113000000Y-105535714D01*
X112928571Y-105607142D01*
X112785714Y-105678571D01*
X112642857Y-105678571D01*
X112500000Y-105607142D01*
X112428571Y-105535714D01*
X112357142Y-105392857D01*
X112285714Y-105107142D01*
X112285714Y-104750000D01*
X112357142Y-104464285D01*
X112428571Y-104321428D01*
X112500000Y-104250000D01*
X112642857Y-104178571D01*
X60785714Y-104178571D02*
X61714285Y-104178571D01*
X61214285Y-104750000D01*
X61428571Y-104750000D01*
X61571428Y-104821428D01*
X61642857Y-104892857D01*
X61714285Y-105035714D01*
X61714285Y-105392857D01*
X61642857Y-105535714D01*
X61571428Y-105607142D01*
X61428571Y-105678571D01*
X61000000Y-105678571D01*
X60857142Y-105607142D01*
X60785714Y-105535714D01*
X62642857Y-104178571D02*
X62785714Y-104178571D01*
X62928571Y-104250000D01*
X63000000Y-104321428D01*
X63071428Y-104464285D01*
X63142857Y-104750000D01*
X63142857Y-105107142D01*
X63071428Y-105392857D01*
X63000000Y-105535714D01*
X62928571Y-105607142D01*
X62785714Y-105678571D01*
X62642857Y-105678571D01*
X62500000Y-105607142D01*
X62428571Y-105535714D01*
X62357142Y-105392857D01*
X62285714Y-105107142D01*
X62285714Y-104750000D01*
X62357142Y-104464285D01*
X62428571Y-104321428D01*
X62500000Y-104250000D01*
X62642857Y-104178571D01*
X50857142Y-104321428D02*
X50928571Y-104250000D01*
X51071428Y-104178571D01*
X51428571Y-104178571D01*
X51571428Y-104250000D01*
X51642857Y-104321428D01*
X51714285Y-104464285D01*
X51714285Y-104607142D01*
X51642857Y-104821428D01*
X50785714Y-105678571D01*
X51714285Y-105678571D01*
X52642857Y-104178571D02*
X52785714Y-104178571D01*
X52928571Y-104250000D01*
X53000000Y-104321428D01*
X53071428Y-104464285D01*
X53142857Y-104750000D01*
X53142857Y-105107142D01*
X53071428Y-105392857D01*
X53000000Y-105535714D01*
X52928571Y-105607142D01*
X52785714Y-105678571D01*
X52642857Y-105678571D01*
X52500000Y-105607142D01*
X52428571Y-105535714D01*
X52357142Y-105392857D01*
X52285714Y-105107142D01*
X52285714Y-104750000D01*
X52357142Y-104464285D01*
X52428571Y-104321428D01*
X52500000Y-104250000D01*
X52642857Y-104178571D01*
X71571428Y-74678571D02*
X71571428Y-75678571D01*
X71214285Y-74107142D02*
X70857142Y-75178571D01*
X71785714Y-75178571D01*
X72642857Y-74178571D02*
X72785714Y-74178571D01*
X72928571Y-74250000D01*
X73000000Y-74321428D01*
X73071428Y-74464285D01*
X73142857Y-74750000D01*
X73142857Y-75107142D01*
X73071428Y-75392857D01*
X73000000Y-75535714D01*
X72928571Y-75607142D01*
X72785714Y-75678571D01*
X72642857Y-75678571D01*
X72500000Y-75607142D01*
X72428571Y-75535714D01*
X72357142Y-75392857D01*
X72285714Y-75107142D01*
X72285714Y-74750000D01*
X72357142Y-74464285D01*
X72428571Y-74321428D01*
X72500000Y-74250000D01*
X72642857Y-74178571D01*
X81642857Y-74178571D02*
X80928571Y-74178571D01*
X80857142Y-74892857D01*
X80928571Y-74821428D01*
X81071428Y-74750000D01*
X81428571Y-74750000D01*
X81571428Y-74821428D01*
X81642857Y-74892857D01*
X81714285Y-75035714D01*
X81714285Y-75392857D01*
X81642857Y-75535714D01*
X81571428Y-75607142D01*
X81428571Y-75678571D01*
X81071428Y-75678571D01*
X80928571Y-75607142D01*
X80857142Y-75535714D01*
X82642857Y-74178571D02*
X82785714Y-74178571D01*
X82928571Y-74250000D01*
X83000000Y-74321428D01*
X83071428Y-74464285D01*
X83142857Y-74750000D01*
X83142857Y-75107142D01*
X83071428Y-75392857D01*
X83000000Y-75535714D01*
X82928571Y-75607142D01*
X82785714Y-75678571D01*
X82642857Y-75678571D01*
X82500000Y-75607142D01*
X82428571Y-75535714D01*
X82357142Y-75392857D01*
X82285714Y-75107142D01*
X82285714Y-74750000D01*
X82357142Y-74464285D01*
X82428571Y-74321428D01*
X82500000Y-74250000D01*
X82642857Y-74178571D01*
X91571428Y-74178571D02*
X91285714Y-74178571D01*
X91142857Y-74250000D01*
X91071428Y-74321428D01*
X90928571Y-74535714D01*
X90857142Y-74821428D01*
X90857142Y-75392857D01*
X90928571Y-75535714D01*
X91000000Y-75607142D01*
X91142857Y-75678571D01*
X91428571Y-75678571D01*
X91571428Y-75607142D01*
X91642857Y-75535714D01*
X91714285Y-75392857D01*
X91714285Y-75035714D01*
X91642857Y-74892857D01*
X91571428Y-74821428D01*
X91428571Y-74750000D01*
X91142857Y-74750000D01*
X91000000Y-74821428D01*
X90928571Y-74892857D01*
X90857142Y-75035714D01*
X92642857Y-74178571D02*
X92785714Y-74178571D01*
X92928571Y-74250000D01*
X93000000Y-74321428D01*
X93071428Y-74464285D01*
X93142857Y-74750000D01*
X93142857Y-75107142D01*
X93071428Y-75392857D01*
X93000000Y-75535714D01*
X92928571Y-75607142D01*
X92785714Y-75678571D01*
X92642857Y-75678571D01*
X92500000Y-75607142D01*
X92428571Y-75535714D01*
X92357142Y-75392857D01*
X92285714Y-75107142D01*
X92285714Y-74750000D01*
X92357142Y-74464285D01*
X92428571Y-74321428D01*
X92500000Y-74250000D01*
X92642857Y-74178571D01*
X100785714Y-74178571D02*
X101785714Y-74178571D01*
X101142857Y-75678571D01*
X102642857Y-74178571D02*
X102785714Y-74178571D01*
X102928571Y-74250000D01*
X103000000Y-74321428D01*
X103071428Y-74464285D01*
X103142857Y-74750000D01*
X103142857Y-75107142D01*
X103071428Y-75392857D01*
X103000000Y-75535714D01*
X102928571Y-75607142D01*
X102785714Y-75678571D01*
X102642857Y-75678571D01*
X102500000Y-75607142D01*
X102428571Y-75535714D01*
X102357142Y-75392857D01*
X102285714Y-75107142D01*
X102285714Y-74750000D01*
X102357142Y-74464285D01*
X102428571Y-74321428D01*
X102500000Y-74250000D01*
X102642857Y-74178571D01*
X41714285Y-75678571D02*
X40857142Y-75678571D01*
X41285714Y-75678571D02*
X41285714Y-74178571D01*
X41142857Y-74392857D01*
X41000000Y-74535714D01*
X40857142Y-74607142D01*
X42642857Y-74178571D02*
X42785714Y-74178571D01*
X42928571Y-74250000D01*
X43000000Y-74321428D01*
X43071428Y-74464285D01*
X43142857Y-74750000D01*
X43142857Y-75107142D01*
X43071428Y-75392857D01*
X43000000Y-75535714D01*
X42928571Y-75607142D01*
X42785714Y-75678571D01*
X42642857Y-75678571D01*
X42500000Y-75607142D01*
X42428571Y-75535714D01*
X42357142Y-75392857D01*
X42285714Y-75107142D01*
X42285714Y-74750000D01*
X42357142Y-74464285D01*
X42428571Y-74321428D01*
X42500000Y-74250000D01*
X42642857Y-74178571D01*
X121000000Y-75678571D02*
X121285714Y-75678571D01*
X121428571Y-75607142D01*
X121500000Y-75535714D01*
X121642857Y-75321428D01*
X121714285Y-75035714D01*
X121714285Y-74464285D01*
X121642857Y-74321428D01*
X121571428Y-74250000D01*
X121428571Y-74178571D01*
X121142857Y-74178571D01*
X121000000Y-74250000D01*
X120928571Y-74321428D01*
X120857142Y-74464285D01*
X120857142Y-74821428D01*
X120928571Y-74964285D01*
X121000000Y-75035714D01*
X121142857Y-75107142D01*
X121428571Y-75107142D01*
X121571428Y-75035714D01*
X121642857Y-74964285D01*
X121714285Y-74821428D01*
X122642857Y-74178571D02*
X122785714Y-74178571D01*
X122928571Y-74250000D01*
X123000000Y-74321428D01*
X123071428Y-74464285D01*
X123142857Y-74750000D01*
X123142857Y-75107142D01*
X123071428Y-75392857D01*
X123000000Y-75535714D01*
X122928571Y-75607142D01*
X122785714Y-75678571D01*
X122642857Y-75678571D01*
X122500000Y-75607142D01*
X122428571Y-75535714D01*
X122357142Y-75392857D01*
X122285714Y-75107142D01*
X122285714Y-74750000D01*
X122357142Y-74464285D01*
X122428571Y-74321428D01*
X122500000Y-74250000D01*
X122642857Y-74178571D01*
X111142857Y-74821428D02*
X111000000Y-74750000D01*
X110928571Y-74678571D01*
X110857142Y-74535714D01*
X110857142Y-74464285D01*
X110928571Y-74321428D01*
X111000000Y-74250000D01*
X111142857Y-74178571D01*
X111428571Y-74178571D01*
X111571428Y-74250000D01*
X111642857Y-74321428D01*
X111714285Y-74464285D01*
X111714285Y-74535714D01*
X111642857Y-74678571D01*
X111571428Y-74750000D01*
X111428571Y-74821428D01*
X111142857Y-74821428D01*
X111000000Y-74892857D01*
X110928571Y-74964285D01*
X110857142Y-75107142D01*
X110857142Y-75392857D01*
X110928571Y-75535714D01*
X111000000Y-75607142D01*
X111142857Y-75678571D01*
X111428571Y-75678571D01*
X111571428Y-75607142D01*
X111642857Y-75535714D01*
X111714285Y-75392857D01*
X111714285Y-75107142D01*
X111642857Y-74964285D01*
X111571428Y-74892857D01*
X111428571Y-74821428D01*
X112642857Y-74178571D02*
X112785714Y-74178571D01*
X112928571Y-74250000D01*
X113000000Y-74321428D01*
X113071428Y-74464285D01*
X113142857Y-74750000D01*
X113142857Y-75107142D01*
X113071428Y-75392857D01*
X113000000Y-75535714D01*
X112928571Y-75607142D01*
X112785714Y-75678571D01*
X112642857Y-75678571D01*
X112500000Y-75607142D01*
X112428571Y-75535714D01*
X112357142Y-75392857D01*
X112285714Y-75107142D01*
X112285714Y-74750000D01*
X112357142Y-74464285D01*
X112428571Y-74321428D01*
X112500000Y-74250000D01*
X112642857Y-74178571D01*
X60785714Y-74178571D02*
X61714285Y-74178571D01*
X61214285Y-74750000D01*
X61428571Y-74750000D01*
X61571428Y-74821428D01*
X61642857Y-74892857D01*
X61714285Y-75035714D01*
X61714285Y-75392857D01*
X61642857Y-75535714D01*
X61571428Y-75607142D01*
X61428571Y-75678571D01*
X61000000Y-75678571D01*
X60857142Y-75607142D01*
X60785714Y-75535714D01*
X62642857Y-74178571D02*
X62785714Y-74178571D01*
X62928571Y-74250000D01*
X63000000Y-74321428D01*
X63071428Y-74464285D01*
X63142857Y-74750000D01*
X63142857Y-75107142D01*
X63071428Y-75392857D01*
X63000000Y-75535714D01*
X62928571Y-75607142D01*
X62785714Y-75678571D01*
X62642857Y-75678571D01*
X62500000Y-75607142D01*
X62428571Y-75535714D01*
X62357142Y-75392857D01*
X62285714Y-75107142D01*
X62285714Y-74750000D01*
X62357142Y-74464285D01*
X62428571Y-74321428D01*
X62500000Y-74250000D01*
X62642857Y-74178571D01*
X50857142Y-74321428D02*
X50928571Y-74250000D01*
X51071428Y-74178571D01*
X51428571Y-74178571D01*
X51571428Y-74250000D01*
X51642857Y-74321428D01*
X51714285Y-74464285D01*
X51714285Y-74607142D01*
X51642857Y-74821428D01*
X50785714Y-75678571D01*
X51714285Y-75678571D01*
X52642857Y-74178571D02*
X52785714Y-74178571D01*
X52928571Y-74250000D01*
X53000000Y-74321428D01*
X53071428Y-74464285D01*
X53142857Y-74750000D01*
X53142857Y-75107142D01*
X53071428Y-75392857D01*
X53000000Y-75535714D01*
X52928571Y-75607142D01*
X52785714Y-75678571D01*
X52642857Y-75678571D01*
X52500000Y-75607142D01*
X52428571Y-75535714D01*
X52357142Y-75392857D01*
X52285714Y-75107142D01*
X52285714Y-74750000D01*
X52357142Y-74464285D01*
X52428571Y-74321428D01*
X52500000Y-74250000D01*
X52642857Y-74178571D01*
X71571428Y-44678571D02*
X71571428Y-45678571D01*
X71214285Y-44107142D02*
X70857142Y-45178571D01*
X71785714Y-45178571D01*
X72642857Y-44178571D02*
X72785714Y-44178571D01*
X72928571Y-44250000D01*
X73000000Y-44321428D01*
X73071428Y-44464285D01*
X73142857Y-44750000D01*
X73142857Y-45107142D01*
X73071428Y-45392857D01*
X73000000Y-45535714D01*
X72928571Y-45607142D01*
X72785714Y-45678571D01*
X72642857Y-45678571D01*
X72500000Y-45607142D01*
X72428571Y-45535714D01*
X72357142Y-45392857D01*
X72285714Y-45107142D01*
X72285714Y-44750000D01*
X72357142Y-44464285D01*
X72428571Y-44321428D01*
X72500000Y-44250000D01*
X72642857Y-44178571D01*
X81642857Y-44178571D02*
X80928571Y-44178571D01*
X80857142Y-44892857D01*
X80928571Y-44821428D01*
X81071428Y-44750000D01*
X81428571Y-44750000D01*
X81571428Y-44821428D01*
X81642857Y-44892857D01*
X81714285Y-45035714D01*
X81714285Y-45392857D01*
X81642857Y-45535714D01*
X81571428Y-45607142D01*
X81428571Y-45678571D01*
X81071428Y-45678571D01*
X80928571Y-45607142D01*
X80857142Y-45535714D01*
X82642857Y-44178571D02*
X82785714Y-44178571D01*
X82928571Y-44250000D01*
X83000000Y-44321428D01*
X83071428Y-44464285D01*
X83142857Y-44750000D01*
X83142857Y-45107142D01*
X83071428Y-45392857D01*
X83000000Y-45535714D01*
X82928571Y-45607142D01*
X82785714Y-45678571D01*
X82642857Y-45678571D01*
X82500000Y-45607142D01*
X82428571Y-45535714D01*
X82357142Y-45392857D01*
X82285714Y-45107142D01*
X82285714Y-44750000D01*
X82357142Y-44464285D01*
X82428571Y-44321428D01*
X82500000Y-44250000D01*
X82642857Y-44178571D01*
X91571428Y-44178571D02*
X91285714Y-44178571D01*
X91142857Y-44250000D01*
X91071428Y-44321428D01*
X90928571Y-44535714D01*
X90857142Y-44821428D01*
X90857142Y-45392857D01*
X90928571Y-45535714D01*
X91000000Y-45607142D01*
X91142857Y-45678571D01*
X91428571Y-45678571D01*
X91571428Y-45607142D01*
X91642857Y-45535714D01*
X91714285Y-45392857D01*
X91714285Y-45035714D01*
X91642857Y-44892857D01*
X91571428Y-44821428D01*
X91428571Y-44750000D01*
X91142857Y-44750000D01*
X91000000Y-44821428D01*
X90928571Y-44892857D01*
X90857142Y-45035714D01*
X92642857Y-44178571D02*
X92785714Y-44178571D01*
X92928571Y-44250000D01*
X93000000Y-44321428D01*
X93071428Y-44464285D01*
X93142857Y-44750000D01*
X93142857Y-45107142D01*
X93071428Y-45392857D01*
X93000000Y-45535714D01*
X92928571Y-45607142D01*
X92785714Y-45678571D01*
X92642857Y-45678571D01*
X92500000Y-45607142D01*
X92428571Y-45535714D01*
X92357142Y-45392857D01*
X92285714Y-45107142D01*
X92285714Y-44750000D01*
X92357142Y-44464285D01*
X92428571Y-44321428D01*
X92500000Y-44250000D01*
X92642857Y-44178571D01*
X100785714Y-44178571D02*
X101785714Y-44178571D01*
X101142857Y-45678571D01*
X102642857Y-44178571D02*
X102785714Y-44178571D01*
X102928571Y-44250000D01*
X103000000Y-44321428D01*
X103071428Y-44464285D01*
X103142857Y-44750000D01*
X103142857Y-45107142D01*
X103071428Y-45392857D01*
X103000000Y-45535714D01*
X102928571Y-45607142D01*
X102785714Y-45678571D01*
X102642857Y-45678571D01*
X102500000Y-45607142D01*
X102428571Y-45535714D01*
X102357142Y-45392857D01*
X102285714Y-45107142D01*
X102285714Y-44750000D01*
X102357142Y-44464285D01*
X102428571Y-44321428D01*
X102500000Y-44250000D01*
X102642857Y-44178571D01*
X41714285Y-45678571D02*
X40857142Y-45678571D01*
X41285714Y-45678571D02*
X41285714Y-44178571D01*
X41142857Y-44392857D01*
X41000000Y-44535714D01*
X40857142Y-44607142D01*
X42642857Y-44178571D02*
X42785714Y-44178571D01*
X42928571Y-44250000D01*
X43000000Y-44321428D01*
X43071428Y-44464285D01*
X43142857Y-44750000D01*
X43142857Y-45107142D01*
X43071428Y-45392857D01*
X43000000Y-45535714D01*
X42928571Y-45607142D01*
X42785714Y-45678571D01*
X42642857Y-45678571D01*
X42500000Y-45607142D01*
X42428571Y-45535714D01*
X42357142Y-45392857D01*
X42285714Y-45107142D01*
X42285714Y-44750000D01*
X42357142Y-44464285D01*
X42428571Y-44321428D01*
X42500000Y-44250000D01*
X42642857Y-44178571D01*
X121000000Y-45678571D02*
X121285714Y-45678571D01*
X121428571Y-45607142D01*
X121500000Y-45535714D01*
X121642857Y-45321428D01*
X121714285Y-45035714D01*
X121714285Y-44464285D01*
X121642857Y-44321428D01*
X121571428Y-44250000D01*
X121428571Y-44178571D01*
X121142857Y-44178571D01*
X121000000Y-44250000D01*
X120928571Y-44321428D01*
X120857142Y-44464285D01*
X120857142Y-44821428D01*
X120928571Y-44964285D01*
X121000000Y-45035714D01*
X121142857Y-45107142D01*
X121428571Y-45107142D01*
X121571428Y-45035714D01*
X121642857Y-44964285D01*
X121714285Y-44821428D01*
X122642857Y-44178571D02*
X122785714Y-44178571D01*
X122928571Y-44250000D01*
X123000000Y-44321428D01*
X123071428Y-44464285D01*
X123142857Y-44750000D01*
X123142857Y-45107142D01*
X123071428Y-45392857D01*
X123000000Y-45535714D01*
X122928571Y-45607142D01*
X122785714Y-45678571D01*
X122642857Y-45678571D01*
X122500000Y-45607142D01*
X122428571Y-45535714D01*
X122357142Y-45392857D01*
X122285714Y-45107142D01*
X122285714Y-44750000D01*
X122357142Y-44464285D01*
X122428571Y-44321428D01*
X122500000Y-44250000D01*
X122642857Y-44178571D01*
X111142857Y-44821428D02*
X111000000Y-44750000D01*
X110928571Y-44678571D01*
X110857142Y-44535714D01*
X110857142Y-44464285D01*
X110928571Y-44321428D01*
X111000000Y-44250000D01*
X111142857Y-44178571D01*
X111428571Y-44178571D01*
X111571428Y-44250000D01*
X111642857Y-44321428D01*
X111714285Y-44464285D01*
X111714285Y-44535714D01*
X111642857Y-44678571D01*
X111571428Y-44750000D01*
X111428571Y-44821428D01*
X111142857Y-44821428D01*
X111000000Y-44892857D01*
X110928571Y-44964285D01*
X110857142Y-45107142D01*
X110857142Y-45392857D01*
X110928571Y-45535714D01*
X111000000Y-45607142D01*
X111142857Y-45678571D01*
X111428571Y-45678571D01*
X111571428Y-45607142D01*
X111642857Y-45535714D01*
X111714285Y-45392857D01*
X111714285Y-45107142D01*
X111642857Y-44964285D01*
X111571428Y-44892857D01*
X111428571Y-44821428D01*
X112642857Y-44178571D02*
X112785714Y-44178571D01*
X112928571Y-44250000D01*
X113000000Y-44321428D01*
X113071428Y-44464285D01*
X113142857Y-44750000D01*
X113142857Y-45107142D01*
X113071428Y-45392857D01*
X113000000Y-45535714D01*
X112928571Y-45607142D01*
X112785714Y-45678571D01*
X112642857Y-45678571D01*
X112500000Y-45607142D01*
X112428571Y-45535714D01*
X112357142Y-45392857D01*
X112285714Y-45107142D01*
X112285714Y-44750000D01*
X112357142Y-44464285D01*
X112428571Y-44321428D01*
X112500000Y-44250000D01*
X112642857Y-44178571D01*
X60785714Y-44178571D02*
X61714285Y-44178571D01*
X61214285Y-44750000D01*
X61428571Y-44750000D01*
X61571428Y-44821428D01*
X61642857Y-44892857D01*
X61714285Y-45035714D01*
X61714285Y-45392857D01*
X61642857Y-45535714D01*
X61571428Y-45607142D01*
X61428571Y-45678571D01*
X61000000Y-45678571D01*
X60857142Y-45607142D01*
X60785714Y-45535714D01*
X62642857Y-44178571D02*
X62785714Y-44178571D01*
X62928571Y-44250000D01*
X63000000Y-44321428D01*
X63071428Y-44464285D01*
X63142857Y-44750000D01*
X63142857Y-45107142D01*
X63071428Y-45392857D01*
X63000000Y-45535714D01*
X62928571Y-45607142D01*
X62785714Y-45678571D01*
X62642857Y-45678571D01*
X62500000Y-45607142D01*
X62428571Y-45535714D01*
X62357142Y-45392857D01*
X62285714Y-45107142D01*
X62285714Y-44750000D01*
X62357142Y-44464285D01*
X62428571Y-44321428D01*
X62500000Y-44250000D01*
X62642857Y-44178571D01*
X50857142Y-44321428D02*
X50928571Y-44250000D01*
X51071428Y-44178571D01*
X51428571Y-44178571D01*
X51571428Y-44250000D01*
X51642857Y-44321428D01*
X51714285Y-44464285D01*
X51714285Y-44607142D01*
X51642857Y-44821428D01*
X50785714Y-45678571D01*
X51714285Y-45678571D01*
X52642857Y-44178571D02*
X52785714Y-44178571D01*
X52928571Y-44250000D01*
X53000000Y-44321428D01*
X53071428Y-44464285D01*
X53142857Y-44750000D01*
X53142857Y-45107142D01*
X53071428Y-45392857D01*
X53000000Y-45535714D01*
X52928571Y-45607142D01*
X52785714Y-45678571D01*
X52642857Y-45678571D01*
X52500000Y-45607142D01*
X52428571Y-45535714D01*
X52357142Y-45392857D01*
X52285714Y-45107142D01*
X52285714Y-44750000D01*
X52357142Y-44464285D01*
X52428571Y-44321428D01*
X52500000Y-44250000D01*
X52642857Y-44178571D01*
%TD*%
D11*
%TO.C,AND*%
X123065000Y-110452500D03*
X121795000Y-110452500D03*
X111635000Y-110452500D03*
X110365000Y-110452500D03*
X109095000Y-110452500D03*
X105285000Y-110452500D03*
X104015000Y-110452500D03*
X100205000Y-110452500D03*
X98935000Y-110452500D03*
%TD*%
D12*
%TO.C,X1*%
X78400000Y-108735000D03*
D13*
X78400000Y-111275000D03*
%TD*%
D14*
%TO.C,R1*%
X65790000Y-108500000D03*
D15*
X73410000Y-108500000D03*
%TD*%
D16*
%TO.C,SW1*%
X82250000Y-123250000D03*
X82250000Y-116750000D03*
X77750000Y-116750000D03*
X77750000Y-123250000D03*
%TD*%
D17*
%TO.C,74HC00*%
X45375000Y-112180000D03*
X47915000Y-112180000D03*
X50455000Y-112180000D03*
X52995000Y-112180000D03*
X55535000Y-112180000D03*
X58075000Y-112180000D03*
X60615000Y-112180000D03*
X60615000Y-119800000D03*
X58075000Y-119800000D03*
X55535000Y-119800000D03*
X52995000Y-119800000D03*
X50455000Y-119800000D03*
X47915000Y-119800000D03*
D18*
X45375000Y-119800000D03*
%TD*%
D14*
%TO.C,R2*%
X65780000Y-112400000D03*
D15*
X73400000Y-112400000D03*
%TD*%
D19*
%TO.C,REF\u002A\u002A*%
X131000000Y-98500000D03*
X130000000Y-98500000D03*
X129000000Y-98500000D03*
X128000000Y-98500000D03*
X126000000Y-98500000D03*
X125000000Y-98500000D03*
X124000000Y-98500000D03*
X123000000Y-98500000D03*
X121000000Y-98500000D03*
X120000000Y-98500000D03*
X119000000Y-98500000D03*
X118000000Y-98500000D03*
X116000000Y-98500000D03*
X115000000Y-98500000D03*
X114000000Y-98500000D03*
X113000000Y-98500000D03*
X111000000Y-98500000D03*
X110000000Y-98500000D03*
X109000000Y-98500000D03*
X108000000Y-98500000D03*
X106000000Y-98500000D03*
X105000000Y-98500000D03*
X104000000Y-98500000D03*
X103000000Y-98500000D03*
X101000000Y-98500000D03*
X100000000Y-98500000D03*
X99000000Y-98500000D03*
X98000000Y-98500000D03*
X96000000Y-98500000D03*
X95000000Y-98500000D03*
X94000000Y-98500000D03*
X93000000Y-98500000D03*
X91000000Y-98500000D03*
X90000000Y-98500000D03*
X89000000Y-98500000D03*
X88000000Y-98500000D03*
X86000000Y-98500000D03*
X85000000Y-98500000D03*
X84000000Y-98500000D03*
X83000000Y-98500000D03*
X81000000Y-98500000D03*
X80000000Y-98500000D03*
X79000000Y-98500000D03*
X78000000Y-98500000D03*
X76000000Y-98500000D03*
X75000000Y-98500000D03*
X74000000Y-98500000D03*
X73000000Y-98500000D03*
X71000000Y-98500000D03*
X70000000Y-98500000D03*
X69000000Y-98500000D03*
X68000000Y-98500000D03*
X66000000Y-98500000D03*
X65000000Y-98500000D03*
X64000000Y-98500000D03*
X63000000Y-98500000D03*
X61000000Y-98500000D03*
X60000000Y-98500000D03*
X59000000Y-98500000D03*
X58000000Y-98500000D03*
X56000000Y-98500000D03*
X55000000Y-98500000D03*
X54000000Y-98500000D03*
X53000000Y-98500000D03*
X51000000Y-98500000D03*
X50000000Y-98500000D03*
X49000000Y-98500000D03*
X48000000Y-98500000D03*
X46000000Y-98500000D03*
X45000000Y-98500000D03*
X44000000Y-98500000D03*
X43000000Y-98500000D03*
X41000000Y-98500000D03*
X40000000Y-98500000D03*
X39000000Y-98500000D03*
X38000000Y-98500000D03*
X33000000Y-98500000D03*
X34000000Y-98500000D03*
X35000000Y-98500000D03*
X36000000Y-98500000D03*
D20*
X127000000Y-99000000D03*
X117000000Y-99000000D03*
X107000000Y-99000000D03*
X97000000Y-99000000D03*
X87000000Y-99000000D03*
X77000000Y-99000000D03*
X67000000Y-99000000D03*
X57000000Y-99000000D03*
X47000000Y-99000000D03*
X37000000Y-99000000D03*
D21*
X122000000Y-100000000D03*
X112000000Y-100000000D03*
X102000000Y-100000000D03*
X92000000Y-100000000D03*
X82000000Y-100000000D03*
X72000000Y-100000000D03*
X62000000Y-100000000D03*
X52000000Y-100000000D03*
X42000000Y-100000000D03*
%TD*%
D14*
%TO.C,R3*%
X65790000Y-116000000D03*
D15*
X73410000Y-116000000D03*
%TD*%
D11*
%TO.C,XOR*%
X123065000Y-123452500D03*
X121795000Y-123452500D03*
X119255000Y-123452500D03*
X117985000Y-123452500D03*
X115445000Y-123452500D03*
X114175000Y-123452500D03*
X111635000Y-123452500D03*
X110365000Y-123452500D03*
X109095000Y-123452500D03*
X106555000Y-123452500D03*
X105285000Y-123452500D03*
X104015000Y-123452500D03*
X101475000Y-123452500D03*
X100205000Y-123452500D03*
X98935000Y-123452500D03*
%TD*%
D12*
%TO.C,Y*%
X91500000Y-108735000D03*
D13*
X91500000Y-111275000D03*
%TD*%
D22*
%TO.C,USB-C PWR*%
X35525000Y-120300000D03*
X35525000Y-111700000D03*
D16*
X39325000Y-117800000D03*
X39325000Y-114200000D03*
%TD*%
D11*
%TO.C,OR*%
X123065000Y-116952500D03*
X121795000Y-116952500D03*
X119255000Y-116952500D03*
X117985000Y-116952500D03*
X115445000Y-116952500D03*
X114175000Y-116952500D03*
X106555000Y-116952500D03*
X105285000Y-116952500D03*
X104015000Y-116952500D03*
X101475000Y-116952500D03*
X100205000Y-116952500D03*
X98935000Y-116952500D03*
%TD*%
D14*
%TO.C,R4*%
X65780000Y-120000000D03*
D15*
X73400000Y-120000000D03*
%TD*%
D12*
%TO.C,X2*%
X84900000Y-108735000D03*
D13*
X84900000Y-111275000D03*
%TD*%
D14*
%TO.C,R5*%
X65780000Y-123754000D03*
D15*
X73400000Y-123754000D03*
%TD*%
D16*
%TO.C,SW2*%
X92250000Y-123250000D03*
X92250000Y-116750000D03*
X87750000Y-123250000D03*
X87750000Y-116750000D03*
%TD*%
D23*
%TO.C,REF\u002A\u002A*%
X128000000Y-112000000D03*
%TD*%
D11*
%TO.C,AND*%
X123065000Y-80452500D03*
X121795000Y-80452500D03*
X111635000Y-80452500D03*
X110365000Y-80452500D03*
X109095000Y-80452500D03*
X105285000Y-80452500D03*
X104015000Y-80452500D03*
X100205000Y-80452500D03*
X98935000Y-80452500D03*
%TD*%
D12*
%TO.C,X1*%
X78400000Y-78735000D03*
D13*
X78400000Y-81275000D03*
%TD*%
D14*
%TO.C,R1*%
X65790000Y-78500000D03*
D15*
X73410000Y-78500000D03*
%TD*%
D16*
%TO.C,SW1*%
X82250000Y-93250000D03*
X82250000Y-86750000D03*
X77750000Y-86750000D03*
X77750000Y-93250000D03*
%TD*%
D17*
%TO.C,74HC00*%
X45375000Y-82180000D03*
X47915000Y-82180000D03*
X50455000Y-82180000D03*
X52995000Y-82180000D03*
X55535000Y-82180000D03*
X58075000Y-82180000D03*
X60615000Y-82180000D03*
X60615000Y-89800000D03*
X58075000Y-89800000D03*
X55535000Y-89800000D03*
X52995000Y-89800000D03*
X50455000Y-89800000D03*
X47915000Y-89800000D03*
D18*
X45375000Y-89800000D03*
%TD*%
D14*
%TO.C,R2*%
X65780000Y-82400000D03*
D15*
X73400000Y-82400000D03*
%TD*%
D19*
%TO.C,REF\u002A\u002A*%
X131000000Y-68500000D03*
X130000000Y-68500000D03*
X129000000Y-68500000D03*
X128000000Y-68500000D03*
X126000000Y-68500000D03*
X125000000Y-68500000D03*
X124000000Y-68500000D03*
X123000000Y-68500000D03*
X121000000Y-68500000D03*
X120000000Y-68500000D03*
X119000000Y-68500000D03*
X118000000Y-68500000D03*
X116000000Y-68500000D03*
X115000000Y-68500000D03*
X114000000Y-68500000D03*
X113000000Y-68500000D03*
X111000000Y-68500000D03*
X110000000Y-68500000D03*
X109000000Y-68500000D03*
X108000000Y-68500000D03*
X106000000Y-68500000D03*
X105000000Y-68500000D03*
X104000000Y-68500000D03*
X103000000Y-68500000D03*
X101000000Y-68500000D03*
X100000000Y-68500000D03*
X99000000Y-68500000D03*
X98000000Y-68500000D03*
X96000000Y-68500000D03*
X95000000Y-68500000D03*
X94000000Y-68500000D03*
X93000000Y-68500000D03*
X91000000Y-68500000D03*
X90000000Y-68500000D03*
X89000000Y-68500000D03*
X88000000Y-68500000D03*
X86000000Y-68500000D03*
X85000000Y-68500000D03*
X84000000Y-68500000D03*
X83000000Y-68500000D03*
X81000000Y-68500000D03*
X80000000Y-68500000D03*
X79000000Y-68500000D03*
X78000000Y-68500000D03*
X76000000Y-68500000D03*
X75000000Y-68500000D03*
X74000000Y-68500000D03*
X73000000Y-68500000D03*
X71000000Y-68500000D03*
X70000000Y-68500000D03*
X69000000Y-68500000D03*
X68000000Y-68500000D03*
X66000000Y-68500000D03*
X65000000Y-68500000D03*
X64000000Y-68500000D03*
X63000000Y-68500000D03*
X61000000Y-68500000D03*
X60000000Y-68500000D03*
X59000000Y-68500000D03*
X58000000Y-68500000D03*
X56000000Y-68500000D03*
X55000000Y-68500000D03*
X54000000Y-68500000D03*
X53000000Y-68500000D03*
X51000000Y-68500000D03*
X50000000Y-68500000D03*
X49000000Y-68500000D03*
X48000000Y-68500000D03*
X46000000Y-68500000D03*
X45000000Y-68500000D03*
X44000000Y-68500000D03*
X43000000Y-68500000D03*
X41000000Y-68500000D03*
X40000000Y-68500000D03*
X39000000Y-68500000D03*
X38000000Y-68500000D03*
X33000000Y-68500000D03*
X34000000Y-68500000D03*
X35000000Y-68500000D03*
X36000000Y-68500000D03*
D20*
X127000000Y-69000000D03*
X117000000Y-69000000D03*
X107000000Y-69000000D03*
X97000000Y-69000000D03*
X87000000Y-69000000D03*
X77000000Y-69000000D03*
X67000000Y-69000000D03*
X57000000Y-69000000D03*
X47000000Y-69000000D03*
X37000000Y-69000000D03*
D21*
X122000000Y-70000000D03*
X112000000Y-70000000D03*
X102000000Y-70000000D03*
X92000000Y-70000000D03*
X82000000Y-70000000D03*
X72000000Y-70000000D03*
X62000000Y-70000000D03*
X52000000Y-70000000D03*
X42000000Y-70000000D03*
%TD*%
D14*
%TO.C,R3*%
X65790000Y-86000000D03*
D15*
X73410000Y-86000000D03*
%TD*%
D11*
%TO.C,XOR*%
X123065000Y-93452500D03*
X121795000Y-93452500D03*
X119255000Y-93452500D03*
X117985000Y-93452500D03*
X115445000Y-93452500D03*
X114175000Y-93452500D03*
X111635000Y-93452500D03*
X110365000Y-93452500D03*
X109095000Y-93452500D03*
X106555000Y-93452500D03*
X105285000Y-93452500D03*
X104015000Y-93452500D03*
X101475000Y-93452500D03*
X100205000Y-93452500D03*
X98935000Y-93452500D03*
%TD*%
D12*
%TO.C,Y*%
X91500000Y-78735000D03*
D13*
X91500000Y-81275000D03*
%TD*%
D22*
%TO.C,USB-C PWR*%
X35525000Y-90300000D03*
X35525000Y-81700000D03*
D16*
X39325000Y-87800000D03*
X39325000Y-84200000D03*
%TD*%
D11*
%TO.C,OR*%
X123065000Y-86952500D03*
X121795000Y-86952500D03*
X119255000Y-86952500D03*
X117985000Y-86952500D03*
X115445000Y-86952500D03*
X114175000Y-86952500D03*
X106555000Y-86952500D03*
X105285000Y-86952500D03*
X104015000Y-86952500D03*
X101475000Y-86952500D03*
X100205000Y-86952500D03*
X98935000Y-86952500D03*
%TD*%
D14*
%TO.C,R4*%
X65780000Y-90000000D03*
D15*
X73400000Y-90000000D03*
%TD*%
D12*
%TO.C,X2*%
X84900000Y-78735000D03*
D13*
X84900000Y-81275000D03*
%TD*%
D14*
%TO.C,R5*%
X65780000Y-93754000D03*
D15*
X73400000Y-93754000D03*
%TD*%
D16*
%TO.C,SW2*%
X92250000Y-93250000D03*
X92250000Y-86750000D03*
X87750000Y-93250000D03*
X87750000Y-86750000D03*
%TD*%
D23*
%TO.C,REF\u002A\u002A*%
X128000000Y-82000000D03*
%TD*%
D22*
%TO.C,USB-C PWR*%
X35525000Y-60300000D03*
X35525000Y-51700000D03*
D16*
X39325000Y-57800000D03*
X39325000Y-54200000D03*
%TD*%
D12*
%TO.C,Y*%
X91500000Y-48735000D03*
D13*
X91500000Y-51275000D03*
%TD*%
D11*
%TO.C,OR*%
X123065000Y-56952500D03*
X121795000Y-56952500D03*
X119255000Y-56952500D03*
X117985000Y-56952500D03*
X115445000Y-56952500D03*
X114175000Y-56952500D03*
X106555000Y-56952500D03*
X105285000Y-56952500D03*
X104015000Y-56952500D03*
X101475000Y-56952500D03*
X100205000Y-56952500D03*
X98935000Y-56952500D03*
%TD*%
%TO.C,XOR*%
X123065000Y-63452500D03*
X121795000Y-63452500D03*
X119255000Y-63452500D03*
X117985000Y-63452500D03*
X115445000Y-63452500D03*
X114175000Y-63452500D03*
X111635000Y-63452500D03*
X110365000Y-63452500D03*
X109095000Y-63452500D03*
X106555000Y-63452500D03*
X105285000Y-63452500D03*
X104015000Y-63452500D03*
X101475000Y-63452500D03*
X100205000Y-63452500D03*
X98935000Y-63452500D03*
%TD*%
D14*
%TO.C,R3*%
X65790000Y-56000000D03*
D15*
X73410000Y-56000000D03*
%TD*%
D19*
%TO.C,REF\u002A\u002A*%
X131000000Y-38500000D03*
X130000000Y-38500000D03*
X129000000Y-38500000D03*
X128000000Y-38500000D03*
X126000000Y-38500000D03*
X125000000Y-38500000D03*
X124000000Y-38500000D03*
X123000000Y-38500000D03*
X121000000Y-38500000D03*
X120000000Y-38500000D03*
X119000000Y-38500000D03*
X118000000Y-38500000D03*
X116000000Y-38500000D03*
X115000000Y-38500000D03*
X114000000Y-38500000D03*
X113000000Y-38500000D03*
X111000000Y-38500000D03*
X110000000Y-38500000D03*
X109000000Y-38500000D03*
X108000000Y-38500000D03*
X106000000Y-38500000D03*
X105000000Y-38500000D03*
X104000000Y-38500000D03*
X103000000Y-38500000D03*
X101000000Y-38500000D03*
X100000000Y-38500000D03*
X99000000Y-38500000D03*
X98000000Y-38500000D03*
X96000000Y-38500000D03*
X95000000Y-38500000D03*
X94000000Y-38500000D03*
X93000000Y-38500000D03*
X91000000Y-38500000D03*
X90000000Y-38500000D03*
X89000000Y-38500000D03*
X88000000Y-38500000D03*
X86000000Y-38500000D03*
X85000000Y-38500000D03*
X84000000Y-38500000D03*
X83000000Y-38500000D03*
X81000000Y-38500000D03*
X80000000Y-38500000D03*
X79000000Y-38500000D03*
X78000000Y-38500000D03*
X76000000Y-38500000D03*
X75000000Y-38500000D03*
X74000000Y-38500000D03*
X73000000Y-38500000D03*
X71000000Y-38500000D03*
X70000000Y-38500000D03*
X69000000Y-38500000D03*
X68000000Y-38500000D03*
X66000000Y-38500000D03*
X65000000Y-38500000D03*
X64000000Y-38500000D03*
X63000000Y-38500000D03*
X61000000Y-38500000D03*
X60000000Y-38500000D03*
X59000000Y-38500000D03*
X58000000Y-38500000D03*
X56000000Y-38500000D03*
X55000000Y-38500000D03*
X54000000Y-38500000D03*
X53000000Y-38500000D03*
X51000000Y-38500000D03*
X50000000Y-38500000D03*
X49000000Y-38500000D03*
X48000000Y-38500000D03*
X46000000Y-38500000D03*
X45000000Y-38500000D03*
X44000000Y-38500000D03*
X43000000Y-38500000D03*
X41000000Y-38500000D03*
X40000000Y-38500000D03*
X39000000Y-38500000D03*
X38000000Y-38500000D03*
X33000000Y-38500000D03*
X34000000Y-38500000D03*
X35000000Y-38500000D03*
X36000000Y-38500000D03*
D20*
X127000000Y-39000000D03*
X117000000Y-39000000D03*
X107000000Y-39000000D03*
X97000000Y-39000000D03*
X87000000Y-39000000D03*
X77000000Y-39000000D03*
X67000000Y-39000000D03*
X57000000Y-39000000D03*
X47000000Y-39000000D03*
X37000000Y-39000000D03*
D21*
X122000000Y-40000000D03*
X112000000Y-40000000D03*
X102000000Y-40000000D03*
X92000000Y-40000000D03*
X82000000Y-40000000D03*
X72000000Y-40000000D03*
X62000000Y-40000000D03*
X52000000Y-40000000D03*
X42000000Y-40000000D03*
%TD*%
D14*
%TO.C,R2*%
X65780000Y-52400000D03*
D15*
X73400000Y-52400000D03*
%TD*%
D17*
%TO.C,74HC00*%
X45375000Y-52180000D03*
X47915000Y-52180000D03*
X50455000Y-52180000D03*
X52995000Y-52180000D03*
X55535000Y-52180000D03*
X58075000Y-52180000D03*
X60615000Y-52180000D03*
X60615000Y-59800000D03*
X58075000Y-59800000D03*
X55535000Y-59800000D03*
X52995000Y-59800000D03*
X50455000Y-59800000D03*
X47915000Y-59800000D03*
D18*
X45375000Y-59800000D03*
%TD*%
D16*
%TO.C,SW1*%
X82250000Y-63250000D03*
X82250000Y-56750000D03*
X77750000Y-56750000D03*
X77750000Y-63250000D03*
%TD*%
D14*
%TO.C,R1*%
X65790000Y-48500000D03*
D15*
X73410000Y-48500000D03*
%TD*%
D12*
%TO.C,X1*%
X78400000Y-48735000D03*
D13*
X78400000Y-51275000D03*
%TD*%
D11*
%TO.C,AND*%
X123065000Y-50452500D03*
X121795000Y-50452500D03*
X111635000Y-50452500D03*
X110365000Y-50452500D03*
X109095000Y-50452500D03*
X105285000Y-50452500D03*
X104015000Y-50452500D03*
X100205000Y-50452500D03*
X98935000Y-50452500D03*
%TD*%
D14*
%TO.C,R5*%
X65780000Y-63754000D03*
D15*
X73400000Y-63754000D03*
%TD*%
D23*
%TO.C,REF\u002A\u002A*%
X128000000Y-52000000D03*
%TD*%
D14*
%TO.C,R4*%
X65780000Y-60000000D03*
D15*
X73400000Y-60000000D03*
%TD*%
D12*
%TO.C,X2*%
X84900000Y-48735000D03*
D13*
X84900000Y-51275000D03*
%TD*%
D16*
%TO.C,SW2*%
X92250000Y-63250000D03*
X92250000Y-56750000D03*
X87750000Y-63250000D03*
X87750000Y-56750000D03*
%TD*%
M02*
