%TF.GenerationSoftware,KiCad,Pcbnew,(6.0.10)*%
%TF.CreationDate,2024-05-12T12:00:46+09:00*%
%TF.ProjectId,simpleLogicCircuit,73696d70-6c65-44c6-9f67-696343697263,rev?*%
%TF.SameCoordinates,Original*%
%TF.FileFunction,Legend,Top*%
%TF.FilePolarity,Positive*%
%FSLAX46Y46*%
G04 Gerber Fmt 4.6, Leading zero omitted, Abs format (unit mm)*
G04 Created by KiCad (PCBNEW (6.0.10)) date 2024-05-12 12:00:46*
%MOMM*%
%LPD*%
G01*
G04 APERTURE LIST*
%ADD10C,0.300000*%
%ADD11C,0.150000*%
%ADD12C,0.120000*%
G04 APERTURE END LIST*
D10*
X51466428Y-50621071D02*
X50752142Y-50621071D01*
X50752142Y-49121071D01*
X52180714Y-50621071D02*
X52037857Y-50549642D01*
X51966428Y-50478214D01*
X51895000Y-50335357D01*
X51895000Y-49906785D01*
X51966428Y-49763928D01*
X52037857Y-49692500D01*
X52180714Y-49621071D01*
X52395000Y-49621071D01*
X52537857Y-49692500D01*
X52609285Y-49763928D01*
X52680714Y-49906785D01*
X52680714Y-50335357D01*
X52609285Y-50478214D01*
X52537857Y-50549642D01*
X52395000Y-50621071D01*
X52180714Y-50621071D01*
X53966428Y-49621071D02*
X53966428Y-50835357D01*
X53895000Y-50978214D01*
X53823571Y-51049642D01*
X53680714Y-51121071D01*
X53466428Y-51121071D01*
X53323571Y-51049642D01*
X53966428Y-50549642D02*
X53823571Y-50621071D01*
X53537857Y-50621071D01*
X53395000Y-50549642D01*
X53323571Y-50478214D01*
X53252142Y-50335357D01*
X53252142Y-49906785D01*
X53323571Y-49763928D01*
X53395000Y-49692500D01*
X53537857Y-49621071D01*
X53823571Y-49621071D01*
X53966428Y-49692500D01*
X54680714Y-50621071D02*
X54680714Y-49621071D01*
X54680714Y-49121071D02*
X54609285Y-49192500D01*
X54680714Y-49263928D01*
X54752142Y-49192500D01*
X54680714Y-49121071D01*
X54680714Y-49263928D01*
X56037857Y-50549642D02*
X55895000Y-50621071D01*
X55609285Y-50621071D01*
X55466428Y-50549642D01*
X55395000Y-50478214D01*
X55323571Y-50335357D01*
X55323571Y-49906785D01*
X55395000Y-49763928D01*
X55466428Y-49692500D01*
X55609285Y-49621071D01*
X55895000Y-49621071D01*
X56037857Y-49692500D01*
X58609285Y-49192500D02*
X58466428Y-49121071D01*
X58252142Y-49121071D01*
X58037857Y-49192500D01*
X57895000Y-49335357D01*
X57823571Y-49478214D01*
X57752142Y-49763928D01*
X57752142Y-49978214D01*
X57823571Y-50263928D01*
X57895000Y-50406785D01*
X58037857Y-50549642D01*
X58252142Y-50621071D01*
X58395000Y-50621071D01*
X58609285Y-50549642D01*
X58680714Y-50478214D01*
X58680714Y-49978214D01*
X58395000Y-49978214D01*
X59966428Y-50621071D02*
X59966428Y-49835357D01*
X59895000Y-49692500D01*
X59752142Y-49621071D01*
X59466428Y-49621071D01*
X59323571Y-49692500D01*
X59966428Y-50549642D02*
X59823571Y-50621071D01*
X59466428Y-50621071D01*
X59323571Y-50549642D01*
X59252142Y-50406785D01*
X59252142Y-50263928D01*
X59323571Y-50121071D01*
X59466428Y-50049642D01*
X59823571Y-50049642D01*
X59966428Y-49978214D01*
X60466428Y-49621071D02*
X61037857Y-49621071D01*
X60680714Y-49121071D02*
X60680714Y-50406785D01*
X60752142Y-50549642D01*
X60895000Y-50621071D01*
X61037857Y-50621071D01*
X62109285Y-50549642D02*
X61966428Y-50621071D01*
X61680714Y-50621071D01*
X61537857Y-50549642D01*
X61466428Y-50406785D01*
X61466428Y-49835357D01*
X61537857Y-49692500D01*
X61680714Y-49621071D01*
X61966428Y-49621071D01*
X62109285Y-49692500D01*
X62180714Y-49835357D01*
X62180714Y-49978214D01*
X61466428Y-50121071D01*
X64823571Y-50621071D02*
X64323571Y-49906785D01*
X63966428Y-50621071D02*
X63966428Y-49121071D01*
X64537857Y-49121071D01*
X64680714Y-49192500D01*
X64752142Y-49263928D01*
X64823571Y-49406785D01*
X64823571Y-49621071D01*
X64752142Y-49763928D01*
X64680714Y-49835357D01*
X64537857Y-49906785D01*
X63966428Y-49906785D01*
X66109285Y-49621071D02*
X66109285Y-50621071D01*
X65466428Y-49621071D02*
X65466428Y-50406785D01*
X65537857Y-50549642D01*
X65680714Y-50621071D01*
X65895000Y-50621071D01*
X66037857Y-50549642D01*
X66109285Y-50478214D01*
X67037857Y-50621071D02*
X66895000Y-50549642D01*
X66823571Y-50406785D01*
X66823571Y-49121071D01*
X68180714Y-50549642D02*
X68037857Y-50621071D01*
X67752142Y-50621071D01*
X67609285Y-50549642D01*
X67537857Y-50406785D01*
X67537857Y-49835357D01*
X67609285Y-49692500D01*
X67752142Y-49621071D01*
X68037857Y-49621071D01*
X68180714Y-49692500D01*
X68252142Y-49835357D01*
X68252142Y-49978214D01*
X67537857Y-50121071D01*
X68895000Y-50621071D02*
X68895000Y-49621071D01*
X68895000Y-49906785D02*
X68966428Y-49763928D01*
X69037857Y-49692500D01*
X69180714Y-49621071D01*
X69323571Y-49621071D01*
X70823571Y-49621071D02*
X71180714Y-50621071D01*
X71537857Y-49621071D01*
X72895000Y-50621071D02*
X72037857Y-50621071D01*
X72466428Y-50621071D02*
X72466428Y-49121071D01*
X72323571Y-49335357D01*
X72180714Y-49478214D01*
X72037857Y-49549642D01*
X73537857Y-50478214D02*
X73609285Y-50549642D01*
X73537857Y-50621071D01*
X73466428Y-50549642D01*
X73537857Y-50478214D01*
X73537857Y-50621071D01*
X74109285Y-49121071D02*
X75037857Y-49121071D01*
X74537857Y-49692500D01*
X74752142Y-49692500D01*
X74895000Y-49763928D01*
X74966428Y-49835357D01*
X75037857Y-49978214D01*
X75037857Y-50335357D01*
X74966428Y-50478214D01*
X74895000Y-50549642D01*
X74752142Y-50621071D01*
X74323571Y-50621071D01*
X74180714Y-50549642D01*
X74109285Y-50478214D01*
X50752142Y-53036071D02*
X50752142Y-51536071D01*
X51109285Y-51536071D01*
X51323571Y-51607500D01*
X51466428Y-51750357D01*
X51537857Y-51893214D01*
X51609285Y-52178928D01*
X51609285Y-52393214D01*
X51537857Y-52678928D01*
X51466428Y-52821785D01*
X51323571Y-52964642D01*
X51109285Y-53036071D01*
X50752142Y-53036071D01*
X52823571Y-52964642D02*
X52680714Y-53036071D01*
X52395000Y-53036071D01*
X52252142Y-52964642D01*
X52180714Y-52821785D01*
X52180714Y-52250357D01*
X52252142Y-52107500D01*
X52395000Y-52036071D01*
X52680714Y-52036071D01*
X52823571Y-52107500D01*
X52895000Y-52250357D01*
X52895000Y-52393214D01*
X52180714Y-52536071D01*
X53466428Y-52964642D02*
X53609285Y-53036071D01*
X53895000Y-53036071D01*
X54037857Y-52964642D01*
X54109285Y-52821785D01*
X54109285Y-52750357D01*
X54037857Y-52607500D01*
X53895000Y-52536071D01*
X53680714Y-52536071D01*
X53537857Y-52464642D01*
X53466428Y-52321785D01*
X53466428Y-52250357D01*
X53537857Y-52107500D01*
X53680714Y-52036071D01*
X53895000Y-52036071D01*
X54037857Y-52107500D01*
X54752142Y-53036071D02*
X54752142Y-52036071D01*
X54752142Y-51536071D02*
X54680714Y-51607500D01*
X54752142Y-51678928D01*
X54823571Y-51607500D01*
X54752142Y-51536071D01*
X54752142Y-51678928D01*
X56109285Y-52036071D02*
X56109285Y-53250357D01*
X56037857Y-53393214D01*
X55966428Y-53464642D01*
X55823571Y-53536071D01*
X55609285Y-53536071D01*
X55466428Y-53464642D01*
X56109285Y-52964642D02*
X55966428Y-53036071D01*
X55680714Y-53036071D01*
X55537857Y-52964642D01*
X55466428Y-52893214D01*
X55395000Y-52750357D01*
X55395000Y-52321785D01*
X55466428Y-52178928D01*
X55537857Y-52107500D01*
X55680714Y-52036071D01*
X55966428Y-52036071D01*
X56109285Y-52107500D01*
X56823571Y-52036071D02*
X56823571Y-53036071D01*
X56823571Y-52178928D02*
X56895000Y-52107500D01*
X57037857Y-52036071D01*
X57252142Y-52036071D01*
X57395000Y-52107500D01*
X57466428Y-52250357D01*
X57466428Y-53036071D01*
X58752142Y-52964642D02*
X58609285Y-53036071D01*
X58323571Y-53036071D01*
X58180714Y-52964642D01*
X58109285Y-52821785D01*
X58109285Y-52250357D01*
X58180714Y-52107500D01*
X58323571Y-52036071D01*
X58609285Y-52036071D01*
X58752142Y-52107500D01*
X58823571Y-52250357D01*
X58823571Y-52393214D01*
X58109285Y-52536071D01*
X60109285Y-53036071D02*
X60109285Y-51536071D01*
X60109285Y-52964642D02*
X59966428Y-53036071D01*
X59680714Y-53036071D01*
X59537857Y-52964642D01*
X59466428Y-52893214D01*
X59395000Y-52750357D01*
X59395000Y-52321785D01*
X59466428Y-52178928D01*
X59537857Y-52107500D01*
X59680714Y-52036071D01*
X59966428Y-52036071D01*
X60109285Y-52107500D01*
X61966428Y-53036071D02*
X61966428Y-51536071D01*
X61966428Y-52107500D02*
X62109285Y-52036071D01*
X62395000Y-52036071D01*
X62537857Y-52107500D01*
X62609285Y-52178928D01*
X62680714Y-52321785D01*
X62680714Y-52750357D01*
X62609285Y-52893214D01*
X62537857Y-52964642D01*
X62395000Y-53036071D01*
X62109285Y-53036071D01*
X61966428Y-52964642D01*
X63180714Y-52036071D02*
X63537857Y-53036071D01*
X63895000Y-52036071D02*
X63537857Y-53036071D01*
X63395000Y-53393214D01*
X63323571Y-53464642D01*
X63180714Y-53536071D01*
X65609285Y-53036071D02*
X65609285Y-51536071D01*
X66109285Y-52607500D01*
X66609285Y-51536071D01*
X66609285Y-53036071D01*
X67323571Y-53036071D02*
X67323571Y-51536071D01*
X68752142Y-53036071D02*
X68037857Y-53036071D01*
X68037857Y-51536071D01*
X69895000Y-53036071D02*
X69895000Y-52250357D01*
X69823571Y-52107500D01*
X69680714Y-52036071D01*
X69395000Y-52036071D01*
X69252142Y-52107500D01*
X69895000Y-52964642D02*
X69752142Y-53036071D01*
X69395000Y-53036071D01*
X69252142Y-52964642D01*
X69180714Y-52821785D01*
X69180714Y-52678928D01*
X69252142Y-52536071D01*
X69395000Y-52464642D01*
X69752142Y-52464642D01*
X69895000Y-52393214D01*
X70609285Y-53036071D02*
X70609285Y-51536071D01*
X70609285Y-52107500D02*
X70752142Y-52036071D01*
X71037857Y-52036071D01*
X71180714Y-52107500D01*
X71252142Y-52178928D01*
X71323571Y-52321785D01*
X71323571Y-52750357D01*
X71252142Y-52893214D01*
X71180714Y-52964642D01*
X71037857Y-53036071D01*
X70752142Y-53036071D01*
X70609285Y-52964642D01*
X73037857Y-51678928D02*
X73109285Y-51607500D01*
X73252142Y-51536071D01*
X73609285Y-51536071D01*
X73752142Y-51607500D01*
X73823571Y-51678928D01*
X73895000Y-51821785D01*
X73895000Y-51964642D01*
X73823571Y-52178928D01*
X72966428Y-53036071D01*
X73895000Y-53036071D01*
X74823571Y-51536071D02*
X74966428Y-51536071D01*
X75109285Y-51607500D01*
X75180714Y-51678928D01*
X75252142Y-51821785D01*
X75323571Y-52107500D01*
X75323571Y-52464642D01*
X75252142Y-52750357D01*
X75180714Y-52893214D01*
X75109285Y-52964642D01*
X74966428Y-53036071D01*
X74823571Y-53036071D01*
X74680714Y-52964642D01*
X74609285Y-52893214D01*
X74537857Y-52750357D01*
X74466428Y-52464642D01*
X74466428Y-52107500D01*
X74537857Y-51821785D01*
X74609285Y-51678928D01*
X74680714Y-51607500D01*
X74823571Y-51536071D01*
X75895000Y-51678928D02*
X75966428Y-51607500D01*
X76109285Y-51536071D01*
X76466428Y-51536071D01*
X76609285Y-51607500D01*
X76680714Y-51678928D01*
X76752142Y-51821785D01*
X76752142Y-51964642D01*
X76680714Y-52178928D01*
X75823571Y-53036071D01*
X76752142Y-53036071D01*
X78037857Y-52036071D02*
X78037857Y-53036071D01*
X77680714Y-51464642D02*
X77323571Y-52536071D01*
X78252142Y-52536071D01*
D11*
X42647380Y-47380952D02*
X43456904Y-47380952D01*
X43552142Y-47333333D01*
X43599761Y-47285714D01*
X43647380Y-47190476D01*
X43647380Y-47000000D01*
X43599761Y-46904761D01*
X43552142Y-46857142D01*
X43456904Y-46809523D01*
X42647380Y-46809523D01*
X43599761Y-46380952D02*
X43647380Y-46238095D01*
X43647380Y-46000000D01*
X43599761Y-45904761D01*
X43552142Y-45857142D01*
X43456904Y-45809523D01*
X43361666Y-45809523D01*
X43266428Y-45857142D01*
X43218809Y-45904761D01*
X43171190Y-46000000D01*
X43123571Y-46190476D01*
X43075952Y-46285714D01*
X43028333Y-46333333D01*
X42933095Y-46380952D01*
X42837857Y-46380952D01*
X42742619Y-46333333D01*
X42695000Y-46285714D01*
X42647380Y-46190476D01*
X42647380Y-45952380D01*
X42695000Y-45809523D01*
X43123571Y-45047619D02*
X43171190Y-44904761D01*
X43218809Y-44857142D01*
X43314047Y-44809523D01*
X43456904Y-44809523D01*
X43552142Y-44857142D01*
X43599761Y-44904761D01*
X43647380Y-45000000D01*
X43647380Y-45380952D01*
X42647380Y-45380952D01*
X42647380Y-45047619D01*
X42695000Y-44952380D01*
X42742619Y-44904761D01*
X42837857Y-44857142D01*
X42933095Y-44857142D01*
X43028333Y-44904761D01*
X43075952Y-44952380D01*
X43123571Y-45047619D01*
X43123571Y-45380952D01*
X43266428Y-44380952D02*
X43266428Y-43619047D01*
X43552142Y-42571428D02*
X43599761Y-42619047D01*
X43647380Y-42761904D01*
X43647380Y-42857142D01*
X43599761Y-43000000D01*
X43504523Y-43095238D01*
X43409285Y-43142857D01*
X43218809Y-43190476D01*
X43075952Y-43190476D01*
X42885476Y-43142857D01*
X42790238Y-43095238D01*
X42695000Y-43000000D01*
X42647380Y-42857142D01*
X42647380Y-42761904D01*
X42695000Y-42619047D01*
X42742619Y-42571428D01*
X45257380Y-47309523D02*
X44257380Y-47309523D01*
X44257380Y-46928571D01*
X44305000Y-46833333D01*
X44352619Y-46785714D01*
X44447857Y-46738095D01*
X44590714Y-46738095D01*
X44685952Y-46785714D01*
X44733571Y-46833333D01*
X44781190Y-46928571D01*
X44781190Y-47309523D01*
X44257380Y-46119047D02*
X44257380Y-45928571D01*
X44305000Y-45833333D01*
X44400238Y-45738095D01*
X44590714Y-45690476D01*
X44924047Y-45690476D01*
X45114523Y-45738095D01*
X45209761Y-45833333D01*
X45257380Y-45928571D01*
X45257380Y-46119047D01*
X45209761Y-46214285D01*
X45114523Y-46309523D01*
X44924047Y-46357142D01*
X44590714Y-46357142D01*
X44400238Y-46309523D01*
X44305000Y-46214285D01*
X44257380Y-46119047D01*
X44257380Y-45357142D02*
X45257380Y-45119047D01*
X44543095Y-44928571D01*
X45257380Y-44738095D01*
X44257380Y-44500000D01*
X44733571Y-44119047D02*
X44733571Y-43785714D01*
X45257380Y-43642857D02*
X45257380Y-44119047D01*
X44257380Y-44119047D01*
X44257380Y-43642857D01*
X45257380Y-42642857D02*
X44781190Y-42976190D01*
X45257380Y-43214285D02*
X44257380Y-43214285D01*
X44257380Y-42833333D01*
X44305000Y-42738095D01*
X44352619Y-42690476D01*
X44447857Y-42642857D01*
X44590714Y-42642857D01*
X44685952Y-42690476D01*
X44733571Y-42738095D01*
X44781190Y-42833333D01*
X44781190Y-43214285D01*
%TO.C,X1*%
X85190476Y-41202380D02*
X85857142Y-42202380D01*
X85857142Y-41202380D02*
X85190476Y-42202380D01*
X86761904Y-42202380D02*
X86190476Y-42202380D01*
X86476190Y-42202380D02*
X86476190Y-41202380D01*
X86380952Y-41345238D01*
X86285714Y-41440476D01*
X86190476Y-41488095D01*
%TO.C,AND*%
X103315666Y-45198404D02*
X103315666Y-44722214D01*
X103601380Y-45293642D02*
X102601380Y-44960309D01*
X103601380Y-44626976D01*
X103601380Y-44293642D02*
X102601380Y-44293642D01*
X103601380Y-43722214D01*
X102601380Y-43722214D01*
X103601380Y-43246023D02*
X102601380Y-43246023D01*
X102601380Y-43007928D01*
X102649000Y-42865071D01*
X102744238Y-42769833D01*
X102839476Y-42722214D01*
X103029952Y-42674595D01*
X103172809Y-42674595D01*
X103363285Y-42722214D01*
X103458523Y-42769833D01*
X103553761Y-42865071D01*
X103601380Y-43007928D01*
X103601380Y-43246023D01*
X116720714Y-42762023D02*
X117387380Y-42762023D01*
X116339761Y-43000119D02*
X117054047Y-43238214D01*
X117054047Y-42619166D01*
X107227380Y-42666785D02*
X107227380Y-43238214D01*
X107227380Y-42952500D02*
X106227380Y-42952500D01*
X106370238Y-43047738D01*
X106465476Y-43142976D01*
X106513095Y-43238214D01*
X110037380Y-43762023D02*
X111037380Y-43095357D01*
X110037380Y-43095357D02*
X111037380Y-43762023D01*
X110132619Y-42762023D02*
X110085000Y-42714404D01*
X110037380Y-42619166D01*
X110037380Y-42381071D01*
X110085000Y-42285833D01*
X110132619Y-42238214D01*
X110227857Y-42190595D01*
X110323095Y-42190595D01*
X110465952Y-42238214D01*
X111037380Y-42809642D01*
X111037380Y-42190595D01*
X111402619Y-43238214D02*
X111355000Y-43190595D01*
X111307380Y-43095357D01*
X111307380Y-42857261D01*
X111355000Y-42762023D01*
X111402619Y-42714404D01*
X111497857Y-42666785D01*
X111593095Y-42666785D01*
X111735952Y-42714404D01*
X112307380Y-43285833D01*
X112307380Y-42666785D01*
X115117380Y-43285833D02*
X115117380Y-42666785D01*
X115498333Y-43000119D01*
X115498333Y-42857261D01*
X115545952Y-42762023D01*
X115593571Y-42714404D01*
X115688809Y-42666785D01*
X115926904Y-42666785D01*
X116022142Y-42714404D01*
X116069761Y-42762023D01*
X116117380Y-42857261D01*
X116117380Y-43142976D01*
X116069761Y-43238214D01*
X116022142Y-43285833D01*
X127817380Y-42762023D02*
X127817380Y-42952500D01*
X127865000Y-43047738D01*
X127912619Y-43095357D01*
X128055476Y-43190595D01*
X128245952Y-43238214D01*
X128626904Y-43238214D01*
X128722142Y-43190595D01*
X128769761Y-43142976D01*
X128817380Y-43047738D01*
X128817380Y-42857261D01*
X128769761Y-42762023D01*
X128722142Y-42714404D01*
X128626904Y-42666785D01*
X128388809Y-42666785D01*
X128293571Y-42714404D01*
X128245952Y-42762023D01*
X128198333Y-42857261D01*
X128198333Y-43047738D01*
X128245952Y-43142976D01*
X128293571Y-43190595D01*
X128388809Y-43238214D01*
X117657380Y-42714404D02*
X117657380Y-43190595D01*
X118133571Y-43238214D01*
X118085952Y-43190595D01*
X118038333Y-43095357D01*
X118038333Y-42857261D01*
X118085952Y-42762023D01*
X118133571Y-42714404D01*
X118228809Y-42666785D01*
X118466904Y-42666785D01*
X118562142Y-42714404D01*
X118609761Y-42762023D01*
X118657380Y-42857261D01*
X118657380Y-43095357D01*
X118609761Y-43190595D01*
X118562142Y-43238214D01*
X129865190Y-42952500D02*
X130341380Y-42952500D01*
X129341380Y-43285833D02*
X129865190Y-42952500D01*
X129341380Y-42619166D01*
X104957380Y-43762023D02*
X105957380Y-43095357D01*
X104957380Y-43095357D02*
X105957380Y-43762023D01*
X105957380Y-42190595D02*
X105957380Y-42762023D01*
X105957380Y-42476309D02*
X104957380Y-42476309D01*
X105100238Y-42571547D01*
X105195476Y-42666785D01*
X105243095Y-42762023D01*
%TO.C,X2*%
X91190476Y-41102380D02*
X91857142Y-42102380D01*
X91857142Y-41102380D02*
X91190476Y-42102380D01*
X92190476Y-41197619D02*
X92238095Y-41150000D01*
X92333333Y-41102380D01*
X92571428Y-41102380D01*
X92666666Y-41150000D01*
X92714285Y-41197619D01*
X92761904Y-41292857D01*
X92761904Y-41388095D01*
X92714285Y-41530952D01*
X92142857Y-42102380D01*
X92761904Y-42102380D01*
%TO.C,Y*%
X98000000Y-41626190D02*
X98000000Y-42102380D01*
X97666666Y-41102380D02*
X98000000Y-41626190D01*
X98333333Y-41102380D01*
%TO.C,R3*%
X75333333Y-45852380D02*
X75000000Y-45376190D01*
X74761904Y-45852380D02*
X74761904Y-44852380D01*
X75142857Y-44852380D01*
X75238095Y-44900000D01*
X75285714Y-44947619D01*
X75333333Y-45042857D01*
X75333333Y-45185714D01*
X75285714Y-45280952D01*
X75238095Y-45328571D01*
X75142857Y-45376190D01*
X74761904Y-45376190D01*
X75666666Y-44852380D02*
X76285714Y-44852380D01*
X75952380Y-45233333D01*
X76095238Y-45233333D01*
X76190476Y-45280952D01*
X76238095Y-45328571D01*
X76285714Y-45423809D01*
X76285714Y-45661904D01*
X76238095Y-45757142D01*
X76190476Y-45804761D01*
X76095238Y-45852380D01*
X75809523Y-45852380D01*
X75714285Y-45804761D01*
X75666666Y-45757142D01*
%TO.C,SW2*%
X95216666Y-47704761D02*
X95359523Y-47752380D01*
X95597619Y-47752380D01*
X95692857Y-47704761D01*
X95740476Y-47657142D01*
X95788095Y-47561904D01*
X95788095Y-47466666D01*
X95740476Y-47371428D01*
X95692857Y-47323809D01*
X95597619Y-47276190D01*
X95407142Y-47228571D01*
X95311904Y-47180952D01*
X95264285Y-47133333D01*
X95216666Y-47038095D01*
X95216666Y-46942857D01*
X95264285Y-46847619D01*
X95311904Y-46800000D01*
X95407142Y-46752380D01*
X95645238Y-46752380D01*
X95788095Y-46800000D01*
X96121428Y-46752380D02*
X96359523Y-47752380D01*
X96550000Y-47038095D01*
X96740476Y-47752380D01*
X96978571Y-46752380D01*
X97311904Y-46847619D02*
X97359523Y-46800000D01*
X97454761Y-46752380D01*
X97692857Y-46752380D01*
X97788095Y-46800000D01*
X97835714Y-46847619D01*
X97883333Y-46942857D01*
X97883333Y-47038095D01*
X97835714Y-47180952D01*
X97264285Y-47752380D01*
X97883333Y-47752380D01*
%TO.C,R2*%
X75333333Y-41952380D02*
X75000000Y-41476190D01*
X74761904Y-41952380D02*
X74761904Y-40952380D01*
X75142857Y-40952380D01*
X75238095Y-41000000D01*
X75285714Y-41047619D01*
X75333333Y-41142857D01*
X75333333Y-41285714D01*
X75285714Y-41380952D01*
X75238095Y-41428571D01*
X75142857Y-41476190D01*
X74761904Y-41476190D01*
X75714285Y-41047619D02*
X75761904Y-41000000D01*
X75857142Y-40952380D01*
X76095238Y-40952380D01*
X76190476Y-41000000D01*
X76238095Y-41047619D01*
X76285714Y-41142857D01*
X76285714Y-41238095D01*
X76238095Y-41380952D01*
X75666666Y-41952380D01*
X76285714Y-41952380D01*
%TO.C,74HC00*%
X56514285Y-41052380D02*
X57180952Y-41052380D01*
X56752380Y-42052380D01*
X57990476Y-41385714D02*
X57990476Y-42052380D01*
X57752380Y-41004761D02*
X57514285Y-41719047D01*
X58133333Y-41719047D01*
X58514285Y-42052380D02*
X58514285Y-41052380D01*
X58514285Y-41528571D02*
X59085714Y-41528571D01*
X59085714Y-42052380D02*
X59085714Y-41052380D01*
X60133333Y-41957142D02*
X60085714Y-42004761D01*
X59942857Y-42052380D01*
X59847619Y-42052380D01*
X59704761Y-42004761D01*
X59609523Y-41909523D01*
X59561904Y-41814285D01*
X59514285Y-41623809D01*
X59514285Y-41480952D01*
X59561904Y-41290476D01*
X59609523Y-41195238D01*
X59704761Y-41100000D01*
X59847619Y-41052380D01*
X59942857Y-41052380D01*
X60085714Y-41100000D01*
X60133333Y-41147619D01*
X60752380Y-41052380D02*
X60847619Y-41052380D01*
X60942857Y-41100000D01*
X60990476Y-41147619D01*
X61038095Y-41242857D01*
X61085714Y-41433333D01*
X61085714Y-41671428D01*
X61038095Y-41861904D01*
X60990476Y-41957142D01*
X60942857Y-42004761D01*
X60847619Y-42052380D01*
X60752380Y-42052380D01*
X60657142Y-42004761D01*
X60609523Y-41957142D01*
X60561904Y-41861904D01*
X60514285Y-41671428D01*
X60514285Y-41433333D01*
X60561904Y-41242857D01*
X60609523Y-41147619D01*
X60657142Y-41100000D01*
X60752380Y-41052380D01*
X61704761Y-41052380D02*
X61800000Y-41052380D01*
X61895238Y-41100000D01*
X61942857Y-41147619D01*
X61990476Y-41242857D01*
X62038095Y-41433333D01*
X62038095Y-41671428D01*
X61990476Y-41861904D01*
X61942857Y-41957142D01*
X61895238Y-42004761D01*
X61800000Y-42052380D01*
X61704761Y-42052380D01*
X61609523Y-42004761D01*
X61561904Y-41957142D01*
X61514285Y-41861904D01*
X61466666Y-41671428D01*
X61466666Y-41433333D01*
X61514285Y-41242857D01*
X61561904Y-41147619D01*
X61609523Y-41100000D01*
X61704761Y-41052380D01*
%TO.C,XOR*%
X102601380Y-50941142D02*
X103601380Y-50274476D01*
X102601380Y-50274476D02*
X103601380Y-50941142D01*
X102601380Y-49703047D02*
X102601380Y-49512571D01*
X102649000Y-49417333D01*
X102744238Y-49322095D01*
X102934714Y-49274476D01*
X103268047Y-49274476D01*
X103458523Y-49322095D01*
X103553761Y-49417333D01*
X103601380Y-49512571D01*
X103601380Y-49703047D01*
X103553761Y-49798285D01*
X103458523Y-49893523D01*
X103268047Y-49941142D01*
X102934714Y-49941142D01*
X102744238Y-49893523D01*
X102649000Y-49798285D01*
X102601380Y-49703047D01*
X103601380Y-48274476D02*
X103125190Y-48607809D01*
X103601380Y-48845904D02*
X102601380Y-48845904D01*
X102601380Y-48464952D01*
X102649000Y-48369714D01*
X102696619Y-48322095D01*
X102791857Y-48274476D01*
X102934714Y-48274476D01*
X103029952Y-48322095D01*
X103077571Y-48369714D01*
X103125190Y-48464952D01*
X103125190Y-48845904D01*
X111332619Y-48885714D02*
X111285000Y-48838095D01*
X111237380Y-48742857D01*
X111237380Y-48504761D01*
X111285000Y-48409523D01*
X111332619Y-48361904D01*
X111427857Y-48314285D01*
X111523095Y-48314285D01*
X111665952Y-48361904D01*
X112237380Y-48933333D01*
X112237380Y-48314285D01*
X116317380Y-48361904D02*
X116317380Y-48838095D01*
X116793571Y-48885714D01*
X116745952Y-48838095D01*
X116698333Y-48742857D01*
X116698333Y-48504761D01*
X116745952Y-48409523D01*
X116793571Y-48361904D01*
X116888809Y-48314285D01*
X117126904Y-48314285D01*
X117222142Y-48361904D01*
X117269761Y-48409523D01*
X117317380Y-48504761D01*
X117317380Y-48742857D01*
X117269761Y-48838095D01*
X117222142Y-48885714D01*
X109967380Y-49409523D02*
X110967380Y-48742857D01*
X109967380Y-48742857D02*
X110967380Y-49409523D01*
X110062619Y-48409523D02*
X110015000Y-48361904D01*
X109967380Y-48266666D01*
X109967380Y-48028571D01*
X110015000Y-47933333D01*
X110062619Y-47885714D01*
X110157857Y-47838095D01*
X110253095Y-47838095D01*
X110395952Y-47885714D01*
X110967380Y-48457142D01*
X110967380Y-47838095D01*
X104887380Y-49409523D02*
X105887380Y-48742857D01*
X104887380Y-48742857D02*
X105887380Y-49409523D01*
X105887380Y-47838095D02*
X105887380Y-48409523D01*
X105887380Y-48123809D02*
X104887380Y-48123809D01*
X105030238Y-48219047D01*
X105125476Y-48314285D01*
X105173095Y-48409523D01*
X124365952Y-48695238D02*
X124318333Y-48790476D01*
X124270714Y-48838095D01*
X124175476Y-48885714D01*
X124127857Y-48885714D01*
X124032619Y-48838095D01*
X123985000Y-48790476D01*
X123937380Y-48695238D01*
X123937380Y-48504761D01*
X123985000Y-48409523D01*
X124032619Y-48361904D01*
X124127857Y-48314285D01*
X124175476Y-48314285D01*
X124270714Y-48361904D01*
X124318333Y-48409523D01*
X124365952Y-48504761D01*
X124365952Y-48695238D01*
X124413571Y-48790476D01*
X124461190Y-48838095D01*
X124556428Y-48885714D01*
X124746904Y-48885714D01*
X124842142Y-48838095D01*
X124889761Y-48790476D01*
X124937380Y-48695238D01*
X124937380Y-48504761D01*
X124889761Y-48409523D01*
X124842142Y-48361904D01*
X124746904Y-48314285D01*
X124556428Y-48314285D01*
X124461190Y-48361904D01*
X124413571Y-48409523D01*
X124365952Y-48504761D01*
X115047380Y-48933333D02*
X115047380Y-48314285D01*
X115428333Y-48647619D01*
X115428333Y-48504761D01*
X115475952Y-48409523D01*
X115523571Y-48361904D01*
X115618809Y-48314285D01*
X115856904Y-48314285D01*
X115952142Y-48361904D01*
X115999761Y-48409523D01*
X116047380Y-48504761D01*
X116047380Y-48790476D01*
X115999761Y-48885714D01*
X115952142Y-48933333D01*
X113507380Y-48790476D02*
X113507380Y-49361904D01*
X113507380Y-49076190D02*
X112507380Y-49076190D01*
X112650238Y-49171428D01*
X112745476Y-49266666D01*
X112793095Y-49361904D01*
X112507380Y-48171428D02*
X112507380Y-48076190D01*
X112555000Y-47980952D01*
X112602619Y-47933333D01*
X112697857Y-47885714D01*
X112888333Y-47838095D01*
X113126428Y-47838095D01*
X113316904Y-47885714D01*
X113412142Y-47933333D01*
X113459761Y-47980952D01*
X113507380Y-48076190D01*
X113507380Y-48171428D01*
X113459761Y-48266666D01*
X113412142Y-48314285D01*
X113316904Y-48361904D01*
X113126428Y-48409523D01*
X112888333Y-48409523D01*
X112697857Y-48361904D01*
X112602619Y-48314285D01*
X112555000Y-48266666D01*
X112507380Y-48171428D01*
X107157380Y-48314285D02*
X107157380Y-48885714D01*
X107157380Y-48600000D02*
X106157380Y-48600000D01*
X106300238Y-48695238D01*
X106395476Y-48790476D01*
X106443095Y-48885714D01*
X107760714Y-48409523D02*
X108427380Y-48409523D01*
X107379761Y-48647619D02*
X108094047Y-48885714D01*
X108094047Y-48266666D01*
X129795190Y-48060000D02*
X130271380Y-48060000D01*
X129271380Y-48393333D02*
X129795190Y-48060000D01*
X129271380Y-47726666D01*
X128747380Y-48790476D02*
X128747380Y-49361904D01*
X128747380Y-49076190D02*
X127747380Y-49076190D01*
X127890238Y-49171428D01*
X127985476Y-49266666D01*
X128033095Y-49361904D01*
X128747380Y-47838095D02*
X128747380Y-48409523D01*
X128747380Y-48123809D02*
X127747380Y-48123809D01*
X127890238Y-48219047D01*
X127985476Y-48314285D01*
X128033095Y-48409523D01*
X126207380Y-48790476D02*
X126207380Y-49361904D01*
X126207380Y-49076190D02*
X125207380Y-49076190D01*
X125350238Y-49171428D01*
X125445476Y-49266666D01*
X125493095Y-49361904D01*
X125207380Y-48457142D02*
X125207380Y-47838095D01*
X125588333Y-48171428D01*
X125588333Y-48028571D01*
X125635952Y-47933333D01*
X125683571Y-47885714D01*
X125778809Y-47838095D01*
X126016904Y-47838095D01*
X126112142Y-47885714D01*
X126159761Y-47933333D01*
X126207380Y-48028571D01*
X126207380Y-48314285D01*
X126159761Y-48409523D01*
X126112142Y-48457142D01*
X120127380Y-48409523D02*
X120127380Y-48600000D01*
X120175000Y-48695238D01*
X120222619Y-48742857D01*
X120365476Y-48838095D01*
X120555952Y-48885714D01*
X120936904Y-48885714D01*
X121032142Y-48838095D01*
X121079761Y-48790476D01*
X121127380Y-48695238D01*
X121127380Y-48504761D01*
X121079761Y-48409523D01*
X121032142Y-48361904D01*
X120936904Y-48314285D01*
X120698809Y-48314285D01*
X120603571Y-48361904D01*
X120555952Y-48409523D01*
X120508333Y-48504761D01*
X120508333Y-48695238D01*
X120555952Y-48790476D01*
X120603571Y-48838095D01*
X120698809Y-48885714D01*
X122397380Y-48790476D02*
X122397380Y-49361904D01*
X122397380Y-49076190D02*
X121397380Y-49076190D01*
X121540238Y-49171428D01*
X121635476Y-49266666D01*
X121683095Y-49361904D01*
X121492619Y-48409523D02*
X121445000Y-48361904D01*
X121397380Y-48266666D01*
X121397380Y-48028571D01*
X121445000Y-47933333D01*
X121492619Y-47885714D01*
X121587857Y-47838095D01*
X121683095Y-47838095D01*
X121825952Y-47885714D01*
X122397380Y-48457142D01*
X122397380Y-47838095D01*
X118587380Y-48790476D02*
X118587380Y-48600000D01*
X118539761Y-48504761D01*
X118492142Y-48457142D01*
X118349285Y-48361904D01*
X118158809Y-48314285D01*
X117777857Y-48314285D01*
X117682619Y-48361904D01*
X117635000Y-48409523D01*
X117587380Y-48504761D01*
X117587380Y-48695238D01*
X117635000Y-48790476D01*
X117682619Y-48838095D01*
X117777857Y-48885714D01*
X118015952Y-48885714D01*
X118111190Y-48838095D01*
X118158809Y-48790476D01*
X118206428Y-48695238D01*
X118206428Y-48504761D01*
X118158809Y-48409523D01*
X118111190Y-48361904D01*
X118015952Y-48314285D01*
%TO.C,OR*%
X102601380Y-38979238D02*
X102601380Y-38788761D01*
X102649000Y-38693523D01*
X102744238Y-38598285D01*
X102934714Y-38550666D01*
X103268047Y-38550666D01*
X103458523Y-38598285D01*
X103553761Y-38693523D01*
X103601380Y-38788761D01*
X103601380Y-38979238D01*
X103553761Y-39074476D01*
X103458523Y-39169714D01*
X103268047Y-39217333D01*
X102934714Y-39217333D01*
X102744238Y-39169714D01*
X102649000Y-39074476D01*
X102601380Y-38979238D01*
X103601380Y-37550666D02*
X103125190Y-37884000D01*
X103601380Y-38122095D02*
X102601380Y-38122095D01*
X102601380Y-37741142D01*
X102649000Y-37645904D01*
X102696619Y-37598285D01*
X102791857Y-37550666D01*
X102934714Y-37550666D01*
X103029952Y-37598285D01*
X103077571Y-37645904D01*
X103125190Y-37741142D01*
X103125190Y-38122095D01*
X122397380Y-37590476D02*
X122397380Y-37400000D01*
X122349761Y-37304761D01*
X122302142Y-37257142D01*
X122159285Y-37161904D01*
X121968809Y-37114285D01*
X121587857Y-37114285D01*
X121492619Y-37161904D01*
X121445000Y-37209523D01*
X121397380Y-37304761D01*
X121397380Y-37495238D01*
X121445000Y-37590476D01*
X121492619Y-37638095D01*
X121587857Y-37685714D01*
X121825952Y-37685714D01*
X121921190Y-37638095D01*
X121968809Y-37590476D01*
X122016428Y-37495238D01*
X122016428Y-37304761D01*
X121968809Y-37209523D01*
X121921190Y-37161904D01*
X121825952Y-37114285D01*
X120127380Y-37733333D02*
X120127380Y-37114285D01*
X120508333Y-37447619D01*
X120508333Y-37304761D01*
X120555952Y-37209523D01*
X120603571Y-37161904D01*
X120698809Y-37114285D01*
X120936904Y-37114285D01*
X121032142Y-37161904D01*
X121079761Y-37209523D01*
X121127380Y-37304761D01*
X121127380Y-37590476D01*
X121079761Y-37685714D01*
X121032142Y-37733333D01*
X123937380Y-37209523D02*
X123937380Y-37400000D01*
X123985000Y-37495238D01*
X124032619Y-37542857D01*
X124175476Y-37638095D01*
X124365952Y-37685714D01*
X124746904Y-37685714D01*
X124842142Y-37638095D01*
X124889761Y-37590476D01*
X124937380Y-37495238D01*
X124937380Y-37304761D01*
X124889761Y-37209523D01*
X124842142Y-37161904D01*
X124746904Y-37114285D01*
X124508809Y-37114285D01*
X124413571Y-37161904D01*
X124365952Y-37209523D01*
X124318333Y-37304761D01*
X124318333Y-37495238D01*
X124365952Y-37590476D01*
X124413571Y-37638095D01*
X124508809Y-37685714D01*
X129795190Y-37400000D02*
X130271380Y-37400000D01*
X129271380Y-37733333D02*
X129795190Y-37400000D01*
X129271380Y-37066666D01*
X107522619Y-37685714D02*
X107475000Y-37638095D01*
X107427380Y-37542857D01*
X107427380Y-37304761D01*
X107475000Y-37209523D01*
X107522619Y-37161904D01*
X107617857Y-37114285D01*
X107713095Y-37114285D01*
X107855952Y-37161904D01*
X108427380Y-37733333D01*
X108427380Y-37114285D01*
X111570714Y-37209523D02*
X112237380Y-37209523D01*
X111189761Y-37447619D02*
X111904047Y-37685714D01*
X111904047Y-37066666D01*
X126207380Y-37590476D02*
X126207380Y-38161904D01*
X126207380Y-37876190D02*
X125207380Y-37876190D01*
X125350238Y-37971428D01*
X125445476Y-38066666D01*
X125493095Y-38161904D01*
X125207380Y-36971428D02*
X125207380Y-36876190D01*
X125255000Y-36780952D01*
X125302619Y-36733333D01*
X125397857Y-36685714D01*
X125588333Y-36638095D01*
X125826428Y-36638095D01*
X126016904Y-36685714D01*
X126112142Y-36733333D01*
X126159761Y-36780952D01*
X126207380Y-36876190D01*
X126207380Y-36971428D01*
X126159761Y-37066666D01*
X126112142Y-37114285D01*
X126016904Y-37161904D01*
X125826428Y-37209523D01*
X125588333Y-37209523D01*
X125397857Y-37161904D01*
X125302619Y-37114285D01*
X125255000Y-37066666D01*
X125207380Y-36971428D01*
X109967380Y-38209523D02*
X110967380Y-37542857D01*
X109967380Y-37542857D02*
X110967380Y-38209523D01*
X110062619Y-37209523D02*
X110015000Y-37161904D01*
X109967380Y-37066666D01*
X109967380Y-36828571D01*
X110015000Y-36733333D01*
X110062619Y-36685714D01*
X110157857Y-36638095D01*
X110253095Y-36638095D01*
X110395952Y-36685714D01*
X110967380Y-37257142D01*
X110967380Y-36638095D01*
X107157380Y-37114285D02*
X107157380Y-37685714D01*
X107157380Y-37400000D02*
X106157380Y-37400000D01*
X106300238Y-37495238D01*
X106395476Y-37590476D01*
X106443095Y-37685714D01*
X112507380Y-37161904D02*
X112507380Y-37638095D01*
X112983571Y-37685714D01*
X112935952Y-37638095D01*
X112888333Y-37542857D01*
X112888333Y-37304761D01*
X112935952Y-37209523D01*
X112983571Y-37161904D01*
X113078809Y-37114285D01*
X113316904Y-37114285D01*
X113412142Y-37161904D01*
X113459761Y-37209523D01*
X113507380Y-37304761D01*
X113507380Y-37542857D01*
X113459761Y-37638095D01*
X113412142Y-37685714D01*
X104887380Y-38209523D02*
X105887380Y-37542857D01*
X104887380Y-37542857D02*
X105887380Y-38209523D01*
X105887380Y-36638095D02*
X105887380Y-37209523D01*
X105887380Y-36923809D02*
X104887380Y-36923809D01*
X105030238Y-37019047D01*
X105125476Y-37114285D01*
X105173095Y-37209523D01*
X128175952Y-37495238D02*
X128128333Y-37590476D01*
X128080714Y-37638095D01*
X127985476Y-37685714D01*
X127937857Y-37685714D01*
X127842619Y-37638095D01*
X127795000Y-37590476D01*
X127747380Y-37495238D01*
X127747380Y-37304761D01*
X127795000Y-37209523D01*
X127842619Y-37161904D01*
X127937857Y-37114285D01*
X127985476Y-37114285D01*
X128080714Y-37161904D01*
X128128333Y-37209523D01*
X128175952Y-37304761D01*
X128175952Y-37495238D01*
X128223571Y-37590476D01*
X128271190Y-37638095D01*
X128366428Y-37685714D01*
X128556904Y-37685714D01*
X128652142Y-37638095D01*
X128699761Y-37590476D01*
X128747380Y-37495238D01*
X128747380Y-37304761D01*
X128699761Y-37209523D01*
X128652142Y-37161904D01*
X128556904Y-37114285D01*
X128366428Y-37114285D01*
X128271190Y-37161904D01*
X128223571Y-37209523D01*
X128175952Y-37304761D01*
%TO.C,SW1*%
X86116666Y-47754761D02*
X86259523Y-47802380D01*
X86497619Y-47802380D01*
X86592857Y-47754761D01*
X86640476Y-47707142D01*
X86688095Y-47611904D01*
X86688095Y-47516666D01*
X86640476Y-47421428D01*
X86592857Y-47373809D01*
X86497619Y-47326190D01*
X86307142Y-47278571D01*
X86211904Y-47230952D01*
X86164285Y-47183333D01*
X86116666Y-47088095D01*
X86116666Y-46992857D01*
X86164285Y-46897619D01*
X86211904Y-46850000D01*
X86307142Y-46802380D01*
X86545238Y-46802380D01*
X86688095Y-46850000D01*
X87021428Y-46802380D02*
X87259523Y-47802380D01*
X87450000Y-47088095D01*
X87640476Y-47802380D01*
X87878571Y-46802380D01*
X88783333Y-47802380D02*
X88211904Y-47802380D01*
X88497619Y-47802380D02*
X88497619Y-46802380D01*
X88402380Y-46945238D01*
X88307142Y-47040476D01*
X88211904Y-47088095D01*
%TO.C,R1*%
X75333333Y-38052380D02*
X75000000Y-37576190D01*
X74761904Y-38052380D02*
X74761904Y-37052380D01*
X75142857Y-37052380D01*
X75238095Y-37100000D01*
X75285714Y-37147619D01*
X75333333Y-37242857D01*
X75333333Y-37385714D01*
X75285714Y-37480952D01*
X75238095Y-37528571D01*
X75142857Y-37576190D01*
X74761904Y-37576190D01*
X76285714Y-38052380D02*
X75714285Y-38052380D01*
X76000000Y-38052380D02*
X76000000Y-37052380D01*
X75904761Y-37195238D01*
X75809523Y-37290476D01*
X75714285Y-37338095D01*
D12*
%TO.C,X1*%
X84764000Y-40170000D02*
X84920000Y-40170000D01*
X87080000Y-40170000D02*
X87236000Y-40170000D01*
X87235516Y-40170000D02*
G75*
G03*
X87078608Y-36937665I-1235516J1560000D01*
G01*
X84920163Y-37568870D02*
G75*
G03*
X84920000Y-39650961I1079837J-1041130D01*
G01*
X87080000Y-39650961D02*
G75*
G03*
X87079837Y-37568870I-1080000J1040961D01*
G01*
X84921392Y-36937665D02*
G75*
G03*
X84764484Y-40170000I1078608J-1672335D01*
G01*
%TO.C,AND*%
X104165000Y-41642500D02*
X130835000Y-41642500D01*
X130835000Y-41642500D02*
X130835000Y-46357500D01*
X130835000Y-46357500D02*
X104165000Y-46357500D01*
X104165000Y-46357500D02*
X104165000Y-41642500D01*
%TO.C,X2*%
X90764000Y-40065000D02*
X90920000Y-40065000D01*
X93080000Y-40065000D02*
X93236000Y-40065000D01*
X93080000Y-39545961D02*
G75*
G03*
X93079837Y-37463870I-1080000J1040961D01*
G01*
X90920163Y-37463870D02*
G75*
G03*
X90920000Y-39545961I1079837J-1041130D01*
G01*
X90921392Y-36832665D02*
G75*
G03*
X90764484Y-40065000I1078608J-1672335D01*
G01*
X93235516Y-40065000D02*
G75*
G03*
X93078608Y-36832665I-1235516J1560000D01*
G01*
%TO.C,Y*%
X99080000Y-40065000D02*
X99236000Y-40065000D01*
X96764000Y-40065000D02*
X96920000Y-40065000D01*
X96921392Y-36832665D02*
G75*
G03*
X96764484Y-40065000I1078608J-1672335D01*
G01*
X96920163Y-37463870D02*
G75*
G03*
X96920000Y-39545961I1079837J-1041130D01*
G01*
X99235516Y-40065000D02*
G75*
G03*
X99078608Y-36832665I-1235516J1560000D01*
G01*
X99080000Y-39545961D02*
G75*
G03*
X99079837Y-37463870I-1080000J1040961D01*
G01*
%TO.C,R3*%
X72630000Y-45400000D02*
X73580000Y-45400000D01*
X73580000Y-44480000D02*
X73580000Y-46320000D01*
X78370000Y-45400000D02*
X77420000Y-45400000D01*
X77420000Y-46320000D02*
X77420000Y-44480000D01*
X73580000Y-46320000D02*
X77420000Y-46320000D01*
X77420000Y-44480000D02*
X73580000Y-44480000D01*
%TO.C,SW2*%
X99850000Y-49450000D02*
X99850000Y-44950000D01*
X95850000Y-50700000D02*
X97350000Y-50700000D01*
X97350000Y-43700000D02*
X95850000Y-43700000D01*
X93350000Y-44950000D02*
X93350000Y-49450000D01*
%TO.C,R2*%
X72630000Y-41500000D02*
X73580000Y-41500000D01*
X77420000Y-42420000D02*
X77420000Y-40580000D01*
X73580000Y-42420000D02*
X77420000Y-42420000D01*
X77420000Y-40580000D02*
X73580000Y-40580000D01*
X78370000Y-41500000D02*
X77420000Y-41500000D01*
X73580000Y-40580000D02*
X73580000Y-42420000D01*
%TO.C,74HC00*%
X68445000Y-38840000D02*
X50545000Y-38840000D01*
X50545000Y-38840000D02*
X50545000Y-40490000D01*
X50545000Y-44140000D02*
X68445000Y-44140000D01*
X50545000Y-42490000D02*
X50545000Y-44140000D01*
X68445000Y-44140000D02*
X68445000Y-38840000D01*
X50545000Y-42490000D02*
G75*
G03*
X50545000Y-40490000I0J1000000D01*
G01*
%TO.C,XOR*%
X104165000Y-47290000D02*
X130835000Y-47290000D01*
X130835000Y-47290000D02*
X130835000Y-52005000D01*
X130835000Y-52005000D02*
X104165000Y-52005000D01*
X104165000Y-52005000D02*
X104165000Y-47290000D01*
%TO.C,OR*%
X104165000Y-36090000D02*
X130835000Y-36090000D01*
X130835000Y-36090000D02*
X130835000Y-40805000D01*
X130835000Y-40805000D02*
X104165000Y-40805000D01*
X104165000Y-40805000D02*
X104165000Y-36090000D01*
%TO.C,SW1*%
X86650000Y-50700000D02*
X88150000Y-50700000D01*
X90650000Y-49450000D02*
X90650000Y-44950000D01*
X88150000Y-43700000D02*
X86650000Y-43700000D01*
X84150000Y-44950000D02*
X84150000Y-49450000D01*
%TO.C,R1*%
X77420000Y-38520000D02*
X77420000Y-36680000D01*
X78370000Y-37600000D02*
X77420000Y-37600000D01*
X73580000Y-36680000D02*
X73580000Y-38520000D01*
X77420000Y-36680000D02*
X73580000Y-36680000D01*
X73580000Y-38520000D02*
X77420000Y-38520000D01*
X72630000Y-37600000D02*
X73580000Y-37600000D01*
%TD*%
M02*
