%TF.GenerationSoftware,KiCad,Pcbnew,(6.0.10)*%
%TF.CreationDate,2024-05-12T12:00:46+09:00*%
%TF.ProjectId,simpleLogicCircuit,73696d70-6c65-44c6-9f67-696343697263,rev?*%
%TF.SameCoordinates,Original*%
%TF.FileFunction,Soldermask,Top*%
%TF.FilePolarity,Negative*%
%FSLAX46Y46*%
G04 Gerber Fmt 4.6, Leading zero omitted, Abs format (unit mm)*
G04 Created by KiCad (PCBNEW (6.0.10)) date 2024-05-12 12:00:46*
%MOMM*%
%LPD*%
G01*
G04 APERTURE LIST*
G04 Aperture macros list*
%AMRoundRect*
0 Rectangle with rounded corners*
0 $1 Rounding radius*
0 $2 $3 $4 $5 $6 $7 $8 $9 X,Y pos of 4 corners*
0 Add a 4 corners polygon primitive as box body*
4,1,4,$2,$3,$4,$5,$6,$7,$8,$9,$2,$3,0*
0 Add four circle primitives for the rounded corners*
1,1,$1+$1,$2,$3*
1,1,$1+$1,$4,$5*
1,1,$1+$1,$6,$7*
1,1,$1+$1,$8,$9*
0 Add four rect primitives between the rounded corners*
20,1,$1+$1,$2,$3,$4,$5,0*
20,1,$1+$1,$4,$5,$6,$7,0*
20,1,$1+$1,$6,$7,$8,$9,0*
20,1,$1+$1,$8,$9,$2,$3,0*%
G04 Aperture macros list end*
%ADD10C,0.300000*%
%ADD11R,1.800000X1.800000*%
%ADD12C,1.800000*%
%ADD13RoundRect,0.225000X-0.225000X-0.525000X0.225000X-0.525000X0.225000X0.525000X-0.225000X0.525000X0*%
%ADD14C,1.400000*%
%ADD15O,1.400000X1.400000*%
%ADD16O,2.000000X1.300000*%
%ADD17C,2.000000*%
%ADD18R,1.600000X1.600000*%
%ADD19O,1.600000X1.600000*%
%ADD20O,4.000000X9.000000*%
%ADD21RoundRect,0.050000X-0.050000X-1.200000X0.050000X-1.200000X0.050000X1.200000X-0.050000X1.200000X0*%
%ADD22RoundRect,0.050000X-0.050000X-0.950000X0.050000X-0.950000X0.050000X0.950000X-0.050000X0.950000X0*%
%ADD23RoundRect,0.050000X-0.050000X-0.700000X0.050000X-0.700000X0.050000X0.700000X-0.050000X0.700000X0*%
G04 APERTURE END LIST*
D10*
%TO.C,REF\u002A\u002A*%
X119142857Y-33821428D02*
X119000000Y-33750000D01*
X118928571Y-33678571D01*
X118857142Y-33535714D01*
X118857142Y-33464285D01*
X118928571Y-33321428D01*
X119000000Y-33250000D01*
X119142857Y-33178571D01*
X119428571Y-33178571D01*
X119571428Y-33250000D01*
X119642857Y-33321428D01*
X119714285Y-33464285D01*
X119714285Y-33535714D01*
X119642857Y-33678571D01*
X119571428Y-33750000D01*
X119428571Y-33821428D01*
X119142857Y-33821428D01*
X119000000Y-33892857D01*
X118928571Y-33964285D01*
X118857142Y-34107142D01*
X118857142Y-34392857D01*
X118928571Y-34535714D01*
X119000000Y-34607142D01*
X119142857Y-34678571D01*
X119428571Y-34678571D01*
X119571428Y-34607142D01*
X119642857Y-34535714D01*
X119714285Y-34392857D01*
X119714285Y-34107142D01*
X119642857Y-33964285D01*
X119571428Y-33892857D01*
X119428571Y-33821428D01*
X120642857Y-33178571D02*
X120785714Y-33178571D01*
X120928571Y-33250000D01*
X121000000Y-33321428D01*
X121071428Y-33464285D01*
X121142857Y-33750000D01*
X121142857Y-34107142D01*
X121071428Y-34392857D01*
X121000000Y-34535714D01*
X120928571Y-34607142D01*
X120785714Y-34678571D01*
X120642857Y-34678571D01*
X120500000Y-34607142D01*
X120428571Y-34535714D01*
X120357142Y-34392857D01*
X120285714Y-34107142D01*
X120285714Y-33750000D01*
X120357142Y-33464285D01*
X120428571Y-33321428D01*
X120500000Y-33250000D01*
X120642857Y-33178571D01*
X58857142Y-33321428D02*
X58928571Y-33250000D01*
X59071428Y-33178571D01*
X59428571Y-33178571D01*
X59571428Y-33250000D01*
X59642857Y-33321428D01*
X59714285Y-33464285D01*
X59714285Y-33607142D01*
X59642857Y-33821428D01*
X58785714Y-34678571D01*
X59714285Y-34678571D01*
X60642857Y-33178571D02*
X60785714Y-33178571D01*
X60928571Y-33250000D01*
X61000000Y-33321428D01*
X61071428Y-33464285D01*
X61142857Y-33750000D01*
X61142857Y-34107142D01*
X61071428Y-34392857D01*
X61000000Y-34535714D01*
X60928571Y-34607142D01*
X60785714Y-34678571D01*
X60642857Y-34678571D01*
X60500000Y-34607142D01*
X60428571Y-34535714D01*
X60357142Y-34392857D01*
X60285714Y-34107142D01*
X60285714Y-33750000D01*
X60357142Y-33464285D01*
X60428571Y-33321428D01*
X60500000Y-33250000D01*
X60642857Y-33178571D01*
X108785714Y-33178571D02*
X109785714Y-33178571D01*
X109142857Y-34678571D01*
X110642857Y-33178571D02*
X110785714Y-33178571D01*
X110928571Y-33250000D01*
X111000000Y-33321428D01*
X111071428Y-33464285D01*
X111142857Y-33750000D01*
X111142857Y-34107142D01*
X111071428Y-34392857D01*
X111000000Y-34535714D01*
X110928571Y-34607142D01*
X110785714Y-34678571D01*
X110642857Y-34678571D01*
X110500000Y-34607142D01*
X110428571Y-34535714D01*
X110357142Y-34392857D01*
X110285714Y-34107142D01*
X110285714Y-33750000D01*
X110357142Y-33464285D01*
X110428571Y-33321428D01*
X110500000Y-33250000D01*
X110642857Y-33178571D01*
X89642857Y-33178571D02*
X88928571Y-33178571D01*
X88857142Y-33892857D01*
X88928571Y-33821428D01*
X89071428Y-33750000D01*
X89428571Y-33750000D01*
X89571428Y-33821428D01*
X89642857Y-33892857D01*
X89714285Y-34035714D01*
X89714285Y-34392857D01*
X89642857Y-34535714D01*
X89571428Y-34607142D01*
X89428571Y-34678571D01*
X89071428Y-34678571D01*
X88928571Y-34607142D01*
X88857142Y-34535714D01*
X90642857Y-33178571D02*
X90785714Y-33178571D01*
X90928571Y-33250000D01*
X91000000Y-33321428D01*
X91071428Y-33464285D01*
X91142857Y-33750000D01*
X91142857Y-34107142D01*
X91071428Y-34392857D01*
X91000000Y-34535714D01*
X90928571Y-34607142D01*
X90785714Y-34678571D01*
X90642857Y-34678571D01*
X90500000Y-34607142D01*
X90428571Y-34535714D01*
X90357142Y-34392857D01*
X90285714Y-34107142D01*
X90285714Y-33750000D01*
X90357142Y-33464285D01*
X90428571Y-33321428D01*
X90500000Y-33250000D01*
X90642857Y-33178571D01*
X129000000Y-34678571D02*
X129285714Y-34678571D01*
X129428571Y-34607142D01*
X129500000Y-34535714D01*
X129642857Y-34321428D01*
X129714285Y-34035714D01*
X129714285Y-33464285D01*
X129642857Y-33321428D01*
X129571428Y-33250000D01*
X129428571Y-33178571D01*
X129142857Y-33178571D01*
X129000000Y-33250000D01*
X128928571Y-33321428D01*
X128857142Y-33464285D01*
X128857142Y-33821428D01*
X128928571Y-33964285D01*
X129000000Y-34035714D01*
X129142857Y-34107142D01*
X129428571Y-34107142D01*
X129571428Y-34035714D01*
X129642857Y-33964285D01*
X129714285Y-33821428D01*
X130642857Y-33178571D02*
X130785714Y-33178571D01*
X130928571Y-33250000D01*
X131000000Y-33321428D01*
X131071428Y-33464285D01*
X131142857Y-33750000D01*
X131142857Y-34107142D01*
X131071428Y-34392857D01*
X131000000Y-34535714D01*
X130928571Y-34607142D01*
X130785714Y-34678571D01*
X130642857Y-34678571D01*
X130500000Y-34607142D01*
X130428571Y-34535714D01*
X130357142Y-34392857D01*
X130285714Y-34107142D01*
X130285714Y-33750000D01*
X130357142Y-33464285D01*
X130428571Y-33321428D01*
X130500000Y-33250000D01*
X130642857Y-33178571D01*
X49714285Y-34678571D02*
X48857142Y-34678571D01*
X49285714Y-34678571D02*
X49285714Y-33178571D01*
X49142857Y-33392857D01*
X49000000Y-33535714D01*
X48857142Y-33607142D01*
X50642857Y-33178571D02*
X50785714Y-33178571D01*
X50928571Y-33250000D01*
X51000000Y-33321428D01*
X51071428Y-33464285D01*
X51142857Y-33750000D01*
X51142857Y-34107142D01*
X51071428Y-34392857D01*
X51000000Y-34535714D01*
X50928571Y-34607142D01*
X50785714Y-34678571D01*
X50642857Y-34678571D01*
X50500000Y-34607142D01*
X50428571Y-34535714D01*
X50357142Y-34392857D01*
X50285714Y-34107142D01*
X50285714Y-33750000D01*
X50357142Y-33464285D01*
X50428571Y-33321428D01*
X50500000Y-33250000D01*
X50642857Y-33178571D01*
X79571428Y-33678571D02*
X79571428Y-34678571D01*
X79214285Y-33107142D02*
X78857142Y-34178571D01*
X79785714Y-34178571D01*
X80642857Y-33178571D02*
X80785714Y-33178571D01*
X80928571Y-33250000D01*
X81000000Y-33321428D01*
X81071428Y-33464285D01*
X81142857Y-33750000D01*
X81142857Y-34107142D01*
X81071428Y-34392857D01*
X81000000Y-34535714D01*
X80928571Y-34607142D01*
X80785714Y-34678571D01*
X80642857Y-34678571D01*
X80500000Y-34607142D01*
X80428571Y-34535714D01*
X80357142Y-34392857D01*
X80285714Y-34107142D01*
X80285714Y-33750000D01*
X80357142Y-33464285D01*
X80428571Y-33321428D01*
X80500000Y-33250000D01*
X80642857Y-33178571D01*
X68785714Y-33178571D02*
X69714285Y-33178571D01*
X69214285Y-33750000D01*
X69428571Y-33750000D01*
X69571428Y-33821428D01*
X69642857Y-33892857D01*
X69714285Y-34035714D01*
X69714285Y-34392857D01*
X69642857Y-34535714D01*
X69571428Y-34607142D01*
X69428571Y-34678571D01*
X69000000Y-34678571D01*
X68857142Y-34607142D01*
X68785714Y-34535714D01*
X70642857Y-33178571D02*
X70785714Y-33178571D01*
X70928571Y-33250000D01*
X71000000Y-33321428D01*
X71071428Y-33464285D01*
X71142857Y-33750000D01*
X71142857Y-34107142D01*
X71071428Y-34392857D01*
X71000000Y-34535714D01*
X70928571Y-34607142D01*
X70785714Y-34678571D01*
X70642857Y-34678571D01*
X70500000Y-34607142D01*
X70428571Y-34535714D01*
X70357142Y-34392857D01*
X70285714Y-34107142D01*
X70285714Y-33750000D01*
X70357142Y-33464285D01*
X70428571Y-33321428D01*
X70500000Y-33250000D01*
X70642857Y-33178571D01*
X99571428Y-33178571D02*
X99285714Y-33178571D01*
X99142857Y-33250000D01*
X99071428Y-33321428D01*
X98928571Y-33535714D01*
X98857142Y-33821428D01*
X98857142Y-34392857D01*
X98928571Y-34535714D01*
X99000000Y-34607142D01*
X99142857Y-34678571D01*
X99428571Y-34678571D01*
X99571428Y-34607142D01*
X99642857Y-34535714D01*
X99714285Y-34392857D01*
X99714285Y-34035714D01*
X99642857Y-33892857D01*
X99571428Y-33821428D01*
X99428571Y-33750000D01*
X99142857Y-33750000D01*
X99000000Y-33821428D01*
X98928571Y-33892857D01*
X98857142Y-34035714D01*
X100642857Y-33178571D02*
X100785714Y-33178571D01*
X100928571Y-33250000D01*
X101000000Y-33321428D01*
X101071428Y-33464285D01*
X101142857Y-33750000D01*
X101142857Y-34107142D01*
X101071428Y-34392857D01*
X101000000Y-34535714D01*
X100928571Y-34607142D01*
X100785714Y-34678571D01*
X100642857Y-34678571D01*
X100500000Y-34607142D01*
X100428571Y-34535714D01*
X100357142Y-34392857D01*
X100285714Y-34107142D01*
X100285714Y-33750000D01*
X100357142Y-33464285D01*
X100428571Y-33321428D01*
X100500000Y-33250000D01*
X100642857Y-33178571D01*
%TD*%
D11*
%TO.C,X1*%
X86000000Y-39880000D03*
D12*
X86000000Y-37340000D03*
%TD*%
D13*
%TO.C,AND*%
X105435000Y-44952500D03*
X106705000Y-44952500D03*
X110515000Y-44952500D03*
X111785000Y-44952500D03*
X115595000Y-44952500D03*
X116865000Y-44952500D03*
X118135000Y-44952500D03*
X128295000Y-44952500D03*
X129565000Y-44952500D03*
%TD*%
D11*
%TO.C,X2*%
X92000000Y-39775000D03*
D12*
X92000000Y-37235000D03*
%TD*%
D11*
%TO.C,Y*%
X98000000Y-39775000D03*
D12*
X98000000Y-37235000D03*
%TD*%
D14*
%TO.C,R3*%
X79310000Y-45400000D03*
D15*
X71690000Y-45400000D03*
%TD*%
D16*
%TO.C,USB-CPWR*%
X43525000Y-40700000D03*
X43525000Y-49300000D03*
D17*
X47325000Y-46800000D03*
X47325000Y-43200000D03*
%TD*%
%TO.C,SW2*%
X94350000Y-50450000D03*
X94350000Y-43950000D03*
X98850000Y-43950000D03*
X98850000Y-50450000D03*
%TD*%
D14*
%TO.C,R2*%
X79310000Y-41500000D03*
D15*
X71690000Y-41500000D03*
%TD*%
D18*
%TO.C,74HC00*%
X51875000Y-45300000D03*
D19*
X54415000Y-45300000D03*
X56955000Y-45300000D03*
X59495000Y-45300000D03*
X62035000Y-45300000D03*
X64575000Y-45300000D03*
X67115000Y-45300000D03*
X67115000Y-37680000D03*
X64575000Y-37680000D03*
X62035000Y-37680000D03*
X59495000Y-37680000D03*
X56955000Y-37680000D03*
X54415000Y-37680000D03*
X51875000Y-37680000D03*
%TD*%
D13*
%TO.C,XOR*%
X105435000Y-50600000D03*
X106705000Y-50600000D03*
X107975000Y-50600000D03*
X110515000Y-50600000D03*
X111785000Y-50600000D03*
X113055000Y-50600000D03*
X115595000Y-50600000D03*
X116865000Y-50600000D03*
X118135000Y-50600000D03*
X120675000Y-50600000D03*
X121945000Y-50600000D03*
X124485000Y-50600000D03*
X125755000Y-50600000D03*
X128295000Y-50600000D03*
X129565000Y-50600000D03*
%TD*%
%TO.C,OR*%
X105435000Y-39400000D03*
X106705000Y-39400000D03*
X107975000Y-39400000D03*
X110515000Y-39400000D03*
X111785000Y-39400000D03*
X113055000Y-39400000D03*
X120675000Y-39400000D03*
X121945000Y-39400000D03*
X124485000Y-39400000D03*
X125755000Y-39400000D03*
X128295000Y-39400000D03*
X129565000Y-39400000D03*
%TD*%
D20*
%TO.C,REF\u002A\u002A*%
X135000000Y-42500000D03*
%TD*%
D17*
%TO.C,SW1*%
X85150000Y-50450000D03*
X85150000Y-43950000D03*
X89650000Y-50450000D03*
X89650000Y-43950000D03*
%TD*%
D21*
%TO.C,REF\u002A\u002A*%
X60000000Y-31200000D03*
X70000000Y-31200000D03*
X130000000Y-31200000D03*
X90000000Y-31200000D03*
X120000000Y-31200000D03*
X110000000Y-31200000D03*
X80000000Y-31200000D03*
X100000000Y-31200000D03*
X50000000Y-31200000D03*
D22*
X135000000Y-30950000D03*
X75000000Y-30950000D03*
X115000000Y-30950000D03*
X95000000Y-30950000D03*
X55000000Y-30950000D03*
X125000000Y-30950000D03*
X105000000Y-30950000D03*
X85000000Y-30950000D03*
X45000000Y-30950000D03*
X65000000Y-30950000D03*
D23*
X74000000Y-30700000D03*
X64000000Y-30700000D03*
X44000000Y-30700000D03*
X94000000Y-30700000D03*
X84000000Y-30700000D03*
X114000000Y-30700000D03*
X134000000Y-30700000D03*
X124000000Y-30700000D03*
X104000000Y-30700000D03*
X54000000Y-30700000D03*
X103000000Y-30700000D03*
X83000000Y-30700000D03*
X53000000Y-30700000D03*
X93000000Y-30700000D03*
X113000000Y-30700000D03*
X73000000Y-30700000D03*
X63000000Y-30700000D03*
X123000000Y-30700000D03*
X133000000Y-30700000D03*
X43000000Y-30700000D03*
X62000000Y-30700000D03*
X82000000Y-30700000D03*
X102000000Y-30700000D03*
X122000000Y-30700000D03*
X92000000Y-30700000D03*
X132000000Y-30700000D03*
X42000000Y-30700000D03*
X52000000Y-30700000D03*
X72000000Y-30700000D03*
X112000000Y-30700000D03*
X121000000Y-30700000D03*
X81000000Y-30700000D03*
X71000000Y-30700000D03*
X41000000Y-30700000D03*
X111000000Y-30700000D03*
X131000000Y-30700000D03*
X101000000Y-30700000D03*
X91000000Y-30700000D03*
X51000000Y-30700000D03*
X61000000Y-30700000D03*
X76000000Y-30700000D03*
X106000000Y-30700000D03*
X46000000Y-30700000D03*
X96000000Y-30700000D03*
X126000000Y-30700000D03*
X56000000Y-30700000D03*
X66000000Y-30700000D03*
X136000000Y-30700000D03*
X116000000Y-30700000D03*
X86000000Y-30700000D03*
X77000000Y-30700000D03*
X47000000Y-30700000D03*
X87000000Y-30700000D03*
X117000000Y-30700000D03*
X137000000Y-30700000D03*
X67000000Y-30700000D03*
X57000000Y-30700000D03*
X127000000Y-30700000D03*
X97000000Y-30700000D03*
X107000000Y-30700000D03*
X108000000Y-30700000D03*
X68000000Y-30700000D03*
X48000000Y-30700000D03*
X138000000Y-30700000D03*
X128000000Y-30700000D03*
X78000000Y-30700000D03*
X88000000Y-30700000D03*
X118000000Y-30700000D03*
X58000000Y-30700000D03*
X98000000Y-30700000D03*
X79000000Y-30700000D03*
X99000000Y-30700000D03*
X119000000Y-30700000D03*
X49000000Y-30700000D03*
X129000000Y-30700000D03*
X89000000Y-30700000D03*
X69000000Y-30700000D03*
X59000000Y-30700000D03*
X109000000Y-30700000D03*
X139000000Y-30700000D03*
%TD*%
D14*
%TO.C,R1*%
X79310000Y-37600000D03*
D15*
X71690000Y-37600000D03*
%TD*%
M02*
