M48
; DRILL file {KiCad 9.0.2} date 2025-10-23T19:24:48+0900
; FORMAT={-:-/ absolute / metric / decimal}
; #@! TF.CreationDate,2025-10-23T19:24:48+09:00
; #@! TF.GenerationSoftware,Kicad,Pcbnew,9.0.2
; #@! TF.FileFunction,Plated,1,2,PTH
FMAT,2
METRIC
; #@! TA.AperFunction,Plated,PTH,ViaDrill
T1C0.400
; #@! TA.AperFunction,Plated,PTH,ComponentDrill
T2C0.600
; #@! TA.AperFunction,Plated,PTH,ComponentDrill
T3C0.700
; #@! TA.AperFunction,Plated,PTH,ComponentDrill
T4C0.800
; #@! TA.AperFunction,Plated,PTH,ComponentDrill
T5C0.900
; #@! TA.AperFunction,Plated,PTH,ComponentDrill
T6C1.100
; #@! TA.AperFunction,Plated,PTH,ComponentDrill
T7C1.120
; #@! TA.AperFunction,Plated,PTH,ComponentDrill
T8C3.000
%
G90
G05
T1
X68.12Y-56.77
X68.12Y-81.77
X68.12Y-106.77
X68.12Y-131.77
X74.8Y-57.49
X74.8Y-82.49
X74.8Y-107.49
X74.8Y-132.49
X75.711Y-58.214
X75.711Y-83.215
X75.711Y-108.215
X75.711Y-133.214
X76.635Y-58.939
X76.635Y-83.939
X76.635Y-108.939
X76.635Y-133.939
X78.49Y-53.77
X78.49Y-78.77
X78.49Y-103.77
X78.49Y-128.77
X79.921Y-58.939
X79.921Y-83.939
X79.921Y-108.939
X79.921Y-133.939
X82.19Y-57.49
X82.19Y-82.49
X82.19Y-107.49
X82.19Y-132.49
X83.6Y-61.83
X83.6Y-86.83
X83.6Y-111.83
X83.6Y-136.83
X94.865Y-48.255
X94.865Y-73.255
X94.865Y-98.255
X94.865Y-123.255
X95.87Y-50.86
X95.87Y-75.86
X95.87Y-100.86
X95.87Y-125.86
X96.735Y-50.125
X96.735Y-75.125
X96.735Y-100.125
X96.735Y-125.125
X101.67Y-46.11
X101.67Y-71.111
X101.67Y-96.111
X101.67Y-121.11
X101.88Y-51.6
X101.88Y-76.6
X101.88Y-101.6
X101.88Y-126.6
X102.2Y-48.1
X102.2Y-73.1
X102.2Y-98.1
X102.2Y-123.1
X102.42Y-46.835
X102.42Y-71.835
X102.42Y-96.835
X102.42Y-121.835
X104.75Y-48.1
X104.75Y-73.1
X104.75Y-98.1
X104.75Y-123.1
X105.145Y-58.602
X105.145Y-83.602
X105.145Y-108.602
X105.145Y-133.602
X105.855Y-60.2
X105.855Y-85.2
X105.855Y-110.2
X105.855Y-135.2
X105.87Y-49.0
X105.87Y-54.55
X105.87Y-74.0
X105.87Y-79.55
X105.87Y-99.0
X105.87Y-104.55
X105.87Y-124.0
X105.87Y-129.55
X107.12Y-49.0
X107.12Y-54.55
X107.12Y-60.2
X107.12Y-74.0
X107.12Y-79.55
X107.12Y-85.2
X107.12Y-99.0
X107.12Y-104.55
X107.12Y-110.2
X107.12Y-124.0
X107.12Y-129.55
X107.12Y-135.2
X107.844Y-51.6
X107.844Y-76.6
X107.844Y-101.6
X107.844Y-126.6
X108.395Y-60.2
X108.395Y-85.2
X108.395Y-110.2
X108.395Y-135.2
X109.22Y-58.602
X109.22Y-83.602
X109.22Y-108.602
X109.22Y-133.602
X109.41Y-46.11
X109.41Y-71.111
X109.41Y-96.111
X109.41Y-121.11
X110.182Y-46.835
X110.182Y-71.835
X110.182Y-96.835
X110.182Y-121.835
X110.92Y-49.0
X110.92Y-54.6
X110.92Y-74.0
X110.92Y-79.6
X110.92Y-99.0
X110.92Y-104.6
X110.92Y-124.0
X110.92Y-129.6
X110.935Y-60.2
X110.935Y-85.2
X110.935Y-110.2
X110.935Y-135.2
X111.73Y-51.31
X111.73Y-76.31
X111.73Y-101.31
X111.73Y-126.31
X112.205Y-49.0
X112.205Y-74.0
X112.205Y-99.0
X112.205Y-124.0
X112.22Y-54.55
X112.22Y-60.2
X112.22Y-79.55
X112.22Y-85.2
X112.22Y-104.55
X112.22Y-110.2
X112.22Y-129.55
X112.22Y-135.2
X113.47Y-51.946
X113.47Y-76.946
X113.47Y-101.946
X113.47Y-126.946
X113.47Y-49.0
X113.47Y-54.903
X113.47Y-57.15
X113.47Y-60.2
X113.47Y-74.0
X113.47Y-79.903
X113.47Y-82.15
X113.47Y-85.2
X113.47Y-99.0
X113.47Y-104.903
X113.47Y-107.15
X113.47Y-110.2
X113.47Y-124.0
X113.47Y-129.903
X113.47Y-132.15
X113.47Y-135.2
X116.02Y-50.98
X116.02Y-54.55
X116.02Y-60.2
X116.02Y-75.98
X116.02Y-79.55
X116.02Y-85.2
X116.02Y-100.98
X116.02Y-104.55
X116.02Y-110.2
X116.02Y-125.98
X116.02Y-129.55
X116.02Y-135.2
X117.27Y-60.2
X117.27Y-85.2
X117.27Y-110.2
X117.27Y-135.2
X117.29Y-51.75
X117.29Y-54.56
X117.29Y-76.75
X117.29Y-79.56
X117.29Y-101.75
X117.29Y-104.56
X117.29Y-126.75
X117.29Y-129.56
X118.57Y-51.69
X118.57Y-54.5
X118.57Y-60.2
X118.57Y-76.69
X118.57Y-79.5
X118.57Y-85.2
X118.57Y-101.69
X118.57Y-104.5
X118.57Y-110.2
X118.57Y-126.69
X118.57Y-129.5
X118.57Y-135.2
X119.72Y-56.7
X119.72Y-81.7
X119.72Y-106.7
X119.72Y-131.7
X121.07Y-60.2
X121.07Y-85.2
X121.07Y-110.2
X121.07Y-135.2
X121.12Y-49.0
X121.12Y-74.0
X121.12Y-99.0
X121.12Y-124.0
X122.37Y-49.0
X122.37Y-74.0
X122.37Y-99.0
X122.37Y-124.0
X123.92Y-46.5
X123.92Y-71.5
X123.92Y-96.5
X123.92Y-121.5
X124.905Y-52.285
X124.905Y-77.285
X124.905Y-102.285
X124.905Y-127.285
X124.92Y-54.55
X124.92Y-60.2
X124.92Y-79.55
X124.92Y-85.2
X124.92Y-104.55
X124.92Y-110.2
X124.92Y-129.55
X124.92Y-135.2
X126.17Y-49.0
X126.17Y-74.0
X126.17Y-99.0
X126.17Y-124.0
X128.72Y-49.0
X128.72Y-74.0
X128.72Y-99.0
X128.72Y-124.0
X129.985Y-49.0
X129.985Y-54.552
X129.985Y-74.0
X129.985Y-79.552
X129.985Y-99.0
X129.985Y-104.552
X129.985Y-124.0
X129.985Y-129.552
X129.99Y-60.19
X129.99Y-85.19
X129.99Y-110.19
X129.99Y-135.19
T3
X72.11Y-47.2
X72.11Y-51.1
X72.11Y-55.0
X72.11Y-72.2
X72.11Y-76.1
X72.11Y-80.0
X72.11Y-97.2
X72.11Y-101.1
X72.11Y-105.0
X72.11Y-122.2
X72.11Y-126.1
X72.11Y-130.0
X79.73Y-47.2
X79.73Y-51.1
X79.73Y-55.0
X79.73Y-72.2
X79.73Y-76.1
X79.73Y-80.0
X79.73Y-97.2
X79.73Y-101.1
X79.73Y-105.0
X79.73Y-122.2
X79.73Y-126.1
X79.73Y-130.0
T4
X52.295Y-47.28
X52.295Y-54.9
X52.295Y-72.28
X52.295Y-79.9
X52.295Y-97.28
X52.295Y-104.9
X52.295Y-122.28
X52.295Y-129.9
X54.835Y-47.28
X54.835Y-54.9
X54.835Y-72.28
X54.835Y-79.9
X54.835Y-97.28
X54.835Y-104.9
X54.835Y-122.28
X54.835Y-129.9
X57.375Y-47.28
X57.375Y-54.9
X57.375Y-72.28
X57.375Y-79.9
X57.375Y-97.28
X57.375Y-104.9
X57.375Y-122.28
X57.375Y-129.9
X59.915Y-47.28
X59.915Y-54.9
X59.915Y-72.28
X59.915Y-79.9
X59.915Y-97.28
X59.915Y-104.9
X59.915Y-122.28
X59.915Y-129.9
X62.455Y-47.28
X62.455Y-54.9
X62.455Y-72.28
X62.455Y-79.9
X62.455Y-97.28
X62.455Y-104.9
X62.455Y-122.28
X62.455Y-129.9
X64.995Y-47.28
X64.995Y-54.9
X64.995Y-72.28
X64.995Y-79.9
X64.995Y-97.28
X64.995Y-104.9
X64.995Y-122.28
X64.995Y-129.9
X67.535Y-47.28
X67.535Y-54.9
X67.535Y-72.28
X67.535Y-79.9
X67.535Y-97.28
X67.535Y-104.9
X67.535Y-122.28
X67.535Y-129.9
T5
X86.42Y-46.94
X86.42Y-49.48
X86.42Y-71.94
X86.42Y-74.48
X86.42Y-96.94
X86.42Y-99.48
X86.42Y-121.94
X86.42Y-124.48
X92.42Y-46.835
X92.42Y-49.375
X92.42Y-71.835
X92.42Y-74.375
X92.42Y-96.835
X92.42Y-99.375
X92.42Y-121.835
X92.42Y-124.375
X98.42Y-46.835
X98.42Y-49.375
X98.42Y-71.835
X98.42Y-74.375
X98.42Y-96.835
X98.42Y-99.375
X98.42Y-121.835
X98.42Y-124.375
T6
X85.57Y-53.55
X85.57Y-60.05
X85.57Y-78.55
X85.57Y-85.05
X85.57Y-103.55
X85.57Y-110.05
X85.57Y-128.55
X85.57Y-135.05
X90.07Y-53.55
X90.07Y-60.05
X90.07Y-78.55
X90.07Y-85.05
X90.07Y-103.55
X90.07Y-110.05
X90.07Y-128.55
X90.07Y-135.05
X94.77Y-53.55
X94.77Y-60.05
X94.77Y-78.55
X94.77Y-85.05
X94.77Y-103.55
X94.77Y-110.05
X94.77Y-128.55
X94.77Y-135.05
X99.27Y-53.55
X99.27Y-60.05
X99.27Y-78.55
X99.27Y-85.05
X99.27Y-103.55
X99.27Y-110.05
X99.27Y-128.55
X99.27Y-135.05
T7
X47.745Y-52.8
X47.745Y-56.4
X47.745Y-77.8
X47.745Y-81.4
X47.745Y-102.8
X47.745Y-106.4
X47.745Y-127.8
X47.745Y-131.4
T2
G00X44.295Y-50.3
M15
G01X43.595Y-50.3
M16
G05
G00X44.295Y-58.9
M15
G01X43.595Y-58.9
M16
G05
G00X44.295Y-75.3
M15
G01X43.595Y-75.3
M16
G05
G00X44.295Y-83.9
M15
G01X43.595Y-83.9
M16
G05
G00X44.295Y-100.3
M15
G01X43.595Y-100.3
M16
G05
G00X44.295Y-108.9
M15
G01X43.595Y-108.9
M16
G05
G00X44.295Y-125.3
M15
G01X43.595Y-125.3
M16
G05
G00X44.295Y-133.9
M15
G01X43.595Y-133.9
M16
G05
T8
G00X135.42Y-49.6
M15
G01X135.42Y-54.6
M16
G05
G00X135.42Y-74.6
M15
G01X135.42Y-79.6
M16
G05
G00X135.42Y-99.6
M15
G01X135.42Y-104.6
M16
G05
G00X135.42Y-124.6
M15
G01X135.42Y-129.6
M16
G05
M30
