%TF.GenerationSoftware,KiCad,Pcbnew,9.0.2*%
%TF.CreationDate,2025-10-23T19:24:45+09:00*%
%TF.ProjectId,simpleLogicCircuit.kicad_pcb_v1.4_4x1,73696d70-6c65-44c6-9f67-696343697263,rev?*%
%TF.SameCoordinates,Original*%
%TF.FileFunction,Profile,NP*%
%FSLAX46Y46*%
G04 Gerber Fmt 4.6, Leading zero omitted, Abs format (unit mm)*
G04 Created by KiCad (PCBNEW 9.0.2) date 2025-10-23 19:24:45*
%MOMM*%
%LPD*%
G01*
G04 APERTURE LIST*
%TA.AperFunction,Profile*%
%ADD10C,0.100000*%
%TD*%
G04 APERTURE END LIST*
D10*
X42086666Y-114600000D02*
G75*
G02*
X38753334Y-114600000I-1666666J0D01*
G01*
X38753334Y-114600000D02*
G75*
G02*
X42086666Y-114600000I1666666J0D01*
G01*
X37920000Y-114600000D02*
X42920000Y-114600000D01*
X40420000Y-112100000D02*
X40420000Y-117100000D01*
X40420000Y-89600000D02*
X140420000Y-89600000D01*
X140420000Y-114600000D01*
X40420000Y-114600000D01*
X40420000Y-89600000D01*
X42086666Y-89600000D02*
G75*
G02*
X38753334Y-89600000I-1666666J0D01*
G01*
X38753334Y-89600000D02*
G75*
G02*
X42086666Y-89600000I1666666J0D01*
G01*
X37920000Y-89600000D02*
X42920000Y-89600000D01*
X40420000Y-87100000D02*
X40420000Y-92100000D01*
X40420000Y-64600000D02*
X140420000Y-64600000D01*
X140420000Y-89600000D01*
X40420000Y-89600000D01*
X40420000Y-64600000D01*
X42086666Y-64600000D02*
G75*
G02*
X38753334Y-64600000I-1666666J0D01*
G01*
X38753334Y-64600000D02*
G75*
G02*
X42086666Y-64600000I1666666J0D01*
G01*
X37920000Y-64600000D02*
X42920000Y-64600000D01*
X40420000Y-62100000D02*
X40420000Y-67100000D01*
X40420000Y-39600000D02*
X140420000Y-39600000D01*
X140420000Y-64600000D01*
X40420000Y-64600000D01*
X40420000Y-39600000D01*
X40420000Y-114600000D02*
X140420000Y-114600000D01*
X140420000Y-139600000D01*
X40420000Y-139600000D01*
X40420000Y-114600000D01*
X42086666Y-139600000D02*
G75*
G02*
X38753334Y-139600000I-1666666J0D01*
G01*
X38753334Y-139600000D02*
G75*
G02*
X42086666Y-139600000I1666666J0D01*
G01*
X37920000Y-139600000D02*
X42920000Y-139600000D01*
X40420000Y-137100000D02*
X40420000Y-142100000D01*
M02*
